<?xml version="1.0" encoding="UTF-8" standalone="no"?>
<!DOCTYPE svg PUBLIC "-//W3C//DTD SVG 1.1//EN" "http://www.w3.org/Graphics/SVG/1.1/DTD/svg11.dtd">
<svg xmlns="http://www.w3.org/2000/svg" version="1.1" viewBox="0.00 0.00 208.00 168.00">
<g stroke-width="2.00" fill="none" stroke-linecap="butt">
<path stroke="#ff6959" vector-effect="non-scaling-stroke" d="
  M 96.50 11.54
  L 96.99 18.90"
/>
<path stroke="#faa4ad" vector-effect="non-scaling-stroke" d="
  M 96.99 18.90
  Q 96.22 22.59 97.02 26.40"
/>
<path stroke="#ff6959" vector-effect="non-scaling-stroke" d="
  M 97.02 26.40
  Q 96.10 29.89 97.50 33.46"
/>
<path stroke="#80955d" vector-effect="non-scaling-stroke" d="
  M 52.96 58.75
  L 33.46 47.75"
/>
<path stroke="#ffa32a" vector-effect="non-scaling-stroke" d="
  M 159.71 47.50
  L 140.46 58.75"
/>
<path stroke="#fabda7" vector-effect="non-scaling-stroke" d="
  M 97.02 26.40
  Q 99.49 22.61 96.99 18.90"
/>
<path stroke="#00cf7c" vector-effect="non-scaling-stroke" d="
  M 52.96 109.00
  Q 52.31 109.27 51.96 109.84
  Q 51.73 110.21 51.35 110.42
  L 33.50 120.04"
/>
<path stroke="#a79771" vector-effect="non-scaling-stroke" d="
  M 159.86 120.15
  L 140.46 109.25"
/>
<path stroke="#2898bf" vector-effect="non-scaling-stroke" d="
  M 89.27 134.10
  Q 69.85 134.91 50.43 134.83
  C 48.33 134.82 45.90 134.42 43.75 134.21"
/>
<path stroke="#2898bf" vector-effect="non-scaling-stroke" d="
  M 149.35 134.12
  Q 131.71 151.47 107.20 155.60
  Q 106.75 155.67 106.75 156.14
  L 106.75 156.71"
/>
<path stroke="#faa4ad" vector-effect="non-scaling-stroke" d="
  M 88.0514 20.2731
  A 1.26 1.26 0.0 0 0 86.7397 19.0670
  L 84.0621 19.1792
  A 1.26 1.26 0.0 0 0 82.8560 20.4909
  L 83.0486 25.0869
  A 1.26 1.26 0.0 0 0 84.3603 26.2930
  L 87.0379 26.1808
  A 1.26 1.26 0.0 0 0 88.2440 24.8691
  L 88.0514 20.2731"
/>
<path stroke="#faa4ad" vector-effect="non-scaling-stroke" d="
  M 91.89 25.22
  C 90.49 24.17 91.11 21.34 90.92 19.74
  Q 90.86 19.25 90.36 19.25
  Q 90.20 19.25 90.04 19.25
  Q 89.53 19.24 89.52 19.75
  C 89.44 22.33 88.57 27.34 93.26 26.17
  C 96.17 25.44 95.14 21.81 94.94 19.72
  Q 94.90 19.34 94.53 19.26
  Q 94.36 19.21 94.16 19.27
  Q 93.77 19.38 93.77 19.78
  L 93.71 24.33
  Q 93.68 26.57 91.89 25.22"
/>
<path stroke="#fabda7" vector-effect="non-scaling-stroke" d="
  M 101.01 24.68
  L 100.99 19.81
  Q 100.99 19.31 100.50 19.28
  L 100.16 19.25
  Q 99.53 19.20 99.52 19.84
  L 99.41 25.65
  Q 99.40 26.32 100.08 26.31
  L 103.59 26.22
  Q 104.57 26.20 103.88 25.51
  Q 103.03 24.66 101.99 25.25
  Q 101.02 25.81 101.01 24.68"
/>
<path stroke="#fabda7" vector-effect="non-scaling-stroke" d="
  M 104.93 19.59
  L 104.93 25.91
  A 0.35 0.35 0.0 0 0 105.28 26.26
  L 107.68 26.26
  A 2.81 2.79 -0.0 0 0 110.49 23.47
  L 110.49 22.03
  A 2.81 2.79 0.0 0 0 107.68 19.24
  L 105.28 19.24
  A 0.35 0.35 0.0 0 0 104.93 19.59"
/>
<path stroke="#faa4ad" vector-effect="non-scaling-stroke" d="
  M 86.6690 21.1851
  A 0.99 0.82 -2.6 0 0 85.6428 20.4108
  A 0.99 0.82 -2.6 0 0 84.6910 21.2749
  A 0.99 0.82 -2.6 0 0 85.7172 22.0492
  A 0.99 0.82 -2.6 0 0 86.6690 21.1851"
/>
<path stroke="#faa4ad" vector-effect="non-scaling-stroke" d="
  M 86.88 24.12
  A 1.11 0.95 0.0 0 0 85.77 23.17
  A 1.11 0.95 0.0 0 0 84.66 24.12
  A 1.11 0.95 0.0 0 0 85.77 25.07
  A 1.11 0.95 0.0 0 0 86.88 24.12"
/>
<path stroke="#fabda7" vector-effect="non-scaling-stroke" d="
  M 106.49 20.53
  L 106.51 24.85
  A 0.22 0.22 0.0 0 0 106.73 25.07
  L 107.31 25.06
  A 1.88 1.70 89.7 0 0 109.00 23.17
  L 109.00 22.17
  A 1.88 1.70 89.7 0 0 107.29 20.30
  L 106.71 20.31
  A 0.22 0.22 0.0 0 0 106.49 20.53"
/>
<path stroke="#a2b2ee" vector-effect="non-scaling-stroke" d="
  M 22.99 143.18
  L 22.99 148.26
  A 1.19 1.19 0.0 0 0 24.19 149.44
  L 25.54 149.44
  A 3.24 3.13 -0.1 0 0 28.77 146.30
  L 28.77 145.10
  A 3.24 3.13 -0.1 0 0 25.52 141.98
  L 24.17 141.98
  A 1.19 1.19 0.0 0 0 22.99 143.18"
/>
<path stroke="#a2b2ee" vector-effect="non-scaling-stroke" d="
  M 31.40 143.50
  Q 32.67 143.03 34.02 143.33
  Q 36.51 143.87 34.32 142.57
  Q 32.69 141.60 30.77 142.13
  A 1.39 1.39 0.0 0 0 29.75 143.47
  L 29.75 148.62
  Q 29.75 149.23 30.37 149.25
  L 33.93 149.36
  Q 35.17 149.39 34.23 148.58
  Q 33.21 147.70 31.85 148.07
  Q 31.20 148.25 31.25 147.58
  L 31.33 146.53
  Q 31.38 145.85 32.00 146.12
  Q 33.15 146.63 33.86 145.86
  Q 34.72 144.93 33.46 145.04
  Q 32.29 145.13 31.31 144.58
  Q 30.18 143.94 31.40 143.50"
/>
<path stroke="#a2b2ee" vector-effect="non-scaling-stroke" d="
  M 37.79 143.36
  L 39.24 143.51
  Q 39.92 143.58 40.02 142.91
  C 40.24 141.45 36.39 142.02 35.79 142.21
  Q 35.19 142.40 35.21 143.02
  L 35.37 149.07
  A 0.63 0.63 0.0 0 0 36.45 149.49
  Q 37.37 148.51 36.93 147.11
  Q 36.71 146.45 37.39 146.29
  Q 38.00 146.15 38.59 146.37
  Q 39.01 146.53 39.33 146.22
  L 39.70 145.85
  Q 40.54 145.00 39.35 145.00
  L 38.58 145.00
  Q 38.05 145.00 37.56 144.81
  Q 37.01 144.59 36.98 144.13
  Q 36.94 143.27 37.79 143.36"
/>
<path stroke="#a2b2ee" vector-effect="non-scaling-stroke" d="
  M 42.4895 142.7474
  A 0.71 0.71 0.0 0 0 41.7770 142.0399
  L 41.7170 142.0401
  A 0.71 0.71 0.0 0 0 41.0095 142.7526
  L 41.0305 148.7726
  A 0.71 0.71 0.0 0 0 41.7430 149.4801
  L 41.8030 149.4799
  A 0.71 0.71 0.0 0 0 42.5105 148.7674
  L 42.4895 142.7474"
/>
<path stroke="#a2b2ee" vector-effect="non-scaling-stroke" d="
  M 45.82 145.58
  C 46.56 146.46 48.31 150.38 49.50 148.93
  Q 49.75 148.62 49.75 148.23
  L 49.75 142.81
  Q 49.75 142.38 49.33 142.29
  Q 49.17 142.25 49.04 142.16
  Q 48.64 141.87 48.38 142.29
  Q 47.65 143.45 48.18 144.61
  Q 48.36 145.01 48.06 145.32
  L 47.86 145.52
  Q 47.59 145.78 47.40 145.47
  L 45.33 142.21
  A 0.71 0.70 29.4 0 0 44.03 142.57
  L 43.92 148.68
  Q 43.91 149.21 44.43 149.32
  L 44.71 149.38
  Q 45.38 149.53 45.36 148.84
  L 45.24 145.80
  Q 45.20 144.84 45.82 145.58"
/>
<path stroke="#a2b2ee" vector-effect="non-scaling-stroke" d="
  M 52.46 143.54
  Q 53.71 143.02 55.06 143.29
  Q 55.29 143.34 55.45 143.18
  L 55.67 142.95
  Q 56.07 142.55 55.54 142.36
  Q 53.58 141.66 51.60 142.18
  Q 51.00 142.34 51.00 142.96
  L 51.00 148.50
  Q 51.00 149.25 51.75 149.25
  L 55.23 149.25
  Q 56.49 149.25 55.45 148.55
  C 54.49 147.90 52.32 148.41 52.28 147.01
  Q 52.26 146.40 52.86 146.36
  Q 53.91 146.28 54.99 146.06
  Q 56.91 145.67 54.99 145.27
  L 52.58 144.75
  Q 50.58 144.32 52.46 143.54"
/>
<path stroke="#7adfcc" vector-effect="non-scaling-stroke" d="
  M 152.26 146.34
  Q 153.25 147.28 153.23 148.70
  Q 153.22 149.30 153.82 149.26
  L 154.39 149.21
  Q 155.15 149.15 154.88 148.44
  Q 154.06 146.28 154.67 144.17
  Q 154.83 143.63 154.43 143.24
  Q 152.56 141.45 150.01 142.14
  Q 149.43 142.30 149.46 142.89
  C 149.51 143.82 149.20 149.23 150.24 149.28
  Q 150.80 149.30 150.90 148.75
  L 151.24 146.68
  Q 151.43 145.57 152.26 146.34"
/>
<path stroke="#7adfcc" vector-effect="non-scaling-stroke" d="
  M 157.23 144.37
  A 0.74 0.74 0.0 0 1 157.97 143.19
  Q 159.05 143.45 160.02 143.08
  Q 161.14 142.66 160.01 142.29
  Q 158.27 141.72 156.53 142.13
  Q 156.00 142.25 156.00 142.80
  L 156.00 148.62
  Q 156.00 149.25 156.62 149.25
  L 159.78 149.25
  Q 160.91 149.25 160.09 148.47
  Q 159.32 147.73 158.28 148.25
  Q 157.53 148.63 157.40 147.80
  L 157.25 146.80
  A 0.56 0.55 4.4 0 1 157.97 146.19
  Q 159.18 146.57 159.96 145.69
  Q 160.92 144.60 159.52 144.98
  Q 158.04 145.38 157.23 144.37"
/>
<path stroke="#7adfcc" vector-effect="non-scaling-stroke" d="
  M 168.90 143.37
  L 171.10 143.19
  Q 171.48 143.16 171.61 142.80
  C 172.05 141.57 168.14 141.98 167.56 142.18
  Q 167.00 142.37 167.00 142.96
  L 167.00 148.77
  Q 167.00 149.29 167.52 149.28
  L 172.80 149.14
  Q 173.44 149.13 173.79 148.59
  Q 174.30 147.83 175.18 147.71
  Q 175.72 147.64 176.12 148.01
  L 177.41 149.24
  Q 178.25 150.05 178.03 148.91
  Q 177.38 145.40 175.72 142.23
  A 0.65 0.65 0.0 0 0 174.53 142.32
  L 172.50 148.10
  Q 172.34 148.56 171.85 148.49
  L 169.09 148.05
  Q 168.50 147.95 168.50 147.35
  L 168.50 147.00
  Q 168.50 146.47 169.02 146.37
  L 170.83 146.04
  Q 171.13 145.98 171.05 145.68
  Q 170.99 145.47 170.92 145.27
  Q 170.74 144.79 170.25 144.93
  Q 169.10 145.26 168.44 144.44
  Q 167.65 143.47 168.90 143.37"
/>
<path stroke="#7adfcc" vector-effect="non-scaling-stroke" d="
  M 180.85 143.28
  Q 182.19 143.15 183.16 144.12
  Q 183.53 144.49 183.83 144.06
  C 184.94 142.47 180.82 141.01 179.07 143.40
  Q 178.69 143.92 179.05 144.45
  Q 180.13 146.05 181.99 146.61
  A 0.76 0.75 27.9 0 1 182.36 147.80
  C 181.11 149.35 180.28 146.44 179.25 147.26
  Q 178.84 147.59 179.14 148.02
  C 180.54 150.04 184.80 149.78 184.16 146.68
  Q 184.05 146.19 183.61 145.95
  L 180.64 144.39
  Q 178.88 143.47 180.85 143.28"
/>
<path stroke="#7adfcc" vector-effect="non-scaling-stroke" d="
  M 186.76 147.02
  A 0.73 0.73 0.0 0 1 187.71 146.19
  Q 188.76 146.54 189.27 145.77
  Q 189.82 144.95 188.84 145.04
  Q 187.79 145.13 186.92 144.57
  Q 186.18 144.10 186.93 143.63
  Q 187.95 142.99 189.19 143.27
  Q 189.71 143.39 189.77 142.85
  C 189.88 141.69 186.34 141.98 185.75 142.13
  Q 185.25 142.26 185.25 142.78
  L 185.25 148.51
  Q 185.25 149.26 186.01 149.26
  L 189.71 149.24
  Q 191.25 149.23 189.88 148.51
  Q 188.82 147.96 187.57 148.00
  Q 186.96 148.02 186.84 147.42
  L 186.76 147.02"
/>
<path stroke="#7adfcc" vector-effect="non-scaling-stroke" d="
  M 163.08 147.52
  C 162.94 146.47 163.64 142.13 162.01 142.26
  Q 161.50 142.29 161.50 142.80
  L 161.50 148.58
  Q 161.50 149.23 162.15 149.24
  L 165.52 149.26
  Q 167.03 149.27 165.81 148.38
  Q 164.94 147.75 163.80 148.02
  Q 163.16 148.17 163.08 147.52"
/>
<path stroke="#a2b2ee" vector-effect="non-scaling-stroke" d="
  M 24.74 143.71
  L 24.76 147.55
  A 0.46 0.46 0.0 0 0 25.22 148.01
  L 25.38 148.01
  A 2.26 1.86 89.8 0 0 27.23 145.75
  L 27.23 145.51
  A 2.26 1.86 89.8 0 0 25.36 143.25
  L 25.20 143.25
  A 0.46 0.46 0.0 0 0 24.74 143.71"
/>
<path stroke="#7adfcc" vector-effect="non-scaling-stroke" d="
  M 152.91 144.19
  A 0.96 0.96 0.0 0 0 151.95 143.23
  A 0.96 0.96 0.0 0 0 150.99 144.19
  A 0.96 0.96 0.0 0 0 151.95 145.15
  A 0.96 0.96 0.0 0 0 152.91 144.19"
/>
<path stroke="#7adfcc" vector-effect="non-scaling-stroke" d="
  M 175.48 144.76
  Q 174.37 145.67 174.89 146.79
  Q 175.28 147.61 175.55 146.74
  L 176.04 145.13
  Q 176.38 144.02 175.48 144.76"
/>
</g>
<path fill="#ff505f" d="
  M 96.50 11.54
  L 96.99 18.90
  Q 96.22 22.59 97.02 26.40
  Q 96.10 29.89 97.50 33.46
  Q 68.32 34.41 52.96 58.75
  L 33.46 47.75
  C 48.94 25.11 68.40 12.17 96.50 11.54
  Z
  M 88.0514 20.2731
  A 1.26 1.26 0.0 0 0 86.7397 19.0670
  L 84.0621 19.1792
  A 1.26 1.26 0.0 0 0 82.8560 20.4909
  L 83.0486 25.0869
  A 1.26 1.26 0.0 0 0 84.3603 26.2930
  L 87.0379 26.1808
  A 1.26 1.26 0.0 0 0 88.2440 24.8691
  L 88.0514 20.2731
  Z
  M 91.89 25.22
  C 90.49 24.17 91.11 21.34 90.92 19.74
  Q 90.86 19.25 90.36 19.25
  Q 90.20 19.25 90.04 19.25
  Q 89.53 19.24 89.52 19.75
  C 89.44 22.33 88.57 27.34 93.26 26.17
  C 96.17 25.44 95.14 21.81 94.94 19.72
  Q 94.90 19.34 94.53 19.26
  Q 94.36 19.21 94.16 19.27
  Q 93.77 19.38 93.77 19.78
  L 93.71 24.33
  Q 93.68 26.57 91.89 25.22
  Z"
/>
<path fill="#ff8253" d="
  M 96.50 11.54
  C 122.59 11.20 146.47 25.31 159.71 47.50
  L 140.46 58.75
  Q 125.65 35.16 97.50 33.46
  Q 96.10 29.89 97.02 26.40
  Q 99.49 22.61 96.99 18.90
  L 96.50 11.54
  Z
  M 101.01 24.68
  L 100.99 19.81
  Q 100.99 19.31 100.50 19.28
  L 100.16 19.25
  Q 99.53 19.20 99.52 19.84
  L 99.41 25.65
  Q 99.40 26.32 100.08 26.31
  L 103.59 26.22
  Q 104.57 26.20 103.88 25.51
  Q 103.03 24.66 101.99 25.25
  Q 101.02 25.81 101.01 24.68
  Z
  M 104.93 19.59
  L 104.93 25.91
  A 0.35 0.35 0.0 0 0 105.28 26.26
  L 107.68 26.26
  A 2.81 2.79 -0.0 0 0 110.49 23.47
  L 110.49 22.03
  A 2.81 2.79 0.0 0 0 107.68 19.24
  L 105.28 19.24
  A 0.35 0.35 0.0 0 0 104.93 19.59
  Z"
/>
<path fill="#f4f8fb" d="
  M 88.2440 24.8691
  A 1.26 1.26 0.0 0 1 87.0379 26.1808
  L 84.3603 26.2930
  A 1.26 1.26 0.0 0 1 83.0486 25.0869
  L 82.8560 20.4909
  A 1.26 1.26 0.0 0 1 84.0621 19.1792
  L 86.7397 19.0670
  A 1.26 1.26 0.0 0 1 88.0514 20.2731
  L 88.2440 24.8691
  Z
  M 86.6690 21.1851
  A 0.99 0.82 -2.6 0 0 85.6428 20.4108
  A 0.99 0.82 -2.6 0 0 84.6910 21.2749
  A 0.99 0.82 -2.6 0 0 85.7172 22.0492
  A 0.99 0.82 -2.6 0 0 86.6690 21.1851
  Z
  M 86.88 24.12
  A 1.11 0.95 0.0 0 0 85.77 23.17
  A 1.11 0.95 0.0 0 0 84.66 24.12
  A 1.11 0.95 0.0 0 0 85.77 25.07
  A 1.11 0.95 0.0 0 0 86.88 24.12
  Z"
/>
<path fill="#f4f8fb" d="
  M 96.99 18.90
  Q 99.49 22.61 97.02 26.40
  Q 96.22 22.59 96.99 18.90
  Z"
/>
<path fill="#f4f8fb" d="
  M 91.89 25.22
  Q 93.68 26.57 93.71 24.33
  L 93.77 19.78
  Q 93.77 19.38 94.16 19.27
  Q 94.36 19.21 94.53 19.26
  Q 94.90 19.34 94.94 19.72
  C 95.14 21.81 96.17 25.44 93.26 26.17
  C 88.57 27.34 89.44 22.33 89.52 19.75
  Q 89.53 19.24 90.04 19.25
  Q 90.20 19.25 90.36 19.25
  Q 90.86 19.25 90.92 19.74
  C 91.11 21.34 90.49 24.17 91.89 25.22
  Z"
/>
<path fill="#f4f8fb" d="
  M 101.99 25.25
  Q 103.03 24.66 103.88 25.51
  Q 104.57 26.20 103.59 26.22
  L 100.08 26.31
  Q 99.40 26.32 99.41 25.65
  L 99.52 19.84
  Q 99.53 19.20 100.16 19.25
  L 100.50 19.28
  Q 100.99 19.31 100.99 19.81
  L 101.01 24.68
  Q 101.02 25.81 101.99 25.25
  Z"
/>
<path fill="#f4f8fb" d="
  M 104.93 19.59
  A 0.35 0.35 0.0 0 1 105.28 19.24
  L 107.68 19.24
  A 2.81 2.79 0.0 0 1 110.49 22.03
  L 110.49 23.47
  A 2.81 2.79 -0.0 0 1 107.68 26.26
  L 105.28 26.26
  A 0.35 0.35 0.0 0 1 104.93 25.91
  L 104.93 19.59
  Z
  M 106.49 20.53
  L 106.51 24.85
  A 0.22 0.22 0.0 0 0 106.73 25.07
  L 107.31 25.06
  A 1.88 1.70 89.7 0 0 109.00 23.17
  L 109.00 22.17
  A 1.88 1.70 89.7 0 0 107.29 20.30
  L 106.71 20.31
  A 0.22 0.22 0.0 0 0 106.49 20.53
  Z"
/>
<ellipse fill="#ff505f" cx="0.00" cy="0.00" transform="translate(85.68,21.23) rotate(-2.6)" rx="0.99" ry="0.82"/>
<path fill="#ff8253" d="
  M 106.49 20.53
  A 0.22 0.22 0.0 0 1 106.71 20.31
  L 107.29 20.30
  A 1.88 1.70 89.7 0 1 109.00 22.17
  L 109.00 23.17
  A 1.88 1.70 89.7 0 1 107.31 25.06
  L 106.73 25.07
  A 0.22 0.22 0.0 0 1 106.51 24.85
  L 106.49 20.53
  Z"
/>
<ellipse fill="#ff505f" cx="85.77" cy="24.12" rx="1.11" ry="0.95"/>
<path fill="#fec300" d="
  M 159.71 47.50
  C 173.43 69.73 172.38 97.96 159.86 120.15
  L 140.46 109.25
  Q 153.74 83.99 140.46 58.75
  L 159.71 47.50
  Z"
/>
<path fill="#00d95b" d="
  M 33.46 47.75
  L 52.96 58.75
  Q 39.70 83.87 52.96 109.00
  Q 52.31 109.27 51.96 109.84
  Q 51.73 110.21 51.35 110.42
  L 33.50 120.04
  C 20.64 97.49 20.95 70.39 33.46 47.75
  Z"
/>
<path fill="#000000" d="
  M 91.14 85.84
  C 90.16 85.23 87.25 85.60 88.50 83.20
  Q 88.74 82.75 89.24 82.75
  L 95.02 82.75
  A 0.81 0.81 0.0 0 1 95.83 83.61
  Q 95.29 92.52 86.23 91.74
  C 79.59 91.17 78.10 81.18 82.47 77.16
  C 85.97 73.94 91.37 74.54 94.34 78.25
  Q 94.71 78.70 94.25 79.07
  Q 92.03 80.83 90.17 78.82
  Q 89.83 78.45 89.34 78.31
  C 80.42 75.89 82.11 93.68 91.16 87.58
  A 1.04 1.04 0.0 0 0 91.14 85.84
  Z"
/>
<rect fill="#000000" x="-1.74" y="-8.05" transform="translate(99.76,83.45) rotate(-0.1)" width="3.48" height="16.10" rx="0.71"/>
<path fill="#000000" d="
  M 69.09 89.77
  Q 68.44 92.32 65.52 91.47
  Q 65.00 91.32 65.16 90.80
  L 69.72 76.04
  Q 69.89 75.50 70.45 75.50
  L 74.24 75.50
  Q 74.77 75.50 74.92 76.01
  L 79.45 90.58
  Q 79.63 91.16 79.06 91.37
  Q 76.33 92.36 75.95 89.92
  Q 75.85 89.26 75.19 89.26
  L 69.76 89.25
  Q 69.22 89.24 69.09 89.77
  Z
  M 70.31 85.60
  A 0.30 0.30 0.0 0 0 70.59 85.99
  L 74.02 86.02
  A 0.30 0.30 0.0 0 0 74.32 85.64
  L 72.65 79.67
  A 0.30 0.30 0.0 0 0 72.08 79.67
  L 70.31 85.60
  Z"
/>
<path fill="#000000" d="
  M 107.98 88.24
  L 114.14 88.26
  A 0.48 0.48 0.0 0 1 114.62 88.78
  L 114.43 91.06
  A 0.48 0.48 0.0 0 1 113.95 91.50
  L 104.80 91.50
  A 0.48 0.48 0.0 0 1 104.32 91.02
  L 104.26 75.98
  A 0.48 0.48 0.0 0 1 104.74 75.50
  L 107.02 75.50
  A 0.48 0.48 0.0 0 1 107.50 75.98
  L 107.50 87.76
  A 0.48 0.48 0.0 0 0 107.98 88.24
  Z"
/>
<path fill="#000000" d="
  M 120.25 85.41
  Q 119.53 86.60 119.96 87.72
  Q 120.16 88.25 120.74 88.25
  L 126.50 88.25
  Q 127.00 88.25 127.00 88.75
  L 127.00 91.00
  Q 127.00 91.50 126.50 91.50
  L 117.30 91.50
  Q 116.59 91.50 116.59 90.80
  L 116.61 76.07
  Q 116.62 75.50 117.18 75.50
  L 126.31 75.50
  Q 126.88 75.50 126.96 76.06
  L 127.24 78.05
  Q 127.33 78.75 126.63 78.75
  L 120.56 78.75
  Q 119.88 78.75 119.85 79.43
  L 119.79 81.09
  Q 119.76 81.80 120.47 81.79
  L 125.36 81.73
  Q 126.07 81.72 126.02 82.43
  L 125.89 84.34
  Q 125.84 85.00 125.18 85.00
  L 120.98 85.00
  Q 120.50 85.00 120.25 85.41
  Z"
/>
<path fill="#00c59c" d="
  M 52.96 109.00
  Q 65.40 129.29 89.27 134.10
  Q 69.85 134.91 50.43 134.83
  C 48.33 134.82 45.90 134.42 43.75 134.21
  Q 38.12 127.48 33.50 120.04
  L 51.35 110.42
  Q 51.73 110.21 51.96 109.84
  Q 52.31 109.27 52.96 109.00
  Z"
/>
<path fill="#506be1" d="
  M 140.46 109.25
  L 159.86 120.15
  Q 155.27 127.60 149.35 134.12
  Q 131.71 151.47 107.20 155.60
  Q 106.75 155.67 106.75 156.14
  L 106.75 156.71
  L 14.35 156.57
  A 0.60 0.60 0.0 0 1 13.75 155.97
  L 13.75 135.00
  Q 13.75 134.44 14.31 134.44
  L 43.75 134.21
  C 45.90 134.42 48.33 134.82 50.43 134.83
  Q 69.85 134.91 89.27 134.10
  C 111.24 135.84 128.96 128.01 140.46 109.25
  Z
  M 22.99 143.18
  L 22.99 148.26
  A 1.19 1.19 0.0 0 0 24.19 149.44
  L 25.54 149.44
  A 3.24 3.13 -0.1 0 0 28.77 146.30
  L 28.77 145.10
  A 3.24 3.13 -0.1 0 0 25.52 141.98
  L 24.17 141.98
  A 1.19 1.19 0.0 0 0 22.99 143.18
  Z
  M 31.40 143.50
  Q 32.67 143.03 34.02 143.33
  Q 36.51 143.87 34.32 142.57
  Q 32.69 141.60 30.77 142.13
  A 1.39 1.39 0.0 0 0 29.75 143.47
  L 29.75 148.62
  Q 29.75 149.23 30.37 149.25
  L 33.93 149.36
  Q 35.17 149.39 34.23 148.58
  Q 33.21 147.70 31.85 148.07
  Q 31.20 148.25 31.25 147.58
  L 31.33 146.53
  Q 31.38 145.85 32.00 146.12
  Q 33.15 146.63 33.86 145.86
  Q 34.72 144.93 33.46 145.04
  Q 32.29 145.13 31.31 144.58
  Q 30.18 143.94 31.40 143.50
  Z
  M 37.79 143.36
  L 39.24 143.51
  Q 39.92 143.58 40.02 142.91
  C 40.24 141.45 36.39 142.02 35.79 142.21
  Q 35.19 142.40 35.21 143.02
  L 35.37 149.07
  A 0.63 0.63 0.0 0 0 36.45 149.49
  Q 37.37 148.51 36.93 147.11
  Q 36.71 146.45 37.39 146.29
  Q 38.00 146.15 38.59 146.37
  Q 39.01 146.53 39.33 146.22
  L 39.70 145.85
  Q 40.54 145.00 39.35 145.00
  L 38.58 145.00
  Q 38.05 145.00 37.56 144.81
  Q 37.01 144.59 36.98 144.13
  Q 36.94 143.27 37.79 143.36
  Z
  M 42.4895 142.7474
  A 0.71 0.71 0.0 0 0 41.7770 142.0399
  L 41.7170 142.0401
  A 0.71 0.71 0.0 0 0 41.0095 142.7526
  L 41.0305 148.7726
  A 0.71 0.71 0.0 0 0 41.7430 149.4801
  L 41.8030 149.4799
  A 0.71 0.71 0.0 0 0 42.5105 148.7674
  L 42.4895 142.7474
  Z
  M 45.82 145.58
  C 46.56 146.46 48.31 150.38 49.50 148.93
  Q 49.75 148.62 49.75 148.23
  L 49.75 142.81
  Q 49.75 142.38 49.33 142.29
  Q 49.17 142.25 49.04 142.16
  Q 48.64 141.87 48.38 142.29
  Q 47.65 143.45 48.18 144.61
  Q 48.36 145.01 48.06 145.32
  L 47.86 145.52
  Q 47.59 145.78 47.40 145.47
  L 45.33 142.21
  A 0.71 0.70 29.4 0 0 44.03 142.57
  L 43.92 148.68
  Q 43.91 149.21 44.43 149.32
  L 44.71 149.38
  Q 45.38 149.53 45.36 148.84
  L 45.24 145.80
  Q 45.20 144.84 45.82 145.58
  Z
  M 52.46 143.54
  Q 53.71 143.02 55.06 143.29
  Q 55.29 143.34 55.45 143.18
  L 55.67 142.95
  Q 56.07 142.55 55.54 142.36
  Q 53.58 141.66 51.60 142.18
  Q 51.00 142.34 51.00 142.96
  L 51.00 148.50
  Q 51.00 149.25 51.75 149.25
  L 55.23 149.25
  Q 56.49 149.25 55.45 148.55
  C 54.49 147.90 52.32 148.41 52.28 147.01
  Q 52.26 146.40 52.86 146.36
  Q 53.91 146.28 54.99 146.06
  Q 56.91 145.67 54.99 145.27
  L 52.58 144.75
  Q 50.58 144.32 52.46 143.54
  Z"
/>
<path fill="#00c59c" d="
  M 106.75 156.71
  L 106.75 156.14
  Q 106.75 155.67 107.20 155.60
  Q 131.71 151.47 149.35 134.12
  Q 168.01 134.80 185.73 134.41
  A 0.53 0.52 82.9 0 0 186.23 133.76
  Q 185.73 131.64 186.40 129.53
  Q 186.64 128.78 187.25 129.29
  L 205.59 144.68
  A 1.11 1.11 0.0 0 1 205.59 146.38
  L 187.17 161.71
  A 0.52 0.51 68.0 0 1 186.33 161.35
  L 186.01 157.23
  Q 185.96 156.57 185.30 156.57
  L 106.75 156.71
  Z
  M 152.26 146.34
  Q 153.25 147.28 153.23 148.70
  Q 153.22 149.30 153.82 149.26
  L 154.39 149.21
  Q 155.15 149.15 154.88 148.44
  Q 154.06 146.28 154.67 144.17
  Q 154.83 143.63 154.43 143.24
  Q 152.56 141.45 150.01 142.14
  Q 149.43 142.30 149.46 142.89
  C 149.51 143.82 149.20 149.23 150.24 149.28
  Q 150.80 149.30 150.90 148.75
  L 151.24 146.68
  Q 151.43 145.57 152.26 146.34
  Z
  M 157.23 144.37
  A 0.74 0.74 0.0 0 1 157.97 143.19
  Q 159.05 143.45 160.02 143.08
  Q 161.14 142.66 160.01 142.29
  Q 158.27 141.72 156.53 142.13
  Q 156.00 142.25 156.00 142.80
  L 156.00 148.62
  Q 156.00 149.25 156.62 149.25
  L 159.78 149.25
  Q 160.91 149.25 160.09 148.47
  Q 159.32 147.73 158.28 148.25
  Q 157.53 148.63 157.40 147.80
  L 157.25 146.80
  A 0.56 0.55 4.4 0 1 157.97 146.19
  Q 159.18 146.57 159.96 145.69
  Q 160.92 144.60 159.52 144.98
  Q 158.04 145.38 157.23 144.37
  Z
  M 168.90 143.37
  L 171.10 143.19
  Q 171.48 143.16 171.61 142.80
  C 172.05 141.57 168.14 141.98 167.56 142.18
  Q 167.00 142.37 167.00 142.96
  L 167.00 148.77
  Q 167.00 149.29 167.52 149.28
  L 172.80 149.14
  Q 173.44 149.13 173.79 148.59
  Q 174.30 147.83 175.18 147.71
  Q 175.72 147.64 176.12 148.01
  L 177.41 149.24
  Q 178.25 150.05 178.03 148.91
  Q 177.38 145.40 175.72 142.23
  A 0.65 0.65 0.0 0 0 174.53 142.32
  L 172.50 148.10
  Q 172.34 148.56 171.85 148.49
  L 169.09 148.05
  Q 168.50 147.95 168.50 147.35
  L 168.50 147.00
  Q 168.50 146.47 169.02 146.37
  L 170.83 146.04
  Q 171.13 145.98 171.05 145.68
  Q 170.99 145.47 170.92 145.27
  Q 170.74 144.79 170.25 144.93
  Q 169.10 145.26 168.44 144.44
  Q 167.65 143.47 168.90 143.37
  Z
  M 180.85 143.28
  Q 182.19 143.15 183.16 144.12
  Q 183.53 144.49 183.83 144.06
  C 184.94 142.47 180.82 141.01 179.07 143.40
  Q 178.69 143.92 179.05 144.45
  Q 180.13 146.05 181.99 146.61
  A 0.76 0.75 27.9 0 1 182.36 147.80
  C 181.11 149.35 180.28 146.44 179.25 147.26
  Q 178.84 147.59 179.14 148.02
  C 180.54 150.04 184.80 149.78 184.16 146.68
  Q 184.05 146.19 183.61 145.95
  L 180.64 144.39
  Q 178.88 143.47 180.85 143.28
  Z
  M 186.76 147.02
  A 0.73 0.73 0.0 0 1 187.71 146.19
  Q 188.76 146.54 189.27 145.77
  Q 189.82 144.95 188.84 145.04
  Q 187.79 145.13 186.92 144.57
  Q 186.18 144.10 186.93 143.63
  Q 187.95 142.99 189.19 143.27
  Q 189.71 143.39 189.77 142.85
  C 189.88 141.69 186.34 141.98 185.75 142.13
  Q 185.25 142.26 185.25 142.78
  L 185.25 148.51
  Q 185.25 149.26 186.01 149.26
  L 189.71 149.24
  Q 191.25 149.23 189.88 148.51
  Q 188.82 147.96 187.57 148.00
  Q 186.96 148.02 186.84 147.42
  L 186.76 147.02
  Z
  M 163.08 147.52
  C 162.94 146.47 163.64 142.13 162.01 142.26
  Q 161.50 142.29 161.50 142.80
  L 161.50 148.58
  Q 161.50 149.23 162.15 149.24
  L 165.52 149.26
  Q 167.03 149.27 165.81 148.38
  Q 164.94 147.75 163.80 148.02
  Q 163.16 148.17 163.08 147.52
  Z"
/>
<path fill="#f4f8fb" d="
  M 22.99 143.18
  A 1.19 1.19 0.0 0 1 24.17 141.98
  L 25.52 141.98
  A 3.24 3.13 -0.1 0 1 28.77 145.10
  L 28.77 146.30
  A 3.24 3.13 -0.1 0 1 25.54 149.44
  L 24.19 149.44
  A 1.19 1.19 0.0 0 1 22.99 148.26
  L 22.99 143.18
  Z
  M 24.74 143.71
  L 24.76 147.55
  A 0.46 0.46 0.0 0 0 25.22 148.01
  L 25.38 148.01
  A 2.26 1.86 89.8 0 0 27.23 145.75
  L 27.23 145.51
  A 2.26 1.86 89.8 0 0 25.36 143.25
  L 25.20 143.25
  A 0.46 0.46 0.0 0 0 24.74 143.71
  Z"
/>
<path fill="#f4f8fb" d="
  M 31.31 144.58
  Q 32.29 145.13 33.46 145.04
  Q 34.72 144.93 33.86 145.86
  Q 33.15 146.63 32.00 146.12
  Q 31.38 145.85 31.33 146.53
  L 31.25 147.58
  Q 31.20 148.25 31.85 148.07
  Q 33.21 147.70 34.23 148.58
  Q 35.17 149.39 33.93 149.36
  L 30.37 149.25
  Q 29.75 149.23 29.75 148.62
  L 29.75 143.47
  A 1.39 1.39 0.0 0 1 30.77 142.13
  Q 32.69 141.60 34.32 142.57
  Q 36.51 143.87 34.02 143.33
  Q 32.67 143.03 31.40 143.50
  Q 30.18 143.94 31.31 144.58
  Z"
/>
<path fill="#f4f8fb" d="
  M 36.98 144.13
  Q 37.01 144.59 37.56 144.81
  Q 38.05 145.00 38.58 145.00
  L 39.35 145.00
  Q 40.54 145.00 39.70 145.85
  L 39.33 146.22
  Q 39.01 146.53 38.59 146.37
  Q 38.00 146.15 37.39 146.29
  Q 36.71 146.45 36.93 147.11
  Q 37.37 148.51 36.45 149.49
  A 0.63 0.63 0.0 0 1 35.37 149.07
  L 35.21 143.02
  Q 35.19 142.40 35.79 142.21
  C 36.39 142.02 40.24 141.45 40.02 142.91
  Q 39.92 143.58 39.24 143.51
  L 37.79 143.36
  Q 36.94 143.27 36.98 144.13
  Z"
/>
<rect fill="#f4f8fb" x="-0.74" y="-3.72" transform="translate(41.76,145.76) rotate(-0.2)" width="1.48" height="7.44" rx="0.71"/>
<path fill="#f4f8fb" d="
  M 45.24 145.80
  L 45.36 148.84
  Q 45.38 149.53 44.71 149.38
  L 44.43 149.32
  Q 43.91 149.21 43.92 148.68
  L 44.03 142.57
  A 0.71 0.70 29.4 0 1 45.33 142.21
  L 47.40 145.47
  Q 47.59 145.78 47.86 145.52
  L 48.06 145.32
  Q 48.36 145.01 48.18 144.61
  Q 47.65 143.45 48.38 142.29
  Q 48.64 141.87 49.04 142.16
  Q 49.17 142.25 49.33 142.29
  Q 49.75 142.38 49.75 142.81
  L 49.75 148.23
  Q 49.75 148.62 49.50 148.93
  C 48.31 150.38 46.56 146.46 45.82 145.58
  Q 45.20 144.84 45.24 145.80
  Z"
/>
<path fill="#f4f8fb" d="
  M 52.58 144.75
  L 54.99 145.27
  Q 56.91 145.67 54.99 146.06
  Q 53.91 146.28 52.86 146.36
  Q 52.26 146.40 52.28 147.01
  C 52.32 148.41 54.49 147.90 55.45 148.55
  Q 56.49 149.25 55.23 149.25
  L 51.75 149.25
  Q 51.00 149.25 51.00 148.50
  L 51.00 142.96
  Q 51.00 142.34 51.60 142.18
  Q 53.58 141.66 55.54 142.36
  Q 56.07 142.55 55.67 142.95
  L 55.45 143.18
  Q 55.29 143.34 55.06 143.29
  Q 53.71 143.02 52.46 143.54
  Q 50.58 144.32 52.58 144.75
  Z"
/>
<path fill="#f4f8fb" d="
  M 151.24 146.68
  L 150.90 148.75
  Q 150.80 149.30 150.24 149.28
  C 149.20 149.23 149.51 143.82 149.46 142.89
  Q 149.43 142.30 150.01 142.14
  Q 152.56 141.45 154.43 143.24
  Q 154.83 143.63 154.67 144.17
  Q 154.06 146.28 154.88 148.44
  Q 155.15 149.15 154.39 149.21
  L 153.82 149.26
  Q 153.22 149.30 153.23 148.70
  Q 153.25 147.28 152.26 146.34
  Q 151.43 145.57 151.24 146.68
  Z
  M 152.91 144.19
  A 0.96 0.96 0.0 0 0 151.95 143.23
  A 0.96 0.96 0.0 0 0 150.99 144.19
  A 0.96 0.96 0.0 0 0 151.95 145.15
  A 0.96 0.96 0.0 0 0 152.91 144.19
  Z"
/>
<path fill="#f4f8fb" d="
  M 157.23 144.37
  Q 158.04 145.38 159.52 144.98
  Q 160.92 144.60 159.96 145.69
  Q 159.18 146.57 157.97 146.19
  A 0.56 0.55 4.4 0 0 157.25 146.80
  L 157.40 147.80
  Q 157.53 148.63 158.28 148.25
  Q 159.32 147.73 160.09 148.47
  Q 160.91 149.25 159.78 149.25
  L 156.62 149.25
  Q 156.00 149.25 156.00 148.62
  L 156.00 142.80
  Q 156.00 142.25 156.53 142.13
  Q 158.27 141.72 160.01 142.29
  Q 161.14 142.66 160.02 143.08
  Q 159.05 143.45 157.97 143.19
  A 0.74 0.74 0.0 0 0 157.23 144.37
  Z"
/>
<path fill="#f4f8fb" d="
  M 168.44 144.44
  Q 169.10 145.26 170.25 144.93
  Q 170.74 144.79 170.92 145.27
  Q 170.99 145.47 171.05 145.68
  Q 171.13 145.98 170.83 146.04
  L 169.02 146.37
  Q 168.50 146.47 168.50 147.00
  L 168.50 147.35
  Q 168.50 147.95 169.09 148.05
  L 171.85 148.49
  Q 172.34 148.56 172.50 148.10
  L 174.53 142.32
  A 0.65 0.65 0.0 0 1 175.72 142.23
  Q 177.38 145.40 178.03 148.91
  Q 178.25 150.05 177.41 149.24
  L 176.12 148.01
  Q 175.72 147.64 175.18 147.71
  Q 174.30 147.83 173.79 148.59
  Q 173.44 149.13 172.80 149.14
  L 167.52 149.28
  Q 167.00 149.29 167.00 148.77
  L 167.00 142.96
  Q 167.00 142.37 167.56 142.18
  C 168.14 141.98 172.05 141.57 171.61 142.80
  Q 171.48 143.16 171.10 143.19
  L 168.90 143.37
  Q 167.65 143.47 168.44 144.44
  Z
  M 175.48 144.76
  Q 174.37 145.67 174.89 146.79
  Q 175.28 147.61 175.55 146.74
  L 176.04 145.13
  Q 176.38 144.02 175.48 144.76
  Z"
/>
<path fill="#f4f8fb" d="
  M 180.64 144.39
  L 183.61 145.95
  Q 184.05 146.19 184.16 146.68
  C 184.80 149.78 180.54 150.04 179.14 148.02
  Q 178.84 147.59 179.25 147.26
  C 180.28 146.44 181.11 149.35 182.36 147.80
  A 0.76 0.75 27.9 0 0 181.99 146.61
  Q 180.13 146.05 179.05 144.45
  Q 178.69 143.92 179.07 143.40
  C 180.82 141.01 184.94 142.47 183.83 144.06
  Q 183.53 144.49 183.16 144.12
  Q 182.19 143.15 180.85 143.28
  Q 178.88 143.47 180.64 144.39
  Z"
/>
<path fill="#f4f8fb" d="
  M 186.76 147.02
  L 186.84 147.42
  Q 186.96 148.02 187.57 148.00
  Q 188.82 147.96 189.88 148.51
  Q 191.25 149.23 189.71 149.24
  L 186.01 149.26
  Q 185.25 149.26 185.25 148.51
  L 185.25 142.78
  Q 185.25 142.26 185.75 142.13
  C 186.34 141.98 189.88 141.69 189.77 142.85
  Q 189.71 143.39 189.19 143.27
  Q 187.95 142.99 186.93 143.63
  Q 186.18 144.10 186.92 144.57
  Q 187.79 145.13 188.84 145.04
  Q 189.82 144.95 189.27 145.77
  Q 188.76 146.54 187.71 146.19
  A 0.73 0.73 0.0 0 0 186.76 147.02
  Z"
/>
<path fill="#f4f8fb" d="
  M 163.80 148.02
  Q 164.94 147.75 165.81 148.38
  Q 167.03 149.27 165.52 149.26
  L 162.15 149.24
  Q 161.50 149.23 161.50 148.58
  L 161.50 142.80
  Q 161.50 142.29 162.01 142.26
  C 163.64 142.13 162.94 146.47 163.08 147.52
  Q 163.16 148.17 163.80 148.02
  Z"
/>
<path fill="#506be1" d="
  M 24.74 143.71
  A 0.46 0.46 0.0 0 1 25.20 143.25
  L 25.36 143.25
  A 2.26 1.86 89.8 0 1 27.23 145.51
  L 27.23 145.75
  A 2.26 1.86 89.8 0 1 25.38 148.01
  L 25.22 148.01
  A 0.46 0.46 0.0 0 1 24.76 147.55
  L 24.74 143.71
  Z"
/>
<circle fill="#00c59c" cx="151.95" cy="144.19" r="0.96"/>
<path fill="#00c59c" d="
  M 176.04 145.13
  L 175.55 146.74
  Q 175.28 147.61 174.89 146.79
  Q 174.37 145.67 175.48 144.76
  Q 176.38 144.02 176.04 145.13
  Z"
/>
</svg>
