<?xml version="1.0" encoding="UTF-8" standalone="no"?>
<!DOCTYPE svg PUBLIC "-//W3C//DTD SVG 1.1//EN" "http://www.w3.org/Graphics/SVG/1.1/DTD/svg11.dtd">
<svg xmlns="http://www.w3.org/2000/svg" version="1.1" viewBox="0.00 0.00 616.00 616.00">
<g stroke-width="2.00" fill="none" stroke-linecap="butt">
<path stroke="#3183cf" vector-effect="non-scaling-stroke" d="
  M 603.87 274.11
  Q 519.01 190.22 478.74 149.26
  Q 475.90 146.38 474.75 145.79"
/>
<path stroke="#9ac6ef" vector-effect="non-scaling-stroke" d="
  M 474.75 145.79
  L 429.30 101.76
  A 1.84 1.82 -22.9 0 0 428.03 101.25
  L 228.50 101.25
  A 0.75 0.75 0.0 0 0 227.75 102.00
  L 227.75 137.74
  Q 227.75 138.23 228.24 138.24
  L 230.75 138.29"
/>
<path stroke="#3183cf" vector-effect="non-scaling-stroke" d="
  M 230.75 138.29
  Q 230.01 138.91 230.30 139.90
  Q 230.44 140.37 230.86 140.62
  Q 233.86 142.50 232.00 145.71"
/>
<path stroke="#9ac6ef" vector-effect="non-scaling-stroke" d="
  M 232.00 145.71
  L 184.51 145.74
  A 0.51 0.51 0.0 0 0 184.00 146.25
  L 184.00 182.24
  Q 184.00 182.71 184.47 182.74
  L 185.50 182.79"
/>
<path stroke="#3183cf" vector-effect="non-scaling-stroke" d="
  M 185.50 182.79
  C 185.60 184.57 186.81 184.67 187.76 185.53
  Q 191.98 189.31 193.78 194.73"
/>
<path stroke="#9ac6ef" vector-effect="non-scaling-stroke" d="
  M 193.78 194.73
  L 142.76 194.74
  A 0.51 0.51 0.0 0 0 142.25 195.25
  L 142.25 514.24
  Q 142.25 514.72 142.72 514.74
  L 144.00 514.79"
/>
<path stroke="#3183cf" vector-effect="non-scaling-stroke" d="
  M 144.00 514.79
  L 144.00 515.31
  Q 144.00 515.83 144.37 516.20
  L 216.38 588.37
  Q 216.79 588.78 216.57 589.31
  Q 216.29 590.02 215.71 590.50"
/>
<path stroke="#97bcdf" vector-effect="non-scaling-stroke" d="
  M 474.75 145.79
  L 474.74 420.71
  Q 474.74 421.25 474.20 421.25
  L 444.50 421.25
  Q 444.00 421.25 444.00 420.75
  L 444.00 400.38
  Q 444.00 399.75 444.62 399.75
  L 452.75 399.75
  A 0.75 0.75 0.0 0 0 453.50 399.00
  L 453.50 157.00
  A 0.50 0.50 0.0 0 0 453.00 156.50
  L 418.25 156.50
  A 0.50 0.50 0.0 0 1 417.75 156.00
  L 417.75 123.00
  A 0.50 0.50 0.0 0 0 417.25 122.50
  L 250.25 122.50
  A 1.00 1.00 0.0 0 0 249.25 123.50
  L 249.25 137.73
  Q 249.25 138.33 248.65 138.33
  L 230.75 138.29"
/>
<path stroke="#97bcdf" vector-effect="non-scaling-stroke" d="
  M 144.00 514.79
  L 388.74 514.76
  A 0.51 0.51 0.0 0 0 389.25 514.25
  L 389.25 239.85
  Q 389.25 239.30 388.97 239.03
  L 343.60 195.15
  A 1.49 1.47 66.6 0 0 342.58 194.74
  L 193.78 194.73"
/>
<path stroke="#97bcdf" vector-effect="non-scaling-stroke" d="
  M 185.50 182.79
  L 204.74 182.75
  Q 205.25 182.75 205.25 182.24
  L 205.25 167.78
  A 0.53 0.53 0.0 0 1 205.78 167.25
  L 373.50 167.25
  Q 374.00 167.25 374.00 167.75
  L 374.00 200.25
  A 0.75 0.75 0.0 0 0 374.75 201.00
  L 409.00 201.00
  Q 409.50 201.00 409.50 201.50
  L 409.50 444.00
  Q 409.50 444.50 409.00 444.50
  L 400.75 444.50
  Q 400.25 444.50 400.25 445.00
  L 400.25 465.25
  Q 400.25 465.75 400.75 465.75
  L 430.34 465.75
  Q 430.93 465.75 430.93 465.00
  L 431.03 190.82
  Q 431.03 190.30 430.66 189.94
  L 385.70 146.48
  A 2.66 2.65 -23.0 0 0 383.86 145.74
  L 232.00 145.71"
/>
<path stroke="#97bcdf" vector-effect="non-scaling-stroke" d="
  M 367.75 250.47
  A 0.47 0.47 0.0 0 0 367.28 250.00
  L 332.72 250.00
  A 0.47 0.47 0.0 0 1 332.25 249.53
  L 332.25 216.72
  A 0.47 0.47 0.0 0 0 331.78 216.25
  L 163.97 216.25
  A 0.47 0.47 0.0 0 0 163.50 216.72
  L 163.50 493.03
  A 0.47 0.47 0.0 0 0 163.97 493.50
  L 367.28 493.50
  A 0.47 0.47 0.0 0 0 367.75 493.03
  L 367.75 250.47"
/>
<path stroke="#97bcdf" vector-effect="non-scaling-stroke" d="
  M 340.03 291.00
  A 8.49 8.49 0.0 0 0 331.54 282.51
  L 199.80 282.51
  A 8.49 8.49 0.0 0 0 191.31 291.00
  L 191.31 291.26
  A 8.49 8.49 0.0 0 0 199.80 299.75
  L 331.54 299.75
  A 8.49 8.49 0.0 0 0 340.03 291.26
  L 340.03 291.00"
/>
<path stroke="#97bcdf" vector-effect="non-scaling-stroke" d="
  M 340.00 331.51
  A 8.46 8.46 0.0 0 0 331.54 323.05
  L 199.78 323.05
  A 8.46 8.46 0.0 0 0 191.32 331.51
  L 191.32 331.79
  A 8.46 8.46 0.0 0 0 199.78 340.25
  L 331.54 340.25
  A 8.46 8.46 0.0 0 0 340.00 331.79
  L 340.00 331.51"
/>
<path stroke="#97bcdf" vector-effect="non-scaling-stroke" d="
  M 340.00 368.92
  A 8.17 8.17 0.0 0 0 331.83 360.75
  L 199.49 360.75
  A 8.17 8.17 0.0 0 0 191.32 368.92
  L 191.32 369.58
  A 8.17 8.17 0.0 0 0 199.49 377.75
  L 331.83 377.75
  A 8.17 8.17 0.0 0 0 340.00 369.58
  L 340.00 368.92"
/>
<path stroke="#97bcdf" vector-effect="non-scaling-stroke" d="
  M 340.03 409.73
  A 8.48 8.48 0.0 0 0 331.55 401.25
  L 199.79 401.25
  A 8.48 8.48 0.0 0 0 191.31 409.73
  L 191.31 410.01
  A 8.48 8.48 0.0 0 0 199.79 418.49
  L 331.55 418.49
  A 8.48 8.48 0.0 0 0 340.03 410.01
  L 340.03 409.73"
/>
<path stroke="#97bcdf" vector-effect="non-scaling-stroke" d="
  M 337.48 448.01
  A 8.51 8.51 0.0 0 0 328.97 439.50
  L 197.29 439.50
  A 8.51 8.51 0.0 0 0 188.78 448.01
  L 188.78 448.23
  A 8.51 8.51 0.0 0 0 197.29 456.74
  L 328.97 456.74
  A 8.51 8.51 0.0 0 0 337.48 448.23
  L 337.48 448.01"
/>
</g>
<path fill="#348ddf" d="
  M 603.87 274.11
  Q 519.01 190.22 478.74 149.26
  Q 475.90 146.38 474.75 145.79
  L 429.30 101.76
  A 1.84 1.82 -22.9 0 0 428.03 101.25
  L 228.50 101.25
  A 0.75 0.75 0.0 0 0 227.75 102.00
  L 227.75 137.74
  Q 227.75 138.23 228.24 138.24
  L 230.75 138.29
  Q 230.01 138.91 230.30 139.90
  Q 230.44 140.37 230.86 140.62
  Q 233.86 142.50 232.00 145.71
  L 184.51 145.74
  A 0.51 0.51 0.0 0 0 184.00 146.25
  L 184.00 182.24
  Q 184.00 182.71 184.47 182.74
  L 185.50 182.79
  C 185.60 184.57 186.81 184.67 187.76 185.53
  Q 191.98 189.31 193.78 194.73
  L 142.76 194.74
  A 0.51 0.51 0.0 0 0 142.25 195.25
  L 142.25 514.24
  Q 142.25 514.72 142.72 514.74
  L 144.00 514.79
  L 144.00 515.31
  Q 144.00 515.83 144.37 516.20
  L 216.38 588.37
  Q 216.79 588.78 216.57 589.31
  Q 216.29 590.02 215.71 590.50
  C 145.68 568.96 85.71 518.07 49.56 455.94
  C 24.22 412.39 10.00 361.10 9.83 310.00
  Q 9.48 203.38 75.29 120.54
  C 149.06 27.68 272.74 -11.97 387.40 19.46
  C 493.41 48.51 573.65 133.91 598.79 240.49
  Q 602.92 258.02 603.87 274.11
  Z"
/>
<path fill="#ffffff" d="
  M 474.75 145.79
  L 474.74 420.71
  Q 474.74 421.25 474.20 421.25
  L 444.50 421.25
  Q 444.00 421.25 444.00 420.75
  L 444.00 400.38
  Q 444.00 399.75 444.62 399.75
  L 452.75 399.75
  A 0.75 0.75 0.0 0 0 453.50 399.00
  L 453.50 157.00
  A 0.50 0.50 0.0 0 0 453.00 156.50
  L 418.25 156.50
  A 0.50 0.50 0.0 0 1 417.75 156.00
  L 417.75 123.00
  A 0.50 0.50 0.0 0 0 417.25 122.50
  L 250.25 122.50
  A 1.00 1.00 0.0 0 0 249.25 123.50
  L 249.25 137.73
  Q 249.25 138.33 248.65 138.33
  L 230.75 138.29
  L 228.24 138.24
  Q 227.75 138.23 227.75 137.74
  L 227.75 102.00
  A 0.75 0.75 0.0 0 1 228.50 101.25
  L 428.03 101.25
  A 1.84 1.82 -22.9 0 1 429.30 101.76
  L 474.75 145.79
  Z"
/>
<path fill="#2e78bf" d="
  M 474.75 145.79
  Q 475.90 146.38 478.74 149.26
  Q 519.01 190.22 603.87 274.11
  Q 605.84 281.95 605.92 290.82
  C 606.04 304.28 606.38 318.52 605.36 331.22
  C 592.16 495.97 445.85 619.21 281.53 604.21
  C 259.36 602.19 236.71 598.10 215.71 590.50
  Q 216.29 590.02 216.57 589.31
  Q 216.79 588.78 216.38 588.37
  L 144.37 516.20
  Q 144.00 515.83 144.00 515.31
  L 144.00 514.79
  L 388.74 514.76
  A 0.51 0.51 0.0 0 0 389.25 514.25
  L 389.25 239.85
  Q 389.25 239.30 388.97 239.03
  L 343.60 195.15
  A 1.49 1.47 66.6 0 0 342.58 194.74
  L 193.78 194.73
  Q 191.98 189.31 187.76 185.53
  C 186.81 184.67 185.60 184.57 185.50 182.79
  L 204.74 182.75
  Q 205.25 182.75 205.25 182.24
  L 205.25 167.78
  A 0.53 0.53 0.0 0 1 205.78 167.25
  L 373.50 167.25
  Q 374.00 167.25 374.00 167.75
  L 374.00 200.25
  A 0.75 0.75 0.0 0 0 374.75 201.00
  L 409.00 201.00
  Q 409.50 201.00 409.50 201.50
  L 409.50 444.00
  Q 409.50 444.50 409.00 444.50
  L 400.75 444.50
  Q 400.25 444.50 400.25 445.00
  L 400.25 465.25
  Q 400.25 465.75 400.75 465.75
  L 430.34 465.75
  Q 430.93 465.75 430.93 465.00
  L 431.03 190.82
  Q 431.03 190.30 430.66 189.94
  L 385.70 146.48
  A 2.66 2.65 -23.0 0 0 383.86 145.74
  L 232.00 145.71
  Q 233.86 142.50 230.86 140.62
  Q 230.44 140.37 230.30 139.90
  Q 230.01 138.91 230.75 138.29
  L 248.65 138.33
  Q 249.25 138.33 249.25 137.73
  L 249.25 123.50
  A 1.00 1.00 0.0 0 1 250.25 122.50
  L 417.25 122.50
  A 0.50 0.50 0.0 0 1 417.75 123.00
  L 417.75 156.00
  A 0.50 0.50 0.0 0 0 418.25 156.50
  L 453.00 156.50
  A 0.50 0.50 0.0 0 1 453.50 157.00
  L 453.50 399.00
  A 0.75 0.75 0.0 0 1 452.75 399.75
  L 444.62 399.75
  Q 444.00 399.75 444.00 400.38
  L 444.00 420.75
  Q 444.00 421.25 444.50 421.25
  L 474.20 421.25
  Q 474.74 421.25 474.74 420.71
  L 474.75 145.79
  Z"
/>
<path fill="#ffffff" d="
  M 232.00 145.71
  L 383.86 145.74
  A 2.66 2.65 -23.0 0 1 385.70 146.48
  L 430.66 189.94
  Q 431.03 190.30 431.03 190.82
  L 430.93 465.00
  Q 430.93 465.75 430.34 465.75
  L 400.75 465.75
  Q 400.25 465.75 400.25 465.25
  L 400.25 445.00
  Q 400.25 444.50 400.75 444.50
  L 409.00 444.50
  Q 409.50 444.50 409.50 444.00
  L 409.50 201.50
  Q 409.50 201.00 409.00 201.00
  L 374.75 201.00
  A 0.75 0.75 0.0 0 1 374.00 200.25
  L 374.00 167.75
  Q 374.00 167.25 373.50 167.25
  L 205.78 167.25
  A 0.53 0.53 0.0 0 0 205.25 167.78
  L 205.25 182.24
  Q 205.25 182.75 204.74 182.75
  L 185.50 182.79
  L 184.47 182.74
  Q 184.00 182.71 184.00 182.24
  L 184.00 146.25
  A 0.51 0.51 0.0 0 1 184.51 145.74
  L 232.00 145.71
  Z"
/>
<path fill="#ffffff" d="
  M 193.78 194.73
  L 342.58 194.74
  A 1.49 1.47 66.6 0 1 343.60 195.15
  L 388.97 239.03
  Q 389.25 239.30 389.25 239.85
  L 389.25 514.25
  A 0.51 0.51 0.0 0 1 388.74 514.76
  L 144.00 514.79
  L 142.72 514.74
  Q 142.25 514.72 142.25 514.24
  L 142.25 195.25
  A 0.51 0.51 0.0 0 1 142.76 194.74
  L 193.78 194.73
  Z
  M 367.75 250.47
  A 0.47 0.47 0.0 0 0 367.28 250.00
  L 332.72 250.00
  A 0.47 0.47 0.0 0 1 332.25 249.53
  L 332.25 216.72
  A 0.47 0.47 0.0 0 0 331.78 216.25
  L 163.97 216.25
  A 0.47 0.47 0.0 0 0 163.50 216.72
  L 163.50 493.03
  A 0.47 0.47 0.0 0 0 163.97 493.50
  L 367.28 493.50
  A 0.47 0.47 0.0 0 0 367.75 493.03
  L 367.75 250.47
  Z"
/>
<path fill="#2e78bf" d="
  M 367.75 250.47
  L 367.75 493.03
  A 0.47 0.47 0.0 0 1 367.28 493.50
  L 163.97 493.50
  A 0.47 0.47 0.0 0 1 163.50 493.03
  L 163.50 216.72
  A 0.47 0.47 0.0 0 1 163.97 216.25
  L 331.78 216.25
  A 0.47 0.47 0.0 0 1 332.25 216.72
  L 332.25 249.53
  A 0.47 0.47 0.0 0 0 332.72 250.00
  L 367.28 250.00
  A 0.47 0.47 0.0 0 1 367.75 250.47
  Z
  M 340.03 291.00
  A 8.49 8.49 0.0 0 0 331.54 282.51
  L 199.80 282.51
  A 8.49 8.49 0.0 0 0 191.31 291.00
  L 191.31 291.26
  A 8.49 8.49 0.0 0 0 199.80 299.75
  L 331.54 299.75
  A 8.49 8.49 0.0 0 0 340.03 291.26
  L 340.03 291.00
  Z
  M 340.00 331.51
  A 8.46 8.46 0.0 0 0 331.54 323.05
  L 199.78 323.05
  A 8.46 8.46 0.0 0 0 191.32 331.51
  L 191.32 331.79
  A 8.46 8.46 0.0 0 0 199.78 340.25
  L 331.54 340.25
  A 8.46 8.46 0.0 0 0 340.00 331.79
  L 340.00 331.51
  Z
  M 340.00 368.92
  A 8.17 8.17 0.0 0 0 331.83 360.75
  L 199.49 360.75
  A 8.17 8.17 0.0 0 0 191.32 368.92
  L 191.32 369.58
  A 8.17 8.17 0.0 0 0 199.49 377.75
  L 331.83 377.75
  A 8.17 8.17 0.0 0 0 340.00 369.58
  L 340.00 368.92
  Z
  M 340.03 409.73
  A 8.48 8.48 0.0 0 0 331.55 401.25
  L 199.79 401.25
  A 8.48 8.48 0.0 0 0 191.31 409.73
  L 191.31 410.01
  A 8.48 8.48 0.0 0 0 199.79 418.49
  L 331.55 418.49
  A 8.48 8.48 0.0 0 0 340.03 410.01
  L 340.03 409.73
  Z
  M 337.48 448.01
  A 8.51 8.51 0.0 0 0 328.97 439.50
  L 197.29 439.50
  A 8.51 8.51 0.0 0 0 188.78 448.01
  L 188.78 448.23
  A 8.51 8.51 0.0 0 0 197.29 456.74
  L 328.97 456.74
  A 8.51 8.51 0.0 0 0 337.48 448.23
  L 337.48 448.01
  Z"
/>
<rect fill="#ffffff" x="191.31" y="282.51" width="148.72" height="17.24" rx="8.49"/>
<rect fill="#ffffff" x="191.32" y="323.05" width="148.68" height="17.20" rx="8.46"/>
<rect fill="#ffffff" x="191.32" y="360.75" width="148.68" height="17.00" rx="8.17"/>
<rect fill="#ffffff" x="191.31" y="401.25" width="148.72" height="17.24" rx="8.48"/>
<rect fill="#ffffff" x="188.78" y="439.50" width="148.70" height="17.24" rx="8.51"/>
</svg>
