<?xml version="1.0" encoding="UTF-8" standalone="no"?>
<!DOCTYPE svg PUBLIC "-//W3C//DTD SVG 1.1//EN" "http://www.w3.org/Graphics/SVG/1.1/DTD/svg11.dtd">
<svg xmlns="http://www.w3.org/2000/svg" version="1.1" viewBox="0.00 0.00 2009.00 1043.00">
<path fill="#006a8e" d="
  M 1302.06 0.00
  L 1303.06 0.00
  C 1332.44 1.51 1361.63 15.22 1386.03 30.70
  C 1393.15 35.22 1400.15 42.14 1406.49 46.76
  Q 1410.35 49.57 1412.75 49.71
  Q 1426.97 50.55 1441.20 51.21
  Q 1448.27 51.54 1454.17 52.87
  C 1473.21 57.12 1496.32 62.16 1514.67 72.57
  Q 1547.95 91.44 1581.24 116.24
  C 1634.75 156.09 1677.49 205.59 1711.83 262.63
  Q 1719.25 274.97 1724.67 288.32
  C 1736.99 318.68 1749.97 349.02 1764.44 378.43
  Q 1783.55 417.28 1791.58 433.93
  Q 1795.35 441.74 1800.03 448.06
  C 1805.26 455.12 1814.70 456.48 1822.31 459.97
  C 1841.43 468.73 1861.56 476.57 1879.07 487.93
  Q 1918.70 513.63 1955.48 545.27
  C 1964.46 552.99 1971.48 562.42 1978.59 571.76
  C 1980.91 574.82 1985.23 577.21 1983.81 581.76
  Q 1983.66 582.25 1983.18 582.41
  Q 1972.68 585.89 1961.97 588.65
  C 1944.95 593.04 1927.18 593.15 1910.03 597.35
  C 1897.96 600.31 1885.83 604.18 1873.92 605.48
  A 0.38 0.37 75.5 0 0 1873.62 606.00
  C 1881.30 623.49 1902.90 634.43 1918.54 643.56
  C 1943.23 657.98 1964.36 676.89 1982.33 699.09
  C 1987.76 705.80 1993.76 711.17 1999.73 717.15
  C 2003.84 721.28 2006.43 729.25 2009.00 734.56
  L 2009.00 735.81
  Q 2006.65 735.52 2004.94 734.05
  C 2000.00 729.79 1995.34 724.82 1989.87 720.89
  C 1978.75 712.91 1967.96 704.49 1956.24 697.39
  C 1937.20 685.85 1915.98 678.44 1896.80 666.95
  Q 1887.19 661.20 1865.28 644.22
  Q 1852.57 634.37 1842.05 618.49
  C 1837.68 611.90 1834.44 603.90 1830.74 596.39
  Q 1830.53 595.96 1830.66 595.49
  C 1833.14 586.76 1847.98 585.07 1853.27 583.04
  C 1883.91 571.33 1916.36 568.45 1949.62 569.63
  A 0.73 0.73 0.0 0 0 1950.27 568.53
  C 1946.21 561.76 1941.45 557.91 1934.15 553.05
  Q 1907.90 535.56 1882.08 517.41
  Q 1874.54 512.12 1863.31 505.61
  C 1854.74 500.65 1844.88 497.68 1835.56 494.12
  Q 1827.14 490.90 1819.26 488.36
  C 1807.98 484.72 1783.55 479.37 1776.29 469.07
  C 1754.30 437.91 1741.38 401.44 1724.82 367.32
  Q 1710.06 336.91 1697.55 305.50
  Q 1693.39 295.04 1689.42 287.57
  C 1642.57 199.40 1566.94 125.61 1473.84 87.15
  Q 1462.55 82.48 1451.44 80.34
  C 1440.58 78.24 1424.47 79.02 1414.50 77.26
  Q 1408.05 76.11 1404.07 76.19
  C 1401.74 76.24 1398.76 76.40 1396.81 75.62
  C 1389.50 72.70 1384.12 67.13 1378.50 62.41
  C 1369.18 54.59 1357.46 48.46 1346.48 43.30
  Q 1328.45 34.83 1315.26 29.98
  C 1306.84 26.89 1298.26 25.30 1289.89 29.26
  C 1282.99 32.52 1281.70 41.73 1283.68 48.29
  Q 1287.71 61.66 1295.43 71.33
  Q 1317.93 99.50 1331.45 120.06
  Q 1341.12 134.79 1348.10 155.55
  C 1359.40 189.16 1368.11 224.11 1388.37 254.10
  C 1396.48 266.12 1412.08 273.47 1410.21 290.17
  C 1408.15 308.45 1397.98 326.14 1393.56 344.04
  C 1385.98 374.69 1385.95 408.10 1391.70 438.96
  C 1394.79 455.58 1399.89 469.18 1407.22 484.79
  C 1411.76 494.44 1418.21 503.32 1428.90 505.43
  A 1.75 1.75 0.0 0 0 1430.98 503.91
  C 1433.94 478.16 1435.17 449.24 1446.38 425.40
  C 1451.56 414.40 1461.33 403.53 1469.34 393.75
  A 0.88 0.88 0.0 0 1 1470.70 393.75
  C 1474.66 398.55 1475.96 406.84 1477.82 411.43
  Q 1508.77 487.70 1557.55 553.97
  Q 1569.55 570.27 1582.58 582.93
  C 1586.61 586.84 1591.84 589.93 1595.76 594.20
  A 0.60 0.60 0.0 0 1 1595.05 595.15
  C 1580.23 587.92 1572.46 575.91 1560.05 566.00
  C 1536.57 547.28 1514.10 527.12 1496.66 502.46
  Q 1492.91 497.17 1489.38 489.88
  Q 1480.77 472.06 1472.36 455.52
  Q 1470.86 452.57 1470.22 455.82
  Q 1465.72 478.72 1462.74 501.50
  C 1460.21 520.76 1448.59 536.15 1427.62 533.18
  C 1412.35 531.02 1398.74 515.11 1390.75 502.24
  C 1364.35 459.70 1360.25 400.08 1369.70 352.09
  Q 1370.84 346.34 1374.49 332.69
  Q 1378.57 317.43 1381.87 301.98
  Q 1382.49 299.10 1386.62 292.29
  Q 1386.88 291.86 1386.81 291.35
  C 1385.47 282.64 1377.04 278.28 1372.41 271.41
  C 1352.02 241.12 1340.93 209.52 1328.93 174.11
  Q 1327.39 169.57 1324.63 159.22
  C 1321.07 145.89 1315.72 136.98 1306.63 124.85
  Q 1294.32 108.43 1281.84 92.13
  C 1271.68 78.87 1260.84 63.20 1259.61 45.93
  C 1257.81 20.63 1276.08 -0.14 1302.06 0.00
  Z"
/>
<path fill="#006a8e" d="
  M 1413.44 135.15
  C 1412.02 133.08 1410.86 131.13 1409.21 129.21
  Q 1408.76 128.70 1409.43 128.55
  Q 1419.21 126.42 1429.22 126.19
  Q 1429.70 126.18 1430.09 126.47
  Q 1434.12 129.46 1438.14 132.33
  C 1442.27 135.28 1449.55 145.63 1449.64 150.76
  Q 1449.90 165.44 1438.62 174.75
  Q 1438.16 175.13 1437.89 174.59
  Q 1433.24 165.36 1428.94 156.09
  C 1424.93 147.46 1418.60 142.64 1413.44 135.15
  Z"
/>
<path fill="#006a8e" d="
  M 0.00 950.27
  L 0.00 687.44
  Q 0.35 683.96 0.53 680.53
  C 1.47 662.64 11.89 650.06 28.40 644.52
  C 61.70 633.36 102.85 631.87 124.68 663.92
  Q 128.32 669.25 133.71 681.71
  Q 180.22 789.05 226.53 896.45
  Q 227.60 898.93 228.60 901.47
  A 0.32 0.32 0.0 0 0 229.17 901.52
  Q 230.48 899.27 231.51 896.97
  Q 280.32 787.81 329.20 678.69
  C 336.39 662.65 345.75 650.43 362.07 643.07
  C 383.15 633.56 410.16 636.97 431.83 644.16
  C 452.74 651.09 461.72 665.30 461.73 687.31
  Q 461.78 818.60 461.74 949.78
  A 0.99 0.98 -90.0 0 1 460.76 950.77
  L 395.61 950.72
  A 0.86 0.86 0.0 0 1 394.75 949.86
  L 394.75 689.50
  A 0.29 0.29 0.0 0 0 394.20 689.38
  Q 343.63 801.86 293.05 914.27
  C 282.84 936.96 271.25 950.56 245.43 953.81
  Q 228.08 956.00 212.26 953.22
  C 191.36 949.54 179.28 937.58 170.84 918.93
  Q 118.76 803.96 66.99 689.32
  A 0.41 0.41 0.0 0 0 66.20 689.49
  Q 66.73 721.00 66.43 752.32
  C 65.91 806.86 66.21 861.46 66.27 916.01
  C 66.28 923.63 66.68 938.17 66.35 949.50
  Q 66.31 950.63 65.19 950.65
  Q 32.99 951.12 0.00 950.27
  Z"
/>
<path fill="#cf8b2b" d="
  M 952.44 715.00
  Q 952.64 727.69 952.54 740.40
  C 952.35 765.77 968.73 775.54 992.55 775.49
  Q 1035.15 775.40 1077.75 775.84
  C 1106.30 776.13 1135.52 782.46 1159.18 798.81
  C 1167.71 804.72 1176.37 814.16 1179.38 824.42
  Q 1180.91 829.64 1181.01 841.57
  Q 1181.18 862.16 1180.77 882.73
  Q 1180.58 891.84 1179.08 897.14
  C 1169.46 931.07 1124.61 946.47 1093.90 949.73
  Q 1087.25 950.44 1073.93 950.50
  Q 979.67 950.97 885.47 950.68
  A 0.47 0.47 0.0 0 1 885.00 950.21
  L 885.00 907.03
  Q 885.00 906.25 885.78 906.25
  Q 976.86 906.25 1068.50 906.25
  C 1083.58 906.25 1106.07 902.47 1112.35 885.97
  Q 1113.77 882.24 1113.76 874.36
  Q 1113.75 858.08 1113.72 841.82
  C 1113.72 839.79 1113.05 836.59 1111.91 834.56
  C 1104.12 820.54 1089.07 818.57 1074.73 816.76
  Q 1068.96 816.03 1061.61 816.02
  Q 1031.05 815.98 1000.50 816.00
  Q 986.48 816.00 980.51 815.59
  C 948.74 813.37 896.29 799.76 887.36 762.87
  Q 885.95 757.05 886.01 744.04
  C 886.14 714.81 882.18 683.46 910.15 664.37
  C 934.81 647.55 962.60 643.53 992.37 643.52
  Q 1087.66 643.48 1183.03 643.51
  A 0.47 0.47 0.0 0 1 1183.50 643.98
  L 1183.50 687.22
  Q 1183.50 688.00 1182.72 688.00
  Q 1084.89 688.00 986.50 688.00
  Q 981.27 688.00 973.22 690.01
  C 959.36 693.45 952.21 700.01 952.44 715.00
  Z"
/>
<path fill="#cf8b2b" d="
  M 1890.99 950.79
  C 1831.79 950.76 1772.55 950.98 1713.31 950.43
  Q 1698.17 950.29 1676.74 947.04
  C 1651.76 943.26 1623.19 933.86 1607.88 912.58
  Q 1596.31 896.50 1596.30 876.68
  Q 1596.20 760.38 1596.27 643.96
  A 0.46 0.46 0.0 0 1 1596.73 643.50
  L 1662.52 643.50
  A 0.48 0.47 -0.0 0 1 1663.00 643.97
  Q 1663.00 758.31 1663.01 872.75
  C 1663.01 905.69 1695.08 906.18 1718.94 906.21
  Q 1805.00 906.30 1891.14 906.23
  A 0.36 0.36 0.0 0 1 1891.50 906.59
  L 1891.50 950.28
  A 0.51 0.51 0.0 0 1 1890.99 950.79
  Z"
/>
<path fill="#cf8b2b" d="
  M 1515.53 937.79
  L 1579.89 996.12
  A 0.22 0.22 0.0 0 1 1579.74 996.50
  L 1503.82 996.50
  Q 1503.32 996.50 1502.94 996.16
  L 1450.73 949.00
  Q 1450.31 948.63 1449.75 948.66
  C 1429.69 949.77 1409.52 951.45 1389.44 951.48
  Q 1355.34 951.54 1321.26 951.47
  Q 1290.59 951.42 1260.58 936.40
  Q 1229.64 920.91 1224.29 888.40
  Q 1223.27 882.21 1223.26 868.45
  Q 1223.22 792.96 1223.29 717.50
  C 1223.34 667.12 1269.95 648.50 1312.09 644.65
  Q 1318.58 644.06 1332.06 644.04
  Q 1392.15 643.96 1452.25 644.12
  C 1492.42 644.23 1545.40 658.46 1553.22 705.05
  Q 1554.23 711.03 1554.31 724.99
  Q 1554.71 797.57 1554.38 870.13
  C 1554.23 902.63 1547.03 923.86 1515.68 936.96
  Q 1514.95 937.26 1515.53 937.79
  Z
  M 1349.89 857.82
  A 0.33 0.33 0.0 0 1 1350.11 857.25
  L 1425.53 857.25
  A 1.87 1.84 -23.3 0 1 1426.79 857.74
  L 1474.29 900.71
  A 0.76 0.75 51.5 0 0 1475.16 900.81
  Q 1487.08 894.34 1490.71 882.45
  Q 1492.28 877.34 1492.27 863.42
  Q 1492.23 797.64 1492.26 731.84
  Q 1492.26 717.88 1490.69 712.80
  C 1483.79 690.37 1457.22 688.35 1437.69 688.30
  Q 1393.97 688.19 1350.25 688.18
  C 1330.86 688.17 1303.56 691.42 1296.70 712.85
  Q 1295.24 717.40 1295.24 727.29
  Q 1295.26 799.04 1295.25 870.79
  C 1295.25 875.56 1297.83 883.38 1299.88 887.30
  C 1308.25 903.23 1328.03 907.24 1344.25 907.25
  Q 1373.97 907.27 1403.41 907.24
  A 0.37 0.37 0.0 0 0 1403.66 906.59
  L 1349.89 857.82
  Z"
/>
<path fill="#006a8e" d="
  M 739.19 1043.00
  L 518.44 1043.00
  L 518.31 999.40
  A 0.41 0.40 -0.0 0 1 518.72 999.00
  Q 622.01 999.01 725.22 998.99
  C 738.51 998.99 760.43 994.55 765.55 979.82
  C 768.16 972.31 766.80 957.94 766.72 949.10
  Q 766.72 948.55 766.16 948.55
  Q 694.92 948.47 623.76 948.31
  Q 600.40 948.26 577.85 942.33
  C 553.53 935.93 524.35 920.65 518.10 894.40
  Q 516.71 888.57 516.87 874.51
  C 517.39 828.77 517.96 782.96 517.05 737.24
  A 0.49 0.48 -0.6 0 1 517.54 736.75
  L 582.01 736.75
  Q 583.69 736.75 583.69 738.43
  C 583.78 785.89 583.33 833.03 583.76 879.95
  Q 583.83 887.78 585.35 891.50
  C 591.39 906.29 611.51 908.24 625.37 908.33
  Q 694.99 908.81 766.60 908.16
  A 0.65 0.65 0.0 0 0 767.25 907.51
  L 767.25 736.27
  A 0.29 0.29 0.0 0 1 767.54 735.98
  L 833.35 735.98
  Q 833.92 735.98 833.96 736.54
  Q 834.13 739.28 834.14 743.56
  C 834.27 825.74 834.35 891.29 834.12 963.78
  Q 834.07 977.71 832.92 983.70
  C 824.79 1025.69 775.50 1040.04 739.19 1043.00
  Z"
/>
<path fill="#cf8b2b" d="
  M 1932.01 914.57
  L 1931.98 950.43
  A 0.57 0.57 0.0 0 1 1931.41 951.00
  L 1922.62 950.99
  A 0.57 0.57 0.0 0 1 1922.05 950.42
  L 1922.03 914.57
  A 0.57 0.57 0.0 0 0 1921.46 914.00
  L 1909.33 913.99
  A 0.57 0.57 0.0 0 1 1908.76 913.42
  L 1908.74 906.82
  A 0.57 0.57 0.0 0 1 1909.31 906.25
  L 1944.09 906.25
  A 0.57 0.57 0.0 0 1 1944.66 906.83
  L 1944.51 913.44
  A 0.57 0.57 0.0 0 1 1943.94 914.00
  L 1932.58 914.00
  A 0.57 0.57 0.0 0 0 1932.01 914.57
  Z"
/>
<path fill="#cf8b2b" d="
  M 1983.13 950.99
  L 1976.97 951.01
  A 0.35 0.35 0.0 0 1 1976.64 950.78
  L 1964.16 917.38
  A 0.35 0.35 0.0 0 0 1963.48 917.50
  L 1963.51 950.65
  A 0.35 0.35 0.0 0 1 1963.16 951.00
  L 1955.10 951.00
  A 0.35 0.35 0.0 0 1 1954.75 950.65
  L 1954.75 906.60
  A 0.35 0.35 0.0 0 1 1955.10 906.25
  L 1967.84 906.25
  A 0.35 0.35 0.0 0 1 1968.17 906.47
  L 1980.06 936.11
  A 0.35 0.35 0.0 0 0 1980.71 936.10
  L 1991.45 906.48
  A 0.35 0.35 0.0 0 1 1991.78 906.25
  L 2004.92 906.25
  A 0.35 0.35 0.0 0 1 2005.27 906.60
  L 2005.20 950.65
  A 0.35 0.35 0.0 0 1 2004.85 951.00
  L 1996.34 951.00
  A 0.35 0.35 0.0 0 1 1995.99 950.65
  L 1996.18 918.90
  A 0.35 0.35 0.0 0 0 1995.50 918.77
  L 1983.46 950.76
  A 0.35 0.35 0.0 0 1 1983.13 950.99
  Z"
/>
</svg>
