<?xml version="1.0" encoding="UTF-8" standalone="no"?>
<!DOCTYPE svg PUBLIC "-//W3C//DTD SVG 1.1//EN" "http://www.w3.org/Graphics/SVG/1.1/DTD/svg11.dtd">
<svg xmlns="http://www.w3.org/2000/svg" version="1.1" viewBox="0.00 0.00 64.00 64.00">
<g stroke-width="2.00" fill="none" stroke-linecap="butt">
<path stroke="#5b96e1" vector-effect="non-scaling-stroke" d="
  M 63.46 37.50
  L 50.13 25.60"
/>
<path stroke="#aecef6" vector-effect="non-scaling-stroke" d="
  M 50.13 25.60
  Q 44.43 17.02 33.99 16.09
  C 23.69 15.16 11.88 21.41 13.04 33.25"
/>
<path stroke="#9ebfea" vector-effect="non-scaling-stroke" d="
  M 13.04 33.25
  Q 13.12 36.43 15.84 38.19"
/>
<path stroke="#5b96e1" vector-effect="non-scaling-stroke" d="
  M 15.84 38.19
  Q 28.00 50.02 39.19 62.89"
/>
<path stroke="#acc8ea" vector-effect="non-scaling-stroke" d="
  M 50.13 25.60
  Q 51.19 29.47 51.23 33.40"
/>
<path stroke="#eff1f3" vector-effect="non-scaling-stroke" d="
  M 51.23 33.40
  Q 46.01 44.71 33.89 45.50
  C 31.01 45.69 29.60 44.65 28.29 42.25"
/>
<path stroke="#acc8ea" vector-effect="non-scaling-stroke" d="
  M 28.29 42.25
  Q 28.25 42.13 28.21 42.00"
/>
<path stroke="#eff1f3" vector-effect="non-scaling-stroke" d="
  M 28.21 42.00
  Q 28.79 38.12 26.04 35.50
  Q 25.66 35.14 25.14 35.20
  C 20.60 35.72 16.72 37.06 13.04 33.25"
/>
<path stroke="#fdb7a8" vector-effect="non-scaling-stroke" d="
  M 34.55 21.31
  A 2.72 2.72 0.0 0 0 31.83 18.59
  A 2.72 2.72 0.0 0 0 29.11 21.31
  A 2.72 2.72 0.0 0 0 31.83 24.03
  A 2.72 2.72 0.0 0 0 34.55 21.31"
/>
<path stroke="#aecef6" vector-effect="non-scaling-stroke" d="
  M 42.09 23.69
  A 2.70 2.70 0.0 0 0 39.39 20.99
  A 2.70 2.70 0.0 0 0 36.69 23.69
  A 2.70 2.70 0.0 0 0 39.39 26.39
  A 2.70 2.70 0.0 0 0 42.09 23.69"
/>
<path stroke="#d0e9b4" vector-effect="non-scaling-stroke" d="
  M 27.32 24.43
  A 2.73 2.73 0.0 0 0 24.59 21.70
  A 2.73 2.73 0.0 0 0 21.86 24.43
  A 2.73 2.73 0.0 0 0 24.59 27.16
  A 2.73 2.73 0.0 0 0 27.32 24.43"
/>
<path stroke="#d4d8dd" vector-effect="non-scaling-stroke" d="
  M 45.29 30.86
  A 2.78 2.78 0.0 0 0 42.51 28.08
  A 2.78 2.78 0.0 0 0 39.73 30.86
  A 2.78 2.78 0.0 0 0 42.51 33.64
  A 2.78 2.78 0.0 0 0 45.29 30.86"
/>
<path stroke="#acc8ea" vector-effect="non-scaling-stroke" d="
  M 17.29 32.75
  C 18.15 34.30 21.08 34.72 20.96 32.50"
/>
<path stroke="#eff1f3" vector-effect="non-scaling-stroke" d="
  M 20.96 32.50
  Q 21.74 31.01 20.05 29.62
  A 1.53 1.52 36.3 0 0 17.80 29.96
  Q 16.83 31.47 17.29 32.75"
/>
<path stroke="#9cb9de" vector-effect="non-scaling-stroke" d="
  M 20.96 32.50
  Q 19.02 31.46 17.29 32.75"
/>
<path stroke="#ffe6aa" vector-effect="non-scaling-stroke" d="
  M 42.84 38.41
  A 2.73 2.73 0.0 0 0 40.11 35.68
  A 2.73 2.73 0.0 0 0 37.38 38.41
  A 2.73 2.73 0.0 0 0 40.11 41.14
  A 2.73 2.73 0.0 0 0 42.84 38.41"
/>
<path stroke="#9cb9de" vector-effect="non-scaling-stroke" d="
  M 15.84 38.19
  Q 20.43 38.47 24.47 37.54
  Q 25.01 37.42 25.45 37.73
  Q 27.59 39.24 28.21 42.00"
/>
<path stroke="#9cb9de" vector-effect="non-scaling-stroke" d="
  M 28.29 42.25
  Q 28.50 45.10 30.32 47.44
  Q 30.61 47.81 31.08 47.83
  Q 47.22 48.67 51.23 33.40"
/>
</g>
<path fill="#5d9cec" d="
  M 30.06 0.00
  L 34.06 0.00
  Q 60.38 3.72 64.00 30.06
  L 64.00 34.06
  L 63.46 37.50
  L 50.13 25.60
  Q 44.43 17.02 33.99 16.09
  C 23.69 15.16 11.88 21.41 13.04 33.25
  Q 13.12 36.43 15.84 38.19
  Q 28.00 50.02 39.19 62.89
  L 33.94 64.00
  L 29.94 64.00
  Q 3.63 60.28 0.00 33.94
  L 0.00 29.69
  Q 3.89 3.62 30.06 0.00
  Z"
/>
<path fill="#ffffff" d="
  M 50.13 25.60
  Q 51.19 29.47 51.23 33.40
  Q 46.01 44.71 33.89 45.50
  C 31.01 45.69 29.60 44.65 28.29 42.25
  Q 28.25 42.13 28.21 42.00
  Q 28.79 38.12 26.04 35.50
  Q 25.66 35.14 25.14 35.20
  C 20.60 35.72 16.72 37.06 13.04 33.25
  C 11.88 21.41 23.69 15.16 33.99 16.09
  Q 44.43 17.02 50.13 25.60
  Z
  M 34.55 21.31
  A 2.72 2.72 0.0 0 0 31.83 18.59
  A 2.72 2.72 0.0 0 0 29.11 21.31
  A 2.72 2.72 0.0 0 0 31.83 24.03
  A 2.72 2.72 0.0 0 0 34.55 21.31
  Z
  M 42.09 23.69
  A 2.70 2.70 0.0 0 0 39.39 20.99
  A 2.70 2.70 0.0 0 0 36.69 23.69
  A 2.70 2.70 0.0 0 0 39.39 26.39
  A 2.70 2.70 0.0 0 0 42.09 23.69
  Z
  M 27.32 24.43
  A 2.73 2.73 0.0 0 0 24.59 21.70
  A 2.73 2.73 0.0 0 0 21.86 24.43
  A 2.73 2.73 0.0 0 0 24.59 27.16
  A 2.73 2.73 0.0 0 0 27.32 24.43
  Z
  M 45.29 30.86
  A 2.78 2.78 0.0 0 0 42.51 28.08
  A 2.78 2.78 0.0 0 0 39.73 30.86
  A 2.78 2.78 0.0 0 0 42.51 33.64
  A 2.78 2.78 0.0 0 0 45.29 30.86
  Z
  M 17.29 32.75
  C 18.15 34.30 21.08 34.72 20.96 32.50
  Q 21.74 31.01 20.05 29.62
  A 1.53 1.52 36.3 0 0 17.80 29.96
  Q 16.83 31.47 17.29 32.75
  Z
  M 42.84 38.41
  A 2.73 2.73 0.0 0 0 40.11 35.68
  A 2.73 2.73 0.0 0 0 37.38 38.41
  A 2.73 2.73 0.0 0 0 40.11 41.14
  A 2.73 2.73 0.0 0 0 42.84 38.41
  Z"
/>
<circle fill="#fb6e51" cx="31.83" cy="21.31" r="2.72"/>
<circle fill="#5d9cec" cx="39.39" cy="23.69" r="2.70"/>
<circle fill="#a0d368" cx="24.59" cy="24.43" r="2.73"/>
<path fill="#5990d5" d="
  M 50.13 25.60
  L 63.46 37.50
  Q 58.72 58.26 39.19 62.89
  Q 28.00 50.02 15.84 38.19
  Q 20.43 38.47 24.47 37.54
  Q 25.01 37.42 25.45 37.73
  Q 27.59 39.24 28.21 42.00
  Q 28.25 42.13 28.29 42.25
  Q 28.50 45.10 30.32 47.44
  Q 30.61 47.81 31.08 47.83
  Q 47.22 48.67 51.23 33.40
  Q 51.19 29.47 50.13 25.60
  Z"
/>
<circle fill="#a9b1bb" cx="42.51" cy="30.86" r="2.78"/>
<path fill="#dfe2e7" d="
  M 20.96 32.50
  Q 19.02 31.46 17.29 32.75
  Q 16.83 31.47 17.80 29.96
  A 1.53 1.52 36.3 0 1 20.05 29.62
  Q 21.74 31.01 20.96 32.50
  Z"
/>
<path fill="#5990d5" d="
  M 20.96 32.50
  C 21.08 34.72 18.15 34.30 17.29 32.75
  Q 19.02 31.46 20.96 32.50
  Z"
/>
<path fill="#dfe2e7" d="
  M 13.04 33.25
  C 16.72 37.06 20.60 35.72 25.14 35.20
  Q 25.66 35.14 26.04 35.50
  Q 28.79 38.12 28.21 42.00
  Q 27.59 39.24 25.45 37.73
  Q 25.01 37.42 24.47 37.54
  Q 20.43 38.47 15.84 38.19
  Q 13.12 36.43 13.04 33.25
  Z"
/>
<path fill="#dfe2e7" d="
  M 51.23 33.40
  Q 47.22 48.67 31.08 47.83
  Q 30.61 47.81 30.32 47.44
  Q 28.50 45.10 28.29 42.25
  C 29.60 44.65 31.01 45.69 33.89 45.50
  Q 46.01 44.71 51.23 33.40
  Z"
/>
<circle fill="#fecd54" cx="40.11" cy="38.41" r="2.73"/>
</svg>
