<?xml version="1.0" encoding="UTF-8" standalone="no"?>
<!DOCTYPE svg PUBLIC "-//W3C//DTD SVG 1.1//EN" "http://www.w3.org/Graphics/SVG/1.1/DTD/svg11.dtd">
<svg xmlns="http://www.w3.org/2000/svg" version="1.1" viewBox="0.00 0.00 513.00 511.00">
<path fill="#3773a4" d="
  M 256.75 115.00
  L 133.51 115.00
  Q 133.02 115.00 133.02 114.51
  Q 132.97 85.24 133.00 56.07
  C 133.05 16.37 189.43 4.98 218.53 2.06
  C 244.75 -0.56 271.33 -0.20 297.48 3.11
  C 328.80 7.06 375.83 21.82 379.98 60.20
  Q 380.01 60.55 380.02 79.45
  Q 380.02 127.97 379.96 176.48
  Q 379.94 190.08 378.79 196.40
  C 373.78 224.07 352.37 241.13 325.12 245.96
  Q 317.91 247.24 305.19 247.24
  Q 247.84 247.24 190.50 247.22
  C 151.92 247.21 124.73 265.82 117.63 304.53
  Q 116.36 311.51 116.30 324.44
  Q 116.17 351.96 116.28 380.04
  Q 116.28 381.00 115.32 381.00
  Q 96.22 380.99 76.68 381.01
  Q 67.47 381.02 61.92 379.74
  C 16.38 369.24 2.84 312.58 1.11 272.73
  Q 0.17 251.08 1.18 234.94
  C 3.77 193.49 19.57 144.29 66.48 134.16
  Q 72.98 132.76 85.74 132.76
  Q 170.73 132.74 256.71 132.76
  A 0.54 0.54 0.0 0 0 257.25 132.22
  L 257.25 115.50
  Q 257.25 115.00 256.75 115.00
  Z
  M 208.79 61.80
  A 22.47 22.47 0.0 0 0 186.32 39.33
  A 22.47 22.47 0.0 0 0 163.85 61.80
  A 22.47 22.47 0.0 0 0 186.32 84.27
  A 22.47 22.47 0.0 0 0 208.79 61.80
  Z"
/>
<path fill="#ffd242" d="
  M 513.00 251.81
  L 513.00 259.81
  C 512.13 274.74 511.31 289.42 508.29 304.10
  C 501.20 338.50 481.28 369.34 444.71 376.68
  C 439.19 377.79 433.56 377.53 427.79 377.52
  Q 342.23 377.47 256.59 377.51
  A 0.59 0.59 0.0 0 0 256.00 378.10
  L 256.00 394.97
  Q 256.00 395.50 256.53 395.50
  L 379.76 395.50
  A 0.51 0.51 0.0 0 1 380.27 396.01
  Q 380.19 424.74 380.30 453.60
  Q 380.32 459.79 379.12 463.80
  C 363.33 516.56 252.44 512.40 212.44 506.78
  C 178.74 502.04 133.07 485.41 133.03 443.60
  Q 132.96 387.82 133.02 332.04
  C 133.07 286.59 162.32 263.10 205.97 263.04
  Q 265.85 262.96 325.75 262.94
  C 362.50 262.94 388.68 243.00 395.61 206.21
  Q 396.87 199.50 396.94 186.29
  Q 397.10 158.02 396.96 129.67
  A 0.42 0.42 0.0 0 1 397.38 129.25
  Q 414.66 129.26 431.97 129.24
  Q 445.05 129.23 451.42 130.64
  C 475.35 135.94 492.44 156.95 500.72 179.03
  C 509.64 202.77 512.24 225.87 513.00 251.81
  Z
  M 349.49 448.57
  A 22.48 22.48 0.0 0 0 327.01 426.09
  A 22.48 22.48 0.0 0 0 304.53 448.57
  A 22.48 22.48 0.0 0 0 327.01 471.05
  A 22.48 22.48 0.0 0 0 349.49 448.57
  Z"
/>
</svg>
