<?xml version="1.0" encoding="UTF-8" standalone="no"?>
<!DOCTYPE svg PUBLIC "-//W3C//DTD SVG 1.1//EN" "http://www.w3.org/Graphics/SVG/1.1/DTD/svg11.dtd">
<svg xmlns="http://www.w3.org/2000/svg" version="1.1" viewBox="0.00 0.00 1348.00 1554.00">
<path fill="#205081" d="
  M 650.31 0.00
  L 697.56 0.00
  Q 792.31 1.16 886.50 11.45
  C 955.25 18.95 1024.11 30.82 1090.99 48.53
  C 1137.58 60.87 1183.16 76.52 1226.83 97.40
  C 1276.29 121.06 1340.31 161.26 1347.62 222.28
  C 1347.93 224.91 1347.89 228.23 1347.58 230.83
  Q 1344.24 258.85 1340.01 286.75
  Q 1327.47 369.37 1313.89 451.83
  Q 1277.32 673.88 1238.19 895.49
  C 1236.86 903.01 1236.15 911.20 1233.83 918.00
  C 1225.96 940.99 1208.45 960.91 1190.18 976.44
  Q 1161.07 1001.19 1127.45 1019.43
  Q 1072.68 1049.15 1013.25 1068.03
  C 920.94 1097.35 825.22 1111.83 728.00 1115.72
  C 617.51 1120.15 506.93 1111.76 399.66 1086.69
  Q 333.13 1071.14 270.11 1044.84
  C 232.32 1029.07 195.89 1009.57 163.79 983.96
  C 145.98 969.74 129.95 953.23 119.41 932.67
  C 113.77 921.68 112.18 911.61 110.17 900.22
  Q 62.47 630.34 19.18 359.72
  C 12.06 315.18 4.39 270.34 0.00 225.44
  L 0.00 217.69
  C 6.16 164.12 61.16 126.37 104.72 103.94
  C 170.62 70.03 244.19 48.88 316.52 34.08
  C 426.31 11.61 538.33 1.51 650.31 0.00
  Z
  M 413.80 124.00
  C 374.30 130.15 333.83 138.81 296.40 153.07
  C 279.45 159.53 257.88 170.30 248.55 184.56
  C 230.87 211.59 272.45 233.77 291.63 241.47
  C 326.12 255.31 363.23 263.87 400.51 270.22
  Q 450.25 278.69 500.51 283.13
  Q 673.08 298.37 845.68 283.27
  C 906.20 277.97 967.33 269.33 1025.71 252.12
  C 1045.69 246.22 1067.75 237.87 1085.58 225.30
  C 1101.16 214.31 1111.19 196.50 1095.08 179.67
  C 1083.23 167.29 1066.28 158.94 1050.22 152.82
  C 1003.54 135.07 952.14 125.70 902.76 119.40
  Q 822.97 109.20 742.57 106.92
  C 629.59 103.70 522.34 107.13 413.80 124.00
  Z
  M 630.47 960.46
  C 754.90 985.26 869.53 899.10 884.22 774.74
  Q 885.43 764.51 885.04 749.21
  Q 883.35 682.20 846.14 629.11
  C 775.72 528.65 626.37 512.77 534.27 593.12
  C 477.24 642.88 453.01 717.58 465.73 791.25
  C 480.54 877.00 544.92 943.41 630.47 960.46
  Z"
/>
<circle fill="#205081" cx="673.99" cy="746.77" r="105.59"/>
<path fill="#205081" d="
  M 1175.36 1115.76
  C 1174.36 1119.16 1175.12 1122.03 1174.49 1125.36
  C 1159.39 1203.82 1143.42 1282.29 1130.05 1361.06
  C 1128.99 1367.30 1128.84 1374.15 1127.29 1379.79
  C 1114.73 1425.27 1069.58 1458.25 1029.81 1479.07
  C 977.76 1506.31 920.26 1523.83 862.75 1535.02
  C 752.88 1556.39 638.50 1558.41 527.75 1542.70
  C 469.64 1534.46 411.45 1520.38 357.31 1498.70
  C 304.07 1477.38 225.06 1433.84 216.26 1370.02
  C 212.44 1342.32 207.17 1314.62 201.91 1287.17
  Q 186.24 1205.30 170.55 1123.44
  Q 169.98 1120.47 170.91 1111.94
  C 172.28 1099.32 181.25 1091.81 193.42 1090.69
  C 203.04 1089.81 213.28 1094.80 221.01 1100.24
  Q 249.53 1120.32 280.45 1136.53
  C 371.05 1184.03 470.63 1211.92 572.75 1223.24
  C 699.38 1237.28 830.29 1226.60 952.66 1188.35
  C 1018.14 1167.89 1083.74 1138.49 1139.94 1098.47
  Q 1147.13 1093.35 1151.09 1092.05
  C 1165.18 1087.40 1180.70 1093.51 1176.56 1111.20
  Q 1176.03 1113.50 1175.36 1115.76
  Z"
/>
</svg>
