<?xml version="1.0" encoding="UTF-8" standalone="no"?>
<!DOCTYPE svg PUBLIC "-//W3C//DTD SVG 1.1//EN" "http://www.w3.org/Graphics/SVG/1.1/DTD/svg11.dtd">
<svg xmlns="http://www.w3.org/2000/svg" version="1.1" viewBox="0.00 0.00 512.00 512.00">
<path fill="#000000" d="
  M 512.00 259.06
  L 512.00 264.56
  Q 511.41 285.38 508.98 301.99
  C 495.54 393.80 428.84 473.02 341.77 503.44
  Q 334.73 505.89 330.95 505.64
  C 321.82 505.04 319.70 497.75 319.72 489.58
  Q 319.82 455.82 319.65 422.06
  C 319.56 404.91 315.78 388.02 302.91 375.84
  A 0.48 0.48 0.0 0 1 303.19 375.02
  C 329.11 372.28 352.88 366.38 375.30 351.56
  C 411.14 327.87 421.08 281.62 418.86 241.46
  C 417.59 218.59 409.03 197.84 393.46 180.94
  A 1.30 1.29 34.3 0 1 393.20 179.58
  C 401.59 157.70 399.32 134.64 390.35 112.79
  Q 390.17 112.35 389.71 112.23
  C 381.17 110.09 371.28 112.91 363.06 116.10
  Q 340.60 124.80 320.52 138.35
  Q 320.08 138.65 319.57 138.51
  Q 256.01 121.52 192.46 138.51
  Q 191.95 138.64 191.51 138.35
  Q 169.22 123.21 143.70 114.51
  C 136.45 112.04 128.83 110.80 121.89 112.19
  Q 121.40 112.29 121.22 112.75
  C 112.75 134.74 110.29 157.46 118.91 179.88
  Q 119.10 180.37 118.74 180.76
  Q 94.76 206.91 93.01 241.00
  C 91.28 274.82 98.43 315.40 122.70 340.20
  C 145.03 363.02 177.83 371.74 208.50 375.06
  A 0.44 0.44 0.0 0 1 208.77 375.80
  Q 195.45 389.56 193.37 408.78
  A 1.13 1.13 0.0 0 1 192.69 409.70
  Q 177.31 416.39 160.50 416.36
  C 144.65 416.33 130.74 406.71 122.33 393.72
  Q 116.78 385.15 115.16 383.08
  C 106.58 372.15 93.01 362.80 78.75 362.10
  C 58.83 361.11 72.22 374.37 78.66 378.25
  C 91.46 385.98 99.72 399.93 105.41 413.38
  Q 109.11 422.14 110.80 424.71
  C 118.07 435.74 129.89 442.70 143.00 445.26
  Q 167.11 449.96 191.41 445.47
  A 0.74 0.74 0.0 0 1 192.28 446.19
  Q 192.57 468.85 192.54 491.78
  C 192.54 498.99 189.00 505.02 181.44 505.66
  Q 177.37 506.00 168.37 502.79
  C 74.59 469.26 7.64 381.10 0.98 281.73
  Q 0.42 273.35 0.00 264.94
  L 0.00 259.19
  Q 0.41 253.10 0.73 247.02
  C 5.49 155.98 58.90 75.80 139.44 34.19
  C 204.91 0.36 285.13 -2.70 352.94 25.05
  C 448.34 64.09 510.35 156.18 512.00 259.06
  Z"
/>
</svg>
