<?xml version="1.0" encoding="UTF-8" standalone="no"?>
<!DOCTYPE svg PUBLIC "-//W3C//DTD SVG 1.1//EN" "http://www.w3.org/Graphics/SVG/1.1/DTD/svg11.dtd">
<svg xmlns="http://www.w3.org/2000/svg" version="1.1" viewBox="0.00 0.00 1134.00 1848.00">
<g stroke-width="2.00" fill="none" stroke-linecap="butt">
<path stroke="#636363" vector-effect="non-scaling-stroke" d="
  M 567.54 1.25
  C 567.19 2.01 566.75 2.85 566.75 3.72
  Q 566.75 343.23 566.75 682.72
  Q 566.75 683.24 566.27 683.45
  L 1.92 940.09
  Q 1.44 940.30 1.14 940.73
  L 0.75 941.29"
/>
<path stroke="#272727" vector-effect="non-scaling-stroke" d="
  M 1132.75 939.46
  Q 1131.76 940.06 1131.01 939.72
  Q 849.88 811.85 568.49 683.93
  A 0.89 0.88 12.3 0 0 567.23 684.73
  Q 567.26 977.97 567.25 1271.75
  Q 567.24 1274.85 566.75 1275.96"
/>
<path stroke="#636363" vector-effect="non-scaling-stroke" d="
  M 566.50 1383.29
  Q 566.77 1383.60 566.77 1384.00
  Q 566.75 1614.00 566.75 1844.00
  Q 566.75 1846.13 567.29 1846.75"
/>
</g>
<path fill="#8c8c8c" d="
  M 567.54 1.25
  C 567.19 2.01 566.75 2.85 566.75 3.72
  Q 566.75 343.23 566.75 682.72
  Q 566.75 683.24 566.27 683.45
  L 1.92 940.09
  Q 1.44 940.30 1.14 940.73
  L 0.75 941.29
  C 0.24 941.09 0.13 940.73 0.42 940.25
  Q 283.43 470.47 566.43 0.69
  A 0.51 0.50 33.1 0 1 567.16 0.54
  Q 567.54 0.81 567.54 1.25
  Z"
/>
<path fill="#393939" d="
  M 567.54 1.25
  L 1132.75 939.46
  Q 1131.76 940.06 1131.01 939.72
  Q 849.88 811.85 568.49 683.93
  A 0.89 0.88 12.3 0 0 567.23 684.73
  Q 567.26 977.97 567.25 1271.75
  Q 567.24 1274.85 566.75 1275.96
  L 0.75 941.29
  L 1.14 940.73
  Q 1.44 940.30 1.92 940.09
  L 566.27 683.45
  Q 566.75 683.24 566.75 682.72
  Q 566.75 343.23 566.75 3.72
  C 566.75 2.85 567.19 2.01 567.54 1.25
  Z"
/>
<path fill="#141414" d="
  M 1132.75 939.46
  Q 1133.51 940.48 1133.08 941.30
  A 0.88 0.86 89.2 0 1 1132.73 941.67
  Q 849.77 1108.99 567.46 1275.97
  Q 567.26 1276.09 566.75 1275.96
  Q 567.24 1274.85 567.25 1271.75
  Q 567.26 977.97 567.23 684.73
  A 0.89 0.88 12.3 0 1 568.49 683.93
  Q 849.88 811.85 1131.01 939.72
  Q 1131.76 940.06 1132.75 939.46
  Z"
/>
<path fill="#8c8c8c" d="
  M 566.50 1383.29
  Q 566.77 1383.60 566.77 1384.00
  Q 566.75 1614.00 566.75 1844.00
  Q 566.75 1846.13 567.29 1846.75
  Q 282.95 1448.78 0.87 1049.21
  Q 0.58 1048.80 1.01 1049.06
  L 566.50 1383.29
  Z"
/>
<path fill="#393939" d="
  M 567.29 1846.75
  Q 566.75 1846.13 566.75 1844.00
  Q 566.75 1614.00 566.77 1384.00
  Q 566.77 1383.60 566.50 1383.29
  L 1132.78 1049.25
  Q 1133.90 1048.59 1133.15 1049.65
  L 567.29 1846.75
  Z"
/>
</svg>
