<?xml version="1.0" encoding="UTF-8" standalone="no"?>
<!DOCTYPE svg PUBLIC "-//W3C//DTD SVG 1.1//EN" "http://www.w3.org/Graphics/SVG/1.1/DTD/svg11.dtd">
<svg xmlns="http://www.w3.org/2000/svg" version="1.1" viewBox="0.00 0.00 745.00 358.00">
<path fill="#68b604" d="
  M 157.47 278.75
  L 316.91 278.75
  A 0.34 0.34 0.0 0 1 317.25 279.09
  L 317.25 356.91
  A 0.34 0.34 0.0 0 1 316.91 357.25
  L 1.14 357.25
  A 0.34 0.34 0.0 0 1 0.87 356.71
  L 203.96 79.67
  A 0.34 0.34 0.0 0 0 203.69 79.13
  L 29.60 79.30
  A 0.34 0.34 0.0 0 1 29.26 78.96
  L 29.24 0.59
  A 0.34 0.34 0.0 0 1 29.58 0.25
  L 359.34 0.25
  A 0.34 0.34 0.0 0 1 359.62 0.79
  L 157.19 278.21
  A 0.34 0.34 0.0 0 0 157.47 278.75
  Z"
/>
<path fill="#68b604" d="
  M 743.75 10.50
  C 740.47 51.45 719.15 88.05 678.00 99.76
  C 665.58 103.29 654.06 103.98 639.49 103.98
  Q 495.00 104.02 351.21 103.99
  Q 350.02 103.99 350.09 102.81
  C 353.25 53.79 380.02 12.78 432.04 6.54
  C 439.01 5.71 445.62 5.26 453.08 5.26
  Q 598.33 5.23 743.58 5.26
  Q 744.20 5.26 744.14 5.88
  Q 744.00 7.37 743.75 10.50
  Z"
/>
<path fill="#68b604" d="
  M 565.39 205.89
  C 545.12 224.98 520.75 229.70 493.78 229.73
  Q 422.29 229.79 350.80 229.74
  Q 350.28 229.74 350.30 229.22
  Q 351.38 197.02 368.26 170.71
  C 386.78 141.84 416.84 131.31 449.86 131.28
  Q 522.90 131.21 595.95 131.27
  Q 596.45 131.27 596.43 131.77
  C 595.26 158.94 585.47 186.99 565.39 205.89
  Z"
/>
<path fill="#68b604" d="
  M 498.03 257.79
  C 494.83 307.14 468.66 347.77 416.80 354.50
  Q 409.48 355.45 397.03 355.48
  Q 373.84 355.53 351.03 355.49
  Q 350.05 355.49 350.11 354.51
  C 353.45 299.35 386.57 257.97 444.81 257.25
  Q 471.28 256.93 497.28 256.99
  A 0.76 0.75 2.2 0 1 498.03 257.79
  Z"
/>
</svg>
