<?xml version="1.0" encoding="UTF-8" standalone="no"?>
<!DOCTYPE svg PUBLIC "-//W3C//DTD SVG 1.1//EN" "http://www.w3.org/Graphics/SVG/1.1/DTD/svg11.dtd">
<svg xmlns="http://www.w3.org/2000/svg" version="1.1" viewBox="0.00 0.00 1024.00 1024.00">
<g stroke-width="2.00" fill="none" stroke-linecap="butt">
<path stroke="#ac574e" vector-effect="non-scaling-stroke" d="
  M 960.64 495.62
  L 961.84 494.55
  Q 962.22 494.22 961.86 493.88
  Q 959.38 491.48 961.92 489.33
  Q 962.50 488.85 961.86 488.46
  L 961.13 488.02
  Q 960.70 487.76 960.70 487.25
  C 960.93 463.59 959.67 440.27 958.69 416.74
  C 956.80 371.65 957.86 326.54 953.20 281.59
  C 951.27 262.94 944.36 253.90 929.06 243.69
  C 902.41 225.91 879.06 210.02 854.94 195.31
  C 756.81 135.46 657.53 77.29 554.97 25.31
  Q 536.16 15.78 530.94 14.06
  Q 522.77 11.37 520.23 11.25
  Q 505.17 10.58 494.02 15.98
  Q 473.25 26.04 430.72 48.90
  Q 422.22 53.47 413.23 58.59
  C 288.34 129.68 200.17 180.51 97.16 247.35
  Q 76.87 260.50 74.25 283.49
  Q 69.76 322.87 67.93 373.57
  C 67.17 394.40 65.67 418.62 65.72 435.50
  Q 65.94 511.66 66.11 587.81
  Q 66.27 660.09 74.15 731.93
  Q 75.59 745.04 78.49 753.50
  C 83.03 766.75 92.77 773.75 104.89 782.34
  Q 127.46 798.35 150.82 813.18
  Q 183.22 833.77 277.47 889.01
  C 340.57 925.99 397.94 958.83 454.95 988.53
  Q 475.10 999.03 495.92 1008.07
  C 505.19 1012.09 514.49 1014.83 524.01 1011.85
  C 535.72 1008.20 548.04 1001.92 558.90 996.44
  C 656.95 946.97 748.37 894.00 843.47 836.42
  Q 879.97 814.32 918.56 788.57
  C 935.18 777.48 950.81 765.76 953.01 744.25
  Q 959.77 678.15 959.56 610.32
  C 959.49 589.69 960.59 569.04 960.79 548.40
  C 960.91 537.08 961.36 522.43 961.42 508.56
  Q 961.44 503.50 960.76 499.64
  Q 960.68 499.20 961.03 498.92
  L 961.64 498.44
  Q 962.31 497.91 961.61 497.42
  L 960.71 496.78
  Q 959.94 496.24 960.64 495.62"
/>
<path stroke="#ac574e" vector-effect="non-scaling-stroke" d="
  M 934.31 347.69
  C 934.21 346.87 934.72 345.80 934.64 344.76
  C 934.09 336.99 934.22 328.96 933.61 321.53
  C 932.71 310.67 932.16 302.25 928.59 290.18
  C 921.70 266.92 901.23 251.15 881.69 239.05
  C 855.56 222.87 829.56 206.42 803.29 190.46
  Q 702.46 129.22 598.41 73.61
  Q 563.12 54.75 544.25 46.01
  C 519.39 34.52 498.86 38.50 475.80 50.54
  Q 407.58 86.17 341.10 124.93
  C 289.41 155.08 237.94 185.30 187.11 216.88
  Q 138.93 246.81 125.07 256.82
  C 108.14 269.04 100.39 279.15 97.10 299.92
  Q 93.21 324.41 91.71 349.19
  C 90.82 363.98 89.67 378.73 89.41 393.57
  C 88.60 439.94 86.50 486.30 87.18 532.69
  Q 87.87 580.09 89.88 627.44
  C 90.78 648.53 92.28 669.62 93.57 690.69
  C 94.79 710.82 95.44 731.06 106.25 748.84
  Q 112.16 758.57 123.93 766.57
  Q 167.13 795.97 189.31 809.69
  C 280.10 865.85 372.65 919.65 467.41 968.87
  C 481.08 975.97 493.07 981.50 507.46 982.96
  C 523.02 984.53 539.04 980.48 553.00 973.51
  Q 587.64 956.22 621.66 937.74
  Q 664.67 914.36 707.20 890.13
  C 769.41 854.68 831.56 818.82 890.47 778.49
  C 906.62 767.44 922.83 756.49 927.75 739.01
  C 931.24 726.59 932.35 714.84 933.66 699.90
  Q 935.15 682.95 935.67 665.93
  C 936.63 634.81 938.56 603.18 938.13 579.06
  Q 936.74 501.44 936.98 423.81
  Q 937.02 412.11 935.95 388.81
  C 935.38 376.59 936.01 361.48 934.31 347.69"
/>
<path stroke="#cba199" vector-effect="non-scaling-stroke" d="
  M 100.04 593.00
  Q 100.50 644.38 103.49 695.68
  Q 103.68 698.84 104.04 702.00"
/>
<path stroke="#ca9f90" vector-effect="non-scaling-stroke" d="
  M 104.04 702.00
  Q 105.37 712.45 107.99 728.75
  C 109.46 737.90 113.09 745.69 120.52 751.35
  Q 142.28 767.95 165.41 782.59
  Q 309.89 874.04 461.09 953.89
  Q 466.50 956.75 486.19 966.55
  C 518.93 982.84 542.51 967.86 570.83 953.10
  C 655.65 908.93 738.52 861.24 820.42 811.90
  Q 854.33 791.47 886.57 768.49
  Q 888.32 767.24 896.74 761.92
  C 908.17 754.70 919.76 743.52 920.91 729.19
  Q 926.42 660.43 926.96 574.74
  C 927.17 541.45 927.58 508.30 926.71 475.00"
/>
<path stroke="#cba199" vector-effect="non-scaling-stroke" d="
  M 926.71 475.00
  Q 927.19 405.86 925.06 364.19
  Q 924.62 355.43 922.46 328.00"
/>
<path stroke="#ac574e" vector-effect="non-scaling-stroke" d="
  M 922.46 328.00
  Q 922.92 325.00 921.79 322.25"
/>
<path stroke="#cba199" vector-effect="non-scaling-stroke" d="
  M 921.79 322.25
  L 918.37 283.06
  Q 918.32 282.57 917.96 282.24
  C 884.35 251.98 849.19 229.81 809.00 206.96"
/>
<path stroke="#cca49f" vector-effect="non-scaling-stroke" d="
  M 809.00 206.96
  Q 706.18 143.33 599.62 86.19
  Q 558.07 63.90 531.41 51.84
  Q 514.32 44.11 496.74 52.72
  Q 447.01 77.06 408.02 99.15
  C 310.96 154.12 214.20 209.74 121.64 272.12
  C 109.29 280.44 108.37 289.59 106.13 305.46
  C 100.70 343.92 99.73 382.19 99.74 422.50
  C 99.74 436.97 98.34 451.34 98.36 465.78
  Q 98.48 529.40 100.04 593.00"
/>
<path stroke="#f9f7f1" vector-effect="non-scaling-stroke" d="
  M 809.00 206.96
  L 807.10 208.47
  Q 806.70 208.79 806.24 208.57
  C 804.09 207.57 792.59 202.90 790.47 204.93
  Q 790.10 205.27 789.61 205.37
  C 783.93 206.49 778.05 204.87 772.19 205.41
  C 758.36 206.67 744.31 204.98 730.72 207.08
  C 723.32 208.21 715.85 208.00 708.32 208.87
  C 687.15 211.35 665.62 213.79 644.69 217.82
  C 636.22 219.46 626.40 220.68 619.21 222.08
  Q 612.47 223.40 605.73 224.70
  C 596.44 226.50 586.99 229.33 577.56 231.56
  Q 574.05 232.39 569.06 233.89
  C 558.03 237.21 546.73 240.42 529.28 245.96
  C 515.05 250.47 501.02 256.16 486.95 261.46
  C 484.14 262.52 481.82 264.15 478.99 264.97
  C 472.34 266.90 464.80 270.92 460.32 272.87
  Q 419.58 290.52 380.82 312.19
  Q 375.27 315.30 368.94 319.19
  C 334.33 340.46 303.40 361.49 273.33 386.05
  C 268.43 390.06 263.77 394.31 258.73 398.17
  C 255.97 400.28 253.44 403.08 250.58 405.33
  C 243.96 410.54 237.49 415.47 231.25 421.38
  C 225.70 426.65 220.20 432.05 214.15 436.75
  C 211.31 438.96 207.89 442.95 206.31 444.46
  C 191.99 458.11 177.54 471.99 164.71 487.07
  C 150.97 503.20 137.80 520.06 122.78 535.04
  C 115.94 541.85 100.20 562.52 102.66 574.14
  Q 102.76 574.62 102.60 575.09
  C 101.63 577.85 105.40 593.77 100.04 593.00"
/>
<path stroke="#daaaa1" vector-effect="non-scaling-stroke" d="
  M 921.79 322.25
  L 922.46 328.00"
/>
<path stroke="#f8f2e3" vector-effect="non-scaling-stroke" d="
  M 926.71 475.00
  Q 925.41 475.57 924.39 474.84
  Q 923.98 474.56 923.50 474.43
  C 879.22 463.32 841.12 455.65 796.99 452.08
  Q 796.07 452.00 794.64 450.47
  Q 794.28 450.08 793.76 450.22
  Q 792.00 450.71 790.29 450.25"
/>
<path stroke="#cba199" vector-effect="non-scaling-stroke" d="
  M 790.29 450.25
  Q 791.94 445.97 792.76 438.73
  Q 794.20 425.92 800.84 375.19
  Q 800.91 374.59 800.34 374.78
  C 788.98 378.48 777.89 382.74 766.46 386.22
  C 759.81 388.25 754.99 389.06 756.33 397.18
  Q 760.35 421.60 765.47 445.88"
/>
<path stroke="#f8f2e3" vector-effect="non-scaling-stroke" d="
  M 765.47 445.88
  Q 764.63 446.49 763.22 445.82
  Q 762.71 445.57 762.22 445.86
  Q 757.68 448.51 753.19 448.50
  Q 714.50 448.38 701.19 448.62
  C 657.53 449.39 615.22 455.28 572.26 462.55
  C 545.96 467.00 518.45 472.92 494.07 483.35
  C 492.07 484.21 492.61 487.48 491.25 487.29"
/>
<path stroke="#cba199" vector-effect="non-scaling-stroke" d="
  M 491.25 487.29
  C 476.92 482.08 457.71 492.19 448.00 502.29"
/>
<path stroke="#f8f2e3" vector-effect="non-scaling-stroke" d="
  M 448.00 502.29
  Q 443.40 498.48 436.92 500.44
  Q 428.08 503.11 419.27 506.15
  Q 418.80 506.31 418.29 506.28
  L 414.54 506.00"
/>
<path stroke="#cba199" vector-effect="non-scaling-stroke" d="
  M 414.54 506.00
  Q 414.94 385.03 414.75 350.50
  Q 414.75 349.63 413.82 347.06
  Q 413.65 346.59 413.16 346.69
  Q 410.94 347.14 409.50 347.74
  Q 392.33 354.81 375.04 361.42
  Q 374.59 361.60 374.59 362.08
  L 374.71 529.00"
/>
<path stroke="#f8f2e3" vector-effect="non-scaling-stroke" d="
  M 374.71 529.00
  Q 373.13 529.61 372.09 528.74
  Q 371.72 528.43 371.28 528.60
  Q 349.91 537.06 329.87 548.24
  C 300.93 564.38 267.65 581.17 239.45 601.20
  Q 237.31 602.72 232.59 607.52"
/>
<path stroke="#cba199" vector-effect="non-scaling-stroke" d="
  M 232.59 607.52
  C 214.70 576.41 217.57 539.89 244.79 515.25"
/>
<path stroke="#daaaa1" vector-effect="non-scaling-stroke" d="
  M 244.79 515.25
  L 254.97 510.49"
/>
<path stroke="#cba199" vector-effect="non-scaling-stroke" d="
  M 254.97 510.49
  C 270.66 507.16 285.95 509.94 296.57 522.64
  Q 303.56 530.99 312.21 525.34
  C 317.44 521.92 322.74 518.98 328.18 515.93
  Q 330.69 514.52 332.38 511.20
  Q 332.61 510.76 332.50 510.28
  Q 331.72 506.82 329.19 504.79
  C 301.85 482.85 262.50 482.86 233.45 501.81
  C 225.92 506.72 218.15 511.61 212.34 518.59
  C 185.71 550.60 179.80 589.72 198.29 627.50"
/>
<path stroke="#f8f2e3" vector-effect="non-scaling-stroke" d="
  M 198.29 627.50
  Q 168.53 651.35 138.31 674.60
  C 127.39 682.99 119.16 691.75 106.29 699.12
  Q 105.85 699.37 105.83 699.87
  Q 105.76 701.57 104.04 702.00"
/>
<path stroke="#ca9f90" vector-effect="non-scaling-stroke" d="
  M 790.29 450.25
  C 786.48 456.54 776.03 458.78 769.15 459.31
  Q 768.58 459.35 768.40 458.82
  Q 766.13 452.34 765.47 445.88"
/>
<path stroke="#ac574e" vector-effect="non-scaling-stroke" d="
  M 254.97 510.49
  Q 252.61 509.71 253.59 507.20
  A 2.14 2.13 3.0 0 1 255.05 505.89
  C 271.62 501.44 283.85 506.69 296.68 517.05
  C 308.12 526.30 312.13 519.98 322.03 513.84
  Q 322.45 513.58 322.60 513.11
  C 327.79 497.49 292.11 492.97 283.31 492.65
  C 268.11 492.10 252.35 496.74 238.59 503.38
  C 234.55 505.33 231.13 506.61 227.70 509.68
  C 214.82 521.24 201.61 536.98 196.98 553.98
  Q 191.36 574.60 193.28 595.81
  C 193.67 600.20 195.20 604.56 196.22 609.03
  C 203.28 640.13 229.07 655.50 259.50 656.46
  Q 281.88 657.17 300.01 645.21
  C 302.34 643.67 303.40 641.80 302.44 639.14
  Q 302.26 638.65 301.75 638.55
  Q 298.46 637.97 296.42 638.60
  C 242.63 655.08 216.27 603.06 216.48 558.92
  C 216.53 547.31 221.83 536.97 227.92 527.13
  C 229.64 524.35 237.85 513.11 242.38 512.46
  Q 242.98 512.38 243.31 512.89
  L 244.79 515.25"
/>
<path stroke="#ca9f90" vector-effect="non-scaling-stroke" d="
  M 198.29 627.50
  C 211.07 646.70 231.18 659.49 254.12 661.50
  C 289.18 664.58 321.17 639.27 341.29 613.30
  Q 342.15 612.18 342.68 610.86
  Q 342.86 610.39 342.72 609.91
  C 341.99 607.46 338.07 601.48 335.00 604.23
  C 324.09 613.99 311.99 626.62 299.26 632.74
  C 272.20 645.78 245.08 633.37 232.59 607.52"
/>
<path stroke="#d9a798" vector-effect="non-scaling-stroke" d="
  M 455.25 525.71
  Q 459.01 524.01 462.75 525.71"
/>
<path stroke="#ca9f90" vector-effect="non-scaling-stroke" d="
  M 414.54 506.00
  L 414.21 563.50"
/>
<path stroke="#ac574e" vector-effect="non-scaling-stroke" d="
  M 414.21 563.50
  C 407.96 567.15 409.71 553.16 409.72 551.30
  C 409.89 489.26 410.52 438.50 409.56 365.26
  C 409.46 357.49 406.24 357.41 399.28 357.52
  C 381.22 357.81 380.29 372.38 380.12 386.56
  C 379.50 437.39 380.37 491.87 379.93 544.56
  Q 379.51 595.50 380.26 646.44
  C 380.32 650.61 380.35 655.21 385.75 655.72
  C 394.35 656.53 406.38 653.72 409.67 644.94
  C 411.80 639.27 411.96 630.76 413.31 624.72
  C 417.39 606.50 422.31 587.14 420.19 568.77
  Q 419.98 566.93 418.62 566.29"
/>
<path stroke="#ca9f90" vector-effect="non-scaling-stroke" d="
  M 418.62 566.29
  Q 422.22 549.67 427.95 536.94
  Q 435.49 520.18 448.00 502.29"
/>
<path stroke="#ca9f90" vector-effect="non-scaling-stroke" d="
  M 491.25 487.29
  C 504.01 494.34 506.81 506.19 506.91 519.75
  Q 507.29 573.60 507.25 627.47
  C 507.25 632.95 511.44 636.72 516.76 636.58
  C 521.68 636.46 526.13 632.48 529.15 628.71
  C 532.86 624.09 537.17 628.30 537.53 632.50
  Q 537.72 634.71 534.65 639.15
  C 524.25 654.21 504.71 664.21 486.66 658.48
  C 471.96 653.82 467.24 640.90 467.02 626.50
  Q 466.21 575.78 466.57 535.25
  Q 466.62 529.77 462.75 525.71"
/>
<path stroke="#ac574e" vector-effect="non-scaling-stroke" d="
  M 462.75 525.71
  Q 464.68 523.30 467.25 524.64
  Q 467.71 524.88 467.92 525.36
  C 472.17 534.94 472.80 546.68 472.77 557.14
  Q 472.67 592.49 472.83 627.86
  C 472.88 638.66 474.09 644.93 482.92 650.60
  Q 498.27 660.46 513.33 651.52
  C 515.50 650.23 520.78 645.25 516.33 643.12
  C 507.74 639.01 502.43 634.50 502.31 624.25
  Q 501.84 584.57 502.08 557.84
  Q 502.08 557.36 502.54 552.57
  C 503.75 539.93 502.48 526.53 501.80 516.45
  C 500.94 503.61 495.24 493.35 481.06 492.43
  C 465.57 491.42 458.20 501.36 447.52 511.77
  Q 443.74 515.46 443.84 520.37
  C 443.94 525.28 451.46 523.74 454.47 523.41
  Q 455.02 523.34 455.37 523.77
  Q 456.00 524.54 455.25 525.71"
/>
<path stroke="#ca9f90" vector-effect="non-scaling-stroke" d="
  M 455.25 525.71
  Q 444.90 532.48 440.48 542.00
  C 427.33 570.40 420.12 603.84 416.84 635.91
  C 415.15 652.46 410.13 655.02 395.15 659.38
  C 388.71 661.26 376.40 666.87 375.36 655.24
  C 375.09 652.25 374.65 649.21 374.67 646.30
  Q 375.25 587.65 374.71 529.00"
/>
<path stroke="#d9a798" vector-effect="non-scaling-stroke" d="
  M 414.21 563.50
  L 415.25 569.17
  A 0.43 0.43 0.0 0 0 416.09 569.21
  Q 416.58 567.56 418.62 566.29"
/>
<path stroke="#f9f4e9" vector-effect="non-scaling-stroke" d="
  M 640.55 169.11
  Q 641.28 168.74 641.71 168.09
  Q 642.02 167.60 641.53 167.90
  Q 640.35 168.62 639.44 169.69
  Q 638.08 171.30 639.67 170.19
  Q 639.97 169.98 640.08 169.66
  Q 640.20 169.28 640.55 169.11"
/>
<path stroke="#ac574e" vector-effect="non-scaling-stroke" d="
  M 765.19 418.81
  C 765.47 419.99 765.15 421.85 765.46 423.37
  Q 768.35 437.83 769.65 443.29
  C 772.01 453.15 784.08 453.44 786.18 443.24
  C 788.58 431.59 789.58 419.71 791.79 408.18
  Q 793.37 399.87 794.00 395.00
  C 794.54 390.86 794.08 387.47 789.42 386.28
  Q 783.27 384.72 777.56 386.24
  C 760.72 390.73 761.94 405.09 765.19 418.81"
/>
<path stroke="#d9a798" vector-effect="non-scaling-stroke" d="
  M 660.52 623.90
  Q 663.64 628.43 662.75 633.75
  Q 662.55 634.95 663.88 636.82"
/>
<path stroke="#ca9f90" vector-effect="non-scaling-stroke" d="
  M 663.88 636.82
  C 668.81 648.76 674.68 658.14 688.50 659.48
  Q 697.49 660.35 703.72 658.23
  C 713.47 654.90 728.79 645.26 732.66 634.29
  C 733.93 630.69 731.57 627.27 728.47 625.84
  Q 727.42 625.36 726.62 626.20
  C 723.15 629.87 718.37 635.68 713.18 636.34
  C 706.60 637.19 702.21 631.92 702.21 625.51
  Q 702.23 588.53 702.27 551.55
  C 702.27 548.75 702.72 545.36 702.00 541.93
  C 700.63 535.38 693.69 539.88 690.47 541.29
  C 681.64 545.17 664.07 547.31 663.22 559.49
  C 661.56 583.18 661.87 620.29 637.78 633.56
  C 620.87 642.88 603.81 630.20 597.56 614.43
  Q 580.36 571.05 605.25 531.04"
/>
<path stroke="#d9a798" vector-effect="non-scaling-stroke" d="
  M 605.25 531.04
  C 613.33 521.76 621.27 514.20 633.75 511.46"
/>
<path stroke="#ca9f90" vector-effect="non-scaling-stroke" d="
  M 633.75 511.46
  C 645.16 509.21 653.45 514.95 661.45 522.07
  C 666.03 526.14 667.50 533.60 676.10 529.23
  Q 684.62 524.91 693.62 521.74
  C 698.56 520.01 702.84 517.39 698.42 511.82
  C 686.75 497.09 668.97 490.27 649.75 489.56
  C 623.70 488.59 600.55 497.90 583.77 517.53
  C 556.47 549.43 543.23 592.20 562.84 631.27
  Q 567.11 639.77 572.24 645.49
  C 594.97 670.85 633.26 664.83 651.67 638.16
  Q 655.23 632.99 660.52 623.90"
/>
<path stroke="#ac574e" vector-effect="non-scaling-stroke" d="
  M 633.75 511.46
  Q 634.32 508.74 631.79 508.08
  Q 630.89 507.85 631.61 507.25
  Q 632.13 506.83 633.26 506.76
  C 644.65 506.10 652.29 509.16 660.03 516.81
  C 666.34 523.04 683.86 524.38 690.25 517.49
  Q 690.59 517.12 690.66 516.63
  C 692.56 502.69 672.85 498.50 662.97 496.38
  Q 626.81 488.62 599.28 509.42
  C 566.09 534.51 550.97 582.19 563.72 621.92
  C 570.88 644.24 589.89 657.87 613.57 656.38
  Q 626.52 655.56 635.83 648.20
  C 637.97 646.50 638.96 643.99 637.20 641.67
  A 2.49 2.49 0.0 0 0 635.17 640.70
  C 629.34 640.87 623.00 641.55 617.68 640.21
  C 604.13 636.80 596.66 623.45 591.92 611.03
  C 581.85 584.68 584.96 554.90 600.89 531.40
  Q 601.53 530.44 603.07 529.80
  Q 603.55 529.60 603.87 530.01
  Q 604.44 530.77 605.25 531.04"
/>
<path stroke="#ac574e" vector-effect="non-scaling-stroke" d="
  M 663.88 636.82
  Q 666.53 635.56 666.32 632.45
  A 0.52 0.52 0.0 0 1 667.34 632.25
  C 671.24 644.01 679.31 653.73 692.14 655.67
  C 698.64 656.65 711.84 653.04 713.39 645.32
  Q 713.50 644.79 713.10 644.41
  C 711.85 643.26 710.54 641.84 708.95 641.07
  C 699.39 636.42 697.66 628.40 697.57 618.50
  Q 697.31 589.91 697.19 561.32
  C 697.11 542.34 686.31 544.93 673.72 551.69
  C 665.93 555.87 667.94 564.65 667.13 572.12
  C 666.38 578.96 666.20 587.80 664.26 594.25
  Q 659.46 610.24 660.52 623.90"
/>
<path stroke="#ca9f90" vector-effect="non-scaling-stroke" d="
  M 805.41 635.58
  Q 800.18 633.35 800.04 626.23
  Q 799.51 599.35 799.77 564.44
  C 799.94 542.45 799.63 520.49 800.02 498.50
  C 800.08 495.18 799.89 489.39 794.62 491.23
  Q 779.71 496.44 764.66 501.21
  C 759.20 502.95 759.73 508.99 759.72 513.50
  Q 759.66 570.53 760.57 627.56
  C 760.70 635.36 760.65 640.66 764.01 646.20
  C 770.70 657.25 782.37 660.60 794.81 659.51
  C 808.10 658.35 819.92 650.10 827.31 639.15
  C 830.70 634.13 832.58 628.92 825.07 626.44
  A 1.56 1.54 25.0 0 0 823.26 627.09
  C 819.70 632.85 812.34 638.53 805.41 635.58"
/>
<path stroke="#ac574e" vector-effect="non-scaling-stroke" d="
  M 807.94 642.04
  C 796.89 634.89 795.13 629.30 795.17 616.00
  Q 795.31 563.43 794.95 510.86
  Q 794.91 505.12 794.16 503.33
  C 790.88 495.47 775.11 500.19 770.73 504.83
  C 766.51 509.31 765.84 515.98 765.81 522.00
  Q 765.54 573.41 765.51 624.82
  Q 765.51 629.79 766.03 633.03
  C 769.49 654.78 790.90 660.87 807.97 650.24
  C 811.97 647.75 811.75 644.50 807.94 642.04"
/>
</g>
<path fill="#9d4e46" d="
  M 56.59 591.44
  C 56.07 541.87 55.71 475.57 57.09 425.49
  C 58.33 380.79 59.64 335.94 64.40 291.45
  Q 66.21 274.44 66.89 271.61
  C 70.47 256.64 78.69 248.91 92.10 240.07
  C 177.88 183.55 266.62 131.25 355.80 80.29
  Q 419.76 43.74 485.29 10.09
  C 499.28 2.90 512.56 -2.01 527.68 2.92
  Q 538.29 6.38 547.76 11.23
  Q 744.97 112.13 934.54 235.48
  Q 961.20 252.82 963.55 284.51
  Q 966.41 323.06 967.36 361.73
  C 967.50 367.40 968.05 374.43 968.11 380.81
  C 968.28 399.64 968.46 418.28 968.96 437.31
  Q 971.02 515.90 969.25 594.50
  C 969.09 601.32 968.63 608.43 968.56 614.92
  C 968.03 664.91 966.44 708.08 961.65 752.68
  C 960.49 763.46 956.91 771.35 948.30 778.05
  Q 934.60 788.72 920.19 798.44
  Q 875.14 828.81 828.43 856.53
  C 734.31 912.40 647.04 962.59 553.22 1009.94
  Q 546.41 1013.37 539.34 1016.24
  C 510.48 1027.93 491.47 1017.44 466.19 1004.30
  Q 287.74 911.49 112.69 799.05
  C 101.17 791.65 89.49 784.87 81.29 775.88
  Q 67.68 760.94 65.11 740.92
  Q 62.75 722.55 60.90 688.06
  Q 56.80 611.63 56.59 591.44
  Z
  M 960.64 495.62
  L 961.84 494.55
  Q 962.22 494.22 961.86 493.88
  Q 959.38 491.48 961.92 489.33
  Q 962.50 488.85 961.86 488.46
  L 961.13 488.02
  Q 960.70 487.76 960.70 487.25
  C 960.93 463.59 959.67 440.27 958.69 416.74
  C 956.80 371.65 957.86 326.54 953.20 281.59
  C 951.27 262.94 944.36 253.90 929.06 243.69
  C 902.41 225.91 879.06 210.02 854.94 195.31
  C 756.81 135.46 657.53 77.29 554.97 25.31
  Q 536.16 15.78 530.94 14.06
  Q 522.77 11.37 520.23 11.25
  Q 505.17 10.58 494.02 15.98
  Q 473.25 26.04 430.72 48.90
  Q 422.22 53.47 413.23 58.59
  C 288.34 129.68 200.17 180.51 97.16 247.35
  Q 76.87 260.50 74.25 283.49
  Q 69.76 322.87 67.93 373.57
  C 67.17 394.40 65.67 418.62 65.72 435.50
  Q 65.94 511.66 66.11 587.81
  Q 66.27 660.09 74.15 731.93
  Q 75.59 745.04 78.49 753.50
  C 83.03 766.75 92.77 773.75 104.89 782.34
  Q 127.46 798.35 150.82 813.18
  Q 183.22 833.77 277.47 889.01
  C 340.57 925.99 397.94 958.83 454.95 988.53
  Q 475.10 999.03 495.92 1008.07
  C 505.19 1012.09 514.49 1014.83 524.01 1011.85
  C 535.72 1008.20 548.04 1001.92 558.90 996.44
  C 656.95 946.97 748.37 894.00 843.47 836.42
  Q 879.97 814.32 918.56 788.57
  C 935.18 777.48 950.81 765.76 953.01 744.25
  Q 959.77 678.15 959.56 610.32
  C 959.49 589.69 960.59 569.04 960.79 548.40
  C 960.91 537.08 961.36 522.43 961.42 508.56
  Q 961.44 503.50 960.76 499.64
  Q 960.68 499.20 961.03 498.92
  L 961.64 498.44
  Q 962.31 497.91 961.61 497.42
  L 960.71 496.78
  Q 959.94 496.24 960.64 495.62
  Z"
/>
<path fill="#bb5f56" d="
  M 960.71 496.78
  L 961.61 497.42
  Q 962.31 497.91 961.64 498.44
  L 961.03 498.92
  Q 960.68 499.20 960.76 499.64
  Q 961.44 503.50 961.42 508.56
  C 961.36 522.43 960.91 537.08 960.79 548.40
  C 960.59 569.04 959.49 589.69 959.56 610.32
  Q 959.77 678.15 953.01 744.25
  C 950.81 765.76 935.18 777.48 918.56 788.57
  Q 879.97 814.32 843.47 836.42
  C 748.37 894.00 656.95 946.97 558.90 996.44
  C 548.04 1001.92 535.72 1008.20 524.01 1011.85
  C 514.49 1014.83 505.19 1012.09 495.92 1008.07
  Q 475.10 999.03 454.95 988.53
  C 397.94 958.83 340.57 925.99 277.47 889.01
  Q 183.22 833.77 150.82 813.18
  Q 127.46 798.35 104.89 782.34
  C 92.77 773.75 83.03 766.75 78.49 753.50
  Q 75.59 745.04 74.15 731.93
  Q 66.27 660.09 66.11 587.81
  Q 65.94 511.66 65.72 435.50
  C 65.67 418.62 67.17 394.40 67.93 373.57
  Q 69.76 322.87 74.25 283.49
  Q 76.87 260.50 97.16 247.35
  C 200.17 180.51 288.34 129.68 413.23 58.59
  Q 422.22 53.47 430.72 48.90
  Q 473.25 26.04 494.02 15.98
  Q 505.17 10.58 520.23 11.25
  Q 522.77 11.37 530.94 14.06
  Q 536.16 15.78 554.97 25.31
  C 657.53 77.29 756.81 135.46 854.94 195.31
  C 879.06 210.02 902.41 225.91 929.06 243.69
  C 944.36 253.90 951.27 262.94 953.20 281.59
  C 957.86 326.54 956.80 371.65 958.69 416.74
  C 959.67 440.27 960.93 463.59 960.70 487.25
  Q 960.70 487.76 961.13 488.02
  L 961.86 488.46
  Q 962.50 488.85 961.92 489.33
  Q 959.38 491.48 961.86 493.88
  Q 962.22 494.22 961.84 494.55
  L 960.64 495.62
  Q 959.94 496.24 960.71 496.78
  Z
  M 934.31 347.69
  C 934.21 346.87 934.72 345.80 934.64 344.76
  C 934.09 336.99 934.22 328.96 933.61 321.53
  C 932.71 310.67 932.16 302.25 928.59 290.18
  C 921.70 266.92 901.23 251.15 881.69 239.05
  C 855.56 222.87 829.56 206.42 803.29 190.46
  Q 702.46 129.22 598.41 73.61
  Q 563.12 54.75 544.25 46.01
  C 519.39 34.52 498.86 38.50 475.80 50.54
  Q 407.58 86.17 341.10 124.93
  C 289.41 155.08 237.94 185.30 187.11 216.88
  Q 138.93 246.81 125.07 256.82
  C 108.14 269.04 100.39 279.15 97.10 299.92
  Q 93.21 324.41 91.71 349.19
  C 90.82 363.98 89.67 378.73 89.41 393.57
  C 88.60 439.94 86.50 486.30 87.18 532.69
  Q 87.87 580.09 89.88 627.44
  C 90.78 648.53 92.28 669.62 93.57 690.69
  C 94.79 710.82 95.44 731.06 106.25 748.84
  Q 112.16 758.57 123.93 766.57
  Q 167.13 795.97 189.31 809.69
  C 280.10 865.85 372.65 919.65 467.41 968.87
  C 481.08 975.97 493.07 981.50 507.46 982.96
  C 523.02 984.53 539.04 980.48 553.00 973.51
  Q 587.64 956.22 621.66 937.74
  Q 664.67 914.36 707.20 890.13
  C 769.41 854.68 831.56 818.82 890.47 778.49
  C 906.62 767.44 922.83 756.49 927.75 739.01
  C 931.24 726.59 932.35 714.84 933.66 699.90
  Q 935.15 682.95 935.67 665.93
  C 936.63 634.81 938.56 603.18 938.13 579.06
  Q 936.74 501.44 936.98 423.81
  Q 937.02 412.11 935.95 388.81
  C 935.38 376.59 936.01 361.48 934.31 347.69
  Z"
/>
<path fill="#9d4e46" d="
  M 934.31 347.69
  C 936.01 361.48 935.38 376.59 935.95 388.81
  Q 937.02 412.11 936.98 423.81
  Q 936.74 501.44 938.13 579.06
  C 938.56 603.18 936.63 634.81 935.67 665.93
  Q 935.15 682.95 933.66 699.90
  C 932.35 714.84 931.24 726.59 927.75 739.01
  C 922.83 756.49 906.62 767.44 890.47 778.49
  C 831.56 818.82 769.41 854.68 707.20 890.13
  Q 664.67 914.36 621.66 937.74
  Q 587.64 956.22 553.00 973.51
  C 539.04 980.48 523.02 984.53 507.46 982.96
  C 493.07 981.50 481.08 975.97 467.41 968.87
  C 372.65 919.65 280.10 865.85 189.31 809.69
  Q 167.13 795.97 123.93 766.57
  Q 112.16 758.57 106.25 748.84
  C 95.44 731.06 94.79 710.82 93.57 690.69
  C 92.28 669.62 90.78 648.53 89.88 627.44
  Q 87.87 580.09 87.18 532.69
  C 86.50 486.30 88.60 439.94 89.41 393.57
  C 89.67 378.73 90.82 363.98 91.71 349.19
  Q 93.21 324.41 97.10 299.92
  C 100.39 279.15 108.14 269.04 125.07 256.82
  Q 138.93 246.81 187.11 216.88
  C 237.94 185.30 289.41 155.08 341.10 124.93
  Q 407.58 86.17 475.80 50.54
  C 498.86 38.50 519.39 34.52 544.25 46.01
  Q 563.12 54.75 598.41 73.61
  Q 702.46 129.22 803.29 190.46
  C 829.56 206.42 855.56 222.87 881.69 239.05
  C 901.23 251.15 921.70 266.92 928.59 290.18
  C 932.16 302.25 932.71 310.67 933.61 321.53
  C 934.22 328.96 934.09 336.99 934.64 344.76
  C 934.72 345.80 934.21 346.87 934.31 347.69
  Z
  M 100.04 593.00
  Q 100.50 644.38 103.49 695.68
  Q 103.68 698.84 104.04 702.00
  Q 105.37 712.45 107.99 728.75
  C 109.46 737.90 113.09 745.69 120.52 751.35
  Q 142.28 767.95 165.41 782.59
  Q 309.89 874.04 461.09 953.89
  Q 466.50 956.75 486.19 966.55
  C 518.93 982.84 542.51 967.86 570.83 953.10
  C 655.65 908.93 738.52 861.24 820.42 811.90
  Q 854.33 791.47 886.57 768.49
  Q 888.32 767.24 896.74 761.92
  C 908.17 754.70 919.76 743.52 920.91 729.19
  Q 926.42 660.43 926.96 574.74
  C 927.17 541.45 927.58 508.30 926.71 475.00
  Q 927.19 405.86 925.06 364.19
  Q 924.62 355.43 922.46 328.00
  Q 922.92 325.00 921.79 322.25
  L 918.37 283.06
  Q 918.32 282.57 917.96 282.24
  C 884.35 251.98 849.19 229.81 809.00 206.96
  Q 706.18 143.33 599.62 86.19
  Q 558.07 63.90 531.41 51.84
  Q 514.32 44.11 496.74 52.72
  Q 447.01 77.06 408.02 99.15
  C 310.96 154.12 214.20 209.74 121.64 272.12
  C 109.29 280.44 108.37 289.59 106.13 305.46
  C 100.70 343.92 99.73 382.19 99.74 422.50
  C 99.74 436.97 98.34 451.34 98.36 465.78
  Q 98.48 529.40 100.04 593.00
  Z"
/>
<path fill="#faf9f7" d="
  M 809.00 206.96
  L 807.10 208.47
  Q 806.70 208.79 806.24 208.57
  C 804.09 207.57 792.59 202.90 790.47 204.93
  Q 790.10 205.27 789.61 205.37
  C 783.93 206.49 778.05 204.87 772.19 205.41
  C 758.36 206.67 744.31 204.98 730.72 207.08
  C 723.32 208.21 715.85 208.00 708.32 208.87
  C 687.15 211.35 665.62 213.79 644.69 217.82
  C 636.22 219.46 626.40 220.68 619.21 222.08
  Q 612.47 223.40 605.73 224.70
  C 596.44 226.50 586.99 229.33 577.56 231.56
  Q 574.05 232.39 569.06 233.89
  C 558.03 237.21 546.73 240.42 529.28 245.96
  C 515.05 250.47 501.02 256.16 486.95 261.46
  C 484.14 262.52 481.82 264.15 478.99 264.97
  C 472.34 266.90 464.80 270.92 460.32 272.87
  Q 419.58 290.52 380.82 312.19
  Q 375.27 315.30 368.94 319.19
  C 334.33 340.46 303.40 361.49 273.33 386.05
  C 268.43 390.06 263.77 394.31 258.73 398.17
  C 255.97 400.28 253.44 403.08 250.58 405.33
  C 243.96 410.54 237.49 415.47 231.25 421.38
  C 225.70 426.65 220.20 432.05 214.15 436.75
  C 211.31 438.96 207.89 442.95 206.31 444.46
  C 191.99 458.11 177.54 471.99 164.71 487.07
  C 150.97 503.20 137.80 520.06 122.78 535.04
  C 115.94 541.85 100.20 562.52 102.66 574.14
  Q 102.76 574.62 102.60 575.09
  C 101.63 577.85 105.40 593.77 100.04 593.00
  Q 98.48 529.40 98.36 465.78
  C 98.34 451.34 99.74 436.97 99.74 422.50
  C 99.73 382.19 100.70 343.92 106.13 305.46
  C 108.37 289.59 109.29 280.44 121.64 272.12
  C 214.20 209.74 310.96 154.12 408.02 99.15
  Q 447.01 77.06 496.74 52.72
  Q 514.32 44.11 531.41 51.84
  Q 558.07 63.90 599.62 86.19
  Q 706.18 143.33 809.00 206.96
  Z
  M 640.55 169.11
  Q 641.28 168.74 641.71 168.09
  Q 642.02 167.60 641.53 167.90
  Q 640.35 168.62 639.44 169.69
  Q 638.08 171.30 639.67 170.19
  Q 639.97 169.98 640.08 169.66
  Q 640.20 169.28 640.55 169.11
  Z"
/>
<path fill="#f7efda" d="
  M 640.08 169.66
  Q 639.97 169.98 639.67 170.19
  Q 638.08 171.30 639.44 169.69
  Q 640.35 168.62 641.53 167.90
  Q 642.02 167.60 641.71 168.09
  Q 641.28 168.74 640.55 169.11
  Q 640.20 169.28 640.08 169.66
  Z"
/>
<path fill="#f8f4eb" d="
  M 809.00 206.96
  C 849.19 229.81 884.35 251.98 917.96 282.24
  Q 918.32 282.57 918.37 283.06
  L 921.79 322.25
  L 922.46 328.00
  Q 924.62 355.43 925.06 364.19
  Q 927.19 405.86 926.71 475.00
  Q 925.41 475.57 924.39 474.84
  Q 923.98 474.56 923.50 474.43
  C 879.22 463.32 841.12 455.65 796.99 452.08
  Q 796.07 452.00 794.64 450.47
  Q 794.28 450.08 793.76 450.22
  Q 792.00 450.71 790.29 450.25
  Q 791.94 445.97 792.76 438.73
  Q 794.20 425.92 800.84 375.19
  Q 800.91 374.59 800.34 374.78
  C 788.98 378.48 777.89 382.74 766.46 386.22
  C 759.81 388.25 754.99 389.06 756.33 397.18
  Q 760.35 421.60 765.47 445.88
  Q 764.63 446.49 763.22 445.82
  Q 762.71 445.57 762.22 445.86
  Q 757.68 448.51 753.19 448.50
  Q 714.50 448.38 701.19 448.62
  C 657.53 449.39 615.22 455.28 572.26 462.55
  C 545.96 467.00 518.45 472.92 494.07 483.35
  C 492.07 484.21 492.61 487.48 491.25 487.29
  C 476.92 482.08 457.71 492.19 448.00 502.29
  Q 443.40 498.48 436.92 500.44
  Q 428.08 503.11 419.27 506.15
  Q 418.80 506.31 418.29 506.28
  L 414.54 506.00
  Q 414.94 385.03 414.75 350.50
  Q 414.75 349.63 413.82 347.06
  Q 413.65 346.59 413.16 346.69
  Q 410.94 347.14 409.50 347.74
  Q 392.33 354.81 375.04 361.42
  Q 374.59 361.60 374.59 362.08
  L 374.71 529.00
  Q 373.13 529.61 372.09 528.74
  Q 371.72 528.43 371.28 528.60
  Q 349.91 537.06 329.87 548.24
  C 300.93 564.38 267.65 581.17 239.45 601.20
  Q 237.31 602.72 232.59 607.52
  C 214.70 576.41 217.57 539.89 244.79 515.25
  L 254.97 510.49
  C 270.66 507.16 285.95 509.94 296.57 522.64
  Q 303.56 530.99 312.21 525.34
  C 317.44 521.92 322.74 518.98 328.18 515.93
  Q 330.69 514.52 332.38 511.20
  Q 332.61 510.76 332.50 510.28
  Q 331.72 506.82 329.19 504.79
  C 301.85 482.85 262.50 482.86 233.45 501.81
  C 225.92 506.72 218.15 511.61 212.34 518.59
  C 185.71 550.60 179.80 589.72 198.29 627.50
  Q 168.53 651.35 138.31 674.60
  C 127.39 682.99 119.16 691.75 106.29 699.12
  Q 105.85 699.37 105.83 699.87
  Q 105.76 701.57 104.04 702.00
  Q 103.68 698.84 103.49 695.68
  Q 100.50 644.38 100.04 593.00
  C 105.40 593.77 101.63 577.85 102.60 575.09
  Q 102.76 574.62 102.66 574.14
  C 100.20 562.52 115.94 541.85 122.78 535.04
  C 137.80 520.06 150.97 503.20 164.71 487.07
  C 177.54 471.99 191.99 458.11 206.31 444.46
  C 207.89 442.95 211.31 438.96 214.15 436.75
  C 220.20 432.05 225.70 426.65 231.25 421.38
  C 237.49 415.47 243.96 410.54 250.58 405.33
  C 253.44 403.08 255.97 400.28 258.73 398.17
  C 263.77 394.31 268.43 390.06 273.33 386.05
  C 303.40 361.49 334.33 340.46 368.94 319.19
  Q 375.27 315.30 380.82 312.19
  Q 419.58 290.52 460.32 272.87
  C 464.80 270.92 472.34 266.90 478.99 264.97
  C 481.82 264.15 484.14 262.52 486.95 261.46
  C 501.02 256.16 515.05 250.47 529.28 245.96
  C 546.73 240.42 558.03 237.21 569.06 233.89
  Q 574.05 232.39 577.56 231.56
  C 586.99 229.33 596.44 226.50 605.73 224.70
  Q 612.47 223.40 619.21 222.08
  C 626.40 220.68 636.22 219.46 644.69 217.82
  C 665.62 213.79 687.15 211.35 708.32 208.87
  C 715.85 208.00 723.32 208.21 730.72 207.08
  C 744.31 204.98 758.36 206.67 772.19 205.41
  C 778.05 204.87 783.93 206.49 789.61 205.37
  Q 790.10 205.27 790.47 204.93
  C 792.59 202.90 804.09 207.57 806.24 208.57
  Q 806.70 208.79 807.10 208.47
  L 809.00 206.96
  Z"
/>
<path fill="#bb5f56" d="
  M 921.79 322.25
  Q 922.92 325.00 922.46 328.00
  L 921.79 322.25
  Z"
/>
<path fill="#9d4e46" d="
  M 414.54 506.00
  L 414.21 563.50
  C 407.96 567.15 409.71 553.16 409.72 551.30
  C 409.89 489.26 410.52 438.50 409.56 365.26
  C 409.46 357.49 406.24 357.41 399.28 357.52
  C 381.22 357.81 380.29 372.38 380.12 386.56
  C 379.50 437.39 380.37 491.87 379.93 544.56
  Q 379.51 595.50 380.26 646.44
  C 380.32 650.61 380.35 655.21 385.75 655.72
  C 394.35 656.53 406.38 653.72 409.67 644.94
  C 411.80 639.27 411.96 630.76 413.31 624.72
  C 417.39 606.50 422.31 587.14 420.19 568.77
  Q 419.98 566.93 418.62 566.29
  Q 422.22 549.67 427.95 536.94
  Q 435.49 520.18 448.00 502.29
  C 457.71 492.19 476.92 482.08 491.25 487.29
  C 504.01 494.34 506.81 506.19 506.91 519.75
  Q 507.29 573.60 507.25 627.47
  C 507.25 632.95 511.44 636.72 516.76 636.58
  C 521.68 636.46 526.13 632.48 529.15 628.71
  C 532.86 624.09 537.17 628.30 537.53 632.50
  Q 537.72 634.71 534.65 639.15
  C 524.25 654.21 504.71 664.21 486.66 658.48
  C 471.96 653.82 467.24 640.90 467.02 626.50
  Q 466.21 575.78 466.57 535.25
  Q 466.62 529.77 462.75 525.71
  Q 464.68 523.30 467.25 524.64
  Q 467.71 524.88 467.92 525.36
  C 472.17 534.94 472.80 546.68 472.77 557.14
  Q 472.67 592.49 472.83 627.86
  C 472.88 638.66 474.09 644.93 482.92 650.60
  Q 498.27 660.46 513.33 651.52
  C 515.50 650.23 520.78 645.25 516.33 643.12
  C 507.74 639.01 502.43 634.50 502.31 624.25
  Q 501.84 584.57 502.08 557.84
  Q 502.08 557.36 502.54 552.57
  C 503.75 539.93 502.48 526.53 501.80 516.45
  C 500.94 503.61 495.24 493.35 481.06 492.43
  C 465.57 491.42 458.20 501.36 447.52 511.77
  Q 443.74 515.46 443.84 520.37
  C 443.94 525.28 451.46 523.74 454.47 523.41
  Q 455.02 523.34 455.37 523.77
  Q 456.00 524.54 455.25 525.71
  Q 444.90 532.48 440.48 542.00
  C 427.33 570.40 420.12 603.84 416.84 635.91
  C 415.15 652.46 410.13 655.02 395.15 659.38
  C 388.71 661.26 376.40 666.87 375.36 655.24
  C 375.09 652.25 374.65 649.21 374.67 646.30
  Q 375.25 587.65 374.71 529.00
  L 374.59 362.08
  Q 374.59 361.60 375.04 361.42
  Q 392.33 354.81 409.50 347.74
  Q 410.94 347.14 413.16 346.69
  Q 413.65 346.59 413.82 347.06
  Q 414.75 349.63 414.75 350.50
  Q 414.94 385.03 414.54 506.00
  Z"
/>
<path fill="#bb5f56" d="
  M 414.21 563.50
  L 415.25 569.17
  A 0.43 0.43 0.0 0 0 416.09 569.21
  Q 416.58 567.56 418.62 566.29
  Q 419.98 566.93 420.19 568.77
  C 422.31 587.14 417.39 606.50 413.31 624.72
  C 411.96 630.76 411.80 639.27 409.67 644.94
  C 406.38 653.72 394.35 656.53 385.75 655.72
  C 380.35 655.21 380.32 650.61 380.26 646.44
  Q 379.51 595.50 379.93 544.56
  C 380.37 491.87 379.50 437.39 380.12 386.56
  C 380.29 372.38 381.22 357.81 399.28 357.52
  C 406.24 357.41 409.46 357.49 409.56 365.26
  C 410.52 438.50 409.89 489.26 409.72 551.30
  C 409.71 553.16 407.96 567.15 414.21 563.50
  Z"
/>
<path fill="#9d4e46" d="
  M 790.29 450.25
  C 786.48 456.54 776.03 458.78 769.15 459.31
  Q 768.58 459.35 768.40 458.82
  Q 766.13 452.34 765.47 445.88
  Q 760.35 421.60 756.33 397.18
  C 754.99 389.06 759.81 388.25 766.46 386.22
  C 777.89 382.74 788.98 378.48 800.34 374.78
  Q 800.91 374.59 800.84 375.19
  Q 794.20 425.92 792.76 438.73
  Q 791.94 445.97 790.29 450.25
  Z
  M 765.19 418.81
  C 765.47 419.99 765.15 421.85 765.46 423.37
  Q 768.35 437.83 769.65 443.29
  C 772.01 453.15 784.08 453.44 786.18 443.24
  C 788.58 431.59 789.58 419.71 791.79 408.18
  Q 793.37 399.87 794.00 395.00
  C 794.54 390.86 794.08 387.47 789.42 386.28
  Q 783.27 384.72 777.56 386.24
  C 760.72 390.73 761.94 405.09 765.19 418.81
  Z"
/>
<path fill="#bb5f56" d="
  M 765.19 418.81
  C 761.94 405.09 760.72 390.73 777.56 386.24
  Q 783.27 384.72 789.42 386.28
  C 794.08 387.47 794.54 390.86 794.00 395.00
  Q 793.37 399.87 791.79 408.18
  C 789.58 419.71 788.58 431.59 786.18 443.24
  C 784.08 453.44 772.01 453.15 769.65 443.29
  Q 768.35 437.83 765.46 423.37
  C 765.15 421.85 765.47 419.99 765.19 418.81
  Z"
/>
<path fill="#f7efda" d="
  M 765.47 445.88
  Q 766.13 452.34 768.40 458.82
  Q 768.58 459.35 769.15 459.31
  C 776.03 458.78 786.48 456.54 790.29 450.25
  Q 792.00 450.71 793.76 450.22
  Q 794.28 450.08 794.64 450.47
  Q 796.07 452.00 796.99 452.08
  C 841.12 455.65 879.22 463.32 923.50 474.43
  Q 923.98 474.56 924.39 474.84
  Q 925.41 475.57 926.71 475.00
  C 927.58 508.30 927.17 541.45 926.96 574.74
  Q 926.42 660.43 920.91 729.19
  C 919.76 743.52 908.17 754.70 896.74 761.92
  Q 888.32 767.24 886.57 768.49
  Q 854.33 791.47 820.42 811.90
  C 738.52 861.24 655.65 908.93 570.83 953.10
  C 542.51 967.86 518.93 982.84 486.19 966.55
  Q 466.50 956.75 461.09 953.89
  Q 309.89 874.04 165.41 782.59
  Q 142.28 767.95 120.52 751.35
  C 113.09 745.69 109.46 737.90 107.99 728.75
  Q 105.37 712.45 104.04 702.00
  Q 105.76 701.57 105.83 699.87
  Q 105.85 699.37 106.29 699.12
  C 119.16 691.75 127.39 682.99 138.31 674.60
  Q 168.53 651.35 198.29 627.50
  C 211.07 646.70 231.18 659.49 254.12 661.50
  C 289.18 664.58 321.17 639.27 341.29 613.30
  Q 342.15 612.18 342.68 610.86
  Q 342.86 610.39 342.72 609.91
  C 341.99 607.46 338.07 601.48 335.00 604.23
  C 324.09 613.99 311.99 626.62 299.26 632.74
  C 272.20 645.78 245.08 633.37 232.59 607.52
  Q 237.31 602.72 239.45 601.20
  C 267.65 581.17 300.93 564.38 329.87 548.24
  Q 349.91 537.06 371.28 528.60
  Q 371.72 528.43 372.09 528.74
  Q 373.13 529.61 374.71 529.00
  Q 375.25 587.65 374.67 646.30
  C 374.65 649.21 375.09 652.25 375.36 655.24
  C 376.40 666.87 388.71 661.26 395.15 659.38
  C 410.13 655.02 415.15 652.46 416.84 635.91
  C 420.12 603.84 427.33 570.40 440.48 542.00
  Q 444.90 532.48 455.25 525.71
  Q 459.01 524.01 462.75 525.71
  Q 466.62 529.77 466.57 535.25
  Q 466.21 575.78 467.02 626.50
  C 467.24 640.90 471.96 653.82 486.66 658.48
  C 504.71 664.21 524.25 654.21 534.65 639.15
  Q 537.72 634.71 537.53 632.50
  C 537.17 628.30 532.86 624.09 529.15 628.71
  C 526.13 632.48 521.68 636.46 516.76 636.58
  C 511.44 636.72 507.25 632.95 507.25 627.47
  Q 507.29 573.60 506.91 519.75
  C 506.81 506.19 504.01 494.34 491.25 487.29
  C 492.61 487.48 492.07 484.21 494.07 483.35
  C 518.45 472.92 545.96 467.00 572.26 462.55
  C 615.22 455.28 657.53 449.39 701.19 448.62
  Q 714.50 448.38 753.19 448.50
  Q 757.68 448.51 762.22 445.86
  Q 762.71 445.57 763.22 445.82
  Q 764.63 446.49 765.47 445.88
  Z
  M 660.52 623.90
  Q 663.64 628.43 662.75 633.75
  Q 662.55 634.95 663.88 636.82
  C 668.81 648.76 674.68 658.14 688.50 659.48
  Q 697.49 660.35 703.72 658.23
  C 713.47 654.90 728.79 645.26 732.66 634.29
  C 733.93 630.69 731.57 627.27 728.47 625.84
  Q 727.42 625.36 726.62 626.20
  C 723.15 629.87 718.37 635.68 713.18 636.34
  C 706.60 637.19 702.21 631.92 702.21 625.51
  Q 702.23 588.53 702.27 551.55
  C 702.27 548.75 702.72 545.36 702.00 541.93
  C 700.63 535.38 693.69 539.88 690.47 541.29
  C 681.64 545.17 664.07 547.31 663.22 559.49
  C 661.56 583.18 661.87 620.29 637.78 633.56
  C 620.87 642.88 603.81 630.20 597.56 614.43
  Q 580.36 571.05 605.25 531.04
  C 613.33 521.76 621.27 514.20 633.75 511.46
  C 645.16 509.21 653.45 514.95 661.45 522.07
  C 666.03 526.14 667.50 533.60 676.10 529.23
  Q 684.62 524.91 693.62 521.74
  C 698.56 520.01 702.84 517.39 698.42 511.82
  C 686.75 497.09 668.97 490.27 649.75 489.56
  C 623.70 488.59 600.55 497.90 583.77 517.53
  C 556.47 549.43 543.23 592.20 562.84 631.27
  Q 567.11 639.77 572.24 645.49
  C 594.97 670.85 633.26 664.83 651.67 638.16
  Q 655.23 632.99 660.52 623.90
  Z
  M 805.41 635.58
  Q 800.18 633.35 800.04 626.23
  Q 799.51 599.35 799.77 564.44
  C 799.94 542.45 799.63 520.49 800.02 498.50
  C 800.08 495.18 799.89 489.39 794.62 491.23
  Q 779.71 496.44 764.66 501.21
  C 759.20 502.95 759.73 508.99 759.72 513.50
  Q 759.66 570.53 760.57 627.56
  C 760.70 635.36 760.65 640.66 764.01 646.20
  C 770.70 657.25 782.37 660.60 794.81 659.51
  C 808.10 658.35 819.92 650.10 827.31 639.15
  C 830.70 634.13 832.58 628.92 825.07 626.44
  A 1.56 1.54 25.0 0 0 823.26 627.09
  C 819.70 632.85 812.34 638.53 805.41 635.58
  Z"
/>
<path fill="#9d4e46" d="
  M 254.97 510.49
  Q 252.61 509.71 253.59 507.20
  A 2.14 2.13 3.0 0 1 255.05 505.89
  C 271.62 501.44 283.85 506.69 296.68 517.05
  C 308.12 526.30 312.13 519.98 322.03 513.84
  Q 322.45 513.58 322.60 513.11
  C 327.79 497.49 292.11 492.97 283.31 492.65
  C 268.11 492.10 252.35 496.74 238.59 503.38
  C 234.55 505.33 231.13 506.61 227.70 509.68
  C 214.82 521.24 201.61 536.98 196.98 553.98
  Q 191.36 574.60 193.28 595.81
  C 193.67 600.20 195.20 604.56 196.22 609.03
  C 203.28 640.13 229.07 655.50 259.50 656.46
  Q 281.88 657.17 300.01 645.21
  C 302.34 643.67 303.40 641.80 302.44 639.14
  Q 302.26 638.65 301.75 638.55
  Q 298.46 637.97 296.42 638.60
  C 242.63 655.08 216.27 603.06 216.48 558.92
  C 216.53 547.31 221.83 536.97 227.92 527.13
  C 229.64 524.35 237.85 513.11 242.38 512.46
  Q 242.98 512.38 243.31 512.89
  L 244.79 515.25
  C 217.57 539.89 214.70 576.41 232.59 607.52
  C 245.08 633.37 272.20 645.78 299.26 632.74
  C 311.99 626.62 324.09 613.99 335.00 604.23
  C 338.07 601.48 341.99 607.46 342.72 609.91
  Q 342.86 610.39 342.68 610.86
  Q 342.15 612.18 341.29 613.30
  C 321.17 639.27 289.18 664.58 254.12 661.50
  C 231.18 659.49 211.07 646.70 198.29 627.50
  C 179.80 589.72 185.71 550.60 212.34 518.59
  C 218.15 511.61 225.92 506.72 233.45 501.81
  C 262.50 482.86 301.85 482.85 329.19 504.79
  Q 331.72 506.82 332.50 510.28
  Q 332.61 510.76 332.38 511.20
  Q 330.69 514.52 328.18 515.93
  C 322.74 518.98 317.44 521.92 312.21 525.34
  Q 303.56 530.99 296.57 522.64
  C 285.95 509.94 270.66 507.16 254.97 510.49
  Z"
/>
<path fill="#9d4e46" d="
  M 633.75 511.46
  Q 634.32 508.74 631.79 508.08
  Q 630.89 507.85 631.61 507.25
  Q 632.13 506.83 633.26 506.76
  C 644.65 506.10 652.29 509.16 660.03 516.81
  C 666.34 523.04 683.86 524.38 690.25 517.49
  Q 690.59 517.12 690.66 516.63
  C 692.56 502.69 672.85 498.50 662.97 496.38
  Q 626.81 488.62 599.28 509.42
  C 566.09 534.51 550.97 582.19 563.72 621.92
  C 570.88 644.24 589.89 657.87 613.57 656.38
  Q 626.52 655.56 635.83 648.20
  C 637.97 646.50 638.96 643.99 637.20 641.67
  A 2.49 2.49 0.0 0 0 635.17 640.70
  C 629.34 640.87 623.00 641.55 617.68 640.21
  C 604.13 636.80 596.66 623.45 591.92 611.03
  C 581.85 584.68 584.96 554.90 600.89 531.40
  Q 601.53 530.44 603.07 529.80
  Q 603.55 529.60 603.87 530.01
  Q 604.44 530.77 605.25 531.04
  Q 580.36 571.05 597.56 614.43
  C 603.81 630.20 620.87 642.88 637.78 633.56
  C 661.87 620.29 661.56 583.18 663.22 559.49
  C 664.07 547.31 681.64 545.17 690.47 541.29
  C 693.69 539.88 700.63 535.38 702.00 541.93
  C 702.72 545.36 702.27 548.75 702.27 551.55
  Q 702.23 588.53 702.21 625.51
  C 702.21 631.92 706.60 637.19 713.18 636.34
  C 718.37 635.68 723.15 629.87 726.62 626.20
  Q 727.42 625.36 728.47 625.84
  C 731.57 627.27 733.93 630.69 732.66 634.29
  C 728.79 645.26 713.47 654.90 703.72 658.23
  Q 697.49 660.35 688.50 659.48
  C 674.68 658.14 668.81 648.76 663.88 636.82
  Q 666.53 635.56 666.32 632.45
  A 0.52 0.52 0.0 0 1 667.34 632.25
  C 671.24 644.01 679.31 653.73 692.14 655.67
  C 698.64 656.65 711.84 653.04 713.39 645.32
  Q 713.50 644.79 713.10 644.41
  C 711.85 643.26 710.54 641.84 708.95 641.07
  C 699.39 636.42 697.66 628.40 697.57 618.50
  Q 697.31 589.91 697.19 561.32
  C 697.11 542.34 686.31 544.93 673.72 551.69
  C 665.93 555.87 667.94 564.65 667.13 572.12
  C 666.38 578.96 666.20 587.80 664.26 594.25
  Q 659.46 610.24 660.52 623.90
  Q 655.23 632.99 651.67 638.16
  C 633.26 664.83 594.97 670.85 572.24 645.49
  Q 567.11 639.77 562.84 631.27
  C 543.23 592.20 556.47 549.43 583.77 517.53
  C 600.55 497.90 623.70 488.59 649.75 489.56
  C 668.97 490.27 686.75 497.09 698.42 511.82
  C 702.84 517.39 698.56 520.01 693.62 521.74
  Q 684.62 524.91 676.10 529.23
  C 667.50 533.60 666.03 526.14 661.45 522.07
  C 653.45 514.95 645.16 509.21 633.75 511.46
  Z"
/>
<path fill="#9d4e46" d="
  M 805.41 635.58
  C 812.34 638.53 819.70 632.85 823.26 627.09
  A 1.56 1.54 25.0 0 1 825.07 626.44
  C 832.58 628.92 830.70 634.13 827.31 639.15
  C 819.92 650.10 808.10 658.35 794.81 659.51
  C 782.37 660.60 770.70 657.25 764.01 646.20
  C 760.65 640.66 760.70 635.36 760.57 627.56
  Q 759.66 570.53 759.72 513.50
  C 759.73 508.99 759.20 502.95 764.66 501.21
  Q 779.71 496.44 794.62 491.23
  C 799.89 489.39 800.08 495.18 800.02 498.50
  C 799.63 520.49 799.94 542.45 799.77 564.44
  Q 799.51 599.35 800.04 626.23
  Q 800.18 633.35 805.41 635.58
  Z
  M 807.94 642.04
  C 796.89 634.89 795.13 629.30 795.17 616.00
  Q 795.31 563.43 794.95 510.86
  Q 794.91 505.12 794.16 503.33
  C 790.88 495.47 775.11 500.19 770.73 504.83
  C 766.51 509.31 765.84 515.98 765.81 522.00
  Q 765.54 573.41 765.51 624.82
  Q 765.51 629.79 766.03 633.03
  C 769.49 654.78 790.90 660.87 807.97 650.24
  C 811.97 647.75 811.75 644.50 807.94 642.04
  Z"
/>
<path fill="#bb5f56" d="
  M 462.75 525.71
  Q 459.01 524.01 455.25 525.71
  Q 456.00 524.54 455.37 523.77
  Q 455.02 523.34 454.47 523.41
  C 451.46 523.74 443.94 525.28 443.84 520.37
  Q 443.74 515.46 447.52 511.77
  C 458.20 501.36 465.57 491.42 481.06 492.43
  C 495.24 493.35 500.94 503.61 501.80 516.45
  C 502.48 526.53 503.75 539.93 502.54 552.57
  Q 502.08 557.36 502.08 557.84
  Q 501.84 584.57 502.31 624.25
  C 502.43 634.50 507.74 639.01 516.33 643.12
  C 520.78 645.25 515.50 650.23 513.33 651.52
  Q 498.27 660.46 482.92 650.60
  C 474.09 644.93 472.88 638.66 472.83 627.86
  Q 472.67 592.49 472.77 557.14
  C 472.80 546.68 472.17 534.94 467.92 525.36
  Q 467.71 524.88 467.25 524.64
  Q 464.68 523.30 462.75 525.71
  Z"
/>
<path fill="#bb5f56" d="
  M 254.97 510.49
  L 244.79 515.25
  L 243.31 512.89
  Q 242.98 512.38 242.38 512.46
  C 237.85 513.11 229.64 524.35 227.92 527.13
  C 221.83 536.97 216.53 547.31 216.48 558.92
  C 216.27 603.06 242.63 655.08 296.42 638.60
  Q 298.46 637.97 301.75 638.55
  Q 302.26 638.65 302.44 639.14
  C 303.40 641.80 302.34 643.67 300.01 645.21
  Q 281.88 657.17 259.50 656.46
  C 229.07 655.50 203.28 640.13 196.22 609.03
  C 195.20 604.56 193.67 600.20 193.28 595.81
  Q 191.36 574.60 196.98 553.98
  C 201.61 536.98 214.82 521.24 227.70 509.68
  C 231.13 506.61 234.55 505.33 238.59 503.38
  C 252.35 496.74 268.11 492.10 283.31 492.65
  C 292.11 492.97 327.79 497.49 322.60 513.11
  Q 322.45 513.58 322.03 513.84
  C 312.13 519.98 308.12 526.30 296.68 517.05
  C 283.85 506.69 271.62 501.44 255.05 505.89
  A 2.14 2.13 3.0 0 0 253.59 507.20
  Q 252.61 509.71 254.97 510.49
  Z"
/>
<path fill="#bb5f56" d="
  M 633.75 511.46
  C 621.27 514.20 613.33 521.76 605.25 531.04
  Q 604.44 530.77 603.87 530.01
  Q 603.55 529.60 603.07 529.80
  Q 601.53 530.44 600.89 531.40
  C 584.96 554.90 581.85 584.68 591.92 611.03
  C 596.66 623.45 604.13 636.80 617.68 640.21
  C 623.00 641.55 629.34 640.87 635.17 640.70
  A 2.49 2.49 0.0 0 1 637.20 641.67
  C 638.96 643.99 637.97 646.50 635.83 648.20
  Q 626.52 655.56 613.57 656.38
  C 589.89 657.87 570.88 644.24 563.72 621.92
  C 550.97 582.19 566.09 534.51 599.28 509.42
  Q 626.81 488.62 662.97 496.38
  C 672.85 498.50 692.56 502.69 690.66 516.63
  Q 690.59 517.12 690.25 517.49
  C 683.86 524.38 666.34 523.04 660.03 516.81
  C 652.29 509.16 644.65 506.10 633.26 506.76
  Q 632.13 506.83 631.61 507.25
  Q 630.89 507.85 631.79 508.08
  Q 634.32 508.74 633.75 511.46
  Z"
/>
<path fill="#bb5f56" d="
  M 795.17 616.00
  C 795.13 629.30 796.89 634.89 807.94 642.04
  C 811.75 644.50 811.97 647.75 807.97 650.24
  C 790.90 660.87 769.49 654.78 766.03 633.03
  Q 765.51 629.79 765.51 624.82
  Q 765.54 573.41 765.81 522.00
  C 765.84 515.98 766.51 509.31 770.73 504.83
  C 775.11 500.19 790.88 495.47 794.16 503.33
  Q 794.91 505.12 794.95 510.86
  Q 795.31 563.43 795.17 616.00
  Z"
/>
<path fill="#f7efda" d="
  M 448.00 502.29
  Q 435.49 520.18 427.95 536.94
  Q 422.22 549.67 418.62 566.29
  Q 416.58 567.56 416.09 569.21
  A 0.43 0.43 0.0 0 1 415.25 569.17
  L 414.21 563.50
  L 414.54 506.00
  L 418.29 506.28
  Q 418.80 506.31 419.27 506.15
  Q 428.08 503.11 436.92 500.44
  Q 443.40 498.48 448.00 502.29
  Z"
/>
<path fill="#bb5f56" d="
  M 663.88 636.82
  Q 662.55 634.95 662.75 633.75
  Q 663.64 628.43 660.52 623.90
  Q 659.46 610.24 664.26 594.25
  C 666.20 587.80 666.38 578.96 667.13 572.12
  C 667.94 564.65 665.93 555.87 673.72 551.69
  C 686.31 544.93 697.11 542.34 697.19 561.32
  Q 697.31 589.91 697.57 618.50
  C 697.66 628.40 699.39 636.42 708.95 641.07
  C 710.54 641.84 711.85 643.26 713.10 644.41
  Q 713.50 644.79 713.39 645.32
  C 711.84 653.04 698.64 656.65 692.14 655.67
  C 679.31 653.73 671.24 644.01 667.34 632.25
  A 0.52 0.52 0.0 0 0 666.32 632.45
  Q 666.53 635.56 663.88 636.82
  Z"
/>
</svg>
