<?xml version="1.0" encoding="UTF-8" standalone="no"?>
<!DOCTYPE svg PUBLIC "-//W3C//DTD SVG 1.1//EN" "http://www.w3.org/Graphics/SVG/1.1/DTD/svg11.dtd">
<svg xmlns="http://www.w3.org/2000/svg" version="1.1" viewBox="0.00 0.00 150.00 150.00">
<g stroke-width="2.00" fill="none" stroke-linecap="butt">
<path stroke="#c6b3a4" vector-effect="non-scaling-stroke" d="
  M 123.57 41.93
  C 110.94 33.98 93.16 23.52 79.10 16.20
  C 76.31 14.76 73.56 14.47 70.95 15.96
  Q 59.23 22.61 26.25 42.05
  Q 21.75 44.70 21.75 49.99
  Q 21.73 75.11 21.83 100.26
  Q 21.85 105.43 26.05 107.96
  Q 44.33 118.97 68.99 132.76
  C 75.23 136.25 77.65 134.61 83.19 131.45
  Q 102.94 120.19 122.56 108.74
  C 126.09 106.68 127.96 104.77 127.97 100.75
  Q 128.02 75.99 127.98 51.21
  C 127.97 46.40 127.51 44.41 123.57 41.93"
/>
<path stroke="#c6b3a4" vector-effect="non-scaling-stroke" d="
  M 86.85 23.28
  C 84.24 21.79 75.80 15.77 72.77 17.54
  Q 50.57 30.48 28.28 43.28
  C 25.43 44.92 23.96 46.51 23.96 49.75
  Q 23.96 74.20 24.02 98.67
  C 24.03 102.70 24.53 104.61 27.93 106.58
  Q 49.90 119.28 71.88 131.95
  Q 75.00 133.74 77.56 132.31
  Q 87.24 126.92 122.18 106.40
  C 124.67 104.94 125.69 103.28 125.70 100.50
  Q 125.77 75.22 125.73 49.94
  C 125.72 47.26 125.31 45.53 123.05 44.21
  Q 105.01 33.64 86.85 23.28"
/>
<path stroke="#c6b3a4" vector-effect="non-scaling-stroke" d="
  M 75.8525 45.3054
  A 3.33 1.06 78.7 0 0 76.2395 41.8323
  A 3.33 1.06 78.7 0 0 74.5475 38.7746
  A 3.33 1.06 78.7 0 0 74.1605 42.2477
  A 3.33 1.06 78.7 0 0 75.8525 45.3054"
/>
<path stroke="#c6b3a4" vector-effect="non-scaling-stroke" d="
  M 72.7128 41.6299
  A 0.76 0.76 0.0 0 0 71.7964 41.0683
  L 71.5630 41.1243
  A 0.76 0.76 0.0 0 0 71.0015 42.0407
  L 71.7672 45.2301
  A 0.76 0.76 0.0 0 0 72.6836 45.7917
  L 72.9170 45.7357
  A 0.76 0.76 0.0 0 0 73.4785 44.8193
  L 72.7128 41.6299"
/>
<path stroke="#c6b3a4" vector-effect="non-scaling-stroke" d="
  M 80.91 47.24
  L 66.61 47.26
  A 0.25 0.25 0.0 0 0 66.36 47.51
  L 66.37 53.56
  A 10.26 5.84 89.9 0 0 72.22 63.81
  L 75.34 63.81
  A 10.26 5.84 89.9 0 0 81.17 53.54
  L 81.16 47.49
  A 0.25 0.25 0.0 0 0 80.91 47.24"
/>
<path stroke="#c6b3a4" vector-effect="non-scaling-stroke" d="
  M 65.6605 58.6777
  A 0.35 0.35 0.0 0 0 65.3118 58.3265
  L 27.2120 58.1935
  A 0.35 0.35 0.0 0 0 26.8608 58.5423
  L 26.8595 58.9223
  A 0.35 0.35 0.0 0 0 27.2082 59.2735
  L 65.3080 59.4065
  A 0.35 0.35 0.0 0 0 65.6592 59.0577
  L 65.6605 58.6777"
/>
<path stroke="#c6b3a4" vector-effect="non-scaling-stroke" d="
  M 123.1000 58.8217
  A 0.50 0.50 0.0 0 0 122.6017 58.3200
  L 82.5220 58.1801
  A 0.50 0.50 0.0 0 0 82.0202 58.6783
  L 82.0200 58.7383
  A 0.50 0.50 0.0 0 0 82.5183 59.2400
  L 122.5980 59.3799
  A 0.50 0.50 0.0 0 0 123.0998 58.8817
  L 123.1000 58.8217"
/>
<path stroke="#c6b3a4" vector-effect="non-scaling-stroke" d="
  M 118.36 78.82
  Q 118.54 81.23 120.76 81.94
  A 0.92 0.92 0.0 0 0 121.89 80.70
  L 116.22 67.57
  A 1.89 1.88 -3.5 0 0 115.05 66.54
  C 113.09 65.94 113.00 67.72 112.40 68.92
  C 110.52 72.65 105.86 81.36 108.61 81.70
  Q 109.12 81.76 109.41 81.34
  L 111.05 78.99
  Q 111.41 78.46 112.05 78.43
  L 117.64 78.18
  Q 118.31 78.16 118.36 78.82"
/>
<path stroke="#c6b3a4" vector-effect="non-scaling-stroke" d="
  M 41.21 72.35
  L 41.27 81.14
  Q 41.28 81.75 41.88 81.75
  L 43.12 81.75
  Q 43.73 81.75 43.74 81.13
  L 43.78 67.84
  Q 43.78 67.40 43.43 67.13
  C 40.74 65.03 38.22 71.26 36.88 73.00
  Q 36.53 73.46 36.14 73.03
  C 34.38 71.04 32.45 65.81 29.37 66.99
  Q 29.00 67.14 29.00 67.54
  L 29.00 81.43
  Q 29.00 82.12 29.68 82.03
  L 31.11 81.87
  Q 31.75 81.79 31.75 81.15
  L 31.75 72.86
  A 0.44 0.43 -61.5 0 1 32.55 72.62
  L 35.87 77.78
  Q 36.29 78.43 36.73 77.80
  L 40.66 72.18
  Q 41.20 71.42 41.21 72.35"
/>
<path stroke="#c6b3a4" vector-effect="non-scaling-stroke" d="
  M 64.96 74.41
  A 7.57 7.57 0.0 0 0 57.39 66.84
  A 7.57 7.57 0.0 0 0 49.82 74.41
  A 7.57 7.57 0.0 0 0 57.39 81.98
  A 7.57 7.57 0.0 0 0 64.96 74.41"
/>
<path stroke="#c6b3a4" vector-effect="non-scaling-stroke" d="
  M 98.38 75.61
  A 0.60 0.60 0.0 0 1 99.00 76.21
  L 99.00 81.15
  A 0.60 0.60 0.0 0 0 99.60 81.75
  L 101.15 81.75
  A 0.60 0.60 0.0 0 0 101.75 81.15
  L 101.75 67.56
  A 0.60 0.60 0.0 0 0 101.25 66.97
  L 99.71 66.71
  A 0.60 0.60 0.0 0 0 99.01 67.30
  L 98.99 72.38
  A 0.60 0.60 0.0 0 1 98.39 72.98
  L 92.60 72.93
  A 0.60 0.60 0.0 0 1 92.00 72.33
  L 92.00 67.49
  A 0.60 0.60 0.0 0 0 91.46 66.89
  L 89.91 66.73
  A 0.60 0.60 0.0 0 0 89.25 67.33
  L 89.25 81.14
  A 0.60 0.60 0.0 0 0 89.83 81.73
  L 91.38 81.77
  A 0.60 0.60 0.0 0 0 91.99 81.18
  L 92.01 76.41
  A 0.60 0.60 0.0 0 1 92.59 75.81
  L 98.38 75.61"
/>
<path stroke="#c6b3a4" vector-effect="non-scaling-stroke" d="
  M 74.18 71.39
  C 76.88 66.33 82.80 73.12 83.53 69.06
  Q 83.61 68.63 83.23 68.42
  C 76.03 64.60 67.51 69.65 71.45 78.01
  C 73.59 82.55 79.36 83.21 83.53 80.22
  Q 83.97 79.91 83.63 79.49
  L 82.65 78.27
  Q 82.19 77.70 81.65 78.19
  C 76.17 83.22 71.60 76.21 74.18 71.39"
/>
<path stroke="#ab907a" vector-effect="non-scaling-stroke" d="
  M 122.98 86.73
  A 0.72 0.72 0.0 0 0 122.26 86.01
  L 27.76 86.01
  A 0.72 0.72 0.0 0 0 27.04 86.73
  L 27.04 87.25
  A 0.72 0.72 0.0 0 0 27.76 87.97
  L 122.26 87.97
  A 0.72 0.72 0.0 0 0 122.98 87.25
  L 122.98 86.73"
/>
<path stroke="#c6b3a4" vector-effect="non-scaling-stroke" d="
  M 78.14 49.34
  L 69.58 49.32
  A 1.30 1.30 0.0 0 0 68.28 50.62
  L 68.28 51.42
  A 10.36 4.64 -89.9 0 0 72.90 61.79
  L 74.78 61.79
  A 10.36 4.64 -89.9 0 0 79.44 51.44
  L 79.44 50.64
  A 1.30 1.30 0.0 0 0 78.14 49.34"
/>
<path stroke="#c6b3a4" vector-effect="non-scaling-stroke" d="
  M 77.17 55.37
  L 70.32 56.89
  A 0.67 0.67 0.0 0 0 69.81 57.69
  L 69.82 57.75
  A 4.04 4.02 -12.5 0 0 74.64 60.80
  L 74.91 60.74
  A 4.04 4.02 -12.5 0 0 77.99 55.94
  L 77.97 55.88
  A 0.67 0.67 0.0 0 0 77.17 55.37"
/>
<path stroke="#c6b3a4" vector-effect="non-scaling-stroke" d="
  M 112.04 75.26
  A 0.44 0.44 0.0 0 0 112.41 75.90
  L 116.26 76.11
  A 0.44 0.44 0.0 0 0 116.70 75.52
  L 115.02 70.97
  A 0.44 0.44 0.0 0 0 114.22 70.93
  L 112.04 75.26"
/>
<path stroke="#c6b3a4" vector-effect="non-scaling-stroke" d="
  M 62.44 74.34
  A 5.08 5.08 0.0 0 0 57.36 69.26
  A 5.08 5.08 0.0 0 0 52.28 74.34
  A 5.08 5.08 0.0 0 0 57.36 79.42
  A 5.08 5.08 0.0 0 0 62.44 74.34"
/>
</g>
<path fill="#8d6748" d="
  M 131.06 113.20
  C 114.19 123.35 98.74 132.24 79.94 142.96
  Q 75.07 145.73 70.38 143.07
  Q 43.88 128.05 17.54 112.73
  C 14.74 111.10 13.49 107.79 13.49 104.36
  Q 13.51 75.98 13.49 47.63
  C 13.49 42.84 14.52 38.87 18.58 36.57
  Q 45.33 21.44 71.82 5.83
  C 76.00 3.37 83.96 9.21 87.68 11.36
  Q 109.77 24.12 131.80 36.98
  Q 136.20 39.55 136.25 44.32
  Q 136.55 74.78 136.48 105.25
  C 136.47 109.33 134.58 111.08 131.06 113.20
  Z
  M 123.57 41.93
  C 110.94 33.98 93.16 23.52 79.10 16.20
  C 76.31 14.76 73.56 14.47 70.95 15.96
  Q 59.23 22.61 26.25 42.05
  Q 21.75 44.70 21.75 49.99
  Q 21.73 75.11 21.83 100.26
  Q 21.85 105.43 26.05 107.96
  Q 44.33 118.97 68.99 132.76
  C 75.23 136.25 77.65 134.61 83.19 131.45
  Q 102.94 120.19 122.56 108.74
  C 126.09 106.68 127.96 104.77 127.97 100.75
  Q 128.02 75.99 127.98 51.21
  C 127.97 46.40 127.51 44.41 123.57 41.93
  Z"
/>
<path fill="#ffffff" d="
  M 79.10 16.20
  C 93.16 23.52 110.94 33.98 123.57 41.93
  C 127.51 44.41 127.97 46.40 127.98 51.21
  Q 128.02 75.99 127.97 100.75
  C 127.96 104.77 126.09 106.68 122.56 108.74
  Q 102.94 120.19 83.19 131.45
  C 77.65 134.61 75.23 136.25 68.99 132.76
  Q 44.33 118.97 26.05 107.96
  Q 21.85 105.43 21.83 100.26
  Q 21.73 75.11 21.75 49.99
  Q 21.75 44.70 26.25 42.05
  Q 59.23 22.61 70.95 15.96
  C 73.56 14.47 76.31 14.76 79.10 16.20
  Z
  M 86.85 23.28
  C 84.24 21.79 75.80 15.77 72.77 17.54
  Q 50.57 30.48 28.28 43.28
  C 25.43 44.92 23.96 46.51 23.96 49.75
  Q 23.96 74.20 24.02 98.67
  C 24.03 102.70 24.53 104.61 27.93 106.58
  Q 49.90 119.28 71.88 131.95
  Q 75.00 133.74 77.56 132.31
  Q 87.24 126.92 122.18 106.40
  C 124.67 104.94 125.69 103.28 125.70 100.50
  Q 125.77 75.22 125.73 49.94
  C 125.72 47.26 125.31 45.53 123.05 44.21
  Q 105.01 33.64 86.85 23.28
  Z"
/>
<path fill="#8d6748" d="
  M 86.85 23.28
  Q 105.01 33.64 123.05 44.21
  C 125.31 45.53 125.72 47.26 125.73 49.94
  Q 125.77 75.22 125.70 100.50
  C 125.69 103.28 124.67 104.94 122.18 106.40
  Q 87.24 126.92 77.56 132.31
  Q 75.00 133.74 71.88 131.95
  Q 49.90 119.28 27.93 106.58
  C 24.53 104.61 24.03 102.70 24.02 98.67
  Q 23.96 74.20 23.96 49.75
  C 23.96 46.51 25.43 44.92 28.28 43.28
  Q 50.57 30.48 72.77 17.54
  C 75.80 15.77 84.24 21.79 86.85 23.28
  Z
  M 75.8525 45.3054
  A 3.33 1.06 78.7 0 0 76.2395 41.8323
  A 3.33 1.06 78.7 0 0 74.5475 38.7746
  A 3.33 1.06 78.7 0 0 74.1605 42.2477
  A 3.33 1.06 78.7 0 0 75.8525 45.3054
  Z
  M 72.7128 41.6299
  A 0.76 0.76 0.0 0 0 71.7964 41.0683
  L 71.5630 41.1243
  A 0.76 0.76 0.0 0 0 71.0015 42.0407
  L 71.7672 45.2301
  A 0.76 0.76 0.0 0 0 72.6836 45.7917
  L 72.9170 45.7357
  A 0.76 0.76 0.0 0 0 73.4785 44.8193
  L 72.7128 41.6299
  Z
  M 80.91 47.24
  L 66.61 47.26
  A 0.25 0.25 0.0 0 0 66.36 47.51
  L 66.37 53.56
  A 10.26 5.84 89.9 0 0 72.22 63.81
  L 75.34 63.81
  A 10.26 5.84 89.9 0 0 81.17 53.54
  L 81.16 47.49
  A 0.25 0.25 0.0 0 0 80.91 47.24
  Z
  M 65.6605 58.6777
  A 0.35 0.35 0.0 0 0 65.3118 58.3265
  L 27.2120 58.1935
  A 0.35 0.35 0.0 0 0 26.8608 58.5423
  L 26.8595 58.9223
  A 0.35 0.35 0.0 0 0 27.2082 59.2735
  L 65.3080 59.4065
  A 0.35 0.35 0.0 0 0 65.6592 59.0577
  L 65.6605 58.6777
  Z
  M 123.1000 58.8217
  A 0.50 0.50 0.0 0 0 122.6017 58.3200
  L 82.5220 58.1801
  A 0.50 0.50 0.0 0 0 82.0202 58.6783
  L 82.0200 58.7383
  A 0.50 0.50 0.0 0 0 82.5183 59.2400
  L 122.5980 59.3799
  A 0.50 0.50 0.0 0 0 123.0998 58.8817
  L 123.1000 58.8217
  Z
  M 118.36 78.82
  Q 118.54 81.23 120.76 81.94
  A 0.92 0.92 0.0 0 0 121.89 80.70
  L 116.22 67.57
  A 1.89 1.88 -3.5 0 0 115.05 66.54
  C 113.09 65.94 113.00 67.72 112.40 68.92
  C 110.52 72.65 105.86 81.36 108.61 81.70
  Q 109.12 81.76 109.41 81.34
  L 111.05 78.99
  Q 111.41 78.46 112.05 78.43
  L 117.64 78.18
  Q 118.31 78.16 118.36 78.82
  Z
  M 41.21 72.35
  L 41.27 81.14
  Q 41.28 81.75 41.88 81.75
  L 43.12 81.75
  Q 43.73 81.75 43.74 81.13
  L 43.78 67.84
  Q 43.78 67.40 43.43 67.13
  C 40.74 65.03 38.22 71.26 36.88 73.00
  Q 36.53 73.46 36.14 73.03
  C 34.38 71.04 32.45 65.81 29.37 66.99
  Q 29.00 67.14 29.00 67.54
  L 29.00 81.43
  Q 29.00 82.12 29.68 82.03
  L 31.11 81.87
  Q 31.75 81.79 31.75 81.15
  L 31.75 72.86
  A 0.44 0.43 -61.5 0 1 32.55 72.62
  L 35.87 77.78
  Q 36.29 78.43 36.73 77.80
  L 40.66 72.18
  Q 41.20 71.42 41.21 72.35
  Z
  M 64.96 74.41
  A 7.57 7.57 0.0 0 0 57.39 66.84
  A 7.57 7.57 0.0 0 0 49.82 74.41
  A 7.57 7.57 0.0 0 0 57.39 81.98
  A 7.57 7.57 0.0 0 0 64.96 74.41
  Z
  M 98.38 75.61
  A 0.60 0.60 0.0 0 1 99.00 76.21
  L 99.00 81.15
  A 0.60 0.60 0.0 0 0 99.60 81.75
  L 101.15 81.75
  A 0.60 0.60 0.0 0 0 101.75 81.15
  L 101.75 67.56
  A 0.60 0.60 0.0 0 0 101.25 66.97
  L 99.71 66.71
  A 0.60 0.60 0.0 0 0 99.01 67.30
  L 98.99 72.38
  A 0.60 0.60 0.0 0 1 98.39 72.98
  L 92.60 72.93
  A 0.60 0.60 0.0 0 1 92.00 72.33
  L 92.00 67.49
  A 0.60 0.60 0.0 0 0 91.46 66.89
  L 89.91 66.73
  A 0.60 0.60 0.0 0 0 89.25 67.33
  L 89.25 81.14
  A 0.60 0.60 0.0 0 0 89.83 81.73
  L 91.38 81.77
  A 0.60 0.60 0.0 0 0 91.99 81.18
  L 92.01 76.41
  A 0.60 0.60 0.0 0 1 92.59 75.81
  L 98.38 75.61
  Z
  M 74.18 71.39
  C 76.88 66.33 82.80 73.12 83.53 69.06
  Q 83.61 68.63 83.23 68.42
  C 76.03 64.60 67.51 69.65 71.45 78.01
  C 73.59 82.55 79.36 83.21 83.53 80.22
  Q 83.97 79.91 83.63 79.49
  L 82.65 78.27
  Q 82.19 77.70 81.65 78.19
  C 76.17 83.22 71.60 76.21 74.18 71.39
  Z
  M 122.98 86.73
  A 0.72 0.72 0.0 0 0 122.26 86.01
  L 27.76 86.01
  A 0.72 0.72 0.0 0 0 27.04 86.73
  L 27.04 87.25
  A 0.72 0.72 0.0 0 0 27.76 87.97
  L 122.26 87.97
  A 0.72 0.72 0.0 0 0 122.98 87.25
  L 122.98 86.73
  Z"
/>
<ellipse fill="#ffffff" cx="0.00" cy="0.00" transform="translate(75.20,42.04) rotate(78.7)" rx="3.33" ry="1.06"/>
<rect fill="#ffffff" x="-0.88" y="-2.40" transform="translate(72.24,43.43) rotate(-13.5)" width="1.76" height="4.80" rx="0.76"/>
<path fill="#ffffff" d="
  M 80.91 47.24
  A 0.25 0.25 0.0 0 1 81.16 47.49
  L 81.17 53.54
  A 10.26 5.84 89.9 0 1 75.34 63.81
  L 72.22 63.81
  A 10.26 5.84 89.9 0 1 66.37 53.56
  L 66.36 47.51
  A 0.25 0.25 0.0 0 1 66.61 47.26
  L 80.91 47.24
  Z
  M 78.14 49.34
  L 69.58 49.32
  A 1.30 1.30 0.0 0 0 68.28 50.62
  L 68.28 51.42
  A 10.36 4.64 -89.9 0 0 72.90 61.79
  L 74.78 61.79
  A 10.36 4.64 -89.9 0 0 79.44 51.44
  L 79.44 50.64
  A 1.30 1.30 0.0 0 0 78.14 49.34
  Z"
/>
<path fill="#8d6748" d="
  M 78.14 49.34
  A 1.30 1.30 0.0 0 1 79.44 50.64
  L 79.44 51.44
  A 10.36 4.64 -89.9 0 1 74.78 61.79
  L 72.90 61.79
  A 10.36 4.64 -89.9 0 1 68.28 51.42
  L 68.28 50.62
  A 1.30 1.30 0.0 0 1 69.58 49.32
  L 78.14 49.34
  Z
  M 77.17 55.37
  L 70.32 56.89
  A 0.67 0.67 0.0 0 0 69.81 57.69
  L 69.82 57.75
  A 4.04 4.02 -12.5 0 0 74.64 60.80
  L 74.91 60.74
  A 4.04 4.02 -12.5 0 0 77.99 55.94
  L 77.97 55.88
  A 0.67 0.67 0.0 0 0 77.17 55.37
  Z"
/>
<path fill="#ffffff" d="
  M 77.17 55.37
  A 0.67 0.67 0.0 0 1 77.97 55.88
  L 77.99 55.94
  A 4.04 4.02 -12.5 0 1 74.91 60.74
  L 74.64 60.80
  A 4.04 4.02 -12.5 0 1 69.82 57.75
  L 69.81 57.69
  A 0.67 0.67 0.0 0 1 70.32 56.89
  L 77.17 55.37
  Z"
/>
<rect fill="#ffffff" x="-19.40" y="-0.54" transform="translate(46.26,58.80) rotate(0.2)" width="38.80" height="1.08" rx="0.35"/>
<rect fill="#ffffff" x="-20.54" y="-0.53" transform="translate(102.56,58.78) rotate(0.2)" width="41.08" height="1.06" rx="0.50"/>
<path fill="#ffffff" d="
  M 117.64 78.18
  L 112.05 78.43
  Q 111.41 78.46 111.05 78.99
  L 109.41 81.34
  Q 109.12 81.76 108.61 81.70
  C 105.86 81.36 110.52 72.65 112.40 68.92
  C 113.00 67.72 113.09 65.94 115.05 66.54
  A 1.89 1.88 -3.5 0 1 116.22 67.57
  L 121.89 80.70
  A 0.92 0.92 0.0 0 1 120.76 81.94
  Q 118.54 81.23 118.36 78.82
  Q 118.31 78.16 117.64 78.18
  Z
  M 112.04 75.26
  A 0.44 0.44 0.0 0 0 112.41 75.90
  L 116.26 76.11
  A 0.44 0.44 0.0 0 0 116.70 75.52
  L 115.02 70.97
  A 0.44 0.44 0.0 0 0 114.22 70.93
  L 112.04 75.26
  Z"
/>
<path fill="#ffffff" d="
  M 40.66 72.18
  L 36.73 77.80
  Q 36.29 78.43 35.87 77.78
  L 32.55 72.62
  A 0.44 0.43 -61.5 0 0 31.75 72.86
  L 31.75 81.15
  Q 31.75 81.79 31.11 81.87
  L 29.68 82.03
  Q 29.00 82.12 29.00 81.43
  L 29.00 67.54
  Q 29.00 67.14 29.37 66.99
  C 32.45 65.81 34.38 71.04 36.14 73.03
  Q 36.53 73.46 36.88 73.00
  C 38.22 71.26 40.74 65.03 43.43 67.13
  Q 43.78 67.40 43.78 67.84
  L 43.74 81.13
  Q 43.73 81.75 43.12 81.75
  L 41.88 81.75
  Q 41.28 81.75 41.27 81.14
  L 41.21 72.35
  Q 41.20 71.42 40.66 72.18
  Z"
/>
<path fill="#ffffff" d="
  M 64.96 74.41
  A 7.57 7.57 0.0 0 1 57.39 81.98
  A 7.57 7.57 0.0 0 1 49.82 74.41
  A 7.57 7.57 0.0 0 1 57.39 66.84
  A 7.57 7.57 0.0 0 1 64.96 74.41
  Z
  M 62.44 74.34
  A 5.08 5.08 0.0 0 0 57.36 69.26
  A 5.08 5.08 0.0 0 0 52.28 74.34
  A 5.08 5.08 0.0 0 0 57.36 79.42
  A 5.08 5.08 0.0 0 0 62.44 74.34
  Z"
/>
<path fill="#ffffff" d="
  M 98.38 75.61
  L 92.59 75.81
  A 0.60 0.60 0.0 0 0 92.01 76.41
  L 91.99 81.18
  A 0.60 0.60 0.0 0 1 91.38 81.77
  L 89.83 81.73
  A 0.60 0.60 0.0 0 1 89.25 81.14
  L 89.25 67.33
  A 0.60 0.60 0.0 0 1 89.91 66.73
  L 91.46 66.89
  A 0.60 0.60 0.0 0 1 92.00 67.49
  L 92.00 72.33
  A 0.60 0.60 0.0 0 0 92.60 72.93
  L 98.39 72.98
  A 0.60 0.60 0.0 0 0 98.99 72.38
  L 99.01 67.30
  A 0.60 0.60 0.0 0 1 99.71 66.71
  L 101.25 66.97
  A 0.60 0.60 0.0 0 1 101.75 67.56
  L 101.75 81.15
  A 0.60 0.60 0.0 0 1 101.15 81.75
  L 99.60 81.75
  A 0.60 0.60 0.0 0 1 99.00 81.15
  L 99.00 76.21
  A 0.60 0.60 0.0 0 0 98.38 75.61
  Z"
/>
<path fill="#ffffff" d="
  M 74.18 71.39
  C 71.60 76.21 76.17 83.22 81.65 78.19
  Q 82.19 77.70 82.65 78.27
  L 83.63 79.49
  Q 83.97 79.91 83.53 80.22
  C 79.36 83.21 73.59 82.55 71.45 78.01
  C 67.51 69.65 76.03 64.60 83.23 68.42
  Q 83.61 68.63 83.53 69.06
  C 82.80 73.12 76.88 66.33 74.18 71.39
  Z"
/>
<circle fill="#8d6748" cx="57.36" cy="74.34" r="5.08"/>
<path fill="#8d6748" d="
  M 112.04 75.26
  L 114.22 70.93
  A 0.44 0.44 0.0 0 1 115.02 70.97
  L 116.70 75.52
  A 0.44 0.44 0.0 0 1 116.26 76.11
  L 112.41 75.90
  A 0.44 0.44 0.0 0 1 112.04 75.26
  Z"
/>
<rect fill="#c8b9ab" x="27.04" y="86.01" width="95.94" height="1.96" rx="0.72"/>
</svg>
