<?xml version="1.0" encoding="UTF-8" standalone="no"?>
<!DOCTYPE svg PUBLIC "-//W3C//DTD SVG 1.1//EN" "http://www.w3.org/Graphics/SVG/1.1/DTD/svg11.dtd">
<svg xmlns="http://www.w3.org/2000/svg" version="1.1" viewBox="0.00 0.00 256.00 256.00">
<g stroke-width="2.00" fill="none" stroke-linecap="butt">
<path stroke="#083359" vector-effect="non-scaling-stroke" d="
  M 123.65 17.78
  Q 144.43 47.73 165.35 77.42
  C 170.91 85.31 168.10 94.63 158.27 96.30
  A 0.53 0.53 0.0 0 0 157.94 97.15
  Q 174.41 118.07 190.76 138.95
  Q 195.69 145.23 191.49 152.06
  C 188.87 156.32 184.29 157.02 179.79 157.92
  A 0.41 0.41 0.0 0 0 179.55 158.58
  L 224.96 215.95"
/>
<path stroke="#083359" vector-effect="non-scaling-stroke" d="
  M 204.79 234.00
  Q 204.78 233.83 204.76 233.66
  Q 204.71 233.31 204.40 233.14
  Q 145.30 198.99 86.20 164.82
  C 81.28 161.97 77.69 158.75 78.31 153.07
  C 79.00 146.83 82.86 144.97 87.86 142.59
  Q 88.41 142.33 87.92 141.97
  Q 66.67 126.63 45.46 111.30
  C 38.70 106.41 39.30 96.33 46.83 92.45
  A 0.39 0.39 0.0 0 0 46.88 91.78
  L 30.38 80.16"
/>
<path stroke="#808080" vector-effect="non-scaling-stroke" d="
  M 105.97 144.43
  A 0.77 0.77 0.0 0 1 105.59 145.48
  C 99.89 147.94 92.99 150.04 87.76 153.15
  A 1.03 1.03 0.0 0 0 87.77 154.93
  Q 154.95 193.79 222.01 232.50
  C 223.25 233.21 224.21 233.23 224.49 231.58
  A 1.35 1.35 0.0 0 0 224.22 230.52
  L 164.28 154.39
  Q 163.85 153.84 164.22 153.25
  C 165.59 151.11 180.26 148.25 182.99 147.51
  A 1.61 1.61 0.0 0 0 183.82 144.95
  L 143.60 94.27
  A 2.01 2.00 61.7 0 1 144.54 91.12
  L 157.97 86.67
  A 1.56 1.56 0.0 0 0 158.76 84.29
  Q 133.71 48.60 108.36 12.56
  C 107.55 11.41 107.28 10.31 105.53 11.07
  Q 59.76 30.77 14.03 50.57
  Q 12.33 51.31 10.52 52.26
  A 0.89 0.88 -35.3 0 0 10.28 53.64
  Q 11.32 54.79 12.57 55.68
  Q 37.67 73.58 62.87 91.33
  Q 64.37 92.39 64.23 94.11
  A 1.31 1.30 -10.2 0 1 63.47 95.19
  L 50.64 101.00
  A 1.33 1.33 0.0 0 0 50.41 103.28
  Q 77.79 123.15 104.80 142.68
  C 105.36 143.08 105.68 143.84 105.97 144.43"
/>
</g>
<path fill="#000000" d="
  M 123.65 17.78
  Q 144.43 47.73 165.35 77.42
  C 170.91 85.31 168.10 94.63 158.27 96.30
  A 0.53 0.53 0.0 0 0 157.94 97.15
  Q 174.41 118.07 190.76 138.95
  Q 195.69 145.23 191.49 152.06
  C 188.87 156.32 184.29 157.02 179.79 157.92
  A 0.41 0.41 0.0 0 0 179.55 158.58
  L 224.96 215.95
  C 227.31 219.64 231.05 223.39 232.60 226.66
  C 236.90 235.73 227.39 245.88 218.24 241.00
  C 215.74 239.67 206.96 233.83 204.79 234.00
  Q 204.78 233.83 204.76 233.66
  Q 204.71 233.31 204.40 233.14
  Q 145.30 198.99 86.20 164.82
  C 81.28 161.97 77.69 158.75 78.31 153.07
  C 79.00 146.83 82.86 144.97 87.86 142.59
  Q 88.41 142.33 87.92 141.97
  Q 66.67 126.63 45.46 111.30
  C 38.70 106.41 39.30 96.33 46.83 92.45
  A 0.39 0.39 0.0 0 0 46.88 91.78
  L 30.38 80.16
  Q 18.42 71.14 6.16 62.60
  C 0.44 58.61 -1.11 50.61 4.09 45.55
  Q 5.75 43.93 10.91 41.70
  Q 56.22 22.09 101.56 2.55
  C 112.82 -2.30 118.42 10.88 123.65 17.78
  Z
  M 105.97 144.43
  A 0.77 0.77 0.0 0 1 105.59 145.48
  C 99.89 147.94 92.99 150.04 87.76 153.15
  A 1.03 1.03 0.0 0 0 87.77 154.93
  Q 154.95 193.79 222.01 232.50
  C 223.25 233.21 224.21 233.23 224.49 231.58
  A 1.35 1.35 0.0 0 0 224.22 230.52
  L 164.28 154.39
  Q 163.85 153.84 164.22 153.25
  C 165.59 151.11 180.26 148.25 182.99 147.51
  A 1.61 1.61 0.0 0 0 183.82 144.95
  L 143.60 94.27
  A 2.01 2.00 61.7 0 1 144.54 91.12
  L 157.97 86.67
  A 1.56 1.56 0.0 0 0 158.76 84.29
  Q 133.71 48.60 108.36 12.56
  C 107.55 11.41 107.28 10.31 105.53 11.07
  Q 59.76 30.77 14.03 50.57
  Q 12.33 51.31 10.52 52.26
  A 0.89 0.88 -35.3 0 0 10.28 53.64
  Q 11.32 54.79 12.57 55.68
  Q 37.67 73.58 62.87 91.33
  Q 64.37 92.39 64.23 94.11
  A 1.31 1.30 -10.2 0 1 63.47 95.19
  L 50.64 101.00
  A 1.33 1.33 0.0 0 0 50.41 103.28
  Q 77.79 123.15 104.80 142.68
  C 105.36 143.08 105.68 143.84 105.97 144.43
  Z"
/>
<path fill="#ffffff" d="
  M 105.97 144.43
  C 105.68 143.84 105.36 143.08 104.80 142.68
  Q 77.79 123.15 50.41 103.28
  A 1.33 1.33 0.0 0 1 50.64 101.00
  L 63.47 95.19
  A 1.31 1.30 -10.2 0 0 64.23 94.11
  Q 64.37 92.39 62.87 91.33
  Q 37.67 73.58 12.57 55.68
  Q 11.32 54.79 10.28 53.64
  A 0.89 0.88 -35.3 0 1 10.52 52.26
  Q 12.33 51.31 14.03 50.57
  Q 59.76 30.77 105.53 11.07
  C 107.28 10.31 107.55 11.41 108.36 12.56
  Q 133.71 48.60 158.76 84.29
  A 1.56 1.56 0.0 0 1 157.97 86.67
  L 144.54 91.12
  A 2.01 2.00 61.7 0 0 143.60 94.27
  L 183.82 144.95
  A 1.61 1.61 0.0 0 1 182.99 147.51
  C 180.26 148.25 165.59 151.11 164.22 153.25
  Q 163.85 153.84 164.28 154.39
  L 224.22 230.52
  A 1.35 1.35 0.0 0 1 224.49 231.58
  C 224.21 233.23 223.25 233.21 222.01 232.50
  Q 154.95 193.79 87.77 154.93
  A 1.03 1.03 0.0 0 1 87.76 153.15
  C 92.99 150.04 99.89 147.94 105.59 145.48
  A 0.77 0.77 0.0 0 0 105.97 144.43
  Z"
/>
<path fill="#1065b1" d="
  M 224.96 215.95
  L 179.55 158.58
  A 0.41 0.41 0.0 0 1 179.79 157.92
  C 184.29 157.02 188.87 156.32 191.49 152.06
  Q 195.69 145.23 190.76 138.95
  Q 174.41 118.07 157.94 97.15
  A 0.53 0.53 0.0 0 1 158.27 96.30
  C 168.10 94.63 170.91 85.31 165.35 77.42
  Q 144.43 47.73 123.65 17.78
  Q 150.23 14.88 174.02 23.24
  C 254.36 51.47 282.25 151.03 224.96 215.95
  Z"
/>
<path fill="#1065b1" d="
  M 30.38 80.16
  L 46.88 91.78
  A 0.39 0.39 0.0 0 1 46.83 92.45
  C 39.30 96.33 38.70 106.41 45.46 111.30
  Q 66.67 126.63 87.92 141.97
  Q 88.41 142.33 87.86 142.59
  C 82.86 144.97 79.00 146.83 78.31 153.07
  C 77.69 158.75 81.28 161.97 86.20 164.82
  Q 145.30 198.99 204.40 233.14
  Q 204.71 233.31 204.76 233.66
  Q 204.78 233.83 204.79 234.00
  Q 177.59 253.27 144.19 256.00
  L 127.19 256.00
  C 40.90 248.01 -10.24 158.08 30.38 80.16
  Z"
/>
</svg>
