<?xml version="1.0" encoding="UTF-8" standalone="no"?>
<!DOCTYPE svg PUBLIC "-//W3C//DTD SVG 1.1//EN" "http://www.w3.org/Graphics/SVG/1.1/DTD/svg11.dtd">
<svg xmlns="http://www.w3.org/2000/svg" version="1.1" viewBox="0.00 0.00 1024.00 296.00">
<path fill="#0089d6" d="
  M 99.23 93.23
  C 135.88 62.26 172.52 31.24 209.61 0.75
  Q 210.32 0.16 209.93 1.00
  L 87.85 263.10
  Q 87.67 263.50 87.23 263.50
  L 0.57 263.50
  A 0.33 0.33 0.0 0 1 0.28 263.00
  Q 47.80 180.37 95.43 97.78
  Q 96.93 95.17 99.23 93.23
  Z"
/>
<path fill="#0089d6" d="
  M 381.44 296.00
  L 92.19 296.00
  L 90.01 295.64
  Q 89.18 295.50 90.00 295.29
  C 91.56 294.88 93.24 295.05 94.64 294.80
  Q 180.82 279.60 267.23 264.25
  A 0.20 0.19 64.5 0 0 267.34 263.93
  L 175.26 154.04
  Q 174.92 153.63 175.10 153.13
  L 222.82 21.56
  A 0.33 0.33 0.0 0 1 223.41 21.51
  Q 302.63 158.35 381.43 295.34
  C 381.56 295.57 381.52 295.77 381.44 296.00
  Z"
/>
<path fill="#0089d6" d="
  M 529.49 215.77
  L 457.52 215.74
  A 0.58 0.58 0.0 0 0 456.97 216.13
  L 440.08 263.61
  A 0.58 0.58 0.0 0 1 439.53 264.00
  L 418.41 264.00
  A 0.58 0.58 0.0 0 1 417.87 263.21
  L 482.94 92.12
  A 0.58 0.58 0.0 0 1 483.48 91.75
  L 503.67 91.75
  A 0.58 0.58 0.0 0 1 504.21 92.12
  L 570.03 263.21
  A 0.58 0.58 0.0 0 1 569.49 264.00
  L 548.37 264.00
  A 0.58 0.58 0.0 0 1 547.83 263.62
  L 530.03 216.15
  A 0.58 0.58 0.0 0 0 529.49 215.77
  Z
  M 500.81 136.44
  C 497.99 128.73 495.70 121.37 493.74 113.40
  Q 493.36 111.86 493.03 113.41
  C 492.18 117.52 491.37 121.55 489.97 125.42
  Q 477.03 161.19 464.26 195.98
  Q 463.71 197.50 465.33 197.50
  L 522.94 197.50
  A 0.26 0.25 80.3 0 0 523.18 197.16
  Q 511.92 166.84 500.81 136.44
  Z"
/>
<path fill="#0089d6" d="
  M 1024.00 174.06
  L 1024.00 207.56
  L 940.37 207.52
  Q 939.76 207.52 939.76 208.12
  C 939.84 229.35 952.00 248.13 974.58 249.89
  Q 998.17 251.74 1017.49 237.24
  A 0.40 0.40 0.0 0 1 1018.13 237.55
  L 1018.30 254.66
  Q 1018.31 255.21 1017.83 255.51
  Q 998.60 267.53 974.01 266.95
  C 934.06 266.01 918.08 234.07 919.80 198.50
  C 921.26 168.32 939.81 140.78 971.78 137.85
  C 997.01 135.54 1017.03 149.21 1024.00 174.06
  Z
  M 979.02 155.06
  C 957.47 153.22 942.66 170.60 940.16 190.43
  A 0.29 0.29 0.0 0 0 940.45 190.76
  L 1005.78 190.75
  Q 1006.39 190.75 1006.39 190.14
  C 1006.58 173.06 997.65 156.65 979.02 155.06
  Z"
/>
<path fill="#0089d6" d="
  M 864.26 163.70
  C 870.26 145.16 887.39 134.69 906.81 140.18
  Q 907.25 140.31 907.25 140.77
  L 907.25 160.23
  Q 907.25 160.90 906.66 160.58
  C 893.43 153.43 877.69 157.24 870.41 170.68
  C 865.59 179.59 863.20 188.12 863.14 198.74
  Q 862.92 231.11 862.96 263.49
  Q 862.96 264.00 862.45 264.00
  L 843.86 264.00
  Q 843.22 264.00 843.22 263.36
  L 842.92 141.35
  A 0.35 0.35 0.0 0 1 843.27 141.00
  L 862.49 141.00
  A 0.43 0.43 0.0 0 1 862.92 141.43
  L 863.04 163.51
  Q 863.06 167.42 864.26 163.70
  Z"
/>
<path fill="#0089d6" d="
  M 606.99 247.21
  L 677.35 247.27
  Q 678.00 247.27 678.00 247.91
  L 678.00 263.37
  Q 678.00 264.00 677.38 264.00
  L 577.62 264.00
  Q 577.00 264.00 577.00 263.37
  L 577.00 258.39
  Q 577.00 257.85 577.32 257.42
  L 649.25 158.44
  Q 649.56 158.01 649.03 158.00
  L 584.62 157.67
  Q 584.06 157.67 584.05 157.12
  L 583.68 141.67
  Q 583.67 141.00 584.33 141.00
  L 678.03 141.00
  Q 678.62 141.00 678.69 141.58
  C 679.00 144.23 679.14 146.23 677.46 148.56
  Q 642.06 197.47 606.67 246.60
  Q 606.23 247.21 606.99 247.21
  Z"
/>
<path fill="#0089d6" d="
  M 783.11 245.22
  Q 769.79 267.05 745.93 267.08
  C 712.85 267.12 702.04 245.33 701.61 215.61
  Q 701.06 178.56 701.30 141.50
  Q 701.30 141.00 701.80 141.00
  L 720.47 141.00
  Q 720.94 141.00 720.94 141.47
  Q 721.11 177.99 721.31 214.50
  C 721.43 236.24 732.06 253.66 756.21 249.78
  C 771.84 247.27 783.28 231.73 783.25 215.84
  Q 783.18 178.98 783.34 142.09
  Q 783.35 141.50 783.94 141.50
  L 803.05 141.50
  Q 803.61 141.50 803.61 142.05
  L 803.46 263.40
  Q 803.45 264.00 802.85 264.00
  L 784.00 264.00
  Q 783.50 264.00 783.50 263.50
  L 783.50 245.33
  A 0.21 0.21 0.0 0 0 783.11 245.22
  Z"
/>
</svg>
