<?xml version="1.0" encoding="UTF-8" standalone="no"?>
<!DOCTYPE svg PUBLIC "-//W3C//DTD SVG 1.1//EN" "http://www.w3.org/Graphics/SVG/1.1/DTD/svg11.dtd">
<svg xmlns="http://www.w3.org/2000/svg" version="1.1" viewBox="0.00 0.00 1280.00 360.00">
<g stroke-width="2.00" fill="none" stroke-linecap="butt">
<path stroke="#ffb91f" vector-effect="non-scaling-stroke" d="
  M 172.90 117.38
  L 139.50 150.79"
/>
<path stroke="#fb950f" vector-effect="non-scaling-stroke" d="
  M 139.50 150.79
  L 107.78 90.60
  A 0.88 0.88 0.0 0 0 106.22 90.60
  Q 55.88 186.37 5.57 282.07
  Q 4.23 284.62 4.29 286.25"
/>
<path stroke="#ffb91f" vector-effect="non-scaling-stroke" d="
  M 4.29 286.25
  Q 3.92 286.66 3.79 287.21
  Q 3.66 287.77 4.20 287.93
  Q 6.49 288.64 7.54 289.23
  Q 61.88 319.83 116.36 350.20
  C 129.19 357.36 136.13 356.57 149.40 349.22
  Q 204.53 318.71 259.57 288.04
  C 260.51 287.52 261.24 287.48 262.25 287.21"
/>
<path stroke="#fba71d" vector-effect="non-scaling-stroke" d="
  M 4.29 286.25
  L 139.50 150.79"
/>
</g>
<path fill="#ffa611" d="
  M 52.81 0.00
  L 56.06 0.00
  Q 59.85 1.10 61.44 4.06
  Q 84.13 46.25 106.62 88.28
  A 0.46 0.45 -45.4 0 0 107.42 88.27
  Q 115.65 72.61 123.85 57.01
  C 128.43 48.30 135.89 47.51 140.68 56.69
  Q 156.55 87.13 172.90 117.38
  L 139.50 150.79
  L 107.78 90.60
  A 0.88 0.88 0.0 0 0 106.22 90.60
  Q 55.88 186.37 5.57 282.07
  Q 4.23 284.62 4.29 286.25
  Q 3.92 286.66 3.79 287.21
  Q 3.66 287.77 4.20 287.93
  Q 6.49 288.64 7.54 289.23
  Q 61.88 319.83 116.36 350.20
  C 129.19 357.36 136.13 356.57 149.40 349.22
  Q 204.53 318.71 259.57 288.04
  C 260.51 287.52 261.24 287.48 262.25 287.21
  Q 262.51 287.50 262.51 287.87
  Q 262.52 288.35 262.10 288.58
  Q 203.43 321.19 144.76 353.76
  C 132.66 360.48 124.71 356.95 112.55 350.13
  Q 57.53 319.29 2.49 288.48
  Q 2.07 288.24 2.20 287.78
  Q 2.38 287.12 2.48 286.50
  Q 24.44 146.41 46.35 6.32
  Q 47.11 1.43 52.81 0.00
  Z"
/>
<path fill="#ffcb2d" d="
  M 262.25 287.21
  C 261.24 287.48 260.51 287.52 259.57 288.04
  Q 204.53 318.71 149.40 349.22
  C 136.13 356.57 129.19 357.36 116.36 350.20
  Q 61.88 319.83 7.54 289.23
  Q 6.49 288.64 4.20 287.93
  Q 3.66 287.77 3.79 287.21
  Q 3.92 286.66 4.29 286.25
  L 139.50 150.79
  L 172.90 117.38
  Q 193.18 97.28 213.12 77.23
  C 219.97 70.33 227.49 72.14 229.10 82.02
  Q 245.76 184.60 262.25 287.21
  Z"
/>
<circle fill="#000000" fill-opacity="0.541" cx="502.04" cy="104.07" r="16.81"/>
<path fill="#000000" fill-opacity="0.541" d="
  M 460.59 173.67
  L 460.81 194.05
  A 0.94 0.94 0.0 0 1 459.87 195.00
  L 385.19 195.00
  A 0.94 0.94 0.0 0 0 384.25 195.94
  L 384.25 273.16
  A 0.94 0.94 0.0 0 1 383.30 274.10
  L 361.19 273.95
  A 0.94 0.94 0.0 0 1 360.26 273.01
  L 360.25 90.24
  A 0.94 0.94 0.0 0 1 361.19 89.30
  L 468.06 89.23
  A 0.94 0.94 0.0 0 1 469.00 90.17
  L 469.00 111.06
  A 0.94 0.94 0.0 0 1 468.06 112.00
  L 385.19 112.00
  A 0.94 0.94 0.0 0 0 384.25 112.94
  L 384.25 171.82
  A 0.94 0.94 0.0 0 0 385.19 172.76
  L 459.65 172.74
  A 0.94 0.94 0.0 0 1 460.59 173.67
  Z"
/>
<path fill="#000000" fill-opacity="0.541" d="
  M 789.22 165.25
  L 789.58 165.25
  Q 789.97 165.25 790.19 164.93
  C 807.20 140.18 843.88 137.36 866.54 154.34
  C 902.07 180.97 903.67 236.46 869.64 264.91
  C 847.84 283.14 814.62 282.99 794.38 262.32
  C 793.24 261.15 791.62 258.39 789.72 256.86
  Q 789.00 256.28 789.00 257.21
  L 789.00 273.44
  A 0.63 0.62 -0.0 0 1 788.37 274.06
  L 766.86 273.97
  Q 766.25 273.97 766.25 273.36
  L 766.25 90.00
  A 0.50 0.50 0.0 0 1 766.75 89.50
  L 788.98 89.50
  A 1.02 1.02 0.0 0 1 790.00 90.52
  C 790.00 115.40 790.45 140.15 788.95 164.97
  A 0.27 0.26 2.0 0 0 789.22 165.25
  Z
  M 869.23 200.27
  C 864.42 169.83 829.80 154.38 804.90 173.65
  C 785.11 188.98 783.82 224.46 799.62 242.79
  C 822.12 268.88 862.82 255.72 869.00 222.50
  Q 871.03 211.61 869.23 200.27
  Z"
/>
<path fill="#f6830d" d="
  M 139.50 150.79
  L 4.29 286.25
  Q 4.23 284.62 5.57 282.07
  Q 55.88 186.37 106.22 90.60
  A 0.88 0.88 0.0 0 1 107.78 90.60
  L 139.50 150.79
  Z"
/>
<path fill="#000000" fill-opacity="0.541" d="
  M 645.92 215.60
  C 647.05 235.53 659.25 252.40 679.10 255.91
  C 696.55 258.99 713.82 252.71 721.04 235.65
  A 0.77 0.77 0.0 0 1 722.05 235.24
  L 742.18 243.55
  A 0.54 0.54 0.0 0 1 742.46 244.28
  C 730.76 269.06 708.23 279.58 681.52 277.76
  C 639.02 274.87 615.54 236.27 623.40 196.01
  C 629.14 166.58 652.89 143.70 683.76 143.55
  C 725.46 143.34 748.79 174.59 746.75 214.57
  A 0.72 0.71 1.2 0 1 746.03 215.25
  L 646.26 215.25
  A 0.34 0.33 -1.6 0 0 645.92 215.60
  Z
  M 697.58 166.91
  C 674.54 160.78 653.82 171.51 647.45 195.15
  Q 647.26 195.86 647.99 195.86
  L 719.76 195.52
  A 1.67 1.66 83.6 0 0 721.37 193.49
  C 718.57 181.07 710.19 170.26 697.58 166.91
  Z"
/>
<path fill="#000000" fill-opacity="0.541" d="
  M 1066.23 187.16
  C 1069.34 192.10 1075.97 194.38 1081.52 195.68
  C 1106.88 201.66 1141.35 204.99 1141.46 239.26
  C 1141.50 249.84 1136.12 259.49 1127.92 266.31
  C 1114.63 277.37 1095.95 279.72 1079.37 277.31
  C 1059.89 274.49 1044.14 260.69 1036.27 243.11
  A 1.09 1.09 0.0 0 1 1036.85 241.65
  L 1056.01 233.71
  Q 1056.50 233.50 1056.91 233.84
  C 1058.08 234.83 1058.94 237.06 1059.59 238.28
  Q 1068.67 255.06 1088.07 256.93
  C 1100.38 258.12 1120.00 252.43 1116.88 236.05
  C 1115.36 228.13 1105.95 223.88 1098.76 222.19
  C 1080.95 217.99 1062.77 215.47 1048.75 202.77
  C 1036.48 191.65 1037.55 171.18 1047.97 159.72
  Q 1050.77 156.65 1055.72 153.36
  C 1072.87 141.95 1095.19 140.74 1113.75 148.09
  C 1125.78 152.86 1133.54 160.16 1138.89 171.63
  Q 1139.47 172.87 1138.20 173.39
  L 1119.18 181.19
  A 0.66 0.65 -23.3 0 1 1118.33 180.86
  Q 1113.69 170.62 1104.04 167.03
  C 1093.76 163.20 1073.19 162.96 1066.26 174.00
  Q 1062.11 180.62 1066.23 187.16
  Z"
/>
<path fill="#000000" fill-opacity="0.541" d="
  M 997.67 256.55
  Q 997.11 256.34 996.82 256.78
  C 980.40 281.46 942.43 285.59 920.46 265.88
  C 902.50 249.76 902.71 219.23 922.59 204.32
  C 943.55 188.61 974.12 188.30 997.32 198.93
  Q 998.13 199.30 998.05 198.42
  C 997.75 195.16 997.87 191.64 997.23 188.65
  C 991.06 160.10 945.35 157.07 934.47 182.68
  A 0.94 0.94 0.0 0 1 933.24 183.17
  L 913.01 174.59
  Q 912.38 174.32 912.63 173.68
  Q 914.60 168.75 919.47 162.93
  Q 935.11 144.21 961.24 143.81
  C 973.76 143.62 984.00 145.01 994.91 150.82
  Q 1020.77 164.59 1020.92 196.55
  Q 1021.09 234.75 1020.97 272.96
  A 1.04 1.04 0.0 0 1 1019.93 274.00
  L 998.61 274.00
  Q 997.96 274.00 997.96 273.35
  L 998.08 257.16
  A 0.66 0.64 -79.6 0 0 997.67 256.55
  Z
  M 948.97 255.11
  C 971.91 261.53 997.41 244.26 997.92 219.99
  Q 997.93 219.52 997.55 219.26
  C 981.23 207.86 940.00 206.00 933.16 231.17
  C 929.86 243.32 938.03 252.05 948.97 255.11
  Z"
/>
<path fill="#000000" fill-opacity="0.541" d="
  M 1280.00 209.56
  L 1280.00 215.06
  L 1179.53 215.20
  Q 1179.00 215.20 1179.02 215.73
  C 1180.09 241.89 1200.76 259.83 1227.06 256.06
  Q 1246.39 253.29 1254.11 235.82
  A 1.01 1.00 22.9 0 1 1255.41 235.30
  L 1275.16 243.43
  A 0.70 0.70 0.0 0 1 1275.53 244.39
  Q 1260.45 274.93 1226.32 277.82
  C 1204.61 279.66 1184.95 272.86 1170.85 256.58
  C 1138.53 219.26 1157.54 148.37 1210.68 143.90
  C 1229.62 142.31 1246.13 146.51 1260.40 159.34
  C 1274.59 172.08 1279.30 191.05 1280.00 209.56
  Z
  M 1228.60 166.44
  C 1206.17 161.17 1187.23 172.39 1180.77 194.47
  A 1.06 1.06 0.0 0 0 1181.80 195.83
  L 1252.98 195.52
  A 1.44 1.43 84.1 0 0 1254.38 193.79
  C 1251.49 179.81 1242.67 169.75 1228.60 166.44
  Z"
/>
<path fill="#000000" fill-opacity="0.541" d="
  M 566.01 168.27
  Q 566.91 168.29 566.94 167.31
  Q 566.96 166.79 567.20 166.33
  C 577.28 147.38 600.02 140.68 620.12 147.20
  Q 621.38 147.61 620.89 148.84
  L 612.94 168.48
  A 1.69 1.68 -71.0 0 1 610.92 169.47
  C 592.02 164.06 573.51 174.08 568.12 192.94
  Q 566.57 198.38 566.53 211.34
  Q 566.45 242.41 566.52 273.48
  A 0.52 0.52 0.0 0 1 566.00 274.00
  L 543.25 274.00
  Q 542.75 274.00 542.75 273.50
  L 542.75 148.66
  A 0.91 0.90 -90.0 0 1 543.65 147.75
  L 564.50 147.75
  A 1.00 1.00 0.0 0 1 565.50 148.75
  L 565.50 167.75
  A 0.53 0.52 1.1 0 0 566.01 168.27
  Z"
/>
<rect fill="#000000" fill-opacity="0.541" x="490.24" y="147.75" width="23.76" height="126.26" rx="1.16"/>
</svg>
