<?xml version="1.0" encoding="UTF-8" standalone="no"?>
<!DOCTYPE svg PUBLIC "-//W3C//DTD SVG 1.1//EN" "http://www.w3.org/Graphics/SVG/1.1/DTD/svg11.dtd">
<svg xmlns="http://www.w3.org/2000/svg" version="1.1" viewBox="0.00 0.00 1448.00 1448.00">
<path stroke="#25c7b7" stroke-width="2.00" fill="none" stroke-linecap="butt" vector-effect="non-scaling-stroke" d="
  M 176.21 899.00
  L 175.50 899.29"
/>
<path fill="#25c7b7" d="
  M 724.67 0.49
  L 848.97 125.12
  Q 849.33 125.48 849.05 125.92
  L 698.53 361.52
  A 0.62 0.61 24.8 0 1 697.83 361.77
  Q 658.96 349.99 627.30 374.30
  A 1.30 1.28 -51.6 0 1 626.02 374.46
  L 432.88 291.91
  A 0.35 0.35 0.0 0 1 432.77 291.34
  L 723.64 0.49
  Q 724.16 -0.03 724.67 0.49
  Z"
/>
<path fill="#25c7b7" d="
  M 884.13 159.93
  L 1014.07 290.15
  Q 1014.73 290.81 1014.58 291.74
  L 980.38 504.49
  Q 980.28 505.12 979.67 505.30
  Q 968.00 508.82 958.22 516.07
  Q 957.83 516.37 957.37 516.17
  L 748.80 427.00
  Q 748.10 426.70 748.04 425.94
  Q 746.42 406.95 735.97 391.12
  Q 735.69 390.69 735.97 390.27
  L 883.09 160.04
  A 0.67 0.67 0.0 0 1 884.13 159.93
  Z"
/>
<path fill="#25c7b7" d="
  M 398.44 328.60
  Q 499.76 371.62 600.88 415.05
  Q 601.38 415.27 601.28 415.80
  Q 593.85 454.68 619.89 483.48
  Q 620.28 483.91 619.97 484.41
  L 456.63 739.91
  Q 456.32 740.38 455.78 740.25
  Q 436.26 735.48 416.59 739.69
  A 1.24 1.22 -22.9 0 1 415.32 739.19
  L 240.67 484.41
  Q 240.28 483.84 240.76 483.36
  L 396.54 327.58
  Q 396.92 327.20 397.28 327.60
  C 397.77 328.16 397.65 328.26 398.44 328.60
  Z"
/>
<path fill="#25c7b7" d="
  M 1056.16 332.27
  L 1187.18 463.30
  A 0.21 0.21 0.0 0 1 1187.11 463.64
  L 1046.97 523.97
  Q 1046.49 524.18 1046.14 523.80
  Q 1038.32 515.47 1028.22 510.10
  Q 1027.25 509.59 1027.43 508.50
  L 1055.79 332.39
  A 0.22 0.22 0.0 0 1 1056.16 332.27
  Z"
/>
<path fill="#25c7b7" d="
  M 933.28 557.63
  C 932.94 562.86 932.23 567.26 932.76 572.59
  A 0.61 0.60 76.0 0 1 932.40 573.20
  L 501.23 758.75
  Q 500.22 759.18 500.81 758.26
  L 661.93 506.18
  Q 662.23 505.72 662.77 505.81
  C 691.89 510.43 719.52 497.44 736.07 473.36
  Q 736.38 472.91 736.87 473.12
  L 932.85 556.92
  Q 933.31 557.12 933.28 557.63
  Z"
/>
<path fill="#25c7b7" d="
  M 1224.14 499.95
  L 1447.51 723.68
  A 0.95 0.95 0.0 0 1 1446.46 725.23
  L 1072.32 565.40
  Q 1071.06 564.86 1072.32 564.32
  L 1222.49 499.64
  A 1.49 1.48 55.6 0 1 1224.14 499.95
  Z"
/>
<path fill="#25c7b7" d="
  M 176.21 899.00
  L 175.50 899.29
  L 174.86 898.88
  Q 174.56 898.69 174.30 898.43
  L 0.35 724.46
  A 0.58 0.57 45.4 0 1 0.35 723.65
  L 206.11 518.07
  A 0.37 0.36 -39.1 0 1 206.67 518.12
  L 374.06 762.24
  Q 374.38 762.70 373.98 763.10
  Q 365.47 771.77 359.72 782.48
  Q 359.32 783.24 358.48 783.06
  L 14.43 711.25
  A 1.25 1.25 0.0 0 0 13.28 711.60
  L 1.25 723.63
  A 0.53 0.52 -45.4 0 0 1.25 724.38
  L 41.24 764.36
  A 3.10 3.09 -16.5 0 0 42.79 765.20
  L 339.59 827.15
  Q 341.39 827.53 339.70 828.26
  C 326.12 834.11 176.17 898.47 176.21 899.00
  Z"
/>
<path fill="#25c7b7" d="
  M 1410.13 761.67
  L 1211.31 960.81
  Q 1211.07 961.06 1210.62 960.96
  L 993.27 915.52
  Q 992.75 915.41 992.69 914.89
  Q 989.63 888.88 969.84 871.99
  A 1.88 1.88 0.0 0 1 969.20 870.27
  L 1007.40 632.92
  Q 1007.49 632.38 1008.03 632.28
  Q 1033.72 627.85 1049.80 607.58
  Q 1050.15 607.15 1050.66 607.37
  L 1409.98 760.88
  Q 1410.64 761.17 1410.13 761.67
  Z"
/>
<path fill="#25c7b7" d="
  M 923.01 857.39
  C 901.02 859.92 883.63 870.95 872.80 889.50
  Q 872.28 890.39 871.28 890.18
  L 521.02 816.97
  Q 520.43 816.85 520.34 816.25
  L 518.24 803.04
  A 0.46 0.45 -16.1 0 1 518.51 802.56
  L 952.71 615.79
  A 0.75 0.73 52.5 0 1 953.49 615.90
  L 961.04 622.14
  Q 961.38 622.42 961.31 622.86
  L 923.71 856.72
  Q 923.62 857.32 923.01 857.39
  Z"
/>
<path fill="#25c7b7" d="
  M 866.07 937.60
  C 872.04 956.88 883.38 972.21 902.90 980.88
  A 1.08 1.07 16.7 0 1 903.53 982.03
  L 848.75 1322.63
  Q 848.66 1323.19 848.26 1323.60
  L 829.70 1342.48
  A 0.58 0.57 -40.1 0 1 828.82 1342.41
  L 506.24 871.82
  Q 505.88 871.29 506.20 870.75
  L 510.53 863.45
  A 0.94 0.93 21.2 0 1 511.53 863.02
  L 865.47 937.05
  Q 865.93 937.15 866.07 937.60
  Z"
/>
<path fill="#25c7b7" d="
  M 175.50 899.29
  L 176.21 899.00
  C 176.19 900.06 207.56 930.69 211.02 934.16
  A 1.31 1.31 0.0 0 0 212.45 934.44
  L 362.45 869.77
  Q 362.91 869.57 363.21 869.98
  L 368.35 877.14
  Q 368.71 877.65 368.38 878.17
  L 285.50 1007.82
  A 0.72 0.72 0.0 0 0 285.60 1008.72
  L 318.68 1041.80
  A 0.65 0.64 38.9 0 0 319.68 1041.70
  L 407.07 905.10
  A 1.01 1.00 24.7 0 1 408.22 904.68
  Q 439.08 914.18 468.83 901.77
  A 0.89 0.89 0.0 0 1 469.92 902.09
  L 794.97 1376.36
  Q 795.29 1376.83 794.89 1377.23
  L 724.46 1447.67
  A 0.65 0.65 0.0 0 1 723.54 1447.67
  L 175.50 899.29
  Z"
/>
<path fill="#25c7b7" d="
  M 1170.71 1001.29
  L 906.53 1265.29
  Q 905.51 1266.31 905.73 1264.94
  L 951.16 982.61
  Q 951.25 982.02 951.80 981.81
  Q 965.50 976.54 975.43 965.70
  Q 977.48 963.46 979.60 961.30
  Q 979.97 960.93 980.48 961.03
  L 1170.55 1000.73
  A 0.33 0.33 0.0 0 1 1170.71 1001.29
  Z"
/>
</svg>
