<?xml version="1.0" encoding="UTF-8" standalone="no"?>
<!DOCTYPE svg PUBLIC "-//W3C//DTD SVG 1.1//EN" "http://www.w3.org/Graphics/SVG/1.1/DTD/svg11.dtd">
<svg xmlns="http://www.w3.org/2000/svg" version="1.1" viewBox="0.00 0.00 434.00 434.00">
<path fill="#000000" d="
  M 78.31 0.00
  L 353.06 0.00
  C 396.20 2.22 430.55 34.59 434.00 77.81
  L 434.00 358.06
  C 429.32 399.26 398.48 429.71 357.19 434.00
  L 77.44 434.00
  C 34.83 430.61 3.61 397.17 0.00 354.94
  L 0.00 78.19
  C 4.21 35.54 35.61 3.64 78.31 0.00
  Z
  M 100.71 127.26
  A 0.30 0.30 0.0 0 1 100.71 127.68
  Q 83.08 145.30 65.50 163.00
  C 58.03 170.53 53.92 178.94 60.50 188.77
  C 66.56 197.83 80.17 201.35 88.52 193.01
  Q 120.10 161.47 151.59 129.81
  C 154.13 127.26 152.95 126.50 150.86 124.40
  Q 120.70 94.05 90.42 63.84
  Q 82.95 56.39 73.60 57.72
  C 64.45 59.02 56.85 67.87 57.28 77.13
  C 57.55 83.03 60.97 87.64 64.92 91.57
  Q 82.83 109.40 100.71 127.26
  Z
  M 191.67 166.31
  C 171.11 170.18 173.59 205.14 197.76 205.12
  Q 221.90 205.09 246.01 204.96
  Q 253.35 204.92 256.26 204.06
  C 272.05 199.42 273.60 174.14 259.09 167.38
  Q 256.14 166.00 250.19 166.00
  Q 226.02 166.00 201.85 166.00
  Q 193.29 166.00 191.67 166.31
  Z"
/>
</svg>
