<?xml version="1.0" encoding="UTF-8" standalone="no"?>
<!DOCTYPE svg PUBLIC "-//W3C//DTD SVG 1.1//EN" "http://www.w3.org/Graphics/SVG/1.1/DTD/svg11.dtd">
<svg xmlns="http://www.w3.org/2000/svg" version="1.1" viewBox="0.00 0.00 683.00 683.00">
<path fill="#000000" d="
  M 682.50 346.25
  C 682.02 364.56 681.31 379.83 678.42 396.87
  C 663.31 485.91 615.11 563.58 542.58 617.11
  C 484.42 660.03 410.94 684.19 338.76 682.58
  Q 328.62 682.35 318.51 681.83
  C 241.77 677.91 168.50 645.47 111.75 594.01
  C 64.51 551.19 30.48 495.88 13.23 434.44
  C 1.26 391.84 -1.95 352.87 1.57 309.20
  C 6.42 249.02 30.49 189.39 65.51 140.74
  C 80.20 120.33 98.47 101.53 117.09 84.69
  C 168.40 38.30 236.60 10.15 304.87 1.87
  C 327.40 -0.87 351.65 0.31 374.27 1.81
  Q 384.76 2.51 394.12 4.07
  Q 477.65 18.02 546.07 68.44
  Q 555.37 75.29 563.90 83.10
  C 581.72 99.40 597.96 115.32 612.25 134.00
  C 658.48 194.40 684.50 269.94 682.50 346.25
  Z
  M 378.50 462.57
  Q 445.63 463.01 512.60 462.24
  A 0.55 0.55 0.0 0 0 513.08 461.42
  L 345.25 167.69
  A 0.58 0.57 45.3 0 0 344.25 167.68
  L 175.91 461.15
  A 0.84 0.83 -74.8 0 0 176.62 462.40
  Q 224.73 462.84 272.93 462.80
  C 301.47 462.78 329.95 463.21 358.49 462.70
  Q 369.14 462.51 378.50 462.57
  Z"
/>
</svg>
