<?xml version="1.0" encoding="UTF-8" standalone="no"?>
<!DOCTYPE svg PUBLIC "-//W3C//DTD SVG 1.1//EN" "http://www.w3.org/Graphics/SVG/1.1/DTD/svg11.dtd">
<svg xmlns="http://www.w3.org/2000/svg" version="1.1" viewBox="0.00 0.00 177.00 173.00">
<g stroke-width="2.00" fill="none" stroke-linecap="butt">
<path stroke="#97136f" vector-effect="non-scaling-stroke" d="
  M 169.7905 34.5816
  A 26.95 26.95 0.0 0 0 142.8876 7.5846
  L 34.5878 7.3956
  A 26.95 26.95 0.0 0 0 7.5908 34.2985
  L 7.4095 138.1784
  A 26.95 26.95 0.0 0 0 34.3124 165.1754
  L 142.6122 165.3644
  A 26.95 26.95 0.0 0 0 169.6092 138.4615
  L 169.7905 34.5816"
/>
<path stroke="#976d89" vector-effect="non-scaling-stroke" d="
  M 61.56 91.63
  Q 62.54 92.97 63.28 94.50
  Q 69.71 107.78 76.13 121.20
  Q 76.39 121.75 77.00 121.75
  L 90.08 121.75
  A 0.75 0.75 0.0 0 0 90.75 120.65
  L 70.44 81.33
  Q 70.17 80.80 70.44 80.27
  L 89.63 43.08
  A 0.72 0.72 0.0 0 0 88.99 42.04
  L 77.28 41.98
  A 1.37 1.35 12.1 0 0 76.04 42.77
  L 62.77 71.79
  A 0.44 0.43 44.8 0 1 61.98 71.79
  L 48.60 42.86
  Q 48.32 42.25 47.65 42.25
  L 34.49 42.25
  Q 33.72 42.25 34.06 42.95
  L 53.36 81.66
  Q 53.58 82.10 53.35 82.55
  L 33.27 120.94
  A 0.56 0.55 14.1 0 0 33.76 121.75
  L 45.79 121.75
  Q 46.33 121.75 46.68 121.35
  Q 47.69 120.18 48.34 118.83
  Q 54.74 105.30 60.98 91.69
  Q 61.22 91.17 61.56 91.63"
/>
<path stroke="#976d89" vector-effect="non-scaling-stroke" d="
  M 127.12 62.47
  C 124.66 62.63 121.81 62.35 119.76 62.64
  C 98.20 65.61 90.09 86.84 96.41 105.82
  C 102.50 124.12 123.07 125.46 138.29 119.52
  Q 139.77 118.94 140.73 118.16
  Q 141.12 117.84 141.11 117.34
  C 140.32 92.52 140.76 67.58 140.72 42.74
  Q 140.71 42.25 140.23 42.25
  L 128.25 42.25
  Q 127.75 42.25 127.75 42.75
  L 127.75 61.80
  Q 127.75 62.42 127.12 62.47"
/>
<path stroke="#976d89" vector-effect="non-scaling-stroke" d="
  M 127.70 109.56
  L 127.82 75.10
  A 1.71 1.71 0.0 0 0 126.12 73.39
  L 122.89 73.38
  A 15.98 14.78 -89.8 0 0 108.05 89.31
  L 108.03 95.23
  A 15.98 14.78 -89.8 0 0 122.75 111.26
  L 125.98 111.27
  A 1.71 1.71 0.0 0 0 127.70 109.56"
/>
</g>
<path fill="#ff26be" d="
  M 32.56 0.00
  L 146.31 0.00
  Q 172.37 2.89 177.00 28.56
  L 177.00 144.06
  C 176.33 146.58 176.05 149.31 175.18 151.56
  Q 169.46 166.49 154.91 170.97
  Q 150.71 172.27 143.47 172.27
  Q 86.24 172.31 29.05 172.15
  C 18.25 172.12 8.23 164.21 3.48 155.05
  C 0.79 149.89 0.29 144.32 0.28 137.77
  Q 0.21 85.14 0.24 32.50
  C 0.25 14.01 14.20 0.34 32.56 0.00
  Z
  M 169.7905 34.5816
  A 26.95 26.95 0.0 0 0 142.8876 7.5846
  L 34.5878 7.3956
  A 26.95 26.95 0.0 0 0 7.5908 34.2985
  L 7.4095 138.1784
  A 26.95 26.95 0.0 0 0 34.3124 165.1754
  L 142.6122 165.3644
  A 26.95 26.95 0.0 0 0 169.6092 138.4615
  L 169.7905 34.5816
  Z"
/>
<path fill="#2e001f" d="
  M 169.6092 138.4615
  A 26.95 26.95 0.0 0 1 142.6122 165.3644
  L 34.3124 165.1754
  A 26.95 26.95 0.0 0 1 7.4095 138.1784
  L 7.5908 34.2985
  A 26.95 26.95 0.0 0 1 34.5878 7.3956
  L 142.8876 7.5846
  A 26.95 26.95 0.0 0 1 169.7905 34.5816
  L 169.6092 138.4615
  Z
  M 61.56 91.63
  Q 62.54 92.97 63.28 94.50
  Q 69.71 107.78 76.13 121.20
  Q 76.39 121.75 77.00 121.75
  L 90.08 121.75
  A 0.75 0.75 0.0 0 0 90.75 120.65
  L 70.44 81.33
  Q 70.17 80.80 70.44 80.27
  L 89.63 43.08
  A 0.72 0.72 0.0 0 0 88.99 42.04
  L 77.28 41.98
  A 1.37 1.35 12.1 0 0 76.04 42.77
  L 62.77 71.79
  A 0.44 0.43 44.8 0 1 61.98 71.79
  L 48.60 42.86
  Q 48.32 42.25 47.65 42.25
  L 34.49 42.25
  Q 33.72 42.25 34.06 42.95
  L 53.36 81.66
  Q 53.58 82.10 53.35 82.55
  L 33.27 120.94
  A 0.56 0.55 14.1 0 0 33.76 121.75
  L 45.79 121.75
  Q 46.33 121.75 46.68 121.35
  Q 47.69 120.18 48.34 118.83
  Q 54.74 105.30 60.98 91.69
  Q 61.22 91.17 61.56 91.63
  Z
  M 127.12 62.47
  C 124.66 62.63 121.81 62.35 119.76 62.64
  C 98.20 65.61 90.09 86.84 96.41 105.82
  C 102.50 124.12 123.07 125.46 138.29 119.52
  Q 139.77 118.94 140.73 118.16
  Q 141.12 117.84 141.11 117.34
  C 140.32 92.52 140.76 67.58 140.72 42.74
  Q 140.71 42.25 140.23 42.25
  L 128.25 42.25
  Q 127.75 42.25 127.75 42.75
  L 127.75 61.80
  Q 127.75 62.42 127.12 62.47
  Z"
/>
<path fill="#ffd9f2" d="
  M 60.98 91.69
  Q 54.74 105.30 48.34 118.83
  Q 47.69 120.18 46.68 121.35
  Q 46.33 121.75 45.79 121.75
  L 33.76 121.75
  A 0.56 0.55 14.1 0 1 33.27 120.94
  L 53.35 82.55
  Q 53.58 82.10 53.36 81.66
  L 34.06 42.95
  Q 33.72 42.25 34.49 42.25
  L 47.65 42.25
  Q 48.32 42.25 48.60 42.86
  L 61.98 71.79
  A 0.44 0.43 44.8 0 0 62.77 71.79
  L 76.04 42.77
  A 1.37 1.35 12.1 0 1 77.28 41.98
  L 88.99 42.04
  A 0.72 0.72 0.0 0 1 89.63 43.08
  L 70.44 80.27
  Q 70.17 80.80 70.44 81.33
  L 90.75 120.65
  A 0.75 0.75 0.0 0 1 90.08 121.75
  L 77.00 121.75
  Q 76.39 121.75 76.13 121.20
  Q 69.71 107.78 63.28 94.50
  Q 62.54 92.97 61.56 91.63
  Q 61.22 91.17 60.98 91.69
  Z"
/>
<path fill="#ffd9f2" d="
  M 127.75 61.80
  L 127.75 42.75
  Q 127.75 42.25 128.25 42.25
  L 140.23 42.25
  Q 140.71 42.25 140.72 42.74
  C 140.76 67.58 140.32 92.52 141.11 117.34
  Q 141.12 117.84 140.73 118.16
  Q 139.77 118.94 138.29 119.52
  C 123.07 125.46 102.50 124.12 96.41 105.82
  C 90.09 86.84 98.20 65.61 119.76 62.64
  C 121.81 62.35 124.66 62.63 127.12 62.47
  Q 127.75 62.42 127.75 61.80
  Z
  M 127.70 109.56
  L 127.82 75.10
  A 1.71 1.71 0.0 0 0 126.12 73.39
  L 122.89 73.38
  A 15.98 14.78 -89.8 0 0 108.05 89.31
  L 108.03 95.23
  A 15.98 14.78 -89.8 0 0 122.75 111.26
  L 125.98 111.27
  A 1.71 1.71 0.0 0 0 127.70 109.56
  Z"
/>
<path fill="#2e001f" d="
  M 127.70 109.56
  A 1.71 1.71 0.0 0 1 125.98 111.27
  L 122.75 111.26
  A 15.98 14.78 -89.8 0 1 108.03 95.23
  L 108.05 89.31
  A 15.98 14.78 -89.8 0 1 122.89 73.38
  L 126.12 73.39
  A 1.71 1.71 0.0 0 1 127.82 75.10
  L 127.70 109.56
  Z"
/>
</svg>
