<?xml version="1.0" encoding="UTF-8" standalone="no"?>
<!DOCTYPE svg PUBLIC "-//W3C//DTD SVG 1.1//EN" "http://www.w3.org/Graphics/SVG/1.1/DTD/svg11.dtd">
<svg xmlns="http://www.w3.org/2000/svg" version="1.1" viewBox="0.00 0.00 104.00 117.00">
<g stroke-width="2.00" fill="none" stroke-linecap="butt">
<path stroke="#327bb7" vector-effect="non-scaling-stroke" d="
  M 102.93 28.35
  Q 92.25 35.83 82.04 40.75"
/>
<path stroke="#b1cde9" vector-effect="non-scaling-stroke" d="
  M 82.04 40.75
  C 57.27 2.60 0.85 34.79 21.71 75.50"
/>
<path stroke="#3271aa" vector-effect="non-scaling-stroke" d="
  M 21.71 75.50
  L 1.34 87.63"
/>
<path stroke="#80adce" vector-effect="non-scaling-stroke" d="
  M 82.04 40.75
  Q 74.66 45.68 66.75 49.71"
/>
<path stroke="#b1cde9" vector-effect="non-scaling-stroke" d="
  M 66.75 49.71
  C 54.34 30.07 25.88 47.65 37.04 66.75"
/>
<path stroke="#80a3c1" vector-effect="non-scaling-stroke" d="
  M 37.04 66.75
  C 43.57 78.95 59.40 78.00 66.87 67.14"
/>
<path stroke="#80adce" vector-effect="non-scaling-stroke" d="
  M 66.87 67.14
  L 81.79 75.75"
/>
<path stroke="#80a3c1" vector-effect="non-scaling-stroke" d="
  M 81.79 75.75
  C 68.05 99.06 35.61 98.44 21.71 75.50"
/>
<path stroke="#00518f" vector-effect="non-scaling-stroke" d="
  M 102.90 87.66
  L 81.79 75.75"
/>
<path stroke="#00518f" vector-effect="non-scaling-stroke" d="
  M 66.87 67.14
  L 52.40 58.17"
/>
<path stroke="#327bb7" vector-effect="non-scaling-stroke" d="
  M 52.40 58.17
  L 66.75 49.71"
/>
<path stroke="#80adce" vector-effect="non-scaling-stroke" d="
  M 83.39 56.25
  A 0.55 0.55 0.0 0 1 82.84 55.68
  L 82.95 53.07
  A 0.55 0.55 0.0 0 0 82.40 52.50
  L 79.55 52.50
  A 0.55 0.55 0.0 0 0 79.00 53.05
  L 79.00 55.70
  A 0.55 0.55 0.0 0 1 78.45 56.25
  L 75.54 56.25
  A 0.55 0.55 0.0 0 0 74.99 56.80
  L 75.02 59.86
  A 0.55 0.55 0.0 0 0 75.60 60.40
  L 78.41 60.21
  A 0.55 0.55 0.0 0 1 79.00 60.76
  L 79.00 63.45
  A 0.55 0.55 0.0 0 0 79.55 64.00
  L 82.41 64.00
  A 0.55 0.55 0.0 0 0 82.95 63.39
  L 82.68 60.88
  A 0.55 0.55 0.0 0 1 83.22 60.27
  L 86.20 60.24
  A 0.55 0.55 0.0 0 0 86.75 59.69
  L 86.75 56.80
  A 0.55 0.55 0.0 0 0 86.20 56.25
  L 83.39 56.25"
/>
<path stroke="#80adce" vector-effect="non-scaling-stroke" d="
  M 92.91 60.25
  A 0.43 0.43 0.0 0 1 93.34 60.70
  L 93.22 63.55
  A 0.43 0.43 0.0 0 0 93.65 64.00
  L 97.08 64.00
  A 0.43 0.43 0.0 0 0 97.51 63.52
  L 97.17 60.70
  A 0.43 0.43 0.0 0 1 97.62 60.22
  L 100.55 60.38
  A 0.43 0.43 0.0 0 0 101.00 59.95
  L 101.00 56.68
  A 0.43 0.43 0.0 0 0 100.57 56.25
  L 97.68 56.25
  A 0.43 0.43 0.0 0 1 97.25 55.82
  L 97.25 52.93
  A 0.43 0.43 0.0 0 0 96.82 52.50
  L 93.68 52.50
  A 0.43 0.43 0.0 0 0 93.25 52.93
  L 93.25 55.82
  A 0.43 0.43 0.0 0 1 92.82 56.25
  L 89.93 56.25
  A 0.43 0.43 0.0 0 0 89.50 56.68
  L 89.50 59.82
  A 0.43 0.43 0.0 0 0 89.93 60.25
  L 92.91 60.25"
/>
<path stroke="#3271aa" vector-effect="non-scaling-stroke" d="
  M 52.40 58.17
  L 37.04 66.75"
/>
</g>
<path fill="#639bd2" d="
  M 49.31 0.00
  L 54.81 0.00
  Q 79.32 13.35 102.93 28.35
  Q 92.25 35.83 82.04 40.75
  C 57.27 2.60 0.85 34.79 21.71 75.50
  L 1.34 87.63
  Q 0.43 86.49 0.00 84.44
  L 0.00 31.44
  Q 0.79 27.83 3.97 25.95
  Q 26.46 12.66 49.31 0.00
  Z"
/>
<path fill="#ffffff" d="
  M 82.04 40.75
  Q 74.66 45.68 66.75 49.71
  C 54.34 30.07 25.88 47.65 37.04 66.75
  C 43.57 78.95 59.40 78.00 66.87 67.14
  L 81.79 75.75
  C 68.05 99.06 35.61 98.44 21.71 75.50
  C 0.85 34.79 57.27 2.60 82.04 40.75
  Z"
/>
<path fill="#005b9c" d="
  M 102.93 28.35
  Q 103.18 30.85 104.00 32.06
  L 104.00 84.31
  L 102.90 87.66
  L 81.79 75.75
  L 66.87 67.14
  L 52.40 58.17
  L 66.75 49.71
  Q 74.66 45.68 82.04 40.75
  Q 92.25 35.83 102.93 28.35
  Z
  M 83.39 56.25
  A 0.55 0.55 0.0 0 1 82.84 55.68
  L 82.95 53.07
  A 0.55 0.55 0.0 0 0 82.40 52.50
  L 79.55 52.50
  A 0.55 0.55 0.0 0 0 79.00 53.05
  L 79.00 55.70
  A 0.55 0.55 0.0 0 1 78.45 56.25
  L 75.54 56.25
  A 0.55 0.55 0.0 0 0 74.99 56.80
  L 75.02 59.86
  A 0.55 0.55 0.0 0 0 75.60 60.40
  L 78.41 60.21
  A 0.55 0.55 0.0 0 1 79.00 60.76
  L 79.00 63.45
  A 0.55 0.55 0.0 0 0 79.55 64.00
  L 82.41 64.00
  A 0.55 0.55 0.0 0 0 82.95 63.39
  L 82.68 60.88
  A 0.55 0.55 0.0 0 1 83.22 60.27
  L 86.20 60.24
  A 0.55 0.55 0.0 0 0 86.75 59.69
  L 86.75 56.80
  A 0.55 0.55 0.0 0 0 86.20 56.25
  L 83.39 56.25
  Z
  M 92.91 60.25
  A 0.43 0.43 0.0 0 1 93.34 60.70
  L 93.22 63.55
  A 0.43 0.43 0.0 0 0 93.65 64.00
  L 97.08 64.00
  A 0.43 0.43 0.0 0 0 97.51 63.52
  L 97.17 60.70
  A 0.43 0.43 0.0 0 1 97.62 60.22
  L 100.55 60.38
  A 0.43 0.43 0.0 0 0 101.00 59.95
  L 101.00 56.68
  A 0.43 0.43 0.0 0 0 100.57 56.25
  L 97.68 56.25
  A 0.43 0.43 0.0 0 1 97.25 55.82
  L 97.25 52.93
  A 0.43 0.43 0.0 0 0 96.82 52.50
  L 93.68 52.50
  A 0.43 0.43 0.0 0 0 93.25 52.93
  L 93.25 55.82
  A 0.43 0.43 0.0 0 1 92.82 56.25
  L 89.93 56.25
  A 0.43 0.43 0.0 0 0 89.50 56.68
  L 89.50 59.82
  A 0.43 0.43 0.0 0 0 89.93 60.25
  L 92.91 60.25
  Z"
/>
<path fill="#639bd2" d="
  M 66.75 49.71
  L 52.40 58.17
  L 37.04 66.75
  C 25.88 47.65 54.34 30.07 66.75 49.71
  Z"
/>
<path fill="#ffffff" d="
  M 83.39 56.25
  L 86.20 56.25
  A 0.55 0.55 0.0 0 1 86.75 56.80
  L 86.75 59.69
  A 0.55 0.55 0.0 0 1 86.20 60.24
  L 83.22 60.27
  A 0.55 0.55 0.0 0 0 82.68 60.88
  L 82.95 63.39
  A 0.55 0.55 0.0 0 1 82.41 64.00
  L 79.55 64.00
  A 0.55 0.55 0.0 0 1 79.00 63.45
  L 79.00 60.76
  A 0.55 0.55 0.0 0 0 78.41 60.21
  L 75.60 60.40
  A 0.55 0.55 0.0 0 1 75.02 59.86
  L 74.99 56.80
  A 0.55 0.55 0.0 0 1 75.54 56.25
  L 78.45 56.25
  A 0.55 0.55 0.0 0 0 79.00 55.70
  L 79.00 53.05
  A 0.55 0.55 0.0 0 1 79.55 52.50
  L 82.40 52.50
  A 0.55 0.55 0.0 0 1 82.95 53.07
  L 82.84 55.68
  A 0.55 0.55 0.0 0 0 83.39 56.25
  Z"
/>
<path fill="#ffffff" d="
  M 92.91 60.25
  L 89.93 60.25
  A 0.43 0.43 0.0 0 1 89.50 59.82
  L 89.50 56.68
  A 0.43 0.43 0.0 0 1 89.93 56.25
  L 92.82 56.25
  A 0.43 0.43 0.0 0 0 93.25 55.82
  L 93.25 52.93
  A 0.43 0.43 0.0 0 1 93.68 52.50
  L 96.82 52.50
  A 0.43 0.43 0.0 0 1 97.25 52.93
  L 97.25 55.82
  A 0.43 0.43 0.0 0 0 97.68 56.25
  L 100.57 56.25
  A 0.43 0.43 0.0 0 1 101.00 56.68
  L 101.00 59.95
  A 0.43 0.43 0.0 0 1 100.55 60.38
  L 97.62 60.22
  A 0.43 0.43 0.0 0 0 97.17 60.70
  L 97.51 63.52
  A 0.43 0.43 0.0 0 1 97.08 64.00
  L 93.65 64.00
  A 0.43 0.43 0.0 0 1 93.22 63.55
  L 93.34 60.70
  A 0.43 0.43 0.0 0 0 92.91 60.25
  Z"
/>
<path fill="#004682" d="
  M 52.40 58.17
  L 66.87 67.14
  C 59.40 78.00 43.57 78.95 37.04 66.75
  L 52.40 58.17
  Z"
/>
<path fill="#004682" d="
  M 21.71 75.50
  C 35.61 98.44 68.05 99.06 81.79 75.75
  L 102.90 87.66
  Q 100.09 90.71 93.19 94.69
  Q 73.63 105.97 53.94 117.00
  L 50.19 117.00
  Q 47.98 115.96 45.89 114.76
  Q 25.70 103.26 5.55 91.71
  Q 3.52 90.55 1.34 87.63
  L 21.71 75.50
  Z"
/>
</svg>
