<?xml version="1.0" encoding="UTF-8" standalone="no"?>
<!DOCTYPE svg PUBLIC "-//W3C//DTD SVG 1.1//EN" "http://www.w3.org/Graphics/SVG/1.1/DTD/svg11.dtd">
<svg xmlns="http://www.w3.org/2000/svg" version="1.1" viewBox="0.00 0.00 250.00 220.00">
<path fill="#0c2c65" d="
  M 78.32 4.30
  C 75.28 5.48 74.44 9.49 75.72 12.19
  C 77.03 14.93 83.72 18.02 86.42 19.55
  C 92.67 23.08 93.00 32.51 86.18 35.42
  Q 79.77 38.16 71.95 34.90
  Q 71.50 34.71 71.50 34.22
  L 71.50 31.75
  Q 71.50 30.98 72.16 31.39
  C 75.83 33.72 83.78 35.44 86.75 31.33
  C 92.31 23.66 77.93 19.34 74.07 15.59
  C 71.15 12.75 70.92 8.05 73.26 4.94
  C 76.75 0.29 84.03 -0.10 89.25 1.61
  Q 89.75 1.77 89.75 2.30
  L 89.75 4.49
  Q 89.75 5.24 89.08 4.91
  Q 83.63 2.23 78.32 4.30
  Z"
/>
<path fill="#0c2c65" d="
  M 43.34 25.99
  L 39.98 35.42
  Q 39.73 36.11 39.01 36.03
  L 36.89 35.79
  Q 36.22 35.72 36.46 35.09
  L 49.05 2.49
  Q 49.23 2.02 49.64 1.74
  C 51.31 0.60 52.67 1.28 53.36 3.09
  Q 59.45 19.14 65.62 35.15
  Q 65.85 35.75 65.21 35.75
  L 62.73 35.75
  Q 62.17 35.75 61.99 35.23
  L 58.68 26.12
  Q 58.46 25.50 57.80 25.50
  L 44.04 25.50
  Q 43.51 25.50 43.34 25.99
  Z
  M 44.80 22.36
  A 0.31 0.31 0.0 0 0 45.09 22.78
  L 56.93 22.72
  A 0.31 0.31 0.0 0 0 57.22 22.30
  L 51.21 6.18
  A 0.31 0.31 0.0 0 0 50.63 6.18
  L 44.80 22.36
  Z"
/>
<path fill="#0c2c65" d="
  M 159.07 30.03
  L 158.89 1.89
  Q 158.88 1.23 159.55 1.30
  L 161.66 1.51
  Q 162.25 1.57 162.25 2.16
  L 162.25 34.98
  Q 162.25 35.49 161.79 35.71
  Q 160.28 36.40 158.77 35.46
  Q 158.41 35.24 158.17 34.90
  L 138.61 6.80
  A 0.20 0.20 0.0 0 0 138.25 6.91
  L 138.25 35.38
  Q 138.25 36.08 137.55 35.99
  L 135.60 35.71
  Q 135.00 35.63 135.00 35.03
  L 135.00 2.28
  Q 135.00 1.50 135.78 1.50
  L 138.08 1.50
  Q 138.72 1.50 139.08 2.02
  L 158.59 30.18
  Q 159.08 30.87 159.07 30.03
  Z"
/>
<path fill="#0c2c65" d="
  M 176.05 33.00
  L 189.55 33.00
  A 0.55 0.55 0.0 0 1 190.10 33.48
  L 190.30 35.13
  A 0.55 0.55 0.0 0 1 189.75 35.75
  L 172.80 35.75
  A 0.55 0.55 0.0 0 1 172.25 35.20
  L 172.25 2.02
  A 0.55 0.55 0.0 0 1 172.80 1.47
  L 188.77 1.45
  A 0.55 0.55 0.0 0 1 189.32 2.03
  L 189.22 3.73
  A 0.55 0.55 0.0 0 1 188.67 4.25
  L 176.05 4.25
  A 0.55 0.55 0.0 0 0 175.50 4.80
  L 175.51 16.70
  A 0.55 0.55 0.0 0 0 176.06 17.25
  L 187.70 17.25
  A 0.55 0.55 0.0 0 1 188.25 17.80
  L 188.25 19.45
  A 0.55 0.55 0.0 0 1 187.70 20.00
  L 176.05 20.00
  A 0.55 0.55 0.0 0 0 175.50 20.55
  L 175.50 32.45
  A 0.55 0.55 0.0 0 0 176.05 33.00
  Z"
/>
<path fill="#0c2c65" d="
  M 203.89 4.27
  L 195.15 4.21
  Q 194.54 4.20 194.52 3.59
  L 194.49 2.10
  Q 194.48 1.42 195.15 1.42
  L 217.47 1.47
  A 0.75 0.75 0.0 0 1 218.19 2.41
  Q 217.75 4.05 216.93 4.11
  Q 212.55 4.44 208.42 4.06
  Q 207.84 4.01 207.84 4.60
  L 207.86 35.33
  Q 207.86 35.81 207.38 35.85
  L 205.19 36.05
  Q 204.50 36.12 204.50 35.43
  L 204.50 4.89
  Q 204.50 4.27 203.89 4.27
  Z"
/>
<path fill="#0c2c65" d="
  M 103.16 23.25
  L 103.29 35.30
  Q 103.30 35.90 102.70 35.88
  L 100.37 35.78
  Q 99.75 35.75 99.75 35.12
  L 99.75 2.00
  Q 99.75 1.50 100.26 1.50
  C 104.84 1.51 110.91 0.82 114.75 2.58
  C 123.04 6.40 121.50 18.45 113.50 21.75
  C 110.69 22.90 107.03 22.80 103.66 22.75
  Q 103.16 22.74 103.16 23.25
  Z
  M 103.20 4.38
  L 103.22 19.72
  A 0.23 0.23 0.0 0 0 103.45 19.95
  L 109.09 19.94
  A 7.69 7.13 -0.1 0 0 116.77 12.80
  L 116.77 11.26
  A 7.69 7.13 -0.1 0 0 109.07 4.14
  L 103.43 4.15
  A 0.23 0.23 0.0 0 0 103.20 4.38
  Z"
/>
<circle fill="#0c2c65" cx="124.21" cy="34.12" r="2.37"/>
<path fill="#0c2c65" d="
  M 10.56 143.04
  C 15.03 204.62 87.60 233.18 132.55 190.02
  A 0.59 0.59 0.0 0 1 133.38 190.04
  L 138.57 195.53
  A 0.79 0.79 0.0 0 1 138.54 196.65
  Q 114.68 219.12 82.74 219.61
  C 26.22 220.49 -11.33 166.07 4.52 113.27
  C 22.00 55.03 94.84 36.77 138.56 79.23
  Q 139.00 79.65 138.59 80.10
  L 133.48 85.72
  Q 133.02 86.22 132.53 85.75
  C 83.84 39.63 5.68 75.84 10.56 143.04
  Z"
/>
<path fill="#0c2c65" d="
  M 194.90 142.07
  C 194.48 172.11 223.99 178.83 244.30 162.60
  A 0.58 0.58 0.0 0 1 245.24 163.06
  L 245.25 170.74
  A 1.83 1.83 0.0 0 1 244.41 172.28
  Q 234.18 178.78 222.23 179.47
  C 199.63 180.78 187.44 167.15 185.07 146.45
  C 182.10 120.54 199.25 93.45 228.76 100.99
  C 245.79 105.33 251.21 125.61 249.51 141.01
  Q 249.46 141.49 248.98 141.49
  L 195.48 141.50
  Q 194.90 141.50 194.90 142.07
  Z
  M 239.71 132.34
  C 240.58 99.08 198.40 101.37 195.32 132.46
  A 0.49 0.49 0.0 0 0 195.81 133.00
  L 239.04 133.00
  Q 239.70 133.00 239.71 132.34
  Z"
/>
<path fill="#0c2c65" d="
  M 148.83 116.96
  C 154.66 105.01 161.17 97.87 175.82 100.83
  A 1.47 1.47 0.0 0 1 177.00 102.27
  L 177.00 110.71
  A 0.40 0.40 0.0 0 1 176.43 111.07
  C 158.72 102.65 149.08 121.97 148.89 135.95
  Q 148.61 156.28 148.80 176.90
  Q 148.80 177.75 147.96 177.75
  L 139.63 177.75
  Q 139.00 177.75 139.00 177.13
  L 139.00 102.12
  Q 139.00 101.50 139.63 101.50
  L 147.97 101.50
  A 0.82 0.81 3.7 0 1 148.78 102.42
  C 148.19 107.34 149.29 111.92 148.18 116.73
  A 0.35 0.35 0.0 0 0 148.83 116.96
  Z"
/>
<path fill="#40ccf4" d="
  M 83.25 109.88
  C 117.00 110.76 115.76 169.90 77.83 166.67
  C 65.53 165.62 57.48 156.98 55.23 145.02
  C 51.61 125.82 62.72 109.34 83.25 109.88
  Z"
/>
</svg>
