<?xml version="1.0" encoding="UTF-8" standalone="no"?>
<!DOCTYPE svg PUBLIC "-//W3C//DTD SVG 1.1//EN" "http://www.w3.org/Graphics/SVG/1.1/DTD/svg11.dtd">
<svg xmlns="http://www.w3.org/2000/svg" version="1.1" viewBox="0.00 0.00 492.00 480.00">
<g stroke-width="2.00" fill="none" stroke-linecap="butt">
<path stroke="#934800" vector-effect="non-scaling-stroke" d="
  M 471.50 21.07
  A 0.57 0.57 0.0 0 0 470.93 20.50
  L 21.07 20.50
  A 0.57 0.57 0.0 0 0 20.50 21.07
  L 20.50 458.93
  A 0.57 0.57 0.0 0 0 21.07 459.50
  L 470.93 459.50
  A 0.57 0.57 0.0 0 0 471.50 458.93
  L 471.50 21.07"
/>
<path stroke="#934800" vector-effect="non-scaling-stroke" d="
  M 361.84 122.57
  A 18.92 18.92 0.0 0 0 342.92 103.65
  L 339.22 103.65
  A 18.92 18.92 0.0 0 0 320.30 122.57
  L 320.30 126.47
  A 18.92 18.92 0.0 0 0 339.22 145.39
  L 342.92 145.39
  A 18.92 18.92 0.0 0 0 361.84 126.47
  L 361.84 122.57"
/>
<path stroke="#934800" vector-effect="non-scaling-stroke" d="
  M 236.33 272.24
  L 253.21 333.97
  A 2.05 2.04 -8.1 0 0 255.21 335.47
  L 290.01 335.17
  A 1.91 1.91 0.0 0 0 291.83 332.72
  L 226.26 110.21
  A 1.35 1.35 0.0 0 0 224.97 109.25
  L 180.30 109.25
  A 0.93 0.93 0.0 0 0 179.37 110.19
  C 179.47 118.60 178.28 125.25 175.76 134.06
  Q 147.67 232.36 119.69 330.69
  Q 119.00 333.11 119.33 334.85
  Q 119.44 335.45 120.05 335.44
  L 153.39 335.21
  A 0.78 0.78 0.0 0 0 154.13 334.63
  L 170.69 272.09
  A 0.46 0.45 -82.5 0 1 171.13 271.75
  L 235.69 271.75
  Q 236.20 271.75 236.33 272.24"
/>
<path stroke="#934800" vector-effect="non-scaling-stroke" d="
  M 359.25 170.72
  A 2.17 2.17 0.0 0 0 357.08 168.55
  L 324.42 168.55
  A 2.17 2.17 0.0 0 0 322.25 170.72
  L 322.25 333.24
  A 2.17 2.17 0.0 0 0 324.42 335.41
  L 357.08 335.41
  A 2.17 2.17 0.0 0 0 359.25 333.24
  L 359.25 170.72"
/>
<path stroke="#934800" vector-effect="non-scaling-stroke" d="
  M 180.22 238.50
  L 227.10 238.37
  Q 227.56 238.37 227.44 237.92
  L 203.27 143.00
  Q 203.15 142.51 202.98 142.99
  C 202.54 144.23 202.49 146.39 202.31 147.17
  Q 192.12 192.77 179.63 237.72
  A 0.61 0.61 0.0 0 0 180.22 238.50"
/>
</g>
<path fill="#ff7c00" d="
  M 0.00 0.00
  L 492.00 0.00
  L 492.00 480.00
  L 0.00 480.00
  L 0.00 0.00
  Z
  M 471.50 21.07
  A 0.57 0.57 0.0 0 0 470.93 20.50
  L 21.07 20.50
  A 0.57 0.57 0.0 0 0 20.50 21.07
  L 20.50 458.93
  A 0.57 0.57 0.0 0 0 21.07 459.50
  L 470.93 459.50
  A 0.57 0.57 0.0 0 0 471.50 458.93
  L 471.50 21.07
  Z"
/>
<path fill="#261300" d="
  M 471.50 458.93
  A 0.57 0.57 0.0 0 1 470.93 459.50
  L 21.07 459.50
  A 0.57 0.57 0.0 0 1 20.50 458.93
  L 20.50 21.07
  A 0.57 0.57 0.0 0 1 21.07 20.50
  L 470.93 20.50
  A 0.57 0.57 0.0 0 1 471.50 21.07
  L 471.50 458.93
  Z
  M 361.84 122.57
  A 18.92 18.92 0.0 0 0 342.92 103.65
  L 339.22 103.65
  A 18.92 18.92 0.0 0 0 320.30 122.57
  L 320.30 126.47
  A 18.92 18.92 0.0 0 0 339.22 145.39
  L 342.92 145.39
  A 18.92 18.92 0.0 0 0 361.84 126.47
  L 361.84 122.57
  Z
  M 236.33 272.24
  L 253.21 333.97
  A 2.05 2.04 -8.1 0 0 255.21 335.47
  L 290.01 335.17
  A 1.91 1.91 0.0 0 0 291.83 332.72
  L 226.26 110.21
  A 1.35 1.35 0.0 0 0 224.97 109.25
  L 180.30 109.25
  A 0.93 0.93 0.0 0 0 179.37 110.19
  C 179.47 118.60 178.28 125.25 175.76 134.06
  Q 147.67 232.36 119.69 330.69
  Q 119.00 333.11 119.33 334.85
  Q 119.44 335.45 120.05 335.44
  L 153.39 335.21
  A 0.78 0.78 0.0 0 0 154.13 334.63
  L 170.69 272.09
  A 0.46 0.45 -82.5 0 1 171.13 271.75
  L 235.69 271.75
  Q 236.20 271.75 236.33 272.24
  Z
  M 359.25 170.72
  A 2.17 2.17 0.0 0 0 357.08 168.55
  L 324.42 168.55
  A 2.17 2.17 0.0 0 0 322.25 170.72
  L 322.25 333.24
  A 2.17 2.17 0.0 0 0 324.42 335.41
  L 357.08 335.41
  A 2.17 2.17 0.0 0 0 359.25 333.24
  L 359.25 170.72
  Z"
/>
<rect fill="#ff7c00" x="320.30" y="103.65" width="41.54" height="41.74" rx="18.92"/>
<path fill="#ff7c00" d="
  M 235.69 271.75
  L 171.13 271.75
  A 0.46 0.45 -82.5 0 0 170.69 272.09
  L 154.13 334.63
  A 0.78 0.78 0.0 0 1 153.39 335.21
  L 120.05 335.44
  Q 119.44 335.45 119.33 334.85
  Q 119.00 333.11 119.69 330.69
  Q 147.67 232.36 175.76 134.06
  C 178.28 125.25 179.47 118.60 179.37 110.19
  A 0.93 0.93 0.0 0 1 180.30 109.25
  L 224.97 109.25
  A 1.35 1.35 0.0 0 1 226.26 110.21
  L 291.83 332.72
  A 1.91 1.91 0.0 0 1 290.01 335.17
  L 255.21 335.47
  A 2.05 2.04 -8.1 0 1 253.21 333.97
  L 236.33 272.24
  Q 236.20 271.75 235.69 271.75
  Z
  M 180.22 238.50
  L 227.10 238.37
  Q 227.56 238.37 227.44 237.92
  L 203.27 143.00
  Q 203.15 142.51 202.98 142.99
  C 202.54 144.23 202.49 146.39 202.31 147.17
  Q 192.12 192.77 179.63 237.72
  A 0.61 0.61 0.0 0 0 180.22 238.50
  Z"
/>
<path fill="#261300" d="
  M 227.10 238.37
  L 180.22 238.50
  A 0.61 0.61 0.0 0 1 179.63 237.72
  Q 192.12 192.77 202.31 147.17
  C 202.49 146.39 202.54 144.23 202.98 142.99
  Q 203.15 142.51 203.27 143.00
  L 227.44 237.92
  Q 227.56 238.37 227.10 238.37
  Z"
/>
<rect fill="#ff7c00" x="322.25" y="168.55" width="37.00" height="166.86" rx="2.17"/>
</svg>
