<?xml version="1.0" encoding="UTF-8" standalone="no"?>
<!DOCTYPE svg PUBLIC "-//W3C//DTD SVG 1.1//EN" "http://www.w3.org/Graphics/SVG/1.1/DTD/svg11.dtd">
<svg xmlns="http://www.w3.org/2000/svg" version="1.1" viewBox="0.00 0.00 800.00 800.00">
<g stroke-width="2.00" fill="none" stroke-linecap="butt">
<path stroke="#fbc98d" vector-effect="non-scaling-stroke" d="
  M 521.62 408.28
  Q 520.00 407.47 521.76 407.04
  C 558.10 398.08 575.72 368.76 577.26 333.00
  C 579.44 281.88 529.97 255.96 488.83 242.31
  Q 488.38 242.16 488.50 241.70
  L 506.20 170.66
  A 0.74 0.74 0.0 0 0 505.66 169.77
  L 463.24 159.22
  A 0.77 0.77 0.0 0 0 462.30 159.78
  L 445.08 228.72
  Q 444.97 229.15 444.54 229.05
  L 410.35 221.01
  A 0.51 0.51 0.0 0 1 409.97 220.39
  L 427.31 150.92
  Q 427.47 150.29 426.84 150.13
  L 384.00 139.45
  A 0.42 0.42 0.0 0 0 383.49 139.76
  L 365.81 210.53
  A 1.12 1.11 14.1 0 1 364.46 211.33
  L 277.65 189.62
  Q 277.11 189.48 276.98 190.02
  L 265.51 235.97
  Q 265.39 236.43 265.87 236.54
  Q 280.15 239.76 294.34 243.34
  C 309.83 247.26 321.05 256.32 316.64 274.11
  Q 293.46 367.47 270.12 460.80
  C 265.14 480.69 256.52 479.89 238.13 475.37
  Q 227.72 472.80 217.29 469.97
  A 0.94 0.93 19.3 0 0 216.19 470.49
  L 194.83 519.70
  A 0.28 0.28 0.0 0 0 195.02 520.09
  L 282.60 542.13
  A 0.52 0.52 0.0 0 1 282.97 542.76
  L 265.03 614.83
  Q 264.91 615.31 265.39 615.43
  L 308.22 626.08
  Q 308.76 626.22 308.90 625.68
  L 326.70 554.43
  A 0.27 0.26 -74.7 0 1 327.02 554.24
  L 361.14 563.03
  Q 361.69 563.17 361.55 563.71
  L 343.99 634.24
  Q 343.81 634.95 344.52 635.13
  L 387.06 645.75
  A 0.67 0.67 0.0 0 0 387.87 645.26
  L 405.72 573.72
  A 0.67 0.67 0.0 0 1 406.49 573.22
  C 459.62 583.13 524.05 588.20 553.33 530.81
  C 562.43 512.98 568.80 491.24 567.75 471.25
  C 566.22 441.97 546.87 420.93 521.62 408.28"
/>
<path stroke="#fbc98d" vector-effect="non-scaling-stroke" d="
  M 376.71 360.46
  C 406.32 368.94 475.51 388.66 489.04 344.64
  C 504.56 294.13 430.72 279.79 398.57 273.02
  A 0.65 0.64 -77.1 0 0 397.81 273.50
  L 376.33 359.79
  Q 376.20 360.31 376.71 360.46"
/>
<path stroke="#fbc98d" vector-effect="non-scaling-stroke" d="
  M 341.37 501.24
  C 374.93 510.62 468.93 537.88 476.89 478.90
  C 483.83 427.42 399.62 412.30 365.90 404.89
  Q 365.12 404.72 364.93 405.50
  L 341.13 500.83
  A 0.34 0.34 0.0 0 0 341.37 501.24"
/>
</g>
<path fill="#f7931a" d="
  M 391.56 0.00
  L 407.81 0.00
  C 625.61 6.00 796.28 178.83 800.00 395.81
  L 800.00 400.06
  C 798.52 537.31 731.05 663.30 615.08 737.07
  Q 519.44 797.91 404.44 800.00
  L 394.19 800.00
  C 176.74 795.30 3.34 622.30 0.00 404.44
  L 0.00 396.19
  C 3.90 179.50 173.91 5.82 391.56 0.00
  Z
  M 521.62 408.28
  Q 520.00 407.47 521.76 407.04
  C 558.10 398.08 575.72 368.76 577.26 333.00
  C 579.44 281.88 529.97 255.96 488.83 242.31
  Q 488.38 242.16 488.50 241.70
  L 506.20 170.66
  A 0.74 0.74 0.0 0 0 505.66 169.77
  L 463.24 159.22
  A 0.77 0.77 0.0 0 0 462.30 159.78
  L 445.08 228.72
  Q 444.97 229.15 444.54 229.05
  L 410.35 221.01
  A 0.51 0.51 0.0 0 1 409.97 220.39
  L 427.31 150.92
  Q 427.47 150.29 426.84 150.13
  L 384.00 139.45
  A 0.42 0.42 0.0 0 0 383.49 139.76
  L 365.81 210.53
  A 1.12 1.11 14.1 0 1 364.46 211.33
  L 277.65 189.62
  Q 277.11 189.48 276.98 190.02
  L 265.51 235.97
  Q 265.39 236.43 265.87 236.54
  Q 280.15 239.76 294.34 243.34
  C 309.83 247.26 321.05 256.32 316.64 274.11
  Q 293.46 367.47 270.12 460.80
  C 265.14 480.69 256.52 479.89 238.13 475.37
  Q 227.72 472.80 217.29 469.97
  A 0.94 0.93 19.3 0 0 216.19 470.49
  L 194.83 519.70
  A 0.28 0.28 0.0 0 0 195.02 520.09
  L 282.60 542.13
  A 0.52 0.52 0.0 0 1 282.97 542.76
  L 265.03 614.83
  Q 264.91 615.31 265.39 615.43
  L 308.22 626.08
  Q 308.76 626.22 308.90 625.68
  L 326.70 554.43
  A 0.27 0.26 -74.7 0 1 327.02 554.24
  L 361.14 563.03
  Q 361.69 563.17 361.55 563.71
  L 343.99 634.24
  Q 343.81 634.95 344.52 635.13
  L 387.06 645.75
  A 0.67 0.67 0.0 0 0 387.87 645.26
  L 405.72 573.72
  A 0.67 0.67 0.0 0 1 406.49 573.22
  C 459.62 583.13 524.05 588.20 553.33 530.81
  C 562.43 512.98 568.80 491.24 567.75 471.25
  C 566.22 441.97 546.87 420.93 521.62 408.28
  Z"
/>
<path fill="#ffffff" d="
  M 521.62 408.28
  C 546.87 420.93 566.22 441.97 567.75 471.25
  C 568.80 491.24 562.43 512.98 553.33 530.81
  C 524.05 588.20 459.62 583.13 406.49 573.22
  A 0.67 0.67 0.0 0 0 405.72 573.72
  L 387.87 645.26
  A 0.67 0.67 0.0 0 1 387.06 645.75
  L 344.52 635.13
  Q 343.81 634.95 343.99 634.24
  L 361.55 563.71
  Q 361.69 563.17 361.14 563.03
  L 327.02 554.24
  A 0.27 0.26 -74.7 0 0 326.70 554.43
  L 308.90 625.68
  Q 308.76 626.22 308.22 626.08
  L 265.39 615.43
  Q 264.91 615.31 265.03 614.83
  L 282.97 542.76
  A 0.52 0.52 0.0 0 0 282.60 542.13
  L 195.02 520.09
  A 0.28 0.28 0.0 0 1 194.83 519.70
  L 216.19 470.49
  A 0.94 0.93 19.3 0 1 217.29 469.97
  Q 227.72 472.80 238.13 475.37
  C 256.52 479.89 265.14 480.69 270.12 460.80
  Q 293.46 367.47 316.64 274.11
  C 321.05 256.32 309.83 247.26 294.34 243.34
  Q 280.15 239.76 265.87 236.54
  Q 265.39 236.43 265.51 235.97
  L 276.98 190.02
  Q 277.11 189.48 277.65 189.62
  L 364.46 211.33
  A 1.12 1.11 14.1 0 0 365.81 210.53
  L 383.49 139.76
  A 0.42 0.42 0.0 0 1 384.00 139.45
  L 426.84 150.13
  Q 427.47 150.29 427.31 150.92
  L 409.97 220.39
  A 0.51 0.51 0.0 0 0 410.35 221.01
  L 444.54 229.05
  Q 444.97 229.15 445.08 228.72
  L 462.30 159.78
  A 0.77 0.77 0.0 0 1 463.24 159.22
  L 505.66 169.77
  A 0.74 0.74 0.0 0 1 506.20 170.66
  L 488.50 241.70
  Q 488.38 242.16 488.83 242.31
  C 529.97 255.96 579.44 281.88 577.26 333.00
  C 575.72 368.76 558.10 398.08 521.76 407.04
  Q 520.00 407.47 521.62 408.28
  Z
  M 376.71 360.46
  C 406.32 368.94 475.51 388.66 489.04 344.64
  C 504.56 294.13 430.72 279.79 398.57 273.02
  A 0.65 0.64 -77.1 0 0 397.81 273.50
  L 376.33 359.79
  Q 376.20 360.31 376.71 360.46
  Z
  M 341.37 501.24
  C 374.93 510.62 468.93 537.88 476.89 478.90
  C 483.83 427.42 399.62 412.30 365.90 404.89
  Q 365.12 404.72 364.93 405.50
  L 341.13 500.83
  A 0.34 0.34 0.0 0 0 341.37 501.24
  Z"
/>
<path fill="#f7931a" d="
  M 489.04 344.64
  C 475.51 388.66 406.32 368.94 376.71 360.46
  Q 376.20 360.31 376.33 359.79
  L 397.81 273.50
  A 0.65 0.64 -77.1 0 1 398.57 273.02
  C 430.72 279.79 504.56 294.13 489.04 344.64
  Z"
/>
<path fill="#f7931a" d="
  M 476.89 478.90
  C 468.93 537.88 374.93 510.62 341.37 501.24
  A 0.34 0.34 0.0 0 1 341.13 500.83
  L 364.93 405.50
  Q 365.12 404.72 365.90 404.89
  C 399.62 412.30 483.83 427.42 476.89 478.90
  Z"
/>
</svg>
