<?xml version="1.0" encoding="UTF-8" standalone="no"?>
<!DOCTYPE svg PUBLIC "-//W3C//DTD SVG 1.1//EN" "http://www.w3.org/Graphics/SVG/1.1/DTD/svg11.dtd">
<svg xmlns="http://www.w3.org/2000/svg" version="1.1" viewBox="0.00 0.00 431.00 512.00">
<path fill="#ee4323" d="
  M 188.42 172.53
  C 179.66 180.50 172.67 191.09 170.17 202.54
  C 166.22 220.61 173.83 236.27 185.76 250.01
  C 190.27 255.20 195.84 260.98 198.81 266.42
  C 209.23 285.48 199.35 307.22 176.56 308.01
  C 160.59 308.56 147.17 294.77 148.83 278.24
  Q 149.10 275.51 150.75 267.87
  Q 150.88 267.26 150.38 267.62
  C 128.81 282.68 112.21 305.17 109.31 331.82
  C 106.07 361.51 128.87 389.05 154.35 401.52
  A 0.10 0.10 0.0 0 1 154.28 401.71
  C 102.76 389.71 58.21 352.92 49.84 298.45
  C 38.75 226.30 86.49 165.52 136.09 120.34
  C 151.13 106.64 166.60 93.39 180.93 78.94
  C 198.98 60.74 221.70 26.65 206.83 0.76
  A 0.16 0.16 0.0 0 1 207.06 0.55
  C 236.06 22.50 259.86 61.68 249.16 99.44
  C 242.39 123.35 232.46 146.81 246.43 166.92
  C 254.05 177.89 265.88 182.16 278.76 178.56
  C 289.54 175.54 302.02 163.95 296.75 151.62
  Q 296.39 150.78 297.21 151.19
  C 323.39 164.33 347.45 183.71 363.70 208.55
  C 383.21 238.36 388.58 276.50 376.23 309.70
  C 358.28 357.96 309.20 389.68 260.68 401.63
  A 0.28 0.28 0.0 0 1 260.51 401.10
  C 291.27 388.99 316.33 362.87 316.33 328.20
  C 316.34 288.57 284.45 260.98 253.46 241.51
  Q 239.14 232.51 224.78 223.57
  C 209.14 213.84 181.87 195.19 188.71 172.71
  A 0.18 0.18 0.0 0 0 188.42 172.53
  Z"
/>
<path fill="#ee4323" d="
  M 331.03 458.50
  L 324.99 458.50
  Q 324.29 458.50 324.38 457.81
  L 325.27 451.19
  Q 325.36 450.50 326.06 450.50
  L 330.77 450.50
  Q 331.81 450.50 331.95 449.47
  L 333.73 436.75
  Q 333.82 436.12 334.43 435.92
  L 344.37 432.70
  Q 344.96 432.51 344.87 433.12
  L 342.56 450.00
  Q 342.49 450.50 342.99 450.50
  L 356.27 450.50
  Q 357.12 450.50 356.77 451.28
  L 353.71 458.02
  Q 353.49 458.50 352.97 458.50
  L 341.98 458.50
  Q 341.34 458.50 341.25 459.13
  Q 339.74 469.67 338.02 480.26
  C 336.99 486.69 346.30 483.72 349.22 481.84
  Q 349.66 481.56 349.98 481.96
  L 354.27 487.24
  Q 354.63 487.69 354.16 488.03
  C 347.59 492.88 331.41 496.42 327.88 486.15
  C 326.01 480.70 329.16 467.97 330.16 461.41
  Q 330.23 460.94 330.66 460.74
  Q 331.54 460.32 331.71 459.30
  Q 331.85 458.50 331.03 458.50
  Z"
/>
<path fill="#ee4323" d="
  M 0.00 472.69
  L 0.00 468.19
  C 0.56 458.57 3.66 444.50 11.86 438.39
  C 19.64 432.60 33.94 431.33 41.81 437.11
  Q 49.50 442.75 48.23 454.05
  Q 48.18 454.50 47.73 454.50
  L 41.26 454.50
  Q 40.68 454.50 40.72 453.92
  C 41.08 448.33 39.56 443.36 33.55 442.16
  C 14.42 438.31 10.29 458.81 10.90 472.47
  C 11.65 489.50 30.86 485.29 37.08 474.83
  Q 37.38 474.33 37.86 474.65
  L 44.41 479.05
  A 0.60 0.59 -56.2 0 1 44.57 479.88
  Q 34.31 495.02 15.76 492.04
  C 4.12 490.17 1.54 483.35 0.00 472.69
  Z"
/>
<path fill="#ee4323" d="
  M 309.72 433.72
  C 311.37 434.74 316.23 434.26 320.18 434.15
  Q 320.76 434.14 320.67 434.71
  L 319.00 445.79
  Q 318.93 446.25 318.46 446.25
  L 308.52 446.25
  Q 307.52 446.25 307.64 445.26
  L 309.01 434.06
  Q 309.10 433.34 309.72 433.72
  Z"
/>
<path fill="#ee4323" d="
  M 123.47 449.74
  L 125.99 434.84
  Q 126.08 434.26 126.66 434.26
  L 136.07 434.23
  A 0.47 0.47 0.0 0 1 136.54 434.77
  L 127.86 494.46
  Q 127.79 494.95 127.30 494.96
  L 120.65 495.09
  Q 120.14 495.10 120.06 494.60
  L 119.45 490.99
  Q 119.38 490.53 118.95 490.71
  C 108.51 495.08 93.13 493.37 91.81 479.29
  Q 90.67 467.26 95.15 458.67
  C 100.43 448.54 112.74 445.24 122.88 450.05
  Q 123.38 450.29 123.47 449.74
  Z
  M 105.00 460.76
  C 102.68 466.07 97.61 484.36 108.76 484.45
  Q 113.92 484.49 118.10 482.05
  Q 118.51 481.81 118.58 481.33
  L 122.02 457.78
  Q 122.08 457.33 121.67 457.13
  C 116.22 454.59 107.91 454.12 105.00 460.76
  Z"
/>
<path fill="#ee4323" d="
  M 195.19 487.00
  L 199.88 487.00
  A 0.52 0.52 0.0 0 1 200.39 487.58
  L 199.58 494.76
  A 0.52 0.52 0.0 0 1 199.07 495.22
  L 177.59 495.26
  A 0.52 0.52 0.0 0 1 177.07 494.68
  L 177.87 487.46
  A 0.52 0.52 0.0 0 1 178.39 487.00
  L 183.44 487.00
  A 0.52 0.52 0.0 0 0 183.95 486.56
  L 190.21 446.89
  A 0.52 0.52 0.0 0 0 189.70 446.28
  L 184.97 446.32
  A 0.52 0.52 0.0 0 1 184.45 445.73
  L 185.29 438.71
  A 0.52 0.52 0.0 0 1 185.80 438.25
  L 207.20 438.25
  A 0.52 0.52 0.0 0 1 207.72 438.83
  L 206.88 445.90
  A 0.52 0.52 0.0 0 1 206.34 446.36
  L 201.43 446.20
  A 0.52 0.52 0.0 0 0 200.90 446.64
  L 194.67 486.40
  A 0.52 0.52 0.0 0 0 195.19 487.00
  Z"
/>
<path fill="#ee4323" d="
  M 431.00 448.31
  L 431.00 449.06
  L 429.71 456.63
  Q 429.62 457.14 429.11 457.17
  C 423.92 457.51 420.63 457.18 415.51 460.39
  Q 415.14 460.62 415.08 461.05
  L 410.50 494.60
  Q 410.42 495.17 409.84 495.18
  L 400.41 495.27
  Q 399.73 495.28 399.83 494.61
  L 405.82 451.17
  Q 405.91 450.50 406.59 450.50
  L 414.32 450.50
  Q 414.95 450.50 414.97 451.13
  L 415.01 452.26
  Q 415.05 453.24 415.75 452.55
  C 420.06 448.36 425.08 446.01 431.00 448.31
  Z"
/>
<path fill="#ee4323" d="
  M 88.75 468.25
  C 87.06 480.44 83.55 489.95 70.22 492.26
  C 49.72 495.81 45.19 479.47 50.01 463.19
  C 52.70 454.13 58.55 448.18 68.12 447.49
  C 82.43 446.45 90.84 453.16 88.75 468.25
  Z
  M 76.57 476.27
  C 78.09 471.24 81.31 457.46 73.07 456.07
  Q 62.76 454.32 60.24 465.44
  C 59.06 470.69 56.38 482.39 63.66 483.86
  Q 73.67 485.87 76.57 476.27
  Z"
/>
<path fill="#ee4323" d="
  M 146.67 475.31
  C 145.06 480.46 147.86 483.69 152.95 484.18
  Q 160.42 484.89 165.17 478.82
  Q 165.57 478.31 166.16 478.55
  L 172.95 481.33
  Q 173.54 481.57 173.22 482.13
  C 167.73 491.62 156.63 494.17 146.50 491.72
  C 132.32 488.30 135.03 468.96 139.24 459.20
  C 143.63 449.00 153.01 446.68 163.19 447.61
  C 176.41 448.81 177.39 464.70 175.20 474.35
  Q 175.11 474.75 174.71 474.75
  L 147.44 474.75
  A 0.81 0.81 0.0 0 0 146.67 475.31
  Z
  M 164.80 466.75
  Q 165.49 466.75 165.49 466.06
  C 165.52 464.16 165.80 461.68 164.91 459.98
  C 162.49 455.31 156.98 455.48 153.29 458.51
  Q 149.74 461.41 148.33 466.20
  Q 148.16 466.75 148.74 466.75
  L 164.80 466.75
  Z"
/>
<path fill="#ee4323" d="
  M 267.88 453.02
  Q 271.25 450.47 274.05 449.04
  C 285.52 443.16 294.44 451.97 293.09 463.68
  Q 291.32 479.17 289.10 494.61
  Q 289.02 495.19 288.44 495.19
  L 279.13 495.12
  Q 278.50 495.12 278.59 494.49
  Q 280.48 480.30 282.21 466.17
  C 283.98 451.58 274.73 456.81 267.49 460.87
  Q 267.00 461.14 266.92 461.70
  L 262.45 494.68
  Q 262.37 495.24 261.81 495.23
  L 252.31 495.03
  Q 251.80 495.02 251.87 494.51
  L 257.82 451.17
  Q 257.92 450.50 258.59 450.50
  L 266.26 450.50
  Q 266.84 450.50 266.92 451.08
  L 267.16 452.72
  Q 267.27 453.48 267.88 453.02
  Z"
/>
<path fill="#ee4323" d="
  M 367.30 475.39
  C 367.09 479.27 366.98 482.72 371.50 483.75
  Q 378.35 485.31 383.61 481.40
  C 384.47 480.76 385.14 479.52 386.15 478.73
  Q 386.56 478.42 387.04 478.61
  L 393.79 481.30
  A 0.54 0.54 0.0 0 1 394.06 482.07
  C 388.21 492.13 371.91 496.43 362.37 489.28
  C 356.07 484.56 356.01 475.38 357.31 468.22
  C 359.11 458.30 362.98 450.39 373.79 448.07
  C 393.57 443.84 399.40 457.70 396.02 474.32
  Q 395.93 474.75 395.49 474.75
  L 367.97 474.75
  Q 367.33 474.75 367.30 475.39
  Z
  M 382.25 456.77
  C 376.05 454.38 370.71 460.63 369.19 466.32
  Q 369.08 466.75 369.52 466.75
  L 385.75 466.75
  Q 386.24 466.75 386.34 466.26
  C 387.07 462.55 386.12 458.26 382.25 456.77
  Z"
/>
<path fill="#ee4323" d="
  M 246.43 457.73
  C 249.76 473.73 236.43 479.96 223.01 478.63
  Q 220.13 478.34 217.57 478.22
  A 1.24 1.23 -84.7 0 0 216.28 479.30
  C 216.11 480.53 216.75 481.27 217.99 481.48
  Q 228.91 483.38 236.98 485.23
  C 242.23 486.44 245.50 490.18 245.17 495.75
  C 244.74 502.85 240.47 507.01 233.65 509.02
  C 225.63 511.39 207.92 512.25 203.14 503.33
  C 199.59 496.72 202.80 488.85 208.78 484.80
  Q 209.23 484.50 209.00 484.02
  Q 206.14 477.93 211.97 474.73
  Q 212.43 474.47 212.15 474.02
  C 206.27 464.66 211.12 453.75 220.47 449.96
  Q 231.30 445.57 241.76 451.35
  Q 242.22 451.60 242.73 451.47
  Q 248.57 449.98 254.59 450.61
  Q 255.26 450.68 255.04 451.31
  L 252.69 457.88
  Q 252.51 458.36 252.01 458.44
  Q 249.24 458.88 247.01 457.34
  Q 246.24 456.81 246.43 457.73
  Z
  M 236.53 462.62
  C 237.40 452.41 221.48 453.65 220.28 463.52
  C 219.03 473.93 235.66 472.81 236.53 462.62
  Z
  M 228.18 491.05
  C 224.26 490.19 220.16 489.53 216.18 488.85
  Q 215.70 488.77 215.34 489.10
  C 210.98 493.11 210.31 501.18 217.99 502.01
  C 222.54 502.49 232.38 503.09 234.16 497.68
  C 235.95 492.23 232.43 491.97 228.18 491.05
  Z"
/>
<path fill="#ee4323" d="
  M 305.74 458.50
  L 299.97 458.50
  Q 299.44 458.50 299.50 457.97
  L 300.37 451.06
  Q 300.44 450.50 301.01 450.50
  L 317.49 450.50
  Q 318.03 450.50 317.96 451.03
  Q 314.68 475.24 313.61 481.81
  Q 313.17 484.50 314.03 486.42
  Q 314.28 487.00 314.91 487.00
  L 317.82 487.00
  Q 318.40 487.00 318.32 487.58
  L 317.35 494.48
  Q 317.26 495.08 316.65 495.08
  C 307.64 495.06 301.29 494.00 302.76 482.73
  Q 304.31 470.88 306.19 459.03
  Q 306.28 458.50 305.74 458.50
  Z"
/>
</svg>
