<?xml version="1.0" encoding="UTF-8" standalone="no"?>
<!DOCTYPE svg PUBLIC "-//W3C//DTD SVG 1.1//EN" "http://www.w3.org/Graphics/SVG/1.1/DTD/svg11.dtd">
<svg xmlns="http://www.w3.org/2000/svg" version="1.1" viewBox="0.00 0.00 271.00 305.00">
<g stroke-width="2.00" fill="none" stroke-linecap="butt">
<path stroke="#8c35a2" vector-effect="non-scaling-stroke" d="
  M 266.79 76.75
  L 214.60 106.70
  Q 214.18 106.94 213.70 106.98
  Q 213.20 107.02 212.79 107.25"
/>
<path stroke="#ca9ed5" vector-effect="non-scaling-stroke" d="
  M 212.79 107.25
  Q 206.52 98.32 204.68 96.08
  C 155.84 36.83 60.72 61.92 46.96 137.25"
/>
<path stroke="#7f2f93" vector-effect="non-scaling-stroke" d="
  M 46.96 137.25
  Q 43.45 152.16 46.78 169.25
  Q 48.83 179.73 52.01 186.30"
/>
<path stroke="#ca9ed5" vector-effect="non-scaling-stroke" d="
  M 52.01 186.30
  L 56.54 196.00"
/>
<path stroke="#7f2f93" vector-effect="non-scaling-stroke" d="
  M 56.54 196.00
  L 56.70 197.00
  Q 56.77 197.50 56.33 197.76
  L 3.50 228.29"
/>
<path stroke="#c095cb" vector-effect="non-scaling-stroke" d="
  M 212.79 107.25
  L 174.25 129.96"
/>
<path stroke="#b390bc" vector-effect="non-scaling-stroke" d="
  M 174.25 129.96
  L 173.29 129.50"
/>
<path stroke="#ca9ed5" vector-effect="non-scaling-stroke" d="
  M 173.29 129.50
  Q 162.54 112.12 142.29 108.75"
/>
<path stroke="#b390bc" vector-effect="non-scaling-stroke" d="
  M 142.29 108.75
  L 140.25 108.46"
/>
<path stroke="#ca9ed5" vector-effect="non-scaling-stroke" d="
  M 140.25 108.46
  C 103.94 103.79 78.93 142.55 96.15 174.56"
/>
<path stroke="#b390bc" vector-effect="non-scaling-stroke" d="
  M 96.15 174.56
  C 114.45 205.00 155.84 205.18 174.25 174.71"
/>
<path stroke="#c095cb" vector-effect="non-scaling-stroke" d="
  M 174.25 174.71
  L 213.00 197.04"
/>
<path stroke="#b390bc" vector-effect="non-scaling-stroke" d="
  M 213.00 197.04
  Q 213.08 197.51 212.89 197.82
  C 176.05 257.51 91.83 257.54 56.54 196.00"
/>
<path stroke="#b390bc" vector-effect="non-scaling-stroke" d="
  M 52.01 186.30
  Q 42.62 162.46 46.96 137.25"
/>
<path stroke="#752789" vector-effect="non-scaling-stroke" d="
  M 267.00 228.04
  L 213.00 197.04"
/>
<path stroke="#752789" vector-effect="non-scaling-stroke" d="
  M 174.25 174.71
  L 137.09 153.09
  A 0.86 0.86 0.0 0 1 137.16 151.56
  Q 142.15 149.23 146.21 146.25"
/>
<path stroke="#8c35a2" vector-effect="non-scaling-stroke" d="
  M 146.21 146.25
  L 172.75 130.96"
/>
<path stroke="#752789" vector-effect="non-scaling-stroke" d="
  M 172.75 130.96
  Q 174.12 131.05 174.25 129.96"
/>
<path stroke="#c095cb" vector-effect="non-scaling-stroke" d="
  M 241.06 134.50
  A 0.43 0.43 0.0 0 1 240.64 134.00
  L 242.45 123.68
  A 0.43 0.43 0.0 0 0 242.05 123.17
  L 235.14 122.92
  A 0.43 0.43 0.0 0 0 234.70 123.28
  L 232.91 134.14
  A 0.43 0.43 0.0 0 1 232.49 134.50
  L 221.44 134.50
  A 0.43 0.43 0.0 0 1 221.02 134.00
  L 222.82 123.66
  A 0.43 0.43 0.0 0 0 222.40 123.15
  L 215.53 122.94
  A 0.43 0.43 0.0 0 0 215.10 123.30
  L 213.24 134.14
  A 0.43 0.43 0.0 0 1 212.82 134.50
  L 204.93 134.50
  A 0.43 0.43 0.0 0 0 204.50 134.93
  L 204.50 141.57
  A 0.43 0.43 0.0 0 0 204.93 142.00
  L 211.37 142.00
  A 0.43 0.43 0.0 0 1 211.79 142.50
  L 209.73 154.39
  A 0.43 0.43 0.0 0 1 209.31 154.75
  L 202.43 154.75
  A 0.43 0.43 0.0 0 0 202.00 155.18
  L 202.00 161.82
  A 0.43 0.43 0.0 0 0 202.43 162.25
  L 207.89 162.25
  A 0.43 0.43 0.0 0 1 208.32 162.75
  L 206.49 173.50
  A 0.43 0.43 0.0 0 0 206.92 174.00
  L 213.81 174.00
  A 0.43 0.43 0.0 0 0 214.23 173.64
  L 216.08 162.61
  A 0.43 0.43 0.0 0 1 216.50 162.25
  L 227.46 162.25
  A 0.43 0.43 0.0 0 1 227.89 162.75
  L 226.15 173.50
  A 0.43 0.43 0.0 0 0 226.58 174.00
  L 233.44 174.00
  A 0.43 0.43 0.0 0 0 233.86 173.64
  L 235.69 162.61
  A 0.43 0.43 0.0 0 1 236.11 162.25
  L 244.07 162.25
  A 0.43 0.43 0.0 0 0 244.50 161.82
  L 244.50 155.18
  A 0.43 0.43 0.0 0 0 244.07 154.75
  L 237.59 154.75
  A 0.43 0.43 0.0 0 1 237.16 154.25
  L 239.17 142.36
  A 0.43 0.43 0.0 0 1 239.59 142.00
  L 246.65 142.00
  A 0.43 0.43 0.0 0 0 247.08 141.56
  L 246.96 134.92
  A 0.43 0.43 0.0 0 0 246.53 134.50
  L 241.06 134.50"
/>
<path stroke="#7f2f93" vector-effect="non-scaling-stroke" d="
  M 140.25 108.46
  Q 140.82 109.62 142.29 108.75"
/>
<path stroke="#7f2f93" vector-effect="non-scaling-stroke" d="
  M 173.29 129.50
  L 172.75 130.96"
/>
<path stroke="#7f2f93" vector-effect="non-scaling-stroke" d="
  M 146.21 146.25
  L 96.15 174.56"
/>
<path stroke="#c095cb" vector-effect="non-scaling-stroke" d="
  M 229.14 155.00
  A 0.44 0.44 0.0 0 0 229.57 154.63
  L 231.60 142.21
  A 0.44 0.44 0.0 0 0 231.15 141.70
  L 219.95 141.86
  A 0.44 0.44 0.0 0 0 219.52 142.23
  L 217.42 154.49
  A 0.44 0.44 0.0 0 0 217.85 155.00
  L 229.14 155.00"
/>
</g>
<path fill="#953dac" d="
  M 266.79 76.75
  L 214.60 106.70
  Q 214.18 106.94 213.70 106.98
  Q 213.20 107.02 212.79 107.25
  Q 206.52 98.32 204.68 96.08
  C 155.84 36.83 60.72 61.92 46.96 137.25
  Q 43.45 152.16 46.78 169.25
  Q 48.83 179.73 52.01 186.30
  L 56.54 196.00
  L 56.70 197.00
  Q 56.77 197.50 56.33 197.76
  L 3.50 228.29
  Q 0.28 222.45 0.00 215.69
  L 0.00 89.69
  C 0.68 74.82 8.87 69.76 20.70 62.96
  Q 69.66 34.80 118.57 6.59
  C 128.25 1.01 137.65 -1.53 148.04 4.44
  Q 202.40 35.67 256.70 67.03
  Q 263.27 70.82 266.79 76.75
  Z"
/>
<path fill="#fefefe" d="
  M 212.79 107.25
  L 174.25 129.96
  L 173.29 129.50
  Q 162.54 112.12 142.29 108.75
  L 140.25 108.46
  C 103.94 103.79 78.93 142.55 96.15 174.56
  C 114.45 205.00 155.84 205.18 174.25 174.71
  L 213.00 197.04
  Q 213.08 197.51 212.89 197.82
  C 176.05 257.51 91.83 257.54 56.54 196.00
  L 52.01 186.30
  Q 42.62 162.46 46.96 137.25
  C 60.72 61.92 155.84 36.83 204.68 96.08
  Q 206.52 98.32 212.79 107.25
  Z"
/>
<path fill="#822c98" d="
  M 266.79 76.75
  Q 270.09 82.71 270.12 90.69
  Q 270.34 152.85 270.20 215.00
  Q 270.19 222.54 267.00 228.04
  L 213.00 197.04
  L 174.25 174.71
  L 137.09 153.09
  A 0.86 0.86 0.0 0 1 137.16 151.56
  Q 142.15 149.23 146.21 146.25
  L 172.75 130.96
  Q 174.12 131.05 174.25 129.96
  L 212.79 107.25
  Q 213.20 107.02 213.70 106.98
  Q 214.18 106.94 214.60 106.70
  L 266.79 76.75
  Z
  M 241.06 134.50
  A 0.43 0.43 0.0 0 1 240.64 134.00
  L 242.45 123.68
  A 0.43 0.43 0.0 0 0 242.05 123.17
  L 235.14 122.92
  A 0.43 0.43 0.0 0 0 234.70 123.28
  L 232.91 134.14
  A 0.43 0.43 0.0 0 1 232.49 134.50
  L 221.44 134.50
  A 0.43 0.43 0.0 0 1 221.02 134.00
  L 222.82 123.66
  A 0.43 0.43 0.0 0 0 222.40 123.15
  L 215.53 122.94
  A 0.43 0.43 0.0 0 0 215.10 123.30
  L 213.24 134.14
  A 0.43 0.43 0.0 0 1 212.82 134.50
  L 204.93 134.50
  A 0.43 0.43 0.0 0 0 204.50 134.93
  L 204.50 141.57
  A 0.43 0.43 0.0 0 0 204.93 142.00
  L 211.37 142.00
  A 0.43 0.43 0.0 0 1 211.79 142.50
  L 209.73 154.39
  A 0.43 0.43 0.0 0 1 209.31 154.75
  L 202.43 154.75
  A 0.43 0.43 0.0 0 0 202.00 155.18
  L 202.00 161.82
  A 0.43 0.43 0.0 0 0 202.43 162.25
  L 207.89 162.25
  A 0.43 0.43 0.0 0 1 208.32 162.75
  L 206.49 173.50
  A 0.43 0.43 0.0 0 0 206.92 174.00
  L 213.81 174.00
  A 0.43 0.43 0.0 0 0 214.23 173.64
  L 216.08 162.61
  A 0.43 0.43 0.0 0 1 216.50 162.25
  L 227.46 162.25
  A 0.43 0.43 0.0 0 1 227.89 162.75
  L 226.15 173.50
  A 0.43 0.43 0.0 0 0 226.58 174.00
  L 233.44 174.00
  A 0.43 0.43 0.0 0 0 233.86 173.64
  L 235.69 162.61
  A 0.43 0.43 0.0 0 1 236.11 162.25
  L 244.07 162.25
  A 0.43 0.43 0.0 0 0 244.50 161.82
  L 244.50 155.18
  A 0.43 0.43 0.0 0 0 244.07 154.75
  L 237.59 154.75
  A 0.43 0.43 0.0 0 1 237.16 154.25
  L 239.17 142.36
  A 0.43 0.43 0.0 0 1 239.59 142.00
  L 246.65 142.00
  A 0.43 0.43 0.0 0 0 247.08 141.56
  L 246.96 134.92
  A 0.43 0.43 0.0 0 0 246.53 134.50
  L 241.06 134.50
  Z"
/>
<path fill="#953dac" d="
  M 140.25 108.46
  Q 140.82 109.62 142.29 108.75
  Q 162.54 112.12 173.29 129.50
  L 172.75 130.96
  L 146.21 146.25
  L 96.15 174.56
  C 78.93 142.55 103.94 103.79 140.25 108.46
  Z"
/>
<path fill="#68217a" d="
  M 140.25 108.46
  L 142.29 108.75
  Q 140.82 109.62 140.25 108.46
  Z"
/>
<path fill="#fefefe" d="
  M 241.06 134.50
  L 246.53 134.50
  A 0.43 0.43 0.0 0 1 246.96 134.92
  L 247.08 141.56
  A 0.43 0.43 0.0 0 1 246.65 142.00
  L 239.59 142.00
  A 0.43 0.43 0.0 0 0 239.17 142.36
  L 237.16 154.25
  A 0.43 0.43 0.0 0 0 237.59 154.75
  L 244.07 154.75
  A 0.43 0.43 0.0 0 1 244.50 155.18
  L 244.50 161.82
  A 0.43 0.43 0.0 0 1 244.07 162.25
  L 236.11 162.25
  A 0.43 0.43 0.0 0 0 235.69 162.61
  L 233.86 173.64
  A 0.43 0.43 0.0 0 1 233.44 174.00
  L 226.58 174.00
  A 0.43 0.43 0.0 0 1 226.15 173.50
  L 227.89 162.75
  A 0.43 0.43 0.0 0 0 227.46 162.25
  L 216.50 162.25
  A 0.43 0.43 0.0 0 0 216.08 162.61
  L 214.23 173.64
  A 0.43 0.43 0.0 0 1 213.81 174.00
  L 206.92 174.00
  A 0.43 0.43 0.0 0 1 206.49 173.50
  L 208.32 162.75
  A 0.43 0.43 0.0 0 0 207.89 162.25
  L 202.43 162.25
  A 0.43 0.43 0.0 0 1 202.00 161.82
  L 202.00 155.18
  A 0.43 0.43 0.0 0 1 202.43 154.75
  L 209.31 154.75
  A 0.43 0.43 0.0 0 0 209.73 154.39
  L 211.79 142.50
  A 0.43 0.43 0.0 0 0 211.37 142.00
  L 204.93 142.00
  A 0.43 0.43 0.0 0 1 204.50 141.57
  L 204.50 134.93
  A 0.43 0.43 0.0 0 1 204.93 134.50
  L 212.82 134.50
  A 0.43 0.43 0.0 0 0 213.24 134.14
  L 215.10 123.30
  A 0.43 0.43 0.0 0 1 215.53 122.94
  L 222.40 123.15
  A 0.43 0.43 0.0 0 1 222.82 123.66
  L 221.02 134.00
  A 0.43 0.43 0.0 0 0 221.44 134.50
  L 232.49 134.50
  A 0.43 0.43 0.0 0 0 232.91 134.14
  L 234.70 123.28
  A 0.43 0.43 0.0 0 1 235.14 122.92
  L 242.05 123.17
  A 0.43 0.43 0.0 0 1 242.45 123.68
  L 240.64 134.00
  A 0.43 0.43 0.0 0 0 241.06 134.50
  Z
  M 229.14 155.00
  A 0.44 0.44 0.0 0 0 229.57 154.63
  L 231.60 142.21
  A 0.44 0.44 0.0 0 0 231.15 141.70
  L 219.95 141.86
  A 0.44 0.44 0.0 0 0 219.52 142.23
  L 217.42 154.49
  A 0.44 0.44 0.0 0 0 217.85 155.00
  L 229.14 155.00
  Z"
/>
<path fill="#68217a" d="
  M 173.29 129.50
  L 174.25 129.96
  Q 174.12 131.05 172.75 130.96
  L 173.29 129.50
  Z"
/>
<path fill="#68217a" d="
  M 46.96 137.25
  Q 42.62 162.46 52.01 186.30
  Q 48.83 179.73 46.78 169.25
  Q 43.45 152.16 46.96 137.25
  Z"
/>
<path fill="#822c98" d="
  M 229.14 155.00
  L 217.85 155.00
  A 0.44 0.44 0.0 0 1 217.42 154.49
  L 219.52 142.23
  A 0.44 0.44 0.0 0 1 219.95 141.86
  L 231.15 141.70
  A 0.44 0.44 0.0 0 1 231.60 142.21
  L 229.57 154.63
  A 0.44 0.44 0.0 0 1 229.14 155.00
  Z"
/>
<path fill="#68217a" d="
  M 146.21 146.25
  Q 142.15 149.23 137.16 151.56
  A 0.86 0.86 0.0 0 0 137.09 153.09
  L 174.25 174.71
  C 155.84 205.18 114.45 205.00 96.15 174.56
  L 146.21 146.25
  Z"
/>
<path fill="#68217a" d="
  M 56.54 196.00
  C 91.83 257.54 176.05 257.51 212.89 197.82
  Q 213.08 197.51 213.00 197.04
  L 267.00 228.04
  Q 263.84 234.37 257.97 237.75
  Q 185.03 279.91 149.01 300.52
  C 136.10 307.91 127.32 303.97 114.42 296.53
  Q 66.37 268.85 18.28 241.25
  C 12.45 237.91 6.50 234.66 3.50 228.29
  L 56.33 197.76
  Q 56.77 197.50 56.70 197.00
  L 56.54 196.00
  Z"
/>
</svg>
