<?xml version="1.0" encoding="UTF-8" standalone="no"?>
<!DOCTYPE svg PUBLIC "-//W3C//DTD SVG 1.1//EN" "http://www.w3.org/Graphics/SVG/1.1/DTD/svg11.dtd">
<svg xmlns="http://www.w3.org/2000/svg" version="1.1" viewBox="0.00 0.00 1080.00 500.00">
<g stroke-width="2.00" fill="none" stroke-linecap="butt">
<path stroke="#0d6a8b" vector-effect="non-scaling-stroke" d="
  M 610.84 250.57
  L 540.00 329.21"
/>
<path stroke="#0d6a8b" vector-effect="non-scaling-stroke" d="
  M 469.04 250.50
  L 469.46 250.23
  Q 469.75 250.04 469.98 249.79
  L 541.00 171.04"
/>
<path stroke="#0d6a8b" vector-effect="non-scaling-stroke" d="
  M 384.96 77.25
  Q 383.34 79.52 384.54 82.00"
/>
<path stroke="#0d6a8b" vector-effect="non-scaling-stroke" d="
  M 270.53 57.76
  L 270.76 60.67
  Q 270.81 61.27 271.42 61.26
  L 273.29 61.23
  Q 274.10 61.22 274.08 60.41
  L 273.32 29.90
  Q 273.30 29.25 272.65 29.25
  L 270.38 29.25
  Q 269.75 29.25 269.75 29.87
  L 269.75 41.70
  A 0.37 0.37 0.0 0 1 269.11 41.95
  C 257.59 29.74 242.53 50.74 256.22 60.21
  Q 263.01 64.92 269.94 57.55
  Q 270.47 56.98 270.53 57.76"
/>
<path stroke="#0d6a8b" vector-effect="non-scaling-stroke" d="
  M 284.43 52.30
  L 300.40 54.18
  A 0.66 0.65 -82.4 0 0 301.13 53.62
  C 301.87 48.83 300.35 43.20 295.76 40.93
  C 283.45 34.83 273.54 53.25 284.26 61.14
  Q 290.66 65.83 298.85 61.08
  A 0.91 0.90 50.1 0 0 298.98 59.61
  L 297.67 58.49
  Q 297.19 58.09 296.68 58.46
  C 291.49 62.30 283.66 59.90 283.73 52.91
  Q 283.74 52.21 284.43 52.30"
/>
<path stroke="#0d6a8b" vector-effect="non-scaling-stroke" d="
  M 245.87 52.93
  A 11.81 11.81 0.0 0 0 234.06 41.12
  A 11.81 11.81 0.0 0 0 222.25 52.93
  A 11.81 11.81 0.0 0 0 234.06 64.74
  A 11.81 11.81 0.0 0 0 245.87 52.93"
/>
<path stroke="#0d6a8b" vector-effect="non-scaling-stroke" d="
  M 218.42 61.97
  C 214.21 69.38 203.53 67.93 202.53 59.24
  C 201.75 52.47 208.51 47.63 214.40 51.38
  Q 214.83 51.65 215.20 51.31
  Q 216.34 50.23 216.37 48.64
  Q 216.38 48.18 215.96 47.99
  Q 208.67 44.64 203.05 49.29
  C 194.15 56.67 200.33 71.13 211.74 70.27
  Q 217.66 69.82 220.81 63.83
  Q 221.07 63.33 220.64 62.97
  L 219.28 61.82
  Q 218.76 61.37 218.42 61.97"
/>
<path stroke="#0d6a8b" vector-effect="non-scaling-stroke" d="
  M 800.43 58.72
  L 800.54 61.21
  Q 800.57 61.98 801.31 61.78
  L 804.03 61.06
  Q 804.50 60.93 804.43 60.45
  L 799.98 30.17
  Q 799.91 29.67 799.42 29.77
  L 796.84 30.32
  Q 796.26 30.44 796.33 31.04
  L 797.74 41.99
  A 0.51 0.51 0.0 0 1 796.93 42.46
  Q 792.77 39.35 788.37 40.15
  C 776.23 42.36 777.68 61.12 788.78 63.30
  Q 795.38 64.59 799.56 58.47
  Q 800.37 57.27 800.43 58.72"
/>
<path stroke="#0d6a8b" vector-effect="non-scaling-stroke" d="
  M 872.8818 35.1783
  A 1.01 1.01 0.0 0 0 872.1081 33.9777
  L 870.2901 33.5846
  A 1.01 1.01 0.0 0 0 869.0895 34.3583
  L 862.7582 63.6417
  A 1.01 1.01 0.0 0 0 863.5319 64.8423
  L 865.3499 65.2354
  A 1.01 1.01 0.0 0 0 866.5505 64.4617
  L 872.8818 35.1783"
/>
<path stroke="#0d6a8b" vector-effect="non-scaling-stroke" d="
  M 813.24 51.10
  Q 813.50 50.76 813.93 50.75
  L 829.80 50.42
  Q 830.33 50.41 830.33 49.87
  Q 830.27 38.75 820.75 37.66
  C 807.53 36.15 804.63 55.56 815.55 60.01
  C 820.40 61.99 825.58 61.05 829.10 57.16
  Q 829.56 56.65 829.05 56.20
  L 827.75 55.05
  Q 827.26 54.62 826.77 55.05
  C 821.54 59.68 815.37 58.63 813.10 52.00
  Q 812.93 51.51 813.24 51.10"
/>
<path stroke="#0d6a8b" vector-effect="non-scaling-stroke" d="
  M 841.00 41.47
  L 841.00 38.99
  Q 841.00 38.23 840.24 38.24
  L 837.94 38.27
  Q 837.26 38.28 837.19 38.95
  L 834.20 66.79
  A 1.10 1.09 3.1 0 0 835.29 68.00
  L 837.70 68.00
  Q 838.16 68.00 838.19 67.54
  L 838.87 58.04
  A 0.37 0.37 0.0 0 1 839.52 57.83
  C 846.63 66.57 857.61 62.50 859.08 51.87
  C 860.43 42.15 849.73 34.31 841.76 41.80
  Q 841.00 42.51 841.00 41.47"
/>
<path stroke="#0d6a8b" vector-effect="non-scaling-stroke" d="
  M 898.47 59.12
  A 11.88 11.88 0.0 0 0 886.59 47.24
  A 11.88 11.88 0.0 0 0 874.71 59.12
  A 11.88 11.88 0.0 0 0 886.59 71.00
  A 11.88 11.88 0.0 0 0 898.47 59.12"
/>
<path stroke="#0d6a8b" vector-effect="non-scaling-stroke" d="
  M 908.13 75.26
  A 0.22 0.22 0.0 0 1 907.76 75.08
  Q 908.47 67.28 908.89 59.33
  C 909.03 56.50 909.67 54.33 905.72 54.17
  Q 905.32 54.16 905.31 54.55
  L 904.54 77.76
  Q 904.52 78.33 904.11 78.73
  Q 900.38 82.30 896.83 78.29
  Q 896.39 77.79 895.84 78.17
  L 894.17 79.33
  Q 893.61 79.72 894.05 80.23
  C 899.13 86.23 903.77 83.91 908.82 79.35
  Q 917.13 71.86 925.51 64.38
  Q 925.93 64.01 925.51 63.63
  C 923.87 62.15 922.36 62.08 920.64 63.69
  Q 914.44 69.49 908.13 75.26"
/>
<path stroke="#0d6a8b" vector-effect="non-scaling-stroke" d="
  M 262.7818 58.5326
  A 8.40 7.69 87.6 0 0 270.1133 49.8180
  A 8.40 7.69 87.6 0 0 262.0782 41.7474
  A 8.40 7.69 87.6 0 0 254.7467 50.4620
  A 8.40 7.69 87.6 0 0 262.7818 58.5326"
/>
<path stroke="#0d6a8b" vector-effect="non-scaling-stroke" d="
  M 792.4275 59.9276
  A 8.41 7.64 83.6 0 0 799.0824 50.7184
  A 8.41 7.64 83.6 0 0 790.5525 43.2124
  A 8.41 7.64 83.6 0 0 783.8976 52.4216
  A 8.41 7.64 83.6 0 0 792.4275 59.9276"
/>
<path stroke="#0d6a8b" vector-effect="non-scaling-stroke" d="
  M 812.83 47.87
  L 826.35 47.61
  A 0.20 0.20 0.0 0 0 826.54 47.41
  L 826.54 47.30
  A 6.81 6.67 -1.1 0 0 819.60 40.76
  L 819.30 40.76
  A 6.81 6.67 -1.1 0 0 812.62 47.56
  L 812.62 47.67
  A 0.20 0.20 0.0 0 0 812.83 47.87"
/>
<path stroke="#0d6a8b" vector-effect="non-scaling-stroke" d="
  M 846.3539 58.9356
  A 8.40 7.70 98.6 0 0 855.2234 51.7814
  A 8.40 7.70 98.6 0 0 848.8661 42.3244
  A 8.40 7.70 98.6 0 0 839.9966 49.4786
  A 8.40 7.70 98.6 0 0 846.3539 58.9356"
/>
<path stroke="#0d6a8b" vector-effect="non-scaling-stroke" d="
  M 284.64 49.60
  L 296.70 50.97
  A 0.69 0.69 0.0 0 0 297.46 50.37
  L 297.47 50.31
  A 6.62 6.55 6.5 0 0 291.63 43.05
  L 291.35 43.02
  A 6.62 6.55 6.5 0 0 284.04 48.78
  L 284.03 48.84
  A 0.69 0.69 0.0 0 0 284.64 49.60"
/>
<path stroke="#0d6a8b" vector-effect="non-scaling-stroke" d="
  M 236.5360 60.9459
  A 8.42 7.97 72.4 0 0 241.5869 50.5101
  A 8.42 7.97 72.4 0 0 231.4440 44.8941
  A 8.42 7.97 72.4 0 0 226.3931 55.3299
  A 8.42 7.97 72.4 0 0 236.5360 60.9459"
/>
<path stroke="#0d6a8b" vector-effect="non-scaling-stroke" d="
  M 884.3174 67.1819
  A 8.42 7.92 105.8 0 0 894.2308 61.2365
  A 8.42 7.92 105.8 0 0 888.9026 50.9781
  A 8.42 7.92 105.8 0 0 878.9892 56.9235
  A 8.42 7.92 105.8 0 0 884.3174 67.1819"
/>
<path stroke="#0d6a8b" vector-effect="non-scaling-stroke" d="
  M 596.22 186.13
  L 606.61 174.33
  A 0.62 0.61 -48.1 0 0 606.57 173.48
  C 592.74 160.73 578.99 181.90 593.47 190.57
  C 602.19 195.78 610.62 189.06 611.24 179.49
  Q 611.28 178.78 610.57 178.77
  L 608.60 178.74
  Q 608.03 178.74 607.99 179.31
  Q 607.36 189.94 597.03 188.36
  A 1.35 1.35 0.0 0 1 596.22 186.13"
/>
<path stroke="#0d6a8b" vector-effect="non-scaling-stroke" d="
  M 575.50 197.74
  C 573.84 193.88 578.52 191.20 581.68 189.81
  Q 582.24 189.56 582.06 188.98
  L 581.53 187.35
  Q 581.33 186.75 580.73 186.93
  C 574.87 188.64 567.58 196.05 574.43 201.52
  C 578.18 204.51 584.16 199.79 587.65 197.87
  Q 588.09 197.63 588.57 197.78
  Q 590.80 198.46 591.14 200.89
  Q 591.22 201.47 590.93 201.97
  Q 588.35 206.49 583.13 207.62
  Q 582.58 207.74 582.50 208.30
  Q 582.27 209.90 583.45 210.83
  Q 583.85 211.15 584.32 210.98
  C 589.34 209.20 599.11 202.12 592.51 195.88
  C 588.03 191.64 582.48 196.97 578.04 198.78
  A 1.97 1.96 67.1 0 1 575.50 197.74"
/>
<path stroke="#0d6a8b" vector-effect="non-scaling-stroke" d="
  M 578.54 218.27
  L 579.74 218.88
  Q 580.21 219.11 580.70 218.97
  Q 582.28 218.51 582.51 216.89
  Q 582.59 216.38 582.21 216.04
  C 578.36 212.50 572.13 205.91 567.32 205.15
  C 561.07 204.17 557.19 210.45 555.31 215.70
  Q 555.07 216.38 555.77 216.56
  L 557.67 217.04
  Q 558.26 217.19 558.50 216.63
  C 560.45 211.95 564.66 205.81 570.00 210.28
  Q 570.40 210.61 570.00 210.95
  C 566.44 213.92 561.73 218.16 562.36 222.98
  C 563.08 228.54 568.73 230.93 573.53 227.51
  Q 578.01 224.32 577.94 218.64
  Q 577.93 217.96 578.54 218.27"
/>
<path stroke="#0d6a8b" vector-effect="non-scaling-stroke" d="
  M 548.20 240.43
  L 559.01 228.25
  A 0.82 0.80 44.5 0 0 558.99 227.15
  C 549.85 217.55 534.77 227.28 541.51 239.54
  C 547.83 251.02 563.98 245.99 563.72 233.04
  Q 563.70 232.41 563.08 232.46
  L 561.00 232.62
  Q 560.23 232.68 560.26 233.45
  C 560.57 240.06 554.60 244.56 548.36 241.30
  Q 547.72 240.97 548.20 240.43"
/>
<path stroke="#0d6a8b" vector-effect="non-scaling-stroke" d="
  M 548.2658 255.5005
  A 0.91 0.91 0.0 0 0 548.1872 254.2160
  L 525.5837 234.2181
  A 0.91 0.91 0.0 0 0 524.2992 234.2967
  L 522.9342 235.8395
  A 0.91 0.91 0.0 0 0 523.0128 237.1240
  L 545.6163 257.1219
  A 0.91 0.91 0.0 0 0 546.9008 257.0433
  L 548.2658 255.5005"
/>
<path stroke="#0d6a8b" vector-effect="non-scaling-stroke" d="
  M 523.83 268.13
  L 533.46 257.34
  A 2.08 2.08 0.0 0 0 533.51 254.63
  Q 530.77 251.28 525.84 251.29
  C 512.32 251.30 512.38 269.21 523.70 273.32
  C 531.83 276.26 538.66 270.01 539.13 261.83
  A 1.35 1.35 0.0 0 0 538.08 260.43
  C 536.50 260.09 536.09 260.38 535.99 262.00
  C 535.61 267.91 529.45 273.07 523.95 269.14
  Q 523.32 268.70 523.83 268.13"
/>
<path stroke="#0d6a8b" vector-effect="non-scaling-stroke" d="
  M 506.48 274.15
  L 504.32 271.81
  Q 503.88 271.33 503.43 271.80
  L 501.48 273.82
  Q 500.97 274.35 501.52 274.83
  L 517.51 288.89
  Q 518.03 289.33 518.50 288.85
  L 520.17 287.11
  Q 520.66 286.60 520.13 286.14
  C 515.30 281.87 505.72 275.09 512.06 267.69
  Q 512.53 267.14 511.95 266.72
  L 509.55 264.99
  Q 508.99 264.59 508.59 265.14
  Q 505.79 269.03 507.35 273.63
  A 0.52 0.52 0.0 0 1 506.48 274.15"
/>
<path stroke="#0d6a8b" vector-effect="non-scaling-stroke" d="
  M 54.84 201.65
  C 41.17 211.00 54.87 227.46 67.17 220.72
  Q 75.74 216.03 70.47 205.83
  A 0.59 0.59 0.0 0 1 71.33 205.08
  Q 73.66 206.73 74.45 204.28
  A 1.91 1.90 16.0 0 0 73.10 201.86
  L 44.78 194.70
  Q 44.25 194.57 43.94 195.01
  Q 43.03 196.31 43.35 197.74
  Q 43.48 198.30 44.03 198.43
  L 54.73 201.07
  Q 55.44 201.24 54.84 201.65"
/>
<path stroke="#0d6a8b" vector-effect="non-scaling-stroke" d="
  M 68.9274 230.3146
  A 0.26 0.26 0.0 0 0 68.7010 230.0249
  L 37.5748 226.2030
  A 0.26 0.26 0.0 0 0 37.2850 226.4294
  L 36.8926 229.6254
  A 0.26 0.26 0.0 0 0 37.1190 229.9151
  L 68.2452 233.7370
  A 0.26 0.26 0.0 0 0 68.5350 233.5106
  L 68.9274 230.3146"
/>
<path stroke="#0d6a8b" vector-effect="non-scaling-stroke" d="
  M 40.4599 239.9329
  A 0.68 0.68 0.0 0 0 39.8418 239.1962
  L 37.3712 238.9801
  A 0.68 0.68 0.0 0 0 36.6346 239.5982
  L 36.3801 242.5071
  A 0.68 0.68 0.0 0 0 36.9982 243.2438
  L 39.4688 243.4599
  A 0.68 0.68 0.0 0 0 40.2054 242.8418
  L 40.4599 239.9329"
/>
<path stroke="#0d6a8b" vector-effect="non-scaling-stroke" d="
  M 67.5817 241.3496
  A 0.44 0.44 0.0 0 0 67.1670 240.8858
  L 45.6007 239.6800
  A 0.44 0.44 0.0 0 0 45.1368 240.0948
  L 44.9783 242.9304
  A 0.44 0.44 0.0 0 0 45.3930 243.3942
  L 66.9593 244.6000
  A 0.44 0.44 0.0 0 0 67.4232 244.1852
  L 67.5817 241.3496"
/>
<path stroke="#0d6a8b" vector-effect="non-scaling-stroke" d="
  M 64.83 255.15
  L 66.46 254.91
  Q 67.00 254.83 67.00 254.28
  L 67.00 251.69
  Q 67.00 251.13 66.44 251.16
  L 44.99 252.48
  Q 44.49 252.51 44.49 253.01
  L 44.52 255.84
  Q 44.52 256.62 45.29 256.50
  Q 53.75 255.18 58.51 255.47
  C 65.81 255.92 67.33 266.54 59.20 267.72
  Q 52.76 268.65 46.16 268.42
  Q 45.50 268.40 45.50 269.05
  L 45.50 271.27
  Q 45.50 272.42 46.64 272.33
  Q 52.59 271.84 57.82 271.71
  C 67.30 271.46 72.24 263.01 64.59 255.93
  Q 63.90 255.29 64.83 255.15"
/>
<path stroke="#0d6a8b" vector-effect="non-scaling-stroke" d="
  M 54.39 298.20
  L 42.80 300.71
  Q 42.01 300.88 42.22 301.66
  L 42.84 303.98
  Q 42.99 304.54 43.56 304.41
  Q 57.55 301.20 71.62 298.14
  C 73.88 297.65 74.56 296.34 72.95 294.45
  Q 72.70 294.15 72.31 294.22
  L 70.66 294.48
  Q 69.54 294.67 70.05 293.65
  C 74.35 285.21 69.65 276.96 60.25 277.26
  C 49.37 277.61 43.13 291.71 54.48 297.52
  Q 55.39 297.99 54.39 298.20"
/>
<path stroke="#0d6a8b" vector-effect="non-scaling-stroke" d="
  M 1034.45 196.21
  A 15.77 15.77 0.0 0 0 1018.68 180.44
  A 15.77 15.77 0.0 0 0 1002.91 196.21
  A 15.77 15.77 0.0 0 0 1018.68 211.98
  A 15.77 15.77 0.0 0 0 1034.45 196.21"
/>
<path stroke="#0d6a8b" vector-effect="non-scaling-stroke" d="
  M 1030.68 221.62
  L 1032.93 221.30
  Q 1033.55 221.21 1033.53 220.58
  L 1033.44 218.02
  Q 1033.41 217.15 1032.56 217.30
  L 1004.16 222.30
  Q 1003.53 222.41 1003.70 223.02
  L 1004.35 225.44
  Q 1004.55 226.16 1005.27 226.03
  L 1014.06 224.54
  A 0.42 0.42 0.0 0 1 1014.46 225.22
  C 1011.25 229.25 1011.35 234.47 1014.73 238.38
  C 1025.58 250.91 1045.79 231.36 1030.54 222.33
  Q 1029.62 221.78 1030.68 221.62"
/>
<path stroke="#0d6a8b" vector-effect="non-scaling-stroke" d="
  M 1025.26 251.51
  L 1025.74 267.60
  Q 1025.77 268.36 1026.52 268.43
  C 1039.54 269.55 1043.30 252.45 1031.67 247.89
  Q 1026.82 245.98 1021.82 248.06
  C 1015.21 250.81 1011.65 262.20 1019.00 267.33
  Q 1019.41 267.62 1019.87 267.41
  C 1022.57 266.13 1019.99 264.20 1019.31 262.92
  C 1016.71 257.98 1018.94 251.83 1024.88 251.18
  Q 1025.25 251.14 1025.26 251.51"
/>
<path stroke="#0d6a8b" vector-effect="non-scaling-stroke" d="
  M 1032.75 278.76
  L 1036.31 279.57
  Q 1037.10 279.75 1037.15 278.94
  L 1037.29 276.08
  Q 1037.32 275.59 1036.82 275.54
  L 1015.14 273.27
  Q 1014.50 273.21 1014.50 273.85
  L 1014.50 276.46
  Q 1014.50 277.04 1015.08 277.10
  C 1022.98 277.86 1032.43 277.82 1032.49 287.55
  Q 1032.50 288.22 1033.16 288.23
  L 1035.96 288.27
  Q 1036.52 288.28 1036.50 287.72
  Q 1036.31 282.63 1032.40 279.49
  Q 1031.00 278.37 1032.75 278.76"
/>
<path stroke="#0d6a8b" vector-effect="non-scaling-stroke" d="
  M 1012.00 303.26
  L 1010.15 303.22
  Q 1009.63 303.21 1009.51 303.72
  L 1009.00 305.97
  Q 1008.85 306.63 1009.52 306.76
  Q 1015.78 308.00 1021.91 309.61
  C 1032.16 312.30 1035.15 302.31 1033.70 294.56
  Q 1033.58 293.91 1032.92 293.98
  L 1030.99 294.17
  Q 1030.30 294.23 1030.41 294.92
  C 1031.19 299.64 1029.96 307.05 1023.86 306.32
  A 1.06 1.05 17.4 0 1 1023.05 304.79
  Q 1025.74 299.69 1025.15 294.34
  C 1023.86 282.42 1004.99 289.89 1012.42 302.55
  Q 1012.84 303.28 1012.00 303.26"
/>
<path stroke="#0d6a8b" vector-effect="non-scaling-stroke" d="
  M 1024.75 318.82
  Q 1019.00 317.15 1013.52 314.71
  C 1005.02 310.91 1000.99 322.84 1006.23 323.47
  Q 1006.82 323.54 1006.87 322.95
  Q 1007.13 320.03 1009.31 318.11
  Q 1009.83 317.66 1010.47 317.90
  L 1023.08 322.53
  A 0.78 0.77 20.1 0 1 1023.54 323.51
  L 1021.75 328.52
  Q 1021.48 329.28 1022.22 329.60
  L 1023.66 330.22
  Q 1024.40 330.55 1024.70 329.79
  L 1026.82 324.45
  Q 1027.07 323.84 1027.67 324.10
  L 1032.40 326.17
  Q 1033.08 326.46 1033.37 325.79
  L 1034.32 323.59
  Q 1034.68 322.76 1033.82 322.45
  L 1029.08 320.74
  Q 1028.48 320.52 1028.59 319.89
  L 1028.86 318.39
  Q 1028.94 317.98 1028.76 317.61
  Q 1028.12 316.29 1026.49 316.54
  Q 1026.06 316.61 1025.95 317.02
  L 1025.60 318.34
  Q 1025.42 319.02 1024.75 318.82"
/>
<path stroke="#0d6a8b" vector-effect="non-scaling-stroke" d="
  M 1008.64 333.45
  L 1000.85 347.85
  Q 1000.63 348.26 1001.02 348.51
  C 1017.27 359.18 1026.45 332.47 1008.93 328.84
  C 999.63 326.91 992.78 335.39 995.33 344.17
  Q 995.52 344.84 996.19 344.66
  L 997.33 344.36
  A 1.41 1.40 78.5 0 0 998.36 342.80
  C 997.40 336.32 1001.06 330.66 1008.29 332.61
  Q 1008.99 332.80 1008.64 333.45"
/>
<path stroke="#0d6a8b" vector-effect="non-scaling-stroke" d="
  M 437.78 125.87
  L 439.46 124.50
  Q 440.01 124.06 439.57 123.51
  L 438.08 121.61
  Q 437.56 120.95 436.95 121.53
  L 416.50 141.08
  Q 415.97 141.58 416.49 142.10
  L 418.31 143.92
  Q 418.73 144.34 419.15 143.92
  L 425.99 137.25
  A 0.50 0.50 0.0 0 1 426.83 137.68
  C 425.52 145.98 434.15 150.96 441.34 148.11
  C 452.38 143.73 452.12 126.84 438.02 126.58
  Q 436.94 126.56 437.78 125.87"
/>
<path stroke="#0d6a8b" vector-effect="non-scaling-stroke" d="
  M 464.8917 136.0992
  A 0.89 0.89 0.0 0 0 463.6333 136.0750
  L 442.0888 156.8077
  A 0.89 0.89 0.0 0 0 442.0647 158.0662
  L 443.3683 159.4208
  A 0.89 0.89 0.0 0 0 444.6267 159.4450
  L 466.1712 138.7123
  A 0.89 0.89 0.0 0 0 466.1953 137.4538
  L 464.8917 136.0992"
/>
<path stroke="#0d6a8b" vector-effect="non-scaling-stroke" d="
  M 460.67 174.52
  L 459.76 175.71
  Q 459.38 176.20 459.84 176.63
  L 461.35 178.03
  Q 461.82 178.46 462.29 178.03
  C 467.84 172.91 480.35 164.46 471.90 155.84
  C 469.96 153.87 465.07 149.59 463.44 152.56
  Q 462.91 153.53 463.89 154.05
  C 468.13 156.29 474.09 160.77 469.47 166.19
  Q 468.74 167.05 468.18 166.07
  C 455.79 144.60 440.63 170.51 460.41 173.86
  Q 461.08 173.98 460.67 174.52"
/>
<path stroke="#0d6a8b" vector-effect="non-scaling-stroke" d="
  M 483.32 172.30
  L 484.85 170.77
  Q 485.35 170.28 484.79 169.85
  L 482.93 168.42
  Q 482.49 168.08 482.08 168.47
  L 466.88 182.97
  Q 466.56 183.28 466.74 183.68
  Q 467.39 185.11 468.73 185.76
  Q 469.24 186.00 469.64 185.61
  Q 474.05 181.29 478.66 177.16
  C 482.47 173.75 489.02 175.58 489.23 180.83
  C 489.43 185.61 480.65 192.33 477.87 194.67
  Q 477.36 195.10 477.84 195.56
  L 479.72 197.37
  Q 480.16 197.79 480.60 197.38
  Q 485.42 192.97 489.97 188.30
  C 496.35 181.74 492.85 173.08 483.68 173.16
  Q 482.45 173.17 483.32 172.30"
/>
<path stroke="#0d6a8b" vector-effect="non-scaling-stroke" d="
  M 443.2313 131.2324
  A 8.40 7.73 -44.5 0 0 431.8220 131.6066
  A 8.40 7.73 -44.5 0 0 431.2487 143.0076
  A 8.40 7.73 -44.5 0 0 442.6580 142.6334
  A 8.40 7.73 -44.5 0 0 443.2313 131.2324"
/>
<path stroke="#0d6a8b" vector-effect="non-scaling-stroke" d="
  M 465.96 166.26
  L 459.37 160.64
  A 2.01 2.01 0.0 0 0 456.53 160.87
  L 455.92 161.60
  A 5.82 5.60 40.4 0 0 456.72 169.63
  L 457.51 170.31
  A 5.82 5.60 40.4 0 0 465.57 169.81
  L 466.19 169.09
  A 2.01 2.01 0.0 0 0 465.96 166.26"
/>
<path stroke="#0d6a8b" vector-effect="non-scaling-stroke" d="
  M 593.42 184.96
  L 601.90 175.24
  A 0.25 0.25 0.0 0 0 601.88 174.89
  L 601.75 174.78
  A 6.70 6.70 0.0 0 0 592.30 175.42
  L 592.30 175.42
  A 6.70 6.70 0.0 0 0 592.94 184.87
  L 593.07 184.98
  A 0.25 0.25 0.0 0 0 593.42 184.96"
/>
<path stroke="#0d6a8b" vector-effect="non-scaling-stroke" d="
  M 1029.7034 191.0770
  A 12.12 11.52 -24.9 0 0 1013.8597 185.7309
  A 12.12 11.52 -24.9 0 0 1007.7166 201.2830
  A 12.12 11.52 -24.9 0 0 1023.5603 206.6291
  A 12.12 11.52 -24.9 0 0 1029.7034 191.0770"
/>
<path stroke="#0d6a8b" vector-effect="non-scaling-stroke" d="
  M 69.2586 212.7132
  A 8.52 7.71 14.5 0 0 62.9404 203.1156
  A 8.52 7.71 14.5 0 0 52.7614 208.4468
  A 8.52 7.71 14.5 0 0 59.0796 218.0444
  A 8.52 7.71 14.5 0 0 69.2586 212.7132"
/>
<path stroke="#0d6a8b" vector-effect="non-scaling-stroke" d="
  M 567.5798 224.9707
  A 6.47 4.33 121.6 0 0 574.6580 221.7289
  A 6.47 4.33 121.6 0 0 574.3602 213.9493
  A 6.47 4.33 121.6 0 0 567.2820 217.1911
  A 6.47 4.33 121.6 0 0 567.5798 224.9707"
/>
<path stroke="#0d6a8b" vector-effect="non-scaling-stroke" d="
  M 1032.0108 228.5103
  A 8.39 7.67 -14.0 0 0 1022.0145 223.0978
  A 8.39 7.67 -14.0 0 0 1015.7292 232.5697
  A 8.39 7.67 -14.0 0 0 1025.7255 237.9822
  A 8.39 7.67 -14.0 0 0 1032.0108 228.5103"
/>
<path stroke="#0d6a8b" vector-effect="non-scaling-stroke" d="
  M 545.92 238.97
  L 554.65 228.82
  A 0.26 0.26 0.0 0 0 554.63 228.45
  L 554.53 228.37
  A 6.80 6.78 -49.3 0 0 544.96 229.10
  L 544.75 229.35
  A 6.80 6.78 -49.3 0 0 545.46 238.92
  L 545.55 239.00
  A 0.26 0.26 0.0 0 0 545.92 238.97"
/>
<path stroke="#0d6a8b" vector-effect="non-scaling-stroke" d="
  M 1027.71 251.58
  L 1028.25 263.93
  A 0.64 0.64 0.0 0 0 1028.92 264.54
  L 1029.10 264.53
  A 6.71 6.66 87.5 0 0 1035.46 257.54
  L 1035.45 257.32
  A 6.71 6.66 87.5 0 0 1028.51 250.90
  L 1028.33 250.91
  A 0.64 0.64 0.0 0 0 1027.71 251.58"
/>
<path stroke="#0d6a8b" vector-effect="non-scaling-stroke" d="
  M 521.58 266.79
  L 529.89 257.06
  A 0.47 0.47 0.0 0 0 529.84 256.40
  L 529.73 256.31
  A 6.73 6.71 -49.5 0 0 520.26 257.07
  L 520.08 257.28
  A 6.73 6.71 -49.5 0 0 520.81 266.75
  L 520.91 266.85
  A 0.47 0.47 0.0 0 0 521.58 266.79"
/>
<path stroke="#0d6a8b" vector-effect="non-scaling-stroke" d="
  M 68.6136 286.9184
  A 8.44 7.72 -13.3 0 0 58.6240 281.3471
  A 8.44 7.72 -13.3 0 0 52.1864 290.8016
  A 8.44 7.72 -13.3 0 0 62.1760 296.3729
  A 8.44 7.72 -13.3 0 0 68.6136 286.9184"
/>
<path stroke="#0d6a8b" vector-effect="non-scaling-stroke" d="
  M 1019.40 292.29
  C 1012.80 291.24 1010.66 303.76 1019.30 305.00
  Q 1019.79 305.07 1020.05 304.65
  C 1021.70 301.89 1024.37 293.09 1019.40 292.29"
/>
<path stroke="#0d6a8b" vector-effect="non-scaling-stroke" d="
  M 1011.04 334.50
  L 1005.15 345.91
  A 0.45 0.45 0.0 0 0 1005.34 346.52
  L 1005.44 346.57
  A 6.71 6.66 -62.7 0 0 1014.43 343.66
  L 1014.58 343.37
  A 6.71 6.66 -62.7 0 0 1011.74 334.36
  L 1011.64 334.31
  A 0.45 0.45 0.0 0 0 1011.04 334.50"
/>
<path stroke="#0d6a8b" vector-effect="non-scaling-stroke" d="
  M 697.49 408.01
  L 698.24 406.53
  Q 698.56 405.90 697.96 405.54
  L 695.90 404.28
  Q 695.29 403.91 694.96 404.54
  L 685.01 423.57
  Q 684.72 424.12 685.24 424.46
  L 687.50 425.95
  Q 688.08 426.34 688.40 425.71
  Q 691.13 420.31 694.06 415.07
  C 698.56 407.01 708.37 411.75 704.59 419.13
  Q 701.64 424.88 698.65 430.63
  Q 698.38 431.15 698.83 431.54
  Q 700.07 432.58 701.64 432.79
  Q 702.27 432.88 702.52 432.30
  Q 706.65 422.73 708.81 420.06
  C 712.99 414.88 721.14 419.31 718.33 425.60
  Q 715.54 431.83 712.04 437.75
  Q 711.74 438.24 712.25 438.52
  L 714.76 439.88
  Q 715.36 440.20 715.69 439.60
  C 719.05 433.33 727.75 422.01 719.48 416.27
  C 715.86 413.75 713.66 415.11 710.23 415.70
  Q 709.71 415.79 709.62 415.27
  Q 708.39 408.58 701.74 407.97
  C 700.42 407.85 699.23 408.40 697.85 408.53
  Q 697.19 408.59 697.49 408.01"
/>
<path stroke="#0d6a8b" vector-effect="non-scaling-stroke" d="
  M 749.89 435.77
  A 11.87 11.87 0.0 0 0 738.02 423.90
  A 11.87 11.87 0.0 0 0 726.15 435.77
  A 11.87 11.87 0.0 0 0 738.02 447.64
  A 11.87 11.87 0.0 0 0 749.89 435.77"
/>
<path stroke="#0d6a8b" vector-effect="non-scaling-stroke" d="
  M 788.8150 427.8242
  A 0.79 0.79 0.0 0 0 788.1104 426.9572
  L 785.2854 426.6653
  A 0.79 0.79 0.0 0 0 784.4184 427.3699
  L 784.1450 430.0158
  A 0.79 0.79 0.0 0 0 784.8496 430.8828
  L 787.6746 431.1747
  A 0.79 0.79 0.0 0 0 788.5416 430.4701
  L 788.8150 427.8242"
/>
<path stroke="#0d6a8b" vector-effect="non-scaling-stroke" d="
  M 794.79 436.46
  L 792.49 436.72
  Q 791.85 436.79 791.81 437.43
  L 791.73 438.83
  Q 791.69 439.51 792.35 439.69
  L 794.49 440.26
  Q 795.03 440.41 794.99 440.98
  Q 794.11 451.90 794.18 454.74
  C 794.31 460.09 799.32 460.18 803.58 459.92
  Q 804.28 459.88 804.35 459.18
  L 804.56 456.87
  Q 804.64 456.00 803.83 456.33
  C 800.50 457.66 798.17 456.39 798.20 452.64
  Q 798.26 446.76 798.82 440.91
  Q 798.87 440.42 799.35 440.44
  L 804.96 440.67
  Q 805.60 440.70 805.64 440.06
  L 805.78 437.98
  Q 805.83 437.38 805.22 437.34
  L 799.83 437.01
  Q 799.19 436.97 799.23 436.33
  L 799.58 430.84
  Q 799.64 430.05 798.84 430.06
  L 796.32 430.12
  Q 795.53 430.14 795.50 430.93
  L 795.26 435.96
  Q 795.23 436.41 794.79 436.46"
/>
<path stroke="#0d6a8b" vector-effect="non-scaling-stroke" d="
  M 761.25 433.49
  L 761.58 431.41
  Q 761.70 430.63 760.91 430.60
  L 758.28 430.48
  Q 757.67 430.46 757.55 431.05
  L 753.20 451.63
  Q 753.09 452.18 753.62 452.34
  L 756.22 453.15
  Q 756.90 453.35 757.02 452.66
  C 758.00 447.26 758.79 435.89 765.19 435.40
  C 770.19 435.01 772.50 438.10 771.49 443.02
  Q 770.25 449.12 769.00 455.29
  Q 768.88 455.87 769.47 455.95
  L 772.18 456.32
  Q 772.67 456.39 772.79 455.90
  Q 774.47 448.74 775.65 441.48
  C 777.00 433.20 768.26 429.34 761.89 433.89
  Q 761.09 434.46 761.25 433.49"
/>
<path stroke="#0d6a8b" vector-effect="non-scaling-stroke" d="
  M 842.06 439.54
  L 841.96 436.50
  Q 841.93 435.75 841.19 435.75
  L 838.33 435.75
  Q 837.66 435.75 837.75 436.42
  L 840.52 457.98
  Q 840.61 458.62 841.24 458.54
  L 843.99 458.19
  Q 844.54 458.12 844.44 457.58
  C 843.14 450.52 840.74 440.43 850.50 438.20
  Q 851.16 438.05 851.05 437.38
  L 850.60 434.58
  Q 850.50 433.98 849.90 434.11
  Q 844.94 435.20 842.76 439.69
  Q 842.11 441.02 842.06 439.54"
/>
<path stroke="#0d6a8b" vector-effect="non-scaling-stroke" d="
  M 787.4852 436.5589
  A 0.79 0.79 0.0 0 0 786.8020 435.6749
  L 784.5802 435.3903
  A 0.79 0.79 0.0 0 0 783.6962 436.0735
  L 780.9948 457.1611
  A 0.79 0.79 0.0 0 0 781.6780 458.0451
  L 783.8998 458.3297
  A 0.79 0.79 0.0 0 0 784.7838 457.6465
  L 787.4852 436.5589"
/>
<path stroke="#0d6a8b" vector-effect="non-scaling-stroke" d="
  M 833.60 448.43
  A 11.87 11.87 0.0 0 0 821.73 436.56
  A 11.87 11.87 0.0 0 0 809.86 448.43
  A 11.87 11.87 0.0 0 0 821.73 460.30
  A 11.87 11.87 0.0 0 0 833.60 448.43"
/>
<path stroke="#0d6a8b" vector-effect="non-scaling-stroke" d="
  M 431.04 378.25
  Q 429.48 384.20 430.71 390.25"
/>
<path stroke="#0d6a8b" vector-effect="non-scaling-stroke" d="
  M 430.04 402.71
  Q 428.55 408.44 429.53 414.27"
/>
<path stroke="#0d6a8b" vector-effect="non-scaling-stroke" d="
  M 429.21 425.25
  Q 427.52 432.44 428.48 439.82"
/>
<path stroke="#0d6a8b" vector-effect="non-scaling-stroke" d="
  M 238.55 435.33
  L 243.78 436.54
  Q 244.30 436.66 244.47 436.16
  L 245.26 433.85
  Q 245.46 433.27 244.86 433.17
  L 239.28 432.18
  Q 238.57 432.06 238.68 431.35
  L 239.48 425.86
  Q 239.59 425.15 238.87 425.11
  L 236.34 424.96
  Q 235.84 424.93 235.78 425.42
  L 235.09 430.39
  Q 234.99 431.11 234.27 431.01
  C 233.06 430.84 231.40 431.16 231.19 432.60
  C 230.92 434.45 232.83 434.17 233.86 434.81
  Q 234.33 435.09 234.21 435.63
  Q 232.25 444.24 231.79 448.51
  C 230.96 456.11 243.21 457.49 241.48 452.35
  Q 241.31 451.82 240.76 451.93
  Q 237.52 452.58 235.67 450.03
  Q 235.30 449.52 235.41 448.91
  L 237.72 435.88
  Q 237.85 435.17 238.55 435.33"
/>
<path stroke="#0d6a8b" vector-effect="non-scaling-stroke" d="
  M 295.41 435.03
  L 294.06 434.89
  Q 293.34 434.82 293.31 435.54
  L 293.22 437.72
  Q 293.20 438.25 293.73 438.25
  L 295.81 438.25
  Q 296.39 438.25 296.47 438.83
  C 297.10 443.38 296.98 451.49 298.90 454.77
  C 301.12 458.54 310.57 457.62 308.40 453.62
  Q 308.18 453.21 307.72 453.28
  C 305.92 453.52 302.29 454.55 301.72 452.00
  Q 300.61 447.03 300.36 438.22
  Q 300.35 437.72 300.85 437.69
  L 306.38 437.41
  Q 307.02 437.38 307.00 436.74
  L 306.95 434.40
  Q 306.93 433.68 306.22 433.78
  L 300.29 434.63
  Q 299.52 434.74 299.52 433.96
  L 299.48 428.77
  Q 299.48 428.00 298.71 428.00
  L 296.12 428.00
  Q 295.48 428.00 295.54 428.63
  L 296.11 434.33
  Q 296.18 435.10 295.41 435.03"
/>
<path stroke="#0d6a8b" vector-effect="non-scaling-stroke" d="
  M 251.48 446.98
  L 267.79 448.41
  A 0.64 0.64 0.0 0 0 268.48 447.83
  C 269.02 441.58 266.20 435.00 259.54 434.47
  C 243.85 433.20 242.46 457.07 257.99 458.00
  Q 262.39 458.26 266.31 455.03
  Q 266.78 454.64 266.46 454.11
  L 265.95 453.32
  A 1.20 1.20 0.0 0 0 264.30 452.93
  C 259.15 456.11 250.82 454.93 250.83 447.58
  Q 250.83 446.93 251.48 446.98"
/>
<path stroke="#0d6a8b" vector-effect="non-scaling-stroke" d="
  M 277.53 442.29
  C 276.68 436.95 284.47 438.33 286.96 440.13
  Q 287.37 440.42 287.83 440.23
  Q 289.47 439.53 289.43 437.67
  Q 289.42 437.18 288.97 437.00
  C 284.35 435.11 277.25 433.98 274.46 439.27
  C 269.51 448.67 286.03 447.16 286.71 451.78
  C 287.60 457.93 278.04 455.03 275.48 453.57
  Q 275.00 453.30 274.49 453.50
  Q 273.27 453.98 273.29 455.50
  Q 273.29 455.98 273.70 456.23
  Q 279.35 459.58 285.53 458.07
  C 289.81 457.03 292.14 452.08 289.12 448.45
  C 286.79 445.66 281.08 445.10 278.13 443.22
  Q 277.62 442.89 277.53 442.29"
/>
<path stroke="#0d6a8b" vector-effect="non-scaling-stroke" d="
  M 735.4691 443.8642
  A 8.43 7.89 107.4 0 0 745.5190 438.1794
  A 8.43 7.89 107.4 0 0 740.5109 427.7758
  A 8.43 7.89 107.4 0 0 730.4610 433.4606
  A 8.43 7.89 107.4 0 0 735.4691 443.8642"
/>
<path stroke="#0d6a8b" vector-effect="non-scaling-stroke" d="
  M 251.72 444.35
  L 264.05 445.48
  A 0.70 0.70 0.0 0 0 264.81 444.84
  L 264.81 444.79
  A 6.72 6.65 5.2 0 0 258.72 437.56
  L 258.39 437.53
  A 6.72 6.65 5.2 0 0 251.09 443.54
  L 251.09 443.59
  A 0.70 0.70 0.0 0 0 251.72 444.35"
/>
<path stroke="#0d6a8b" vector-effect="non-scaling-stroke" d="
  M 823.1437 456.6745
  A 8.41 7.95 79.7 0 0 829.4619 446.9785
  A 8.41 7.95 79.7 0 0 820.1363 440.1255
  A 8.41 7.95 79.7 0 0 813.8181 449.8215
  A 8.41 7.95 79.7 0 0 823.1437 456.6745"
/>
</g>
<path fill="#0c2c40" d="
  M 253.31 0.00
  L 282.31 0.00
  Q 301.21 0.99 312.01 2.73
  C 366.64 11.54 416.95 39.64 456.31 78.21
  A 0.38 0.37 -20.2 0 1 456.01 78.85
  L 386.65 73.83
  Q 386.11 73.79 385.78 74.22
  Q 384.77 75.53 384.96 77.25
  Q 383.34 79.52 384.54 82.00
  C 381.70 103.96 380.91 123.72 378.65 144.86
  Q 378.44 146.86 376.93 145.53
  C 366.17 136.07 356.49 128.54 342.06 120.46
  C 315.74 105.73 283.62 96.78 253.28 100.42
  C 237.78 102.27 222.85 105.35 208.26 111.20
  Q 191.56 117.90 175.42 125.87
  Q 173.45 126.84 171.32 126.77
  C 163.45 126.54 154.59 125.66 147.81 125.30
  Q 125.77 124.12 103.78 122.26
  C 102.37 122.14 100.24 122.39 98.82 121.41
  Q 98.35 121.09 98.38 120.53
  Q 99.11 102.76 99.82 85.03
  C 100.06 78.95 101.01 71.70 101.23 65.00
  Q 101.42 59.42 102.49 53.96
  Q 102.59 53.45 103.01 53.15
  C 141.45 25.58 187.95 8.36 234.79 2.70
  Q 244.09 1.58 253.31 0.00
  Z
  M 270.53 57.76
  L 270.76 60.67
  Q 270.81 61.27 271.42 61.26
  L 273.29 61.23
  Q 274.10 61.22 274.08 60.41
  L 273.32 29.90
  Q 273.30 29.25 272.65 29.25
  L 270.38 29.25
  Q 269.75 29.25 269.75 29.87
  L 269.75 41.70
  A 0.37 0.37 0.0 0 1 269.11 41.95
  C 257.59 29.74 242.53 50.74 256.22 60.21
  Q 263.01 64.92 269.94 57.55
  Q 270.47 56.98 270.53 57.76
  Z
  M 284.43 52.30
  L 300.40 54.18
  A 0.66 0.65 -82.4 0 0 301.13 53.62
  C 301.87 48.83 300.35 43.20 295.76 40.93
  C 283.45 34.83 273.54 53.25 284.26 61.14
  Q 290.66 65.83 298.85 61.08
  A 0.91 0.90 50.1 0 0 298.98 59.61
  L 297.67 58.49
  Q 297.19 58.09 296.68 58.46
  C 291.49 62.30 283.66 59.90 283.73 52.91
  Q 283.74 52.21 284.43 52.30
  Z
  M 245.87 52.93
  A 11.81 11.81 0.0 0 0 234.06 41.12
  A 11.81 11.81 0.0 0 0 222.25 52.93
  A 11.81 11.81 0.0 0 0 234.06 64.74
  A 11.81 11.81 0.0 0 0 245.87 52.93
  Z
  M 218.42 61.97
  C 214.21 69.38 203.53 67.93 202.53 59.24
  C 201.75 52.47 208.51 47.63 214.40 51.38
  Q 214.83 51.65 215.20 51.31
  Q 216.34 50.23 216.37 48.64
  Q 216.38 48.18 215.96 47.99
  Q 208.67 44.64 203.05 49.29
  C 194.15 56.67 200.33 71.13 211.74 70.27
  Q 217.66 69.82 220.81 63.83
  Q 221.07 63.33 220.64 62.97
  L 219.28 61.82
  Q 218.76 61.37 218.42 61.97
  Z"
/>
<path fill="#0da8d6" d="
  M 727.09 58.75
  Q 723.33 57.99 720.75 57.76
  Q 687.25 54.77 654.03 51.24
  A 0.31 0.31 0.0 0 1 653.89 50.68
  C 700.09 20.10 757.06 3.77 812.08 1.32
  C 813.17 1.27 814.74 0.72 815.75 0.77
  C 824.68 1.27 834.02 0.69 842.41 1.30
  C 851.66 1.98 861.60 2.41 870.16 3.62
  C 918.17 10.35 963.54 29.65 997.18 65.34
  Q 997.53 65.70 997.56 66.21
  Q 997.60 67.04 997.54 67.73
  Q 994.57 102.16 992.74 136.54
  A 0.85 0.85 0.0 0 1 991.84 137.34
  Q 954.49 134.89 917.19 133.04
  C 912.37 132.80 911.42 129.39 908.08 126.90
  C 871.55 99.67 824.44 95.19 780.73 103.52
  C 758.41 107.77 741.04 115.68 723.06 128.79
  Q 722.53 129.18 722.56 128.53
  C 723.44 105.50 725.82 82.42 727.61 59.44
  Q 727.65 58.86 727.09 58.75
  Z
  M 800.43 58.72
  L 800.54 61.21
  Q 800.57 61.98 801.31 61.78
  L 804.03 61.06
  Q 804.50 60.93 804.43 60.45
  L 799.98 30.17
  Q 799.91 29.67 799.42 29.77
  L 796.84 30.32
  Q 796.26 30.44 796.33 31.04
  L 797.74 41.99
  A 0.51 0.51 0.0 0 1 796.93 42.46
  Q 792.77 39.35 788.37 40.15
  C 776.23 42.36 777.68 61.12 788.78 63.30
  Q 795.38 64.59 799.56 58.47
  Q 800.37 57.27 800.43 58.72
  Z
  M 872.8818 35.1783
  A 1.01 1.01 0.0 0 0 872.1081 33.9777
  L 870.2901 33.5846
  A 1.01 1.01 0.0 0 0 869.0895 34.3583
  L 862.7582 63.6417
  A 1.01 1.01 0.0 0 0 863.5319 64.8423
  L 865.3499 65.2354
  A 1.01 1.01 0.0 0 0 866.5505 64.4617
  L 872.8818 35.1783
  Z
  M 813.24 51.10
  Q 813.50 50.76 813.93 50.75
  L 829.80 50.42
  Q 830.33 50.41 830.33 49.87
  Q 830.27 38.75 820.75 37.66
  C 807.53 36.15 804.63 55.56 815.55 60.01
  C 820.40 61.99 825.58 61.05 829.10 57.16
  Q 829.56 56.65 829.05 56.20
  L 827.75 55.05
  Q 827.26 54.62 826.77 55.05
  C 821.54 59.68 815.37 58.63 813.10 52.00
  Q 812.93 51.51 813.24 51.10
  Z
  M 841.00 41.47
  L 841.00 38.99
  Q 841.00 38.23 840.24 38.24
  L 837.94 38.27
  Q 837.26 38.28 837.19 38.95
  L 834.20 66.79
  A 1.10 1.09 3.1 0 0 835.29 68.00
  L 837.70 68.00
  Q 838.16 68.00 838.19 67.54
  L 838.87 58.04
  A 0.37 0.37 0.0 0 1 839.52 57.83
  C 846.63 66.57 857.61 62.50 859.08 51.87
  C 860.43 42.15 849.73 34.31 841.76 41.80
  Q 841.00 42.51 841.00 41.47
  Z
  M 898.47 59.12
  A 11.88 11.88 0.0 0 0 886.59 47.24
  A 11.88 11.88 0.0 0 0 874.71 59.12
  A 11.88 11.88 0.0 0 0 886.59 71.00
  A 11.88 11.88 0.0 0 0 898.47 59.12
  Z
  M 908.13 75.26
  A 0.22 0.22 0.0 0 1 907.76 75.08
  Q 908.47 67.28 908.89 59.33
  C 909.03 56.50 909.67 54.33 905.72 54.17
  Q 905.32 54.16 905.31 54.55
  L 904.54 77.76
  Q 904.52 78.33 904.11 78.73
  Q 900.38 82.30 896.83 78.29
  Q 896.39 77.79 895.84 78.17
  L 894.17 79.33
  Q 893.61 79.72 894.05 80.23
  C 899.13 86.23 903.77 83.91 908.82 79.35
  Q 917.13 71.86 925.51 64.38
  Q 925.93 64.01 925.51 63.63
  C 923.87 62.15 922.36 62.08 920.64 63.69
  Q 914.44 69.49 908.13 75.26
  Z"
/>
<path fill="#0da8d6" d="
  M 269.94 57.55
  Q 263.01 64.92 256.22 60.21
  C 242.53 50.74 257.59 29.74 269.11 41.95
  A 0.37 0.37 0.0 0 0 269.75 41.70
  L 269.75 29.87
  Q 269.75 29.25 270.38 29.25
  L 272.65 29.25
  Q 273.30 29.25 273.32 29.90
  L 274.08 60.41
  Q 274.10 61.22 273.29 61.23
  L 271.42 61.26
  Q 270.81 61.27 270.76 60.67
  L 270.53 57.76
  Q 270.47 56.98 269.94 57.55
  Z
  M 262.7818 58.5326
  A 8.40 7.69 87.6 0 0 270.1133 49.8180
  A 8.40 7.69 87.6 0 0 262.0782 41.7474
  A 8.40 7.69 87.6 0 0 254.7467 50.4620
  A 8.40 7.69 87.6 0 0 262.7818 58.5326
  Z"
/>
<path fill="#0c2c40" d="
  M 799.56 58.47
  Q 795.38 64.59 788.78 63.30
  C 777.68 61.12 776.23 42.36 788.37 40.15
  Q 792.77 39.35 796.93 42.46
  A 0.51 0.51 0.0 0 0 797.74 41.99
  L 796.33 31.04
  Q 796.26 30.44 796.84 30.32
  L 799.42 29.77
  Q 799.91 29.67 799.98 30.17
  L 804.43 60.45
  Q 804.50 60.93 804.03 61.06
  L 801.31 61.78
  Q 800.57 61.98 800.54 61.21
  L 800.43 58.72
  Q 800.37 57.27 799.56 58.47
  Z
  M 792.4275 59.9276
  A 8.41 7.64 83.6 0 0 799.0824 50.7184
  A 8.41 7.64 83.6 0 0 790.5525 43.2124
  A 8.41 7.64 83.6 0 0 783.8976 52.4216
  A 8.41 7.64 83.6 0 0 792.4275 59.9276
  Z"
/>
<rect fill="#0c2c40" x="-1.94" y="-15.99" transform="translate(867.82,49.41) rotate(12.2)" width="3.88" height="31.98" rx="1.01"/>
<path fill="#0c2c40" d="
  M 813.24 51.10
  Q 812.93 51.51 813.10 52.00
  C 815.37 58.63 821.54 59.68 826.77 55.05
  Q 827.26 54.62 827.75 55.05
  L 829.05 56.20
  Q 829.56 56.65 829.10 57.16
  C 825.58 61.05 820.40 61.99 815.55 60.01
  C 804.63 55.56 807.53 36.15 820.75 37.66
  Q 830.27 38.75 830.33 49.87
  Q 830.33 50.41 829.80 50.42
  L 813.93 50.75
  Q 813.50 50.76 813.24 51.10
  Z
  M 812.83 47.87
  L 826.35 47.61
  A 0.20 0.20 0.0 0 0 826.54 47.41
  L 826.54 47.30
  A 6.81 6.67 -1.1 0 0 819.60 40.76
  L 819.30 40.76
  A 6.81 6.67 -1.1 0 0 812.62 47.56
  L 812.62 47.67
  A 0.20 0.20 0.0 0 0 812.83 47.87
  Z"
/>
<path fill="#0c2c40" d="
  M 841.76 41.80
  C 849.73 34.31 860.43 42.15 859.08 51.87
  C 857.61 62.50 846.63 66.57 839.52 57.83
  A 0.37 0.37 0.0 0 0 838.87 58.04
  L 838.19 67.54
  Q 838.16 68.00 837.70 68.00
  L 835.29 68.00
  A 1.10 1.09 3.1 0 1 834.20 66.79
  L 837.19 38.95
  Q 837.26 38.28 837.94 38.27
  L 840.24 38.24
  Q 841.00 38.23 841.00 38.99
  L 841.00 41.47
  Q 841.00 42.51 841.76 41.80
  Z
  M 846.3539 58.9356
  A 8.40 7.70 98.6 0 0 855.2234 51.7814
  A 8.40 7.70 98.6 0 0 848.8661 42.3244
  A 8.40 7.70 98.6 0 0 839.9966 49.4786
  A 8.40 7.70 98.6 0 0 846.3539 58.9356
  Z"
/>
<path fill="#0da8d6" d="
  M 283.73 52.91
  C 283.66 59.90 291.49 62.30 296.68 58.46
  Q 297.19 58.09 297.67 58.49
  L 298.98 59.61
  A 0.91 0.90 50.1 0 1 298.85 61.08
  Q 290.66 65.83 284.26 61.14
  C 273.54 53.25 283.45 34.83 295.76 40.93
  C 300.35 43.20 301.87 48.83 301.13 53.62
  A 0.66 0.65 -82.4 0 1 300.40 54.18
  L 284.43 52.30
  Q 283.74 52.21 283.73 52.91
  Z
  M 284.64 49.60
  L 296.70 50.97
  A 0.69 0.69 0.0 0 0 297.46 50.37
  L 297.47 50.31
  A 6.62 6.55 6.5 0 0 291.63 43.05
  L 291.35 43.02
  A 6.62 6.55 6.5 0 0 284.04 48.78
  L 284.03 48.84
  A 0.69 0.69 0.0 0 0 284.64 49.60
  Z"
/>
<path fill="#0da8d6" d="
  M 812.83 47.87
  A 0.20 0.20 0.0 0 1 812.62 47.67
  L 812.62 47.56
  A 6.81 6.67 -1.1 0 1 819.30 40.76
  L 819.60 40.76
  A 6.81 6.67 -1.1 0 1 826.54 47.30
  L 826.54 47.41
  A 0.20 0.20 0.0 0 1 826.35 47.61
  L 812.83 47.87
  Z"
/>
<path fill="#0da8d6" d="
  M 245.87 52.93
  A 11.81 11.81 0.0 0 1 234.06 64.74
  A 11.81 11.81 0.0 0 1 222.25 52.93
  A 11.81 11.81 0.0 0 1 234.06 41.12
  A 11.81 11.81 0.0 0 1 245.87 52.93
  Z
  M 236.5360 60.9459
  A 8.42 7.97 72.4 0 0 241.5869 50.5101
  A 8.42 7.97 72.4 0 0 231.4440 44.8941
  A 8.42 7.97 72.4 0 0 226.3931 55.3299
  A 8.42 7.97 72.4 0 0 236.5360 60.9459
  Z"
/>
<ellipse fill="#0c2c40" cx="0.00" cy="0.00" transform="translate(262.43,50.14) rotate(87.6)" rx="8.40" ry="7.69"/>
<ellipse fill="#0da8d6" cx="0.00" cy="0.00" transform="translate(847.61,50.63) rotate(98.6)" rx="8.40" ry="7.70"/>
<path fill="#0c2c40" d="
  M 284.64 49.60
  A 0.69 0.69 0.0 0 1 284.03 48.84
  L 284.04 48.78
  A 6.62 6.55 6.5 0 1 291.35 43.02
  L 291.63 43.05
  A 6.62 6.55 6.5 0 1 297.47 50.31
  L 297.46 50.37
  A 0.69 0.69 0.0 0 1 296.70 50.97
  L 284.64 49.60
  Z"
/>
<ellipse fill="#0da8d6" cx="0.00" cy="0.00" transform="translate(791.49,51.57) rotate(83.6)" rx="8.41" ry="7.64"/>
<ellipse fill="#0c2c40" cx="0.00" cy="0.00" transform="translate(233.99,52.92) rotate(72.4)" rx="8.42" ry="7.97"/>
<path fill="#0da8d6" d="
  M 202.53 59.24
  C 203.53 67.93 214.21 69.38 218.42 61.97
  Q 218.76 61.37 219.28 61.82
  L 220.64 62.97
  Q 221.07 63.33 220.81 63.83
  Q 217.66 69.82 211.74 70.27
  C 200.33 71.13 194.15 56.67 203.05 49.29
  Q 208.67 44.64 215.96 47.99
  Q 216.38 48.18 216.37 48.64
  Q 216.34 50.23 215.20 51.31
  Q 214.83 51.65 214.40 51.38
  C 208.51 47.63 201.75 52.47 202.53 59.24
  Z"
/>
<path fill="#0c2c40" d="
  M 898.47 59.12
  A 11.88 11.88 0.0 0 1 886.59 71.00
  A 11.88 11.88 0.0 0 1 874.71 59.12
  A 11.88 11.88 0.0 0 1 886.59 47.24
  A 11.88 11.88 0.0 0 1 898.47 59.12
  Z
  M 884.3174 67.1819
  A 8.42 7.92 105.8 0 0 894.2308 61.2365
  A 8.42 7.92 105.8 0 0 888.9026 50.9781
  A 8.42 7.92 105.8 0 0 878.9892 56.9235
  A 8.42 7.92 105.8 0 0 884.3174 67.1819
  Z"
/>
<ellipse fill="#0da8d6" cx="0.00" cy="0.00" transform="translate(886.61,59.08) rotate(105.8)" rx="8.42" ry="7.92"/>
<path fill="#0c2c40" d="
  M 908.13 75.26
  Q 914.44 69.49 920.64 63.69
  C 922.36 62.08 923.87 62.15 925.51 63.63
  Q 925.93 64.01 925.51 64.38
  Q 917.13 71.86 908.82 79.35
  C 903.77 83.91 899.13 86.23 894.05 80.23
  Q 893.61 79.72 894.17 79.33
  L 895.84 78.17
  Q 896.39 77.79 896.83 78.29
  Q 900.38 82.30 904.11 78.73
  Q 904.52 78.33 904.54 77.76
  L 905.31 54.55
  Q 905.32 54.16 905.72 54.17
  C 909.67 54.33 909.03 56.50 908.89 59.33
  Q 908.47 67.28 907.76 75.08
  A 0.22 0.22 0.0 0 0 908.13 75.26
  Z"
/>
<path fill="#0da8d6" d="
  M 610.84 250.57
  L 540.00 329.21
  Q 524.08 346.62 465.49 411.73
  Q 451.76 426.99 446.17 433.62
  C 445.20 434.77 444.06 435.65 442.96 436.62
  A 0.55 0.55 0.0 0 1 442.04 436.25
  C 441.79 433.04 442.75 429.81 442.90 427.25
  Q 444.38 400.23 445.70 373.20
  C 445.78 371.57 446.28 368.63 446.05 366.27
  Q 446.00 365.76 445.49 365.67
  Q 434.62 363.68 426.68 363.08
  Q 399.37 361.04 373.44 358.85
  Q 371.49 358.69 372.80 357.24
  L 469.04 250.50
  L 469.46 250.23
  Q 469.75 250.04 469.98 249.79
  L 541.00 171.04
  Q 587.76 119.52 634.43 67.92
  C 636.61 65.52 639.08 61.71 642.76 62.10
  Q 672.25 65.19 701.76 68.10
  Q 706.66 68.59 712.89 69.96
  A 1.06 1.06 0.0 0 1 713.73 71.07
  Q 711.50 103.73 708.77 137.00
  C 708.47 140.58 707.07 143.61 704.48 146.45
  Q 661.56 193.69 618.96 241.21
  Q 614.64 246.03 610.84 250.57
  Z
  M 596.22 186.13
  L 606.61 174.33
  A 0.62 0.61 -48.1 0 0 606.57 173.48
  C 592.74 160.73 578.99 181.90 593.47 190.57
  C 602.19 195.78 610.62 189.06 611.24 179.49
  Q 611.28 178.78 610.57 178.77
  L 608.60 178.74
  Q 608.03 178.74 607.99 179.31
  Q 607.36 189.94 597.03 188.36
  A 1.35 1.35 0.0 0 1 596.22 186.13
  Z
  M 575.50 197.74
  C 573.84 193.88 578.52 191.20 581.68 189.81
  Q 582.24 189.56 582.06 188.98
  L 581.53 187.35
  Q 581.33 186.75 580.73 186.93
  C 574.87 188.64 567.58 196.05 574.43 201.52
  C 578.18 204.51 584.16 199.79 587.65 197.87
  Q 588.09 197.63 588.57 197.78
  Q 590.80 198.46 591.14 200.89
  Q 591.22 201.47 590.93 201.97
  Q 588.35 206.49 583.13 207.62
  Q 582.58 207.74 582.50 208.30
  Q 582.27 209.90 583.45 210.83
  Q 583.85 211.15 584.32 210.98
  C 589.34 209.20 599.11 202.12 592.51 195.88
  C 588.03 191.64 582.48 196.97 578.04 198.78
  A 1.97 1.96 67.1 0 1 575.50 197.74
  Z
  M 578.54 218.27
  L 579.74 218.88
  Q 580.21 219.11 580.70 218.97
  Q 582.28 218.51 582.51 216.89
  Q 582.59 216.38 582.21 216.04
  C 578.36 212.50 572.13 205.91 567.32 205.15
  C 561.07 204.17 557.19 210.45 555.31 215.70
  Q 555.07 216.38 555.77 216.56
  L 557.67 217.04
  Q 558.26 217.19 558.50 216.63
  C 560.45 211.95 564.66 205.81 570.00 210.28
  Q 570.40 210.61 570.00 210.95
  C 566.44 213.92 561.73 218.16 562.36 222.98
  C 563.08 228.54 568.73 230.93 573.53 227.51
  Q 578.01 224.32 577.94 218.64
  Q 577.93 217.96 578.54 218.27
  Z
  M 548.20 240.43
  L 559.01 228.25
  A 0.82 0.80 44.5 0 0 558.99 227.15
  C 549.85 217.55 534.77 227.28 541.51 239.54
  C 547.83 251.02 563.98 245.99 563.72 233.04
  Q 563.70 232.41 563.08 232.46
  L 561.00 232.62
  Q 560.23 232.68 560.26 233.45
  C 560.57 240.06 554.60 244.56 548.36 241.30
  Q 547.72 240.97 548.20 240.43
  Z
  M 548.2658 255.5005
  A 0.91 0.91 0.0 0 0 548.1872 254.2160
  L 525.5837 234.2181
  A 0.91 0.91 0.0 0 0 524.2992 234.2967
  L 522.9342 235.8395
  A 0.91 0.91 0.0 0 0 523.0128 237.1240
  L 545.6163 257.1219
  A 0.91 0.91 0.0 0 0 546.9008 257.0433
  L 548.2658 255.5005
  Z
  M 523.83 268.13
  L 533.46 257.34
  A 2.08 2.08 0.0 0 0 533.51 254.63
  Q 530.77 251.28 525.84 251.29
  C 512.32 251.30 512.38 269.21 523.70 273.32
  C 531.83 276.26 538.66 270.01 539.13 261.83
  A 1.35 1.35 0.0 0 0 538.08 260.43
  C 536.50 260.09 536.09 260.38 535.99 262.00
  C 535.61 267.91 529.45 273.07 523.95 269.14
  Q 523.32 268.70 523.83 268.13
  Z
  M 506.48 274.15
  L 504.32 271.81
  Q 503.88 271.33 503.43 271.80
  L 501.48 273.82
  Q 500.97 274.35 501.52 274.83
  L 517.51 288.89
  Q 518.03 289.33 518.50 288.85
  L 520.17 287.11
  Q 520.66 286.60 520.13 286.14
  C 515.30 281.87 505.72 275.09 512.06 267.69
  Q 512.53 267.14 511.95 266.72
  L 509.55 264.99
  Q 508.99 264.59 508.59 265.14
  Q 505.79 269.03 507.35 273.63
  A 0.52 0.52 0.0 0 1 506.48 274.15
  Z"
/>
<path fill="#0c2c40" d="
  M 0.00 261.44
  L 0.00 229.69
  C 0.39 225.45 0.10 221.16 0.74 217.15
  Q 2.71 204.69 6.06 189.32
  C 16.35 142.13 45.12 95.28 83.94 66.26
  A 0.84 0.84 0.0 0 1 85.28 66.98
  L 81.19 133.55
  A 1.21 1.20 -86.4 0 0 82.31 134.83
  L 155.31 139.97
  A 0.31 0.31 0.0 0 1 155.51 140.50
  C 136.06 159.79 120.70 183.27 112.50 209.65
  C 106.22 229.83 106.29 250.35 108.60 271.15
  Q 111.89 300.83 127.71 326.40
  C 129.70 329.61 132.80 333.15 135.19 336.65
  Q 135.48 337.09 135.44 337.61
  L 130.29 405.28
  A 1.00 1.00 0.0 0 1 129.24 406.20
  Q 98.05 404.57 66.50 401.71
  Q 61.67 401.27 56.82 401.18
  C 50.53 401.06 35.46 378.28 32.23 372.85
  C 11.74 338.37 1.91 301.52 0.00 261.44
  Z
  M 54.84 201.65
  C 41.17 211.00 54.87 227.46 67.17 220.72
  Q 75.74 216.03 70.47 205.83
  A 0.59 0.59 0.0 0 1 71.33 205.08
  Q 73.66 206.73 74.45 204.28
  A 1.91 1.90 16.0 0 0 73.10 201.86
  L 44.78 194.70
  Q 44.25 194.57 43.94 195.01
  Q 43.03 196.31 43.35 197.74
  Q 43.48 198.30 44.03 198.43
  L 54.73 201.07
  Q 55.44 201.24 54.84 201.65
  Z
  M 68.9274 230.3146
  A 0.26 0.26 0.0 0 0 68.7010 230.0249
  L 37.5748 226.2030
  A 0.26 0.26 0.0 0 0 37.2850 226.4294
  L 36.8926 229.6254
  A 0.26 0.26 0.0 0 0 37.1190 229.9151
  L 68.2452 233.7370
  A 0.26 0.26 0.0 0 0 68.5350 233.5106
  L 68.9274 230.3146
  Z
  M 40.4599 239.9329
  A 0.68 0.68 0.0 0 0 39.8418 239.1962
  L 37.3712 238.9801
  A 0.68 0.68 0.0 0 0 36.6346 239.5982
  L 36.3801 242.5071
  A 0.68 0.68 0.0 0 0 36.9982 243.2438
  L 39.4688 243.4599
  A 0.68 0.68 0.0 0 0 40.2054 242.8418
  L 40.4599 239.9329
  Z
  M 67.5817 241.3496
  A 0.44 0.44 0.0 0 0 67.1670 240.8858
  L 45.6007 239.6800
  A 0.44 0.44 0.0 0 0 45.1368 240.0948
  L 44.9783 242.9304
  A 0.44 0.44 0.0 0 0 45.3930 243.3942
  L 66.9593 244.6000
  A 0.44 0.44 0.0 0 0 67.4232 244.1852
  L 67.5817 241.3496
  Z
  M 64.83 255.15
  L 66.46 254.91
  Q 67.00 254.83 67.00 254.28
  L 67.00 251.69
  Q 67.00 251.13 66.44 251.16
  L 44.99 252.48
  Q 44.49 252.51 44.49 253.01
  L 44.52 255.84
  Q 44.52 256.62 45.29 256.50
  Q 53.75 255.18 58.51 255.47
  C 65.81 255.92 67.33 266.54 59.20 267.72
  Q 52.76 268.65 46.16 268.42
  Q 45.50 268.40 45.50 269.05
  L 45.50 271.27
  Q 45.50 272.42 46.64 272.33
  Q 52.59 271.84 57.82 271.71
  C 67.30 271.46 72.24 263.01 64.59 255.93
  Q 63.90 255.29 64.83 255.15
  Z
  M 54.39 298.20
  L 42.80 300.71
  Q 42.01 300.88 42.22 301.66
  L 42.84 303.98
  Q 42.99 304.54 43.56 304.41
  Q 57.55 301.20 71.62 298.14
  C 73.88 297.65 74.56 296.34 72.95 294.45
  Q 72.70 294.15 72.31 294.22
  L 70.66 294.48
  Q 69.54 294.67 70.05 293.65
  C 74.35 285.21 69.65 276.96 60.25 277.26
  C 49.37 277.61 43.13 291.71 54.48 297.52
  Q 55.39 297.99 54.39 298.20
  Z"
/>
<path fill="#0da8d6" d="
  M 384.96 77.25
  L 384.54 82.00
  Q 383.34 79.52 384.96 77.25
  Z"
/>
<path fill="#0da8d6" d="
  M 1004.22 147.88
  L 1008.71 81.09
  A 0.55 0.55 0.0 0 1 1009.65 80.73
  Q 1012.32 83.42 1014.72 86.27
  Q 1060.28 140.36 1074.43 209.36
  C 1076.57 219.80 1077.70 231.24 1078.81 242.25
  C 1079.86 252.70 1080.03 262.63 1079.28 273.59
  C 1077.83 294.55 1075.04 313.78 1068.02 333.36
  Q 1050.48 382.37 1013.56 419.57
  C 1007.94 425.23 996.46 437.24 988.00 436.56
  Q 953.60 433.80 919.15 430.45
  Q 917.85 430.32 917.98 429.03
  Q 921.52 393.45 924.85 357.65
  C 925.07 355.31 932.58 350.39 934.55 348.66
  C 961.18 325.29 971.93 284.82 971.85 250.74
  Q 971.75 208.58 949.46 173.71
  C 944.41 165.80 939.11 158.17 932.68 152.32
  Q 928.07 148.13 925.72 145.26
  Q 925.22 144.66 926.00 144.70
  Q 949.65 145.95 973.25 147.46
  C 981.22 147.97 990.75 148.24 999.49 148.84
  Q 1001.60 148.99 1003.62 148.57
  Q 1004.18 148.45 1004.22 147.88
  Z
  M 1034.45 196.21
  A 15.77 15.77 0.0 0 0 1018.68 180.44
  A 15.77 15.77 0.0 0 0 1002.91 196.21
  A 15.77 15.77 0.0 0 0 1018.68 211.98
  A 15.77 15.77 0.0 0 0 1034.45 196.21
  Z
  M 1030.68 221.62
  L 1032.93 221.30
  Q 1033.55 221.21 1033.53 220.58
  L 1033.44 218.02
  Q 1033.41 217.15 1032.56 217.30
  L 1004.16 222.30
  Q 1003.53 222.41 1003.70 223.02
  L 1004.35 225.44
  Q 1004.55 226.16 1005.27 226.03
  L 1014.06 224.54
  A 0.42 0.42 0.0 0 1 1014.46 225.22
  C 1011.25 229.25 1011.35 234.47 1014.73 238.38
  C 1025.58 250.91 1045.79 231.36 1030.54 222.33
  Q 1029.62 221.78 1030.68 221.62
  Z
  M 1025.26 251.51
  L 1025.74 267.60
  Q 1025.77 268.36 1026.52 268.43
  C 1039.54 269.55 1043.30 252.45 1031.67 247.89
  Q 1026.82 245.98 1021.82 248.06
  C 1015.21 250.81 1011.65 262.20 1019.00 267.33
  Q 1019.41 267.62 1019.87 267.41
  C 1022.57 266.13 1019.99 264.20 1019.31 262.92
  C 1016.71 257.98 1018.94 251.83 1024.88 251.18
  Q 1025.25 251.14 1025.26 251.51
  Z
  M 1032.75 278.76
  L 1036.31 279.57
  Q 1037.10 279.75 1037.15 278.94
  L 1037.29 276.08
  Q 1037.32 275.59 1036.82 275.54
  L 1015.14 273.27
  Q 1014.50 273.21 1014.50 273.85
  L 1014.50 276.46
  Q 1014.50 277.04 1015.08 277.10
  C 1022.98 277.86 1032.43 277.82 1032.49 287.55
  Q 1032.50 288.22 1033.16 288.23
  L 1035.96 288.27
  Q 1036.52 288.28 1036.50 287.72
  Q 1036.31 282.63 1032.40 279.49
  Q 1031.00 278.37 1032.75 278.76
  Z
  M 1012.00 303.26
  L 1010.15 303.22
  Q 1009.63 303.21 1009.51 303.72
  L 1009.00 305.97
  Q 1008.85 306.63 1009.52 306.76
  Q 1015.78 308.00 1021.91 309.61
  C 1032.16 312.30 1035.15 302.31 1033.70 294.56
  Q 1033.58 293.91 1032.92 293.98
  L 1030.99 294.17
  Q 1030.30 294.23 1030.41 294.92
  C 1031.19 299.64 1029.96 307.05 1023.86 306.32
  A 1.06 1.05 17.4 0 1 1023.05 304.79
  Q 1025.74 299.69 1025.15 294.34
  C 1023.86 282.42 1004.99 289.89 1012.42 302.55
  Q 1012.84 303.28 1012.00 303.26
  Z
  M 1024.75 318.82
  Q 1019.00 317.15 1013.52 314.71
  C 1005.02 310.91 1000.99 322.84 1006.23 323.47
  Q 1006.82 323.54 1006.87 322.95
  Q 1007.13 320.03 1009.31 318.11
  Q 1009.83 317.66 1010.47 317.90
  L 1023.08 322.53
  A 0.78 0.77 20.1 0 1 1023.54 323.51
  L 1021.75 328.52
  Q 1021.48 329.28 1022.22 329.60
  L 1023.66 330.22
  Q 1024.40 330.55 1024.70 329.79
  L 1026.82 324.45
  Q 1027.07 323.84 1027.67 324.10
  L 1032.40 326.17
  Q 1033.08 326.46 1033.37 325.79
  L 1034.32 323.59
  Q 1034.68 322.76 1033.82 322.45
  L 1029.08 320.74
  Q 1028.48 320.52 1028.59 319.89
  L 1028.86 318.39
  Q 1028.94 317.98 1028.76 317.61
  Q 1028.12 316.29 1026.49 316.54
  Q 1026.06 316.61 1025.95 317.02
  L 1025.60 318.34
  Q 1025.42 319.02 1024.75 318.82
  Z
  M 1008.64 333.45
  L 1000.85 347.85
  Q 1000.63 348.26 1001.02 348.51
  C 1017.27 359.18 1026.45 332.47 1008.93 328.84
  C 999.63 326.91 992.78 335.39 995.33 344.17
  Q 995.52 344.84 996.19 344.66
  L 997.33 344.36
  A 1.41 1.40 78.5 0 0 998.36 342.80
  C 997.40 336.32 1001.06 330.66 1008.29 332.61
  Q 1008.99 332.80 1008.64 333.45
  Z"
/>
<path fill="#0c2c40" d="
  M 541.00 171.04
  L 469.98 249.79
  Q 469.75 250.04 469.46 250.23
  L 469.04 250.50
  Q 463.38 243.78 457.49 237.26
  Q 429.67 206.50 401.93 175.65
  C 400.51 174.08 397.77 171.58 395.87 169.39
  Q 395.54 169.00 395.52 168.49
  C 395.07 153.11 397.36 137.74 397.92 121.11
  C 398.24 111.74 399.43 101.42 399.73 91.48
  A 1.53 1.52 3.2 0 1 401.38 90.01
  Q 435.79 92.80 470.51 96.11
  C 474.29 96.47 480.15 103.31 482.61 106.15
  Q 511.18 139.16 541.00 171.04
  Z
  M 437.78 125.87
  L 439.46 124.50
  Q 440.01 124.06 439.57 123.51
  L 438.08 121.61
  Q 437.56 120.95 436.95 121.53
  L 416.50 141.08
  Q 415.97 141.58 416.49 142.10
  L 418.31 143.92
  Q 418.73 144.34 419.15 143.92
  L 425.99 137.25
  A 0.50 0.50 0.0 0 1 426.83 137.68
  C 425.52 145.98 434.15 150.96 441.34 148.11
  C 452.38 143.73 452.12 126.84 438.02 126.58
  Q 436.94 126.56 437.78 125.87
  Z
  M 464.8917 136.0992
  A 0.89 0.89 0.0 0 0 463.6333 136.0750
  L 442.0888 156.8077
  A 0.89 0.89 0.0 0 0 442.0647 158.0662
  L 443.3683 159.4208
  A 0.89 0.89 0.0 0 0 444.6267 159.4450
  L 466.1712 138.7123
  A 0.89 0.89 0.0 0 0 466.1953 137.4538
  L 464.8917 136.0992
  Z
  M 460.67 174.52
  L 459.76 175.71
  Q 459.38 176.20 459.84 176.63
  L 461.35 178.03
  Q 461.82 178.46 462.29 178.03
  C 467.84 172.91 480.35 164.46 471.90 155.84
  C 469.96 153.87 465.07 149.59 463.44 152.56
  Q 462.91 153.53 463.89 154.05
  C 468.13 156.29 474.09 160.77 469.47 166.19
  Q 468.74 167.05 468.18 166.07
  C 455.79 144.60 440.63 170.51 460.41 173.86
  Q 461.08 173.98 460.67 174.52
  Z
  M 483.32 172.30
  L 484.85 170.77
  Q 485.35 170.28 484.79 169.85
  L 482.93 168.42
  Q 482.49 168.08 482.08 168.47
  L 466.88 182.97
  Q 466.56 183.28 466.74 183.68
  Q 467.39 185.11 468.73 185.76
  Q 469.24 186.00 469.64 185.61
  Q 474.05 181.29 478.66 177.16
  C 482.47 173.75 489.02 175.58 489.23 180.83
  C 489.43 185.61 480.65 192.33 477.87 194.67
  Q 477.36 195.10 477.84 195.56
  L 479.72 197.37
  Q 480.16 197.79 480.60 197.38
  Q 485.42 192.97 489.97 188.30
  C 496.35 181.74 492.85 173.08 483.68 173.16
  Q 482.45 173.17 483.32 172.30
  Z"
/>
<path fill="#0da8d6" d="
  M 438.02 126.58
  C 452.12 126.84 452.38 143.73 441.34 148.11
  C 434.15 150.96 425.52 145.98 426.83 137.68
  A 0.50 0.50 0.0 0 0 425.99 137.25
  L 419.15 143.92
  Q 418.73 144.34 418.31 143.92
  L 416.49 142.10
  Q 415.97 141.58 416.50 141.08
  L 436.95 121.53
  Q 437.56 120.95 438.08 121.61
  L 439.57 123.51
  Q 440.01 124.06 439.46 124.50
  L 437.78 125.87
  Q 436.94 126.56 438.02 126.58
  Z
  M 443.2313 131.2324
  A 8.40 7.73 -44.5 0 0 431.8220 131.6066
  A 8.40 7.73 -44.5 0 0 431.2487 143.0076
  A 8.40 7.73 -44.5 0 0 442.6580 142.6334
  A 8.40 7.73 -44.5 0 0 443.2313 131.2324
  Z"
/>
<ellipse fill="#0c2c40" cx="0.00" cy="0.00" transform="translate(437.24,137.12) rotate(-44.5)" rx="8.40" ry="7.73"/>
<rect fill="#0da8d6" x="-15.84" y="-1.83" transform="translate(454.13,147.76) rotate(-43.9)" width="31.68" height="3.66" rx="0.89"/>
<path fill="#0da8d6" d="
  M 460.41 173.86
  C 440.63 170.51 455.79 144.60 468.18 166.07
  Q 468.74 167.05 469.47 166.19
  C 474.09 160.77 468.13 156.29 463.89 154.05
  Q 462.91 153.53 463.44 152.56
  C 465.07 149.59 469.96 153.87 471.90 155.84
  C 480.35 164.46 467.84 172.91 462.29 178.03
  Q 461.82 178.46 461.35 178.03
  L 459.84 176.63
  Q 459.38 176.20 459.76 175.71
  L 460.67 174.52
  Q 461.08 173.98 460.41 173.86
  Z
  M 465.96 166.26
  L 459.37 160.64
  A 2.01 2.01 0.0 0 0 456.53 160.87
  L 455.92 161.60
  A 5.82 5.60 40.4 0 0 456.72 169.63
  L 457.51 170.31
  A 5.82 5.60 40.4 0 0 465.57 169.81
  L 466.19 169.09
  A 2.01 2.01 0.0 0 0 465.96 166.26
  Z"
/>
<path fill="#0c2c40" d="
  M 465.96 166.26
  A 2.01 2.01 0.0 0 1 466.19 169.09
  L 465.57 169.81
  A 5.82 5.60 40.4 0 1 457.51 170.31
  L 456.72 169.63
  A 5.82 5.60 40.4 0 1 455.92 161.60
  L 456.53 160.87
  A 2.01 2.01 0.0 0 1 459.37 160.64
  L 465.96 166.26
  Z"
/>
<path fill="#0da8d6" d="
  M 483.68 173.16
  C 492.85 173.08 496.35 181.74 489.97 188.30
  Q 485.42 192.97 480.60 197.38
  Q 480.16 197.79 479.72 197.37
  L 477.84 195.56
  Q 477.36 195.10 477.87 194.67
  C 480.65 192.33 489.43 185.61 489.23 180.83
  C 489.02 175.58 482.47 173.75 478.66 177.16
  Q 474.05 181.29 469.64 185.61
  Q 469.24 186.00 468.73 185.76
  Q 467.39 185.11 466.74 183.68
  Q 466.56 183.28 466.88 182.97
  L 482.08 168.47
  Q 482.49 168.08 482.93 168.42
  L 484.79 169.85
  Q 485.35 170.28 484.85 170.77
  L 483.32 172.30
  Q 482.45 173.17 483.68 173.16
  Z"
/>
<path fill="#0c2c40" d="
  M 596.22 186.13
  A 1.35 1.35 0.0 0 0 597.03 188.36
  Q 607.36 189.94 607.99 179.31
  Q 608.03 178.74 608.60 178.74
  L 610.57 178.77
  Q 611.28 178.78 611.24 179.49
  C 610.62 189.06 602.19 195.78 593.47 190.57
  C 578.99 181.90 592.74 160.73 606.57 173.48
  A 0.62 0.61 -48.1 0 1 606.61 174.33
  L 596.22 186.13
  Z
  M 593.42 184.96
  L 601.90 175.24
  A 0.25 0.25 0.0 0 0 601.88 174.89
  L 601.75 174.78
  A 6.70 6.70 0.0 0 0 592.30 175.42
  L 592.30 175.42
  A 6.70 6.70 0.0 0 0 592.94 184.87
  L 593.07 184.98
  A 0.25 0.25 0.0 0 0 593.42 184.96
  Z"
/>
<path fill="#0da8d6" d="
  M 593.42 184.96
  A 0.25 0.25 0.0 0 1 593.07 184.98
  L 592.94 184.87
  A 6.70 6.70 0.0 0 1 592.30 175.42
  L 592.30 175.42
  A 6.70 6.70 0.0 0 1 601.75 174.78
  L 601.88 174.89
  A 0.25 0.25 0.0 0 1 601.90 175.24
  L 593.42 184.96
  Z"
/>
<path fill="#0c2c40" d="
  M 1034.45 196.21
  A 15.77 15.77 0.0 0 1 1018.68 211.98
  A 15.77 15.77 0.0 0 1 1002.91 196.21
  A 15.77 15.77 0.0 0 1 1018.68 180.44
  A 15.77 15.77 0.0 0 1 1034.45 196.21
  Z
  M 1029.7034 191.0770
  A 12.12 11.52 -24.9 0 0 1013.8597 185.7309
  A 12.12 11.52 -24.9 0 0 1007.7166 201.2830
  A 12.12 11.52 -24.9 0 0 1023.5603 206.6291
  A 12.12 11.52 -24.9 0 0 1029.7034 191.0770
  Z"
/>
<ellipse fill="#0da8d6" cx="0.00" cy="0.00" transform="translate(1018.71,196.18) rotate(-24.9)" rx="12.12" ry="11.52"/>
<path fill="#0c2c40" d="
  M 575.50 197.74
  A 1.97 1.96 67.1 0 0 578.04 198.78
  C 582.48 196.97 588.03 191.64 592.51 195.88
  C 599.11 202.12 589.34 209.20 584.32 210.98
  Q 583.85 211.15 583.45 210.83
  Q 582.27 209.90 582.50 208.30
  Q 582.58 207.74 583.13 207.62
  Q 588.35 206.49 590.93 201.97
  Q 591.22 201.47 591.14 200.89
  Q 590.80 198.46 588.57 197.78
  Q 588.09 197.63 587.65 197.87
  C 584.16 199.79 578.18 204.51 574.43 201.52
  C 567.58 196.05 574.87 188.64 580.73 186.93
  Q 581.33 186.75 581.53 187.35
  L 582.06 188.98
  Q 582.24 189.56 581.68 189.81
  C 578.52 191.20 573.84 193.88 575.50 197.74
  Z"
/>
<path fill="#0da8d6" d="
  M 54.73 201.07
  L 44.03 198.43
  Q 43.48 198.30 43.35 197.74
  Q 43.03 196.31 43.94 195.01
  Q 44.25 194.57 44.78 194.70
  L 73.10 201.86
  A 1.91 1.90 16.0 0 1 74.45 204.28
  Q 73.66 206.73 71.33 205.08
  A 0.59 0.59 0.0 0 0 70.47 205.83
  Q 75.74 216.03 67.17 220.72
  C 54.87 227.46 41.17 211.00 54.84 201.65
  Q 55.44 201.24 54.73 201.07
  Z
  M 69.2586 212.7132
  A 8.52 7.71 14.5 0 0 62.9404 203.1156
  A 8.52 7.71 14.5 0 0 52.7614 208.4468
  A 8.52 7.71 14.5 0 0 59.0796 218.0444
  A 8.52 7.71 14.5 0 0 69.2586 212.7132
  Z"
/>
<ellipse fill="#0c2c40" cx="0.00" cy="0.00" transform="translate(61.01,210.58) rotate(14.5)" rx="8.52" ry="7.71"/>
<path fill="#0c2c40" d="
  M 577.94 218.64
  Q 578.01 224.32 573.53 227.51
  C 568.73 230.93 563.08 228.54 562.36 222.98
  C 561.73 218.16 566.44 213.92 570.00 210.95
  Q 570.40 210.61 570.00 210.28
  C 564.66 205.81 560.45 211.95 558.50 216.63
  Q 558.26 217.19 557.67 217.04
  L 555.77 216.56
  Q 555.07 216.38 555.31 215.70
  C 557.19 210.45 561.07 204.17 567.32 205.15
  C 572.13 205.91 578.36 212.50 582.21 216.04
  Q 582.59 216.38 582.51 216.89
  Q 582.28 218.51 580.70 218.97
  Q 580.21 219.11 579.74 218.88
  L 578.54 218.27
  Q 577.93 217.96 577.94 218.64
  Z
  M 567.5798 224.9707
  A 6.47 4.33 121.6 0 0 574.6580 221.7289
  A 6.47 4.33 121.6 0 0 574.3602 213.9493
  A 6.47 4.33 121.6 0 0 567.2820 217.1911
  A 6.47 4.33 121.6 0 0 567.5798 224.9707
  Z"
/>
<path fill="#0c2c40" d="
  M 781.2956 245.2149
  A 36.11 34.73 -2.5 0 1 746.7349 281.4869
  A 36.11 34.73 -2.5 0 1 709.1444 248.3651
  A 36.11 34.73 -2.5 0 1 743.7051 212.0931
  A 36.11 34.73 -2.5 0 1 781.2956 245.2149
  Z
  M 746.7796 267.1626
  A 20.40 19.64 85.7 0 0 764.8347 245.3474
  A 20.40 19.64 85.7 0 0 743.7204 226.4774
  A 20.40 19.64 85.7 0 0 725.6653 248.2926
  A 20.40 19.64 85.7 0 0 746.7796 267.1626
  Z"
/>
<path fill="#0da8d6" d="
  M 180.30 213.55
  A 0.74 0.74 0.0 0 1 181.04 212.82
  L 209.89 212.87
  A 34.45 32.72 0.1 0 1 244.28 245.65
  L 244.28 247.89
  A 34.45 32.72 0.1 0 1 209.77 280.55
  L 180.92 280.50
  A 0.74 0.74 0.0 0 1 180.18 279.75
  L 180.30 213.55
  Z
  M 197.22 228.85
  L 197.22 264.61
  A 1.21 1.21 0.0 0 0 198.43 265.82
  L 206.31 265.82
  A 20.21 18.23 0.0 0 0 226.52 247.59
  L 226.52 245.87
  A 20.21 18.23 0.0 0 0 206.31 227.64
  L 198.43 227.64
  A 1.21 1.21 0.0 0 0 197.22 228.85
  Z"
/>
<ellipse fill="#0da8d6" cx="0.00" cy="0.00" transform="translate(570.97,219.46) rotate(121.6)" rx="6.47" ry="4.33"/>
<path fill="#0c2c40" d="
  M 1030.54 222.33
  C 1045.79 231.36 1025.58 250.91 1014.73 238.38
  C 1011.35 234.47 1011.25 229.25 1014.46 225.22
  A 0.42 0.42 0.0 0 0 1014.06 224.54
  L 1005.27 226.03
  Q 1004.55 226.16 1004.35 225.44
  L 1003.70 223.02
  Q 1003.53 222.41 1004.16 222.30
  L 1032.56 217.30
  Q 1033.41 217.15 1033.44 218.02
  L 1033.53 220.58
  Q 1033.55 221.21 1032.93 221.30
  L 1030.68 221.62
  Q 1029.62 221.78 1030.54 222.33
  Z
  M 1032.0108 228.5103
  A 8.39 7.67 -14.0 0 0 1022.0145 223.0978
  A 8.39 7.67 -14.0 0 0 1015.7292 232.5697
  A 8.39 7.67 -14.0 0 0 1025.7255 237.9822
  A 8.39 7.67 -14.0 0 0 1032.0108 228.5103
  Z"
/>
<ellipse fill="#0da8d6" cx="0.00" cy="0.00" transform="translate(1023.87,230.54) rotate(-14.0)" rx="8.39" ry="7.67"/>
<path fill="#0c2c40" d="
  M 548.36 241.30
  C 554.60 244.56 560.57 240.06 560.26 233.45
  Q 560.23 232.68 561.00 232.62
  L 563.08 232.46
  Q 563.70 232.41 563.72 233.04
  C 563.98 245.99 547.83 251.02 541.51 239.54
  C 534.77 227.28 549.85 217.55 558.99 227.15
  A 0.82 0.80 44.5 0 1 559.01 228.25
  L 548.20 240.43
  Q 547.72 240.97 548.36 241.30
  Z
  M 545.92 238.97
  L 554.65 228.82
  A 0.26 0.26 0.0 0 0 554.63 228.45
  L 554.53 228.37
  A 6.80 6.78 -49.3 0 0 544.96 229.10
  L 544.75 229.35
  A 6.80 6.78 -49.3 0 0 545.46 238.92
  L 545.55 239.00
  A 0.26 0.26 0.0 0 0 545.92 238.97
  Z"
/>
<rect fill="#0da8d6" x="-15.94" y="-1.87" transform="translate(52.91,229.97) rotate(7.0)" width="31.88" height="3.74" rx="0.26"/>
<path fill="#0da8d6" d="
  M 545.92 238.97
  A 0.26 0.26 0.0 0 1 545.55 239.00
  L 545.46 238.92
  A 6.80 6.78 -49.3 0 1 544.75 229.35
  L 544.96 229.10
  A 6.80 6.78 -49.3 0 1 554.53 228.37
  L 554.63 228.45
  A 0.26 0.26 0.0 0 1 554.65 228.82
  L 545.92 238.97
  Z"
/>
<path fill="#0da8d6" d="
  M 270.12 259.77
  A 1.31 1.30 62.5 0 0 269.58 261.50
  C 274.76 271.94 284.37 271.16 292.93 265.12
  Q 293.42 264.77 293.97 265.02
  Q 299.14 267.32 302.66 271.76
  A 0.99 0.98 48.2 0 1 302.59 273.07
  C 282.91 292.80 246.81 278.31 253.86 248.16
  C 258.26 229.39 280.92 221.90 296.04 233.48
  C 303.35 239.07 305.98 248.89 305.77 257.80
  A 1.07 1.06 -7.6 0 1 305.00 258.79
  Q 302.79 259.42 300.25 259.33
  Q 286.88 258.84 273.50 258.94
  Q 271.59 258.95 270.12 259.77
  Z
  M 269.32 250.92
  L 289.42 250.82
  A 0.25 0.25 0.0 0 0 289.67 250.57
  L 289.67 250.52
  A 10.22 10.21 89.7 0 0 279.40 240.35
  L 279.22 240.35
  A 10.22 10.21 89.7 0 0 269.07 250.62
  L 269.07 250.67
  A 0.25 0.25 0.0 0 0 269.32 250.92
  Z"
/>
<path fill="#0da8d6" d="
  M 337.11 258.48
  A 1.07 1.07 0.0 0 0 339.14 258.48
  L 349.12 229.60
  A 0.54 0.54 0.0 0 1 349.63 229.23
  L 365.64 229.34
  Q 366.39 229.34 366.12 230.04
  Q 357.13 253.22 347.97 276.18
  Q 346.86 278.98 345.42 281.60
  Q 345.15 282.10 344.58 282.09
  L 330.91 281.77
  Q 330.27 281.75 330.04 281.16
  L 309.91 230.09
  A 0.81 0.81 0.0 0 1 310.69 228.98
  L 326.59 229.50
  Q 327.31 229.53 327.54 230.21
  L 337.11 258.48
  Z"
/>
<path fill="#0c2c40" d="
  M 808.80 274.80
  L 808.70 294.18
  A 2.37 2.36 0.2 0 1 806.32 296.53
  L 794.55 296.45
  Q 793.97 296.44 793.89 295.86
  Q 793.51 292.96 793.58 290.14
  C 793.82 280.29 793.45 271.08 793.68 260.60
  Q 793.96 247.92 793.37 235.25
  Q 793.26 232.79 793.97 230.46
  Q 794.17 229.80 794.86 229.79
  L 807.44 229.52
  Q 808.18 229.50 808.31 230.24
  L 809.08 234.85
  A 1.11 1.10 -18.3 0 0 810.67 235.65
  C 813.00 234.48 815.19 232.28 817.00 231.25
  C 821.64 228.59 826.74 227.92 831.97 229.75
  Q 848.65 235.61 849.07 254.23
  Q 849.50 273.72 832.72 280.12
  C 825.40 282.92 818.68 281.30 813.24 276.01
  Q 812.16 274.96 809.40 274.33
  Q 808.80 274.19 808.80 274.80
  Z
  M 820.7565 268.7559
  A 13.65 12.67 91.4 0 0 833.7562 255.4196
  A 13.65 12.67 91.4 0 0 821.4235 241.4641
  A 13.65 12.67 91.4 0 0 808.4238 254.8004
  A 13.65 12.67 91.4 0 0 820.7565 268.7559
  Z"
/>
<path fill="#0c2c40" d="
  M 873.05 243.20
  C 874.30 247.76 887.88 251.19 889.55 251.71
  C 897.55 254.25 902.71 262.16 899.85 270.29
  C 894.16 286.54 871.01 282.02 860.07 275.94
  C 856.18 273.79 860.98 267.88 863.00 266.34
  Q 863.43 266.02 863.91 266.26
  C 867.44 268.08 885.91 275.54 886.86 267.05
  C 887.19 264.17 885.31 262.90 882.65 262.32
  Q 875.24 260.72 869.23 258.33
  C 860.40 254.82 856.44 245.76 861.47 237.38
  C 868.24 226.11 885.43 227.36 895.65 232.41
  C 900.55 234.84 896.30 240.38 893.89 242.75
  Q 893.53 243.11 893.05 242.92
  C 888.80 241.24 876.12 236.46 873.15 242.24
  Q 872.91 242.70 873.05 243.20
  Z"
/>
<rect fill="#0c2c40" x="-16.00" y="-1.94" transform="translate(535.60,245.67) rotate(41.5)" width="32.00" height="3.88" rx="0.91"/>
<rect fill="#0da8d6" x="-1.92" y="-2.14" transform="translate(38.42,241.22) rotate(5.0)" width="3.84" height="4.28" rx="0.68"/>
<rect fill="#0da8d6" x="-11.24" y="-1.86" transform="translate(56.28,242.14) rotate(3.2)" width="22.48" height="3.72" rx="0.44"/>
<path fill="#0c2c40" d="
  M 1024.88 251.18
  C 1018.94 251.83 1016.71 257.98 1019.31 262.92
  C 1019.99 264.20 1022.57 266.13 1019.87 267.41
  Q 1019.41 267.62 1019.00 267.33
  C 1011.65 262.20 1015.21 250.81 1021.82 248.06
  Q 1026.82 245.98 1031.67 247.89
  C 1043.30 252.45 1039.54 269.55 1026.52 268.43
  Q 1025.77 268.36 1025.74 267.60
  L 1025.26 251.51
  Q 1025.25 251.14 1024.88 251.18
  Z
  M 1027.71 251.58
  L 1028.25 263.93
  A 0.64 0.64 0.0 0 0 1028.92 264.54
  L 1029.10 264.53
  A 6.71 6.66 87.5 0 0 1035.46 257.54
  L 1035.45 257.32
  A 6.71 6.66 87.5 0 0 1028.51 250.90
  L 1028.33 250.91
  A 0.64 0.64 0.0 0 0 1027.71 251.58
  Z"
/>
<path fill="#0c2c40" d="
  M 610.84 250.57
  Q 649.45 292.19 686.36 335.19
  Q 686.67 335.55 686.19 335.51
  L 612.67 329.68
  A 0.75 0.74 5.1 0 0 611.86 330.35
  C 610.77 341.35 609.57 352.36 608.92 363.39
  Q 608.70 367.22 608.20 371.03
  Q 606.51 384.03 604.86 398.95
  Q 604.77 399.79 603.56 399.45
  C 603.43 399.42 602.63 397.97 602.33 397.65
  C 584.35 378.83 570.34 362.43 547.49 337.45
  C 545.68 335.48 542.88 331.64 540.00 329.21
  L 610.84 250.57
  Z"
/>
<path fill="#0da8d6" d="
  M 1027.71 251.58
  A 0.64 0.64 0.0 0 1 1028.33 250.91
  L 1028.51 250.90
  A 6.71 6.66 87.5 0 1 1035.45 257.32
  L 1035.46 257.54
  A 6.71 6.66 87.5 0 1 1029.10 264.53
  L 1028.92 264.54
  A 0.64 0.64 0.0 0 1 1028.25 263.93
  L 1027.71 251.58
  Z"
/>
<path fill="#0da8d6" d="
  M 64.59 255.93
  C 72.24 263.01 67.30 271.46 57.82 271.71
  Q 52.59 271.84 46.64 272.33
  Q 45.50 272.42 45.50 271.27
  L 45.50 269.05
  Q 45.50 268.40 46.16 268.42
  Q 52.76 268.65 59.20 267.72
  C 67.33 266.54 65.81 255.92 58.51 255.47
  Q 53.75 255.18 45.29 256.50
  Q 44.52 256.62 44.52 255.84
  L 44.49 253.01
  Q 44.49 252.51 44.99 252.48
  L 66.44 251.16
  Q 67.00 251.13 67.00 251.69
  L 67.00 254.28
  Q 67.00 254.83 66.46 254.91
  L 64.83 255.15
  Q 63.90 255.29 64.59 255.93
  Z"
/>
<path fill="#0c2c40" d="
  M 523.95 269.14
  C 529.45 273.07 535.61 267.91 535.99 262.00
  C 536.09 260.38 536.50 260.09 538.08 260.43
  A 1.35 1.35 0.0 0 1 539.13 261.83
  C 538.66 270.01 531.83 276.26 523.70 273.32
  C 512.38 269.21 512.32 251.30 525.84 251.29
  Q 530.77 251.28 533.51 254.63
  A 2.08 2.08 0.0 0 1 533.46 257.34
  L 523.83 268.13
  Q 523.32 268.70 523.95 269.14
  Z
  M 521.58 266.79
  L 529.89 257.06
  A 0.47 0.47 0.0 0 0 529.84 256.40
  L 529.73 256.31
  A 6.73 6.71 -49.5 0 0 520.26 257.07
  L 520.08 257.28
  A 6.73 6.71 -49.5 0 0 520.81 266.75
  L 520.91 266.85
  A 0.47 0.47 0.0 0 0 521.58 266.79
  Z"
/>
<path fill="#0da8d6" d="
  M 521.58 266.79
  A 0.47 0.47 0.0 0 1 520.91 266.85
  L 520.81 266.75
  A 6.73 6.71 -49.5 0 1 520.08 257.28
  L 520.26 257.07
  A 6.73 6.71 -49.5 0 1 529.73 256.31
  L 529.84 256.40
  A 0.47 0.47 0.0 0 1 529.89 257.06
  L 521.58 266.79
  Z"
/>
<path fill="#0c2c40" d="
  M 506.48 274.15
  A 0.52 0.52 0.0 0 0 507.35 273.63
  Q 505.79 269.03 508.59 265.14
  Q 508.99 264.59 509.55 264.99
  L 511.95 266.72
  Q 512.53 267.14 512.06 267.69
  C 505.72 275.09 515.30 281.87 520.13 286.14
  Q 520.66 286.60 520.17 287.11
  L 518.50 288.85
  Q 518.03 289.33 517.51 288.89
  L 501.52 274.83
  Q 500.97 274.35 501.48 273.82
  L 503.43 271.80
  Q 503.88 271.33 504.32 271.81
  L 506.48 274.15
  Z"
/>
<path fill="#0c2c40" d="
  M 1032.40 279.49
  Q 1036.31 282.63 1036.50 287.72
  Q 1036.52 288.28 1035.96 288.27
  L 1033.16 288.23
  Q 1032.50 288.22 1032.49 287.55
  C 1032.43 277.82 1022.98 277.86 1015.08 277.10
  Q 1014.50 277.04 1014.50 276.46
  L 1014.50 273.85
  Q 1014.50 273.21 1015.14 273.27
  L 1036.82 275.54
  Q 1037.32 275.59 1037.29 276.08
  L 1037.15 278.94
  Q 1037.10 279.75 1036.31 279.57
  L 1032.75 278.76
  Q 1031.00 278.37 1032.40 279.49
  Z"
/>
<path fill="#0da8d6" d="
  M 54.48 297.52
  C 43.13 291.71 49.37 277.61 60.25 277.26
  C 69.65 276.96 74.35 285.21 70.05 293.65
  Q 69.54 294.67 70.66 294.48
  L 72.31 294.22
  Q 72.70 294.15 72.95 294.45
  C 74.56 296.34 73.88 297.65 71.62 298.14
  Q 57.55 301.20 43.56 304.41
  Q 42.99 304.54 42.84 303.98
  L 42.22 301.66
  Q 42.01 300.88 42.80 300.71
  L 54.39 298.20
  Q 55.39 297.99 54.48 297.52
  Z
  M 68.6136 286.9184
  A 8.44 7.72 -13.3 0 0 58.6240 281.3471
  A 8.44 7.72 -13.3 0 0 52.1864 290.8016
  A 8.44 7.72 -13.3 0 0 62.1760 296.3729
  A 8.44 7.72 -13.3 0 0 68.6136 286.9184
  Z"
/>
<ellipse fill="#0c2c40" cx="0.00" cy="0.00" transform="translate(60.40,288.86) rotate(-13.3)" rx="8.44" ry="7.72"/>
<path fill="#0c2c40" d="
  M 1012.42 302.55
  C 1004.99 289.89 1023.86 282.42 1025.15 294.34
  Q 1025.74 299.69 1023.05 304.79
  A 1.06 1.05 17.4 0 0 1023.86 306.32
  C 1029.96 307.05 1031.19 299.64 1030.41 294.92
  Q 1030.30 294.23 1030.99 294.17
  L 1032.92 293.98
  Q 1033.58 293.91 1033.70 294.56
  C 1035.15 302.31 1032.16 312.30 1021.91 309.61
  Q 1015.78 308.00 1009.52 306.76
  Q 1008.85 306.63 1009.00 305.97
  L 1009.51 303.72
  Q 1009.63 303.21 1010.15 303.22
  L 1012.00 303.26
  Q 1012.84 303.28 1012.42 302.55
  Z
  M 1019.40 292.29
  C 1012.80 291.24 1010.66 303.76 1019.30 305.00
  Q 1019.79 305.07 1020.05 304.65
  C 1021.70 301.89 1024.37 293.09 1019.40 292.29
  Z"
/>
<path fill="#0da8d6" d="
  M 1019.40 292.29
  C 1024.37 293.09 1021.70 301.89 1020.05 304.65
  Q 1019.79 305.07 1019.30 305.00
  C 1010.66 303.76 1012.80 291.24 1019.40 292.29
  Z"
/>
<path fill="#0c2c40" d="
  M 1025.60 318.34
  L 1025.95 317.02
  Q 1026.06 316.61 1026.49 316.54
  Q 1028.12 316.29 1028.76 317.61
  Q 1028.94 317.98 1028.86 318.39
  L 1028.59 319.89
  Q 1028.48 320.52 1029.08 320.74
  L 1033.82 322.45
  Q 1034.68 322.76 1034.32 323.59
  L 1033.37 325.79
  Q 1033.08 326.46 1032.40 326.17
  L 1027.67 324.10
  Q 1027.07 323.84 1026.82 324.45
  L 1024.70 329.79
  Q 1024.40 330.55 1023.66 330.22
  L 1022.22 329.60
  Q 1021.48 329.28 1021.75 328.52
  L 1023.54 323.51
  A 0.78 0.77 20.1 0 0 1023.08 322.53
  L 1010.47 317.90
  Q 1009.83 317.66 1009.31 318.11
  Q 1007.13 320.03 1006.87 322.95
  Q 1006.82 323.54 1006.23 323.47
  C 1000.99 322.84 1005.02 310.91 1013.52 314.71
  Q 1019.00 317.15 1024.75 318.82
  Q 1025.42 319.02 1025.60 318.34
  Z"
/>
<path fill="#0c2c40" d="
  M 1008.29 332.61
  C 1001.06 330.66 997.40 336.32 998.36 342.80
  A 1.41 1.40 78.5 0 1 997.33 344.36
  L 996.19 344.66
  Q 995.52 344.84 995.33 344.17
  C 992.78 335.39 999.63 326.91 1008.93 328.84
  C 1026.45 332.47 1017.27 359.18 1001.02 348.51
  Q 1000.63 348.26 1000.85 347.85
  L 1008.64 333.45
  Q 1008.99 332.80 1008.29 332.61
  Z
  M 1011.04 334.50
  L 1005.15 345.91
  A 0.45 0.45 0.0 0 0 1005.34 346.52
  L 1005.44 346.57
  A 6.71 6.66 -62.7 0 0 1014.43 343.66
  L 1014.58 343.37
  A 6.71 6.66 -62.7 0 0 1011.74 334.36
  L 1011.64 334.31
  A 0.45 0.45 0.0 0 0 1011.04 334.50
  Z"
/>
<path fill="#0da8d6" d="
  M 1011.04 334.50
  A 0.45 0.45 0.0 0 1 1011.64 334.31
  L 1011.74 334.36
  A 6.71 6.66 -62.7 0 1 1014.58 343.37
  L 1014.43 343.66
  A 6.71 6.66 -62.7 0 1 1005.44 346.57
  L 1005.34 346.52
  A 0.45 0.45 0.0 0 1 1005.15 345.91
  L 1011.04 334.50
  Z"
/>
<path fill="#0da8d6" d="
  M 803.44 500.00
  L 800.19 500.00
  C 795.40 499.89 790.18 499.00 786.01 498.69
  C 722.59 493.95 663.14 463.91 619.97 417.53
  Q 618.78 416.25 619.03 413.23
  Q 621.44 383.49 624.07 353.76
  Q 624.38 350.21 624.88 346.71
  A 1.01 1.01 0.0 0 1 626.00 345.85
  C 650.84 348.95 676.06 349.90 701.00 352.46
  C 705.91 352.96 706.50 355.52 709.57 358.18
  C 739.53 384.18 779.72 397.45 819.02 397.51
  C 847.86 397.56 877.41 387.71 901.91 372.72
  C 904.41 371.19 906.67 370.00 908.78 367.91
  A 0.41 0.41 0.0 0 1 909.48 368.23
  L 902.62 441.60
  Q 902.57 442.19 903.15 442.31
  Q 907.85 443.28 912.56 443.69
  Q 943.77 446.39 975.03 448.70
  A 0.55 0.54 -59.8 0 1 975.29 449.70
  Q 915.61 489.61 844.37 497.15
  C 837.93 497.83 828.00 498.39 819.83 499.30
  C 814.53 499.88 808.94 499.59 803.44 500.00
  Z
  M 697.49 408.01
  L 698.24 406.53
  Q 698.56 405.90 697.96 405.54
  L 695.90 404.28
  Q 695.29 403.91 694.96 404.54
  L 685.01 423.57
  Q 684.72 424.12 685.24 424.46
  L 687.50 425.95
  Q 688.08 426.34 688.40 425.71
  Q 691.13 420.31 694.06 415.07
  C 698.56 407.01 708.37 411.75 704.59 419.13
  Q 701.64 424.88 698.65 430.63
  Q 698.38 431.15 698.83 431.54
  Q 700.07 432.58 701.64 432.79
  Q 702.27 432.88 702.52 432.30
  Q 706.65 422.73 708.81 420.06
  C 712.99 414.88 721.14 419.31 718.33 425.60
  Q 715.54 431.83 712.04 437.75
  Q 711.74 438.24 712.25 438.52
  L 714.76 439.88
  Q 715.36 440.20 715.69 439.60
  C 719.05 433.33 727.75 422.01 719.48 416.27
  C 715.86 413.75 713.66 415.11 710.23 415.70
  Q 709.71 415.79 709.62 415.27
  Q 708.39 408.58 701.74 407.97
  C 700.42 407.85 699.23 408.40 697.85 408.53
  Q 697.19 408.59 697.49 408.01
  Z
  M 749.89 435.77
  A 11.87 11.87 0.0 0 0 738.02 423.90
  A 11.87 11.87 0.0 0 0 726.15 435.77
  A 11.87 11.87 0.0 0 0 738.02 447.64
  A 11.87 11.87 0.0 0 0 749.89 435.77
  Z
  M 788.8150 427.8242
  A 0.79 0.79 0.0 0 0 788.1104 426.9572
  L 785.2854 426.6653
  A 0.79 0.79 0.0 0 0 784.4184 427.3699
  L 784.1450 430.0158
  A 0.79 0.79 0.0 0 0 784.8496 430.8828
  L 787.6746 431.1747
  A 0.79 0.79 0.0 0 0 788.5416 430.4701
  L 788.8150 427.8242
  Z
  M 794.79 436.46
  L 792.49 436.72
  Q 791.85 436.79 791.81 437.43
  L 791.73 438.83
  Q 791.69 439.51 792.35 439.69
  L 794.49 440.26
  Q 795.03 440.41 794.99 440.98
  Q 794.11 451.90 794.18 454.74
  C 794.31 460.09 799.32 460.18 803.58 459.92
  Q 804.28 459.88 804.35 459.18
  L 804.56 456.87
  Q 804.64 456.00 803.83 456.33
  C 800.50 457.66 798.17 456.39 798.20 452.64
  Q 798.26 446.76 798.82 440.91
  Q 798.87 440.42 799.35 440.44
  L 804.96 440.67
  Q 805.60 440.70 805.64 440.06
  L 805.78 437.98
  Q 805.83 437.38 805.22 437.34
  L 799.83 437.01
  Q 799.19 436.97 799.23 436.33
  L 799.58 430.84
  Q 799.64 430.05 798.84 430.06
  L 796.32 430.12
  Q 795.53 430.14 795.50 430.93
  L 795.26 435.96
  Q 795.23 436.41 794.79 436.46
  Z
  M 761.25 433.49
  L 761.58 431.41
  Q 761.70 430.63 760.91 430.60
  L 758.28 430.48
  Q 757.67 430.46 757.55 431.05
  L 753.20 451.63
  Q 753.09 452.18 753.62 452.34
  L 756.22 453.15
  Q 756.90 453.35 757.02 452.66
  C 758.00 447.26 758.79 435.89 765.19 435.40
  C 770.19 435.01 772.50 438.10 771.49 443.02
  Q 770.25 449.12 769.00 455.29
  Q 768.88 455.87 769.47 455.95
  L 772.18 456.32
  Q 772.67 456.39 772.79 455.90
  Q 774.47 448.74 775.65 441.48
  C 777.00 433.20 768.26 429.34 761.89 433.89
  Q 761.09 434.46 761.25 433.49
  Z
  M 842.06 439.54
  L 841.96 436.50
  Q 841.93 435.75 841.19 435.75
  L 838.33 435.75
  Q 837.66 435.75 837.75 436.42
  L 840.52 457.98
  Q 840.61 458.62 841.24 458.54
  L 843.99 458.19
  Q 844.54 458.12 844.44 457.58
  C 843.14 450.52 840.74 440.43 850.50 438.20
  Q 851.16 438.05 851.05 437.38
  L 850.60 434.58
  Q 850.50 433.98 849.90 434.11
  Q 844.94 435.20 842.76 439.69
  Q 842.11 441.02 842.06 439.54
  Z
  M 787.4852 436.5589
  A 0.79 0.79 0.0 0 0 786.8020 435.6749
  L 784.5802 435.3903
  A 0.79 0.79 0.0 0 0 783.6962 436.0735
  L 780.9948 457.1611
  A 0.79 0.79 0.0 0 0 781.6780 458.0451
  L 783.8998 458.3297
  A 0.79 0.79 0.0 0 0 784.7838 457.6465
  L 787.4852 436.5589
  Z
  M 833.60 448.43
  A 11.87 11.87 0.0 0 0 821.73 436.56
  A 11.87 11.87 0.0 0 0 809.86 448.43
  A 11.87 11.87 0.0 0 0 821.73 460.30
  A 11.87 11.87 0.0 0 0 833.60 448.43
  Z"
/>
<path fill="#0c2c40" d="
  M 431.04 378.25
  Q 429.48 384.20 430.71 390.25
  L 430.04 402.71
  Q 428.55 408.44 429.53 414.27
  L 429.21 425.25
  Q 427.52 432.44 428.48 439.82
  C 427.92 442.51 428.40 446.96 426.20 448.70
  C 420.35 453.33 414.48 458.07 408.22 461.90
  C 367.75 486.68 322.21 498.91 274.69 500.00
  L 257.44 500.00
  C 250.88 499.95 244.29 498.77 237.78 498.05
  C 177.19 491.39 121.21 466.43 76.21 425.33
  Q 72.58 422.01 69.76 418.43
  A 0.47 0.46 -17.0 0 1 70.16 417.68
  C 76.38 418.13 82.69 418.16 88.59 418.74
  Q 115.70 421.41 142.99 421.99
  A 0.77 0.77 0.0 0 0 143.77 421.28
  L 148.98 353.20
  A 0.65 0.65 0.0 0 1 150.05 352.75
  C 162.39 363.18 175.91 373.04 190.27 380.26
  C 243.93 407.22 301.71 402.38 352.81 373.92
  C 356.09 372.09 359.04 372.29 362.50 372.49
  Q 383.00 373.68 408.16 375.77
  C 413.34 376.20 423.10 376.58 430.55 377.64
  C 430.87 377.68 431.06 377.94 431.04 378.25
  Z
  M 238.55 435.33
  L 243.78 436.54
  Q 244.30 436.66 244.47 436.16
  L 245.26 433.85
  Q 245.46 433.27 244.86 433.17
  L 239.28 432.18
  Q 238.57 432.06 238.68 431.35
  L 239.48 425.86
  Q 239.59 425.15 238.87 425.11
  L 236.34 424.96
  Q 235.84 424.93 235.78 425.42
  L 235.09 430.39
  Q 234.99 431.11 234.27 431.01
  C 233.06 430.84 231.40 431.16 231.19 432.60
  C 230.92 434.45 232.83 434.17 233.86 434.81
  Q 234.33 435.09 234.21 435.63
  Q 232.25 444.24 231.79 448.51
  C 230.96 456.11 243.21 457.49 241.48 452.35
  Q 241.31 451.82 240.76 451.93
  Q 237.52 452.58 235.67 450.03
  Q 235.30 449.52 235.41 448.91
  L 237.72 435.88
  Q 237.85 435.17 238.55 435.33
  Z
  M 295.41 435.03
  L 294.06 434.89
  Q 293.34 434.82 293.31 435.54
  L 293.22 437.72
  Q 293.20 438.25 293.73 438.25
  L 295.81 438.25
  Q 296.39 438.25 296.47 438.83
  C 297.10 443.38 296.98 451.49 298.90 454.77
  C 301.12 458.54 310.57 457.62 308.40 453.62
  Q 308.18 453.21 307.72 453.28
  C 305.92 453.52 302.29 454.55 301.72 452.00
  Q 300.61 447.03 300.36 438.22
  Q 300.35 437.72 300.85 437.69
  L 306.38 437.41
  Q 307.02 437.38 307.00 436.74
  L 306.95 434.40
  Q 306.93 433.68 306.22 433.78
  L 300.29 434.63
  Q 299.52 434.74 299.52 433.96
  L 299.48 428.77
  Q 299.48 428.00 298.71 428.00
  L 296.12 428.00
  Q 295.48 428.00 295.54 428.63
  L 296.11 434.33
  Q 296.18 435.10 295.41 435.03
  Z
  M 251.48 446.98
  L 267.79 448.41
  A 0.64 0.64 0.0 0 0 268.48 447.83
  C 269.02 441.58 266.20 435.00 259.54 434.47
  C 243.85 433.20 242.46 457.07 257.99 458.00
  Q 262.39 458.26 266.31 455.03
  Q 266.78 454.64 266.46 454.11
  L 265.95 453.32
  A 1.20 1.20 0.0 0 0 264.30 452.93
  C 259.15 456.11 250.82 454.93 250.83 447.58
  Q 250.83 446.93 251.48 446.98
  Z
  M 277.53 442.29
  C 276.68 436.95 284.47 438.33 286.96 440.13
  Q 287.37 440.42 287.83 440.23
  Q 289.47 439.53 289.43 437.67
  Q 289.42 437.18 288.97 437.00
  C 284.35 435.11 277.25 433.98 274.46 439.27
  C 269.51 448.67 286.03 447.16 286.71 451.78
  C 287.60 457.93 278.04 455.03 275.48 453.57
  Q 275.00 453.30 274.49 453.50
  Q 273.27 453.98 273.29 455.50
  Q 273.29 455.98 273.70 456.23
  Q 279.35 459.58 285.53 458.07
  C 289.81 457.03 292.14 452.08 289.12 448.45
  C 286.79 445.66 281.08 445.10 278.13 443.22
  Q 277.62 442.89 277.53 442.29
  Z"
/>
<path fill="#0da8d6" d="
  M 431.04 378.25
  Q 431.43 384.26 430.71 390.25
  Q 429.48 384.20 431.04 378.25
  Z"
/>
<path fill="#0da8d6" d="
  M 430.04 402.71
  Q 430.33 408.52 429.53 414.27
  Q 428.55 408.44 430.04 402.71
  Z"
/>
<path fill="#0c2c40" d="
  M 697.85 408.53
  C 699.23 408.40 700.42 407.85 701.74 407.97
  Q 708.39 408.58 709.62 415.27
  Q 709.71 415.79 710.23 415.70
  C 713.66 415.11 715.86 413.75 719.48 416.27
  C 727.75 422.01 719.05 433.33 715.69 439.60
  Q 715.36 440.20 714.76 439.88
  L 712.25 438.52
  Q 711.74 438.24 712.04 437.75
  Q 715.54 431.83 718.33 425.60
  C 721.14 419.31 712.99 414.88 708.81 420.06
  Q 706.65 422.73 702.52 432.30
  Q 702.27 432.88 701.64 432.79
  Q 700.07 432.58 698.83 431.54
  Q 698.38 431.15 698.65 430.63
  Q 701.64 424.88 704.59 419.13
  C 708.37 411.75 698.56 407.01 694.06 415.07
  Q 691.13 420.31 688.40 425.71
  Q 688.08 426.34 687.50 425.95
  L 685.24 424.46
  Q 684.72 424.12 685.01 423.57
  L 694.96 404.54
  Q 695.29 403.91 695.90 404.28
  L 697.96 405.54
  Q 698.56 405.90 698.24 406.53
  L 697.49 408.01
  Q 697.19 408.59 697.85 408.53
  Z"
/>
<path fill="#0c2c40" d="
  M 749.89 435.77
  A 11.87 11.87 0.0 0 1 738.02 447.64
  A 11.87 11.87 0.0 0 1 726.15 435.77
  A 11.87 11.87 0.0 0 1 738.02 423.90
  A 11.87 11.87 0.0 0 1 749.89 435.77
  Z
  M 735.4691 443.8642
  A 8.43 7.89 107.4 0 0 745.5190 438.1794
  A 8.43 7.89 107.4 0 0 740.5109 427.7758
  A 8.43 7.89 107.4 0 0 730.4610 433.4606
  A 8.43 7.89 107.4 0 0 735.4691 443.8642
  Z"
/>
<path fill="#0da8d6" d="
  M 237.72 435.88
  L 235.41 448.91
  Q 235.30 449.52 235.67 450.03
  Q 237.52 452.58 240.76 451.93
  Q 241.31 451.82 241.48 452.35
  C 243.21 457.49 230.96 456.11 231.79 448.51
  Q 232.25 444.24 234.21 435.63
  Q 234.33 435.09 233.86 434.81
  C 232.83 434.17 230.92 434.45 231.19 432.60
  C 231.40 431.16 233.06 430.84 234.27 431.01
  Q 234.99 431.11 235.09 430.39
  L 235.78 425.42
  Q 235.84 424.93 236.34 424.96
  L 238.87 425.11
  Q 239.59 425.15 239.48 425.86
  L 238.68 431.35
  Q 238.57 432.06 239.28 432.18
  L 244.86 433.17
  Q 245.46 433.27 245.26 433.85
  L 244.47 436.16
  Q 244.30 436.66 243.78 436.54
  L 238.55 435.33
  Q 237.85 435.17 237.72 435.88
  Z"
/>
<path fill="#0da8d6" d="
  M 429.21 425.25
  Q 429.37 432.53 428.48 439.82
  Q 427.52 432.44 429.21 425.25
  Z"
/>
<rect fill="#0c2c40" x="-2.21" y="-2.12" transform="translate(786.48,428.92) rotate(5.9)" width="4.42" height="4.24" rx="0.79"/>
<ellipse fill="#0da8d6" cx="0.00" cy="0.00" transform="translate(737.99,435.82) rotate(107.4)" rx="8.43" ry="7.89"/>
<path fill="#0da8d6" d="
  M 296.11 434.33
  L 295.54 428.63
  Q 295.48 428.00 296.12 428.00
  L 298.71 428.00
  Q 299.48 428.00 299.48 428.77
  L 299.52 433.96
  Q 299.52 434.74 300.29 434.63
  L 306.22 433.78
  Q 306.93 433.68 306.95 434.40
  L 307.00 436.74
  Q 307.02 437.38 306.38 437.41
  L 300.85 437.69
  Q 300.35 437.72 300.36 438.22
  Q 300.61 447.03 301.72 452.00
  C 302.29 454.55 305.92 453.52 307.72 453.28
  Q 308.18 453.21 308.40 453.62
  C 310.57 457.62 301.12 458.54 298.90 454.77
  C 296.98 451.49 297.10 443.38 296.47 438.83
  Q 296.39 438.25 295.81 438.25
  L 293.73 438.25
  Q 293.20 438.25 293.22 437.72
  L 293.31 435.54
  Q 293.34 434.82 294.06 434.89
  L 295.41 435.03
  Q 296.18 435.10 296.11 434.33
  Z"
/>
<path fill="#0c2c40" d="
  M 795.26 435.96
  L 795.50 430.93
  Q 795.53 430.14 796.32 430.12
  L 798.84 430.06
  Q 799.64 430.05 799.58 430.84
  L 799.23 436.33
  Q 799.19 436.97 799.83 437.01
  L 805.22 437.34
  Q 805.83 437.38 805.78 437.98
  L 805.64 440.06
  Q 805.60 440.70 804.96 440.67
  L 799.35 440.44
  Q 798.87 440.42 798.82 440.91
  Q 798.26 446.76 798.20 452.64
  C 798.17 456.39 800.50 457.66 803.83 456.33
  Q 804.64 456.00 804.56 456.87
  L 804.35 459.18
  Q 804.28 459.88 803.58 459.92
  C 799.32 460.18 794.31 460.09 794.18 454.74
  Q 794.11 451.90 794.99 440.98
  Q 795.03 440.41 794.49 440.26
  L 792.35 439.69
  Q 791.69 439.51 791.73 438.83
  L 791.81 437.43
  Q 791.85 436.79 792.49 436.72
  L 794.79 436.46
  Q 795.23 436.41 795.26 435.96
  Z"
/>
<path fill="#0c2c40" d="
  M 761.89 433.89
  C 768.26 429.34 777.00 433.20 775.65 441.48
  Q 774.47 448.74 772.79 455.90
  Q 772.67 456.39 772.18 456.32
  L 769.47 455.95
  Q 768.88 455.87 769.00 455.29
  Q 770.25 449.12 771.49 443.02
  C 772.50 438.10 770.19 435.01 765.19 435.40
  C 758.79 435.89 758.00 447.26 757.02 452.66
  Q 756.90 453.35 756.22 453.15
  L 753.62 452.34
  Q 753.09 452.18 753.20 451.63
  L 757.55 431.05
  Q 757.67 430.46 758.28 430.48
  L 760.91 430.60
  Q 761.70 430.63 761.58 431.41
  L 761.25 433.49
  Q 761.09 434.46 761.89 433.89
  Z"
/>
<path fill="#0c2c40" d="
  M 842.76 439.69
  Q 844.94 435.20 849.90 434.11
  Q 850.50 433.98 850.60 434.58
  L 851.05 437.38
  Q 851.16 438.05 850.50 438.20
  C 840.74 440.43 843.14 450.52 844.44 457.58
  Q 844.54 458.12 843.99 458.19
  L 841.24 458.54
  Q 840.61 458.62 840.52 457.98
  L 837.75 436.42
  Q 837.66 435.75 838.33 435.75
  L 841.19 435.75
  Q 841.93 435.75 841.96 436.50
  L 842.06 439.54
  Q 842.11 441.02 842.76 439.69
  Z"
/>
<path fill="#0da8d6" d="
  M 250.83 447.58
  C 250.82 454.93 259.15 456.11 264.30 452.93
  A 1.20 1.20 0.0 0 1 265.95 453.32
  L 266.46 454.11
  Q 266.78 454.64 266.31 455.03
  Q 262.39 458.26 257.99 458.00
  C 242.46 457.07 243.85 433.20 259.54 434.47
  C 266.20 435.00 269.02 441.58 268.48 447.83
  A 0.64 0.64 0.0 0 1 267.79 448.41
  L 251.48 446.98
  Q 250.83 446.93 250.83 447.58
  Z
  M 251.72 444.35
  L 264.05 445.48
  A 0.70 0.70 0.0 0 0 264.81 444.84
  L 264.81 444.79
  A 6.72 6.65 5.2 0 0 258.72 437.56
  L 258.39 437.53
  A 6.72 6.65 5.2 0 0 251.09 443.54
  L 251.09 443.59
  A 0.70 0.70 0.0 0 0 251.72 444.35
  Z"
/>
<path fill="#0da8d6" d="
  M 278.13 443.22
  C 281.08 445.10 286.79 445.66 289.12 448.45
  C 292.14 452.08 289.81 457.03 285.53 458.07
  Q 279.35 459.58 273.70 456.23
  Q 273.29 455.98 273.29 455.50
  Q 273.27 453.98 274.49 453.50
  Q 275.00 453.30 275.48 453.57
  C 278.04 455.03 287.60 457.93 286.71 451.78
  C 286.03 447.16 269.51 448.67 274.46 439.27
  C 277.25 433.98 284.35 435.11 288.97 437.00
  Q 289.42 437.18 289.43 437.67
  Q 289.47 439.53 287.83 440.23
  Q 287.37 440.42 286.96 440.13
  C 284.47 438.33 276.68 436.95 277.53 442.29
  Q 277.62 442.89 278.13 443.22
  Z"
/>
<rect fill="#0c2c40" x="-1.91" y="-11.42" transform="translate(784.24,446.86) rotate(7.3)" width="3.82" height="22.84" rx="0.79"/>
<path fill="#0c2c40" d="
  M 833.60 448.43
  A 11.87 11.87 0.0 0 1 821.73 460.30
  A 11.87 11.87 0.0 0 1 809.86 448.43
  A 11.87 11.87 0.0 0 1 821.73 436.56
  A 11.87 11.87 0.0 0 1 833.60 448.43
  Z
  M 823.1437 456.6745
  A 8.41 7.95 79.7 0 0 829.4619 446.9785
  A 8.41 7.95 79.7 0 0 820.1363 440.1255
  A 8.41 7.95 79.7 0 0 813.8181 449.8215
  A 8.41 7.95 79.7 0 0 823.1437 456.6745
  Z"
/>
<path fill="#0c2c40" d="
  M 251.72 444.35
  A 0.70 0.70 0.0 0 1 251.09 443.59
  L 251.09 443.54
  A 6.72 6.65 5.2 0 1 258.39 437.53
  L 258.72 437.56
  A 6.72 6.65 5.2 0 1 264.81 444.79
  L 264.81 444.84
  A 0.70 0.70 0.0 0 1 264.05 445.48
  L 251.72 444.35
  Z"
/>
<ellipse fill="#0da8d6" cx="0.00" cy="0.00" transform="translate(821.64,448.40) rotate(79.7)" rx="8.41" ry="7.95"/>
</svg>
