<?xml version="1.0" encoding="UTF-8" standalone="no"?>
<!DOCTYPE svg PUBLIC "-//W3C//DTD SVG 1.1//EN" "http://www.w3.org/Graphics/SVG/1.1/DTD/svg11.dtd">
<svg xmlns="http://www.w3.org/2000/svg" version="1.1" viewBox="0.00 0.00 300.00 300.00">
<g stroke-width="2.00" fill="none" stroke-linecap="butt">
<path stroke="#052115" vector-effect="non-scaling-stroke" d="
  M 111.32 108.12
  Q 108.73 106.31 105.82 107.10
  Q 103.36 107.76 103.24 107.78
  C 68.52 114.20 53.25 145.71 59.10 178.35
  Q 59.20 178.94 59.63 180.11
  C 60.19 181.62 60.08 183.27 60.56 184.61
  C 65.76 199.21 76.51 210.07 91.08 215.12
  C 97.07 217.20 120.99 222.74 124.75 218.29"
/>
<path stroke="#84978f" vector-effect="non-scaling-stroke" d="
  M 124.75 218.29
  Q 144.92 217.64 164.66 213.74
  Q 165.25 213.62 165.25 213.01
  L 165.25 58.92
  A 0.20 0.20 0.0 0 0 165.05 58.72
  L 132.19 58.67
  Q 131.79 58.67 131.79 59.06
  L 131.59 108.65
  A 0.77 0.77 0.0 0 1 130.66 109.40
  Q 121.09 107.39 111.32 108.12"
/>
<path stroke="#808a84" vector-effect="non-scaling-stroke" d="
  M 124.75 218.29
  C 99.22 218.70 70.92 212.33 62.27 184.51
  C 58.43 172.15 58.37 155.78 62.71 143.23
  C 70.20 121.57 88.58 110.08 111.32 108.12"
/>
<path stroke="#84978f" vector-effect="non-scaling-stroke" d="
  M 218.5295 59.1294
  A 0.35 0.35 0.0 0 0 218.1801 58.7788
  L 185.2001 58.7212
  A 0.35 0.35 0.0 0 0 184.8495 59.0706
  L 184.7905 92.8706
  A 0.35 0.35 0.0 0 0 185.1399 93.2212
  L 218.1199 93.2788
  A 0.35 0.35 0.0 0 0 218.4705 92.9294
  L 218.5295 59.1294"
/>
<path stroke="#052115" vector-effect="non-scaling-stroke" d="
  M 154.50 249.96
  Q 154.04 250.11 153.99 250.61
  Q 153.93 251.14 154.41 251.37
  L 182.55 264.63
  Q 183.02 264.85 183.49 264.63
  C 186.81 263.03 203.92 253.90 202.50 250.46"
/>
<path stroke="#84978f" vector-effect="non-scaling-stroke" d="
  M 202.50 250.46
  C 217.02 233.69 218.41 214.63 218.46 192.00
  Q 218.54 151.52 218.49 111.05
  Q 218.49 110.55 217.99 110.55
  L 186.02 110.18
  Q 184.71 110.16 184.72 111.47
  Q 184.85 150.53 184.65 190.31
  C 184.59 202.89 183.49 217.83 177.50 228.14
  C 171.77 238.00 162.76 243.33 152.71 248.23
  Q 152.11 248.52 152.60 248.98
  Q 153.45 249.77 154.50 249.96"
/>
<path stroke="#808a84" vector-effect="non-scaling-stroke" d="
  M 202.50 250.46
  Q 193.99 258.24 183.63 263.29
  Q 183.18 263.51 182.72 263.29
  L 154.50 249.96"
/>
<path stroke="#84978f" vector-effect="non-scaling-stroke" d="
  M 94.12 160.09
  Q 93.25 163.44 94.04 167.00"
/>
<path stroke="#808a84" vector-effect="non-scaling-stroke" d="
  M 94.04 167.00
  Q 95.14 188.22 116.00 190.79"
/>
<path stroke="#84978f" vector-effect="non-scaling-stroke" d="
  M 116.00 190.79
  Q 123.66 191.68 131.04 190.31
  A 0.59 0.59 0.0 0 0 131.52 189.73
  L 131.50 137.32
  Q 131.50 136.67 130.86 136.54
  L 128.50 136.04"
/>
<path stroke="#808a84" vector-effect="non-scaling-stroke" d="
  M 128.50 136.04
  C 110.69 132.16 94.92 140.35 94.12 160.09"
/>
<path stroke="#052115" vector-effect="non-scaling-stroke" d="
  M 128.50 136.04
  Q 128.73 136.32 128.76 136.68
  Q 128.79 137.20 128.28 137.17
  C 122.59 136.93 115.84 136.36 110.74 138.06
  Q 99.99 141.62 96.41 152.89
  Q 96.37 153.02 95.92 156.56
  Q 95.66 158.58 94.12 160.09"
/>
<path stroke="#052115" vector-effect="non-scaling-stroke" d="
  M 116.00 190.79
  Q 112.36 188.79 108.37 187.58
  C 102.72 185.86 99.07 181.40 97.09 175.97
  Q 96.92 175.50 97.04 175.02
  L 97.27 174.14
  Q 97.43 173.54 97.13 172.99
  Q 95.56 170.14 95.14 166.91
  Q 95.08 166.37 94.57 166.56
  Q 94.30 166.66 94.04 167.00"
/>
</g>
<path fill="#092e20" d="
  M 30.31 0.00
  L 269.81 0.00
  Q 296.12 3.97 300.00 30.31
  L 300.00 269.81
  Q 295.99 296.08 269.69 300.00
  L 30.19 300.00
  Q 3.89 296.01 0.00 269.69
  L 0.00 29.94
  Q 4.16 3.89 30.31 0.00
  Z
  M 111.32 108.12
  Q 108.73 106.31 105.82 107.10
  Q 103.36 107.76 103.24 107.78
  C 68.52 114.20 53.25 145.71 59.10 178.35
  Q 59.20 178.94 59.63 180.11
  C 60.19 181.62 60.08 183.27 60.56 184.61
  C 65.76 199.21 76.51 210.07 91.08 215.12
  C 97.07 217.20 120.99 222.74 124.75 218.29
  Q 144.92 217.64 164.66 213.74
  Q 165.25 213.62 165.25 213.01
  L 165.25 58.92
  A 0.20 0.20 0.0 0 0 165.05 58.72
  L 132.19 58.67
  Q 131.79 58.67 131.79 59.06
  L 131.59 108.65
  A 0.77 0.77 0.0 0 1 130.66 109.40
  Q 121.09 107.39 111.32 108.12
  Z
  M 218.5295 59.1294
  A 0.35 0.35 0.0 0 0 218.1801 58.7788
  L 185.2001 58.7212
  A 0.35 0.35 0.0 0 0 184.8495 59.0706
  L 184.7905 92.8706
  A 0.35 0.35 0.0 0 0 185.1399 93.2212
  L 218.1199 93.2788
  A 0.35 0.35 0.0 0 0 218.4705 92.9294
  L 218.5295 59.1294
  Z
  M 154.50 249.96
  Q 154.04 250.11 153.99 250.61
  Q 153.93 251.14 154.41 251.37
  L 182.55 264.63
  Q 183.02 264.85 183.49 264.63
  C 186.81 263.03 203.92 253.90 202.50 250.46
  C 217.02 233.69 218.41 214.63 218.46 192.00
  Q 218.54 151.52 218.49 111.05
  Q 218.49 110.55 217.99 110.55
  L 186.02 110.18
  Q 184.71 110.16 184.72 111.47
  Q 184.85 150.53 184.65 190.31
  C 184.59 202.89 183.49 217.83 177.50 228.14
  C 171.77 238.00 162.76 243.33 152.71 248.23
  Q 152.11 248.52 152.60 248.98
  Q 153.45 249.77 154.50 249.96
  Z"
/>
<path fill="#fffffd" d="
  M 124.75 218.29
  C 99.22 218.70 70.92 212.33 62.27 184.51
  C 58.43 172.15 58.37 155.78 62.71 143.23
  C 70.20 121.57 88.58 110.08 111.32 108.12
  Q 121.09 107.39 130.66 109.40
  A 0.77 0.77 0.0 0 0 131.59 108.65
  L 131.79 59.06
  Q 131.79 58.67 132.19 58.67
  L 165.05 58.72
  A 0.20 0.20 0.0 0 1 165.25 58.92
  L 165.25 213.01
  Q 165.25 213.62 164.66 213.74
  Q 144.92 217.64 124.75 218.29
  Z
  M 94.12 160.09
  Q 93.25 163.44 94.04 167.00
  Q 95.14 188.22 116.00 190.79
  Q 123.66 191.68 131.04 190.31
  A 0.59 0.59 0.0 0 0 131.52 189.73
  L 131.50 137.32
  Q 131.50 136.67 130.86 136.54
  L 128.50 136.04
  C 110.69 132.16 94.92 140.35 94.12 160.09
  Z"
/>
<rect fill="#fffffd" x="-16.84" y="-17.25" transform="translate(201.66,76.00) rotate(0.1)" width="33.68" height="34.50" rx="0.35"/>
<path fill="#01140a" d="
  M 111.32 108.12
  C 88.58 110.08 70.20 121.57 62.71 143.23
  C 58.37 155.78 58.43 172.15 62.27 184.51
  C 70.92 212.33 99.22 218.70 124.75 218.29
  C 120.99 222.74 97.07 217.20 91.08 215.12
  C 76.51 210.07 65.76 199.21 60.56 184.61
  C 60.08 183.27 60.19 181.62 59.63 180.11
  Q 59.20 178.94 59.10 178.35
  C 53.25 145.71 68.52 114.20 103.24 107.78
  Q 103.36 107.76 105.82 107.10
  Q 108.73 106.31 111.32 108.12
  Z"
/>
<path fill="#fffffd" d="
  M 202.50 250.46
  Q 193.99 258.24 183.63 263.29
  Q 183.18 263.51 182.72 263.29
  L 154.50 249.96
  Q 153.45 249.77 152.60 248.98
  Q 152.11 248.52 152.71 248.23
  C 162.76 243.33 171.77 238.00 177.50 228.14
  C 183.49 217.83 184.59 202.89 184.65 190.31
  Q 184.85 150.53 184.72 111.47
  Q 184.71 110.16 186.02 110.18
  L 217.99 110.55
  Q 218.49 110.55 218.49 111.05
  Q 218.54 151.52 218.46 192.00
  C 218.41 214.63 217.02 233.69 202.50 250.46
  Z"
/>
<path fill="#01140a" d="
  M 128.50 136.04
  Q 128.73 136.32 128.76 136.68
  Q 128.79 137.20 128.28 137.17
  C 122.59 136.93 115.84 136.36 110.74 138.06
  Q 99.99 141.62 96.41 152.89
  Q 96.37 153.02 95.92 156.56
  Q 95.66 158.58 94.12 160.09
  C 94.92 140.35 110.69 132.16 128.50 136.04
  Z"
/>
<path fill="#092e20" d="
  M 128.50 136.04
  L 130.86 136.54
  Q 131.50 136.67 131.50 137.32
  L 131.52 189.73
  A 0.59 0.59 0.0 0 1 131.04 190.31
  Q 123.66 191.68 116.00 190.79
  Q 112.36 188.79 108.37 187.58
  C 102.72 185.86 99.07 181.40 97.09 175.97
  Q 96.92 175.50 97.04 175.02
  L 97.27 174.14
  Q 97.43 173.54 97.13 172.99
  Q 95.56 170.14 95.14 166.91
  Q 95.08 166.37 94.57 166.56
  Q 94.30 166.66 94.04 167.00
  Q 93.25 163.44 94.12 160.09
  Q 95.66 158.58 95.92 156.56
  Q 96.37 153.02 96.41 152.89
  Q 99.99 141.62 110.74 138.06
  C 115.84 136.36 122.59 136.93 128.28 137.17
  Q 128.79 137.20 128.76 136.68
  Q 128.73 136.32 128.50 136.04
  Z"
/>
<path fill="#01140a" d="
  M 116.00 190.79
  Q 95.14 188.22 94.04 167.00
  Q 94.30 166.66 94.57 166.56
  Q 95.08 166.37 95.14 166.91
  Q 95.56 170.14 97.13 172.99
  Q 97.43 173.54 97.27 174.14
  L 97.04 175.02
  Q 96.92 175.50 97.09 175.97
  C 99.07 181.40 102.72 185.86 108.37 187.58
  Q 112.36 188.79 116.00 190.79
  Z"
/>
<path fill="#01140a" d="
  M 154.50 249.96
  L 182.72 263.29
  Q 183.18 263.51 183.63 263.29
  Q 193.99 258.24 202.50 250.46
  C 203.92 253.90 186.81 263.03 183.49 264.63
  Q 183.02 264.85 182.55 264.63
  L 154.41 251.37
  Q 153.93 251.14 153.99 250.61
  Q 154.04 250.11 154.50 249.96
  Z"
/>
</svg>
