<?xml version="1.0" encoding="UTF-8" standalone="no"?>
<!DOCTYPE svg PUBLIC "-//W3C//DTD SVG 1.1//EN" "http://www.w3.org/Graphics/SVG/1.1/DTD/svg11.dtd">
<svg xmlns="http://www.w3.org/2000/svg" version="1.1" viewBox="0.00 0.00 648.00 544.00">
<g stroke-width="2.00" fill="none" stroke-linecap="butt">
<path stroke="#2f83a0" vector-effect="non-scaling-stroke" d="
  M 363.9469 10.2562
  A 0.56 0.56 0.0 0 0 363.3859 9.6972
  L 314.2660 9.7829
  A 0.56 0.56 0.0 0 0 313.7070 10.3439
  L 313.7931 59.7038
  A 0.56 0.56 0.0 0 0 314.3541 60.2628
  L 363.4740 60.1771
  A 0.56 0.56 0.0 0 0 364.0330 59.6161
  L 363.9469 10.2562"
/>
<path stroke="#1d7d94" vector-effect="non-scaling-stroke" d="
  M 248.2932 68.0541
  A 0.26 0.26 0.0 0 0 248.0337 67.7937
  L 198.0538 67.7064
  A 0.26 0.26 0.0 0 0 197.7933 67.9660
  L 197.7068 117.5659
  A 0.26 0.26 0.0 0 0 197.9663 117.8263
  L 247.9462 117.9136
  A 0.26 0.26 0.0 0 0 248.2067 117.6540
  L 248.2932 68.0541"
/>
<path stroke="#2f83a0" vector-effect="non-scaling-stroke" d="
  M 306.2931 68.1841
  A 0.39 0.39 0.0 0 0 305.9038 67.7934
  L 256.1839 67.7066
  A 0.39 0.39 0.0 0 0 255.7932 68.0960
  L 255.7069 117.5359
  A 0.39 0.39 0.0 0 0 256.0962 117.9266
  L 305.8161 118.0134
  A 0.39 0.39 0.0 0 0 306.2068 117.6240
  L 306.2931 68.1841"
/>
<path stroke="#1d7d94" vector-effect="non-scaling-stroke" d="
  M 363.99 68.28
  A 0.53 0.53 0.0 0 0 363.46 67.75
  L 314.28 67.75
  A 0.53 0.53 0.0 0 0 313.75 68.28
  L 313.75 117.46
  A 0.53 0.53 0.0 0 0 314.28 117.99
  L 363.46 117.99
  A 0.53 0.53 0.0 0 0 363.99 117.46
  L 363.99 68.28"
/>
<path stroke="#1d7d94" vector-effect="non-scaling-stroke" d="
  M 111.98 184.52
  L 90.30 184.63
  A 0.67 0.67 0.0 0 0 89.63 185.25
  Q 88.37 202.91 89.90 220.55
  A 0.69 0.68 88.6 0 0 90.56 221.18
  Q 103.07 221.56 114.29 219.00"
/>
<path stroke="#2f83a0" vector-effect="non-scaling-stroke" d="
  M 114.29 219.00
  Q 129.31 216.99 141.65 208.35
  Q 142.06 208.07 142.39 208.43
  C 151.11 217.87 167.00 221.20 179.22 222.22
  Q 212.30 224.98 244.42 216.89
  C 253.11 214.70 260.90 211.60 266.70 204.50
  Q 267.09 204.02 267.52 204.46
  C 291.64 229.21 352.76 229.21 376.85 204.42
  Q 377.43 203.83 377.79 204.58
  L 378.13 205.29
  Q 378.37 205.80 378.77 206.21
  C 385.06 212.68 394.25 215.57 402.80 217.57
  Q 433.29 224.69 464.57 222.16
  Q 474.88 221.32 484.69 218.38"
/>
<path stroke="#1d7d94" vector-effect="non-scaling-stroke" d="
  M 484.69 218.38
  Q 494.81 215.79 501.87 208.44
  Q 502.24 208.07 502.66 208.37
  Q 514.58 216.65 529.00 218.88
  Q 529.49 218.96 529.74 218.52
  Q 542.03 197.07 550.80 173.94
  Q 551.23 172.80 552.44 172.93
  C 584.07 176.28 616.33 168.44 633.00 139.00
  A 0.77 0.77 0.0 0 0 632.67 137.93
  Q 616.36 129.71 598.50 129.58
  Q 579.78 129.45 563.29 137.03"
/>
<path stroke="#2f83a0" vector-effect="non-scaling-stroke" d="
  M 563.29 137.03
  L 561.90 137.04
  Q 561.37 137.04 561.41 136.51
  C 563.38 110.65 548.25 88.24 528.77 73.01
  Q 528.10 72.49 527.63 73.19
  C 510.79 97.68 511.22 139.26 534.27 160.64
  Q 534.69 161.04 534.25 161.41
  C 518.82 174.29 496.27 181.06 476.69 183.58
  Q 469.46 184.51 457.27 184.51
  Q 284.65 184.48 111.98 184.52"
/>
<path stroke="#12b2df" vector-effect="non-scaling-stroke" d="
  M 563.29 137.03
  Q 528.92 181.27 488.32 214.83
  Q 485.42 217.22 484.69 218.38"
/>
<path stroke="#12b2df" vector-effect="non-scaling-stroke" d="
  M 114.29 219.00
  Q 110.81 201.94 111.98 184.52"
/>
<path stroke="#1d7d94" vector-effect="non-scaling-stroke" d="
  M 190.26 126.02
  A 0.27 0.27 0.0 0 0 189.99 125.75
  L 140.49 125.75
  A 0.27 0.27 0.0 0 0 140.22 126.02
  L 140.22 175.60
  A 0.27 0.27 0.0 0 0 140.49 175.87
  L 189.99 175.87
  A 0.27 0.27 0.0 0 0 190.26 175.60
  L 190.26 126.02"
/>
<path stroke="#2f83a0" vector-effect="non-scaling-stroke" d="
  M 198.05 175.81
  L 248.03 175.73
  A 0.27 0.27 0.0 0 0 248.30 175.46
  L 248.22 126.34
  A 0.63 0.39 89.9 0 0 247.83 125.71
  L 198.09 125.79
  A 0.63 0.39 89.9 0 0 197.70 126.42
  L 197.78 175.54
  A 0.27 0.27 0.0 0 0 198.05 175.81"
/>
<path stroke="#1d7d94" vector-effect="non-scaling-stroke" d="
  M 306.2069 126.1260
  A 0.42 0.42 0.0 0 0 305.7862 125.7067
  L 256.1262 125.7934
  A 0.42 0.42 0.0 0 0 255.7070 126.2141
  L 255.7931 175.5540
  A 0.42 0.42 0.0 0 0 256.2138 175.9733
  L 305.8738 175.8866
  A 0.42 0.42 0.0 0 0 306.2930 175.4659
  L 306.2069 126.1260"
/>
<path stroke="#2f83a0" vector-effect="non-scaling-stroke" d="
  M 363.99 126.03
  A 0.28 0.28 0.0 0 0 363.71 125.75
  L 314.03 125.75
  A 0.28 0.28 0.0 0 0 313.75 126.03
  L 313.75 175.63
  A 0.28 0.28 0.0 0 0 314.03 175.91
  L 363.71 175.91
  A 0.28 0.28 0.0 0 0 363.99 175.63
  L 363.99 126.03"
/>
<path stroke="#1d7d94" vector-effect="non-scaling-stroke" d="
  M 421.76 126.02
  A 0.26 0.26 0.0 0 0 421.50 125.76
  L 371.76 125.76
  A 0.26 0.26 0.0 0 0 371.50 126.02
  L 371.50 175.72
  A 0.26 0.26 0.0 0 0 371.76 175.98
  L 421.50 175.98
  A 0.26 0.26 0.0 0 0 421.76 175.72
  L 421.76 126.02"
/>
<path stroke="#1e748d" vector-effect="non-scaling-stroke" d="
  M 163.25 292.92
  Q 193.88 292.87 223.10 284.01
  Q 223.60 283.86 224.07 284.10
  L 226.37 285.28
  Q 226.82 285.51 226.99 285.99
  C 229.18 292.00 222.04 292.91 218.25 294.21"
/>
<path stroke="#7c949a" vector-effect="non-scaling-stroke" d="
  M 218.25 294.21
  C 188.26 302.24 155.83 302.88 125.00 301.01
  A 0.26 0.25 69.5 0 0 124.81 301.44
  C 153.38 331.26 189.32 349.34 230.15 354.73
  Q 256.05 358.15 282.25 357.21"
/>
<path stroke="#1d6c86" vector-effect="non-scaling-stroke" d="
  M 282.25 357.21
  C 380.93 352.90 469.00 314.34 523.54 229.19
  A 0.31 0.31 0.0 0 0 523.28 228.72
  L 469.25 228.54"
/>
<path stroke="#1e748d" vector-effect="non-scaling-stroke" d="
  M 469.25 228.54
  L 116.25 228.79"
/>
<path stroke="#1d6c86" vector-effect="non-scaling-stroke" d="
  M 116.25 228.79
  Q 103.84 228.21 91.68 228.88
  A 0.53 0.53 0.0 0 0 91.19 229.51
  Q 97.14 262.81 116.58 290.06
  C 117.06 290.73 117.81 292.15 118.75 292.22
  Q 137.56 293.54 163.25 292.92"
/>
<path stroke="#0293bf" vector-effect="non-scaling-stroke" d="
  M 116.25 228.79
  Q 126.09 266.82 157.06 290.69
  Q 159.46 292.53 163.25 292.92"
/>
<path stroke="#0293bf" vector-effect="non-scaling-stroke" d="
  M 469.25 228.54
  L 470.10 228.75
  Q 470.81 228.93 470.23 229.38
  C 405.36 279.63 318.20 321.56 234.18 317.15
  Q 233.67 317.13 233.33 317.51
  Q 232.84 318.07 232.96 319.00"
/>
<path stroke="#61bbd3" vector-effect="non-scaling-stroke" d="
  M 232.96 319.00
  Q 224.36 307.35 218.25 294.21"
/>
<path stroke="#60b3cc" vector-effect="non-scaling-stroke" d="
  M 282.25 357.21
  C 263.01 347.27 246.57 336.12 232.96 319.00"
/>
<path stroke="#2f83a0" vector-effect="non-scaling-stroke" d="
  M 329.50 14.75
  A 0.38 0.38 0.0 0 0 329.12 14.37
  L 326.02 14.37
  A 0.38 0.38 0.0 0 0 325.64 14.75
  L 325.64 55.37
  A 0.38 0.38 0.0 0 0 326.02 55.75
  L 329.12 55.75
  A 0.38 0.38 0.0 0 0 329.50 55.37
  L 329.50 14.75"
/>
<path stroke="#2f83a0" vector-effect="non-scaling-stroke" d="
  M 337.00 14.91
  A 0.56 0.56 0.0 0 0 336.44 14.35
  L 333.58 14.35
  A 0.56 0.56 0.0 0 0 333.02 14.91
  L 333.02 55.33
  A 0.56 0.56 0.0 0 0 333.58 55.89
  L 336.44 55.89
  A 0.56 0.56 0.0 0 0 337.00 55.33
  L 337.00 14.91"
/>
<path stroke="#2f83a0" vector-effect="non-scaling-stroke" d="
  M 344.60 14.79
  A 0.50 0.50 0.0 0 0 344.10 14.29
  L 341.16 14.29
  A 0.50 0.50 0.0 0 0 340.66 14.79
  L 340.66 55.35
  A 0.50 0.50 0.0 0 0 341.16 55.85
  L 344.10 55.85
  A 0.50 0.50 0.0 0 0 344.60 55.35
  L 344.60 14.79"
/>
<path stroke="#2f83a0" vector-effect="non-scaling-stroke" d="
  M 352.2850 14.9735
  A 0.63 0.63 0.0 0 0 351.6561 14.3424
  L 348.9561 14.3377
  A 0.63 0.63 0.0 0 0 348.3250 14.9666
  L 348.2550 55.1265
  A 0.63 0.63 0.0 0 0 348.8839 55.7576
  L 351.5839 55.7623
  A 0.63 0.63 0.0 0 0 352.2150 55.1334
  L 352.2850 14.9735"
/>
<path stroke="#2f83a0" vector-effect="non-scaling-stroke" d="
  M 359.75 14.75
  A 0.35 0.35 0.0 0 0 359.40 14.40
  L 356.10 14.40
  A 0.35 0.35 0.0 0 0 355.75 14.75
  L 355.75 55.45
  A 0.35 0.35 0.0 0 0 356.10 55.80
  L 359.40 55.80
  A 0.35 0.35 0.0 0 0 359.75 55.45
  L 359.75 14.75"
/>
<path stroke="#2f83a0" vector-effect="non-scaling-stroke" d="
  M 321.82 14.79
  A 0.27 0.27 0.0 0 0 321.55 14.52
  L 318.45 14.52
  A 0.27 0.27 0.0 0 0 318.18 14.79
  L 318.18 55.47
  A 0.27 0.27 0.0 0 0 318.45 55.74
  L 321.55 55.74
  A 0.27 0.27 0.0 0 0 321.82 55.47
  L 321.82 14.79"
/>
<path stroke="#1d7d94" vector-effect="non-scaling-stroke" d="
  M 213.76 72.76
  A 0.62 0.62 0.0 0 0 213.14 72.14
  L 210.14 72.14
  A 0.62 0.62 0.0 0 0 209.52 72.76
  L 209.52 113.26
  A 0.62 0.62 0.0 0 0 210.14 113.88
  L 213.14 113.88
  A 0.62 0.62 0.0 0 0 213.76 113.26
  L 213.76 72.76"
/>
<path stroke="#1d7d94" vector-effect="non-scaling-stroke" d="
  M 221.38 72.90
  A 0.75 0.75 0.0 0 0 220.63 72.15
  L 218.13 72.15
  A 0.75 0.75 0.0 0 0 217.38 72.90
  L 217.38 113.20
  A 0.75 0.75 0.0 0 0 218.13 113.95
  L 220.63 113.95
  A 0.75 0.75 0.0 0 0 221.38 113.20
  L 221.38 72.90"
/>
<path stroke="#1d7d94" vector-effect="non-scaling-stroke" d="
  M 228.8495 72.8629
  A 0.73 0.73 0.0 0 0 228.1170 72.1354
  L 225.4170 72.1448
  A 0.73 0.73 0.0 0 0 224.6896 72.8774
  L 224.8305 113.2371
  A 0.73 0.73 0.0 0 0 225.5630 113.9646
  L 228.2630 113.9552
  A 0.73 0.73 0.0 0 0 228.9904 113.2226
  L 228.8495 72.8629"
/>
<path stroke="#1d7d94" vector-effect="non-scaling-stroke" d="
  M 236.50 72.64
  A 0.48 0.48 0.0 0 0 236.02 72.16
  L 232.98 72.16
  A 0.48 0.48 0.0 0 0 232.50 72.64
  L 232.50 113.26
  A 0.48 0.48 0.0 0 0 232.98 113.74
  L 236.02 113.74
  A 0.48 0.48 0.0 0 0 236.50 113.26
  L 236.50 72.64"
/>
<path stroke="#1d7d94" vector-effect="non-scaling-stroke" d="
  M 243.75 72.42
  A 0.30 0.30 0.0 0 0 243.45 72.12
  L 240.55 72.12
  A 0.30 0.30 0.0 0 0 240.25 72.42
  L 240.25 113.44
  A 0.30 0.30 0.0 0 0 240.55 113.74
  L 243.45 113.74
  A 0.30 0.30 0.0 0 0 243.75 113.44
  L 243.75 72.42"
/>
<path stroke="#1d7d94" vector-effect="non-scaling-stroke" d="
  M 206.07 72.67
  A 0.39 0.39 0.0 0 0 205.68 72.28
  L 202.68 72.28
  A 0.39 0.39 0.0 0 0 202.29 72.67
  L 202.29 113.55
  A 0.39 0.39 0.0 0 0 202.68 113.94
  L 205.68 113.94
  A 0.39 0.39 0.0 0 0 206.07 113.55
  L 206.07 72.67"
/>
<path stroke="#2f83a0" vector-effect="non-scaling-stroke" d="
  M 271.7156 72.4635
  A 0.43 0.43 0.0 0 0 271.2864 72.0328
  L 268.1664 72.0273
  A 0.43 0.43 0.0 0 0 267.7356 72.4566
  L 267.6644 113.2965
  A 0.43 0.43 0.0 0 0 268.0936 113.7272
  L 271.2136 113.7327
  A 0.43 0.43 0.0 0 0 271.6444 113.3034
  L 271.7156 72.4635"
/>
<path stroke="#2f83a0" vector-effect="non-scaling-stroke" d="
  M 279.25 72.50
  A 0.31 0.31 0.0 0 0 278.94 72.19
  L 275.54 72.19
  A 0.31 0.31 0.0 0 0 275.23 72.50
  L 275.23 113.42
  A 0.31 0.31 0.0 0 0 275.54 113.73
  L 278.94 113.73
  A 0.31 0.31 0.0 0 0 279.25 113.42
  L 279.25 72.50"
/>
<path stroke="#2f83a0" vector-effect="non-scaling-stroke" d="
  M 294.26 72.48
  A 0.26 0.26 0.0 0 0 294.00 72.22
  L 290.76 72.22
  A 0.26 0.26 0.0 0 0 290.50 72.48
  L 290.50 113.48
  A 0.26 0.26 0.0 0 0 290.76 113.74
  L 294.00 113.74
  A 0.26 0.26 0.0 0 0 294.26 113.48
  L 294.26 72.48"
/>
<path stroke="#2f83a0" vector-effect="non-scaling-stroke" d="
  M 301.75 72.54
  A 0.39 0.39 0.0 0 0 301.36 72.15
  L 298.40 72.15
  A 0.39 0.39 0.0 0 0 298.01 72.54
  L 298.01 113.36
  A 0.39 0.39 0.0 0 0 298.40 113.75
  L 301.36 113.75
  A 0.39 0.39 0.0 0 0 301.75 113.36
  L 301.75 72.54"
/>
<path stroke="#2f83a0" vector-effect="non-scaling-stroke" d="
  M 263.75 72.54
  A 0.27 0.27 0.0 0 0 263.48 72.27
  L 260.50 72.27
  A 0.27 0.27 0.0 0 0 260.23 72.54
  L 260.23 113.46
  A 0.27 0.27 0.0 0 0 260.50 113.73
  L 263.48 113.73
  A 0.27 0.27 0.0 0 0 263.75 113.46
  L 263.75 72.54"
/>
<path stroke="#2f83a0" vector-effect="non-scaling-stroke" d="
  M 286.4943 72.5567
  A 0.29 0.29 0.0 0 0 286.2038 72.2672
  L 283.0038 72.2728
  A 0.29 0.29 0.0 0 0 282.7143 72.5633
  L 282.7857 113.4633
  A 0.29 0.29 0.0 0 0 283.0762 113.7528
  L 286.2762 113.7472
  A 0.29 0.29 0.0 0 0 286.5657 113.4567
  L 286.4943 72.5567"
/>
<path stroke="#1d7d94" vector-effect="non-scaling-stroke" d="
  M 329.50 72.58
  A 0.43 0.43 0.0 0 0 329.07 72.15
  L 325.93 72.15
  A 0.43 0.43 0.0 0 0 325.50 72.58
  L 325.50 113.32
  A 0.43 0.43 0.0 0 0 325.93 113.75
  L 329.07 113.75
  A 0.43 0.43 0.0 0 0 329.50 113.32
  L 329.50 72.58"
/>
<path stroke="#1d7d94" vector-effect="non-scaling-stroke" d="
  M 337.0354 72.7136
  A 0.55 0.55 0.0 0 0 336.4864 72.1626
  L 333.5464 72.1575
  A 0.55 0.55 0.0 0 0 332.9954 72.7065
  L 332.9246 113.2864
  A 0.55 0.55 0.0 0 0 333.4736 113.8374
  L 336.4136 113.8425
  A 0.55 0.55 0.0 0 0 336.9646 113.2935
  L 337.0354 72.7136"
/>
<path stroke="#1d7d94" vector-effect="non-scaling-stroke" d="
  M 344.5893 72.7129
  A 0.54 0.54 0.0 0 0 344.0475 72.1748
  L 340.9875 72.1855
  A 0.54 0.54 0.0 0 0 340.4494 72.7273
  L 340.5907 113.2071
  A 0.54 0.54 0.0 0 0 341.1325 113.7452
  L 344.1925 113.7345
  A 0.54 0.54 0.0 0 0 344.7306 113.1927
  L 344.5893 72.7129"
/>
<path stroke="#1d7d94" vector-effect="non-scaling-stroke" d="
  M 352.25 72.46
  A 0.27 0.27 0.0 0 0 351.98 72.19
  L 348.54 72.19
  A 0.27 0.27 0.0 0 0 348.27 72.46
  L 348.27 113.48
  A 0.27 0.27 0.0 0 0 348.54 113.75
  L 351.98 113.75
  A 0.27 0.27 0.0 0 0 352.25 113.48
  L 352.25 72.46"
/>
<path stroke="#1d7d94" vector-effect="non-scaling-stroke" d="
  M 359.75 72.53
  A 0.40 0.40 0.0 0 0 359.35 72.13
  L 356.15 72.13
  A 0.40 0.40 0.0 0 0 355.75 72.53
  L 355.75 113.35
  A 0.40 0.40 0.0 0 0 356.15 113.75
  L 359.35 113.75
  A 0.40 0.40 0.0 0 0 359.75 113.35
  L 359.75 72.53"
/>
<path stroke="#1d7d94" vector-effect="non-scaling-stroke" d="
  M 321.9645 72.7665
  A 0.50 0.50 0.0 0 0 321.4637 72.2674
  L 318.4637 72.2726
  A 0.50 0.50 0.0 0 0 317.9646 72.7735
  L 318.0355 113.3935
  A 0.50 0.50 0.0 0 0 318.5363 113.8926
  L 321.5363 113.8874
  A 0.50 0.50 0.0 0 0 322.0354 113.3865
  L 321.9645 72.7665"
/>
<path stroke="#1d7d94" vector-effect="non-scaling-stroke" d="
  M 148.46 130.20
  A 0.45 0.45 0.0 0 0 148.01 129.75
  L 144.75 129.75
  A 0.45 0.45 0.0 0 0 144.30 130.20
  L 144.30 171.04
  A 0.45 0.45 0.0 0 0 144.75 171.49
  L 148.01 171.49
  A 0.45 0.45 0.0 0 0 148.46 171.04
  L 148.46 130.20"
/>
<path stroke="#1d7d94" vector-effect="non-scaling-stroke" d="
  M 155.75 130.43
  A 0.61 0.61 0.0 0 0 155.14 129.82
  L 152.36 129.82
  A 0.61 0.61 0.0 0 0 151.75 130.43
  L 151.75 170.89
  A 0.61 0.61 0.0 0 0 152.36 171.50
  L 155.14 171.50
  A 0.61 0.61 0.0 0 0 155.75 170.89
  L 155.75 130.43"
/>
<path stroke="#1d7d94" vector-effect="non-scaling-stroke" d="
  M 163.6055 130.2637
  A 0.48 0.48 0.0 0 0 163.1264 129.7828
  L 159.9264 129.7772
  A 0.48 0.48 0.0 0 0 159.4456 130.2564
  L 159.3745 170.9963
  A 0.48 0.48 0.0 0 0 159.8536 171.4772
  L 163.0536 171.4828
  A 0.48 0.48 0.0 0 0 163.5344 171.0036
  L 163.6055 130.2637"
/>
<path stroke="#1d7d94" vector-effect="non-scaling-stroke" d="
  M 171.01 130.04
  A 0.27 0.27 0.0 0 0 170.74 129.77
  L 167.46 129.77
  A 0.27 0.27 0.0 0 0 167.19 130.04
  L 167.19 171.22
  A 0.27 0.27 0.0 0 0 167.46 171.49
  L 170.74 171.49
  A 0.27 0.27 0.0 0 0 171.01 171.22
  L 171.01 130.04"
/>
<path stroke="#1d7d94" vector-effect="non-scaling-stroke" d="
  M 178.67 130.40
  A 0.65 0.65 0.0 0 0 178.02 129.75
  L 175.18 129.75
  A 0.65 0.65 0.0 0 0 174.53 130.40
  L 174.53 170.84
  A 0.65 0.65 0.0 0 0 175.18 171.49
  L 178.02 171.49
  A 0.65 0.65 0.0 0 0 178.67 170.84
  L 178.67 130.40"
/>
<path stroke="#1d7d94" vector-effect="non-scaling-stroke" d="
  M 186.01 130.24
  A 0.41 0.41 0.0 0 0 185.60 129.83
  L 182.66 129.83
  A 0.41 0.41 0.0 0 0 182.25 130.24
  L 182.25 171.08
  A 0.41 0.41 0.0 0 0 182.66 171.49
  L 185.60 171.49
  A 0.41 0.41 0.0 0 0 186.01 171.08
  L 186.01 130.24"
/>
<path stroke="#2f83a0" vector-effect="non-scaling-stroke" d="
  M 205.9641 130.1269
  A 0.26 0.26 0.0 0 0 205.7037 129.8674
  L 202.6637 129.8727
  A 0.26 0.26 0.0 0 0 202.4042 130.1331
  L 202.4759 171.2131
  A 0.26 0.26 0.0 0 0 202.7363 171.4726
  L 205.7763 171.4673
  A 0.26 0.26 0.0 0 0 206.0358 171.2069
  L 205.9641 130.1269"
/>
<path stroke="#2f83a0" vector-effect="non-scaling-stroke" d="
  M 213.6947 130.4165
  A 0.62 0.62 0.0 0 0 213.0736 129.7976
  L 210.2536 129.8025
  A 0.62 0.62 0.0 0 0 209.6347 130.4236
  L 209.7053 170.8835
  A 0.62 0.62 0.0 0 0 210.3264 171.5024
  L 213.1464 171.4975
  A 0.62 0.62 0.0 0 0 213.7653 170.8764
  L 213.6947 130.4165"
/>
<path stroke="#2f83a0" vector-effect="non-scaling-stroke" d="
  M 221.25 130.28
  A 0.48 0.48 0.0 0 0 220.77 129.80
  L 217.99 129.80
  A 0.48 0.48 0.0 0 0 217.51 130.28
  L 217.51 171.04
  A 0.48 0.48 0.0 0 0 217.99 171.52
  L 220.77 171.52
  A 0.48 0.48 0.0 0 0 221.25 171.04
  L 221.25 130.28"
/>
<path stroke="#2f83a0" vector-effect="non-scaling-stroke" d="
  M 236.50 130.49
  A 0.61 0.61 0.0 0 0 235.89 129.88
  L 233.11 129.88
  A 0.61 0.61 0.0 0 0 232.50 130.49
  L 232.50 170.89
  A 0.61 0.61 0.0 0 0 233.11 171.50
  L 235.89 171.50
  A 0.61 0.61 0.0 0 0 236.50 170.89
  L 236.50 130.49"
/>
<path stroke="#2f83a0" vector-effect="non-scaling-stroke" d="
  M 243.75 130.45
  A 0.56 0.56 0.0 0 0 243.19 129.89
  L 240.81 129.89
  A 0.56 0.56 0.0 0 0 240.25 130.45
  L 240.25 170.95
  A 0.56 0.56 0.0 0 0 240.81 171.51
  L 243.19 171.51
  A 0.56 0.56 0.0 0 0 243.75 170.95
  L 243.75 130.45"
/>
<path stroke="#2f83a0" vector-effect="non-scaling-stroke" d="
  M 228.8653 130.5335
  A 0.51 0.51 0.0 0 0 228.3562 130.0226
  L 225.3562 130.0174
  A 0.51 0.51 0.0 0 0 224.8453 130.5265
  L 224.7747 170.9665
  A 0.51 0.51 0.0 0 0 225.2838 171.4774
  L 228.2838 171.4826
  A 0.51 0.51 0.0 0 0 228.7947 170.9735
  L 228.8653 130.5335"
/>
<path stroke="#1d7d94" vector-effect="non-scaling-stroke" d="
  M 263.75 130.32
  A 0.40 0.40 0.0 0 0 263.35 129.92
  L 260.61 129.92
  A 0.40 0.40 0.0 0 0 260.21 130.32
  L 260.21 171.08
  A 0.40 0.40 0.0 0 0 260.61 171.48
  L 263.35 171.48
  A 0.40 0.40 0.0 0 0 263.75 171.08
  L 263.75 130.32"
/>
<path stroke="#1d7d94" vector-effect="non-scaling-stroke" d="
  M 271.6049 130.5265
  A 0.70 0.70 0.0 0 0 270.9037 129.8277
  L 268.2437 129.8324
  A 0.70 0.70 0.0 0 0 267.5449 130.5336
  L 267.6151 170.7735
  A 0.70 0.70 0.0 0 0 268.3163 171.4723
  L 270.9763 171.4676
  A 0.70 0.70 0.0 0 0 271.6751 170.7664
  L 271.6049 130.5265"
/>
<path stroke="#1d7d94" vector-effect="non-scaling-stroke" d="
  M 279.25 130.07
  A 0.30 0.30 0.0 0 0 278.95 129.77
  L 275.55 129.77
  A 0.30 0.30 0.0 0 0 275.25 130.07
  L 275.25 171.19
  A 0.30 0.30 0.0 0 0 275.55 171.49
  L 278.95 171.49
  A 0.30 0.30 0.0 0 0 279.25 171.19
  L 279.25 130.07"
/>
<path stroke="#1d7d94" vector-effect="non-scaling-stroke" d="
  M 286.5193 130.3634
  A 0.59 0.59 0.0 0 0 285.9272 129.7755
  L 283.2672 129.7848
  A 0.59 0.59 0.0 0 0 282.6793 130.3768
  L 282.8207 170.8966
  A 0.59 0.59 0.0 0 0 283.4128 171.4845
  L 286.0728 171.4752
  A 0.59 0.59 0.0 0 0 286.6607 170.8832
  L 286.5193 130.3634"
/>
<path stroke="#1d7d94" vector-effect="non-scaling-stroke" d="
  M 294.38 130.23
  A 0.47 0.47 0.0 0 0 293.91 129.76
  L 290.97 129.76
  A 0.47 0.47 0.0 0 0 290.50 130.23
  L 290.50 171.03
  A 0.47 0.47 0.0 0 0 290.97 171.50
  L 293.91 171.50
  A 0.47 0.47 0.0 0 0 294.38 171.03
  L 294.38 130.23"
/>
<path stroke="#1d7d94" vector-effect="non-scaling-stroke" d="
  M 301.75 130.38
  A 0.53 0.53 0.0 0 0 301.22 129.85
  L 298.54 129.85
  A 0.53 0.53 0.0 0 0 298.01 130.38
  L 298.01 170.98
  A 0.53 0.53 0.0 0 0 298.54 171.51
  L 301.22 171.51
  A 0.53 0.53 0.0 0 0 301.75 170.98
  L 301.75 130.38"
/>
<path stroke="#2f83a0" vector-effect="non-scaling-stroke" d="
  M 321.76 130.15
  A 0.26 0.26 0.0 0 0 321.50 129.89
  L 318.42 129.89
  A 0.26 0.26 0.0 0 0 318.16 130.15
  L 318.16 171.21
  A 0.26 0.26 0.0 0 0 318.42 171.47
  L 321.50 171.47
  A 0.26 0.26 0.0 0 0 321.76 171.21
  L 321.76 130.15"
/>
<path stroke="#2f83a0" vector-effect="non-scaling-stroke" d="
  M 329.4647 130.4267
  A 0.59 0.59 0.0 0 0 328.8736 129.8377
  L 326.2136 129.8424
  A 0.59 0.59 0.0 0 0 325.6247 130.4334
  L 325.6953 170.9133
  A 0.59 0.59 0.0 0 0 326.2864 171.5023
  L 328.9464 171.4976
  A 0.59 0.59 0.0 0 0 329.5353 170.9066
  L 329.4647 130.4267"
/>
<path stroke="#2f83a0" vector-effect="non-scaling-stroke" d="
  M 337.00 130.69
  A 0.87 0.87 0.0 0 0 336.13 129.82
  L 333.89 129.82
  A 0.87 0.87 0.0 0 0 333.02 130.69
  L 333.02 170.65
  A 0.87 0.87 0.0 0 0 333.89 171.52
  L 336.13 171.52
  A 0.87 0.87 0.0 0 0 337.00 170.65
  L 337.00 130.69"
/>
<path stroke="#2f83a0" vector-effect="non-scaling-stroke" d="
  M 352.2144 130.3066
  A 0.41 0.41 0.0 0 0 351.8037 129.8973
  L 348.7037 129.9027
  A 0.41 0.41 0.0 0 0 348.2944 130.3135
  L 348.3656 171.0934
  A 0.41 0.41 0.0 0 0 348.7763 171.5027
  L 351.8763 171.4973
  A 0.41 0.41 0.0 0 0 352.2856 171.0865
  L 352.2144 130.3066"
/>
<path stroke="#2f83a0" vector-effect="non-scaling-stroke" d="
  M 359.75 130.39
  A 0.54 0.54 0.0 0 0 359.21 129.85
  L 356.29 129.85
  A 0.54 0.54 0.0 0 0 355.75 130.39
  L 355.75 170.97
  A 0.54 0.54 0.0 0 0 356.29 171.51
  L 359.21 171.51
  A 0.54 0.54 0.0 0 0 359.75 170.97
  L 359.75 130.39"
/>
<path stroke="#2f83a0" vector-effect="non-scaling-stroke" d="
  M 344.6144 130.3566
  A 0.34 0.34 0.0 0 0 344.2738 130.0172
  L 341.0538 130.0228
  A 0.34 0.34 0.0 0 0 340.7144 130.3634
  L 340.7856 171.1434
  A 0.34 0.34 0.0 0 0 341.1262 171.4828
  L 344.3462 171.4772
  A 0.34 0.34 0.0 0 0 344.6856 171.1366
  L 344.6144 130.3566"
/>
<path stroke="#1d7d94" vector-effect="non-scaling-stroke" d="
  M 379.75 130.32
  A 0.51 0.51 0.0 0 0 379.24 129.81
  L 376.52 129.81
  A 0.51 0.51 0.0 0 0 376.01 130.32
  L 376.01 171.00
  A 0.51 0.51 0.0 0 0 376.52 171.51
  L 379.24 171.51
  A 0.51 0.51 0.0 0 0 379.75 171.00
  L 379.75 130.32"
/>
<path stroke="#1d7d94" vector-effect="non-scaling-stroke" d="
  M 387.41 130.33
  A 0.49 0.49 0.0 0 0 386.92 129.84
  L 383.74 129.84
  A 0.49 0.49 0.0 0 0 383.25 130.33
  L 383.25 171.01
  A 0.49 0.49 0.0 0 0 383.74 171.50
  L 386.92 171.50
  A 0.49 0.49 0.0 0 0 387.41 171.01
  L 387.41 130.33"
/>
<path stroke="#1d7d94" vector-effect="non-scaling-stroke" d="
  M 394.7147 130.3966
  A 0.62 0.62 0.0 0 0 394.0936 129.7777
  L 391.3736 129.7824
  A 0.62 0.62 0.0 0 0 390.7547 130.4035
  L 390.8253 170.8834
  A 0.62 0.62 0.0 0 0 391.4464 171.5023
  L 394.1664 171.4976
  A 0.62 0.62 0.0 0 0 394.7853 170.8765
  L 394.7147 130.3966"
/>
<path stroke="#1d7d94" vector-effect="non-scaling-stroke" d="
  M 402.50 130.33
  A 0.57 0.57 0.0 0 0 401.93 129.76
  L 399.19 129.76
  A 0.57 0.57 0.0 0 0 398.62 130.33
  L 398.62 170.93
  A 0.57 0.57 0.0 0 0 399.19 171.50
  L 401.93 171.50
  A 0.57 0.57 0.0 0 0 402.50 170.93
  L 402.50 130.33"
/>
<path stroke="#1d7d94" vector-effect="non-scaling-stroke" d="
  M 410.25 130.43
  A 0.56 0.56 0.0 0 0 409.69 129.87
  L 406.57 129.87
  A 0.56 0.56 0.0 0 0 406.01 130.43
  L 406.01 170.93
  A 0.56 0.56 0.0 0 0 406.57 171.49
  L 409.69 171.49
  A 0.56 0.56 0.0 0 0 410.25 170.93
  L 410.25 130.43"
/>
<path stroke="#1d7d94" vector-effect="non-scaling-stroke" d="
  M 417.6253 130.4134
  A 0.58 0.58 0.0 0 0 417.0464 129.8324
  L 414.3664 129.8277
  A 0.58 0.58 0.0 0 0 413.7853 130.4067
  L 413.7147 170.9066
  A 0.58 0.58 0.0 0 0 414.2936 171.4876
  L 416.9736 171.4923
  A 0.58 0.58 0.0 0 0 417.5547 170.9133
  L 417.6253 130.4134"
/>
<path stroke="#61bbd3" vector-effect="non-scaling-stroke" d="
  M 258.97 271.03
  A 13.90 13.90 0.0 0 0 245.07 257.13
  A 13.90 13.90 0.0 0 0 231.17 271.03
  A 13.90 13.90 0.0 0 0 245.07 284.93
  A 13.90 13.90 0.0 0 0 258.97 271.03"
/>
<path stroke="#7c949a" vector-effect="non-scaling-stroke" d="
  M 253.82 267.43
  C 250.19 272.26 243.99 266.24 248.17 262.27
  Q 248.55 261.91 248.09 261.68
  Q 245.86 260.57 243.47 261.18
  C 235.72 263.15 232.38 271.10 237.33 277.39
  C 243.97 285.82 258.58 278.14 254.27 267.49
  Q 254.10 267.07 253.82 267.43"
/>
</g>
<path fill="#394d54" d="
  M 571.26 123.85
  C 597.50 116.63 623.61 119.92 645.24 134.63
  A 0.65 0.64 -58.5 0 1 645.44 135.48
  Q 643.07 139.65 641.00 143.58
  C 630.40 163.62 610.86 176.75 588.73 180.68
  Q 585.95 181.17 578.58 182.26
  C 571.75 183.28 564.91 182.96 557.93 183.02
  Q 557.38 183.02 557.18 183.52
  Q 549.56 202.39 539.71 220.16
  A 0.48 0.48 0.0 0 0 540.07 220.87
  C 562.07 223.39 587.34 219.41 603.71 203.08
  Q 604.23 202.56 604.14 203.29
  C 601.93 220.40 630.38 225.51 641.78 228.11
  Q 643.16 228.42 641.74 228.42
  L 535.65 228.53
  A 1.56 1.54 15.4 0 0 534.32 229.28
  C 491.03 300.63 421.42 344.93 339.99 359.98
  Q 308.43 365.81 276.32 366.82
  C 206.12 369.04 135.77 344.11 99.48 280.53
  Q 86.39 257.59 81.78 229.15
  Q 81.68 228.53 81.05 228.53
  L 2.06 228.43
  Q 1.94 228.43 1.98 228.31
  Q 2.02 228.19 2.06 228.07
  Q 2.08 228.00 2.15 227.99
  C 13.78 225.87 42.79 220.17 40.13 202.90
  A 0.15 0.14 18.9 0 1 40.38 202.78
  C 50.89 213.72 65.09 218.98 79.90 220.69
  A 0.31 0.31 0.0 0 0 80.24 220.37
  C 79.41 205.16 79.60 190.54 81.13 175.40
  A 0.44 0.43 -87.1 0 1 81.56 175.00
  L 130.24 175.00
  Q 130.53 175.00 130.53 174.70
  L 130.48 116.32
  A 0.32 0.32 0.0 0 1 130.80 116.00
  L 187.79 116.00
  A 0.48 0.48 0.0 0 0 188.27 115.52
  L 188.24 59.00
  A 0.76 0.75 -0.0 0 1 189.00 58.25
  L 303.75 58.26
  Q 304.25 58.26 304.25 57.75
  L 304.25 0.75
  A 0.50 0.50 0.0 0 1 304.75 0.25
  L 372.94 0.25
  A 0.56 0.56 0.0 0 1 373.50 0.81
  L 373.50 115.37
  Q 373.50 116.00 374.12 116.00
  L 430.50 116.00
  Q 431.51 116.00 431.51 117.00
  L 431.49 174.31
  Q 431.49 174.92 432.10 174.93
  C 448.57 175.18 467.14 176.26 482.88 173.29
  Q 502.21 169.64 519.65 160.41
  A 1.08 1.08 0.0 0 0 520.02 158.83
  C 503.23 135.05 501.77 96.15 517.74 71.28
  C 520.12 67.57 523.76 63.77 526.82 60.10
  A 0.48 0.48 0.0 0 1 527.47 60.02
  C 549.19 75.74 566.22 96.18 570.58 123.41
  Q 570.68 124.01 571.26 123.85
  Z
  M 363.9469 10.2562
  A 0.56 0.56 0.0 0 0 363.3859 9.6972
  L 314.2660 9.7829
  A 0.56 0.56 0.0 0 0 313.7070 10.3439
  L 313.7931 59.7038
  A 0.56 0.56 0.0 0 0 314.3541 60.2628
  L 363.4740 60.1771
  A 0.56 0.56 0.0 0 0 364.0330 59.6161
  L 363.9469 10.2562
  Z
  M 248.2932 68.0541
  A 0.26 0.26 0.0 0 0 248.0337 67.7937
  L 198.0538 67.7064
  A 0.26 0.26 0.0 0 0 197.7933 67.9660
  L 197.7068 117.5659
  A 0.26 0.26 0.0 0 0 197.9663 117.8263
  L 247.9462 117.9136
  A 0.26 0.26 0.0 0 0 248.2067 117.6540
  L 248.2932 68.0541
  Z
  M 306.2931 68.1841
  A 0.39 0.39 0.0 0 0 305.9038 67.7934
  L 256.1839 67.7066
  A 0.39 0.39 0.0 0 0 255.7932 68.0960
  L 255.7069 117.5359
  A 0.39 0.39 0.0 0 0 256.0962 117.9266
  L 305.8161 118.0134
  A 0.39 0.39 0.0 0 0 306.2068 117.6240
  L 306.2931 68.1841
  Z
  M 363.99 68.28
  A 0.53 0.53 0.0 0 0 363.46 67.75
  L 314.28 67.75
  A 0.53 0.53 0.0 0 0 313.75 68.28
  L 313.75 117.46
  A 0.53 0.53 0.0 0 0 314.28 117.99
  L 363.46 117.99
  A 0.53 0.53 0.0 0 0 363.99 117.46
  L 363.99 68.28
  Z
  M 111.98 184.52
  L 90.30 184.63
  A 0.67 0.67 0.0 0 0 89.63 185.25
  Q 88.37 202.91 89.90 220.55
  A 0.69 0.68 88.6 0 0 90.56 221.18
  Q 103.07 221.56 114.29 219.00
  Q 129.31 216.99 141.65 208.35
  Q 142.06 208.07 142.39 208.43
  C 151.11 217.87 167.00 221.20 179.22 222.22
  Q 212.30 224.98 244.42 216.89
  C 253.11 214.70 260.90 211.60 266.70 204.50
  Q 267.09 204.02 267.52 204.46
  C 291.64 229.21 352.76 229.21 376.85 204.42
  Q 377.43 203.83 377.79 204.58
  L 378.13 205.29
  Q 378.37 205.80 378.77 206.21
  C 385.06 212.68 394.25 215.57 402.80 217.57
  Q 433.29 224.69 464.57 222.16
  Q 474.88 221.32 484.69 218.38
  Q 494.81 215.79 501.87 208.44
  Q 502.24 208.07 502.66 208.37
  Q 514.58 216.65 529.00 218.88
  Q 529.49 218.96 529.74 218.52
  Q 542.03 197.07 550.80 173.94
  Q 551.23 172.80 552.44 172.93
  C 584.07 176.28 616.33 168.44 633.00 139.00
  A 0.77 0.77 0.0 0 0 632.67 137.93
  Q 616.36 129.71 598.50 129.58
  Q 579.78 129.45 563.29 137.03
  L 561.90 137.04
  Q 561.37 137.04 561.41 136.51
  C 563.38 110.65 548.25 88.24 528.77 73.01
  Q 528.10 72.49 527.63 73.19
  C 510.79 97.68 511.22 139.26 534.27 160.64
  Q 534.69 161.04 534.25 161.41
  C 518.82 174.29 496.27 181.06 476.69 183.58
  Q 469.46 184.51 457.27 184.51
  Q 284.65 184.48 111.98 184.52
  Z
  M 190.26 126.02
  A 0.27 0.27 0.0 0 0 189.99 125.75
  L 140.49 125.75
  A 0.27 0.27 0.0 0 0 140.22 126.02
  L 140.22 175.60
  A 0.27 0.27 0.0 0 0 140.49 175.87
  L 189.99 175.87
  A 0.27 0.27 0.0 0 0 190.26 175.60
  L 190.26 126.02
  Z
  M 198.05 175.81
  L 248.03 175.73
  A 0.27 0.27 0.0 0 0 248.30 175.46
  L 248.22 126.34
  A 0.63 0.39 89.9 0 0 247.83 125.71
  L 198.09 125.79
  A 0.63 0.39 89.9 0 0 197.70 126.42
  L 197.78 175.54
  A 0.27 0.27 0.0 0 0 198.05 175.81
  Z
  M 306.2069 126.1260
  A 0.42 0.42 0.0 0 0 305.7862 125.7067
  L 256.1262 125.7934
  A 0.42 0.42 0.0 0 0 255.7070 126.2141
  L 255.7931 175.5540
  A 0.42 0.42 0.0 0 0 256.2138 175.9733
  L 305.8738 175.8866
  A 0.42 0.42 0.0 0 0 306.2930 175.4659
  L 306.2069 126.1260
  Z
  M 363.99 126.03
  A 0.28 0.28 0.0 0 0 363.71 125.75
  L 314.03 125.75
  A 0.28 0.28 0.0 0 0 313.75 126.03
  L 313.75 175.63
  A 0.28 0.28 0.0 0 0 314.03 175.91
  L 363.71 175.91
  A 0.28 0.28 0.0 0 0 363.99 175.63
  L 363.99 126.03
  Z
  M 421.76 126.02
  A 0.26 0.26 0.0 0 0 421.50 125.76
  L 371.76 125.76
  A 0.26 0.26 0.0 0 0 371.50 126.02
  L 371.50 175.72
  A 0.26 0.26 0.0 0 0 371.76 175.98
  L 421.50 175.98
  A 0.26 0.26 0.0 0 0 421.76 175.72
  L 421.76 126.02
  Z
  M 163.25 292.92
  Q 193.88 292.87 223.10 284.01
  Q 223.60 283.86 224.07 284.10
  L 226.37 285.28
  Q 226.82 285.51 226.99 285.99
  C 229.18 292.00 222.04 292.91 218.25 294.21
  C 188.26 302.24 155.83 302.88 125.00 301.01
  A 0.26 0.25 69.5 0 0 124.81 301.44
  C 153.38 331.26 189.32 349.34 230.15 354.73
  Q 256.05 358.15 282.25 357.21
  C 380.93 352.90 469.00 314.34 523.54 229.19
  A 0.31 0.31 0.0 0 0 523.28 228.72
  L 469.25 228.54
  L 116.25 228.79
  Q 103.84 228.21 91.68 228.88
  A 0.53 0.53 0.0 0 0 91.19 229.51
  Q 97.14 262.81 116.58 290.06
  C 117.06 290.73 117.81 292.15 118.75 292.22
  Q 137.56 293.54 163.25 292.92
  Z"
/>
<path fill="#24b8eb" d="
  M 364.0330 59.6161
  A 0.56 0.56 0.0 0 1 363.4740 60.1771
  L 314.3541 60.2628
  A 0.56 0.56 0.0 0 1 313.7931 59.7038
  L 313.7070 10.3439
  A 0.56 0.56 0.0 0 1 314.2660 9.7829
  L 363.3859 9.6972
  A 0.56 0.56 0.0 0 1 363.9469 10.2562
  L 364.0330 59.6161
  Z
  M 329.50 14.75
  A 0.38 0.38 0.0 0 0 329.12 14.37
  L 326.02 14.37
  A 0.38 0.38 0.0 0 0 325.64 14.75
  L 325.64 55.37
  A 0.38 0.38 0.0 0 0 326.02 55.75
  L 329.12 55.75
  A 0.38 0.38 0.0 0 0 329.50 55.37
  L 329.50 14.75
  Z
  M 337.00 14.91
  A 0.56 0.56 0.0 0 0 336.44 14.35
  L 333.58 14.35
  A 0.56 0.56 0.0 0 0 333.02 14.91
  L 333.02 55.33
  A 0.56 0.56 0.0 0 0 333.58 55.89
  L 336.44 55.89
  A 0.56 0.56 0.0 0 0 337.00 55.33
  L 337.00 14.91
  Z
  M 344.60 14.79
  A 0.50 0.50 0.0 0 0 344.10 14.29
  L 341.16 14.29
  A 0.50 0.50 0.0 0 0 340.66 14.79
  L 340.66 55.35
  A 0.50 0.50 0.0 0 0 341.16 55.85
  L 344.10 55.85
  A 0.50 0.50 0.0 0 0 344.60 55.35
  L 344.60 14.79
  Z
  M 352.2850 14.9735
  A 0.63 0.63 0.0 0 0 351.6561 14.3424
  L 348.9561 14.3377
  A 0.63 0.63 0.0 0 0 348.3250 14.9666
  L 348.2550 55.1265
  A 0.63 0.63 0.0 0 0 348.8839 55.7576
  L 351.5839 55.7623
  A 0.63 0.63 0.0 0 0 352.2150 55.1334
  L 352.2850 14.9735
  Z
  M 359.75 14.75
  A 0.35 0.35 0.0 0 0 359.40 14.40
  L 356.10 14.40
  A 0.35 0.35 0.0 0 0 355.75 14.75
  L 355.75 55.45
  A 0.35 0.35 0.0 0 0 356.10 55.80
  L 359.40 55.80
  A 0.35 0.35 0.0 0 0 359.75 55.45
  L 359.75 14.75
  Z
  M 321.82 14.79
  A 0.27 0.27 0.0 0 0 321.55 14.52
  L 318.45 14.52
  A 0.27 0.27 0.0 0 0 318.18 14.79
  L 318.18 55.47
  A 0.27 0.27 0.0 0 0 318.45 55.74
  L 321.55 55.74
  A 0.27 0.27 0.0 0 0 321.82 55.47
  L 321.82 14.79
  Z"
/>
<rect fill="#394d54" x="325.64" y="14.37" width="3.86" height="41.38" rx="0.38"/>
<rect fill="#394d54" x="333.02" y="14.35" width="3.98" height="41.54" rx="0.56"/>
<rect fill="#394d54" x="340.66" y="14.29" width="3.94" height="41.56" rx="0.50"/>
<rect fill="#394d54" x="-1.98" y="-20.71" transform="translate(350.27,35.05) rotate(0.1)" width="3.96" height="41.42" rx="0.63"/>
<rect fill="#394d54" x="355.75" y="14.40" width="4.00" height="41.40" rx="0.35"/>
<rect fill="#394d54" x="318.18" y="14.52" width="3.64" height="41.22" rx="0.27"/>
<path fill="#00acd3" d="
  M 248.2067 117.6540
  A 0.26 0.26 0.0 0 1 247.9462 117.9136
  L 197.9663 117.8263
  A 0.26 0.26 0.0 0 1 197.7068 117.5659
  L 197.7933 67.9660
  A 0.26 0.26 0.0 0 1 198.0538 67.7064
  L 248.0337 67.7937
  A 0.26 0.26 0.0 0 1 248.2932 68.0541
  L 248.2067 117.6540
  Z
  M 213.76 72.76
  A 0.62 0.62 0.0 0 0 213.14 72.14
  L 210.14 72.14
  A 0.62 0.62 0.0 0 0 209.52 72.76
  L 209.52 113.26
  A 0.62 0.62 0.0 0 0 210.14 113.88
  L 213.14 113.88
  A 0.62 0.62 0.0 0 0 213.76 113.26
  L 213.76 72.76
  Z
  M 221.38 72.90
  A 0.75 0.75 0.0 0 0 220.63 72.15
  L 218.13 72.15
  A 0.75 0.75 0.0 0 0 217.38 72.90
  L 217.38 113.20
  A 0.75 0.75 0.0 0 0 218.13 113.95
  L 220.63 113.95
  A 0.75 0.75 0.0 0 0 221.38 113.20
  L 221.38 72.90
  Z
  M 228.8495 72.8629
  A 0.73 0.73 0.0 0 0 228.1170 72.1354
  L 225.4170 72.1448
  A 0.73 0.73 0.0 0 0 224.6896 72.8774
  L 224.8305 113.2371
  A 0.73 0.73 0.0 0 0 225.5630 113.9646
  L 228.2630 113.9552
  A 0.73 0.73 0.0 0 0 228.9904 113.2226
  L 228.8495 72.8629
  Z
  M 236.50 72.64
  A 0.48 0.48 0.0 0 0 236.02 72.16
  L 232.98 72.16
  A 0.48 0.48 0.0 0 0 232.50 72.64
  L 232.50 113.26
  A 0.48 0.48 0.0 0 0 232.98 113.74
  L 236.02 113.74
  A 0.48 0.48 0.0 0 0 236.50 113.26
  L 236.50 72.64
  Z
  M 243.75 72.42
  A 0.30 0.30 0.0 0 0 243.45 72.12
  L 240.55 72.12
  A 0.30 0.30 0.0 0 0 240.25 72.42
  L 240.25 113.44
  A 0.30 0.30 0.0 0 0 240.55 113.74
  L 243.45 113.74
  A 0.30 0.30 0.0 0 0 243.75 113.44
  L 243.75 72.42
  Z
  M 206.07 72.67
  A 0.39 0.39 0.0 0 0 205.68 72.28
  L 202.68 72.28
  A 0.39 0.39 0.0 0 0 202.29 72.67
  L 202.29 113.55
  A 0.39 0.39 0.0 0 0 202.68 113.94
  L 205.68 113.94
  A 0.39 0.39 0.0 0 0 206.07 113.55
  L 206.07 72.67
  Z"
/>
<path fill="#24b8eb" d="
  M 306.2068 117.6240
  A 0.39 0.39 0.0 0 1 305.8161 118.0134
  L 256.0962 117.9266
  A 0.39 0.39 0.0 0 1 255.7069 117.5359
  L 255.7932 68.0960
  A 0.39 0.39 0.0 0 1 256.1839 67.7066
  L 305.9038 67.7934
  A 0.39 0.39 0.0 0 1 306.2931 68.1841
  L 306.2068 117.6240
  Z
  M 271.7156 72.4635
  A 0.43 0.43 0.0 0 0 271.2864 72.0328
  L 268.1664 72.0273
  A 0.43 0.43 0.0 0 0 267.7356 72.4566
  L 267.6644 113.2965
  A 0.43 0.43 0.0 0 0 268.0936 113.7272
  L 271.2136 113.7327
  A 0.43 0.43 0.0 0 0 271.6444 113.3034
  L 271.7156 72.4635
  Z
  M 279.25 72.50
  A 0.31 0.31 0.0 0 0 278.94 72.19
  L 275.54 72.19
  A 0.31 0.31 0.0 0 0 275.23 72.50
  L 275.23 113.42
  A 0.31 0.31 0.0 0 0 275.54 113.73
  L 278.94 113.73
  A 0.31 0.31 0.0 0 0 279.25 113.42
  L 279.25 72.50
  Z
  M 294.26 72.48
  A 0.26 0.26 0.0 0 0 294.00 72.22
  L 290.76 72.22
  A 0.26 0.26 0.0 0 0 290.50 72.48
  L 290.50 113.48
  A 0.26 0.26 0.0 0 0 290.76 113.74
  L 294.00 113.74
  A 0.26 0.26 0.0 0 0 294.26 113.48
  L 294.26 72.48
  Z
  M 301.75 72.54
  A 0.39 0.39 0.0 0 0 301.36 72.15
  L 298.40 72.15
  A 0.39 0.39 0.0 0 0 298.01 72.54
  L 298.01 113.36
  A 0.39 0.39 0.0 0 0 298.40 113.75
  L 301.36 113.75
  A 0.39 0.39 0.0 0 0 301.75 113.36
  L 301.75 72.54
  Z
  M 263.75 72.54
  A 0.27 0.27 0.0 0 0 263.48 72.27
  L 260.50 72.27
  A 0.27 0.27 0.0 0 0 260.23 72.54
  L 260.23 113.46
  A 0.27 0.27 0.0 0 0 260.50 113.73
  L 263.48 113.73
  A 0.27 0.27 0.0 0 0 263.75 113.46
  L 263.75 72.54
  Z
  M 286.4943 72.5567
  A 0.29 0.29 0.0 0 0 286.2038 72.2672
  L 283.0038 72.2728
  A 0.29 0.29 0.0 0 0 282.7143 72.5633
  L 282.7857 113.4633
  A 0.29 0.29 0.0 0 0 283.0762 113.7528
  L 286.2762 113.7472
  A 0.29 0.29 0.0 0 0 286.5657 113.4567
  L 286.4943 72.5567
  Z"
/>
<path fill="#00acd3" d="
  M 363.99 117.46
  A 0.53 0.53 0.0 0 1 363.46 117.99
  L 314.28 117.99
  A 0.53 0.53 0.0 0 1 313.75 117.46
  L 313.75 68.28
  A 0.53 0.53 0.0 0 1 314.28 67.75
  L 363.46 67.75
  A 0.53 0.53 0.0 0 1 363.99 68.28
  L 363.99 117.46
  Z
  M 329.50 72.58
  A 0.43 0.43 0.0 0 0 329.07 72.15
  L 325.93 72.15
  A 0.43 0.43 0.0 0 0 325.50 72.58
  L 325.50 113.32
  A 0.43 0.43 0.0 0 0 325.93 113.75
  L 329.07 113.75
  A 0.43 0.43 0.0 0 0 329.50 113.32
  L 329.50 72.58
  Z
  M 337.0354 72.7136
  A 0.55 0.55 0.0 0 0 336.4864 72.1626
  L 333.5464 72.1575
  A 0.55 0.55 0.0 0 0 332.9954 72.7065
  L 332.9246 113.2864
  A 0.55 0.55 0.0 0 0 333.4736 113.8374
  L 336.4136 113.8425
  A 0.55 0.55 0.0 0 0 336.9646 113.2935
  L 337.0354 72.7136
  Z
  M 344.5893 72.7129
  A 0.54 0.54 0.0 0 0 344.0475 72.1748
  L 340.9875 72.1855
  A 0.54 0.54 0.0 0 0 340.4494 72.7273
  L 340.5907 113.2071
  A 0.54 0.54 0.0 0 0 341.1325 113.7452
  L 344.1925 113.7345
  A 0.54 0.54 0.0 0 0 344.7306 113.1927
  L 344.5893 72.7129
  Z
  M 352.25 72.46
  A 0.27 0.27 0.0 0 0 351.98 72.19
  L 348.54 72.19
  A 0.27 0.27 0.0 0 0 348.27 72.46
  L 348.27 113.48
  A 0.27 0.27 0.0 0 0 348.54 113.75
  L 351.98 113.75
  A 0.27 0.27 0.0 0 0 352.25 113.48
  L 352.25 72.46
  Z
  M 359.75 72.53
  A 0.40 0.40 0.0 0 0 359.35 72.13
  L 356.15 72.13
  A 0.40 0.40 0.0 0 0 355.75 72.53
  L 355.75 113.35
  A 0.40 0.40 0.0 0 0 356.15 113.75
  L 359.35 113.75
  A 0.40 0.40 0.0 0 0 359.75 113.35
  L 359.75 72.53
  Z
  M 321.9645 72.7665
  A 0.50 0.50 0.0 0 0 321.4637 72.2674
  L 318.4637 72.2726
  A 0.50 0.50 0.0 0 0 317.9646 72.7735
  L 318.0355 113.3935
  A 0.50 0.50 0.0 0 0 318.5363 113.8926
  L 321.5363 113.8874
  A 0.50 0.50 0.0 0 0 322.0354 113.3865
  L 321.9645 72.7665
  Z"
/>
<rect fill="#394d54" x="209.52" y="72.14" width="4.24" height="41.74" rx="0.62"/>
<rect fill="#394d54" x="217.38" y="72.15" width="4.00" height="41.80" rx="0.75"/>
<rect fill="#394d54" x="-2.08" y="-20.91" transform="translate(226.84,93.05) rotate(-0.2)" width="4.16" height="41.82" rx="0.73"/>
<rect fill="#394d54" x="232.50" y="72.16" width="4.00" height="41.58" rx="0.48"/>
<rect fill="#394d54" x="240.25" y="72.12" width="3.50" height="41.62" rx="0.30"/>
<rect fill="#394d54" x="-1.99" y="-20.85" transform="translate(269.69,92.88) rotate(0.1)" width="3.98" height="41.70" rx="0.43"/>
<rect fill="#394d54" x="275.23" y="72.19" width="4.02" height="41.54" rx="0.31"/>
<rect fill="#394d54" x="290.50" y="72.22" width="3.76" height="41.52" rx="0.26"/>
<rect fill="#394d54" x="298.01" y="72.15" width="3.74" height="41.60" rx="0.39"/>
<rect fill="#394d54" x="325.50" y="72.15" width="4.00" height="41.60" rx="0.43"/>
<rect fill="#394d54" x="-2.02" y="-20.84" transform="translate(334.98,93.00) rotate(0.1)" width="4.04" height="41.68" rx="0.55"/>
<rect fill="#394d54" x="-2.07" y="-20.78" transform="translate(342.59,92.96) rotate(-0.2)" width="4.14" height="41.56" rx="0.54"/>
<rect fill="#394d54" x="348.27" y="72.19" width="3.98" height="41.56" rx="0.27"/>
<rect fill="#394d54" x="355.75" y="72.13" width="4.00" height="41.62" rx="0.40"/>
<rect fill="#394d54" x="202.29" y="72.28" width="3.78" height="41.66" rx="0.39"/>
<rect fill="#394d54" x="260.23" y="72.27" width="3.52" height="41.46" rx="0.27"/>
<rect fill="#394d54" x="-1.89" y="-20.74" transform="translate(284.64,93.01) rotate(-0.1)" width="3.78" height="41.48" rx="0.29"/>
<rect fill="#394d54" x="-2.00" y="-20.81" transform="translate(320.00,93.08) rotate(-0.1)" width="4.00" height="41.62" rx="0.50"/>
<path fill="#24b8eb" d="
  M 563.29 137.03
  Q 528.92 181.27 488.32 214.83
  Q 485.42 217.22 484.69 218.38
  Q 474.88 221.32 464.57 222.16
  Q 433.29 224.69 402.80 217.57
  C 394.25 215.57 385.06 212.68 378.77 206.21
  Q 378.37 205.80 378.13 205.29
  L 377.79 204.58
  Q 377.43 203.83 376.85 204.42
  C 352.76 229.21 291.64 229.21 267.52 204.46
  Q 267.09 204.02 266.70 204.50
  C 260.90 211.60 253.11 214.70 244.42 216.89
  Q 212.30 224.98 179.22 222.22
  C 167.00 221.20 151.11 217.87 142.39 208.43
  Q 142.06 208.07 141.65 208.35
  Q 129.31 216.99 114.29 219.00
  Q 110.81 201.94 111.98 184.52
  Q 284.65 184.48 457.27 184.51
  Q 469.46 184.51 476.69 183.58
  C 496.27 181.06 518.82 174.29 534.25 161.41
  Q 534.69 161.04 534.27 160.64
  C 511.22 139.26 510.79 97.68 527.63 73.19
  Q 528.10 72.49 528.77 73.01
  C 548.25 88.24 563.38 110.65 561.41 136.51
  Q 561.37 137.04 561.90 137.04
  L 563.29 137.03
  Z"
/>
<path fill="#00acd3" d="
  M 190.26 175.60
  A 0.27 0.27 0.0 0 1 189.99 175.87
  L 140.49 175.87
  A 0.27 0.27 0.0 0 1 140.22 175.60
  L 140.22 126.02
  A 0.27 0.27 0.0 0 1 140.49 125.75
  L 189.99 125.75
  A 0.27 0.27 0.0 0 1 190.26 126.02
  L 190.26 175.60
  Z
  M 148.46 130.20
  A 0.45 0.45 0.0 0 0 148.01 129.75
  L 144.75 129.75
  A 0.45 0.45 0.0 0 0 144.30 130.20
  L 144.30 171.04
  A 0.45 0.45 0.0 0 0 144.75 171.49
  L 148.01 171.49
  A 0.45 0.45 0.0 0 0 148.46 171.04
  L 148.46 130.20
  Z
  M 155.75 130.43
  A 0.61 0.61 0.0 0 0 155.14 129.82
  L 152.36 129.82
  A 0.61 0.61 0.0 0 0 151.75 130.43
  L 151.75 170.89
  A 0.61 0.61 0.0 0 0 152.36 171.50
  L 155.14 171.50
  A 0.61 0.61 0.0 0 0 155.75 170.89
  L 155.75 130.43
  Z
  M 163.6055 130.2637
  A 0.48 0.48 0.0 0 0 163.1264 129.7828
  L 159.9264 129.7772
  A 0.48 0.48 0.0 0 0 159.4456 130.2564
  L 159.3745 170.9963
  A 0.48 0.48 0.0 0 0 159.8536 171.4772
  L 163.0536 171.4828
  A 0.48 0.48 0.0 0 0 163.5344 171.0036
  L 163.6055 130.2637
  Z
  M 171.01 130.04
  A 0.27 0.27 0.0 0 0 170.74 129.77
  L 167.46 129.77
  A 0.27 0.27 0.0 0 0 167.19 130.04
  L 167.19 171.22
  A 0.27 0.27 0.0 0 0 167.46 171.49
  L 170.74 171.49
  A 0.27 0.27 0.0 0 0 171.01 171.22
  L 171.01 130.04
  Z
  M 178.67 130.40
  A 0.65 0.65 0.0 0 0 178.02 129.75
  L 175.18 129.75
  A 0.65 0.65 0.0 0 0 174.53 130.40
  L 174.53 170.84
  A 0.65 0.65 0.0 0 0 175.18 171.49
  L 178.02 171.49
  A 0.65 0.65 0.0 0 0 178.67 170.84
  L 178.67 130.40
  Z
  M 186.01 130.24
  A 0.41 0.41 0.0 0 0 185.60 129.83
  L 182.66 129.83
  A 0.41 0.41 0.0 0 0 182.25 130.24
  L 182.25 171.08
  A 0.41 0.41 0.0 0 0 182.66 171.49
  L 185.60 171.49
  A 0.41 0.41 0.0 0 0 186.01 171.08
  L 186.01 130.24
  Z"
/>
<path fill="#24b8eb" d="
  M 198.05 175.81
  A 0.27 0.27 0.0 0 1 197.78 175.54
  L 197.70 126.42
  A 0.63 0.39 89.9 0 1 198.09 125.79
  L 247.83 125.71
  A 0.63 0.39 89.9 0 1 248.22 126.34
  L 248.30 175.46
  A 0.27 0.27 0.0 0 1 248.03 175.73
  L 198.05 175.81
  Z
  M 205.9641 130.1269
  A 0.26 0.26 0.0 0 0 205.7037 129.8674
  L 202.6637 129.8727
  A 0.26 0.26 0.0 0 0 202.4042 130.1331
  L 202.4759 171.2131
  A 0.26 0.26 0.0 0 0 202.7363 171.4726
  L 205.7763 171.4673
  A 0.26 0.26 0.0 0 0 206.0358 171.2069
  L 205.9641 130.1269
  Z
  M 213.6947 130.4165
  A 0.62 0.62 0.0 0 0 213.0736 129.7976
  L 210.2536 129.8025
  A 0.62 0.62 0.0 0 0 209.6347 130.4236
  L 209.7053 170.8835
  A 0.62 0.62 0.0 0 0 210.3264 171.5024
  L 213.1464 171.4975
  A 0.62 0.62 0.0 0 0 213.7653 170.8764
  L 213.6947 130.4165
  Z
  M 221.25 130.28
  A 0.48 0.48 0.0 0 0 220.77 129.80
  L 217.99 129.80
  A 0.48 0.48 0.0 0 0 217.51 130.28
  L 217.51 171.04
  A 0.48 0.48 0.0 0 0 217.99 171.52
  L 220.77 171.52
  A 0.48 0.48 0.0 0 0 221.25 171.04
  L 221.25 130.28
  Z
  M 236.50 130.49
  A 0.61 0.61 0.0 0 0 235.89 129.88
  L 233.11 129.88
  A 0.61 0.61 0.0 0 0 232.50 130.49
  L 232.50 170.89
  A 0.61 0.61 0.0 0 0 233.11 171.50
  L 235.89 171.50
  A 0.61 0.61 0.0 0 0 236.50 170.89
  L 236.50 130.49
  Z
  M 243.75 130.45
  A 0.56 0.56 0.0 0 0 243.19 129.89
  L 240.81 129.89
  A 0.56 0.56 0.0 0 0 240.25 130.45
  L 240.25 170.95
  A 0.56 0.56 0.0 0 0 240.81 171.51
  L 243.19 171.51
  A 0.56 0.56 0.0 0 0 243.75 170.95
  L 243.75 130.45
  Z
  M 228.8653 130.5335
  A 0.51 0.51 0.0 0 0 228.3562 130.0226
  L 225.3562 130.0174
  A 0.51 0.51 0.0 0 0 224.8453 130.5265
  L 224.7747 170.9665
  A 0.51 0.51 0.0 0 0 225.2838 171.4774
  L 228.2838 171.4826
  A 0.51 0.51 0.0 0 0 228.7947 170.9735
  L 228.8653 130.5335
  Z"
/>
<path fill="#00acd3" d="
  M 306.2930 175.4659
  A 0.42 0.42 0.0 0 1 305.8738 175.8866
  L 256.2138 175.9733
  A 0.42 0.42 0.0 0 1 255.7931 175.5540
  L 255.7070 126.2141
  A 0.42 0.42 0.0 0 1 256.1262 125.7934
  L 305.7862 125.7067
  A 0.42 0.42 0.0 0 1 306.2069 126.1260
  L 306.2930 175.4659
  Z
  M 263.75 130.32
  A 0.40 0.40 0.0 0 0 263.35 129.92
  L 260.61 129.92
  A 0.40 0.40 0.0 0 0 260.21 130.32
  L 260.21 171.08
  A 0.40 0.40 0.0 0 0 260.61 171.48
  L 263.35 171.48
  A 0.40 0.40 0.0 0 0 263.75 171.08
  L 263.75 130.32
  Z
  M 271.6049 130.5265
  A 0.70 0.70 0.0 0 0 270.9037 129.8277
  L 268.2437 129.8324
  A 0.70 0.70 0.0 0 0 267.5449 130.5336
  L 267.6151 170.7735
  A 0.70 0.70 0.0 0 0 268.3163 171.4723
  L 270.9763 171.4676
  A 0.70 0.70 0.0 0 0 271.6751 170.7664
  L 271.6049 130.5265
  Z
  M 279.25 130.07
  A 0.30 0.30 0.0 0 0 278.95 129.77
  L 275.55 129.77
  A 0.30 0.30 0.0 0 0 275.25 130.07
  L 275.25 171.19
  A 0.30 0.30 0.0 0 0 275.55 171.49
  L 278.95 171.49
  A 0.30 0.30 0.0 0 0 279.25 171.19
  L 279.25 130.07
  Z
  M 286.5193 130.3634
  A 0.59 0.59 0.0 0 0 285.9272 129.7755
  L 283.2672 129.7848
  A 0.59 0.59 0.0 0 0 282.6793 130.3768
  L 282.8207 170.8966
  A 0.59 0.59 0.0 0 0 283.4128 171.4845
  L 286.0728 171.4752
  A 0.59 0.59 0.0 0 0 286.6607 170.8832
  L 286.5193 130.3634
  Z
  M 294.38 130.23
  A 0.47 0.47 0.0 0 0 293.91 129.76
  L 290.97 129.76
  A 0.47 0.47 0.0 0 0 290.50 130.23
  L 290.50 171.03
  A 0.47 0.47 0.0 0 0 290.97 171.50
  L 293.91 171.50
  A 0.47 0.47 0.0 0 0 294.38 171.03
  L 294.38 130.23
  Z
  M 301.75 130.38
  A 0.53 0.53 0.0 0 0 301.22 129.85
  L 298.54 129.85
  A 0.53 0.53 0.0 0 0 298.01 130.38
  L 298.01 170.98
  A 0.53 0.53 0.0 0 0 298.54 171.51
  L 301.22 171.51
  A 0.53 0.53 0.0 0 0 301.75 170.98
  L 301.75 130.38
  Z"
/>
<path fill="#24b8eb" d="
  M 363.99 175.63
  A 0.28 0.28 0.0 0 1 363.71 175.91
  L 314.03 175.91
  A 0.28 0.28 0.0 0 1 313.75 175.63
  L 313.75 126.03
  A 0.28 0.28 0.0 0 1 314.03 125.75
  L 363.71 125.75
  A 0.28 0.28 0.0 0 1 363.99 126.03
  L 363.99 175.63
  Z
  M 321.76 130.15
  A 0.26 0.26 0.0 0 0 321.50 129.89
  L 318.42 129.89
  A 0.26 0.26 0.0 0 0 318.16 130.15
  L 318.16 171.21
  A 0.26 0.26 0.0 0 0 318.42 171.47
  L 321.50 171.47
  A 0.26 0.26 0.0 0 0 321.76 171.21
  L 321.76 130.15
  Z
  M 329.4647 130.4267
  A 0.59 0.59 0.0 0 0 328.8736 129.8377
  L 326.2136 129.8424
  A 0.59 0.59 0.0 0 0 325.6247 130.4334
  L 325.6953 170.9133
  A 0.59 0.59 0.0 0 0 326.2864 171.5023
  L 328.9464 171.4976
  A 0.59 0.59 0.0 0 0 329.5353 170.9066
  L 329.4647 130.4267
  Z
  M 337.00 130.69
  A 0.87 0.87 0.0 0 0 336.13 129.82
  L 333.89 129.82
  A 0.87 0.87 0.0 0 0 333.02 130.69
  L 333.02 170.65
  A 0.87 0.87 0.0 0 0 333.89 171.52
  L 336.13 171.52
  A 0.87 0.87 0.0 0 0 337.00 170.65
  L 337.00 130.69
  Z
  M 352.2144 130.3066
  A 0.41 0.41 0.0 0 0 351.8037 129.8973
  L 348.7037 129.9027
  A 0.41 0.41 0.0 0 0 348.2944 130.3135
  L 348.3656 171.0934
  A 0.41 0.41 0.0 0 0 348.7763 171.5027
  L 351.8763 171.4973
  A 0.41 0.41 0.0 0 0 352.2856 171.0865
  L 352.2144 130.3066
  Z
  M 359.75 130.39
  A 0.54 0.54 0.0 0 0 359.21 129.85
  L 356.29 129.85
  A 0.54 0.54 0.0 0 0 355.75 130.39
  L 355.75 170.97
  A 0.54 0.54 0.0 0 0 356.29 171.51
  L 359.21 171.51
  A 0.54 0.54 0.0 0 0 359.75 170.97
  L 359.75 130.39
  Z
  M 344.6144 130.3566
  A 0.34 0.34 0.0 0 0 344.2738 130.0172
  L 341.0538 130.0228
  A 0.34 0.34 0.0 0 0 340.7144 130.3634
  L 340.7856 171.1434
  A 0.34 0.34 0.0 0 0 341.1262 171.4828
  L 344.3462 171.4772
  A 0.34 0.34 0.0 0 0 344.6856 171.1366
  L 344.6144 130.3566
  Z"
/>
<path fill="#00acd3" d="
  M 421.76 175.72
  A 0.26 0.26 0.0 0 1 421.50 175.98
  L 371.76 175.98
  A 0.26 0.26 0.0 0 1 371.50 175.72
  L 371.50 126.02
  A 0.26 0.26 0.0 0 1 371.76 125.76
  L 421.50 125.76
  A 0.26 0.26 0.0 0 1 421.76 126.02
  L 421.76 175.72
  Z
  M 379.75 130.32
  A 0.51 0.51 0.0 0 0 379.24 129.81
  L 376.52 129.81
  A 0.51 0.51 0.0 0 0 376.01 130.32
  L 376.01 171.00
  A 0.51 0.51 0.0 0 0 376.52 171.51
  L 379.24 171.51
  A 0.51 0.51 0.0 0 0 379.75 171.00
  L 379.75 130.32
  Z
  M 387.41 130.33
  A 0.49 0.49 0.0 0 0 386.92 129.84
  L 383.74 129.84
  A 0.49 0.49 0.0 0 0 383.25 130.33
  L 383.25 171.01
  A 0.49 0.49 0.0 0 0 383.74 171.50
  L 386.92 171.50
  A 0.49 0.49 0.0 0 0 387.41 171.01
  L 387.41 130.33
  Z
  M 394.7147 130.3966
  A 0.62 0.62 0.0 0 0 394.0936 129.7777
  L 391.3736 129.7824
  A 0.62 0.62 0.0 0 0 390.7547 130.4035
  L 390.8253 170.8834
  A 0.62 0.62 0.0 0 0 391.4464 171.5023
  L 394.1664 171.4976
  A 0.62 0.62 0.0 0 0 394.7853 170.8765
  L 394.7147 130.3966
  Z
  M 402.50 130.33
  A 0.57 0.57 0.0 0 0 401.93 129.76
  L 399.19 129.76
  A 0.57 0.57 0.0 0 0 398.62 130.33
  L 398.62 170.93
  A 0.57 0.57 0.0 0 0 399.19 171.50
  L 401.93 171.50
  A 0.57 0.57 0.0 0 0 402.50 170.93
  L 402.50 130.33
  Z
  M 410.25 130.43
  A 0.56 0.56 0.0 0 0 409.69 129.87
  L 406.57 129.87
  A 0.56 0.56 0.0 0 0 406.01 130.43
  L 406.01 170.93
  A 0.56 0.56 0.0 0 0 406.57 171.49
  L 409.69 171.49
  A 0.56 0.56 0.0 0 0 410.25 170.93
  L 410.25 130.43
  Z
  M 417.6253 130.4134
  A 0.58 0.58 0.0 0 0 417.0464 129.8324
  L 414.3664 129.8277
  A 0.58 0.58 0.0 0 0 413.7853 130.4067
  L 413.7147 170.9066
  A 0.58 0.58 0.0 0 0 414.2936 171.4876
  L 416.9736 171.4923
  A 0.58 0.58 0.0 0 0 417.5547 170.9133
  L 417.6253 130.4134
  Z"
/>
<path fill="#00acd3" d="
  M 484.69 218.38
  Q 485.42 217.22 488.32 214.83
  Q 528.92 181.27 563.29 137.03
  Q 579.78 129.45 598.50 129.58
  Q 616.36 129.71 632.67 137.93
  A 0.77 0.77 0.0 0 1 633.00 139.00
  C 616.33 168.44 584.07 176.28 552.44 172.93
  Q 551.23 172.80 550.80 173.94
  Q 542.03 197.07 529.74 218.52
  Q 529.49 218.96 529.00 218.88
  Q 514.58 216.65 502.66 208.37
  Q 502.24 208.07 501.87 208.44
  Q 494.81 215.79 484.69 218.38
  Z"
/>
<rect fill="#394d54" x="144.30" y="129.75" width="4.16" height="41.74" rx="0.45"/>
<rect fill="#394d54" x="151.75" y="129.82" width="4.00" height="41.68" rx="0.61"/>
<rect fill="#394d54" x="-2.08" y="-20.85" transform="translate(161.49,150.63) rotate(0.1)" width="4.16" height="41.70" rx="0.48"/>
<rect fill="#394d54" x="167.19" y="129.77" width="3.82" height="41.72" rx="0.27"/>
<rect fill="#394d54" x="174.53" y="129.75" width="4.14" height="41.74" rx="0.65"/>
<rect fill="#394d54" x="182.25" y="129.83" width="3.76" height="41.66" rx="0.41"/>
<rect fill="#394d54" x="-1.78" y="-20.80" transform="translate(204.22,150.67) rotate(-0.1)" width="3.56" height="41.60" rx="0.26"/>
<rect fill="#394d54" x="-2.03" y="-20.85" transform="translate(211.70,150.65) rotate(-0.1)" width="4.06" height="41.70" rx="0.62"/>
<rect fill="#394d54" x="217.51" y="129.80" width="3.74" height="41.72" rx="0.48"/>
<rect fill="#394d54" x="232.50" y="129.88" width="4.00" height="41.62" rx="0.61"/>
<rect fill="#394d54" x="240.25" y="129.89" width="3.50" height="41.62" rx="0.56"/>
<rect fill="#394d54" x="260.21" y="129.92" width="3.54" height="41.56" rx="0.40"/>
<rect fill="#394d54" x="-2.03" y="-20.82" transform="translate(269.61,150.65) rotate(-0.1)" width="4.06" height="41.64" rx="0.70"/>
<rect fill="#394d54" x="275.25" y="129.77" width="4.00" height="41.72" rx="0.30"/>
<rect fill="#394d54" x="-1.92" y="-20.85" transform="translate(284.67,150.63) rotate(-0.2)" width="3.84" height="41.70" rx="0.59"/>
<rect fill="#394d54" x="290.50" y="129.76" width="3.88" height="41.74" rx="0.47"/>
<rect fill="#394d54" x="298.01" y="129.85" width="3.74" height="41.66" rx="0.53"/>
<rect fill="#394d54" x="318.16" y="129.89" width="3.60" height="41.58" rx="0.26"/>
<rect fill="#394d54" x="-1.92" y="-20.83" transform="translate(327.58,150.67) rotate(-0.1)" width="3.84" height="41.66" rx="0.59"/>
<rect fill="#394d54" x="333.02" y="129.82" width="3.98" height="41.70" rx="0.87"/>
<rect fill="#394d54" x="-1.96" y="-20.80" transform="translate(350.29,150.70) rotate(-0.1)" width="3.92" height="41.60" rx="0.41"/>
<rect fill="#394d54" x="355.75" y="129.85" width="4.00" height="41.66" rx="0.54"/>
<rect fill="#394d54" x="376.01" y="129.81" width="3.74" height="41.70" rx="0.51"/>
<rect fill="#394d54" x="383.25" y="129.84" width="4.16" height="41.66" rx="0.49"/>
<rect fill="#394d54" x="-1.98" y="-20.86" transform="translate(392.77,150.64) rotate(-0.1)" width="3.96" height="41.72" rx="0.62"/>
<rect fill="#394d54" x="398.62" y="129.76" width="3.88" height="41.74" rx="0.57"/>
<rect fill="#394d54" x="406.01" y="129.87" width="4.24" height="41.62" rx="0.56"/>
<rect fill="#394d54" x="-1.92" y="-20.83" transform="translate(415.67,150.66) rotate(0.1)" width="3.84" height="41.66" rx="0.58"/>
<rect fill="#394d54" x="-2.01" y="-20.73" transform="translate(226.82,150.75) rotate(0.1)" width="4.02" height="41.46" rx="0.51"/>
<rect fill="#394d54" x="-1.95" y="-20.73" transform="translate(342.70,150.75) rotate(-0.1)" width="3.90" height="41.46" rx="0.34"/>
<path fill="#00acd3" d="
  M 111.98 184.52
  Q 110.81 201.94 114.29 219.00
  Q 103.07 221.56 90.56 221.18
  A 0.69 0.68 88.6 0 1 89.90 220.55
  Q 88.37 202.91 89.63 185.25
  A 0.67 0.67 0.0 0 1 90.30 184.63
  L 111.98 184.52
  Z"
/>
<path fill="#008bb8" d="
  M 116.25 228.79
  Q 126.09 266.82 157.06 290.69
  Q 159.46 292.53 163.25 292.92
  Q 137.56 293.54 118.75 292.22
  C 117.81 292.15 117.06 290.73 116.58 290.06
  Q 97.14 262.81 91.19 229.51
  A 0.53 0.53 0.0 0 1 91.68 228.88
  Q 103.84 228.21 116.25 228.79
  Z"
/>
<path fill="#039bc6" d="
  M 469.25 228.54
  L 470.10 228.75
  Q 470.81 228.93 470.23 229.38
  C 405.36 279.63 318.20 321.56 234.18 317.15
  Q 233.67 317.13 233.33 317.51
  Q 232.84 318.07 232.96 319.00
  Q 224.36 307.35 218.25 294.21
  C 222.04 292.91 229.18 292.00 226.99 285.99
  Q 226.82 285.51 226.37 285.28
  L 224.07 284.10
  Q 223.60 283.86 223.10 284.01
  Q 193.88 292.87 163.25 292.92
  Q 159.46 292.53 157.06 290.69
  Q 126.09 266.82 116.25 228.79
  L 469.25 228.54
  Z
  M 258.97 271.03
  A 13.90 13.90 0.0 0 0 245.07 257.13
  A 13.90 13.90 0.0 0 0 231.17 271.03
  A 13.90 13.90 0.0 0 0 245.07 284.93
  A 13.90 13.90 0.0 0 0 258.97 271.03
  Z"
/>
<path fill="#008bb8" d="
  M 282.25 357.21
  C 263.01 347.27 246.57 336.12 232.96 319.00
  Q 232.84 318.07 233.33 317.51
  Q 233.67 317.13 234.18 317.15
  C 318.20 321.56 405.36 279.63 470.23 229.38
  Q 470.81 228.93 470.10 228.75
  L 469.25 228.54
  L 523.28 228.72
  A 0.31 0.31 0.0 0 1 523.54 229.19
  C 469.00 314.34 380.93 352.90 282.25 357.21
  Z"
/>
<path fill="#bfdbe0" d="
  M 258.97 271.03
  A 13.90 13.90 0.0 0 1 245.07 284.93
  A 13.90 13.90 0.0 0 1 231.17 271.03
  A 13.90 13.90 0.0 0 1 245.07 257.13
  A 13.90 13.90 0.0 0 1 258.97 271.03
  Z
  M 253.82 267.43
  C 250.19 272.26 243.99 266.24 248.17 262.27
  Q 248.55 261.91 248.09 261.68
  Q 245.86 260.57 243.47 261.18
  C 235.72 263.15 232.38 271.10 237.33 277.39
  C 243.97 285.82 258.58 278.14 254.27 267.49
  Q 254.10 267.07 253.82 267.43
  Z"
/>
<path fill="#394d54" d="
  M 248.17 262.27
  C 243.99 266.24 250.19 272.26 253.82 267.43
  Q 254.10 267.07 254.27 267.49
  C 258.58 278.14 243.97 285.82 237.33 277.39
  C 232.38 271.10 235.72 263.15 243.47 261.18
  Q 245.86 260.57 248.09 261.68
  Q 248.55 261.91 248.17 262.27
  Z"
/>
<path fill="#bfdbe0" d="
  M 218.25 294.21
  Q 224.36 307.35 232.96 319.00
  C 246.57 336.12 263.01 347.27 282.25 357.21
  Q 256.05 358.15 230.15 354.73
  C 189.32 349.34 153.38 331.26 124.81 301.44
  A 0.26 0.25 69.5 0 1 125.00 301.01
  C 155.83 302.88 188.26 302.24 218.25 294.21
  Z"
/>
<path fill="#394d54" d="
  M 97.99 440.17
  A 0.43 0.42 -11.6 0 0 98.26 439.78
  Q 98.23 420.43 98.27 400.96
  Q 98.28 395.69 99.70 393.45
  C 103.25 387.84 113.50 388.29 116.34 394.22
  Q 117.44 396.51 117.47 403.07
  C 117.60 427.82 117.39 452.56 117.39 477.31
  C 117.39 484.80 118.00 494.69 115.61 502.00
  Q 107.36 527.29 82.52 538.28
  C 74.82 541.69 68.05 542.62 59.38 542.86
  C 40.59 543.40 23.92 535.37 12.68 520.52
  Q -0.69 502.86 1.07 478.76
  C 4.56 430.98 61.97 409.64 97.37 440.13
  Q 97.61 440.33 97.99 440.17
  Z
  M 62.60 523.31
  C 96.61 520.30 111.34 476.15 83.10 454.14
  Q 66.82 441.45 46.72 447.58
  C 26.30 453.81 15.80 477.46 22.18 496.97
  C 27.60 513.53 45.27 524.85 62.60 523.31
  Z"
/>
<path fill="#394d54" d="
  M 391.10 509.82
  Q 390.80 520.12 390.99 530.43
  Q 391.08 535.51 389.85 537.88
  C 386.80 543.77 376.41 544.18 372.98 538.05
  Q 371.77 535.90 371.77 531.07
  Q 371.73 466.97 371.76 402.84
  Q 371.76 396.47 373.26 393.92
  C 376.39 388.60 386.26 388.40 389.66 393.98
  Q 390.97 396.14 390.98 400.92
  Q 391.02 430.07 390.99 459.33
  A 0.68 0.67 16.4 0 0 391.31 459.90
  Q 391.78 460.20 392.24 459.73
  Q 410.51 441.36 419.33 432.83
  C 421.42 430.80 424.70 427.54 427.92 426.98
  C 435.73 425.62 440.70 431.67 438.93 439.22
  Q 438.31 441.88 433.74 446.49
  Q 414.91 465.53 396.03 484.60
  A 0.30 0.30 0.0 0 0 396.03 485.04
  Q 415.35 504.32 434.41 523.92
  C 439.03 528.66 441.28 532.95 437.54 538.84
  C 433.64 544.97 426.60 543.46 421.90 538.85
  Q 406.89 524.13 391.72 509.57
  Q 391.12 509.00 391.10 509.82
  Z"
/>
<path fill="#394d54" d="
  M 496.72 521.20
  Q 505.62 523.69 514.82 522.47
  C 521.04 521.64 527.62 517.00 533.82 516.87
  C 543.20 516.68 546.90 529.54 538.61 534.63
  Q 530.06 539.88 520.49 541.93
  C 477.62 551.09 438.80 507.14 453.27 465.91
  Q 462.62 439.28 490.23 428.76
  C 515.76 419.04 547.25 431.42 559.82 455.45
  C 564.92 465.19 551.72 472.74 545.71 477.95
  Q 521.19 499.21 496.56 520.50
  A 0.41 0.41 0.0 0 0 496.72 521.20
  Z
  M 479.90 508.81
  L 537.91 458.98
  Q 538.72 458.28 537.95 457.53
  C 510.39 430.74 466.00 450.94 470.78 489.76
  Q 472.15 500.89 479.16 508.76
  Q 479.51 509.15 479.90 508.81
  Z"
/>
<path fill="#394d54" d="
  M 284.80 461.01
  C 268.77 483.86 278.65 512.82 305.20 521.37
  C 315.04 524.54 324.93 523.32 334.45 518.77
  Q 337.94 517.11 340.15 517.13
  C 349.47 517.25 352.35 528.56 346.70 534.39
  Q 344.11 537.07 337.96 539.11
  C 309.29 548.64 279.28 540.94 264.70 512.79
  C 249.75 483.92 258.22 449.30 287.23 432.96
  C 305.19 422.85 328.18 423.07 345.92 434.02
  C 347.49 434.98 348.90 437.37 349.12 438.81
  Q 350.71 449.56 341.96 451.04
  C 335.98 452.04 331.03 447.95 325.42 446.47
  C 309.43 442.25 294.21 447.60 284.80 461.01
  Z"
/>
<path fill="#394d54" d="
  M 207.83 429.32
  C 247.76 443.21 259.20 497.54 229.09 526.28
  Q 207.55 546.86 176.25 541.99
  C 147.84 537.58 128.68 511.38 129.05 483.25
  C 129.59 442.43 169.69 416.05 207.83 429.32
  Z
  M 149.14 478.40
  C 145.24 503.09 166.07 525.01 190.67 523.33
  C 221.91 521.20 238.75 481.52 216.20 458.29
  C 203.22 444.92 182.97 441.08 167.31 451.07
  C 158.15 456.91 150.83 467.69 149.14 478.40
  Z"
/>
<path fill="#394d54" d="
  M 588.28 453.09
  C 599.13 437.21 616.10 427.27 635.78 426.93
  C 643.34 426.80 649.01 431.15 646.84 439.12
  C 644.76 446.77 636.92 446.17 630.61 446.98
  C 616.37 448.80 603.72 460.97 600.05 474.46
  Q 598.79 479.07 598.78 487.79
  Q 598.73 510.51 598.74 533.24
  C 598.74 545.96 579.30 546.67 579.28 532.68
  Q 579.23 509.85 579.25 487.00
  C 579.26 474.40 581.17 463.49 588.28 453.09
  Z"
/>
</svg>
