<?xml version="1.0" encoding="UTF-8" standalone="no"?>
<!DOCTYPE svg PUBLIC "-//W3C//DTD SVG 1.1//EN" "http://www.w3.org/Graphics/SVG/1.1/DTD/svg11.dtd">
<svg xmlns="http://www.w3.org/2000/svg" version="1.1" viewBox="0.00 0.00 1448.00 1448.00">
<g stroke-width="2.00" fill="none" stroke-linecap="butt">
<path stroke="#6b8e65" vector-effect="non-scaling-stroke" d="
  M 798.33 494.21
  A 0.31 0.31 0.0 0 0 798.62 494.29
  L 970.09 455.39
  A 0.31 0.31 0.0 0 1 970.46 455.77
  L 929.35 625.03
  A 0.31 0.31 0.0 0 0 929.43 625.32
  L 1009.23 705.15
  A 0.31 0.31 0.0 0 0 1009.75 705.01
  L 1105.91 320.37
  A 0.31 0.31 0.0 0 0 1105.54 320.00
  L 720.94 416.15
  A 0.31 0.31 0.0 0 0 720.80 416.67
  L 798.33 494.21"
/>
<path stroke="#4b741b" vector-effect="non-scaling-stroke" d="
  M 532.29 755.96
  A 0.31 0.31 0.0 0 1 532.00 755.88
  L 376.42 600.29
  A 0.31 0.31 0.0 0 1 376.56 599.77
  L 650.96 531.25
  A 0.31 0.31 0.0 0 0 651.10 530.73
  L 573.58 453.20
  A 0.31 0.31 0.0 0 0 573.29 453.12
  L 188.28 549.25
  A 0.31 0.31 0.0 0 0 188.14 549.77
  L 876.09 1237.72
  A 0.31 0.31 0.0 0 0 876.61 1237.58
  L 972.83 852.67
  A 0.31 0.31 0.0 0 0 972.75 852.38
  L 892.90 772.52
  A 0.31 0.31 0.0 0 0 892.38 772.66
  L 823.82 1047.03
  A 0.31 0.31 0.0 0 1 823.30 1047.17
  L 667.70 891.59
  A 0.31 0.31 0.0 0 1 667.62 891.30
  L 713.31 712.94
  A 0.31 0.31 0.0 0 0 712.94 712.56
  L 532.29 755.96"
/>
</g>
<path fill="#1c1c20" d="
  M 0.00 734.94
  L 0.00 718.19
  C 4.23 404.68 206.79 130.63 506.26 36.51
  C 706.17 -26.32 925.48 2.27 1102.57 112.44
  C 1276.24 220.48 1396.10 398.03 1431.94 599.56
  C 1490.96 931.40 1310.59 1259.62 1000.79 1390.20
  C 877.09 1442.34 740.96 1458.36 608.61 1437.59
  C 378.28 1401.44 176.49 1252.97 74.11 1043.49
  Q 2.96 897.93 0.00 734.94
  Z
  M 798.33 494.21
  A 0.31 0.31 0.0 0 0 798.62 494.29
  L 970.09 455.39
  A 0.31 0.31 0.0 0 1 970.46 455.77
  L 929.35 625.03
  A 0.31 0.31 0.0 0 0 929.43 625.32
  L 1009.23 705.15
  A 0.31 0.31 0.0 0 0 1009.75 705.01
  L 1105.91 320.37
  A 0.31 0.31 0.0 0 0 1105.54 320.00
  L 720.94 416.15
  A 0.31 0.31 0.0 0 0 720.80 416.67
  L 798.33 494.21
  Z
  M 532.29 755.96
  A 0.31 0.31 0.0 0 1 532.00 755.88
  L 376.42 600.29
  A 0.31 0.31 0.0 0 1 376.56 599.77
  L 650.96 531.25
  A 0.31 0.31 0.0 0 0 651.10 530.73
  L 573.58 453.20
  A 0.31 0.31 0.0 0 0 573.29 453.12
  L 188.28 549.25
  A 0.31 0.31 0.0 0 0 188.14 549.77
  L 876.09 1237.72
  A 0.31 0.31 0.0 0 0 876.61 1237.58
  L 972.83 852.67
  A 0.31 0.31 0.0 0 0 972.75 852.38
  L 892.90 772.52
  A 0.31 0.31 0.0 0 0 892.38 772.66
  L 823.82 1047.03
  A 0.31 0.31 0.0 0 1 823.30 1047.17
  L 667.70 891.59
  A 0.31 0.31 0.0 0 1 667.62 891.30
  L 713.31 712.94
  A 0.31 0.31 0.0 0 0 712.94 712.56
  L 532.29 755.96
  Z"
/>
<path fill="#baffa9" d="
  M 798.33 494.21
  L 720.80 416.67
  A 0.31 0.31 0.0 0 1 720.94 416.15
  L 1105.54 320.00
  A 0.31 0.31 0.0 0 1 1105.91 320.37
  L 1009.75 705.01
  A 0.31 0.31 0.0 0 1 1009.23 705.15
  L 929.43 625.32
  A 0.31 0.31 0.0 0 1 929.35 625.03
  L 970.46 455.77
  A 0.31 0.31 0.0 0 0 970.09 455.39
  L 798.62 494.29
  A 0.31 0.31 0.0 0 1 798.33 494.21
  Z"
/>
<path fill="#7acb16" d="
  M 532.29 755.96
  L 712.94 712.56
  A 0.31 0.31 0.0 0 1 713.31 712.94
  L 667.62 891.30
  A 0.31 0.31 0.0 0 0 667.70 891.59
  L 823.30 1047.17
  A 0.31 0.31 0.0 0 0 823.82 1047.03
  L 892.38 772.66
  A 0.31 0.31 0.0 0 1 892.90 772.52
  L 972.75 852.38
  A 0.31 0.31 0.0 0 1 972.83 852.67
  L 876.61 1237.58
  A 0.31 0.31 0.0 0 1 876.09 1237.72
  L 188.14 549.77
  A 0.31 0.31 0.0 0 1 188.28 549.25
  L 573.29 453.12
  A 0.31 0.31 0.0 0 1 573.58 453.20
  L 651.10 530.73
  A 0.31 0.31 0.0 0 1 650.96 531.25
  L 376.56 599.77
  A 0.31 0.31 0.0 0 0 376.42 600.29
  L 532.00 755.88
  A 0.31 0.31 0.0 0 0 532.29 755.96
  Z"
/>
</svg>
