<svg version="1.2" xmlns="http://www.w3.org/2000/svg" viewBox="0 0 800 800" width="40" height="40">
	<title>New Project</title>
	<style>
		.s0 { fill: #ffffff } 
	</style>
	<path id="Path 0" class="s0" d="m435.4 5.2l-0.9 5.2c-9.3 3.4-17.6 6.3-24.5 8.7-9.7 3.4-14.1 5.6-20 9.9-4.1 3-9.3 6.7-11.5 8.1-2.2 1.4-8.9 7.9-15 14.3-6 6.5-12.6 14.3-14.6 17.4-2 3.2-5.9 8.7-8.7 12.5-4.1 5.2-5.7 8.6-7.7 15.5-1.4 4.8-5.2 16.8-8.5 26.7-3.3 9.9-6.4 20.9-7 24.5-0.5 3.6-1.5 28.8-2 56-0.5 27.2-1.3 56-1.6 64l-0.6 14.5-9.5 9.5c-80.4 0-104.8 0.2-106 0.5l-2.3 0.5v141l108.4 0.5c4.8 6.2 7.4 11.6 8.9 16l2.8 8-1.6 341.5h149c1.2-29.1 1.5-101.6 1.6-180 0-78.4 0.4-148.8 0.8-156.5 0.7-12.1 1.1-14.8 3.4-19.5 1.4-3 3.8-6.5 5.4-7.7 2.8-2.1 3.4-2.1 52.5-2.5l49.7-0.3c5.6-5.4 8.1-8.4 9.1-10 1.3-2.1 2-6 2.5-13 0.4-5.5 1.5-16.7 2.6-25 1-8.2 2.5-18.9 3.4-23.7l1.5-8.8h10v-57.5c-8.9-1.2-18-2-26-2.6-9.6-0.8-29-0.9-57.2-0.5l-42.8 0.6c-8.1-5.2-11-7.3-11.7-8.1-0.6-0.8-1.7-4.8-2.4-8.9-0.8-5.4-1-18-0.5-45.5 0.4-20.9 1.1-42.9 1.6-49 0.5-6.1 1.7-13.5 2.6-16.5 1.2-4.1 3-6.8 6.8-10.5 2.8-2.8 8.2-7.4 12.1-10.2 5.5-4.1 8.5-5.6 14-6.8 3.9-0.9 12.2-2 18.5-2.5 6.3-0.5 23.2-1 37.5-1 14.3 0 30.8-0.3 36.8-0.7l10.7-0.8v-132.5h-168.7z"/>
</svg>