<?xml version="1.0" encoding="UTF-8" standalone="no"?>
<!DOCTYPE svg PUBLIC "-//W3C//DTD SVG 1.1//EN" "http://www.w3.org/Graphics/SVG/1.1/DTD/svg11.dtd">
<svg xmlns="http://www.w3.org/2000/svg" version="1.1" viewBox="0.00 0.00 670.00 670.00">
<g stroke-width="2.00" fill="none" stroke-linecap="butt">
<path stroke="#68469c" vector-effect="non-scaling-stroke" d="
  M 259.50 256.54
  C 254.64 257.38 249.27 257.98 244.92 259.22
  C 196.82 272.87 178.20 331.09 208.45 370.31
  C 219.00 383.99 235.77 394.67 253.43 396.72
  Q 256.12 397.03 258.75 397.71"
/>
<path stroke="#1c805f" vector-effect="non-scaling-stroke" d="
  M 258.75 397.71
  Q 255.53 398.47 252.26 399.03
  C 212.91 405.77 186.37 444.36 195.45 483.60
  C 201.83 511.21 222.98 532.71 251.27 537.92
  C 294.96 545.97 334.72 512.81 334.91 468.50
  Q 335.06 433.25 334.96 398.00"
/>
<path stroke="#68469c" vector-effect="non-scaling-stroke" d="
  M 334.96 398.00
  L 335.04 333.75"
/>
<path stroke="#24779c" vector-effect="non-scaling-stroke" d="
  M 335.04 333.75
  C 335.95 338.03 336.48 342.66 337.70 346.55
  Q 347.39 377.46 375.62 391.00
  C 404.08 404.65 438.43 397.07 458.74 373.75
  C 476.11 353.82 481.24 325.73 471.30 301.06
  C 450.61 249.69 381.89 241.24 349.19 284.75
  Q 336.33 301.86 335.21 324.25"
/>
<path stroke="#68469c" vector-effect="non-scaling-stroke" d="
  M 335.21 324.25
  L 335.00 256.50"
/>
<path stroke="#97524e" vector-effect="non-scaling-stroke" d="
  M 335.00 256.50
  Q 364.58 256.52 394.16 256.48
  C 396.55 256.48 398.78 255.93 401.28 256.10
  C 455.49 259.80 492.21 203.60 469.27 155.29
  C 459.49 134.69 440.54 120.55 418.18 116.41
  Q 411.48 115.17 398.27 115.20
  Q 366.25 115.28 334.25 115.29"
/>
<path stroke="#90402b" vector-effect="non-scaling-stroke" d="
  M 334.25 115.29
  Q 302.66 115.20 271.07 115.27
  Q 257.66 115.30 251.14 116.49
  C 198.19 126.18 175.13 191.38 210.94 232.08
  Q 229.92 253.66 259.50 256.54"
/>
<path stroke="#f8613f" vector-effect="non-scaling-stroke" d="
  M 334.25 115.29
  Q 334.96 118.22 334.96 121.25
  Q 335.00 188.88 335.00 256.50"
/>
<path stroke="#ca548e" vector-effect="non-scaling-stroke" d="
  M 335.00 256.50
  L 259.50 256.54"
/>
<path stroke="#5e8bff" vector-effect="non-scaling-stroke" d="
  M 335.21 324.25
  L 335.04 333.75"
/>
<path stroke="#5695c2" vector-effect="non-scaling-stroke" d="
  M 334.96 398.00
  L 258.75 397.71"
/>
</g>
<path fill="#2e3139" d="
  M 623.45 496.79
  A 121.38 121.38 0.0 0 1 502.07 618.17
  L 167.91 618.17
  A 121.38 121.38 0.0 0 1 46.53 496.79
  L 46.53 162.57
  A 121.38 121.38 0.0 0 1 167.91 41.19
  L 502.07 41.19
  A 121.38 121.38 0.0 0 1 623.45 162.57
  L 623.45 496.79
  Z
  M 259.50 256.54
  C 254.64 257.38 249.27 257.98 244.92 259.22
  C 196.82 272.87 178.20 331.09 208.45 370.31
  C 219.00 383.99 235.77 394.67 253.43 396.72
  Q 256.12 397.03 258.75 397.71
  Q 255.53 398.47 252.26 399.03
  C 212.91 405.77 186.37 444.36 195.45 483.60
  C 201.83 511.21 222.98 532.71 251.27 537.92
  C 294.96 545.97 334.72 512.81 334.91 468.50
  Q 335.06 433.25 334.96 398.00
  L 335.04 333.75
  C 335.95 338.03 336.48 342.66 337.70 346.55
  Q 347.39 377.46 375.62 391.00
  C 404.08 404.65 438.43 397.07 458.74 373.75
  C 476.11 353.82 481.24 325.73 471.30 301.06
  C 450.61 249.69 381.89 241.24 349.19 284.75
  Q 336.33 301.86 335.21 324.25
  L 335.00 256.50
  Q 364.58 256.52 394.16 256.48
  C 396.55 256.48 398.78 255.93 401.28 256.10
  C 455.49 259.80 492.21 203.60 469.27 155.29
  C 459.49 134.69 440.54 120.55 418.18 116.41
  Q 411.48 115.17 398.27 115.20
  Q 366.25 115.28 334.25 115.29
  Q 302.66 115.20 271.07 115.27
  Q 257.66 115.30 251.14 116.49
  C 198.19 126.18 175.13 191.38 210.94 232.08
  Q 229.92 253.66 259.50 256.54
  Z"
/>
<path fill="#f14e1c" d="
  M 334.25 115.29
  Q 334.96 118.22 334.96 121.25
  Q 335.00 188.88 335.00 256.50
  L 259.50 256.54
  Q 229.92 253.66 210.94 232.08
  C 175.13 191.38 198.19 126.18 251.14 116.49
  Q 257.66 115.30 271.07 115.27
  Q 302.66 115.20 334.25 115.29
  Z"
/>
<path fill="#ff7362" d="
  M 334.25 115.29
  Q 366.25 115.28 398.27 115.20
  Q 411.48 115.17 418.18 116.41
  C 440.54 120.55 459.49 134.69 469.27 155.29
  C 492.21 203.60 455.49 259.80 401.28 256.10
  C 398.78 255.93 396.55 256.48 394.16 256.48
  Q 364.58 256.52 335.00 256.50
  Q 335.00 188.88 334.96 121.25
  Q 334.96 118.22 334.25 115.29
  Z"
/>
<path fill="#a25aff" d="
  M 259.50 256.54
  L 335.00 256.50
  L 335.21 324.25
  L 335.04 333.75
  L 334.96 398.00
  L 258.75 397.71
  Q 256.12 397.03 253.43 396.72
  C 235.77 394.67 219.00 383.99 208.45 370.31
  C 178.20 331.09 196.82 272.87 244.92 259.22
  C 249.27 257.98 254.64 257.38 259.50 256.54
  Z"
/>
<path fill="#19bcfe" d="
  M 335.04 333.75
  L 335.21 324.25
  Q 336.33 301.86 349.19 284.75
  C 381.89 241.24 450.61 249.69 471.30 301.06
  C 481.24 325.73 476.11 353.82 458.74 373.75
  C 438.43 397.07 404.08 404.65 375.62 391.00
  Q 347.39 377.46 337.70 346.55
  C 336.48 342.66 335.95 338.03 335.04 333.75
  Z"
/>
<path fill="#0acf84" d="
  M 258.75 397.71
  L 334.96 398.00
  Q 335.06 433.25 334.91 468.50
  C 334.72 512.81 294.96 545.97 251.27 537.92
  C 222.98 532.71 201.83 511.21 195.45 483.60
  C 186.37 444.36 212.91 405.77 252.26 399.03
  Q 255.53 398.47 258.75 397.71
  Z"
/>
</svg>
