<?xml version="1.0" encoding="UTF-8" standalone="no"?>
<!DOCTYPE svg PUBLIC "-//W3C//DTD SVG 1.1//EN" "http://www.w3.org/Graphics/SVG/1.1/DTD/svg11.dtd">
<svg xmlns="http://www.w3.org/2000/svg" version="1.1" viewBox="0.00 0.00 512.00 512.00">
<path fill="#de4c36" d="
  M 253.81 0.00
  L 257.31 0.00
  Q 270.23 1.11 278.43 9.31
  Q 388.65 119.52 498.85 229.74
  C 506.99 237.87 511.13 243.98 512.00 254.81
  L 512.00 258.56
  C 510.98 269.47 506.68 275.44 498.44 283.68
  Q 391.30 390.83 284.14 497.98
  C 275.50 506.62 269.43 511.19 257.94 512.00
  L 254.69 512.00
  C 243.47 511.00 237.41 506.53 228.94 498.06
  Q 119.00 388.13 9.07 278.19
  Q 0.97 270.09 0.00 256.94
  L 0.00 253.44
  C 0.99 242.50 5.32 236.57 13.57 228.32
  Q 88.07 153.77 162.68 79.21
  Q 163.01 78.88 163.34 79.21
  L 220.69 136.57
  Q 221.00 136.88 220.85 137.29
  C 213.05 157.52 221.80 179.14 241.83 188.15
  Q 242.25 188.34 242.25 188.81
  L 242.25 328.52
  Q 242.25 329.02 241.80 329.22
  C 214.49 341.46 209.42 377.24 233.02 396.08
  C 252.24 411.42 280.91 404.89 292.03 383.10
  C 302.21 363.15 294.16 341.20 274.90 330.18
  Q 274.50 329.95 274.50 329.49
  L 274.50 191.50
  A 0.26 0.26 0.0 0 1 274.94 191.31
  L 327.06 243.43
  Q 327.45 243.81 327.26 244.32
  Q 320.28 263.71 330.68 279.79
  C 348.82 307.85 392.27 302.01 401.48 269.39
  C 410.14 238.74 381.36 212.26 351.53 221.50
  Q 351.03 221.66 350.67 221.29
  L 294.69 165.32
  Q 294.33 164.96 294.47 164.47
  C 303.07 132.76 276.91 105.86 245.08 114.73
  Q 244.51 114.89 244.09 114.47
  L 186.08 56.45
  Q 185.75 56.13 186.08 55.81
  Q 209.53 32.32 233.20 8.70
  Q 240.89 1.01 253.81 0.00
  Z"
/>
</svg>
