<?xml version="1.0" encoding="UTF-8" standalone="no"?>
<!DOCTYPE svg PUBLIC "-//W3C//DTD SVG 1.1//EN" "http://www.w3.org/Graphics/SVG/1.1/DTD/svg11.dtd">
<svg xmlns="http://www.w3.org/2000/svg" version="1.1" viewBox="0.00 0.00 555.00 512.00">
<g stroke-width="2.00" fill="none" stroke-linecap="butt">
<path stroke="#ef5828" vector-effect="non-scaling-stroke" d="
  M 175.21 197.75
  Q 111.50 197.72 47.80 197.69
  C 43.29 197.69 38.30 197.22 33.29 198.25"
/>
<path stroke="#ef7328" vector-effect="non-scaling-stroke" d="
  M 33.29 198.25
  L 32.54 197.75"
/>
<path stroke="#ef5828" vector-effect="non-scaling-stroke" d="
  M 522.71 197.75
  L 380.00 197.71"
/>
<path stroke="#ef5828" vector-effect="non-scaling-stroke" d="
  M 175.50 198.04
  Q 225.40 351.64 275.25 505.25
  Q 276.09 507.83 276.00 508.71"
/>
<path stroke="#fc8826" vector-effect="non-scaling-stroke" d="
  M 276.00 508.71
  Q 274.03 507.48 272.05 504.95
  Q 153.01 352.37 33.95 199.80
  Q 33.29 198.96 33.29 198.25"
/>
<path stroke="#fc8826" vector-effect="non-scaling-stroke" d="
  M 522.96 198.25
  Q 522.82 198.25 522.69 198.25
  Q 522.60 198.25 522.55 198.32
  L 280.25 508.79"
/>
<path stroke="#ef5828" vector-effect="non-scaling-stroke" d="
  M 280.25 508.79
  Q 279.95 508.77 279.63 508.88
  Q 278.61 509.24 278.94 508.22
  L 379.75 197.79"
/>
<path stroke="#ef7328" vector-effect="non-scaling-stroke" d="
  M 276.00 508.71
  Q 277.05 509.77 276.25 510.79"
/>
<path stroke="#ef7328" vector-effect="non-scaling-stroke" d="
  M 280.25 508.79
  Q 278.42 509.62 278.11 511.61"
/>
</g>
<path fill="#e24329" d="
  M 175.21 197.75
  Q 111.50 197.72 47.80 197.69
  C 43.29 197.69 38.30 197.22 33.29 198.25
  L 32.54 197.75
  Q 75.85 63.23 94.07 8.07
  C 96.54 0.57 106.82 -1.21 111.89 4.72
  Q 113.40 6.49 114.91 11.13
  Q 144.92 103.47 174.92 195.82
  Q 175.34 197.14 175.21 197.75
  Z"
/>
<path fill="#e24329" d="
  M 522.71 197.75
  L 380.00 197.71
  Q 379.99 196.97 380.23 196.24
  Q 410.65 102.65 441.06 9.07
  C 442.82 3.66 447.03 0.60 452.74 1.25
  C 458.54 1.91 460.51 5.72 462.29 11.21
  Q 492.32 103.57 522.31 195.94
  Q 522.76 197.32 522.71 197.75
  Z"
/>
<path fill="#fc6d26" d="
  M 175.21 197.75
  L 175.50 198.04
  Q 225.40 351.64 275.25 505.25
  Q 276.09 507.83 276.00 508.71
  Q 274.03 507.48 272.05 504.95
  Q 153.01 352.37 33.95 199.80
  Q 33.29 198.96 33.29 198.25
  C 38.30 197.22 43.29 197.69 47.80 197.69
  Q 111.50 197.72 175.21 197.75
  Z"
/>
<path fill="#fc6d26" d="
  M 522.71 197.75
  L 522.96 198.25
  Q 522.82 198.25 522.69 198.25
  Q 522.60 198.25 522.55 198.32
  L 280.25 508.79
  Q 279.95 508.77 279.63 508.88
  Q 278.61 509.24 278.94 508.22
  L 379.75 197.79
  Q 379.88 197.75 380.00 197.71
  L 522.71 197.75
  Z"
/>
<path fill="#fca326" d="
  M 32.54 197.75
  L 33.29 198.25
  Q 33.29 198.96 33.95 199.80
  Q 153.01 352.37 272.05 504.95
  Q 274.03 507.48 276.00 508.71
  Q 277.05 509.77 276.25 510.79
  Q 145.00 415.72 13.96 320.34
  C 3.53 312.75 -2.50 305.74 1.63 292.78
  Q 16.79 245.18 32.54 197.75
  Z"
/>
<path fill="#e24329" d="
  M 379.75 197.79
  L 278.94 508.22
  Q 278.61 509.24 279.63 508.88
  Q 279.95 508.77 280.25 508.79
  Q 278.42 509.62 278.11 511.61
  Q 276.86 511.68 276.25 510.79
  Q 277.05 509.77 276.00 508.71
  Q 276.09 507.83 275.25 505.25
  Q 225.40 351.64 175.50 198.04
  L 379.75 197.79
  Z"
/>
<path fill="#fca326" d="
  M 522.96 198.25
  Q 538.77 246.11 554.14 294.11
  C 554.62 295.62 554.67 297.22 555.00 298.81
  L 555.00 300.81
  C 554.19 309.57 550.30 313.87 542.89 319.25
  Q 410.52 415.46 278.11 511.61
  Q 278.42 509.62 280.25 508.79
  L 522.55 198.32
  Q 522.60 198.25 522.69 198.25
  Q 522.82 198.25 522.96 198.25
  Z"
/>
</svg>
