<svg version="1.2" xmlns="http://www.w3.org/2000/svg" viewBox="0 0 1957 1957" width="208" height="208">
	<title>Java-svg</title>
	<style>
		.s0 { fill: #ff9200 } 
		.s1 { fill: #4384a4 } 
	</style>
	<path id="Layer" class="s0" d="m876.8 524c-0.9 26.4 7.6 53.4 19.9 76.8 23.7 44.9 62.3 88.9 86.6 138q0.1 0.1 0 0.2 0 0.1-0.1 0.2-0.1 0.1-0.2 0.1-0.1-0.1-0.2-0.1c-41.2-36.8-81.9-75.3-117.2-118-44.7-54.2-82.7-124.2-33.4-191.5 12.6-17.2 26.8-33.2 42.3-47.8 34.1-32 71.5-60.2 108-89.1 44.4-35.2 89.5-74.6 116.5-125.4 25.2-47.4 28-98.6 15.3-150.4q-0.3-1.1 0.5-0.3 5.7 6.1 10.8 14.2c52.2 84 9.4 177.7-47.8 244.2q-33.4 38.8-67.3 66.9-19.7 16.3-39.3 32.6c-44.4 36.7-92.5 87.9-94.4 149.4z"/>
	<path id="Layer" class="s0" d="m1067.3 698.8c-3.5-33.6-26.5-52.6-44.9-78.2-21.6-29.9-38-66.5-37.5-103.9 1.1-85 86-144.2 154.1-178q66.9-33.2 139.2-52.9 0.1-0.1 0.2 0 0 0 0.1 0.1 0 0.1 0 0.2 0 0-0.1 0.1-52.7 30.1-103 64.4-33.3 22.8-62.2 48.6c-19.9 17.7-39.6 39.9-49.2 64.8-9.8 25.7-3.2 52 10 75 11.2 19.7 25.3 39.3 36.6 54.7q6.8 9.3 11.6 18.3c40.2 75.3-36.6 141.1-93.9 173.6q-0.1 0-0.2 0-0.1 0-0.1-0.1-0.1-0.1-0.1-0.2 0-0.1 0.1-0.2c23.8-21.5 42.7-53.5 39.3-86.3z"/>
	<path id="Layer" class="s1" d="m1413.3 813.3c-5.5-39.7-42.9-66.9-81.3-67.3-13.7-0.1-29.3 4.3-42.8 8.7q-0.1 0.1-0.1 0-0.1 0-0.2-0.1 0-0.1 0-0.1 0-0.1 0-0.2c7-9.3 15-13.8 26.6-17.5 31.1-9.8 64.9-9.7 95.1 3.6 25.2 11.1 46.5 32.4 54.2 59.1 10.7 36.9-5.1 72.8-30 99.8-27.9 30.2-67.7 52.3-106.3 67.6q-33.7 13.3-68.7 22.4-0.7 0.2-0.3-0.3c2.2-3 3.7-5.6 7.1-7.4q20.1-10.6 44.4-25.8c44.3-27.9 110.6-82.2 102.3-142.5z"/>
	<path id="Layer" class="s1" d="m831.1 743c-12.7 3.1-151.6 37.7-134 61.2 6.1 8 25.3 12.2 35.9 13.9 16.7 2.6 33.5 4.6 50.7 5.5q57.3 3.1 122.1 1.7 98.2-2.1 180.2-10.3c59-5.9 117.7-14.1 176.2-23.8q3.2-0.6 0.1 0.6-1.1 0.4-3 1.2-26.2 11.5-53.2 28.5-2.7 1.7-5.7 2.5c-64.1 15.8-130 24.5-195.8 29.5q-101.2 7.5-202.7 3.9-50.5-1.9-100.7-7.9c-23.7-2.8-47.7-6.8-70.5-13.9-9.2-2.8-20.6-7.3-26.8-14.4-10.2-11.5 8.1-22.7 16.2-26.8 59.2-29.7 124.2-48 190.4-51.7q10.3-0.6 20.6 0 1 0.1 0 0.3z"/>
	<path id="Layer" class="s1" d="m775.9 893.3c-7.9 6.2-21 19.9-16 31.4 5.5 12.5 30.4 16.7 41.8 17.9q41.8 4.7 83.9 6.9c91.3 4.8 182.1-5.3 271.6-22.8q1.1-0.2 2.1-0.2 0.5 0 0.9 0.4 23.2 21.2 52.8 32.1 0.1 0.1 0.1 0.1 0.1 0.1 0.1 0.2 0 0.1 0 0.2-0.1 0.1-0.2 0.1-0.3 0.2-0.8 0.3-128.4 36.4-261.9 39.3c-55.3 1.2-111.5-2-166-13.3-21.3-4.4-43.2-10.9-61.6-22.1q-6.5-3.9-11.4-9.5c-26.1-30 47.3-55.9 64.3-61.4q0.1 0 0.2 0 0.1 0.1 0.1 0.1 0 0.1 0 0.2 0 0.1 0 0.1z"/>
	<path id="Layer" class="s1" d="m794.2 1056.8c2.8 15.8 50.7 19.5 63 20.8 51.1 5.7 102.6 8.3 153.9 3.1 34.1-3.4 70.3-9 106.2-15.9q0.5-0.1 1 0.2 34.4 20.2 71.6 34.8 0.1 0.1 0.1 0.2 0.1 0.1 0.1 0.2 0 0.1-0.1 0.1 0 0.1-0.1 0.2c-91.9 38.5-194.6 52.1-293.4 42.7-32.5-3-65.8-9.2-97.2-20.1-16.4-5.7-40.4-15.9-50.2-31.2-19.6-30.7 39.3-49.2 57.8-54.4q0.1 0 0.2 0 0.1 0.1 0.2 0.1 0 0.1 0 0.2-0.1 0.1-0.1 0.2c-6 3.6-14.4 10.9-13 18.8z"/>
	<path id="Layer" class="s1" d="m578.6 1184.9c-2.4 9.8 12.8 15.4 19 17.7 45 16.3 93.5 22.9 141 27.2 110.9 10.2 222.9 10.2 334.1 4.3 66.2-3.4 132.7-9.2 198.2-19.6q33.5-5.4 66.3-14.1c14.4-3.8 28.8-8.8 41.4-16.8 14.4-9.1 22.4-24.7 7.4-38.8q-0.1 0-0.1-0.1 0-0.1 0.1-0.1 0-0.1 0-0.1 0.1 0 0.1 0c15.2 6.4 34.6 21.3 18.4 39.3-11.7 13.1-28.5 21.6-44.7 28.3-27.9 11.5-56.2 19.5-85.3 26.2-93.8 21.5-190.5 30.9-286.6 33.8q-210.9 6.3-419.3-26.9c-16.9-2.7-76.8-10.9-73.4-37.3 2.2-18 31.9-34.2 46.5-41.2q49.7-23.9 104.6-31.9c19.4-2.8 42.2-4.1 59.2 4.7q0.1 0.1 0.2 0.2 0 0.1 0 0.2 0 0.1-0.1 0.2-0.1 0.1-0.2 0.1c-34-0.1-70.2 10.2-101 24.3-7.8 3.5-23.5 11.5-25.8 20.4z"/>
	<path id="Layer" class="s1" d="m1428 1242c14.1-6.6 31-16.6 40.1-29.5q0.6-0.8 0.5 0.2c-8.8 88-236.3 110.7-300.2 116.1q-143.2 12.1-286.7 4.8c-45.5-2.3-91.2-6.2-136.1-13.9-24.9-4.3-51.6-10-74-21.8q-0.1 0-0.2-0.1 0-0.2 0-0.3 0-0.1 0.2-0.2 0.1-0.1 0.2 0 70.4 10.8 140.9 14.9c131.4 7.8 265 4 395.5-14 52-7.3 103.7-17.2 154.2-31.6q33.8-9.6 65.6-24.6z"/>
	<path id="Layer" class="s1" d="m531.5 1758.3q0-164.8 0-329.6c0-1.4-0.4-4-0.2-6.1q0.1-0.6 0.7-0.6h64.9q0.1 0 0.2 0 0 0 0.1 0.1 0 0 0 0.1 0 0.1 0 0.1 0 170.9 0 341.7c0 17.3-0.5 34.8-1.9 52-2.6 30.5-10.8 57.8-31.9 80.8q-27.4 29.9-66.2 44-0.5 0.1-0.9-0.3l-29.5-34.8q-0.6-0.6 0.2-1 26-13.7 44.1-36.6c12.7-15.9 17-34.1 18.6-54.1 1.5-18.5 1.8-37.2 1.8-55.7z"/>
	<path id="Layer" fill-rule="evenodd" class="s1" d="m826.8 1800.2q0-0.2-0.1-0.3-0.1-0.1-0.3-0.2-0.1-0.1-0.3 0-0.2 0-0.3 0.1c-27.3 24.2-58.2 38.7-95.5 38.2-42.2-0.7-78.1-18.1-86.3-62.7-3.3-17.8-2.5-37.6 3.7-54.6 20-55.4 87.5-68.5 138.3-69.4q15.7-0.3 31.5-0.3 0.5 0 0.5-0.5 1.1-22.5-0.7-39.5c-4-37.6-42.3-42.9-72-40.9-27 1.8-52.4 7.9-77.8 17.1q-0.5 0.1-0.6-0.4l-8.9-37.3q0 0 0-0.1 0-0.1 0-0.2 0-0.1 0.1-0.1 0.1-0.1 0.1-0.1 50.4-22.4 105.1-24.8c62.3-2.6 116.7 19.3 116.7 91.8q0 107.7 0 215.5 0 0.5-0.5 0.5h-47.5q-0.5 0-0.6-0.5zm-122.1-64.3c-3.7 29.7 8.8 53.4 40.2 56.4 27.4 2.6 52.2-13 73-29.7q0.4-0.3 0.4-0.9v-70.6q-0.1-0.1-0.1-0.2 0-0.1-0.1-0.2-0.1 0-0.2-0.1 0 0-0.1 0c-35-0.6-107-5.1-113.1 45.3z"/>
	<path id="Layer" fill-rule="evenodd" class="s1" d="m1391 1799.7c-13.8 11-25.7 20-39.6 26.5-46 21.4-124.2 18-140.8-42.7-5.3-19-5.3-41.4 0.7-59.9 18.4-56.4 84.3-70.8 135.5-72.2q14.9-0.4 35.6-0.4 0.6 0 0.5-0.5c-0.3-15.5 1.6-32.6-2.7-47.7-15.6-54.5-112.9-28.7-148-15.5q-0.1 0-0.2 0-0.1 0-0.2-0.1-0.1 0-0.1-0.1-0.1-0.1-0.1-0.1l-8.8-37.3q-0.2-0.5 0.4-0.7 51.2-23 107.3-24.7c63.1-1.9 114.2 20.8 114.2 92.8q0.1 107.2 0.1 214.4 0 0.5-0.6 0.5h-47.2q-0.2 0-0.3-0.1-0.2 0-0.3-0.1-0.1-0.1-0.2-0.3-0.1-0.1-0.1-0.3l-4.5-31.2q-0.1-0.7-0.6-0.3zm-8-38.3v-70.3q0-0.6-0.6-0.6c-28.3-0.3-60-1.7-86.4 10-23.3 10.3-30.5 32.6-26.2 56.5 6.6 37.8 46.9 41.6 75.7 29q20.3-8.8 37-23.6 0.5-0.4 0.5-1z"/>
	<path id="Layer" class="s1" d="m1054.8 1770.3c28.1-77.7 48.6-158.2 59.7-240.1q0.1-0.5 0.5-0.5l64.5 0.1q0.6 0 0.5 0.5c-18.5 103.7-48.7 205.7-93.1 301.3q-0.2 0.4-0.7 0.4h-75.9q-0.2 0-0.4-0.1-0.1 0-0.3-0.1-0.1-0.1-0.2-0.2-0.1-0.2-0.2-0.3l-92.5-301.1q0-0.1 0-0.2 0 0 0.1-0.1 0-0.1 0.1-0.1 0.1 0 0.2 0h66.4q0.5 0 0.6 0.4 27.5 88.2 54.8 176.5c6.4 20.6 10.4 42.4 15.4 63.5q0 0.1 0.1 0.2 0 0 0.1 0 0.1 0 0.2 0 0.1-0.1 0.1-0.1z"/>
	<path id="Layer" class="s1" d="m1463 1534.5v19.2q0 0.1 0 0.2-0.1 0.1-0.2 0.2 0 0.1-0.1 0.1-0.1 0-0.2 0.1h-3.9q-0.1-0.1-0.2-0.1-0.1 0-0.2-0.1-0.1-0.1-0.1-0.2-0.1-0.1-0.1-0.2l-0.2-19.2q0-0.1-0.1-0.2 0-0.1-0.1-0.2-0.1-0.1-0.2-0.1-0.1-0.1-0.2 0h-5.9q-0.1 0-0.2 0-0.1 0-0.2-0.1 0-0.1-0.1-0.2 0 0 0-0.1l-0.4-3q0-0.1 0-0.2 0.1-0.1 0.1-0.2 0.1-0.1 0.2-0.2 0.1 0 0.2 0h18.8q0.1 0 0.2 0 0.1 0.1 0.2 0.2 0.1 0 0.1 0.1 0 0.1 0 0.2v3q0 0.1 0 0.2 0 0.1-0.1 0.1-0.1 0.1-0.2 0.2-0.1 0-0.2 0h-6.2q-0.1 0-0.2 0-0.1 0.1-0.1 0.2-0.1 0-0.2 0.1 0 0.1 0 0.2z"/>
	<path id="Layer" class="s1" d="m1479 1536.5v17.3q0 0.5-0.5 0.5l-3.6-0.1q-0.6 0-0.6-0.6v-23q0-0.6 0.6-0.6h5.9q0.6 0 0.8 0.5l5.8 15.5q0 0.2 0.2 0.3 0.1 0.1 0.3 0.1 0.2 0 0.3-0.1 0.2-0.1 0.2-0.3l5.8-15.5q0.2-0.5 0.8-0.5h6q0.5 0 0.5 0.5v23.1q0 0.6-0.7 0.6l-3.2 0.1q-0.2 0-0.3-0.1-0.2-0.1-0.3-0.2-0.1-0.1-0.2-0.3-0.1-0.2-0.1-0.3l0.1-17.2q0-0.1-0.1-0.1-0.1-0.1-0.2-0.1-0.1-0.1-0.1 0-0.1 0-0.2 0.1-2.7 7.9-5.7 15.7c-0.7 2.1-1.7 3.4-4 2.2q-0.4-0.3-0.6-0.7l-6.2-16.9q-0.7-1.8-0.7 0.1z"/>
</svg>