<?xml version="1.0" encoding="UTF-8" standalone="no"?>
<!DOCTYPE svg PUBLIC "-//W3C//DTD SVG 1.1//EN" "http://www.w3.org/Graphics/SVG/1.1/DTD/svg11.dtd">
<svg xmlns="http://www.w3.org/2000/svg" version="1.1" viewBox="0.00 0.00 1376.00 1522.00">
<g stroke-width="2.00" fill="none" stroke-linecap="butt">
<path stroke="#e39e8a" vector-effect="non-scaling-stroke" d="
  M 915.08 237.63
  A 0.36 0.36 0.0 0 1 915.73 237.63
  L 1085.22 583.51
  Q 1085.48 584.04 1086.05 583.87
  L 1107.04 577.37
  Q 1107.45 577.24 1107.58 576.83
  L 1279.54 69.47
  A 0.17 0.17 0.0 0 0 1279.38 69.25
  L 550.85 69.25
  A 0.34 0.34 0.0 0 0 550.53 69.70
  L 721.79 575.28
  Q 721.94 575.73 722.40 575.86
  L 744.52 581.85
  A 0.47 0.46 -69.4 0 0 745.06 581.60
  L 915.08 237.63"
/>
<path stroke="#e39e8a" vector-effect="non-scaling-stroke" d="
  M 863.79 749.75
  Q 861.89 819.45 815.72 869.09
  C 776.35 911.41 718.90 930.88 661.80 922.75
  Q 661.28 922.67 660.99 923.12
  C 590.62 1033.11 488.52 1122.38 367.01 1171.50
  Q 355.24 1176.25 333.20 1183.96
  Q 332.73 1184.12 332.30 1183.90
  Q 319.84 1177.68 310.71 1172.54
  C 223.66 1123.52 176.34 1023.44 205.27 925.24
  Q 205.46 924.59 204.79 924.51
  Q 181.95 921.76 160.55 913.39
  Q 159.98 913.16 159.71 913.72
  C 135.92 962.60 105.28 1022.14 88.04 1078.60
  Q 65.46 1152.54 70.53 1230.18
  C 74.79 1295.43 99.29 1358.03 152.38 1398.87
  C 197.28 1433.40 251.34 1452.04 308.23 1451.34
  C 380.11 1450.45 450.41 1423.75 514.98 1394.45
  C 616.15 1348.54 710.94 1293.78 817.75 1255.26
  Q 872.97 1235.34 930.74 1224.98
  C 965.19 1218.81 1017.01 1212.53 1061.44 1204.18
  C 1088.58 1199.08 1115.33 1191.83 1140.79 1181.04
  C 1254.47 1132.88 1303.25 1005.41 1248.87 893.63
  Q 1248.65 893.17 1248.22 893.46
  C 1131.80 973.36 975.45 891.47 972.46 751.00"
/>
<path stroke="#e39e8a" vector-effect="non-scaling-stroke" d="
  M 794.42 748.65
  A 106.82 106.82 0.0 0 0 687.60 641.83
  A 106.82 106.82 0.0 0 0 580.78 748.65
  A 106.82 106.82 0.0 0 0 687.60 855.47
  A 106.82 106.82 0.0 0 0 794.42 748.65"
/>
<path stroke="#e39e8a" vector-effect="non-scaling-stroke" d="
  M 1255.22 748.65
  A 106.82 106.82 0.0 0 0 1148.40 641.83
  A 106.82 106.82 0.0 0 0 1041.58 748.65
  A 106.82 106.82 0.0 0 0 1148.40 855.47
  A 106.82 106.82 0.0 0 0 1255.22 748.65"
/>
<path stroke="#e39e8a" vector-effect="non-scaling-stroke" d="
  M 331.87 749.66
  A 106.82 106.82 0.0 0 0 225.05 642.84
  A 106.82 106.82 0.0 0 0 118.23 749.66
  A 106.82 106.82 0.0 0 0 225.05 856.48
  A 106.82 106.82 0.0 0 0 331.87 749.66"
/>
</g>
<path fill="#ffffff" d="
  M 1374.81 0.00
  L 1375.56 0.00
  Q 1375.85 0.59 1375.72 0.99
  Q 1278.40 288.14 1181.08 575.24
  A 0.40 0.40 0.0 0 0 1181.38 575.76
  C 1301.97 599.22 1361.74 734.37 1298.95 839.67
  Q 1298.57 840.31 1298.95 840.96
  C 1384.26 984.55 1332.78 1165.61 1181.25 1238.48
  C 1113.54 1271.04 1036.37 1278.75 964.72 1289.27
  Q 898.39 1299.00 835.53 1322.22
  C 718.69 1365.39 615.76 1428.08 502.88 1474.55
  C 432.77 1503.42 358.14 1524.14 281.71 1519.53
  C 227.12 1516.25 174.58 1497.23 128.68 1466.79
  C 39.94 1407.94 2.49 1316.07 0.00 1212.44
  L 0.00 1196.94
  Q 1.96 1103.67 36.95 1015.95
  C 56.45 967.06 74.64 930.65 101.38 875.72
  Q 101.62 875.24 101.27 874.84
  Q 97.59 870.64 93.96 866.57
  Q 60.69 829.24 51.85 780.57
  C 31.07 666.06 127.10 562.57 242.97 574.56
  C 338.40 584.43 408.80 669.26 400.31 765.25
  C 394.22 834.19 348.29 892.35 283.45 915.66
  Q 282.98 915.83 282.78 916.29
  Q 276.58 930.29 274.30 936.55
  C 250.30 1002.66 280.09 1071.85 337.95 1108.32
  Q 338.38 1108.59 338.85 1108.40
  C 443.13 1066.62 531.92 991.29 594.54 898.53
  Q 594.86 898.06 594.38 897.75
  C 461.76 812.42 495.58 613.54 649.02 576.89
  A 0.32 0.31 -16.0 0 0 649.25 576.49
  L 454.34 1.16
  Q 454.04 0.25 454.99 0.25
  C 532.57 0.25 1374.24 1.07 1374.81 0.00
  Z
  M 915.08 237.63
  A 0.36 0.36 0.0 0 1 915.73 237.63
  L 1085.22 583.51
  Q 1085.48 584.04 1086.05 583.87
  L 1107.04 577.37
  Q 1107.45 577.24 1107.58 576.83
  L 1279.54 69.47
  A 0.17 0.17 0.0 0 0 1279.38 69.25
  L 550.85 69.25
  A 0.34 0.34 0.0 0 0 550.53 69.70
  L 721.79 575.28
  Q 721.94 575.73 722.40 575.86
  L 744.52 581.85
  A 0.47 0.46 -69.4 0 0 745.06 581.60
  L 915.08 237.63
  Z
  M 863.79 749.75
  Q 861.89 819.45 815.72 869.09
  C 776.35 911.41 718.90 930.88 661.80 922.75
  Q 661.28 922.67 660.99 923.12
  C 590.62 1033.11 488.52 1122.38 367.01 1171.50
  Q 355.24 1176.25 333.20 1183.96
  Q 332.73 1184.12 332.30 1183.90
  Q 319.84 1177.68 310.71 1172.54
  C 223.66 1123.52 176.34 1023.44 205.27 925.24
  Q 205.46 924.59 204.79 924.51
  Q 181.95 921.76 160.55 913.39
  Q 159.98 913.16 159.71 913.72
  C 135.92 962.60 105.28 1022.14 88.04 1078.60
  Q 65.46 1152.54 70.53 1230.18
  C 74.79 1295.43 99.29 1358.03 152.38 1398.87
  C 197.28 1433.40 251.34 1452.04 308.23 1451.34
  C 380.11 1450.45 450.41 1423.75 514.98 1394.45
  C 616.15 1348.54 710.94 1293.78 817.75 1255.26
  Q 872.97 1235.34 930.74 1224.98
  C 965.19 1218.81 1017.01 1212.53 1061.44 1204.18
  C 1088.58 1199.08 1115.33 1191.83 1140.79 1181.04
  C 1254.47 1132.88 1303.25 1005.41 1248.87 893.63
  Q 1248.65 893.17 1248.22 893.46
  C 1131.80 973.36 975.45 891.47 972.46 751.00
  C 971.94 701.95 991.33 655.87 1026.53 621.85
  A 0.67 0.66 -35.0 0 0 1026.67 621.07
  L 915.40 393.98
  Q 915.15 393.45 914.89 393.98
  L 804.85 616.58
  A 0.78 0.77 35.4 0 0 805.01 617.49
  Q 862.44 670.91 863.79 749.75
  Z
  M 794.42 748.65
  A 106.82 106.82 0.0 0 0 687.60 641.83
  A 106.82 106.82 0.0 0 0 580.78 748.65
  A 106.82 106.82 0.0 0 0 687.60 855.47
  A 106.82 106.82 0.0 0 0 794.42 748.65
  Z
  M 1255.22 748.65
  A 106.82 106.82 0.0 0 0 1148.40 641.83
  A 106.82 106.82 0.0 0 0 1041.58 748.65
  A 106.82 106.82 0.0 0 0 1148.40 855.47
  A 106.82 106.82 0.0 0 0 1255.22 748.65
  Z
  M 331.87 749.66
  A 106.82 106.82 0.0 0 0 225.05 642.84
  A 106.82 106.82 0.0 0 0 118.23 749.66
  A 106.82 106.82 0.0 0 0 225.05 856.48
  A 106.82 106.82 0.0 0 0 331.87 749.66
  Z"
/>
<path fill="#c63d14" d="
  M 915.08 237.63
  L 745.06 581.60
  A 0.47 0.46 -69.4 0 1 744.52 581.85
  L 722.40 575.86
  Q 721.94 575.73 721.79 575.28
  L 550.53 69.70
  A 0.34 0.34 0.0 0 1 550.85 69.25
  L 1279.38 69.25
  A 0.17 0.17 0.0 0 1 1279.54 69.47
  L 1107.58 576.83
  Q 1107.45 577.24 1107.04 577.37
  L 1086.05 583.87
  Q 1085.48 584.04 1085.22 583.51
  L 915.73 237.63
  A 0.36 0.36 0.0 0 0 915.08 237.63
  Z"
/>
<circle fill="#c63d14" cx="687.60" cy="748.65" r="106.82"/>
<circle fill="#c63d14" cx="1148.40" cy="748.65" r="106.82"/>
<circle fill="#c63d14" cx="225.05" cy="749.66" r="106.82"/>
<path fill="#c63d14" d="
  M 863.79 749.75
  Q 905.48 750.30 947.17 750.69
  C 953.26 750.75 964.00 751.44 972.46 751.00
  C 975.45 891.47 1131.80 973.36 1248.22 893.46
  Q 1248.65 893.17 1248.87 893.63
  C 1303.25 1005.41 1254.47 1132.88 1140.79 1181.04
  C 1115.33 1191.83 1088.58 1199.08 1061.44 1204.18
  C 1017.01 1212.53 965.19 1218.81 930.74 1224.98
  Q 872.97 1235.34 817.75 1255.26
  C 710.94 1293.78 616.15 1348.54 514.98 1394.45
  C 450.41 1423.75 380.11 1450.45 308.23 1451.34
  C 251.34 1452.04 197.28 1433.40 152.38 1398.87
  C 99.29 1358.03 74.79 1295.43 70.53 1230.18
  Q 65.46 1152.54 88.04 1078.60
  C 105.28 1022.14 135.92 962.60 159.71 913.72
  Q 159.98 913.16 160.55 913.39
  Q 181.95 921.76 204.79 924.51
  Q 205.46 924.59 205.27 925.24
  C 176.34 1023.44 223.66 1123.52 310.71 1172.54
  Q 319.84 1177.68 332.30 1183.90
  Q 332.73 1184.12 333.20 1183.96
  Q 355.24 1176.25 367.01 1171.50
  C 488.52 1122.38 590.62 1033.11 660.99 923.12
  Q 661.28 922.67 661.80 922.75
  C 718.90 930.88 776.35 911.41 815.72 869.09
  Q 861.89 819.45 863.79 749.75
  Z"
/>
</svg>
