<svg version="1.2" xmlns="http://www.w3.org/2000/svg" viewBox="0 0 800 800" width="40" height="40">
	<title>Linkedin_64x64-svg</title>
	<style>
		.s0 { fill: #ffffff } 
	</style>
	<path id="Path 0" fill-rule="evenodd" class="s0" d="m741 0l8.3 3.1c4.5 1.7 11.1 4.7 14.7 6.6 4 2.3 9.8 7 15 12.2 5.2 5.2 9.8 11 11.7 14.6 1.7 3.3 4.5 9.9 9.3 23.5v679.5l-2.8 8.5c-1.6 4.7-4.4 11.4-6.2 15-2.3 4.6-6 9.2-12.4 15.5-6.3 6.3-11.2 10.2-16.1 12.7-3.9 2-10.6 4.8-23 8.8h-680l-7.5-2.6c-4.1-1.4-10.6-4.2-14.5-6.2-4.8-2.5-9.8-6.4-16.1-12.7-6.5-6.4-10.1-10.9-12.4-15.5-1.8-3.6-4.6-10.3-9-23.5v-679l2.6-8c1.4-4.4 4.1-10.9 5.9-14.5 1.8-3.6 5.7-9.2 8.7-12.5 3-3.3 8.3-8.2 11.9-10.9 3.5-2.7 9.1-6.2 12.4-7.7 3.3-1.5 9.4-3.7 13.5-4.8 7.4-2 11.4-2 686-2.1zm-596.5 97.9c-5.5 2.7-13 7.5-16.7 10.5-3.8 3.1-9 8.4-11.7 11.8-2.7 3.5-7 10.1-9.4 14.8-2.5 4.7-5.5 12.1-6.7 16.5-2 7.2-2.2 9.7-1.8 24.5 0.4 14.9 0.8 17.2 3.3 24 1.5 4.1 4.3 10.7 6.3 14.5 2.7 5.2 6.4 9.8 14.2 17.6 6.9 7 12.6 11.7 16.5 13.8 3.3 1.7 9.9 4.7 14.8 6.6 5.7 2.3 11.9 3.9 18 4.6 6.8 0.8 11.8 0.8 19.2 0 5.5-0.7 12.5-1.9 15.5-2.8 3-0.8 8.2-2.9 11.5-4.5 3.3-1.7 8.9-5 12.5-7.3 3.6-2.3 9.4-7.4 13-11.3 3.6-3.8 8.3-10 10.6-13.8 2.2-3.8 5.3-10.1 6.9-13.9 1.5-3.8 3.4-10.2 4.2-14 1.1-4.9 1.4-10.7 1-19.5-0.4-9.9-1-14.3-3.2-21-1.5-4.7-4.3-11.4-6.2-15-2-3.6-5.5-9-7.8-12-2.3-3-7.1-8.2-10.7-11.5-3.6-3.3-9.8-7.8-13.9-10-4.1-2.2-9.4-4.8-11.9-5.9-2.5-1-6.7-2.5-9.5-3.3-2.7-0.8-11.1-1.6-18.5-1.9-11.2-0.3-14.8-0.1-21.5 1.6-4.4 1.1-12.5 4.3-18 6.9zm377 194.2c-6 1.2-14.8 3.5-19.5 5.1-4.7 1.7-11.2 4.4-14.5 6-3.3 1.7-8.9 4.9-12.5 7.3-3.6 2.3-9.9 7.1-14 10.7-4.1 3.6-10.4 10.2-14 14.7-3.6 4.5-6.9 7.8-7.3 7.4-0.4-0.5-1.1-8.7-1.5-18.3-0.5-9.6-1.3-18.4-1.9-19.5-0.6-1.1-3-3.8-5.4-6.1l-4.4-4.1c-96.2-0.9-103.4-0.8-106 0.5-1.6 0.8-4.3 2.5-5.8 3.6-1.6 1.2-3.7 3.5-4.7 5.1-1.9 2.9-1.9 8.5-2 198.5v195.5c5 6.8 7.9 9.6 9.5 10.6 2.8 1.7 6.2 1.8 54.3 1.9 40.3 0 51.9-0.3 54.5-1.3 1.7-0.8 4.9-3.3 7-5.8 2.5-2.9 3.9-5.7 4.2-8.4 0.3-2.2 0.7-51.2 1-109 0.3-99.5 0.5-105.5 2.3-114.5 1.1-5.2 3.2-13 4.6-17.2 1.4-4.3 4.3-11.3 6.5-15.5 2.1-4.3 5.9-10.5 8.4-13.8 2.4-3.3 6.4-7.6 8.8-9.6 2.4-2 7.3-5.2 10.9-7.2 3.6-2 9.2-4.4 12.5-5.3 4.6-1.4 9.3-1.8 20.5-1.8 12.9 0.1 15.4 0.4 22.5 2.7 4.4 1.4 10 3.9 12.5 5.5 2.5 1.5 6.3 4.4 8.4 6.3 2.2 1.9 6.1 6.5 8.8 10.4 2.7 3.9 6.2 10.4 7.7 14.5 1.6 4.1 4 12.2 5.4 18l2.5 10.5 1.2 228c3.5 5.3 6.3 8.4 8.5 10.2l4 3.4c101.3-0.6 108.4-0.8 111-2.2 1.6-0.9 4.5-3.6 6.3-6l3.2-4.4c0-182.4-0.4-234.5-1-243.3-0.6-8.1-2-21.4-3.1-29.7-1.1-8.2-3.6-21.1-5.5-28.5-1.9-7.4-5.1-17.5-7-22.5-2-4.9-5.9-13.3-8.6-18.5-2.8-5.2-7.4-12.6-10.3-16.5-2.9-3.9-8.3-10.1-12.1-13.9-3.8-3.7-9.6-8.7-12.9-11.1-3.3-2.4-9.1-6.1-13-8.3-3.9-2.3-11.3-5.7-16.5-7.7-5.2-2-14.7-4.8-21-6.2-10.4-2.2-14.1-2.5-38.5-2.8-14.9-0.2-28.4-0.1-30 0.1-1.6 0.3-8 1.4-14 2.5zm-400.9 11.2l-3.1 3.9c-1.3 52.9-1.5 140.5-1.2 228.8l0.3 160.5c3.5 6.2 6.6 9.5 9.2 11.2l4.7 3.3c73.6-0.1 97.3-0.5 100.2-0.8 4.3-0.6 6-1.4 9.3-4.7 3-2.9 4.4-5.3 5-8.5 0.6-2.7 1-82.6 1-196.8v-192.2c-3.8-5.8-6.7-8.7-8.9-10.2l-4.1-2.8c-101.4 0-101.5 0-105.4 2.3-2.2 1.2-5.3 3.9-7 6z"/>
</svg>