<?xml version="1.0" encoding="UTF-8" standalone="no"?>
<!DOCTYPE svg PUBLIC "-//W3C//DTD SVG 1.1//EN" "http://www.w3.org/Graphics/SVG/1.1/DTD/svg11.dtd">
<svg xmlns="http://www.w3.org/2000/svg" version="1.1" viewBox="0.00 0.00 305.00 299.00">
<g stroke-width="2.00" fill="none" stroke-linecap="butt">
<path stroke="#305e98" vector-effect="non-scaling-stroke" d="
  M 280.75 23.33
  A 0.58 0.58 0.0 0 0 280.17 22.75
  L 24.83 22.75
  A 0.58 0.58 0.0 0 0 24.25 23.33
  L 24.25 274.67
  A 0.58 0.58 0.0 0 0 24.83 275.25
  L 280.17 275.25
  A 0.58 0.58 0.0 0 0 280.75 274.67
  L 280.75 23.33"
/>
<path stroke="#305e98" vector-effect="non-scaling-stroke" d="
  M 100.15 167.04
  Q 104.22 166.90 113.67 166.35
  C 132.45 165.25 150.69 153.05 154.99 133.75
  C 161.40 104.94 143.43 83.94 114.43 83.32
  Q 98.60 82.99 74.17 83.61
  Q 73.75 83.62 73.75 84.04
  L 73.75 206.00
  Q 73.75 206.50 74.25 206.50
  L 99.00 206.50
  Q 99.50 206.50 99.50 206.00
  L 99.50 167.71
  Q 99.50 167.06 100.15 167.04"
/>
<path stroke="#305e98" vector-effect="non-scaling-stroke" d="
  M 192.25 140.25
  C 190.51 134.67 195.75 131.21 200.76 131.03
  C 209.64 130.72 218.03 133.92 225.86 137.86
  Q 226.48 138.18 226.48 137.48
  L 226.38 118.05
  Q 226.38 117.59 225.98 117.38
  C 212.01 110.19 193.46 108.72 179.52 116.55
  C 169.88 121.97 163.73 133.20 165.08 143.95
  C 166.26 153.43 174.12 159.23 182.28 162.69
  C 188.33 165.27 196.77 167.40 201.27 172.19
  C 205.72 176.92 205.04 184.67 197.93 186.41
  C 188.26 188.77 175.14 184.01 166.76 179.35
  A 0.37 0.37 0.0 0 0 166.22 179.68
  L 166.27 198.84
  Q 166.27 199.35 166.72 199.60
  Q 184.52 209.42 204.35 206.19
  C 219.69 203.70 231.50 193.00 231.19 176.95
  C 231.00 167.51 226.90 159.75 218.94 154.80
  C 210.56 149.59 194.09 146.14 192.25 140.25"
/>
<path stroke="#305e98" vector-effect="non-scaling-stroke" d="
  M 99.49 102.94
  L 99.49 144.80
  A 0.40 0.40 0.0 0 0 99.89 145.20
  L 109.91 145.20
  A 20.60 20.27 0.0 0 0 130.51 124.93
  L 130.51 122.81
  A 20.60 20.27 0.0 0 0 109.91 102.54
  L 99.89 102.54
  A 0.40 0.40 0.0 0 0 99.49 102.94"
/>
</g>
<path fill="#5bbbfd" d="
  M 0.00 0.00
  L 305.00 0.00
  L 305.00 299.00
  L 0.00 299.00
  L 0.00 0.00
  Z
  M 280.75 23.33
  A 0.58 0.58 0.0 0 0 280.17 22.75
  L 24.83 22.75
  A 0.58 0.58 0.0 0 0 24.25 23.33
  L 24.25 274.67
  A 0.58 0.58 0.0 0 0 24.83 275.25
  L 280.17 275.25
  A 0.58 0.58 0.0 0 0 280.75 274.67
  L 280.75 23.33
  Z"
/>
<path fill="#040033" d="
  M 280.75 274.67
  A 0.58 0.58 0.0 0 1 280.17 275.25
  L 24.83 275.25
  A 0.58 0.58 0.0 0 1 24.25 274.67
  L 24.25 23.33
  A 0.58 0.58 0.0 0 1 24.83 22.75
  L 280.17 22.75
  A 0.58 0.58 0.0 0 1 280.75 23.33
  L 280.75 274.67
  Z
  M 100.15 167.04
  Q 104.22 166.90 113.67 166.35
  C 132.45 165.25 150.69 153.05 154.99 133.75
  C 161.40 104.94 143.43 83.94 114.43 83.32
  Q 98.60 82.99 74.17 83.61
  Q 73.75 83.62 73.75 84.04
  L 73.75 206.00
  Q 73.75 206.50 74.25 206.50
  L 99.00 206.50
  Q 99.50 206.50 99.50 206.00
  L 99.50 167.71
  Q 99.50 167.06 100.15 167.04
  Z
  M 192.25 140.25
  C 190.51 134.67 195.75 131.21 200.76 131.03
  C 209.64 130.72 218.03 133.92 225.86 137.86
  Q 226.48 138.18 226.48 137.48
  L 226.38 118.05
  Q 226.38 117.59 225.98 117.38
  C 212.01 110.19 193.46 108.72 179.52 116.55
  C 169.88 121.97 163.73 133.20 165.08 143.95
  C 166.26 153.43 174.12 159.23 182.28 162.69
  C 188.33 165.27 196.77 167.40 201.27 172.19
  C 205.72 176.92 205.04 184.67 197.93 186.41
  C 188.26 188.77 175.14 184.01 166.76 179.35
  A 0.37 0.37 0.0 0 0 166.22 179.68
  L 166.27 198.84
  Q 166.27 199.35 166.72 199.60
  Q 184.52 209.42 204.35 206.19
  C 219.69 203.70 231.50 193.00 231.19 176.95
  C 231.00 167.51 226.90 159.75 218.94 154.80
  C 210.56 149.59 194.09 146.14 192.25 140.25
  Z"
/>
<path fill="#5bbbfd" d="
  M 99.50 167.71
  L 99.50 206.00
  Q 99.50 206.50 99.00 206.50
  L 74.25 206.50
  Q 73.75 206.50 73.75 206.00
  L 73.75 84.04
  Q 73.75 83.62 74.17 83.61
  Q 98.60 82.99 114.43 83.32
  C 143.43 83.94 161.40 104.94 154.99 133.75
  C 150.69 153.05 132.45 165.25 113.67 166.35
  Q 104.22 166.90 100.15 167.04
  Q 99.50 167.06 99.50 167.71
  Z
  M 99.49 102.94
  L 99.49 144.80
  A 0.40 0.40 0.0 0 0 99.89 145.20
  L 109.91 145.20
  A 20.60 20.27 0.0 0 0 130.51 124.93
  L 130.51 122.81
  A 20.60 20.27 0.0 0 0 109.91 102.54
  L 99.89 102.54
  A 0.40 0.40 0.0 0 0 99.49 102.94
  Z"
/>
<path fill="#040033" d="
  M 99.49 102.94
  A 0.40 0.40 0.0 0 1 99.89 102.54
  L 109.91 102.54
  A 20.60 20.27 0.0 0 1 130.51 122.81
  L 130.51 124.93
  A 20.60 20.27 -0.0 0 1 109.91 145.20
  L 99.89 145.20
  A 0.40 0.40 0.0 0 1 99.49 144.80
  L 99.49 102.94
  Z"
/>
<path fill="#5bbbfd" d="
  M 192.25 140.25
  C 194.09 146.14 210.56 149.59 218.94 154.80
  C 226.90 159.75 231.00 167.51 231.19 176.95
  C 231.50 193.00 219.69 203.70 204.35 206.19
  Q 184.52 209.42 166.72 199.60
  Q 166.27 199.35 166.27 198.84
  L 166.22 179.68
  A 0.37 0.37 0.0 0 1 166.76 179.35
  C 175.14 184.01 188.26 188.77 197.93 186.41
  C 205.04 184.67 205.72 176.92 201.27 172.19
  C 196.77 167.40 188.33 165.27 182.28 162.69
  C 174.12 159.23 166.26 153.43 165.08 143.95
  C 163.73 133.20 169.88 121.97 179.52 116.55
  C 193.46 108.72 212.01 110.19 225.98 117.38
  Q 226.38 117.59 226.38 118.05
  L 226.48 137.48
  Q 226.48 138.18 225.86 137.86
  C 218.03 133.92 209.64 130.72 200.76 131.03
  C 195.75 131.21 190.51 134.67 192.25 140.25
  Z"
/>
</svg>
