<?xml version="1.0" encoding="UTF-8" standalone="no"?>
<!DOCTYPE svg PUBLIC "-//W3C//DTD SVG 1.1//EN" "http://www.w3.org/Graphics/SVG/1.1/DTD/svg11.dtd">
<svg xmlns="http://www.w3.org/2000/svg" version="1.1" viewBox="0.00 0.00 1200.00 1238.00">
<g stroke-width="2.00" fill="none" stroke-linecap="butt">
<path stroke="#808080" vector-effect="non-scaling-stroke" d="
  M 580.14 861.77
  A 0.54 0.54 0.0 0 1 581.04 862.17
  Q 580.84 913.62 582.15 962.69
  C 583.25 1003.99 585.34 1045.60 591.60 1086.48
  C 594.74 1107.06 602.68 1125.98 613.14 1143.83
  C 642.89 1194.57 691.30 1212.24 749.07 1202.36
  C 775.90 1197.77 803.80 1189.63 827.58 1176.09
  C 870.15 1151.85 889.56 1110.04 897.50 1063.49
  C 909.66 992.12 917.97 919.75 925.94 847.65
  A 0.44 0.44 0.0 0 1 926.50 847.27
  Q 947.98 853.06 970.50 853.14
  Q 1013.57 853.29 1055.12 842.66
  C 1086.47 834.64 1115.99 818.28 1140.66 797.38
  C 1154.62 785.56 1174.38 763.54 1160.93 743.99
  C 1153.14 732.68 1136.23 731.17 1124.06 733.06
  Q 1116.84 734.19 1088.17 739.31
  C 1063.44 743.72 1037.44 745.25 1013.09 741.81
  Q 1000.10 739.98 988.94 733.59
  A 0.70 0.70 0.0 0 1 988.70 732.61
  Q 1074.03 601.13 1121.95 451.95
  Q 1136.95 405.25 1146.99 357.25
  C 1155.92 314.56 1162.33 265.53 1157.96 219.51
  C 1155.79 196.62 1149.83 174.01 1135.38 155.83
  C 1041.46 37.62 893.78 14.05 753.24 46.14
  Q 734.19 50.49 715.65 56.70
  Q 714.35 57.13 712.99 56.81
  C 635.26 38.20 548.59 40.84 480.11 86.73
  A 1.52 1.51 -51.9 0 1 478.75 86.90
  C 357.60 43.32 165.76 11.67 79.15 140.10
  C 39.68 198.63 31.88 274.09 36.01 342.78
  Q 36.55 351.78 38.00 362.67
  Q 42.60 397.23 50.24 435.75
  C 68.26 526.55 91.69 615.45 123.40 701.04
  Q 138.67 742.25 158.62 781.41
  C 179.83 823.05 219.13 887.77 273.81 885.43
  C 303.37 884.17 324.74 864.32 342.76 842.90
  Q 387.45 789.79 434.82 739.00
  Q 435.16 738.62 435.61 738.86
  Q 466.89 755.65 502.52 757.04
  A 1.30 1.29 -69.6 0 1 503.48 759.14
  Q 494.46 770.52 485.36 781.58
  C 480.65 787.31 475.81 792.34 469.97 795.26
  C 452.74 803.90 430.64 807.46 411.15 812.01
  C 398.12 815.06 383.45 819.54 373.26 828.47
  C 360.13 839.98 359.18 856.47 369.89 869.62
  C 380.42 882.55 399.13 890.70 414.74 894.77
  C 472.90 909.92 534.53 902.85 580.14 861.77"
/>
<path stroke="#99b3c8" vector-effect="non-scaling-stroke" d="
  M 991.93 344.40
  Q 991.76 347.88 991.77 352.75
  C 991.82 378.29 987.14 405.27 983.33 431.22
  Q 977.89 468.29 982.28 505.58
  C 985.26 530.85 988.66 556.30 989.51 581.74
  C 990.79 620.68 982.95 658.58 962.53 692.59
  Q 962.25 693.05 962.59 693.48
  L 967.79 699.99
  Q 968.23 700.53 968.59 699.95
  C 1034.35 595.18 1085.60 477.27 1111.86 356.07
  C 1120.38 316.73 1125.94 276.66 1124.64 236.31
  C 1124.06 218.58 1121.06 193.84 1109.80 179.34
  Q 1055.67 109.60 970.82 82.94
  C 906.56 62.74 839.72 64.38 774.28 76.85
  Q 773.34 77.03 774.21 77.42
  C 859.71 115.94 924.68 184.42 966.93 267.32
  Q 978.76 290.53 987.34 316.68
  C 990.44 326.13 992.40 334.69 991.93 344.40"
/>
<path stroke="#99b3c8" vector-effect="non-scaling-stroke" d="
  M 815.79 477.24
  C 806.97 447.64 801.84 413.12 811.35 383.43
  C 830.68 323.09 899.17 316.73 952.10 322.65
  Q 953.14 322.77 952.78 321.79
  C 928.12 254.68 883.88 192.82 827.20 149.04
  C 766.98 102.53 694.35 79.95 618.25 80.91
  C 549.94 81.78 491.00 107.83 449.98 163.26
  C 409.06 218.54 390.83 290.98 385.34 358.22
  Q 385.30 358.73 385.75 358.49
  C 434.90 331.80 518.72 304.99 564.20 354.24
  C 574.82 365.75 582.45 381.17 586.08 396.43
  Q 597.69 445.21 600.53 496.51
  C 603.07 542.33 596.93 586.26 580.01 628.70
  Q 578.29 633.01 572.04 647.05
  C 560.12 673.80 548.61 702.02 541.05 730.35
  A 0.32 0.31 -88.8 0 0 541.42 730.74
  C 553.95 727.83 566.01 730.47 577.54 735.84
  C 598.29 745.50 611.98 767.28 616.01 789.30
  Q 617.04 794.93 616.81 803.32
  C 614.66 882.36 614.75 962.06 620.93 1040.93
  Q 622.14 1056.39 624.24 1071.75
  C 626.85 1090.80 630.73 1102.85 639.42 1120.07
  C 658.72 1158.31 691.39 1174.94 734.25 1169.51
  C 758.87 1166.40 785.12 1159.51 807.44 1147.69
  C 848.52 1125.93 859.69 1085.14 866.03 1042.50
  Q 882.22 933.49 893.59 823.88
  C 894.51 815.01 894.47 805.93 894.84 796.26
  C 896.17 762.09 912.82 738.31 945.90 729.08
  A 0.32 0.32 0.0 0 0 946.06 728.58
  Q 937.65 717.89 929.39 707.13
  C 917.41 691.51 907.65 675.48 899.75 657.58
  Q 898.19 654.06 896.92 651.64
  C 886.24 631.25 874.93 611.22 864.05 590.95
  C 844.50 554.55 827.59 516.90 815.79 477.24"
/>
<path stroke="#99b3c8" vector-effect="non-scaling-stroke" d="
  M 349.26 383.51
  C 352.61 287.09 378.23 184.53 447.41 113.35
  Q 447.78 112.97 447.28 112.80
  C 395.93 95.86 341.89 84.98 287.75 83.59
  C 248.37 82.58 208.31 87.89 173.77 103.77
  C 86.13 144.08 67.33 239.87 69.78 326.44
  C 70.66 357.68 76.71 390.63 82.47 420.50
  Q 102.08 522.21 132.59 621.18
  C 149.64 676.48 170.26 732.31 198.69 782.87
  C 214.17 810.41 252.02 869.66 290.59 844.82
  Q 302.37 837.23 309.49 828.71
  Q 356.18 772.84 405.77 719.33
  Q 406.15 718.93 405.74 718.56
  C 364.10 681.73 342.22 629.33 344.86 573.90
  C 345.68 556.64 348.74 539.00 349.99 522.21
  C 352.96 482.48 351.69 446.73 349.51 403.49
  Q 348.95 392.42 349.26 383.51"
/>
<path stroke="#99b3c8" vector-effect="non-scaling-stroke" d="
  M 945.75 463.75
  C 947.06 435.87 951.47 409.98 955.27 383.25
  Q 956.57 374.08 956.94 358.57
  Q 956.95 358.09 956.47 358.03
  C 923.22 353.81 862.56 350.08 846.23 389.14
  C 838.57 407.45 840.12 429.45 844.21 448.72
  C 846.64 460.19 850.51 474.69 854.78 486.45
  C 871.83 533.42 896.39 578.81 920.39 622.04
  C 927.14 634.19 932.58 645.81 938.24 657.98
  Q 938.73 659.03 939.87 660.80
  Q 940.15 661.23 940.36 660.76
  C 955.07 628.61 957.05 594.36 953.62 560.18
  Q 951.55 539.51 947.47 501.23
  Q 945.06 478.54 945.75 463.75"
/>
<path stroke="#99b3c8" vector-effect="non-scaling-stroke" d="
  M 386.51 473.50
  C 386.61 505.05 383.93 532.90 380.66 561.87
  Q 379.24 574.48 379.22 581.79
  C 379.04 653.30 431.07 721.25 506.57 722.52
  A 0.69 0.68 7.8 0 0 507.23 722.03
  Q 515.73 693.46 526.48 665.98
  C 533.03 649.21 542.84 628.22 547.97 615.45
  C 574.70 548.79 568.29 478.75 553.93 410.21
  C 548.48 384.23 534.43 365.54 506.46 362.30
  Q 488.92 360.27 471.56 363.59
  C 441.60 369.32 410.02 381.60 385.38 399.87
  Q 383.79 401.05 383.94 403.25
  Q 386.40 437.34 386.51 473.50"
/>
<path stroke="#99b3c8" vector-effect="non-scaling-stroke" d="
  M 1030.00 778.25
  C 1008.56 777.81 984.08 773.15 966.51 759.75
  Q 966.11 759.44 965.62 759.55
  C 951.64 762.80 937.46 766.58 932.71 780.25
  Q 927.88 794.13 929.56 810.45
  Q 929.61 810.95 930.05 811.19
  Q 936.21 814.61 943.25 815.84
  C 973.12 821.04 1004.66 818.06 1034.16 812.01
  Q 1083.10 801.98 1120.49 769.08
  A 0.22 0.21 -71.1 0 0 1120.31 768.70
  C 1090.67 775.03 1060.37 778.87 1030.00 778.25"
/>
<path stroke="#99b3c8" vector-effect="non-scaling-stroke" d="
  M 513.46 801.95
  C 499.58 819.26 484.30 828.90 463.01 835.03
  Q 446.20 839.87 425.66 844.21
  C 416.43 846.16 409.34 848.10 401.47 851.19
  A 0.37 0.36 50.5 0 0 401.41 851.84
  Q 410.39 857.42 420.37 860.25
  C 478.54 876.78 537.80 866.46 575.59 815.89
  Q 579.74 810.33 580.92 806.95
  C 586.29 791.51 573.76 770.31 558.66 765.42
  C 551.56 763.12 547.63 763.92 542.16 768.70
  C 531.54 777.98 522.29 790.92 513.46 801.95"
/>
<path stroke="#99b3c8" vector-effect="non-scaling-stroke" d="
  M 878.93 403.93
  C 896.62 413.76 918.05 403.53 924.49 385.15
  C 926.50 379.42 920.94 374.90 915.91 373.78
  Q 895.00 369.12 875.73 378.23
  C 859.43 385.95 868.32 398.03 878.93 403.93"
/>
<path stroke="#99b3c8" vector-effect="non-scaling-stroke" d="
  M 508.79 381.59
  C 499.34 380.29 476.79 379.29 473.82 392.04
  C 472.79 396.50 474.96 401.28 477.50 405.00
  C 486.67 418.44 502.68 426.20 518.75 420.24
  C 527.93 416.84 544.10 404.66 534.71 393.12
  C 529.34 386.52 517.13 382.74 508.79 381.59"
/>
</g>
<path fill="#000000" d="
  M 856.56 0.00
  L 873.06 0.00
  Q 894.12 0.84 900.69 1.33
  C 1002.62 8.90 1092.49 51.00 1158.11 129.33
  Q 1165.75 138.45 1170.16 145.26
  C 1192.27 179.43 1196.49 223.77 1194.94 263.44
  C 1192.82 317.67 1182.44 371.52 1167.81 423.70
  Q 1125.35 575.08 1045.32 710.44
  A 0.36 0.36 0.0 0 0 1045.65 710.99
  Q 1067.15 709.78 1088.40 705.95
  Q 1106.90 702.62 1118.99 700.73
  C 1155.22 695.06 1192.19 710.07 1200.00 748.81
  L 1200.00 771.06
  C 1195.70 792.10 1182.77 808.90 1166.89 822.89
  C 1136.84 849.34 1099.61 869.71 1060.52 879.11
  Q 1013.21 890.49 964.56 889.30
  C 961.18 889.22 956.34 888.55 952.20 888.47
  Q 951.63 888.46 951.55 889.03
  C 950.64 895.24 949.73 901.96 949.54 908.14
  C 948.10 955.49 944.18 1005.22 933.96 1052.99
  C 920.11 1117.80 890.77 1177.89 829.05 1209.04
  C 805.63 1220.86 779.14 1228.10 753.31 1233.06
  C 729.93 1237.55 706.56 1239.21 683.89 1234.55
  C 632.61 1224.01 600.74 1190.00 582.84 1141.35
  Q 575.76 1122.11 570.13 1102.41
  C 563.28 1078.47 560.44 1052.21 558.65 1027.43
  Q 554.88 975.04 554.01 922.51
  Q 554.00 921.95 553.48 922.17
  C 506.83 941.77 455.95 942.73 407.34 930.15
  C 384.01 924.11 360.70 912.48 344.66 894.19
  Q 344.28 893.75 343.82 894.11
  C 319.67 913.15 292.30 924.96 261.02 921.23
  C 210.68 915.23 174.55 875.57 149.24 835.00
  C 119.13 786.71 96.70 731.33 79.27 679.24
  Q 30.48 533.46 6.57 383.69
  C 0.45 345.32 0.10 305.23 3.64 266.69
  C 7.80 221.24 19.92 173.86 43.75 134.36
  C 134.45 -15.99 333.10 3.91 473.29 51.25
  C 474.21 51.56 475.50 51.10 476.44 50.55
  C 518.81 26.07 566.34 14.32 615.20 13.51
  Q 665.77 12.68 715.69 20.78
  C 717.93 21.14 719.73 21.17 722.02 20.52
  Q 773.83 5.70 827.57 1.57
  Q 834.51 1.03 856.56 0.00
  Z
  M 580.14 861.77
  A 0.54 0.54 0.0 0 1 581.04 862.17
  Q 580.84 913.62 582.15 962.69
  C 583.25 1003.99 585.34 1045.60 591.60 1086.48
  C 594.74 1107.06 602.68 1125.98 613.14 1143.83
  C 642.89 1194.57 691.30 1212.24 749.07 1202.36
  C 775.90 1197.77 803.80 1189.63 827.58 1176.09
  C 870.15 1151.85 889.56 1110.04 897.50 1063.49
  C 909.66 992.12 917.97 919.75 925.94 847.65
  A 0.44 0.44 0.0 0 1 926.50 847.27
  Q 947.98 853.06 970.50 853.14
  Q 1013.57 853.29 1055.12 842.66
  C 1086.47 834.64 1115.99 818.28 1140.66 797.38
  C 1154.62 785.56 1174.38 763.54 1160.93 743.99
  C 1153.14 732.68 1136.23 731.17 1124.06 733.06
  Q 1116.84 734.19 1088.17 739.31
  C 1063.44 743.72 1037.44 745.25 1013.09 741.81
  Q 1000.10 739.98 988.94 733.59
  A 0.70 0.70 0.0 0 1 988.70 732.61
  Q 1074.03 601.13 1121.95 451.95
  Q 1136.95 405.25 1146.99 357.25
  C 1155.92 314.56 1162.33 265.53 1157.96 219.51
  C 1155.79 196.62 1149.83 174.01 1135.38 155.83
  C 1041.46 37.62 893.78 14.05 753.24 46.14
  Q 734.19 50.49 715.65 56.70
  Q 714.35 57.13 712.99 56.81
  C 635.26 38.20 548.59 40.84 480.11 86.73
  A 1.52 1.51 -51.9 0 1 478.75 86.90
  C 357.60 43.32 165.76 11.67 79.15 140.10
  C 39.68 198.63 31.88 274.09 36.01 342.78
  Q 36.55 351.78 38.00 362.67
  Q 42.60 397.23 50.24 435.75
  C 68.26 526.55 91.69 615.45 123.40 701.04
  Q 138.67 742.25 158.62 781.41
  C 179.83 823.05 219.13 887.77 273.81 885.43
  C 303.37 884.17 324.74 864.32 342.76 842.90
  Q 387.45 789.79 434.82 739.00
  Q 435.16 738.62 435.61 738.86
  Q 466.89 755.65 502.52 757.04
  A 1.30 1.29 -69.6 0 1 503.48 759.14
  Q 494.46 770.52 485.36 781.58
  C 480.65 787.31 475.81 792.34 469.97 795.26
  C 452.74 803.90 430.64 807.46 411.15 812.01
  C 398.12 815.06 383.45 819.54 373.26 828.47
  C 360.13 839.98 359.18 856.47 369.89 869.62
  C 380.42 882.55 399.13 890.70 414.74 894.77
  C 472.90 909.92 534.53 902.85 580.14 861.77
  Z"
/>
<path fill="#ffffff" d="
  M 580.14 861.77
  C 534.53 902.85 472.90 909.92 414.74 894.77
  C 399.13 890.70 380.42 882.55 369.89 869.62
  C 359.18 856.47 360.13 839.98 373.26 828.47
  C 383.45 819.54 398.12 815.06 411.15 812.01
  C 430.64 807.46 452.74 803.90 469.97 795.26
  C 475.81 792.34 480.65 787.31 485.36 781.58
  Q 494.46 770.52 503.48 759.14
  A 1.30 1.29 -69.6 0 0 502.52 757.04
  Q 466.89 755.65 435.61 738.86
  Q 435.16 738.62 434.82 739.00
  Q 387.45 789.79 342.76 842.90
  C 324.74 864.32 303.37 884.17 273.81 885.43
  C 219.13 887.77 179.83 823.05 158.62 781.41
  Q 138.67 742.25 123.40 701.04
  C 91.69 615.45 68.26 526.55 50.24 435.75
  Q 42.60 397.23 38.00 362.67
  Q 36.55 351.78 36.01 342.78
  C 31.88 274.09 39.68 198.63 79.15 140.10
  C 165.76 11.67 357.60 43.32 478.75 86.90
  A 1.52 1.51 -51.9 0 0 480.11 86.73
  C 548.59 40.84 635.26 38.20 712.99 56.81
  Q 714.35 57.13 715.65 56.70
  Q 734.19 50.49 753.24 46.14
  C 893.78 14.05 1041.46 37.62 1135.38 155.83
  C 1149.83 174.01 1155.79 196.62 1157.96 219.51
  C 1162.33 265.53 1155.92 314.56 1146.99 357.25
  Q 1136.95 405.25 1121.95 451.95
  Q 1074.03 601.13 988.70 732.61
  A 0.70 0.70 0.0 0 0 988.94 733.59
  Q 1000.10 739.98 1013.09 741.81
  C 1037.44 745.25 1063.44 743.72 1088.17 739.31
  Q 1116.84 734.19 1124.06 733.06
  C 1136.23 731.17 1153.14 732.68 1160.93 743.99
  C 1174.38 763.54 1154.62 785.56 1140.66 797.38
  C 1115.99 818.28 1086.47 834.64 1055.12 842.66
  Q 1013.57 853.29 970.50 853.14
  Q 947.98 853.06 926.50 847.27
  A 0.44 0.44 0.0 0 0 925.94 847.65
  C 917.97 919.75 909.66 992.12 897.50 1063.49
  C 889.56 1110.04 870.15 1151.85 827.58 1176.09
  C 803.80 1189.63 775.90 1197.77 749.07 1202.36
  C 691.30 1212.24 642.89 1194.57 613.14 1143.83
  C 602.68 1125.98 594.74 1107.06 591.60 1086.48
  C 585.34 1045.60 583.25 1003.99 582.15 962.69
  Q 580.84 913.62 581.04 862.17
  A 0.54 0.54 0.0 0 0 580.14 861.77
  Z
  M 991.93 344.40
  Q 991.76 347.88 991.77 352.75
  C 991.82 378.29 987.14 405.27 983.33 431.22
  Q 977.89 468.29 982.28 505.58
  C 985.26 530.85 988.66 556.30 989.51 581.74
  C 990.79 620.68 982.95 658.58 962.53 692.59
  Q 962.25 693.05 962.59 693.48
  L 967.79 699.99
  Q 968.23 700.53 968.59 699.95
  C 1034.35 595.18 1085.60 477.27 1111.86 356.07
  C 1120.38 316.73 1125.94 276.66 1124.64 236.31
  C 1124.06 218.58 1121.06 193.84 1109.80 179.34
  Q 1055.67 109.60 970.82 82.94
  C 906.56 62.74 839.72 64.38 774.28 76.85
  Q 773.34 77.03 774.21 77.42
  C 859.71 115.94 924.68 184.42 966.93 267.32
  Q 978.76 290.53 987.34 316.68
  C 990.44 326.13 992.40 334.69 991.93 344.40
  Z
  M 815.79 477.24
  C 806.97 447.64 801.84 413.12 811.35 383.43
  C 830.68 323.09 899.17 316.73 952.10 322.65
  Q 953.14 322.77 952.78 321.79
  C 928.12 254.68 883.88 192.82 827.20 149.04
  C 766.98 102.53 694.35 79.95 618.25 80.91
  C 549.94 81.78 491.00 107.83 449.98 163.26
  C 409.06 218.54 390.83 290.98 385.34 358.22
  Q 385.30 358.73 385.75 358.49
  C 434.90 331.80 518.72 304.99 564.20 354.24
  C 574.82 365.75 582.45 381.17 586.08 396.43
  Q 597.69 445.21 600.53 496.51
  C 603.07 542.33 596.93 586.26 580.01 628.70
  Q 578.29 633.01 572.04 647.05
  C 560.12 673.80 548.61 702.02 541.05 730.35
  A 0.32 0.31 -88.8 0 0 541.42 730.74
  C 553.95 727.83 566.01 730.47 577.54 735.84
  C 598.29 745.50 611.98 767.28 616.01 789.30
  Q 617.04 794.93 616.81 803.32
  C 614.66 882.36 614.75 962.06 620.93 1040.93
  Q 622.14 1056.39 624.24 1071.75
  C 626.85 1090.80 630.73 1102.85 639.42 1120.07
  C 658.72 1158.31 691.39 1174.94 734.25 1169.51
  C 758.87 1166.40 785.12 1159.51 807.44 1147.69
  C 848.52 1125.93 859.69 1085.14 866.03 1042.50
  Q 882.22 933.49 893.59 823.88
  C 894.51 815.01 894.47 805.93 894.84 796.26
  C 896.17 762.09 912.82 738.31 945.90 729.08
  A 0.32 0.32 0.0 0 0 946.06 728.58
  Q 937.65 717.89 929.39 707.13
  C 917.41 691.51 907.65 675.48 899.75 657.58
  Q 898.19 654.06 896.92 651.64
  C 886.24 631.25 874.93 611.22 864.05 590.95
  C 844.50 554.55 827.59 516.90 815.79 477.24
  Z
  M 349.26 383.51
  C 352.61 287.09 378.23 184.53 447.41 113.35
  Q 447.78 112.97 447.28 112.80
  C 395.93 95.86 341.89 84.98 287.75 83.59
  C 248.37 82.58 208.31 87.89 173.77 103.77
  C 86.13 144.08 67.33 239.87 69.78 326.44
  C 70.66 357.68 76.71 390.63 82.47 420.50
  Q 102.08 522.21 132.59 621.18
  C 149.64 676.48 170.26 732.31 198.69 782.87
  C 214.17 810.41 252.02 869.66 290.59 844.82
  Q 302.37 837.23 309.49 828.71
  Q 356.18 772.84 405.77 719.33
  Q 406.15 718.93 405.74 718.56
  C 364.10 681.73 342.22 629.33 344.86 573.90
  C 345.68 556.64 348.74 539.00 349.99 522.21
  C 352.96 482.48 351.69 446.73 349.51 403.49
  Q 348.95 392.42 349.26 383.51
  Z
  M 945.75 463.75
  C 947.06 435.87 951.47 409.98 955.27 383.25
  Q 956.57 374.08 956.94 358.57
  Q 956.95 358.09 956.47 358.03
  C 923.22 353.81 862.56 350.08 846.23 389.14
  C 838.57 407.45 840.12 429.45 844.21 448.72
  C 846.64 460.19 850.51 474.69 854.78 486.45
  C 871.83 533.42 896.39 578.81 920.39 622.04
  C 927.14 634.19 932.58 645.81 938.24 657.98
  Q 938.73 659.03 939.87 660.80
  Q 940.15 661.23 940.36 660.76
  C 955.07 628.61 957.05 594.36 953.62 560.18
  Q 951.55 539.51 947.47 501.23
  Q 945.06 478.54 945.75 463.75
  Z
  M 386.51 473.50
  C 386.61 505.05 383.93 532.90 380.66 561.87
  Q 379.24 574.48 379.22 581.79
  C 379.04 653.30 431.07 721.25 506.57 722.52
  A 0.69 0.68 7.8 0 0 507.23 722.03
  Q 515.73 693.46 526.48 665.98
  C 533.03 649.21 542.84 628.22 547.97 615.45
  C 574.70 548.79 568.29 478.75 553.93 410.21
  C 548.48 384.23 534.43 365.54 506.46 362.30
  Q 488.92 360.27 471.56 363.59
  C 441.60 369.32 410.02 381.60 385.38 399.87
  Q 383.79 401.05 383.94 403.25
  Q 386.40 437.34 386.51 473.50
  Z
  M 1030.00 778.25
  C 1008.56 777.81 984.08 773.15 966.51 759.75
  Q 966.11 759.44 965.62 759.55
  C 951.64 762.80 937.46 766.58 932.71 780.25
  Q 927.88 794.13 929.56 810.45
  Q 929.61 810.95 930.05 811.19
  Q 936.21 814.61 943.25 815.84
  C 973.12 821.04 1004.66 818.06 1034.16 812.01
  Q 1083.10 801.98 1120.49 769.08
  A 0.22 0.21 -71.1 0 0 1120.31 768.70
  C 1090.67 775.03 1060.37 778.87 1030.00 778.25
  Z
  M 513.46 801.95
  C 499.58 819.26 484.30 828.90 463.01 835.03
  Q 446.20 839.87 425.66 844.21
  C 416.43 846.16 409.34 848.10 401.47 851.19
  A 0.37 0.36 50.5 0 0 401.41 851.84
  Q 410.39 857.42 420.37 860.25
  C 478.54 876.78 537.80 866.46 575.59 815.89
  Q 579.74 810.33 580.92 806.95
  C 586.29 791.51 573.76 770.31 558.66 765.42
  C 551.56 763.12 547.63 763.92 542.16 768.70
  C 531.54 777.98 522.29 790.92 513.46 801.95
  Z"
/>
<path fill="#336791" d="
  M 991.93 344.40
  C 992.40 334.69 990.44 326.13 987.34 316.68
  Q 978.76 290.53 966.93 267.32
  C 924.68 184.42 859.71 115.94 774.21 77.42
  Q 773.34 77.03 774.28 76.85
  C 839.72 64.38 906.56 62.74 970.82 82.94
  Q 1055.67 109.60 1109.80 179.34
  C 1121.06 193.84 1124.06 218.58 1124.64 236.31
  C 1125.94 276.66 1120.38 316.73 1111.86 356.07
  C 1085.60 477.27 1034.35 595.18 968.59 699.95
  Q 968.23 700.53 967.79 699.99
  L 962.59 693.48
  Q 962.25 693.05 962.53 692.59
  C 982.95 658.58 990.79 620.68 989.51 581.74
  C 988.66 556.30 985.26 530.85 982.28 505.58
  Q 977.89 468.29 983.33 431.22
  C 987.14 405.27 991.82 378.29 991.77 352.75
  Q 991.76 347.88 991.93 344.40
  Z"
/>
<path fill="#336791" d="
  M 811.35 383.43
  C 801.84 413.12 806.97 447.64 815.79 477.24
  C 827.59 516.90 844.50 554.55 864.05 590.95
  C 874.93 611.22 886.24 631.25 896.92 651.64
  Q 898.19 654.06 899.75 657.58
  C 907.65 675.48 917.41 691.51 929.39 707.13
  Q 937.65 717.89 946.06 728.58
  A 0.32 0.32 0.0 0 1 945.90 729.08
  C 912.82 738.31 896.17 762.09 894.84 796.26
  C 894.47 805.93 894.51 815.01 893.59 823.88
  Q 882.22 933.49 866.03 1042.50
  C 859.69 1085.14 848.52 1125.93 807.44 1147.69
  C 785.12 1159.51 758.87 1166.40 734.25 1169.51
  C 691.39 1174.94 658.72 1158.31 639.42 1120.07
  C 630.73 1102.85 626.85 1090.80 624.24 1071.75
  Q 622.14 1056.39 620.93 1040.93
  C 614.75 962.06 614.66 882.36 616.81 803.32
  Q 617.04 794.93 616.01 789.30
  C 611.98 767.28 598.29 745.50 577.54 735.84
  C 566.01 730.47 553.95 727.83 541.42 730.74
  A 0.32 0.31 -88.8 0 1 541.05 730.35
  C 548.61 702.02 560.12 673.80 572.04 647.05
  Q 578.29 633.01 580.01 628.70
  C 596.93 586.26 603.07 542.33 600.53 496.51
  Q 597.69 445.21 586.08 396.43
  C 582.45 381.17 574.82 365.75 564.20 354.24
  C 518.72 304.99 434.90 331.80 385.75 358.49
  Q 385.30 358.73 385.34 358.22
  C 390.83 290.98 409.06 218.54 449.98 163.26
  C 491.00 107.83 549.94 81.78 618.25 80.91
  C 694.35 79.95 766.98 102.53 827.20 149.04
  C 883.88 192.82 928.12 254.68 952.78 321.79
  Q 953.14 322.77 952.10 322.65
  C 899.17 316.73 830.68 323.09 811.35 383.43
  Z"
/>
<path fill="#336791" d="
  M 349.51 403.49
  C 351.69 446.73 352.96 482.48 349.99 522.21
  C 348.74 539.00 345.68 556.64 344.86 573.90
  C 342.22 629.33 364.10 681.73 405.74 718.56
  Q 406.15 718.93 405.77 719.33
  Q 356.18 772.84 309.49 828.71
  Q 302.37 837.23 290.59 844.82
  C 252.02 869.66 214.17 810.41 198.69 782.87
  C 170.26 732.31 149.64 676.48 132.59 621.18
  Q 102.08 522.21 82.47 420.50
  C 76.71 390.63 70.66 357.68 69.78 326.44
  C 67.33 239.87 86.13 144.08 173.77 103.77
  C 208.31 87.89 248.37 82.58 287.75 83.59
  C 341.89 84.98 395.93 95.86 447.28 112.80
  Q 447.78 112.97 447.41 113.35
  C 378.23 184.53 352.61 287.09 349.26 383.51
  Q 348.95 392.42 349.51 403.49
  Z"
/>
<path fill="#336791" d="
  M 945.75 463.75
  Q 945.06 478.54 947.47 501.23
  Q 951.55 539.51 953.62 560.18
  C 957.05 594.36 955.07 628.61 940.36 660.76
  Q 940.15 661.23 939.87 660.80
  Q 938.73 659.03 938.24 657.98
  C 932.58 645.81 927.14 634.19 920.39 622.04
  C 896.39 578.81 871.83 533.42 854.78 486.45
  C 850.51 474.69 846.64 460.19 844.21 448.72
  C 840.12 429.45 838.57 407.45 846.23 389.14
  C 862.56 350.08 923.22 353.81 956.47 358.03
  Q 956.95 358.09 956.94 358.57
  Q 956.57 374.08 955.27 383.25
  C 951.47 409.98 947.06 435.87 945.75 463.75
  Z
  M 878.93 403.93
  C 896.62 413.76 918.05 403.53 924.49 385.15
  C 926.50 379.42 920.94 374.90 915.91 373.78
  Q 895.00 369.12 875.73 378.23
  C 859.43 385.95 868.32 398.03 878.93 403.93
  Z"
/>
<path fill="#336791" d="
  M 386.51 473.50
  Q 386.40 437.34 383.94 403.25
  Q 383.79 401.05 385.38 399.87
  C 410.02 381.60 441.60 369.32 471.56 363.59
  Q 488.92 360.27 506.46 362.30
  C 534.43 365.54 548.48 384.23 553.93 410.21
  C 568.29 478.75 574.70 548.79 547.97 615.45
  C 542.84 628.22 533.03 649.21 526.48 665.98
  Q 515.73 693.46 507.23 722.03
  A 0.69 0.68 7.8 0 1 506.57 722.52
  C 431.07 721.25 379.04 653.30 379.22 581.79
  Q 379.24 574.48 380.66 561.87
  C 383.93 532.90 386.61 505.05 386.51 473.50
  Z
  M 508.79 381.59
  C 499.34 380.29 476.79 379.29 473.82 392.04
  C 472.79 396.50 474.96 401.28 477.50 405.00
  C 486.67 418.44 502.68 426.20 518.75 420.24
  C 527.93 416.84 544.10 404.66 534.71 393.12
  C 529.34 386.52 517.13 382.74 508.79 381.59
  Z"
/>
<path fill="#ffffff" d="
  M 924.49 385.15
  C 918.05 403.53 896.62 413.76 878.93 403.93
  C 868.32 398.03 859.43 385.95 875.73 378.23
  Q 895.00 369.12 915.91 373.78
  C 920.94 374.90 926.50 379.42 924.49 385.15
  Z"
/>
<path fill="#ffffff" d="
  M 508.79 381.59
  C 517.13 382.74 529.34 386.52 534.71 393.12
  C 544.10 404.66 527.93 416.84 518.75 420.24
  C 502.68 426.20 486.67 418.44 477.50 405.00
  C 474.96 401.28 472.79 396.50 473.82 392.04
  C 476.79 379.29 499.34 380.29 508.79 381.59
  Z"
/>
<path fill="#336791" d="
  M 1030.00 778.25
  C 1060.37 778.87 1090.67 775.03 1120.31 768.70
  A 0.22 0.21 -71.1 0 1 1120.49 769.08
  Q 1083.10 801.98 1034.16 812.01
  C 1004.66 818.06 973.12 821.04 943.25 815.84
  Q 936.21 814.61 930.05 811.19
  Q 929.61 810.95 929.56 810.45
  Q 927.88 794.13 932.71 780.25
  C 937.46 766.58 951.64 762.80 965.62 759.55
  Q 966.11 759.44 966.51 759.75
  C 984.08 773.15 1008.56 777.81 1030.00 778.25
  Z"
/>
<path fill="#336791" d="
  M 463.01 835.03
  C 484.30 828.90 499.58 819.26 513.46 801.95
  C 522.29 790.92 531.54 777.98 542.16 768.70
  C 547.63 763.92 551.56 763.12 558.66 765.42
  C 573.76 770.31 586.29 791.51 580.92 806.95
  Q 579.74 810.33 575.59 815.89
  C 537.80 866.46 478.54 876.78 420.37 860.25
  Q 410.39 857.42 401.41 851.84
  A 0.37 0.36 50.5 0 1 401.47 851.19
  C 409.34 848.10 416.43 846.16 425.66 844.21
  Q 446.20 839.87 463.01 835.03
  Z"
/>
</svg>
