<?xml version="1.0" encoding="UTF-8" standalone="no"?>
<!DOCTYPE svg PUBLIC "-//W3C//DTD SVG 1.1//EN" "http://www.w3.org/Graphics/SVG/1.1/DTD/svg11.dtd">
<svg xmlns="http://www.w3.org/2000/svg" version="1.1" viewBox="0.00 0.00 300.00 298.00">
<g stroke-width="2.00" fill="none" stroke-linecap="butt">
<path stroke="#2d7993" vector-effect="non-scaling-stroke" d="
  M 10.96 117.00
  Q 12.05 113.36 11.04 109.75"
/>
<path stroke="#2d7993" vector-effect="non-scaling-stroke" d="
  M 67.50 157.96
  L 69.25 158.71"
/>
<path stroke="#2d7993" vector-effect="non-scaling-stroke" d="
  M 84.00 163.46
  L 85.21 163.50"
/>
<path stroke="#2d7993" vector-effect="non-scaling-stroke" d="
  M 70.75 183.29
  L 69.52 183.13"
/>
</g>
<path fill="#189ab6" d="
  M 10.96 117.00
  Q 12.05 113.36 11.04 109.75
  Q 10.48 102.26 11.17 94.79
  Q 11.38 92.46 11.44 94.80
  C 11.50 97.58 11.83 109.16 13.06 108.97
  Q 13.49 108.90 13.45 108.46
  Q 12.39 95.10 15.32 82.07
  Q 15.57 80.99 15.93 81.55
  Q 16.00 81.66 16.11 81.71
  Q 16.52 81.90 16.63 81.46
  Q 20.42 66.16 29.58 53.32
  Q 29.70 53.15 29.50 53.08
  Q 29.37 53.04 29.25 53.00
  Q 29.17 52.97 29.08 53.08
  Q 24.15 59.18 20.75 66.25
  Q 17.64 72.73 20.22 66.14
  C 28.37 45.33 45.72 29.51 66.72 21.45
  A 0.28 0.28 0.0 0 1 67.00 21.92
  L 58.23 29.41
  A 0.49 0.49 0.0 0 0 58.72 30.24
  L 61.90 29.05
  Q 62.25 28.91 62.41 29.26
  Q 62.47 29.41 62.53 29.58
  Q 62.57 29.71 62.45 29.78
  C 54.43 34.64 41.52 44.12 39.72 53.90
  A 0.48 0.48 0.0 0 0 40.38 54.43
  L 50.79 49.99
  A 0.69 0.69 0.0 0 1 51.58 51.07
  Q 44.52 59.34 39.52 68.89
  C 36.71 74.27 35.34 80.34 33.88 86.33
  Q 33.75 86.87 34.04 87.33
  Q 35.03 88.93 33.62 90.29
  Q 33.29 90.62 33.30 91.08
  L 33.58 103.52
  Q 33.60 104.56 33.10 103.65
  L 32.07 101.79
  Q 31.89 101.46 31.64 101.73
  Q 31.52 101.86 31.41 101.97
  Q 31.34 102.04 31.36 102.13
  L 35.44 124.40
  Q 35.55 124.97 36.06 125.25
  C 36.63 125.57 36.91 125.63 37.21 126.28
  C 40.31 133.03 44.86 138.57 47.90 145.28
  Q 48.18 145.88 48.77 145.60
  L 49.45 145.27
  Q 49.92 145.05 50.29 145.42
  Q 57.82 153.15 67.50 157.96
  L 69.25 158.71
  Q 76.29 162.13 84.00 163.46
  L 85.21 163.50
  Q 87.69 165.06 90.44 165.17
  C 94.92 165.34 97.74 165.75 101.49 166.17
  C 103.63 166.41 104.16 165.05 105.91 164.81
  Q 129.09 161.57 146.66 146.18
  Q 147.04 145.85 147.99 145.72
  Q 148.49 145.65 148.82 145.26
  C 151.80 141.70 157.27 136.77 158.48 132.40
  Q 158.62 131.91 158.98 131.55
  Q 162.05 128.55 163.98 123.53
  Q 168.42 111.96 170.03 101.51
  Q 170.68 97.27 171.76 94.42
  Q 172.06 93.63 172.12 94.47
  C 173.06 106.96 169.59 118.69 165.24 130.68
  Q 165.07 131.12 165.52 131.27
  C 165.68 131.32 165.96 131.22 166.04 131.05
  Q 173.32 116.76 176.13 100.94
  C 176.39 99.45 177.32 97.76 177.92 96.35
  A 0.88 0.88 0.0 0 1 179.56 96.39
  C 182.48 104.39 176.13 122.34 172.61 130.12
  A 0.44 0.44 0.0 0 0 173.40 130.52
  L 178.22 122.15
  Q 178.85 121.07 178.97 122.31
  L 179.09 123.50
  A 0.42 0.42 0.0 0 0 179.90 123.62
  L 184.41 112.72
  Q 184.47 112.59 184.49 112.73
  Q 184.54 112.98 184.47 113.23
  C 170.43 164.59 124.25 195.86 70.75 183.29
  L 69.52 183.13
  Q 37.41 174.19 16.00 148.25
  C 6.58 136.82 3.41 125.22 1.25 109.91
  C -3.09 79.10 4.54 48.88 27.79 27.16
  Q 52.30 4.25 86.85 0.34
  Q 91.65 -0.20 96.29 1.51
  A 0.68 0.67 48.2 0 1 96.22 2.80
  C 84.92 5.57 73.93 7.10 63.14 11.91
  Q 60.32 13.17 63.25 12.19
  C 78.17 7.17 95.95 5.98 110.98 8.67
  Q 114.07 9.23 110.93 9.02
  C 65.73 6.08 23.18 30.11 11.40 75.21
  Q 11.32 75.50 11.63 75.51
  Q 11.91 75.52 12.00 75.25
  C 15.67 64.63 19.64 54.30 27.13 45.89
  Q 27.33 45.67 27.56 45.78
  Q 27.85 45.92 27.65 46.18
  Q 12.02 67.07 9.51 92.93
  Q 9.50 93.08 8.58 99.51
  C 7.47 107.37 9.41 116.98 11.88 124.10
  Q 12.50 125.87 12.18 124.02
  L 10.96 117.00
  Z
  M 47.71 19.52
  Q 50.51 17.77 53.23 15.82
  Q 55.38 14.29 52.96 15.35
  C 34.27 23.52 18.42 41.09 10.73 59.65
  Q 8.42 65.25 11.23 59.80
  Q 23.12 36.82 44.40 22.14
  C 45.65 21.28 46.46 20.30 47.71 19.52
  Z
  M 5.25 71.00
  Q 2.61 76.31 2.17 83.17
  A 0.43 0.43 0.0 0 0 3.03 83.28
  Q 4.63 74.80 8.07 66.91
  Q 8.53 65.85 7.81 66.75
  Q 6.59 68.30 5.25 71.00
  Z
  M 28.19 144.56
  C 27.61 143.68 27.48 142.50 26.88 141.49
  Q 16.54 124.10 14.80 103.84
  Q 14.69 102.58 14.45 103.82
  Q 14.23 104.98 14.38 106.70
  Q 16.33 129.34 28.49 146.78
  Q 31.25 150.73 34.44 153.27
  Q 35.62 154.21 34.65 153.05
  Q 30.51 148.11 28.19 144.56
  Z
  M 86.32 180.77
  C 68.14 178.43 51.24 169.47 38.31 156.61
  A 0.55 0.54 -27.5 0 0 37.83 156.46
  Q 37.22 156.58 37.66 157.11
  C 46.05 167.22 58.17 173.32 70.05 178.28
  C 72.84 179.45 84.20 183.00 86.47 181.33
  Q 87.10 180.87 86.32 180.77
  Z"
/>
<path fill="#189ab6" d="
  M 132.90 15.18
  C 127.30 12.49 122.32 10.53 115.43 8.68
  Q 114.04 8.31 115.48 8.24
  C 122.12 7.94 127.88 11.61 133.08 14.85
  Q 135.94 16.64 132.90 15.18
  Z"
/>
<path fill="#189ab6" d="
  M 73.46 16.37
  Q 87.36 11.92 101.86 13.77
  Q 102.07 13.80 102.00 13.99
  Q 101.96 14.12 101.92 14.25
  Q 101.88 14.36 101.77 14.35
  Q 87.27 13.52 73.17 16.88
  C 72.72 16.98 72.14 17.42 71.49 17.23
  Q 70.83 17.03 71.51 16.88
  Q 72.52 16.67 73.46 16.37
  Z"
/>
<path fill="#189ab6" d="
  M 175.56 54.94
  C 175.20 54.04 173.40 52.63 172.71 51.51
  C 164.45 38.25 153.65 27.46 140.29 19.38
  Q 138.43 18.25 136.56 16.89
  Q 135.36 16.03 136.70 16.65
  C 155.53 25.35 172.23 41.28 179.41 60.94
  Q 179.80 62.00 179.11 61.11
  Q 176.91 58.24 175.56 54.94
  Z"
/>
<path fill="#189ab6" d="
  M 144.09 36.92
  Q 128.66 24.49 109.21 20.60
  Q 105.61 19.88 109.25 20.28
  Q 129.59 22.56 144.33 36.64
  A 0.19 0.18 85.9 0 1 144.09 36.92
  Z"
/>
<path fill="#189ab6" d="
  M 93.95 36.79
  Q 95.51 36.13 97.10 36.85
  Q 98.00 37.25 97.01 37.25
  L 94.04 37.25
  A 0.24 0.24 0.0 0 1 93.95 36.79
  Z"
/>
<path fill="#189ab6" d="
  M 78.79 39.08
  C 77.79 39.54 74.82 40.49 73.87 40.26
  Q 72.57 39.95 73.84 39.54
  Q 76.21 38.78 78.71 38.72
  Q 79.63 38.69 78.79 39.08
  Z"
/>
<path fill="#415870" d="
  M 123.40 43.73
  A 0.24 0.24 0.0 0 1 123.64 43.32
  Q 124.99 44.01 126.34 44.73
  Q 127.41 45.31 126.23 45.02
  Q 124.78 44.67 123.40 43.73
  Z"
/>
<path fill="#189ab6" d="
  M 58.54 48.70
  L 50.66 55.91
  Q 49.82 56.68 50.50 55.76
  C 52.71 52.76 54.23 49.30 58.52 48.64
  Q 58.63 48.62 58.54 48.70
  Z"
/>
<rect fill="#415870" x="-9.02" y="-0.27" transform="translate(165.37,57.06) rotate(-0.8)" width="18.04" height="0.54" rx="0.26"/>
<path fill="#415870" d="
  M 300.00 174.06
  L 300.00 181.56
  Q 297.57 231.48 264.40 267.01
  C 253.90 278.25 240.83 284.13 226.00 289.28
  Q 197.73 299.11 170.00 297.59
  C 119.42 294.81 79.16 255.11 64.46 208.99
  Q 62.68 203.41 63.45 196.78
  A 0.92 0.92 0.0 0 1 65.07 196.29
  C 65.47 196.76 66.25 197.80 66.49 198.41
  C 72.07 212.85 77.71 225.49 86.48 238.05
  Q 86.67 238.32 86.91 238.09
  C 86.98 238.03 81.64 228.67 81.38 228.10
  Q 71.70 206.79 69.52 183.13
  L 70.75 183.29
  C 79.04 237.15 121.13 281.73 177.18 285.60
  Q 179.39 285.76 181.15 285.29
  Q 182.13 285.02 181.11 284.95
  C 166.94 283.97 147.27 280.74 136.15 272.15
  Q 135.03 271.28 136.31 271.91
  Q 167.82 287.35 202.49 283.52
  Q 205.27 283.21 207.50 283.20
  C 218.50 283.14 231.29 277.92 240.62 272.26
  Q 242.28 271.25 240.47 271.96
  C 232.80 274.99 226.61 277.84 217.74 280.46
  Q 216.30 280.89 215.35 280.71
  Q 215.11 280.66 215.34 280.58
  L 229.28 275.92
  Q 229.70 275.78 229.37 275.48
  Q 229.25 275.38 229.14 275.25
  Q 229.11 275.21 229.07 275.23
  Q 214.65 279.31 202.49 281.46
  Q 201.19 281.69 199.29 281.43
  Q 198.66 281.35 199.29 281.24
  C 202.63 280.70 222.87 276.10 224.14 273.73
  Q 224.38 273.28 223.90 273.44
  C 211.21 277.42 195.63 280.23 182.04 278.89
  Q 180.15 278.70 182.05 278.60
  C 184.49 278.47 189.93 279.06 191.82 277.83
  Q 192.32 277.50 191.72 277.52
  Q 167.30 278.00 145.20 267.77
  Q 144.88 267.63 144.64 267.82
  Q 144.33 268.09 144.69 268.28
  Q 155.15 273.89 166.71 276.64
  Q 167.21 276.76 166.74 276.97
  Q 166.39 277.13 166.00 277.05
  Q 120.06 267.90 95.63 228.01
  A 0.37 0.37 0.0 0 1 96.21 227.57
  Q 101.59 233.33 108.33 237.43
  Q 108.70 237.65 109.03 237.36
  Q 109.15 237.25 109.21 237.11
  Q 109.35 236.81 109.14 236.56
  Q 107.59 234.62 106.82 232.27
  Q 106.49 231.24 107.23 232.02
  C 115.74 240.99 130.86 255.36 143.95 255.03
  A 0.50 0.50 0.0 0 0 144.35 254.25
  L 136.19 242.29
  A 0.92 0.92 0.0 0 1 137.40 240.96
  Q 150.78 248.40 165.51 252.49
  Q 168.67 253.37 171.08 253.54
  C 176.38 253.89 181.58 254.56 186.90 254.50
  Q 187.61 254.49 187.50 253.79
  Q 187.48 253.65 187.60 253.52
  Q 187.76 253.33 188.01 253.30
  Q 189.51 253.11 190.98 253.30
  Q 192.87 253.55 191.00 253.75
  Q 190.77 253.77 190.66 253.99
  Q 190.41 254.46 190.94 254.45
  Q 196.60 254.32 202.15 253.44
  Q 205.34 252.93 202.12 253.16
  Q 199.18 253.36 196.26 253.12
  Q 195.33 253.04 196.25 252.87
  L 208.79 250.61
  Q 209.79 250.44 208.94 250.98
  L 206.14 252.76
  Q 205.65 253.07 205.97 253.56
  C 206.63 254.56 232.06 243.82 234.72 242.75
  Q 235.25 242.54 235.25 241.96
  L 235.25 241.52
  Q 235.25 240.98 235.70 240.66
  C 243.55 235.20 249.35 228.02 257.00 222.54
  C 257.50 222.18 257.70 221.80 257.75 221.23
  Q 257.78 220.79 257.40 220.59
  L 256.76 220.25
  Q 256.13 219.91 256.59 219.36
  C 267.68 206.31 272.24 185.12 271.69 168.43
  Q 271.67 167.94 271.88 167.48
  Q 272.90 165.30 272.23 163.13
  C 270.99 159.11 271.86 147.72 268.99 145.61
  Q 268.58 145.31 268.39 144.84
  C 260.44 125.01 251.32 109.94 234.12 96.84
  Q 233.75 96.56 233.75 96.09
  Q 233.75 95.87 233.75 95.65
  Q 233.75 95.07 233.25 94.80
  Q 225.98 90.81 218.86 86.60
  C 216.70 85.32 214.37 85.95 212.47 84.69
  C 205.19 79.89 195.68 79.66 186.91 78.77
  C 179.22 77.99 170.32 78.73 161.94 78.02
  A 0.29 0.28 -49.5 0 1 161.90 77.46
  C 178.46 73.26 194.35 74.91 211.32 77.33
  A 0.32 0.32 0.0 0 0 211.47 76.71
  C 197.49 71.92 185.12 71.26 168.01 70.59
  C 166.29 70.52 164.72 69.97 163.14 69.37
  A 1.00 1.00 0.0 0 1 163.03 67.55
  Q 164.94 66.54 167.03 66.13
  C 179.62 63.61 192.10 64.85 205.43 67.58
  C 206.49 67.80 207.47 67.67 208.55 67.70
  A 0.23 0.23 0.0 0 0 208.63 67.25
  L 195.53 62.75
  Q 194.71 62.47 195.51 62.13
  Q 196.54 61.69 197.63 61.69
  Q 198.23 61.69 198.00 61.13
  C 197.42 59.69 181.20 57.36 179.51 57.15
  Q 176.25 56.76 179.53 56.82
  C 182.10 56.87 185.42 57.47 187.29 57.65
  C 249.53 63.74 298.42 109.96 300.00 174.06
  Z
  M 293.68 185.98
  C 294.64 181.51 296.16 168.10 293.29 164.43
  Q 292.97 164.00 292.99 164.54
  Q 294.37 201.48 273.87 231.93
  Q 273.29 232.79 274.30 232.53
  C 277.20 231.76 283.97 217.86 284.91 215.67
  Q 289.70 204.53 293.68 185.98
  Z
  M 262.25 246.60
  C 261.19 247.74 259.72 247.81 258.56 248.88
  Q 237.58 268.20 209.80 275.11
  Q 209.05 275.30 209.81 275.45
  Q 210.68 275.64 212.25 275.26
  C 234.46 269.94 259.67 256.68 271.33 236.59
  A 0.30 0.30 0.0 0 0 270.83 236.26
  Q 266.65 241.87 262.25 246.60
  Z
  M 101.00 255.58
  C 96.88 254.24 94.36 247.39 90.67 245.91
  Q 89.91 245.60 90.40 246.26
  Q 116.20 281.22 159.26 290.48
  Q 159.85 290.61 160.25 290.47
  Q 160.86 290.26 160.24 290.09
  Q 126.52 280.81 101.85 256.11
  Q 101.49 255.75 101.00 255.58
  Z
  M 166.12 291.46
  A 0.25 0.25 0.0 0 0 165.98 291.94
  C 174.11 294.82 182.43 296.88 191.10 295.00
  A 0.35 0.35 0.0 0 0 191.03 294.31
  Q 178.43 294.15 166.12 291.46
  Z"
/>
<path fill="#415870" d="
  M 118.99 76.56
  C 115.99 79.58 112.09 81.92 109.58 85.34
  Q 108.57 86.72 107.49 87.75
  Q 83.01 110.92 73.05 142.47
  A 0.27 0.26 -29.4 0 1 72.54 142.33
  C 79.22 115.39 94.94 90.84 118.77 76.27
  Q 120.08 75.47 118.99 76.56
  Z"
/>
<rect fill="#415870" x="-0.25" y="-6.95" transform="translate(187.09,100.25) rotate(9.8)" width="0.50" height="13.90" rx="0.24"/>
<path fill="#415870" d="
  M 185.54 108.75
  L 185.09 111.54
  Q 184.92 112.61 184.78 111.54
  Q 184.57 109.99 185.29 108.66
  Q 185.66 107.97 185.54 108.75
  Z"
/>
<path fill="#415870" d="
  M 11.04 109.75
  Q 12.05 113.36 10.96 117.00
  L 10.33 113.01
  Q 10.25 112.52 10.56 112.13
  Q 11.36 111.10 11.04 109.75
  Z"
/>
<path fill="#415870" d="
  M 85.21 163.50
  L 84.00 163.46
  Q 85.45 143.23 96.60 126.44
  Q 97.98 124.38 96.82 126.57
  Q 87.66 143.97 85.21 163.50
  Z"
/>
<path fill="#415870" d="
  M 69.25 158.71
  L 67.50 157.96
  L 71.13 147.25
  Q 71.34 146.65 71.49 147.26
  C 71.83 148.62 69.56 156.60 69.25 158.71
  Z"
/>
<path fill="#415870" d="
  M 110.47 151.18
  Q 110.30 152.50 109.91 153.77
  Q 109.52 154.98 109.50 153.71
  Q 109.43 150.17 111.21 147.15
  Q 111.91 145.96 111.52 147.29
  L 110.70 150.11
  Q 110.55 150.64 110.47 151.18
  Z"
/>
<path fill="#415870" d="
  M 83.52 147.54
  Q 83.39 148.89 82.98 150.15
  Q 82.70 151.04 82.72 150.11
  Q 82.75 148.72 83.29 147.48
  Q 83.60 146.77 83.52 147.54
  Z"
/>
<path fill="#415870" d="
  M 82.53 151.31
  C 82.40 152.22 82.29 153.43 81.95 154.26
  Q 81.70 154.89 81.72 154.21
  Q 81.77 152.68 82.26 151.24
  Q 82.73 149.86 82.53 151.31
  Z"
/>
<path fill="#415870" d="
  M 88.67 222.67
  C 82.47 211.35 78.44 198.98 77.68 186.79
  Q 77.40 182.41 78.32 186.70
  C 80.96 199.12 83.12 209.82 89.04 222.48
  Q 91.89 228.57 88.67 222.67
  Z"
/>
<path fill="#415870" d="
  M 108.62 186.66
  L 109.29 190.52
  Q 109.50 191.68 108.82 190.72
  Q 107.48 188.81 107.99 186.64
  Q 108.35 185.12 108.62 186.66
  Z"
/>
<path fill="#415870" d="
  M 117.60 215.56
  A 0.19 0.19 0.0 0 1 117.35 215.47
  L 117.28 215.30
  A 7.15 0.48 65.5 0 1 114.75 208.60
  L 114.87 208.54
  A 7.15 0.48 65.5 0 1 118.28 214.85
  L 118.35 215.01
  A 0.19 0.19 0.0 0 1 118.26 215.26
  L 117.60 215.56
  Z"
/>
<path fill="#415870" d="
  M 143.61 241.00
  C 140.60 239.48 136.23 238.32 134.38 235.84
  Q 133.06 234.06 131.93 231.92
  Q 131.49 231.09 132.17 231.74
  Q 137.52 236.82 143.83 240.60
  A 0.23 0.23 0.0 0 1 143.61 241.00
  Z"
/>
</svg>
