<?xml version="1.0" encoding="UTF-8" standalone="no"?>
<!DOCTYPE svg PUBLIC "-//W3C//DTD SVG 1.1//EN" "http://www.w3.org/Graphics/SVG/1.1/DTD/svg11.dtd">
<svg xmlns="http://www.w3.org/2000/svg" version="1.1" viewBox="0.00 0.00 1416.00 1480.00">
<g stroke-width="2.00" fill="none" stroke-linecap="butt">
<path stroke="#80da80" vector-effect="non-scaling-stroke" d="
  M 1403.44 1480.00
  C 1411.76 1478.81 1413.50 1473.56 1413.50 1465.63
  Q 1413.50 844.70 1413.50 223.76
  C 1413.50 218.10 1412.08 213.99 1406.59 212.30
  C 1399.86 210.23 1396.23 215.28 1392.38 219.61
  Q 1166.60 472.97 940.82 726.32
  C 932.71 735.42 924.19 732.98 916.84 725.40
  Q 802.49 607.59 688.17 489.75
  C 680.17 481.50 682.20 475.20 688.83 466.52
  Q 724.29 420.13 759.59 373.63
  C 765.90 365.32 775.28 362.12 783.44 370.30
  Q 785.32 372.18 787.09 374.16
  Q 848.96 443.12 910.82 512.09
  C 916.48 518.40 922.74 523.33 930.78 518.78
  Q 934.13 516.88 939.73 509.25
  Q 1119.67 264.00 1299.61 18.75
  C 1303.51 13.44 1303.78 6.56 1297.47 3.08
  C 1292.27 0.21 1280.54 1.42 1274.50 1.42
  Q 644.28 1.24 14.06 1.25
  C 5.53 1.25 2.50 7.47 2.50 15.21
  Q 2.50 739.95 2.50 1464.68
  C 2.50 1472.96 3.59 1478.61 12.44 1480.00"
/>
<path stroke="#80da80" vector-effect="non-scaling-stroke" d="
  M 273.44 710.69
  Q 273.02 710.99 272.46 710.92
  Q 271.99 710.85 271.56 711.06
  Q 262.03 715.61 259.26 717.01
  C 187.70 753.19 149.03 822.75 161.00 902.75
  C 178.62 1020.46 305.15 1043.87 398.81 1066.46
  C 423.54 1072.42 451.43 1079.33 475.41 1091.10
  C 497.18 1101.79 513.00 1119.58 508.83 1145.48
  C 504.16 1174.52 477.44 1189.70 452.04 1198.12
  C 448.53 1199.28 444.47 1199.79 440.66 1200.75
  C 430.90 1203.20 418.57 1203.97 408.61 1204.09
  C 338.93 1204.94 275.69 1181.22 223.54 1134.99
  C 216.28 1128.56 207.18 1126.30 200.57 1135.56
  Q 174.28 1172.37 147.98 1209.15
  C 141.09 1218.77 141.55 1224.81 150.76 1232.74
  C 216.09 1288.94 298.05 1318.70 384.24 1318.00
  Q 404.97 1317.83 423.56 1316.85
  C 516.50 1311.97 610.24 1270.81 634.06 1171.45
  Q 641.79 1139.21 638.73 1103.26
  C 631.10 1013.80 560.96 973.34 484.79 949.76
  Q 454.56 940.40 419.44 932.43
  Q 414.17 931.24 408.94 929.81
  C 406.68 929.20 404.16 929.29 401.72 928.51
  Q 396.79 926.95 396.65 926.92
  Q 378.69 922.72 360.94 917.73
  C 342.78 912.63 318.30 904.72 302.46 890.81
  Q 289.53 879.45 289.48 861.51
  C 289.43 838.57 304.95 819.31 325.81 810.77
  Q 347.57 801.87 372.75 801.67
  Q 464.53 800.93 536.97 854.88
  Q 545.48 861.22 548.60 862.12
  Q 556.96 864.54 563.37 856.09
  Q 590.02 820.92 616.60 785.71
  C 622.61 777.74 625.04 770.21 616.14 763.13
  Q 561.28 719.52 493.70 700.69
  C 491.34 700.03 482.57 696.80 480.73 697.30
  Q 480.26 697.42 479.81 697.27
  C 472.92 694.99 465.03 694.40 458.90 693.06
  C 445.38 690.11 432.27 689.22 417.06 688.37
  Q 391.32 686.93 356.48 689.79
  C 349.13 690.39 341.92 691.52 334.65 692.70
  C 332.37 693.07 329.72 694.06 327.13 694.36
  C 322.39 694.90 319.33 695.81 315.25 696.92
  C 310.37 698.23 305.86 699.10 301.21 700.81
  C 299.01 701.62 296.06 701.45 293.95 702.69
  Q 291.21 704.29 288.57 704.78
  C 285.09 705.41 283.34 706.62 280.39 707.93
  C 278.41 708.82 275.87 708.90 273.44 710.69"
/>
<path stroke="#80da80" vector-effect="non-scaling-stroke" d="
  M 826.29 1122.75
  C 825.86 1120.37 827.24 1118.37 829.75 1118.37
  Q 988.14 1118.26 1146.52 1118.24
  C 1155.63 1118.24 1161.72 1115.26 1161.75 1105.15
  Q 1161.80 1081.58 1159.74 1058.09
  C 1159.47 1054.97 1158.89 1051.95 1158.75 1048.00
  Q 1158.55 1042.26 1154.96 1028.01
  Q 1154.85 1027.57 1155.19 1026.87
  Q 1155.41 1026.42 1155.27 1025.93
  Q 1153.15 1018.64 1151.30 1011.31
  C 1131.46 932.70 1076.61 871.25 997.38 849.91
  C 988.48 847.52 982.03 846.71 974.30 845.35
  C 961.81 843.15 949.41 842.30 936.25 842.05
  Q 910.96 841.56 887.00 846.30
  Q 878.41 848.00 873.39 849.56
  C 869.94 850.63 865.62 851.05 861.93 853.00
  Q 861.50 853.23 861.05 853.05
  C 859.10 852.27 852.49 856.56 850.26 856.95
  Q 847.84 857.37 847.39 857.55
  C 762.81 890.94 705.77 968.51 700.33 1059.43
  C 699.39 1075.08 699.45 1092.76 700.71 1107.67
  C 710.73 1226.65 811.52 1319.82 930.98 1317.96
  C 942.62 1317.78 955.90 1317.88 965.94 1317.25
  Q 1048.92 1312.05 1117.06 1264.46
  C 1126.27 1258.03 1126.84 1252.12 1120.47 1242.75
  Q 1103.12 1217.24 1085.67 1191.80
  C 1079.38 1182.64 1073.60 1181.35 1064.27 1187.76
  Q 1045.88 1200.40 1025.12 1208.63
  C 1020.70 1210.38 1016.27 1212.86 1011.23 1213.84
  C 1007.21 1214.63 1004.31 1216.75 999.47 1217.13
  C 997.16 1217.31 995.19 1218.48 992.85 1218.73
  Q 988.51 1219.20 987.84 1219.36
  C 974.57 1222.45 966.00 1222.71 949.75 1223.28
  C 889.00 1225.42 837.02 1181.78 826.29 1122.75"
/>
<path stroke="#80da80" vector-effect="non-scaling-stroke" d="
  M 1046.39 1033.16
  C 1042.21 983.68 1004.87 944.21 955.75 937.83
  C 945.37 936.48 930.62 936.46 920.57 937.60
  C 870.17 943.33 831.81 981.04 824.37 1031.07
  C 823.95 1033.89 824.70 1037.25 828.00 1037.25
  Q 935.72 1037.25 1043.44 1037.25
  C 1045.30 1037.25 1046.55 1035.07 1046.39 1033.16"
/>
</g>
<path fill="#ffffff" d="
  M 0.00 0.00
  L 1416.00 0.00
  L 1416.00 1480.00
  L 1403.44 1480.00
  C 1411.76 1478.81 1413.50 1473.56 1413.50 1465.63
  Q 1413.50 844.70 1413.50 223.76
  C 1413.50 218.10 1412.08 213.99 1406.59 212.30
  C 1399.86 210.23 1396.23 215.28 1392.38 219.61
  Q 1166.60 472.97 940.82 726.32
  C 932.71 735.42 924.19 732.98 916.84 725.40
  Q 802.49 607.59 688.17 489.75
  C 680.17 481.50 682.20 475.20 688.83 466.52
  Q 724.29 420.13 759.59 373.63
  C 765.90 365.32 775.28 362.12 783.44 370.30
  Q 785.32 372.18 787.09 374.16
  Q 848.96 443.12 910.82 512.09
  C 916.48 518.40 922.74 523.33 930.78 518.78
  Q 934.13 516.88 939.73 509.25
  Q 1119.67 264.00 1299.61 18.75
  C 1303.51 13.44 1303.78 6.56 1297.47 3.08
  C 1292.27 0.21 1280.54 1.42 1274.50 1.42
  Q 644.28 1.24 14.06 1.25
  C 5.53 1.25 2.50 7.47 2.50 15.21
  Q 2.50 739.95 2.50 1464.68
  C 2.50 1472.96 3.59 1478.61 12.44 1480.00
  L 0.00 1480.00
  L 0.00 0.00
  Z"
/>
<path fill="#00b400" d="
  M 1403.44 1480.00
  L 12.44 1480.00
  C 3.59 1478.61 2.50 1472.96 2.50 1464.68
  Q 2.50 739.95 2.50 15.21
  C 2.50 7.47 5.53 1.25 14.06 1.25
  Q 644.28 1.24 1274.50 1.42
  C 1280.54 1.42 1292.27 0.21 1297.47 3.08
  C 1303.78 6.56 1303.51 13.44 1299.61 18.75
  Q 1119.67 264.00 939.73 509.25
  Q 934.13 516.88 930.78 518.78
  C 922.74 523.33 916.48 518.40 910.82 512.09
  Q 848.96 443.12 787.09 374.16
  Q 785.32 372.18 783.44 370.30
  C 775.28 362.12 765.90 365.32 759.59 373.63
  Q 724.29 420.13 688.83 466.52
  C 682.20 475.20 680.17 481.50 688.17 489.75
  Q 802.49 607.59 916.84 725.40
  C 924.19 732.98 932.71 735.42 940.82 726.32
  Q 1166.60 472.97 1392.38 219.61
  C 1396.23 215.28 1399.86 210.23 1406.59 212.30
  C 1412.08 213.99 1413.50 218.10 1413.50 223.76
  Q 1413.50 844.70 1413.50 1465.63
  C 1413.50 1473.56 1411.76 1478.81 1403.44 1480.00
  Z
  M 273.44 710.69
  Q 273.02 710.99 272.46 710.92
  Q 271.99 710.85 271.56 711.06
  Q 262.03 715.61 259.26 717.01
  C 187.70 753.19 149.03 822.75 161.00 902.75
  C 178.62 1020.46 305.15 1043.87 398.81 1066.46
  C 423.54 1072.42 451.43 1079.33 475.41 1091.10
  C 497.18 1101.79 513.00 1119.58 508.83 1145.48
  C 504.16 1174.52 477.44 1189.70 452.04 1198.12
  C 448.53 1199.28 444.47 1199.79 440.66 1200.75
  C 430.90 1203.20 418.57 1203.97 408.61 1204.09
  C 338.93 1204.94 275.69 1181.22 223.54 1134.99
  C 216.28 1128.56 207.18 1126.30 200.57 1135.56
  Q 174.28 1172.37 147.98 1209.15
  C 141.09 1218.77 141.55 1224.81 150.76 1232.74
  C 216.09 1288.94 298.05 1318.70 384.24 1318.00
  Q 404.97 1317.83 423.56 1316.85
  C 516.50 1311.97 610.24 1270.81 634.06 1171.45
  Q 641.79 1139.21 638.73 1103.26
  C 631.10 1013.80 560.96 973.34 484.79 949.76
  Q 454.56 940.40 419.44 932.43
  Q 414.17 931.24 408.94 929.81
  C 406.68 929.20 404.16 929.29 401.72 928.51
  Q 396.79 926.95 396.65 926.92
  Q 378.69 922.72 360.94 917.73
  C 342.78 912.63 318.30 904.72 302.46 890.81
  Q 289.53 879.45 289.48 861.51
  C 289.43 838.57 304.95 819.31 325.81 810.77
  Q 347.57 801.87 372.75 801.67
  Q 464.53 800.93 536.97 854.88
  Q 545.48 861.22 548.60 862.12
  Q 556.96 864.54 563.37 856.09
  Q 590.02 820.92 616.60 785.71
  C 622.61 777.74 625.04 770.21 616.14 763.13
  Q 561.28 719.52 493.70 700.69
  C 491.34 700.03 482.57 696.80 480.73 697.30
  Q 480.26 697.42 479.81 697.27
  C 472.92 694.99 465.03 694.40 458.90 693.06
  C 445.38 690.11 432.27 689.22 417.06 688.37
  Q 391.32 686.93 356.48 689.79
  C 349.13 690.39 341.92 691.52 334.65 692.70
  C 332.37 693.07 329.72 694.06 327.13 694.36
  C 322.39 694.90 319.33 695.81 315.25 696.92
  C 310.37 698.23 305.86 699.10 301.21 700.81
  C 299.01 701.62 296.06 701.45 293.95 702.69
  Q 291.21 704.29 288.57 704.78
  C 285.09 705.41 283.34 706.62 280.39 707.93
  C 278.41 708.82 275.87 708.90 273.44 710.69
  Z
  M 826.29 1122.75
  C 825.86 1120.37 827.24 1118.37 829.75 1118.37
  Q 988.14 1118.26 1146.52 1118.24
  C 1155.63 1118.24 1161.72 1115.26 1161.75 1105.15
  Q 1161.80 1081.58 1159.74 1058.09
  C 1159.47 1054.97 1158.89 1051.95 1158.75 1048.00
  Q 1158.55 1042.26 1154.96 1028.01
  Q 1154.85 1027.57 1155.19 1026.87
  Q 1155.41 1026.42 1155.27 1025.93
  Q 1153.15 1018.64 1151.30 1011.31
  C 1131.46 932.70 1076.61 871.25 997.38 849.91
  C 988.48 847.52 982.03 846.71 974.30 845.35
  C 961.81 843.15 949.41 842.30 936.25 842.05
  Q 910.96 841.56 887.00 846.30
  Q 878.41 848.00 873.39 849.56
  C 869.94 850.63 865.62 851.05 861.93 853.00
  Q 861.50 853.23 861.05 853.05
  C 859.10 852.27 852.49 856.56 850.26 856.95
  Q 847.84 857.37 847.39 857.55
  C 762.81 890.94 705.77 968.51 700.33 1059.43
  C 699.39 1075.08 699.45 1092.76 700.71 1107.67
  C 710.73 1226.65 811.52 1319.82 930.98 1317.96
  C 942.62 1317.78 955.90 1317.88 965.94 1317.25
  Q 1048.92 1312.05 1117.06 1264.46
  C 1126.27 1258.03 1126.84 1252.12 1120.47 1242.75
  Q 1103.12 1217.24 1085.67 1191.80
  C 1079.38 1182.64 1073.60 1181.35 1064.27 1187.76
  Q 1045.88 1200.40 1025.12 1208.63
  C 1020.70 1210.38 1016.27 1212.86 1011.23 1213.84
  C 1007.21 1214.63 1004.31 1216.75 999.47 1217.13
  C 997.16 1217.31 995.19 1218.48 992.85 1218.73
  Q 988.51 1219.20 987.84 1219.36
  C 974.57 1222.45 966.00 1222.71 949.75 1223.28
  C 889.00 1225.42 837.02 1181.78 826.29 1122.75
  Z"
/>
<path fill="#ffffff" d="
  M 273.44 710.69
  C 275.87 708.90 278.41 708.82 280.39 707.93
  C 283.34 706.62 285.09 705.41 288.57 704.78
  Q 291.21 704.29 293.95 702.69
  C 296.06 701.45 299.01 701.62 301.21 700.81
  C 305.86 699.10 310.37 698.23 315.25 696.92
  C 319.33 695.81 322.39 694.90 327.13 694.36
  C 329.72 694.06 332.37 693.07 334.65 692.70
  C 341.92 691.52 349.13 690.39 356.48 689.79
  Q 391.32 686.93 417.06 688.37
  C 432.27 689.22 445.38 690.11 458.90 693.06
  C 465.03 694.40 472.92 694.99 479.81 697.27
  Q 480.26 697.42 480.73 697.30
  C 482.57 696.80 491.34 700.03 493.70 700.69
  Q 561.28 719.52 616.14 763.13
  C 625.04 770.21 622.61 777.74 616.60 785.71
  Q 590.02 820.92 563.37 856.09
  Q 556.96 864.54 548.60 862.12
  Q 545.48 861.22 536.97 854.88
  Q 464.53 800.93 372.75 801.67
  Q 347.57 801.87 325.81 810.77
  C 304.95 819.31 289.43 838.57 289.48 861.51
  Q 289.53 879.45 302.46 890.81
  C 318.30 904.72 342.78 912.63 360.94 917.73
  Q 378.69 922.72 396.65 926.92
  Q 396.79 926.95 401.72 928.51
  C 404.16 929.29 406.68 929.20 408.94 929.81
  Q 414.17 931.24 419.44 932.43
  Q 454.56 940.40 484.79 949.76
  C 560.96 973.34 631.10 1013.80 638.73 1103.26
  Q 641.79 1139.21 634.06 1171.45
  C 610.24 1270.81 516.50 1311.97 423.56 1316.85
  Q 404.97 1317.83 384.24 1318.00
  C 298.05 1318.70 216.09 1288.94 150.76 1232.74
  C 141.55 1224.81 141.09 1218.77 147.98 1209.15
  Q 174.28 1172.37 200.57 1135.56
  C 207.18 1126.30 216.28 1128.56 223.54 1134.99
  C 275.69 1181.22 338.93 1204.94 408.61 1204.09
  C 418.57 1203.97 430.90 1203.20 440.66 1200.75
  C 444.47 1199.79 448.53 1199.28 452.04 1198.12
  C 477.44 1189.70 504.16 1174.52 508.83 1145.48
  C 513.00 1119.58 497.18 1101.79 475.41 1091.10
  C 451.43 1079.33 423.54 1072.42 398.81 1066.46
  C 305.15 1043.87 178.62 1020.46 161.00 902.75
  C 149.03 822.75 187.70 753.19 259.26 717.01
  Q 262.03 715.61 271.56 711.06
  Q 271.99 710.85 272.46 710.92
  Q 273.02 710.99 273.44 710.69
  Z"
/>
<path fill="#ffffff" d="
  M 829.75 1118.37
  C 827.24 1118.37 825.86 1120.37 826.29 1122.75
  C 837.02 1181.78 889.00 1225.42 949.75 1223.28
  C 966.00 1222.71 974.57 1222.45 987.84 1219.36
  Q 988.51 1219.20 992.85 1218.73
  C 995.19 1218.48 997.16 1217.31 999.47 1217.13
  C 1004.31 1216.75 1007.21 1214.63 1011.23 1213.84
  C 1016.27 1212.86 1020.70 1210.38 1025.12 1208.63
  Q 1045.88 1200.40 1064.27 1187.76
  C 1073.60 1181.35 1079.38 1182.64 1085.67 1191.80
  Q 1103.12 1217.24 1120.47 1242.75
  C 1126.84 1252.12 1126.27 1258.03 1117.06 1264.46
  Q 1048.92 1312.05 965.94 1317.25
  C 955.90 1317.88 942.62 1317.78 930.98 1317.96
  C 811.52 1319.82 710.73 1226.65 700.71 1107.67
  C 699.45 1092.76 699.39 1075.08 700.33 1059.43
  C 705.77 968.51 762.81 890.94 847.39 857.55
  Q 847.84 857.37 850.26 856.95
  C 852.49 856.56 859.10 852.27 861.05 853.05
  Q 861.50 853.23 861.93 853.00
  C 865.62 851.05 869.94 850.63 873.39 849.56
  Q 878.41 848.00 887.00 846.30
  Q 910.96 841.56 936.25 842.05
  C 949.41 842.30 961.81 843.15 974.30 845.35
  C 982.03 846.71 988.48 847.52 997.38 849.91
  C 1076.61 871.25 1131.46 932.70 1151.30 1011.31
  Q 1153.15 1018.64 1155.27 1025.93
  Q 1155.41 1026.42 1155.19 1026.87
  Q 1154.85 1027.57 1154.96 1028.01
  Q 1158.55 1042.26 1158.75 1048.00
  C 1158.89 1051.95 1159.47 1054.97 1159.74 1058.09
  Q 1161.80 1081.58 1161.75 1105.15
  C 1161.72 1115.26 1155.63 1118.24 1146.52 1118.24
  Q 988.14 1118.26 829.75 1118.37
  Z
  M 1046.39 1033.16
  C 1042.21 983.68 1004.87 944.21 955.75 937.83
  C 945.37 936.48 930.62 936.46 920.57 937.60
  C 870.17 943.33 831.81 981.04 824.37 1031.07
  C 823.95 1033.89 824.70 1037.25 828.00 1037.25
  Q 935.72 1037.25 1043.44 1037.25
  C 1045.30 1037.25 1046.55 1035.07 1046.39 1033.16
  Z"
/>
<path fill="#00b400" d="
  M 955.75 937.83
  C 1004.87 944.21 1042.21 983.68 1046.39 1033.16
  C 1046.55 1035.07 1045.30 1037.25 1043.44 1037.25
  Q 935.72 1037.25 828.00 1037.25
  C 824.70 1037.25 823.95 1033.89 824.37 1031.07
  C 831.81 981.04 870.17 943.33 920.57 937.60
  C 930.62 936.46 945.37 936.48 955.75 937.83
  Z"
/>
</svg>
