<?xml version="1.0" encoding="UTF-8" standalone="no"?>
<!DOCTYPE svg PUBLIC "-//W3C//DTD SVG 1.1//EN" "http://www.w3.org/Graphics/SVG/1.1/DTD/svg11.dtd">
<svg xmlns="http://www.w3.org/2000/svg" version="1.1" viewBox="0.00 0.00 1162.00 1803.00">
<path fill="#000000" fill-opacity="0.788" d="
  M 291.31 0.00
  L 868.31 0.00
  L 869.54 0.75
  Q 865.60 6.49 862.18 12.54
  C 855.22 24.90 848.05 37.08 841.74 49.80
  Q 841.51 50.24 841.06 50.46
  C 839.91 51.01 840.04 52.03 839.58 52.84
  Q 819.67 87.99 799.75 123.14
  Q 786.25 146.98 773.05 170.98
  C 766.49 182.91 758.44 196.55 751.50 209.57
  C 750.87 210.76 749.81 211.70 749.20 213.06
  Q 748.07 215.62 747.99 215.76
  Q 738.01 233.41 727.95 251.03
  C 726.52 253.53 724.51 257.78 722.39 260.92
  C 720.91 263.14 720.15 265.51 718.83 267.82
  Q 697.19 305.53 676.03 343.52
  C 670.65 353.18 664.92 362.66 659.71 372.42
  C 653.25 384.51 646.32 396.40 639.41 408.24
  Q 639.25 408.50 639.25 408.81
  Q 639.25 409.07 639.18 409.18
  Q 634.94 416.27 625.54 433.30
  Q 621.34 440.91 604.81 469.86
  C 602.90 473.20 600.87 477.21 598.27 481.27
  Q 595.95 484.89 593.41 490.89
  C 593.02 491.80 592.38 491.98 591.97 492.70
  Q 585.70 503.72 579.74 514.99
  C 579.21 514.90 398.81 836.51 381.83 866.10
  C 381.63 866.44 381.49 866.18 381.49 866.77
  Q 381.49 867.09 381.33 867.38
  L 290.25 1029.12
  Q 289.90 1029.74 289.49 1029.16
  Q 287.88 1026.84 286.54 1024.45
  Q 149.61 781.00 12.64 537.56
  Q 6.69 526.97 0.96 516.25
  L 1.37 515.61
  Q 1.60 515.25 2.02 515.25
  L 576.97 515.25
  A 1.07 1.06 78.6 0 0 577.95 513.77
  Q 575.69 508.34 572.58 503.46
  Q 569.26 498.25 566.20 492.89
  C 565.59 491.82 564.38 490.75 564.18 489.09
  Q 564.12 488.55 563.86 488.08
  L 557.32 476.26
  Q 557.10 475.86 556.72 475.62
  Q 556.06 475.20 556.02 474.37
  Q 556.00 473.88 555.71 473.48
  Q 553.69 470.67 552.10 467.63
  C 549.30 462.30 546.67 458.08 544.04 453.23
  Q 535.56 437.60 526.69 422.20
  C 521.05 412.41 514.46 400.26 508.02 389.49
  Q 505.87 385.89 501.61 377.53
  C 500.29 374.92 498.41 372.22 496.96 369.44
  C 493.12 362.05 488.92 354.93 484.73 347.73
  Q 477.72 335.70 471.40 323.24
  Q 471.15 322.74 470.60 322.61
  Q 469.76 322.41 469.97 321.52
  Q 470.07 321.04 469.82 320.61
  Q 455.10 295.48 441.05 269.98
  Q 428.69 247.55 425.02 241.49
  C 422.73 237.72 421.26 233.88 419.27 230.77
  Q 417.19 227.51 415.46 224.04
  Q 415.23 223.58 415.28 223.07
  Q 415.33 222.53 414.81 222.38
  Q 414.25 222.22 413.99 221.70
  Q 411.72 217.06 409.36 212.45
  Q 407.87 209.54 404.80 204.70
  C 402.24 200.64 400.57 196.84 398.29 193.00
  Q 394.61 186.81 391.22 180.42
  Q 391.02 180.03 390.57 180.01
  Q 390.21 180.00 390.24 179.57
  Q 390.27 179.17 390.07 178.83
  Q 382.57 166.07 375.49 153.08
  Q 373.68 149.76 367.50 139.23
  Q 363.98 133.23 359.76 125.22
  Q 355.69 117.49 339.85 89.94
  C 337.96 86.65 335.82 82.96 334.21 79.71
  C 332.50 76.25 330.19 73.25 328.44 69.90
  Q 327.34 67.81 326.13 65.78
  C 323.01 60.61 320.65 55.22 317.33 50.18
  C 316.61 49.08 316.38 47.49 315.70 46.37
  Q 310.17 37.31 305.20 27.95
  Q 304.55 26.72 303.03 24.76
  C 301.45 22.76 300.24 19.72 299.39 18.16
  Q 294.95 10.02 290.40 1.92
  Q 290.24 1.64 290.47 1.41
  L 290.69 1.18
  Q 291.04 0.83 290.63 0.55
  L 290.25 0.29
  L 291.31 0.00
  Z"
/>
<path fill="#000000" fill-opacity="0.894" d="
  M 290.25 0.29
  L 290.63 0.55
  Q 291.04 0.83 290.69 1.18
  L 290.47 1.41
  Q 290.24 1.64 290.40 1.92
  Q 294.95 10.02 299.39 18.16
  C 300.24 19.72 301.45 22.76 303.03 24.76
  Q 304.55 26.72 305.20 27.95
  Q 310.17 37.31 315.70 46.37
  C 316.38 47.49 316.61 49.08 317.33 50.18
  C 320.65 55.22 323.01 60.61 326.13 65.78
  Q 327.34 67.81 328.44 69.90
  C 330.19 73.25 332.50 76.25 334.21 79.71
  C 335.82 82.96 337.96 86.65 339.85 89.94
  Q 355.69 117.49 359.76 125.22
  Q 363.98 133.23 367.50 139.23
  Q 373.68 149.76 375.49 153.08
  Q 382.57 166.07 390.07 178.83
  Q 390.27 179.17 390.24 179.57
  Q 390.21 180.00 390.57 180.01
  Q 391.02 180.03 391.22 180.42
  Q 394.61 186.81 398.29 193.00
  C 400.57 196.84 402.24 200.64 404.80 204.70
  Q 407.87 209.54 409.36 212.45
  Q 411.72 217.06 413.99 221.70
  Q 414.25 222.22 414.81 222.38
  Q 415.33 222.53 415.28 223.07
  Q 415.23 223.58 415.46 224.04
  Q 417.19 227.51 419.27 230.77
  C 421.26 233.88 422.73 237.72 425.02 241.49
  Q 428.69 247.55 441.05 269.98
  Q 455.10 295.48 469.82 320.61
  Q 470.07 321.04 469.97 321.52
  Q 469.76 322.41 470.60 322.61
  Q 471.15 322.74 471.40 323.24
  Q 477.72 335.70 484.73 347.73
  C 488.92 354.93 493.12 362.05 496.96 369.44
  C 498.41 372.22 500.29 374.92 501.61 377.53
  Q 505.87 385.89 508.02 389.49
  C 514.46 400.26 521.05 412.41 526.69 422.20
  Q 535.56 437.60 544.04 453.23
  C 546.67 458.08 549.30 462.30 552.10 467.63
  Q 553.69 470.67 555.71 473.48
  Q 556.00 473.88 556.02 474.37
  Q 556.06 475.20 556.72 475.62
  Q 557.10 475.86 557.32 476.26
  L 563.86 488.08
  Q 564.12 488.55 564.18 489.09
  C 564.38 490.75 565.59 491.82 566.20 492.89
  Q 569.26 498.25 572.58 503.46
  Q 575.69 508.34 577.95 513.77
  A 1.07 1.06 78.6 0 1 576.97 515.25
  L 2.02 515.25
  Q 1.60 515.25 1.37 515.61
  L 0.96 516.25
  Q 0.23 514.97 1.31 513.06
  Q 145.22 257.09 289.11 1.11
  C 289.38 0.63 289.75 0.43 290.25 0.29
  Z"
/>
<path fill="#000000" fill-opacity="0.600" d="
  M 869.54 0.75
  L 1158.08 513.81
  A 0.79 0.79 0.0 0 1 1157.39 514.99
  L 579.74 514.99
  Q 585.70 503.72 591.97 492.70
  C 592.38 491.98 593.02 491.80 593.41 490.89
  Q 595.95 484.89 598.27 481.27
  C 600.87 477.21 602.90 473.20 604.81 469.86
  Q 621.34 440.91 625.54 433.30
  Q 634.94 416.27 639.18 409.18
  Q 639.25 409.07 639.25 408.81
  Q 639.25 408.50 639.41 408.24
  C 646.32 396.40 653.25 384.51 659.71 372.42
  C 664.92 362.66 670.65 353.18 676.03 343.52
  Q 697.19 305.53 718.83 267.82
  C 720.15 265.51 720.91 263.14 722.39 260.92
  C 724.51 257.78 726.52 253.53 727.95 251.03
  Q 738.01 233.41 747.99 215.76
  Q 748.07 215.62 749.20 213.06
  C 749.81 211.70 750.87 210.76 751.50 209.57
  C 758.44 196.55 766.49 182.91 773.05 170.98
  Q 786.25 146.98 799.75 123.14
  Q 819.67 87.99 839.58 52.84
  C 840.04 52.03 839.91 51.01 841.06 50.46
  Q 841.51 50.24 841.74 49.80
  C 848.05 37.08 855.22 24.90 862.18 12.54
  Q 865.60 6.49 869.54 0.75
  Z"
/>
<path fill="#000000" fill-opacity="0.788" d="
  M 1160.54 1285.36
  Q 1159.91 1286.34 1159.97 1287.24
  Q 1160.01 1287.75 1159.50 1287.75
  L 584.99 1287.75
  A 1.13 1.12 -11.9 0 0 583.96 1289.33
  C 586.97 1296.12 591.37 1303.08 594.45 1309.07
  Q 600.00 1319.83 606.42 1330.11
  C 607.14 1331.27 607.20 1333.18 607.97 1334.02
  Q 610.30 1336.60 611.68 1339.78
  C 612.29 1341.17 613.34 1341.81 613.99 1342.99
  Q 615.26 1345.27 619.68 1353.82
  Q 621.74 1357.79 623.23 1359.84
  Q 623.50 1360.22 623.49 1360.69
  Q 623.45 1361.81 624.44 1362.34
  Q 624.92 1362.60 625.08 1363.10
  C 626.26 1366.62 629.15 1368.54 629.38 1371.97
  Q 629.41 1372.44 629.78 1372.72
  C 630.81 1373.49 630.99 1375.73 632.77 1376.97
  Q 633.19 1377.26 633.38 1377.73
  Q 634.68 1380.89 637.11 1384.29
  Q 638.27 1385.91 638.29 1388.03
  Q 638.30 1388.57 638.61 1389.01
  L 639.84 1390.80
  Q 640.14 1391.23 640.55 1391.56
  Q 643.17 1393.66 643.71 1397.13
  Q 643.79 1397.62 644.17 1397.96
  Q 646.76 1400.25 647.36 1403.67
  Q 647.44 1404.13 647.79 1404.44
  Q 650.75 1407.05 651.49 1410.88
  Q 651.59 1411.38 651.91 1411.77
  C 653.98 1414.38 654.47 1417.25 656.43 1419.84
  C 658.66 1422.80 660.34 1426.83 661.88 1429.40
  Q 665.27 1435.06 668.67 1440.72
  Q 669.10 1441.44 669.87 1443.49
  C 670.73 1445.78 672.98 1447.55 673.95 1449.35
  Q 676.45 1454.01 679.04 1458.61
  C 679.75 1459.88 680.11 1461.30 680.76 1462.42
  Q 685.92 1471.28 690.97 1480.22
  C 691.67 1481.46 692.97 1482.65 693.41 1484.29
  Q 693.54 1484.77 693.88 1485.13
  C 695.67 1487.01 696.07 1489.38 697.69 1491.31
  C 699.22 1493.14 699.56 1495.49 700.92 1497.56
  Q 701.19 1497.96 701.18 1498.45
  C 701.14 1501.25 703.69 1504.08 705.48 1505.64
  Q 705.86 1505.97 705.75 1506.47
  Q 705.48 1507.57 706.39 1507.95
  Q 706.87 1508.15 707.05 1508.63
  Q 707.73 1510.50 709.22 1511.84
  Q 709.62 1512.20 709.62 1512.73
  Q 709.58 1518.04 713.90 1521.26
  Q 714.31 1521.57 714.54 1522.02
  Q 715.55 1523.98 717.70 1527.27
  C 719.55 1530.10 719.11 1532.99 721.96 1536.09
  C 722.47 1536.65 723.36 1536.91 723.27 1537.98
  Q 723.23 1538.48 723.54 1538.87
  Q 726.29 1542.33 728.69 1546.79
  Q 731.00 1551.09 736.16 1559.82
  C 737.99 1562.90 738.73 1566.51 740.96 1568.63
  Q 741.33 1568.98 741.41 1569.49
  C 742.08 1573.86 744.77 1574.85 746.41 1578.25
  C 747.67 1580.84 751.56 1586.38 751.50 1588.92
  Q 751.49 1589.42 751.89 1589.72
  Q 753.20 1590.70 753.29 1592.19
  Q 753.31 1592.66 753.70 1592.93
  C 755.65 1594.28 758.57 1600.77 759.80 1603.10
  C 760.30 1604.04 760.03 1605.18 761.25 1605.86
  Q 761.75 1606.15 762.00 1606.68
  L 762.94 1608.73
  Q 763.13 1609.15 763.02 1609.59
  Q 762.68 1610.96 764.01 1611.32
  Q 764.46 1611.44 764.71 1611.83
  Q 765.84 1613.64 766.41 1615.64
  Q 766.44 1615.75 766.55 1615.75
  L 766.95 1615.75
  Q 767.22 1615.75 767.35 1615.99
  C 768.89 1618.84 773.20 1625.48 772.99 1628.49
  Q 772.95 1628.97 773.42 1629.08
  Q 774.33 1629.30 774.27 1630.20
  Q 774.23 1630.72 774.61 1631.07
  C 777.12 1633.34 778.84 1636.93 780.53 1640.23
  C 781.56 1642.25 782.15 1645.56 783.92 1647.57
  Q 787.37 1651.49 789.51 1655.39
  C 792.03 1659.97 793.48 1662.38 795.55 1665.88
  Q 795.79 1666.28 795.74 1666.75
  Q 795.59 1668.43 797.16 1668.97
  Q 797.68 1669.15 797.93 1669.63
  L 803.82 1680.55
  Q 804.06 1681.01 804.23 1681.50
  Q 804.78 1683.15 806.21 1685.03
  Q 808.38 1687.87 812.91 1696.82
  C 814.09 1699.15 814.65 1702.00 817.15 1704.34
  Q 817.52 1704.68 817.60 1705.18
  C 817.90 1707.26 819.51 1708.67 820.21 1709.94
  Q 823.69 1716.22 827.07 1722.54
  C 828.70 1725.58 831.09 1728.79 832.98 1732.04
  Q 833.26 1732.51 833.69 1732.86
  Q 835.57 1734.38 835.46 1736.96
  Q 835.44 1737.47 835.78 1737.86
  C 837.33 1739.61 840.12 1742.83 840.45 1745.19
  Q 840.51 1745.64 840.88 1745.89
  C 842.10 1746.72 843.94 1750.89 844.68 1752.34
  C 845.52 1753.97 845.07 1755.98 847.14 1757.05
  Q 847.60 1757.28 847.81 1757.75
  C 848.65 1759.53 849.70 1760.67 850.39 1762.60
  C 851.23 1764.95 852.96 1766.80 853.92 1768.93
  C 855.48 1772.41 857.52 1775.31 859.28 1778.93
  C 860.68 1781.83 863.24 1784.40 864.07 1787.48
  C 864.95 1790.75 867.78 1794.22 869.39 1797.32
  Q 869.60 1797.73 870.03 1797.89
  Q 871.07 1798.30 871.17 1799.36
  Q 871.21 1799.81 871.64 1799.94
  L 873.46 1800.50
  C 872.91 1803.80 869.83 1802.31 867.69 1803.00
  L 294.19 1803.00
  Q 292.50 1801.28 294.60 1799.75
  Q 295.02 1799.44 295.00 1798.92
  Q 294.99 1798.77 294.99 1798.63
  Q 295.01 1798.15 295.26 1797.74
  Q 300.66 1788.90 307.71 1775.95
  Q 319.90 1753.54 337.46 1723.20
  Q 341.93 1715.48 344.42 1711.00
  C 348.11 1704.34 351.70 1698.47 355.06 1692.06
  C 356.16 1689.96 357.85 1688.23 358.83 1686.22
  C 364.65 1674.29 371.73 1663.24 377.72 1651.45
  Q 379.47 1647.99 386.46 1635.72
  C 388.30 1632.47 391.59 1627.90 393.62 1623.61
  Q 393.83 1623.16 394.21 1622.83
  C 395.13 1622.04 395.21 1620.54 395.76 1619.58
  Q 401.99 1608.62 408.29 1597.70
  Q 412.50 1590.38 416.32 1582.84
  C 420.07 1575.41 424.49 1568.50 428.48 1561.23
  C 429.36 1559.63 429.76 1557.76 431.57 1556.43
  Q 431.96 1556.14 432.17 1555.71
  C 437.63 1544.42 444.23 1533.74 450.13 1522.90
  Q 453.75 1516.25 457.65 1509.76
  C 460.31 1505.33 462.67 1500.16 465.44 1495.49
  Q 470.16 1487.51 474.76 1479.48
  C 475.64 1477.95 476.01 1476.31 476.89 1474.88
  Q 481.89 1466.75 486.33 1458.31
  C 487.88 1455.36 490.31 1452.16 491.87 1448.72
  C 492.91 1446.44 494.63 1444.43 495.69 1442.46
  C 500.76 1432.95 505.08 1425.94 508.25 1419.61
  C 510.07 1416.00 512.41 1412.75 514.29 1409.16
  C 517.04 1403.90 519.85 1399.51 522.23 1395.21
  Q 531.78 1377.93 541.58 1360.79
  C 543.92 1356.70 547.77 1349.33 551.45 1343.19
  Q 551.67 1342.81 552.03 1341.46
  Q 552.16 1340.98 552.52 1340.65
  C 554.38 1338.97 555.11 1336.44 556.04 1334.87
  C 559.79 1328.56 563.15 1323.71 566.48 1315.91
  C 566.96 1314.77 567.95 1313.66 568.76 1312.28
  Q 577.56 1297.25 581.81 1288.03
  Q 584.46 1284.21 591.47 1271.73
  Q 731.44 1022.84 871.49 773.89
  A 0.68 0.68 0.0 0 1 872.67 773.89
  L 1160.54 1285.36
  Z"
/>
<path fill="#000000" fill-opacity="0.894" d="
  M 1160.54 1285.36
  Q 1162.22 1287.38 1161.02 1289.51
  Q 1017.23 1545.00 873.46 1800.50
  L 871.64 1799.94
  Q 871.21 1799.81 871.17 1799.36
  Q 871.07 1798.30 870.03 1797.89
  Q 869.60 1797.73 869.39 1797.32
  C 867.78 1794.22 864.95 1790.75 864.07 1787.48
  C 863.24 1784.40 860.68 1781.83 859.28 1778.93
  C 857.52 1775.31 855.48 1772.41 853.92 1768.93
  C 852.96 1766.80 851.23 1764.95 850.39 1762.60
  C 849.70 1760.67 848.65 1759.53 847.81 1757.75
  Q 847.60 1757.28 847.14 1757.05
  C 845.07 1755.98 845.52 1753.97 844.68 1752.34
  C 843.94 1750.89 842.10 1746.72 840.88 1745.89
  Q 840.51 1745.64 840.45 1745.19
  C 840.12 1742.83 837.33 1739.61 835.78 1737.86
  Q 835.44 1737.47 835.46 1736.96
  Q 835.57 1734.38 833.69 1732.86
  Q 833.26 1732.51 832.98 1732.04
  C 831.09 1728.79 828.70 1725.58 827.07 1722.54
  Q 823.69 1716.22 820.21 1709.94
  C 819.51 1708.67 817.90 1707.26 817.60 1705.18
  Q 817.52 1704.68 817.15 1704.34
  C 814.65 1702.00 814.09 1699.15 812.91 1696.82
  Q 808.38 1687.87 806.21 1685.03
  Q 804.78 1683.15 804.23 1681.50
  Q 804.06 1681.01 803.82 1680.55
  L 797.93 1669.63
  Q 797.68 1669.15 797.16 1668.97
  Q 795.59 1668.43 795.74 1666.75
  Q 795.79 1666.28 795.55 1665.88
  C 793.48 1662.38 792.03 1659.97 789.51 1655.39
  Q 787.37 1651.49 783.92 1647.57
  C 782.15 1645.56 781.56 1642.25 780.53 1640.23
  C 778.84 1636.93 777.12 1633.34 774.61 1631.07
  Q 774.23 1630.72 774.27 1630.20
  Q 774.33 1629.30 773.42 1629.08
  Q 772.95 1628.97 772.99 1628.49
  C 773.20 1625.48 768.89 1618.84 767.35 1615.99
  Q 767.22 1615.75 766.95 1615.75
  L 766.55 1615.75
  Q 766.44 1615.75 766.41 1615.64
  Q 765.84 1613.64 764.71 1611.83
  Q 764.46 1611.44 764.01 1611.32
  Q 762.68 1610.96 763.02 1609.59
  Q 763.13 1609.15 762.94 1608.73
  L 762.00 1606.68
  Q 761.75 1606.15 761.25 1605.86
  C 760.03 1605.18 760.30 1604.04 759.80 1603.10
  C 758.57 1600.77 755.65 1594.28 753.70 1592.93
  Q 753.31 1592.66 753.29 1592.19
  Q 753.20 1590.70 751.89 1589.72
  Q 751.49 1589.42 751.50 1588.92
  C 751.56 1586.38 747.67 1580.84 746.41 1578.25
  C 744.77 1574.85 742.08 1573.86 741.41 1569.49
  Q 741.33 1568.98 740.96 1568.63
  C 738.73 1566.51 737.99 1562.90 736.16 1559.82
  Q 731.00 1551.09 728.69 1546.79
  Q 726.29 1542.33 723.54 1538.87
  Q 723.23 1538.48 723.27 1537.98
  C 723.36 1536.91 722.47 1536.65 721.96 1536.09
  C 719.11 1532.99 719.55 1530.10 717.70 1527.27
  Q 715.55 1523.98 714.54 1522.02
  Q 714.31 1521.57 713.90 1521.26
  Q 709.58 1518.04 709.62 1512.73
  Q 709.62 1512.20 709.22 1511.84
  Q 707.73 1510.50 707.05 1508.63
  Q 706.87 1508.15 706.39 1507.95
  Q 705.48 1507.57 705.75 1506.47
  Q 705.86 1505.97 705.48 1505.64
  C 703.69 1504.08 701.14 1501.25 701.18 1498.45
  Q 701.19 1497.96 700.92 1497.56
  C 699.56 1495.49 699.22 1493.14 697.69 1491.31
  C 696.07 1489.38 695.67 1487.01 693.88 1485.13
  Q 693.54 1484.77 693.41 1484.29
  C 692.97 1482.65 691.67 1481.46 690.97 1480.22
  Q 685.92 1471.28 680.76 1462.42
  C 680.11 1461.30 679.75 1459.88 679.04 1458.61
  Q 676.45 1454.01 673.95 1449.35
  C 672.98 1447.55 670.73 1445.78 669.87 1443.49
  Q 669.10 1441.44 668.67 1440.72
  Q 665.27 1435.06 661.88 1429.40
  C 660.34 1426.83 658.66 1422.80 656.43 1419.84
  C 654.47 1417.25 653.98 1414.38 651.91 1411.77
  Q 651.59 1411.38 651.49 1410.88
  Q 650.75 1407.05 647.79 1404.44
  Q 647.44 1404.13 647.36 1403.67
  Q 646.76 1400.25 644.17 1397.96
  Q 643.79 1397.62 643.71 1397.13
  Q 643.17 1393.66 640.55 1391.56
  Q 640.14 1391.23 639.84 1390.80
  L 638.61 1389.01
  Q 638.30 1388.57 638.29 1388.03
  Q 638.27 1385.91 637.11 1384.29
  Q 634.68 1380.89 633.38 1377.73
  Q 633.19 1377.26 632.77 1376.97
  C 630.99 1375.73 630.81 1373.49 629.78 1372.72
  Q 629.41 1372.44 629.38 1371.97
  C 629.15 1368.54 626.26 1366.62 625.08 1363.10
  Q 624.92 1362.60 624.44 1362.34
  Q 623.45 1361.81 623.49 1360.69
  Q 623.50 1360.22 623.23 1359.84
  Q 621.74 1357.79 619.68 1353.82
  Q 615.26 1345.27 613.99 1342.99
  C 613.34 1341.81 612.29 1341.17 611.68 1339.78
  Q 610.30 1336.60 607.97 1334.02
  C 607.20 1333.18 607.14 1331.27 606.42 1330.11
  Q 600.00 1319.83 594.45 1309.07
  C 591.37 1303.08 586.97 1296.12 583.96 1289.33
  A 1.13 1.12 -11.9 0 1 584.99 1287.75
  L 1159.50 1287.75
  Q 1160.01 1287.75 1159.97 1287.24
  Q 1159.91 1286.34 1160.54 1285.36
  Z"
/>
<path fill="#000000" fill-opacity="0.600" d="
  M 581.81 1288.03
  Q 577.56 1297.25 568.76 1312.28
  C 567.95 1313.66 566.96 1314.77 566.48 1315.91
  C 563.15 1323.71 559.79 1328.56 556.04 1334.87
  C 555.11 1336.44 554.38 1338.97 552.52 1340.65
  Q 552.16 1340.98 552.03 1341.46
  Q 551.67 1342.81 551.45 1343.19
  C 547.77 1349.33 543.92 1356.70 541.58 1360.79
  Q 531.78 1377.93 522.23 1395.21
  C 519.85 1399.51 517.04 1403.90 514.29 1409.16
  C 512.41 1412.75 510.07 1416.00 508.25 1419.61
  C 505.08 1425.94 500.76 1432.95 495.69 1442.46
  C 494.63 1444.43 492.91 1446.44 491.87 1448.72
  C 490.31 1452.16 487.88 1455.36 486.33 1458.31
  Q 481.89 1466.75 476.89 1474.88
  C 476.01 1476.31 475.64 1477.95 474.76 1479.48
  Q 470.16 1487.51 465.44 1495.49
  C 462.67 1500.16 460.31 1505.33 457.65 1509.76
  Q 453.75 1516.25 450.13 1522.90
  C 444.23 1533.74 437.63 1544.42 432.17 1555.71
  Q 431.96 1556.14 431.57 1556.43
  C 429.76 1557.76 429.36 1559.63 428.48 1561.23
  C 424.49 1568.50 420.07 1575.41 416.32 1582.84
  Q 412.50 1590.38 408.29 1597.70
  Q 401.99 1608.62 395.76 1619.58
  C 395.21 1620.54 395.13 1622.04 394.21 1622.83
  Q 393.83 1623.16 393.62 1623.61
  C 391.59 1627.90 388.30 1632.47 386.46 1635.72
  Q 379.47 1647.99 377.72 1651.45
  C 371.73 1663.24 364.65 1674.29 358.83 1686.22
  C 357.85 1688.23 356.16 1689.96 355.06 1692.06
  C 351.70 1698.47 348.11 1704.34 344.42 1711.00
  Q 341.93 1715.48 337.46 1723.20
  Q 319.90 1753.54 307.71 1775.95
  Q 300.66 1788.90 295.26 1797.74
  Q 295.01 1798.15 294.99 1798.63
  Q 294.99 1798.77 295.00 1798.92
  Q 295.02 1799.44 294.60 1799.75
  Q 292.50 1801.28 294.19 1803.00
  L 292.54 1803.00
  L 3.51 1288.73
  A 0.48 0.48 0.0 0 1 3.93 1288.01
  L 581.81 1288.03
  Z"
/>
</svg>
