<?xml version="1.0" encoding="UTF-8" standalone="no"?>
<!DOCTYPE svg PUBLIC "-//W3C//DTD SVG 1.1//EN" "http://www.w3.org/Graphics/SVG/1.1/DTD/svg11.dtd">
<svg xmlns="http://www.w3.org/2000/svg" version="1.1" viewBox="0.00 0.00 891.00 720.00">
<g stroke-width="2.00" fill="none" stroke-linecap="butt">
<path stroke="#cb8588" vector-effect="non-scaling-stroke" d="
  M 541.00 85.46
  L 529.75 83.72"
/>
<path stroke="#cb8588" vector-effect="non-scaling-stroke" d="
  M 488.17 76.90
  Q 481.76 76.47 475.50 74.79"
/>
<path stroke="#cb8588" vector-effect="non-scaling-stroke" d="
  M 467.23 73.16
  Q 459.51 72.78 451.97 70.81"
/>
<path stroke="#d2d6da" vector-effect="non-scaling-stroke" d="
  M 420.04 44.50
  Q 418.51 39.51 419.00 34.29"
/>
<path stroke="#b06e74" vector-effect="non-scaling-stroke" d="
  M 408.62 60.78
  Q 400.32 58.77 396.06 51.51"
/>
<path stroke="#cb8588" vector-effect="non-scaling-stroke" d="
  M 593.00 240.04
  L 581.93 243.33"
/>
<path stroke="#cb8588" vector-effect="non-scaling-stroke" d="
  M 540.90 256.63
  Q 536.82 257.30 533.21 259.50"
/>
<path stroke="#cb8588" vector-effect="non-scaling-stroke" d="
  M 530.93 260.50
  Q 530.81 260.43 530.74 260.25
  Q 530.66 260.03 530.44 260.12
  L 521.21 263.50"
/>
<path stroke="#cb8588" vector-effect="non-scaling-stroke" d="
  M 480.61 279.15
  L 472.96 282.25"
/>
<path stroke="#cb8588" vector-effect="non-scaling-stroke" d="
  M 469.71 283.75
  Q 463.22 285.85 457.26 288.98"
/>
<path stroke="#cb8588" vector-effect="non-scaling-stroke" d="
  M 414.69 308.79
  Q 407.59 311.78 401.62 315.51"
/>
<path stroke="#b06e74" vector-effect="non-scaling-stroke" d="
  M 372.00 332.04
  C 366.84 334.20 364.54 337.72 358.04 338.50"
/>
<path stroke="#d2d6da" vector-effect="non-scaling-stroke" d="
  M 447.00 480.21
  L 447.14 479.96
  Q 447.27 479.75 447.02 479.75
  Q 446.84 479.75 446.66 479.75
  Q 446.49 479.76 446.40 479.60
  L 442.42 472.02
  Q 442.11 471.42 442.76 471.25
  Q 443.49 471.06 443.50 470.54"
/>
<path stroke="#d2d6da" vector-effect="non-scaling-stroke" d="
  M 443.25 465.29
  L 438.88 460.00"
/>
<path stroke="#d2d6da" vector-effect="non-scaling-stroke" d="
  M 413.54 432.50
  Q 411.16 430.03 410.00 426.79"
/>
<path stroke="#d2d6da" vector-effect="non-scaling-stroke" d="
  M 403.47 393.85
  Q 400.34 391.37 398.21 388.00"
/>
<path stroke="#d2d6da" vector-effect="non-scaling-stroke" d="
  M 386.11 376.83
  L 383.90 372.49
  Q 383.67 372.04 383.75 371.54
  Q 383.93 370.51 383.00 370.04"
/>
<path stroke="#a4adb7" vector-effect="non-scaling-stroke" d="
  M 348.04 355.50
  Q 345.66 353.74 344.75 350.96"
/>
<path stroke="#a4adb7" vector-effect="non-scaling-stroke" d="
  M 359.00 377.04
  L 361.54 382.50"
/>
<path stroke="#a4adb7" vector-effect="non-scaling-stroke" d="
  M 384.96 406.75
  Q 385.64 408.36 386.91 409.58
  Q 387.28 409.93 387.44 410.42
  Q 387.80 411.46 388.96 411.50"
/>
<path stroke="#a4adb7" vector-effect="non-scaling-stroke" d="
  M 393.00 432.79
  Q 392.35 435.80 394.75 437.71"
/>
<path stroke="#a4adb7" vector-effect="non-scaling-stroke" d="
  M 419.50 463.79
  Q 419.82 464.48 420.54 464.79
  Q 421.02 465.00 420.50 465.00
  Q 420.36 465.00 420.20 465.00
  Q 419.67 465.00 419.86 465.50
  Q 421.95 470.94 425.50 475.40"
/>
</g>
<path fill="#ededee" d="
  M 502.06 0.00
  L 503.09 0.00
  C 512.27 30.94 524.73 56.01 541.00 85.46
  L 529.75 83.72
  L 516.29 57.51
  A 0.48 0.47 56.0 0 0 515.56 57.36
  Q 502.72 68.36 488.17 76.90
  Q 481.76 76.47 475.50 74.79
  Q 494.38 63.46 513.85 53.64
  A 0.26 0.26 0.0 0 0 513.75 53.15
  Q 471.54 49.23 430.76 37.63
  Q 430.24 37.49 430.63 37.86
  L 467.23 73.16
  Q 459.51 72.78 451.97 70.81
  L 427.08 39.84
  Q 426.72 39.39 426.27 39.74
  L 420.04 44.50
  Q 418.51 39.51 419.00 34.29
  Q 426.71 29.88 436.81 25.31
  Q 469.61 10.49 502.06 0.00
  Z
  M 501.21 3.94
  C 479.16 12.09 456.53 21.74 436.11 33.51
  A 0.39 0.39 0.0 0 0 436.26 34.23
  Q 473.85 39.15 510.99 46.79
  A 0.53 0.53 0.0 0 0 511.59 46.08
  Q 504.07 25.74 501.62 4.19
  A 0.30 0.30 0.0 0 0 501.21 3.94
  Z"
/>
<path fill="#b7bec5" d="
  M 419.00 34.29
  Q 418.51 39.51 420.04 44.50
  C 415.27 48.35 409.48 53.89 408.62 60.78
  Q 400.32 58.77 396.06 51.51
  C 401.98 43.96 410.56 38.54 419.00 34.29
  Z"
/>
<path fill="#a91d22" d="
  M 396.06 51.51
  Q 400.32 58.77 408.62 60.78
  Q 429.82 67.84 451.97 70.81
  Q 459.51 72.78 467.23 73.16
  Q 471.16 74.76 475.50 74.79
  Q 481.76 76.47 488.17 76.90
  Q 508.88 80.87 529.75 83.72
  L 541.00 85.46
  Q 554.79 87.83 568.58 90.08
  Q 612.16 97.19 654.00 111.24
  C 701.99 127.36 742.83 153.71 769.13 198.10
  A 0.21 0.20 -20.1 0 1 768.98 198.41
  C 709.69 207.50 650.40 222.73 593.00 240.04
  L 581.93 243.33
  Q 561.23 249.33 540.90 256.63
  Q 536.82 257.30 533.21 259.50
  Q 531.44 258.62 530.93 260.50
  Q 530.81 260.43 530.74 260.25
  Q 530.66 260.03 530.44 260.12
  L 521.21 263.50
  Q 500.70 270.60 480.61 279.15
  L 472.96 282.25
  Q 471.04 282.39 469.71 283.75
  Q 463.22 285.85 457.26 288.98
  Q 435.49 297.90 414.69 308.79
  Q 407.59 311.78 401.62 315.51
  Q 386.25 323.26 372.00 332.04
  C 366.84 334.20 364.54 337.72 358.04 338.50
  C 387.03 314.24 414.49 288.55 436.96 257.98
  C 458.92 228.09 471.65 194.39 465.82 156.73
  Q 460.79 124.28 437.80 100.43
  C 423.99 86.09 407.74 71.18 397.74 60.51
  Q 394.28 56.82 396.06 51.51
  Z
  M 416.30 70.65
  C 434.00 84.08 447.77 100.19 458.46 117.79
  Q 459.74 119.91 459.07 117.53
  Q 453.64 98.30 447.38 79.33
  A 0.82 0.81 87.8 0 0 446.81 78.79
  L 416.46 70.34
  A 0.18 0.18 0.0 0 0 416.30 70.65
  Z
  M 468.04 122.06
  C 481.09 109.79 493.80 99.91 509.79 91.72
  A 0.37 0.37 0.0 0 0 509.69 91.03
  L 452.69 80.14
  A 0.43 0.43 0.0 0 0 452.22 80.75
  Q 461.51 100.65 467.31 121.85
  Q 467.50 122.56 468.04 122.06
  Z
  M 522.22 140.90
  C 522.86 123.96 522.09 109.32 516.83 92.76
  Q 516.59 92.02 515.95 92.46
  Q 494.07 107.55 475.38 126.40
  A 0.89 0.89 0.0 0 0 475.76 127.88
  L 521.65 141.32
  Q 522.20 141.48 522.22 140.90
  Z
  M 521.64 93.58
  C 528.31 108.88 530.17 123.14 530.55 140.10
  A 0.30 0.29 -18.0 0 0 531.02 140.33
  Q 559.70 120.70 591.70 107.11
  A 0.68 0.67 69.7 0 0 592.08 106.28
  C 591.54 104.68 528.66 94.04 522.08 93.01
  Q 521.35 92.90 521.64 93.58
  Z
  M 538.66 147.71
  C 551.64 153.04 564.19 159.22 576.53 166.20
  A 0.59 0.58 30.2 0 0 577.31 166.00
  C 587.72 149.06 597.77 129.01 600.55 109.29
  A 0.53 0.53 0.0 0 0 599.78 108.75
  Q 567.99 125.76 538.53 146.55
  Q 537.53 147.25 538.66 147.71
  Z
  M 682.57 136.55
  Q 683.86 136.27 682.66 135.73
  Q 645.70 119.28 606.42 109.52
  A 0.36 0.35 -79.3 0 0 605.98 109.82
  Q 602.99 138.22 590.13 163.69
  Q 589.94 164.06 589.99 164.48
  Q 590.00 164.64 589.99 164.81
  A 0.29 0.28 -9.6 0 0 590.38 165.08
  Q 635.25 146.87 682.57 136.55
  Z
  M 471.45 141.48
  C 473.86 157.55 474.60 173.67 472.81 189.69
  A 0.38 0.38 0.0 0 0 473.46 190.00
  Q 492.97 170.93 513.80 153.32
  A 0.33 0.32 -54.8 0 0 513.71 152.77
  Q 493.56 145.19 472.57 140.44
  Q 471.25 140.14 471.45 141.48
  Z
  M 591.48 176.40
  C 606.53 188.22 619.25 201.50 629.74 217.48
  A 0.31 0.30 48.0 0 0 630.23 217.51
  Q 649.86 192.84 669.39 168.12
  Q 679.52 155.30 688.26 141.39
  A 0.45 0.45 0.0 0 0 687.75 140.71
  Q 638.51 154.79 591.61 175.37
  A 0.61 0.60 -37.9 0 0 591.48 176.40
  Z
  M 761.53 194.97
  C 742.64 173.92 719.93 155.88 695.11 142.27
  A 0.91 0.91 0.0 0 0 693.83 142.71
  C 681.35 171.70 663.01 193.26 640.12 214.62
  A 0.45 0.45 0.0 0 0 640.53 215.38
  C 680.31 205.76 720.52 198.63 761.28 195.58
  Q 762.03 195.53 761.53 194.97
  Z
  M 518.01 201.80
  Q 540.22 188.39 563.59 176.95
  A 0.55 0.55 0.0 0 0 563.59 175.97
  L 529.72 159.08
  Q 528.45 158.45 528.15 159.84
  Q 523.10 183.59 511.26 204.75
  A 0.42 0.42 0.0 0 0 511.83 205.33
  Q 514.80 203.73 518.01 201.80
  Z
  M 478.85 194.83
  C 477.80 195.80 476.02 197.01 475.12 198.51
  Q 474.77 199.09 475.38 199.39
  Q 487.12 205.16 495.86 214.93
  A 0.35 0.34 -49.6 0 0 496.41 214.88
  Q 512.10 190.09 519.02 161.55
  A 0.24 0.23 -87.4 0 0 518.76 161.26
  Q 517.80 161.40 517.04 162.00
  Q 497.32 177.69 478.85 194.83
  Z
  M 577.94 185.67
  C 560.86 211.19 541.28 232.35 519.22 252.42
  Q 518.20 253.35 519.51 252.91
  Q 530.97 249.03 542.38 245.01
  Q 581.53 231.23 621.80 220.29
  A 0.48 0.47 59.2 0 0 622.00 219.49
  Q 602.09 200.31 578.73 185.50
  Q 578.25 185.20 577.94 185.67
  Z
  M 502.00 223.11
  C 507.62 233.72 509.71 243.58 510.12 255.54
  A 0.32 0.32 0.0 0 0 510.69 255.74
  Q 538.22 224.01 562.36 189.65
  A 0.30 0.29 -85.4 0 0 561.99 189.21
  Q 531.54 204.25 502.40 221.69
  A 1.07 1.07 0.0 0 0 502.00 223.11
  Z
  M 451.27 248.00
  A 0.25 0.25 0.0 0 0 451.63 248.34
  L 484.78 223.17
  Q 485.47 222.65 484.79 222.12
  Q 477.56 216.44 469.36 212.29
  A 0.86 0.86 0.0 0 0 468.15 212.81
  Q 462.38 231.69 451.27 248.00
  Z
  M 493.38 231.80
  C 477.53 251.11 461.33 266.44 441.30 281.50
  Q 435.88 285.58 430.58 289.83
  Q 429.67 290.56 430.72 290.05
  Q 466.78 272.48 504.47 258.71
  A 0.91 0.90 76.0 0 0 505.06 257.72
  Q 502.95 243.34 494.16 231.81
  Q 493.78 231.31 493.38 231.80
  Z
  M 418.81 289.52
  C 443.06 275.02 464.27 256.15 481.93 235.09
  A 0.27 0.26 3.3 0 0 481.58 234.70
  Q 461.86 247.60 442.94 261.49
  Q 441.10 262.85 439.64 264.67
  Q 429.56 277.25 418.46 289.09
  Q 417.08 290.56 418.81 289.52
  Z"
/>
<path fill="#ededee" d="
  M 593.00 240.04
  C 599.68 277.32 598.26 315.75 592.71 353.74
  C 585.71 401.75 566.76 448.00 543.89 490.49
  Q 543.61 491.00 543.04 491.01
  Q 529.08 491.27 509.50 489.23
  Q 473.43 485.47 447.00 480.21
  L 447.14 479.96
  Q 447.27 479.75 447.02 479.75
  Q 446.84 479.75 446.66 479.75
  Q 446.49 479.76 446.40 479.60
  L 442.42 472.02
  Q 442.11 471.42 442.76 471.25
  Q 443.49 471.06 443.50 470.54
  C 481.29 459.77 519.60 449.28 556.79 436.61
  A 0.32 0.32 0.0 0 0 556.71 435.99
  Q 516.51 432.17 478.91 417.54
  Q 478.39 417.34 478.09 417.80
  Q 462.09 442.68 443.25 465.29
  L 438.88 460.00
  L 464.95 418.44
  A 0.33 0.33 0.0 0 0 464.58 417.95
  L 413.54 432.50
  Q 411.16 430.03 410.00 426.79
  L 459.67 409.05
  Q 460.40 408.78 459.75 408.38
  C 444.39 398.84 432.02 389.91 419.50 375.44
  Q 419.10 374.98 418.71 375.45
  L 403.47 393.85
  Q 400.34 391.37 398.21 388.00
  L 409.29 371.95
  A 0.30 0.30 0.0 0 0 408.98 371.48
  L 386.11 376.83
  L 383.90 372.49
  Q 383.67 372.04 383.75 371.54
  Q 383.93 370.51 383.00 370.04
  L 409.07 362.32
  Q 409.61 362.16 409.39 361.63
  C 407.70 357.54 405.23 352.93 404.00 349.47
  Q 398.14 333.03 401.62 315.51
  Q 407.59 311.78 414.69 308.79
  Q 409.13 332.65 420.14 353.87
  A 0.44 0.44 0.0 0 0 420.90 353.91
  Q 441.39 322.92 457.26 288.98
  Q 463.22 285.85 469.71 283.75
  Q 455.99 320.23 435.79 353.43
  A 0.24 0.24 0.0 0 0 436.06 353.78
  Q 471.66 342.59 506.49 329.20
  A 0.78 0.78 0.0 0 0 506.69 327.85
  Q 483.64 309.78 472.96 282.25
  L 480.61 279.15
  C 487.19 296.79 498.12 309.31 511.67 321.82
  A 0.40 0.40 0.0 0 0 512.32 321.65
  C 518.37 302.65 522.02 283.91 521.21 263.50
  L 530.44 260.12
  Q 530.66 260.03 530.74 260.25
  Q 530.81 260.43 530.93 260.50
  Q 530.38 291.92 521.80 322.23
  Q 521.63 322.85 522.22 322.61
  Q 555.03 309.23 584.40 289.43
  A 0.72 0.72 0.0 0 0 584.32 288.19
  Q 558.18 275.26 533.21 259.50
  Q 536.82 257.30 540.90 256.63
  Q 562.22 271.79 584.84 284.51
  A 0.47 0.47 0.0 0 0 585.54 284.09
  Q 585.06 263.88 581.93 243.33
  L 593.00 240.04
  Z
  M 585.73 300.15
  C 585.75 298.70 586.22 296.17 585.82 294.24
  Q 585.68 293.60 585.15 293.99
  C 565.84 308.33 545.78 319.66 524.85 330.75
  Q 524.27 331.06 524.81 331.43
  Q 550.41 348.71 579.99 357.57
  A 0.57 0.57 0.0 0 0 580.71 357.12
  Q 585.35 328.96 585.73 300.15
  Z
  M 579.66 360.69
  C 557.53 355.41 537.99 347.15 518.09 336.34
  Q 517.46 336.00 517.22 336.68
  Q 506.27 368.11 490.18 397.26
  A 0.42 0.42 0.0 0 0 490.70 397.85
  Q 524.76 385.27 558.40 371.10
  Q 569.23 366.54 579.71 361.16
  A 0.25 0.25 0.0 0 0 579.66 360.69
  Z
  M 428.71 366.99
  C 440.48 381.93 456.67 394.70 473.20 403.83
  A 0.38 0.37 29.0 0 0 473.71 403.69
  Q 491.79 373.31 505.51 340.73
  A 0.44 0.44 0.0 0 0 504.93 340.15
  Q 467.94 356.08 428.96 366.24
  A 0.47 0.47 0.0 0 0 428.71 366.99
  Z
  M 487.56 409.31
  Q 486.80 409.65 486.47 409.78
  Q 485.04 410.36 486.45 411.00
  Q 521.55 426.72 559.50 433.23
  Q 559.96 433.31 560.11 432.87
  Q 571.12 400.51 578.99 367.24
  Q 579.46 365.26 577.69 366.26
  C 548.83 382.44 517.81 395.92 487.56 409.31
  Z
  M 556.76 439.87
  C 535.18 449.93 512.09 458.33 489.99 463.71
  Q 471.21 468.28 452.27 472.49
  A 0.25 0.25 0.0 0 0 452.28 472.98
  Q 495.82 481.34 539.77 487.19
  A 1.09 1.09 0.0 0 0 540.92 486.52
  Q 549.79 464.17 557.45 441.48
  Q 557.73 440.67 557.71 440.43
  Q 557.66 439.45 556.76 439.87
  Z"
/>
<path fill="#b7bec5" d="
  M 372.00 332.04
  Q 358.21 341.92 348.04 355.50
  Q 345.66 353.74 344.75 350.96
  L 358.04 338.50
  C 364.54 337.72 366.84 334.20 372.00 332.04
  Z"
/>
<path fill="#909ca9" d="
  M 344.75 350.96
  Q 345.66 353.74 348.04 355.50
  C 342.19 363.28 336.45 373.32 334.98 383.22
  Q 334.89 383.85 335.51 383.67
  L 359.00 377.04
  L 361.54 382.50
  L 336.59 388.48
  A 2.38 2.37 -12.7 0 0 334.82 391.27
  C 338.59 409.30 350.72 423.81 364.76 434.91
  Q 365.17 435.24 365.45 434.80
  Q 374.80 420.45 384.96 406.75
  Q 385.64 408.36 386.91 409.58
  Q 387.28 409.93 387.44 410.42
  Q 387.80 411.46 388.96 411.50
  Q 378.70 424.17 369.29 437.51
  Q 369.03 437.87 369.26 438.24
  Q 370.69 440.54 372.43 439.93
  Q 382.72 436.34 393.00 432.79
  Q 392.35 435.80 394.75 437.71
  L 376.37 442.70
  A 0.30 0.30 0.0 0 0 376.28 443.24
  C 390.12 452.48 404.10 457.88 419.50 463.79
  Q 419.82 464.48 420.54 464.79
  Q 421.02 465.00 420.50 465.00
  Q 420.36 465.00 420.20 465.00
  Q 419.67 465.00 419.86 465.50
  Q 421.95 470.94 425.50 475.40
  C 391.10 466.41 344.08 448.84 325.98 415.59
  C 312.89 391.52 327.45 367.98 344.75 350.96
  Z"
/>
<path fill="#b7bec5" d="
  M 383.00 370.04
  Q 383.93 370.51 383.75 371.54
  Q 383.67 372.04 383.90 372.49
  L 386.11 376.83
  L 361.54 382.50
  L 359.00 377.04
  L 383.00 370.04
  Z"
/>
<path fill="#b7bec5" d="
  M 398.21 388.00
  Q 400.34 391.37 403.47 393.85
  L 388.96 411.50
  Q 387.80 411.46 387.44 410.42
  Q 387.28 409.93 386.91 409.58
  Q 385.64 408.36 384.96 406.75
  L 398.21 388.00
  Z"
/>
<path fill="#b7bec5" d="
  M 410.00 426.79
  Q 411.16 430.03 413.54 432.50
  L 394.75 437.71
  Q 392.35 435.80 393.00 432.79
  L 410.00 426.79
  Z"
/>
<path fill="#b7bec5" d="
  M 438.88 460.00
  L 443.25 465.29
  L 440.20 469.25
  Q 439.82 469.75 440.32 470.10
  Q 441.73 471.09 443.50 470.54
  Q 443.49 471.06 442.76 471.25
  Q 442.11 471.42 442.42 472.02
  L 446.40 479.60
  Q 446.49 479.76 446.66 479.75
  Q 446.84 479.75 447.02 479.75
  Q 447.27 479.75 447.14 479.96
  L 447.00 480.21
  Q 436.14 478.39 425.50 475.40
  Q 421.95 470.94 419.86 465.50
  Q 419.67 465.00 420.20 465.00
  Q 420.36 465.00 420.50 465.00
  Q 421.02 465.00 420.54 464.79
  Q 419.82 464.48 419.50 463.79
  L 433.24 468.40
  Q 433.76 468.58 434.04 468.10
  L 438.88 460.00
  Z"
/>
<path fill="#231f1f" d="
  M 253.05 492.82
  C 251.61 482.68 256.01 473.29 267.78 475.97
  Q 268.25 476.07 268.25 476.55
  L 268.25 480.47
  Q 268.25 481.19 267.58 480.94
  C 258.29 477.47 258.39 487.00 258.51 492.74
  Q 258.52 493.25 259.02 493.25
  L 266.27 493.26
  Q 266.84 493.26 266.84 493.83
  L 266.84 497.33
  Q 266.84 498.00 266.17 498.00
  L 259.50 498.00
  A 1.00 1.00 0.0 0 0 258.50 499.00
  L 258.50 528.25
  Q 258.50 528.75 258.00 528.75
  L 253.49 528.75
  A 0.76 0.75 90.0 0 1 252.74 527.99
  L 252.77 498.73
  Q 252.77 498.25 252.29 498.25
  L 247.38 498.25
  Q 246.75 498.25 246.75 497.62
  L 246.75 494.25
  Q 246.75 493.50 247.50 493.50
  L 252.46 493.50
  Q 253.14 493.50 253.05 492.82
  Z"
/>
<circle fill="#231f1f" cx="71.29" cy="480.53" r="3.66"/>
<path fill="#231f1f" d="
  M 564.20 479.63
  C 564.21 480.86 564.98 492.50 563.20 491.71
  Q 562.73 491.50 562.73 491.00
  L 562.73 479.65
  Q 562.73 479.01 562.09 479.01
  L 558.96 478.99
  Q 558.29 478.98 558.31 478.31
  C 558.37 476.96 566.67 477.50 568.02 477.51
  Q 568.95 477.52 568.47 478.32
  L 568.28 478.65
  Q 568.07 479.00 567.66 479.00
  L 564.83 479.00
  Q 564.20 479.00 564.20 479.63
  Z"
/>
<path fill="#231f1f" d="
  M 572.21 481.04
  L 572.27 491.11
  Q 572.27 491.75 571.64 491.75
  L 571.10 491.75
  Q 570.45 491.75 570.45 491.10
  L 570.62 478.46
  A 1.33 1.32 33.6 0 1 573.16 477.95
  L 577.76 488.54
  A 0.31 0.30 45.5 0 0 578.32 488.55
  L 582.98 478.01
  Q 583.21 477.50 583.77 477.50
  L 584.50 477.50
  Q 585.25 477.50 585.25 478.25
  L 585.25 491.12
  Q 585.25 491.75 584.63 491.75
  L 584.17 491.75
  Q 583.58 491.75 583.59 491.17
  L 583.64 481.46
  A 0.35 0.34 57.4 0 0 582.98 481.31
  L 578.47 491.51
  A 0.60 0.60 0.0 0 1 577.37 491.51
  L 572.76 480.92
  A 0.29 0.29 0.0 0 0 572.21 481.04
  Z"
/>
<path fill="#231f1f" d="
  M 50.30 487.20
  Q 39.41 513.33 32.51 527.80
  Q 31.63 529.63 29.41 528.49
  Q 29.00 528.28 28.81 527.86
  C 22.78 514.37 16.01 500.83 11.11 486.91
  Q 10.71 485.78 10.72 486.98
  L 10.77 528.24
  Q 10.77 528.75 10.26 528.75
  L 5.75 528.75
  Q 5.25 528.75 5.25 528.25
  L 5.25 479.61
  Q 5.25 478.97 5.89 478.98
  L 12.37 479.12
  Q 12.97 479.13 13.21 479.68
  Q 21.10 497.55 28.89 515.40
  Q 29.81 517.49 30.29 519.63
  A 0.17 0.17 0.0 0 0 30.62 519.66
  L 48.46 479.75
  Q 48.69 479.25 49.24 479.25
  L 55.50 479.25
  Q 56.00 479.25 56.00 479.75
  L 56.00 528.50
  Q 56.00 529.00 55.50 529.00
  L 50.84 529.00
  Q 50.18 529.00 50.19 528.35
  L 50.39 487.22
  Q 50.39 486.98 50.30 487.20
  Z"
/>
<path fill="#231f1f" d="
  M 282.00 498.56
  Q 281.98 509.02 282.02 519.51
  C 282.04 524.70 285.93 525.29 290.03 524.11
  Q 290.55 523.97 290.73 524.48
  Q 292.27 528.72 288.23 529.32
  C 277.42 530.92 276.26 524.51 276.25 515.55
  Q 276.25 507.26 276.25 499.00
  Q 276.25 498.00 275.25 498.00
  L 270.63 498.00
  Q 270.00 498.00 270.00 497.37
  L 270.00 493.88
  Q 270.00 493.25 270.63 493.25
  L 275.75 493.25
  Q 276.25 493.25 276.25 492.75
  L 276.25 485.19
  Q 276.25 484.61 276.80 484.44
  L 281.39 482.96
  Q 282.00 482.76 282.00 483.41
  L 282.00 492.75
  Q 282.00 493.25 282.50 493.25
  L 290.37 493.25
  Q 291.00 493.25 291.00 493.87
  L 291.00 497.38
  Q 291.00 498.00 290.38 498.00
  L 282.56 498.00
  Q 282.01 498.00 282.00 498.56
  Z"
/>
<path fill="#231f1f" d="
  M 315.32 495.74
  A 9.96 9.96 0.0 0 1 305.36 505.70
  A 9.96 9.96 0.0 0 1 295.40 495.74
  A 9.96 9.96 0.0 0 1 305.36 485.78
  A 9.96 9.96 0.0 0 1 315.32 495.74
  Z
  M 314.25 495.72
  A 8.87 8.87 0.0 0 0 305.38 486.85
  A 8.87 8.87 0.0 0 0 296.51 495.72
  A 8.87 8.87 0.0 0 0 305.38 504.59
  A 8.87 8.87 0.0 0 0 314.25 495.72
  Z"
/>
<path fill="#231f1f" d="
  M 303.00 497.30
  L 303.00 501.39
  Q 303.00 502.04 302.36 502.00
  L 301.74 501.97
  Q 301.22 501.95 301.22 501.43
  L 301.22 489.89
  Q 301.22 489.43 301.67 489.36
  C 303.89 489.00 307.61 488.83 309.00 490.94
  C 310.24 492.79 309.15 494.64 307.47 495.75
  Q 306.98 496.07 307.27 496.58
  L 309.95 501.25
  Q 310.38 502.00 309.52 502.00
  L 308.72 502.00
  Q 308.08 502.00 307.81 501.42
  C 306.82 499.29 305.71 496.06 303.53 496.62
  Q 303.00 496.76 303.00 497.30
  Z
  M 303.25 491.04
  L 303.23 494.54
  A 0.46 0.46 0.0 0 0 303.69 495.00
  L 305.11 495.01
  A 2.64 1.93 0.2 0 0 307.76 493.09
  L 307.76 492.53
  A 2.64 1.93 0.2 0 0 305.13 490.59
  L 303.71 490.58
  A 0.46 0.46 0.0 0 0 303.25 491.04
  Z"
/>
<path fill="#231f1f" d="
  M 108.78 499.57
  C 96.00 491.61 85.29 504.80 89.60 516.95
  C 92.69 525.66 101.56 526.47 109.07 522.23
  Q 109.70 521.88 109.67 522.60
  L 109.48 526.74
  Q 109.46 527.27 108.98 527.51
  C 92.77 535.56 79.24 521.74 83.89 505.13
  C 87.06 493.83 98.40 490.12 109.17 493.91
  Q 109.75 494.11 109.72 494.72
  L 109.54 499.17
  Q 109.51 500.02 108.78 499.57
  Z"
/>
<path fill="#231f1f" d="
  M 142.55 522.80
  C 132.71 507.79 145.38 486.78 163.85 493.41
  C 178.76 498.76 177.24 522.89 163.71 528.45
  C 157.22 531.13 146.85 529.37 142.55 522.80
  Z
  M 168.3407 507.7016
  A 10.44 10.44 0.0 0 0 157.7739 497.3899
  L 155.9540 497.4121
  A 10.44 10.44 0.0 0 0 145.6424 507.9789
  L 145.7193 514.2784
  A 10.44 10.44 0.0 0 0 156.2861 524.5901
  L 158.1060 524.5679
  A 10.44 10.44 0.0 0 0 168.4176 514.0011
  L 168.3407 507.7016
  Z"
/>
<path fill="#231f1f" d="
  M 192.50 524.72
  C 197.22 523.81 198.26 518.24 193.85 515.71
  Q 189.90 513.44 185.88 511.33
  C 180.65 508.58 178.82 501.39 182.75 496.90
  C 187.03 492.01 194.62 491.52 200.44 494.02
  Q 200.95 494.24 200.96 494.80
  L 201.02 499.18
  Q 201.03 499.83 200.46 499.51
  C 196.73 497.38 187.08 495.24 186.51 502.28
  C 186.16 506.45 193.99 509.27 197.14 510.89
  C 206.11 515.49 203.31 526.76 194.32 529.14
  Q 187.54 530.93 181.25 528.00
  Q 180.75 527.76 180.75 527.21
  L 180.75 522.49
  Q 180.75 521.63 181.46 522.13
  Q 186.74 525.83 192.50 524.72
  Z"
/>
<path fill="#231f1f" d="
  M 243.06 508.19
  C 245.94 537.01 205.65 536.20 208.44 509.46
  Q 209.96 494.87 222.36 492.77
  C 233.77 490.84 241.88 496.32 243.06 508.19
  Z
  M 236.70 516.75
  C 239.33 507.91 236.39 496.21 224.89 497.22
  C 214.98 498.08 212.43 509.46 215.21 517.26
  C 218.74 527.20 233.47 527.63 236.70 516.75
  Z"
/>
<path fill="#231f1f" d="
  M 124.42 499.63
  Q 127.30 491.90 135.89 492.81
  A 0.96 0.95 3.0 0 1 136.75 493.76
  L 136.75 498.25
  Q 136.75 498.98 136.07 498.71
  C 120.88 492.52 123.68 521.25 123.83 528.13
  A 0.85 0.84 89.3 0 1 122.99 529.00
  L 118.99 529.00
  A 0.76 0.76 0.0 0 1 118.23 528.24
  L 118.26 494.00
  Q 118.26 493.50 118.75 493.50
  L 123.27 493.50
  Q 123.80 493.50 123.80 494.02
  L 123.84 499.53
  A 0.30 0.30 0.0 0 0 124.42 499.63
  Z"
/>
<rect fill="#231f1f" x="68.75" y="495.50" width="5.00" height="31.00" rx="0.51"/>
<path fill="#231f1f" d="
  M 0.00 581.94
  L 0.00 579.69
  C 3.89 541.23 42.68 536.73 71.90 546.51
  Q 72.90 546.84 72.89 547.90
  L 72.69 564.71
  A 0.28 0.27 13.5 0 1 72.29 564.95
  C 55.57 556.15 21.64 550.14 17.85 577.67
  C 16.33 588.70 28.23 597.65 36.54 602.94
  C 48.90 610.82 62.98 618.58 71.93 629.80
  C 81.76 642.13 80.49 663.49 69.45 674.69
  C 51.67 692.74 22.65 689.69 0.70 681.42
  Q 0.16 681.22 0.17 680.64
  L 0.45 662.30
  A 0.64 0.64 0.0 0 1 1.37 661.74
  C 15.30 668.83 32.54 677.13 48.40 670.42
  C 55.23 667.53 60.34 661.13 60.88 653.67
  C 61.76 641.23 50.79 631.92 41.56 626.19
  C 24.85 615.82 2.33 604.05 0.00 581.94
  Z"
/>
<path fill="#231f1f" d="
  M 207.97 720.00
  L 184.44 720.00
  Q 169.13 701.51 160.27 692.49
  C 158.02 690.20 154.16 688.39 150.57 687.74
  C 122.23 682.60 103.36 669.42 95.66 641.01
  C 85.28 602.68 97.27 553.76 141.83 544.34
  C 200.08 532.02 231.19 574.01 224.31 628.29
  C 221.99 646.64 211.64 666.55 196.18 677.19
  C 190.66 680.99 183.53 683.33 176.92 685.69
  A 0.92 0.92 0.0 0 0 176.57 687.19
  L 207.97 720.00
  Z
  M 171.85 670.53
  C 206.47 662.20 211.98 621.72 204.72 592.85
  C 200.43 575.78 190.36 562.83 172.88 558.69
  C 158.40 555.27 141.94 556.93 130.09 566.54
  C 111.48 581.66 107.96 605.51 110.84 628.07
  Q 112.78 643.27 122.92 655.82
  C 135.76 671.70 152.87 675.10 171.85 670.53
  Z"
/>
<path fill="#231f1f" d="
  M 388.39 561.29
  C 380.91 565.60 376.74 573.99 377.80 582.51
  C 378.84 590.96 391.25 600.23 398.11 604.44
  C 411.48 612.65 431.62 623.46 436.60 639.49
  C 440.42 651.79 438.21 666.05 428.68 675.40
  C 410.65 693.09 382.34 689.56 360.70 681.60
  Q 360.11 681.38 360.11 680.75
  L 360.32 662.62
  A 0.80 0.80 0.0 0 1 361.50 661.92
  Q 369.20 666.01 377.17 669.29
  C 391.44 675.16 416.14 675.64 420.39 656.04
  C 423.18 643.20 412.28 633.41 402.37 627.09
  C 382.01 614.11 350.06 597.73 362.98 566.70
  C 374.33 539.46 408.68 538.67 432.32 546.95
  Q 432.75 547.10 432.75 547.55
  L 432.75 564.94
  A 0.35 0.35 0.0 0 1 432.23 565.24
  C 420.36 558.81 400.90 554.07 388.39 561.29
  Z"
/>
<path fill="#231f1f" d="
  M 321.25 668.79
  L 321.25 684.20
  A 0.55 0.55 0.0 0 1 320.70 684.75
  L 247.30 684.75
  A 0.55 0.55 0.0 0 1 246.75 684.20
  L 246.75 544.55
  A 0.55 0.55 0.0 0 1 247.30 544.00
  L 263.95 544.00
  A 0.55 0.55 0.0 0 1 264.50 544.55
  L 264.50 667.71
  A 0.55 0.55 0.0 0 0 265.05 668.26
  L 320.70 668.24
  A 0.55 0.55 0.0 0 1 321.25 668.79
  Z"
/>
<path fill="#231f1f" d="
  M 724.52 640.09
  C 728.81 677.48 761.17 679.92 788.05 663.55
  A 0.79 0.79 0.0 0 1 789.25 664.23
  L 789.25 678.21
  Q 789.25 678.66 788.85 678.86
  C 769.42 688.61 747.55 691.77 728.44 679.61
  C 711.19 668.63 707.41 651.84 707.75 632.26
  C 708.22 606.34 725.79 583.02 752.96 581.98
  C 776.71 581.07 792.11 596.44 794.64 619.82
  Q 795.29 625.85 794.90 639.09
  Q 794.89 639.50 794.48 639.50
  L 725.05 639.50
  Q 724.46 639.50 724.52 640.09
  Z
  M 726.04 624.30
  Q 725.75 625.50 726.98 625.50
  L 778.00 625.50
  Q 778.51 625.50 778.46 624.99
  Q 777.62 616.75 773.95 609.29
  C 767.25 595.67 749.12 593.34 738.07 601.94
  C 731.10 607.36 728.16 615.68 726.04 624.30
  Z"
/>
<path fill="#231f1f" d="
  M 891.00 591.06
  L 891.00 592.81
  C 888.24 605.37 870.60 603.92 870.86 591.76
  C 871.12 579.32 888.43 578.21 891.00 591.06
  Z
  M 889.59 591.78
  A 8.88 8.88 0.0 0 0 880.71 582.90
  A 8.88 8.88 0.0 0 0 871.83 591.78
  A 8.88 8.88 0.0 0 0 880.71 600.66
  A 8.88 8.88 0.0 0 0 889.59 591.78
  Z"
/>
<path fill="#231f1f" d="
  M 465.92 640.36
  C 470.68 678.44 503.03 679.99 529.91 663.70
  A 0.39 0.38 74.3 0 1 530.49 664.03
  L 530.53 678.62
  Q 530.53 679.13 530.07 679.36
  C 509.52 689.32 487.26 692.30 467.85 678.41
  C 451.46 666.68 448.55 649.44 449.48 630.25
  C 450.35 612.34 459.42 595.85 475.24 587.41
  C 488.65 580.25 506.72 580.07 519.56 588.87
  C 536.61 600.54 536.83 621.01 536.47 639.32
  A 0.70 0.70 0.0 0 1 535.77 640.01
  L 466.25 639.98
  Q 465.87 639.98 465.92 640.36
  Z
  M 519.53 625.76
  Q 520.05 625.76 519.99 625.25
  C 519.25 617.89 516.39 608.70 511.17 603.54
  C 504.03 596.46 491.77 595.56 483.26 599.93
  C 474.01 604.69 469.14 615.13 467.60 625.26
  Q 467.52 625.74 468.01 625.74
  L 519.53 625.76
  Z"
/>
<path fill="#231f1f" d="
  M 830.73 600.83
  Q 833.22 596.95 835.87 593.33
  C 843.44 583.01 853.62 582.42 865.05 582.77
  A 0.73 0.72 -89.2 0 1 865.75 583.50
  L 865.75 599.52
  A 0.55 0.55 0.0 0 1 865.03 600.04
  C 861.35 598.83 857.26 597.48 853.52 597.80
  C 839.56 598.96 831.48 614.48 830.74 627.01
  Q 829.82 642.71 830.39 683.87
  Q 830.40 684.50 829.77 684.50
  L 813.50 684.50
  Q 812.75 684.50 812.75 683.75
  L 812.75 585.50
  Q 812.75 584.75 813.50 584.75
  L 829.75 584.75
  Q 830.25 584.75 830.25 585.25
  L 830.25 600.69
  A 0.26 0.26 0.0 0 0 830.73 600.83
  Z"
/>
<path fill="#231f1f" d="
  M 572.27 601.07
  C 577.25 592.99 581.55 586.53 591.31 584.03
  C 595.66 582.91 601.56 583.19 606.59 582.95
  A 0.63 0.63 0.0 0 1 607.25 583.58
  L 607.25 599.77
  A 0.49 0.49 0.0 0 1 606.61 600.24
  C 603.09 599.13 599.21 597.79 595.65 597.99
  C 581.21 598.81 572.97 614.64 572.23 627.50
  Q 571.33 643.45 571.89 684.12
  Q 571.90 684.75 571.27 684.75
  L 555.00 684.75
  Q 554.25 684.75 554.25 684.00
  L 554.25 585.50
  A 0.50 0.50 0.0 0 1 554.75 585.00
  L 571.15 585.00
  A 0.64 0.64 0.0 0 1 571.79 585.64
  L 571.78 600.94
  A 0.27 0.26 -29.6 0 0 572.27 601.07
  Z"
/>
<path fill="#231f1f" d="
  M 659.58 664.70
  L 689.20 585.47
  Q 689.37 585.00 689.88 585.00
  L 705.96 585.00
  Q 706.64 585.00 706.39 585.63
  L 667.17 684.15
  A 0.96 0.95 10.8 0 1 666.28 684.75
  L 650.72 684.75
  Q 650.15 684.75 649.95 684.22
  Q 630.65 635.13 612.96 585.45
  A 0.34 0.34 0.0 0 1 613.28 585.00
  L 630.48 585.00
  Q 631.00 585.00 631.16 585.49
  Q 644.21 625.40 658.97 664.70
  Q 659.28 665.52 659.58 664.70
  Z"
/>
<path fill="#231f1f" d="
  M 878.50 593.69
  L 878.50 597.37
  Q 878.50 598.00 877.88 598.00
  L 877.38 598.00
  Q 876.75 598.00 876.75 597.37
  L 876.75 586.00
  Q 876.75 585.43 877.32 585.34
  C 881.54 584.67 888.90 586.65 882.73 592.24
  A 0.36 0.35 -35.1 0 0 882.65 592.68
  L 885.21 597.26
  Q 885.72 598.18 884.67 598.18
  L 883.95 598.18
  Q 883.36 598.18 883.13 597.63
  C 882.30 595.67 881.07 592.15 879.09 592.85
  Q 878.50 593.06 878.50 593.69
  Z
  M 878.71 589.47
  L 878.48 590.34
  Q 878.28 591.12 879.08 591.21
  C 880.92 591.42 885.36 589.90 882.58 587.46
  Q 882.20 587.13 881.71 587.08
  L 879.56 586.87
  Q 879.10 586.82 878.82 587.18
  Q 878.37 587.77 878.66 588.55
  Q 878.83 589.00 878.71 589.47
  Z"
/>
</svg>
