<?xml version="1.0" encoding="UTF-8" standalone="no"?>
<!DOCTYPE svg PUBLIC "-//W3C//DTD SVG 1.1//EN" "http://www.w3.org/Graphics/SVG/1.1/DTD/svg11.dtd">
<svg xmlns="http://www.w3.org/2000/svg" version="1.1" viewBox="0.00 0.00 641.00 635.00">
<g stroke-width="2.00" fill="none" stroke-linecap="butt">
<path stroke="#c5c5c5" vector-effect="non-scaling-stroke" d="
  M 262.32 295.01
  L 262.08 304.89
  A 1.14 1.14 0.0 0 1 260.94 306.00
  L 240.05 306.00
  A 1.00 1.00 0.0 0 0 239.05 307.00
  L 239.39 375.99"
/>
<path stroke="#c5c5c5" vector-effect="non-scaling-stroke" d="
  M 225.62 375.99
  L 225.95 307.40
  A 1.39 1.38 -0.2 0 0 224.54 306.01
  L 204.53 306.33
  A 1.81 1.81 0.0 0 1 202.71 304.23
  Q 203.43 299.75 202.54 295.06"
/>
<path stroke="#c5c5c5" vector-effect="non-scaling-stroke" d="
  M 356.67 295.01
  Q 357.25 335.29 356.96 375.50
  Q 356.96 375.86 356.10 375.81"
/>
<path stroke="#c5c5c5" vector-effect="non-scaling-stroke" d="
  M 424.35 326.96
  L 423.91 339.91
  Q 423.90 340.33 424.31 340.24
  Q 424.53 340.20 424.71 340.00"
/>
<path stroke="#eaa9a9" vector-effect="non-scaling-stroke" d="
  M 88.14 186.34
  Q 84.58 185.23 80.53 186.32
  A 0.09 0.09 0.0 0 0 80.53 186.50
  L 81.50 186.79"
/>
<path stroke="#eaa9a9" vector-effect="non-scaling-stroke" d="
  M 307.83 54.04
  A 2.09 2.09 0.0 0 0 305.74 51.95
  A 2.09 2.09 0.0 0 0 303.65 54.04
  A 2.09 2.09 0.0 0 0 305.74 56.13
  A 2.09 2.09 0.0 0 0 307.83 54.04"
/>
<path stroke="#eaa9a9" vector-effect="non-scaling-stroke" d="
  M 282.46 68.10
  L 278.76 53.63
  Q 278.60 53.00 277.95 53.00
  L 275.17 53.00
  Q 274.50 53.00 274.32 53.65
  L 270.54 68.02
  A 0.34 0.34 0.0 0 1 269.89 68.02
  L 266.12 53.66
  Q 265.94 52.99 265.24 52.99
  L 262.66 53.02
  Q 261.93 53.02 262.12 53.73
  L 267.57 73.39
  Q 267.75 74.03 268.41 74.02
  L 271.64 73.95
  Q 272.21 73.94 272.36 73.39
  L 276.11 59.49
  Q 276.39 58.49 276.65 59.49
  L 280.29 73.18
  Q 280.41 73.62 280.83 73.79
  C 283.94 75.02 285.13 73.76 285.83 70.80
  Q 287.84 62.29 290.48 53.90
  Q 290.75 53.04 289.85 53.06
  L 287.30 53.11
  Q 286.70 53.12 286.55 53.70
  L 282.96 68.10
  Q 282.71 69.08 282.46 68.10"
/>
<path stroke="#eaa9a9" vector-effect="non-scaling-stroke" d="
  M 316.00 58.25
  L 316.00 55.57
  Q 316.00 54.89 315.32 55.00
  L 312.60 55.48
  Q 311.85 55.61 312.11 56.32
  Q 313.03 58.88 310.67 59.10
  Q 310.00 59.16 310.00 59.83
  L 310.00 60.99
  Q 310.00 61.51 310.51 61.64
  L 311.72 61.94
  Q 312.28 62.08 312.26 62.65
  C 312.19 65.54 311.67 71.00 313.78 73.03
  C 314.92 74.14 321.50 75.16 319.84 71.67
  Q 319.64 71.25 319.17 71.26
  C 315.04 71.27 315.91 65.83 316.03 63.09
  Q 316.05 62.59 316.41 62.23
  Q 317.27 61.40 318.28 62.01
  Q 318.79 62.31 319.22 61.92
  Q 320.24 60.98 320.00 59.59
  Q 319.89 59.00 319.29 59.00
  L 316.75 59.00
  Q 316.00 59.00 316.00 58.25"
/>
<path stroke="#eaa9a9" vector-effect="non-scaling-stroke" d="
  M 297.57 63.13
  L 301.45 61.51
  Q 301.84 61.35 301.96 60.94
  C 302.67 58.54 299.33 58.83 298.03 59.58
  Q 297.57 59.84 297.09 59.60
  Q 295.36 58.74 293.53 59.13
  Q 293.00 59.24 293.00 59.79
  L 293.00 73.37
  Q 293.00 74.00 293.62 74.00
  L 296.22 74.00
  Q 296.69 74.00 296.70 73.53
  L 296.86 64.17
  Q 296.87 63.42 297.57 63.13"
/>
<path stroke="#eaa9a9" vector-effect="non-scaling-stroke" d="
  M 307.7617 59.7933
  A 0.77 0.77 0.0 0 0 306.9931 59.0219
  L 304.7931 59.0181
  A 0.77 0.77 0.0 0 0 304.0217 59.7867
  L 303.9983 73.2267
  A 0.77 0.77 0.0 0 0 304.7669 73.9981
  L 306.9669 74.0019
  A 0.77 0.77 0.0 0 0 307.7383 73.2333
  L 307.7617 59.7933"
/>
<path stroke="#eaa9a9" vector-effect="non-scaling-stroke" d="
  M 325.28 68.61
  A 0.55 0.55 0.0 0 1 325.74 67.75
  L 334.75 67.75
  Q 335.23 67.75 335.30 67.28
  C 337.21 54.96 318.42 56.80 321.67 69.04
  Q 323.19 74.75 329.87 74.01
  C 332.48 73.71 334.61 73.86 334.51 70.76
  A 0.72 0.72 0.0 0 0 333.43 70.16
  Q 328.31 73.16 325.28 68.61"
/>
<path stroke="#eaa9a9" vector-effect="non-scaling-stroke" d="
  M 354.79 72.85
  Q 355.76 74.81 358.25 73.88
  Q 358.64 73.73 358.66 73.31
  C 358.88 69.66 359.81 60.61 355.53 59.23
  Q 351.87 58.05 347.47 60.09
  Q 346.99 60.32 346.99 60.85
  L 347.02 62.88
  Q 347.03 63.88 347.81 63.24
  Q 352.00 59.78 354.87 63.79
  A 0.74 0.74 0.0 0 1 354.28 64.96
  C 350.03 65.03 344.02 65.92 345.98 72.05
  Q 346.13 72.54 346.56 72.82
  Q 350.39 75.34 354.30 72.72
  Q 354.62 72.51 354.79 72.85"
/>
<path stroke="#eaa9a9" vector-effect="non-scaling-stroke" d="
  M 250.75 92.00
  L 253.15 92.00
  Q 253.80 92.00 253.77 91.35
  L 253.69 89.27
  Q 253.65 88.54 252.98 88.82
  C 248.68 90.58 248.73 83.60 253.49 83.91
  Q 254.00 83.94 254.00 83.44
  L 254.00 81.99
  Q 254.00 81.36 253.38 81.20
  C 248.23 79.86 245.90 83.78 246.26 88.23
  Q 246.31 88.89 245.65 88.89
  Q 243.60 88.86 244.03 91.07
  Q 244.13 91.59 244.65 91.72
  L 245.81 92.01
  Q 246.25 92.12 246.25 92.57
  L 246.25 103.33
  Q 246.25 103.98 246.89 103.98
  L 249.37 104.01
  Q 250.00 104.01 250.00 103.38
  L 250.00 92.75
  Q 250.00 92.00 250.75 92.00"
/>
<path stroke="#eaa9a9" vector-effect="non-scaling-stroke" d="
  M 282.98 81.42
  A 0.40 0.40 0.0 0 0 282.58 81.02
  L 279.50 81.02
  A 0.40 0.40 0.0 0 0 279.10 81.42
  L 279.10 103.60
  A 0.40 0.40 0.0 0 0 279.50 104.00
  L 282.58 104.00
  A 0.40 0.40 0.0 0 0 282.98 103.60
  L 282.98 81.42"
/>
<path stroke="#eaa9a9" vector-effect="non-scaling-stroke" d="
  M 275.35 84.03
  A 2.12 2.12 0.0 0 0 273.23 81.91
  A 2.12 2.12 0.0 0 0 271.11 84.03
  A 2.12 2.12 0.0 0 0 273.23 86.15
  A 2.12 2.12 0.0 0 0 275.35 84.03"
/>
<path stroke="#eaa9a9" vector-effect="non-scaling-stroke" d="
  M 290.79 84.03
  A 2.08 2.08 0.0 0 0 288.71 81.95
  A 2.08 2.08 0.0 0 0 286.63 84.03
  A 2.08 2.08 0.0 0 0 288.71 86.11
  A 2.08 2.08 0.0 0 0 290.79 84.03"
/>
<path stroke="#eaa9a9" vector-effect="non-scaling-stroke" d="
  M 343.00 88.38
  L 343.00 85.56
  Q 343.00 84.86 342.31 85.00
  L 339.56 85.53
  Q 338.92 85.66 339.14 86.27
  Q 340.08 88.97 337.59 89.15
  Q 337.00 89.19 337.00 89.78
  L 337.00 91.05
  Q 337.00 91.62 337.55 91.75
  L 338.82 92.07
  Q 339.29 92.19 339.27 92.67
  C 339.12 97.06 337.95 106.14 346.00 103.83
  Q 347.67 103.35 346.85 101.57
  Q 346.64 101.12 346.15 101.13
  C 342.00 101.24 342.90 95.46 343.04 92.79
  Q 343.07 92.27 343.50 92.00
  Q 344.51 91.37 345.48 92.17
  Q 346.15 92.72 346.41 91.90
  L 347.09 89.80
  Q 347.35 89.00 346.51 89.00
  L 343.63 89.00
  Q 343.00 89.00 343.00 88.38"
/>
<path stroke="#eaa9a9" vector-effect="non-scaling-stroke" d="
  M 383.56 91.87
  L 385.28 91.95
  Q 386.02 91.99 386.15 91.26
  L 386.43 89.68
  Q 386.56 89.00 385.87 89.00
  L 383.45 89.00
  Q 382.64 89.00 382.70 88.19
  L 382.90 85.78
  Q 382.95 85.16 382.33 85.08
  Q 380.82 84.89 379.45 85.70
  Q 379.00 85.97 379.00 86.50
  L 379.00 88.37
  Q 379.00 89.00 378.37 89.00
  L 377.00 89.00
  Q 376.25 89.00 376.25 89.75
  L 376.25 91.17
  Q 376.25 91.60 376.68 91.67
  L 378.41 91.95
  Q 379.00 92.05 379.00 92.65
  L 379.00 100.99
  Q 379.00 101.57 379.36 102.01
  Q 381.66 104.87 385.65 103.83
  Q 386.18 103.69 386.24 103.15
  L 386.43 101.65
  Q 386.49 101.11 385.95 101.07
  L 383.57 100.88
  Q 382.84 100.82 382.83 100.09
  L 382.72 92.69
  Q 382.70 91.83 383.56 91.87"
/>
<path stroke="#eaa9a9" vector-effect="non-scaling-stroke" d="
  M 263.90 102.89
  Q 264.82 104.69 267.12 103.94
  Q 267.55 103.79 267.59 103.34
  C 267.94 98.74 268.22 90.73 265.27 89.52
  C 263.24 88.69 254.85 88.07 256.06 92.77
  Q 256.20 93.32 256.72 93.08
  C 259.41 91.80 261.59 90.53 263.91 93.68
  A 0.82 0.82 0.0 0 1 263.23 94.99
  C 248.39 94.70 255.68 108.82 263.27 102.75
  Q 263.67 102.43 263.90 102.89"
/>
<path stroke="#eaa9a9" vector-effect="non-scaling-stroke" d="
  M 275.01 89.53
  A 0.52 0.52 0.0 0 0 274.49 89.01
  L 271.77 89.01
  A 0.52 0.52 0.0 0 0 271.25 89.53
  L 271.25 103.49
  A 0.52 0.52 0.0 0 0 271.77 104.01
  L 274.49 104.01
  A 0.52 0.52 0.0 0 0 275.01 103.49
  L 275.01 89.53"
/>
<path stroke="#eaa9a9" vector-effect="non-scaling-stroke" d="
  M 290.76 89.59
  A 0.59 0.59 0.0 0 0 290.17 89.00
  L 287.59 89.00
  A 0.59 0.59 0.0 0 0 287.00 89.59
  L 287.00 103.41
  A 0.59 0.59 0.0 0 0 287.59 104.00
  L 290.17 104.00
  A 0.59 0.59 0.0 0 0 290.76 103.41
  L 290.76 89.59"
/>
<path stroke="#eaa9a9" vector-effect="non-scaling-stroke" d="
  M 303.74 92.59
  C 305.59 95.39 304.90 99.43 305.06 103.52
  Q 305.08 104.00 305.56 104.00
  L 308.06 104.00
  Q 308.64 104.00 308.68 103.42
  C 309.01 98.48 310.13 85.17 300.13 89.80
  Q 299.73 89.99 299.34 89.78
  Q 297.60 88.85 295.64 89.00
  Q 295.00 89.05 295.00 89.69
  L 295.00 103.25
  Q 295.00 104.00 295.75 104.00
  L 298.06 104.00
  Q 298.77 104.00 298.76 103.29
  C 298.73 100.09 297.20 91.29 302.81 92.01
  Q 303.40 92.09 303.74 92.59"
/>
<path stroke="#eaa9a9" vector-effect="non-scaling-stroke" d="
  M 322.36 102.08
  A 0.21 0.20 -19.4 0 1 322.70 102.24
  C 322.44 109.00 318.30 108.19 313.28 107.31
  Q 312.75 107.21 312.75 107.75
  L 312.75 110.20
  Q 312.75 110.63 313.17 110.69
  C 320.20 111.72 325.81 111.46 326.12 102.91
  Q 326.36 96.32 326.24 89.65
  Q 326.23 89.09 325.67 89.03
  Q 323.95 88.83 322.30 89.58
  Q 321.82 89.79 321.34 89.60
  C 314.09 86.62 309.50 93.61 311.84 99.91
  C 313.60 104.65 318.73 105.15 322.36 102.08"
/>
<path stroke="#eaa9a9" vector-effect="non-scaling-stroke" d="
  M 352.28 98.44
  A 0.51 0.51 0.0 0 1 352.75 97.75
  L 361.73 97.75
  Q 362.18 97.75 362.25 97.31
  C 364.01 86.48 349.05 85.91 348.25 96.45
  C 347.53 105.86 362.04 106.02 361.44 100.75
  Q 361.37 100.17 360.80 100.29
  C 357.66 100.98 353.93 102.58 352.28 98.44"
/>
<path stroke="#eaa9a9" vector-effect="non-scaling-stroke" d="
  M 370.41 100.93
  Q 367.58 101.71 364.90 100.51
  Q 364.44 100.31 364.23 100.77
  C 361.89 105.96 377.37 105.09 374.92 98.54
  C 373.79 95.51 370.62 95.66 368.34 94.02
  Q 367.91 93.70 368.01 93.18
  C 368.46 90.99 372.14 91.81 373.59 92.43
  Q 374.25 92.71 374.25 91.99
  L 374.25 89.93
  Q 374.25 89.29 373.62 89.17
  C 369.86 88.46 361.67 89.25 364.68 95.58
  Q 364.93 96.10 365.45 96.35
  L 370.60 98.76
  A 1.16 1.16 0.0 0 1 370.41 100.93"
/>
<path stroke="#eaa9a9" vector-effect="non-scaling-stroke" d="
  M 325.49 64.98
  L 331.49 64.96
  A 0.14 0.14 0.0 0 0 331.63 64.82
  L 331.63 64.73
  A 3.12 3.01 -0.1 0 0 328.51 61.73
  L 328.47 61.73
  A 3.12 3.01 -0.1 0 0 325.35 64.75
  L 325.35 64.84
  A 0.14 0.14 0.0 0 0 325.49 64.98"
/>
<path stroke="#eaa9a9" vector-effect="non-scaling-stroke" d="
  M 354.27 67.37
  L 349.09 68.46
  A 0.45 0.45 0.0 0 0 348.74 68.99
  L 348.77 69.13
  A 2.87 2.63 -11.8 0 0 352.11 71.11
  L 352.56 71.02
  A 2.87 2.63 -11.8 0 0 354.84 67.86
  L 354.81 67.72
  A 0.45 0.45 0.0 0 0 354.27 67.37"
/>
<path stroke="#eaa9a9" vector-effect="non-scaling-stroke" d="
  M 263.35 97.39
  L 258.24 98.23
  A 0.51 0.51 0.0 0 0 257.81 98.82
  L 257.84 98.95
  A 2.91 2.67 -9.3 0 0 261.14 101.12
  L 261.52 101.06
  A 2.91 2.67 -9.3 0 0 263.96 97.95
  L 263.93 97.81
  A 0.51 0.51 0.0 0 0 263.35 97.39"
/>
<path stroke="#eaa9a9" vector-effect="non-scaling-stroke" d="
  M 318.4180 101.0147
  A 4.54 3.82 94.7 0 0 322.5972 96.8030
  A 4.54 3.82 94.7 0 0 319.1620 91.9653
  A 4.54 3.82 94.7 0 0 314.9828 96.1770
  A 4.54 3.82 94.7 0 0 318.4180 101.0147"
/>
<path stroke="#eaa9a9" vector-effect="non-scaling-stroke" d="
  M 352.46 95.03
  L 358.50 94.99
  A 0.18 0.18 0.0 0 0 358.68 94.81
  L 358.68 94.75
  A 3.09 3.02 -0.4 0 0 355.57 91.75
  L 355.35 91.75
  A 3.09 3.02 -0.4 0 0 352.28 94.79
  L 352.28 94.85
  A 0.18 0.18 0.0 0 0 352.46 95.03"
/>
<path stroke="#abc9fc" vector-effect="non-scaling-stroke" d="
  M 92.00 194.04
  Q 95.28 196.08 98.79 194.25"
/>
<path stroke="#abc9fc" vector-effect="non-scaling-stroke" d="
  M 92.84 323.48
  Q 90.43 329.17 92.25 335.07"
/>
<path stroke="#abc9fc" vector-effect="non-scaling-stroke" d="
  M 92.71 341.25
  Q 91.10 343.61 92.62 346.06"
/>
<path stroke="#abc9fc" vector-effect="non-scaling-stroke" d="
  M 69.44 438.71
  L 71.62 438.95
  Q 72.25 439.02 72.25 438.39
  L 72.25 436.63
  Q 72.25 436.00 71.62 436.00
  L 69.53 436.00
  Q 69.00 436.00 68.87 435.48
  C 68.25 432.94 69.39 430.61 72.21 430.77
  Q 72.75 430.80 72.75 430.25
  L 72.75 428.79
  Q 72.75 428.23 72.20 428.11
  C 66.69 426.98 64.90 430.54 65.29 435.37
  Q 65.34 436.00 64.71 436.00
  L 63.50 436.00
  Q 62.75 436.00 62.75 436.75
  L 62.75 438.56
  Q 62.75 439.15 63.32 439.02
  L 64.56 438.75
  Q 65.25 438.60 65.25 439.31
  L 65.25 450.25
  Q 65.25 451.00 66.00 451.00
  L 68.13 451.00
  Q 68.75 451.00 68.75 450.38
  L 68.75 439.32
  Q 68.75 438.63 69.44 438.71"
/>
<path stroke="#abc9fc" vector-effect="non-scaling-stroke" d="
  M 41.03 440.88
  Q 46.64 437.80 43.66 432.19
  Q 43.43 431.74 42.98 431.50
  C 39.13 429.44 35.66 429.88 31.41 430.04
  Q 30.75 430.06 30.75 430.72
  L 30.75 450.25
  Q 30.75 451.00 31.50 451.00
  L 33.62 451.00
  Q 34.25 451.00 34.25 450.38
  L 34.25 442.53
  Q 34.25 441.96 34.82 442.00
  C 38.97 442.28 40.65 447.44 42.60 450.50
  Q 42.91 450.98 43.48 450.99
  L 46.42 451.01
  Q 47.07 451.01 46.80 450.42
  Q 44.56 445.52 40.92 441.61
  Q 40.51 441.17 41.03 440.88"
/>
<path stroke="#abc9fc" vector-effect="non-scaling-stroke" d="
  M 104.92 439.28
  L 105.17 448.54
  A 1.98 1.97 11.9 0 0 106.31 450.28
  Q 108.89 451.48 111.61 450.78
  Q 112.20 450.63 112.24 450.03
  L 112.35 448.57
  Q 112.41 447.74 111.60 447.96
  C 107.56 449.06 108.68 442.15 108.83 439.19
  Q 108.86 438.66 109.39 438.71
  L 111.60 438.92
  Q 112.23 438.98 112.23 438.35
  L 112.26 436.63
  Q 112.27 436.00 111.63 436.00
  L 109.38 436.00
  Q 108.75 436.00 108.75 435.38
  L 108.75 432.68
  Q 108.75 432.08 108.16 432.16
  L 105.66 432.50
  Q 105.00 432.59 105.00 433.26
  L 105.00 435.50
  Q 105.00 436.00 104.50 436.00
  L 102.88 436.00
  Q 102.25 436.00 102.25 436.63
  L 102.25 438.39
  Q 102.25 439.03 102.88 438.93
  L 104.27 438.73
  Q 104.91 438.63 104.92 439.28"
/>
<path stroke="#abc9fc" vector-effect="non-scaling-stroke" d="
  M 50.98 445.31
  A 0.51 0.50 86.9 0 1 51.48 444.75
  L 60.25 444.75
  Q 60.71 444.75 60.82 444.29
  C 62.41 437.47 55.49 433.44 50.17 437.32
  C 45.82 440.49 46.15 447.24 50.53 450.17
  C 52.48 451.47 61.50 452.17 59.88 447.42
  Q 59.73 446.97 59.32 447.21
  C 57.02 448.53 51.40 449.16 50.98 445.31"
/>
<path stroke="#abc9fc" vector-effect="non-scaling-stroke" d="
  M 82.77 449.27
  Q 82.80 449.75 82.57 450.12
  Q 82.06 450.97 83.05 450.98
  L 85.53 451.01
  Q 86.19 451.02 86.20 450.36
  C 86.28 447.42 87.16 438.17 84.24 436.75
  Q 80.29 434.82 75.28 436.96
  Q 74.80 437.16 74.78 437.69
  L 74.68 440.15
  Q 74.64 440.94 75.21 440.39
  C 77.45 438.18 81.52 437.55 82.63 441.38
  Q 82.80 441.97 82.19 442.00
  C 64.43 442.81 77.34 456.64 82.08 449.09
  Q 82.69 448.13 82.77 449.27"
/>
<path stroke="#abc9fc" vector-effect="non-scaling-stroke" d="
  M 100.32 447.26
  C 89.76 452.09 91.22 434.48 100.19 439.73
  Q 101.00 440.21 101.00 439.26
  L 101.00 437.18
  Q 101.00 436.56 100.39 436.39
  C 87.15 432.81 86.06 450.36 94.90 450.89
  C 97.35 451.04 101.76 451.72 100.95 447.58
  A 0.45 0.45 0.0 0 0 100.32 447.26"
/>
<path stroke="#abc9fc" vector-effect="non-scaling-stroke" d="
  M 129.53 443.49
  A 7.84 7.84 0.0 0 0 121.69 435.65
  A 7.84 7.84 0.0 0 0 113.85 443.49
  A 7.84 7.84 0.0 0 0 121.69 451.33
  A 7.84 7.84 0.0 0 0 129.53 443.49"
/>
<path stroke="#abc9fc" vector-effect="non-scaling-stroke" d="
  M 136.85 436.63
  Q 135.37 435.58 133.50 436.11
  Q 133.00 436.25 133.00 436.77
  L 133.00 450.34
  Q 133.00 450.99 133.65 450.99
  L 136.05 450.99
  Q 136.75 450.99 136.75 450.28
  C 136.75 446.72 135.11 438.87 140.92 439.10
  Q 141.66 439.13 141.69 438.39
  L 141.75 436.79
  Q 141.77 436.13 141.12 436.04
  Q 139.37 435.80 137.92 436.67
  Q 137.37 437.00 136.85 436.63"
/>
<path stroke="#b5d5bb" vector-effect="non-scaling-stroke" d="
  M 620.67 316.99
  Q 618.84 320.85 620.96 324.50"
/>
<path stroke="#b5d5bb" vector-effect="non-scaling-stroke" d="
  M 620.83 346.70
  Q 618.94 350.54 620.42 354.53"
/>
<path stroke="#b5d5bb" vector-effect="non-scaling-stroke" d="
  M 467.09 492.58
  Q 474.73 487.12 480.72 479.79
  A 0.55 0.55 0.0 0 0 480.68 479.04
  Q 480.32 478.70 480.24 478.76"
/>
<path stroke="#b5d5bb" vector-effect="non-scaling-stroke" d="
  M 539.16 338.09
  Q 541.29 326.95 539.10 315.99"
/>
<path stroke="#b5d5bb" vector-effect="non-scaling-stroke" d="
  M 539.90 232.08
  Q 545.38 234.33 551.26 233.54"
/>
<path stroke="#b5d5bb" vector-effect="non-scaling-stroke" d="
  M 555.00 233.96
  Q 555.18 235.51 557.23 235.11
  C 557.74 235.01 558.21 235.19 558.25 234.29"
/>
<path stroke="#b5d5bb" vector-effect="non-scaling-stroke" d="
  M 562.75 235.09
  Q 565.08 236.78 567.47 235.66"
/>
<path stroke="#b5d5bb" vector-effect="non-scaling-stroke" d="
  M 541.93 422.85
  L 546.60 428.56
  Q 546.96 429.00 547.52 429.00
  L 551.43 429.00
  Q 552.23 429.00 551.68 428.42
  L 545.61 421.97
  Q 545.14 421.47 545.57 420.94
  L 550.53 414.74
  Q 550.91 414.26 550.32 414.10
  C 545.57 412.84 544.80 417.00 542.20 419.68
  Q 541.75 420.15 541.75 419.49
  L 541.75 406.75
  Q 541.75 406.00 541.00 406.00
  L 538.63 406.00
  Q 538.00 406.00 538.00 406.62
  L 538.00 428.25
  Q 538.00 429.00 538.75 429.00
  L 541.17 429.00
  Q 541.85 429.00 541.82 428.32
  L 541.53 423.00
  Q 541.50 422.32 541.93 422.85"
/>
<path stroke="#b5d5bb" vector-effect="non-scaling-stroke" d="
  M 592.67 414.91
  A 0.46 0.46 0.0 0 1 592.00 414.50
  L 592.00 406.67
  Q 592.00 406.02 591.35 406.02
  L 588.63 405.99
  Q 588.00 405.99 588.00 406.62
  L 588.00 428.33
  Q 588.00 428.98 588.65 428.98
  L 591.42 429.01
  Q 592.03 429.01 592.02 428.40
  C 591.96 423.87 590.57 417.08 595.92 417.00
  Q 596.44 417.00 596.77 417.39
  C 598.69 419.66 597.94 424.75 598.05 428.51
  Q 598.07 429.00 598.56 429.00
  L 601.59 429.00
  Q 602.19 429.00 602.16 428.40
  L 601.56 416.81
  Q 601.53 416.14 601.01 415.71
  Q 597.23 412.55 592.67 414.91"
/>
<path stroke="#b5d5bb" vector-effect="non-scaling-stroke" d="
  M 498.97 414.22
  Q 501.72 420.67 504.16 427.25
  C 504.76 428.88 505.84 429.46 507.48 428.91
  Q 508.02 428.73 508.23 428.20
  L 513.42 414.88
  A 0.30 0.30 0.0 0 1 514.00 414.99
  L 514.00 428.25
  Q 514.00 429.00 514.75 429.00
  L 517.38 429.00
  Q 518.00 429.00 518.00 428.38
  L 518.00 408.77
  Q 518.00 408.06 517.28 408.05
  L 513.37 407.98
  Q 512.73 407.97 512.49 408.57
  L 506.84 423.02
  A 0.33 0.33 0.0 0 1 506.22 423.02
  L 500.48 408.50
  Q 500.28 408.00 499.74 408.00
  L 495.75 408.00
  Q 495.00 408.00 495.00 408.75
  L 495.00 428.34
  Q 495.00 429.00 495.66 429.00
  L 498.12 429.00
  Q 498.75 429.00 498.75 428.37
  L 498.75 414.27
  Q 498.75 413.70 498.97 414.22"
/>
<path stroke="#b5d5bb" vector-effect="non-scaling-stroke" d="
  M 582.00 413.12
  L 582.00 410.88
  Q 582.00 410.25 581.38 410.25
  L 578.75 410.25
  Q 578.00 410.25 578.00 411.00
  L 578.00 413.19
  Q 578.00 413.95 577.25 413.98
  L 576.01 414.02
  Q 575.39 414.04 575.30 414.66
  L 575.11 416.07
  Q 575.01 416.81 575.75 416.88
  L 577.19 417.03
  Q 577.85 417.10 577.88 417.76
  L 578.27 426.56
  Q 578.30 427.25 578.87 427.64
  Q 581.74 429.63 585.32 428.89
  Q 585.83 428.78 585.79 428.26
  L 585.62 426.45
  Q 585.56 425.74 584.86 425.89
  C 580.76 426.75 581.97 420.09 582.01 417.84
  Q 582.02 417.31 582.48 417.06
  Q 583.60 416.43 584.70 417.09
  Q 585.54 417.60 585.62 416.62
  L 585.77 414.70
  Q 585.83 414.00 585.13 414.00
  L 582.88 414.00
  Q 582.00 414.00 582.00 413.12"
/>
<path stroke="#b5d5bb" vector-effect="non-scaling-stroke" d="
  M 608.50 423.06
  Q 608.43 422.75 608.74 422.75
  L 618.20 422.75
  Q 618.61 422.75 618.67 422.35
  C 619.21 418.97 618.19 415.75 614.79 414.41
  C 603.99 410.13 600.11 427.96 611.05 429.06
  C 613.07 429.27 618.56 428.92 617.82 425.72
  Q 617.71 425.27 617.26 425.39
  C 614.18 426.22 609.54 427.47 608.50 423.06"
/>
<path stroke="#b5d5bb" vector-effect="non-scaling-stroke" d="
  M 530.09 427.87
  C 530.26 429.42 532.70 429.10 534.06 428.91
  Q 534.49 428.86 534.54 428.42
  C 535.45 420.00 534.72 410.16 523.26 414.89
  Q 522.84 415.06 522.58 415.45
  Q 521.90 416.50 522.22 417.49
  Q 522.41 418.06 523.00 417.92
  L 528.16 416.64
  Q 528.65 416.52 529.06 416.81
  Q 530.47 417.78 530.24 419.46
  Q 530.16 420.07 529.55 420.06
  C 515.42 419.73 521.99 433.88 529.86 427.77
  Q 530.07 427.61 530.09 427.87"
/>
<path stroke="#b5d5bb" vector-effect="non-scaling-stroke" d="
  M 556.06 423.54
  A 0.51 0.51 0.0 0 1 556.48 422.75
  L 565.25 422.75
  Q 565.76 422.75 565.86 422.25
  C 568.00 411.25 551.34 410.65 551.97 422.76
  C 552.33 429.71 559.40 429.82 564.29 428.33
  Q 564.86 428.15 564.90 427.55
  L 565.02 425.43
  Q 565.08 424.40 564.21 424.94
  Q 559.12 428.14 556.06 423.54"
/>
<path stroke="#b5d5bb" vector-effect="non-scaling-stroke" d="
  M 547.75 455.25
  L 547.75 447.67
  Q 547.75 447.03 548.39 447.02
  L 550.41 446.99
  Q 550.99 446.98 550.97 446.40
  L 550.90 444.68
  Q 550.87 444.00 550.19 444.00
  L 548.25 444.00
  Q 547.75 444.00 547.75 443.50
  L 547.75 440.68
  Q 547.75 439.85 546.93 439.99
  L 544.01 440.49
  Q 543.29 440.61 543.27 441.35
  L 543.24 443.22
  Q 543.22 443.84 542.61 443.92
  L 541.60 444.06
  Q 541.09 444.13 541.00 444.63
  Q 540.62 446.77 542.69 447.11
  Q 543.33 447.21 543.29 447.86
  Q 542.96 452.75 544.24 457.48
  Q 544.37 457.98 544.82 458.26
  C 546.21 459.10 552.34 460.32 550.87 456.46
  Q 550.69 456.00 550.20 456.00
  L 548.50 456.00
  Q 547.75 456.00 547.75 455.25"
/>
<path stroke="#b5d5bb" vector-effect="non-scaling-stroke" d="
  M 508.01 443.38
  L 507.98 440.89
  Q 507.97 440.25 507.33 440.25
  L 504.63 440.25
  Q 504.00 440.25 504.00 440.87
  L 504.00 443.31
  Q 504.00 443.94 503.38 443.97
  L 502.27 444.02
  Q 501.70 444.05 501.39 444.53
  Q 500.72 445.58 501.30 446.65
  Q 501.61 447.22 502.23 447.04
  C 503.68 446.63 504.08 447.49 504.01 448.81
  Q 503.79 452.71 504.42 456.67
  Q 504.51 457.22 504.94 457.57
  Q 507.67 459.77 511.27 458.83
  Q 511.77 458.70 511.76 458.18
  L 511.73 456.80
  Q 511.72 456.28 511.21 456.16
  L 508.75 455.59
  Q 508.10 455.44 508.08 454.77
  L 507.96 447.70
  Q 507.95 447.03 508.61 447.02
  L 510.89 446.98
  Q 511.55 446.97 511.65 446.32
  L 511.89 444.76
  Q 512.01 444.00 511.24 444.00
  L 508.63 444.00
  Q 508.02 444.00 508.01 443.38"
/>
<path stroke="#b5d5bb" vector-effect="non-scaling-stroke" d="
  M 517.02 453.62
  A 0.74 0.73 84.8 0 1 517.74 452.75
  L 526.45 452.75
  Q 526.90 452.75 526.95 452.30
  Q 527.71 445.53 522.33 444.26
  C 510.02 441.34 508.37 462.49 524.15 458.62
  C 525.61 458.26 526.22 457.14 526.18 455.75
  Q 526.17 455.10 525.53 455.21
  C 522.82 455.67 517.76 457.53 517.02 453.62"
/>
<path stroke="#b5d5bb" vector-effect="non-scaling-stroke" d="
  M 532.99 447.38
  Q 535.63 445.97 538.24 447.51
  Q 539.17 448.06 539.06 446.99
  L 538.84 444.65
  Q 538.78 444.10 538.24 444.06
  C 534.00 443.73 526.17 444.22 529.72 451.16
  Q 529.94 451.60 530.40 451.77
  C 531.96 452.36 536.97 453.16 535.79 455.53
  Q 535.60 455.91 535.19 456.02
  Q 532.28 456.78 529.60 455.42
  Q 529.00 455.12 529.00 455.79
  L 529.00 458.06
  Q 529.00 458.67 529.60 458.79
  Q 534.45 459.78 538.72 457.67
  Q 539.19 457.44 539.35 456.94
  C 541.69 449.48 535.12 451.80 532.73 448.52
  Q 532.20 447.80 532.99 447.38"
/>
<path stroke="#b5d5bb" vector-effect="non-scaling-stroke" d="
  M 565.85 445.60
  L 565.62 444.61
  Q 565.49 444.07 564.93 444.05
  L 562.65 443.98
  Q 562.00 443.96 562.00 444.61
  L 562.00 465.38
  Q 562.00 466.00 562.63 466.00
  L 565.12 466.00
  Q 565.75 466.00 565.75 465.37
  L 565.75 458.25
  Q 565.75 457.68 566.25 457.97
  C 576.26 463.77 580.98 446.77 572.35 444.13
  Q 569.05 443.12 566.09 445.67
  Q 565.91 445.83 565.85 445.60"
/>
<path stroke="#b5d5bb" vector-effect="non-scaling-stroke" d="
  M 587.19 450.12
  Q 582.56 449.43 579.03 452.45
  Q 578.62 452.80 578.50 453.32
  C 577.14 459.04 583.53 460.70 587.15 457.42
  Q 587.62 457.00 587.82 457.59
  Q 588.63 459.91 591.27 458.81
  Q 591.74 458.61 591.74 458.11
  C 591.78 453.47 593.65 444.75 586.99 444.07
  C 583.98 443.76 578.76 443.60 580.09 448.42
  Q 580.25 448.99 580.67 448.56
  C 582.72 446.44 587.21 445.46 587.76 449.56
  Q 587.85 450.22 587.19 450.12"
/>
<path stroke="#b5d5bb" vector-effect="non-scaling-stroke" d="
  M 598.19 448.17
  C 599.24 445.93 602.48 446.90 604.27 447.56
  Q 604.75 447.74 604.75 447.23
  L 604.75 445.05
  Q 604.75 444.54 604.25 444.41
  C 601.09 443.63 594.62 443.56 594.33 447.89
  C 593.98 453.03 602.46 452.76 601.08 455.62
  Q 600.89 456.02 600.44 456.09
  Q 597.59 456.54 594.87 455.50
  Q 594.06 455.20 594.13 456.05
  L 594.30 458.12
  Q 594.35 458.69 594.92 458.77
  C 598.24 459.24 603.10 459.60 605.09 456.30
  C 607.48 452.35 600.71 450.00 598.46 448.92
  Q 597.95 448.68 598.19 448.17"
/>
<path stroke="#b5d5bb" vector-effect="non-scaling-stroke" d="
  M 611.25 448.10
  C 612.37 445.70 615.56 447.20 617.49 447.50
  Q 618.03 447.58 617.96 447.03
  L 617.67 444.92
  Q 617.61 444.42 617.11 444.30
  C 614.02 443.53 608.74 443.50 607.46 447.21
  C 605.51 452.84 615.76 452.55 614.02 455.68
  Q 613.78 456.12 613.28 456.19
  Q 610.50 456.57 607.92 455.49
  Q 607.25 455.21 607.25 455.94
  L 607.25 458.23
  Q 607.25 458.84 607.85 458.90
  C 610.92 459.20 616.52 459.52 618.24 456.41
  C 620.45 452.41 613.93 450.14 611.50 448.86
  Q 611.02 448.60 611.25 448.10"
/>
<path stroke="#c5c5c5" vector-effect="non-scaling-stroke" d="
  M 292.75 306.96
  L 300.05 306.80
  Q 300.15 306.80 300.19 306.70
  Q 300.24 306.52 300.30 306.34
  Q 300.39 306.07 300.11 306.07
  L 288.99 306.12
  A 1.96 1.96 0.0 0 0 287.04 308.08
  L 287.02 362.68
  A 2.10 2.08 -86.3 0 0 288.83 364.76
  Q 295.74 365.69 302.28 364.20"
/>
<path stroke="#c5c5c5" vector-effect="non-scaling-stroke" d="
  M 370.75 364.04
  Q 370.48 364.10 370.36 364.30
  Q 370.13 364.68 370.57 364.74
  Q 378.53 365.78 386.30 364.07"
/>
<path stroke="#c5c5c5" vector-effect="non-scaling-stroke" d="
  M 382.10 306.74
  Q 376.11 305.35 370.10 306.26
  Q 369.59 306.34 369.92 306.74
  Q 370.07 306.93 370.29 307.00"
/>
<path stroke="#b5d5bb" vector-effect="non-scaling-stroke" d="
  M 609.01 419.95
  L 614.47 419.99
  A 0.27 0.27 0.0 0 0 614.74 419.73
  L 614.74 419.56
  A 2.86 2.76 0.5 0 0 611.90 416.77
  L 611.62 416.77
  A 2.86 2.76 0.5 0 0 608.74 419.50
  L 608.74 419.67
  A 0.27 0.27 0.0 0 0 609.01 419.95"
/>
<path stroke="#b5d5bb" vector-effect="non-scaling-stroke" d="
  M 529.63 422.55
  L 525.00 423.20
  A 0.29 0.29 0.0 0 0 524.75 423.53
  L 524.88 424.41
  A 2.39 2.18 -8.0 0 0 527.55 426.24
  L 528.02 426.17
  A 2.39 2.18 -8.0 0 0 530.08 423.68
  L 529.96 422.80
  A 0.29 0.29 0.0 0 0 529.63 422.55"
/>
<path stroke="#b5d5bb" vector-effect="non-scaling-stroke" d="
  M 556.54 420.06
  L 562.08 419.92
  A 0.23 0.23 0.0 0 0 562.30 419.69
  L 562.30 419.56
  A 2.89 2.88 -1.4 0 0 559.34 416.75
  L 559.12 416.75
  A 2.89 2.88 -1.4 0 0 556.30 419.70
  L 556.30 419.83
  A 0.23 0.23 0.0 0 0 556.54 420.06"
/>
<path stroke="#abc9fc" vector-effect="non-scaling-stroke" d="
  M 34.25 433.71
  L 34.23 438.11
  A 1.05 1.05 0.0 0 0 35.27 439.17
  L 36.10 439.17
  A 4.60 3.09 0.3 0 0 40.72 436.11
  L 40.72 435.79
  A 4.60 3.09 0.3 0 0 36.14 432.67
  L 35.31 432.67
  A 1.05 1.05 0.0 0 0 34.25 433.71"
/>
<path stroke="#abc9fc" vector-effect="non-scaling-stroke" d="
  M 51.42 442.18
  L 57.11 441.82
  A 0.27 0.27 0.0 0 0 57.36 441.53
  L 57.35 441.38
  A 2.91 2.84 -3.6 0 0 54.27 438.73
  L 53.85 438.76
  A 2.91 2.84 -3.6 0 0 51.12 441.77
  L 51.13 441.92
  A 0.27 0.27 0.0 0 0 51.42 442.18"
/>
<path stroke="#abc9fc" vector-effect="non-scaling-stroke" d="
  M 82.34 444.78
  C 80.52 444.55 78.07 444.36 76.91 446.01
  Q 76.61 446.44 76.88 446.90
  C 78.53 449.71 81.82 447.69 82.74 445.47
  Q 83.00 444.86 82.34 444.78"
/>
<path stroke="#abc9fc" vector-effect="non-scaling-stroke" d="
  M 121.6651 448.2794
  A 4.77 4.18 90.9 0 0 125.9195 443.5757
  A 4.77 4.18 90.9 0 0 121.8149 438.7406
  A 4.77 4.18 90.9 0 0 117.5605 443.4443
  A 4.77 4.18 90.9 0 0 121.6651 448.2794"
/>
<path stroke="#b5d5bb" vector-effect="non-scaling-stroke" d="
  M 517.21 449.91
  L 522.72 449.69
  A 0.25 0.25 0.0 0 0 522.96 449.43
  L 522.96 449.29
  A 2.81 2.45 -2.3 0 0 520.05 446.95
  L 519.65 446.97
  A 2.81 2.45 -2.3 0 0 516.94 449.53
  L 516.95 449.67
  A 0.25 0.25 0.0 0 0 517.21 449.91"
/>
<path stroke="#b5d5bb" vector-effect="non-scaling-stroke" d="
  M 568.9230 456.2407
  A 4.73 3.76 93.6 0 0 572.9726 451.7561
  A 4.73 3.76 93.6 0 0 569.5170 446.7993
  A 4.73 3.76 93.6 0 0 565.4674 451.2839
  A 4.73 3.76 93.6 0 0 568.9230 456.2407"
/>
<path stroke="#b5d5bb" vector-effect="non-scaling-stroke" d="
  M 582.17 454.45
  L 582.81 456.14
  A 0.68 0.68 0.0 0 0 583.69 456.53
  L 583.81 456.49
  A 4.97 1.44 -20.8 0 0 587.94 453.37
  L 587.84 453.11
  A 4.97 1.44 -20.8 0 0 582.68 453.53
  L 582.56 453.58
  A 0.68 0.68 0.0 0 0 582.17 454.45"
/>
</g>
<path fill="#d55252" d="
  M 307.31 0.00
  L 323.31 0.00
  Q 364.70 5.07 387.46 39.78
  C 388.70 41.68 390.66 41.32 392.32 41.75
  C 471.14 61.98 535.94 110.77 578.24 180.49
  C 580.48 184.17 580.53 185.20 578.91 189.38
  Q 571.69 207.93 564.67 226.60
  Q 564.35 227.44 563.47 227.32
  L 514.74 221.10
  A 1.38 1.38 0.0 0 1 513.74 220.44
  Q 471.20 149.37 393.14 121.02
  Q 392.51 120.80 392.21 121.40
  C 361.25 185.18 272.37 186.70 239.06 124.26
  A 0.59 0.59 0.0 0 0 238.30 123.99
  C 225.51 129.58 212.61 135.66 200.98 142.95
  C 167.86 163.73 142.08 191.19 123.31 224.98
  A 0.48 0.48 0.0 0 1 122.46 224.96
  C 115.94 212.16 110.33 198.99 103.49 186.33
  Q 103.25 185.88 102.74 185.90
  L 88.14 186.34
  Q 84.58 185.23 80.53 186.32
  A 0.09 0.09 0.0 0 0 80.53 186.50
  L 81.50 186.79
  Q 70.18 187.41 58.72 186.92
  Q 58.06 186.89 58.38 186.32
  C 96.69 118.29 162.41 65.41 238.03 44.52
  Q 238.52 44.39 238.94 44.11
  L 240.26 43.23
  Q 240.64 42.99 240.87 42.60
  Q 263.35 5.13 307.31 0.00
  Z
  M 307.83 54.04
  A 2.09 2.09 0.0 0 0 305.74 51.95
  A 2.09 2.09 0.0 0 0 303.65 54.04
  A 2.09 2.09 0.0 0 0 305.74 56.13
  A 2.09 2.09 0.0 0 0 307.83 54.04
  Z
  M 282.46 68.10
  L 278.76 53.63
  Q 278.60 53.00 277.95 53.00
  L 275.17 53.00
  Q 274.50 53.00 274.32 53.65
  L 270.54 68.02
  A 0.34 0.34 0.0 0 1 269.89 68.02
  L 266.12 53.66
  Q 265.94 52.99 265.24 52.99
  L 262.66 53.02
  Q 261.93 53.02 262.12 53.73
  L 267.57 73.39
  Q 267.75 74.03 268.41 74.02
  L 271.64 73.95
  Q 272.21 73.94 272.36 73.39
  L 276.11 59.49
  Q 276.39 58.49 276.65 59.49
  L 280.29 73.18
  Q 280.41 73.62 280.83 73.79
  C 283.94 75.02 285.13 73.76 285.83 70.80
  Q 287.84 62.29 290.48 53.90
  Q 290.75 53.04 289.85 53.06
  L 287.30 53.11
  Q 286.70 53.12 286.55 53.70
  L 282.96 68.10
  Q 282.71 69.08 282.46 68.10
  Z
  M 316.00 58.25
  L 316.00 55.57
  Q 316.00 54.89 315.32 55.00
  L 312.60 55.48
  Q 311.85 55.61 312.11 56.32
  Q 313.03 58.88 310.67 59.10
  Q 310.00 59.16 310.00 59.83
  L 310.00 60.99
  Q 310.00 61.51 310.51 61.64
  L 311.72 61.94
  Q 312.28 62.08 312.26 62.65
  C 312.19 65.54 311.67 71.00 313.78 73.03
  C 314.92 74.14 321.50 75.16 319.84 71.67
  Q 319.64 71.25 319.17 71.26
  C 315.04 71.27 315.91 65.83 316.03 63.09
  Q 316.05 62.59 316.41 62.23
  Q 317.27 61.40 318.28 62.01
  Q 318.79 62.31 319.22 61.92
  Q 320.24 60.98 320.00 59.59
  Q 319.89 59.00 319.29 59.00
  L 316.75 59.00
  Q 316.00 59.00 316.00 58.25
  Z
  M 297.57 63.13
  L 301.45 61.51
  Q 301.84 61.35 301.96 60.94
  C 302.67 58.54 299.33 58.83 298.03 59.58
  Q 297.57 59.84 297.09 59.60
  Q 295.36 58.74 293.53 59.13
  Q 293.00 59.24 293.00 59.79
  L 293.00 73.37
  Q 293.00 74.00 293.62 74.00
  L 296.22 74.00
  Q 296.69 74.00 296.70 73.53
  L 296.86 64.17
  Q 296.87 63.42 297.57 63.13
  Z
  M 307.7617 59.7933
  A 0.77 0.77 0.0 0 0 306.9931 59.0219
  L 304.7931 59.0181
  A 0.77 0.77 0.0 0 0 304.0217 59.7867
  L 303.9983 73.2267
  A 0.77 0.77 0.0 0 0 304.7669 73.9981
  L 306.9669 74.0019
  A 0.77 0.77 0.0 0 0 307.7383 73.2333
  L 307.7617 59.7933
  Z
  M 325.28 68.61
  A 0.55 0.55 0.0 0 1 325.74 67.75
  L 334.75 67.75
  Q 335.23 67.75 335.30 67.28
  C 337.21 54.96 318.42 56.80 321.67 69.04
  Q 323.19 74.75 329.87 74.01
  C 332.48 73.71 334.61 73.86 334.51 70.76
  A 0.72 0.72 0.0 0 0 333.43 70.16
  Q 328.31 73.16 325.28 68.61
  Z
  M 354.79 72.85
  Q 355.76 74.81 358.25 73.88
  Q 358.64 73.73 358.66 73.31
  C 358.88 69.66 359.81 60.61 355.53 59.23
  Q 351.87 58.05 347.47 60.09
  Q 346.99 60.32 346.99 60.85
  L 347.02 62.88
  Q 347.03 63.88 347.81 63.24
  Q 352.00 59.78 354.87 63.79
  A 0.74 0.74 0.0 0 1 354.28 64.96
  C 350.03 65.03 344.02 65.92 345.98 72.05
  Q 346.13 72.54 346.56 72.82
  Q 350.39 75.34 354.30 72.72
  Q 354.62 72.51 354.79 72.85
  Z
  M 250.75 92.00
  L 253.15 92.00
  Q 253.80 92.00 253.77 91.35
  L 253.69 89.27
  Q 253.65 88.54 252.98 88.82
  C 248.68 90.58 248.73 83.60 253.49 83.91
  Q 254.00 83.94 254.00 83.44
  L 254.00 81.99
  Q 254.00 81.36 253.38 81.20
  C 248.23 79.86 245.90 83.78 246.26 88.23
  Q 246.31 88.89 245.65 88.89
  Q 243.60 88.86 244.03 91.07
  Q 244.13 91.59 244.65 91.72
  L 245.81 92.01
  Q 246.25 92.12 246.25 92.57
  L 246.25 103.33
  Q 246.25 103.98 246.89 103.98
  L 249.37 104.01
  Q 250.00 104.01 250.00 103.38
  L 250.00 92.75
  Q 250.00 92.00 250.75 92.00
  Z
  M 282.98 81.42
  A 0.40 0.40 0.0 0 0 282.58 81.02
  L 279.50 81.02
  A 0.40 0.40 0.0 0 0 279.10 81.42
  L 279.10 103.60
  A 0.40 0.40 0.0 0 0 279.50 104.00
  L 282.58 104.00
  A 0.40 0.40 0.0 0 0 282.98 103.60
  L 282.98 81.42
  Z
  M 275.35 84.03
  A 2.12 2.12 0.0 0 0 273.23 81.91
  A 2.12 2.12 0.0 0 0 271.11 84.03
  A 2.12 2.12 0.0 0 0 273.23 86.15
  A 2.12 2.12 0.0 0 0 275.35 84.03
  Z
  M 290.79 84.03
  A 2.08 2.08 0.0 0 0 288.71 81.95
  A 2.08 2.08 0.0 0 0 286.63 84.03
  A 2.08 2.08 0.0 0 0 288.71 86.11
  A 2.08 2.08 0.0 0 0 290.79 84.03
  Z
  M 343.00 88.38
  L 343.00 85.56
  Q 343.00 84.86 342.31 85.00
  L 339.56 85.53
  Q 338.92 85.66 339.14 86.27
  Q 340.08 88.97 337.59 89.15
  Q 337.00 89.19 337.00 89.78
  L 337.00 91.05
  Q 337.00 91.62 337.55 91.75
  L 338.82 92.07
  Q 339.29 92.19 339.27 92.67
  C 339.12 97.06 337.95 106.14 346.00 103.83
  Q 347.67 103.35 346.85 101.57
  Q 346.64 101.12 346.15 101.13
  C 342.00 101.24 342.90 95.46 343.04 92.79
  Q 343.07 92.27 343.50 92.00
  Q 344.51 91.37 345.48 92.17
  Q 346.15 92.72 346.41 91.90
  L 347.09 89.80
  Q 347.35 89.00 346.51 89.00
  L 343.63 89.00
  Q 343.00 89.00 343.00 88.38
  Z
  M 383.56 91.87
  L 385.28 91.95
  Q 386.02 91.99 386.15 91.26
  L 386.43 89.68
  Q 386.56 89.00 385.87 89.00
  L 383.45 89.00
  Q 382.64 89.00 382.70 88.19
  L 382.90 85.78
  Q 382.95 85.16 382.33 85.08
  Q 380.82 84.89 379.45 85.70
  Q 379.00 85.97 379.00 86.50
  L 379.00 88.37
  Q 379.00 89.00 378.37 89.00
  L 377.00 89.00
  Q 376.25 89.00 376.25 89.75
  L 376.25 91.17
  Q 376.25 91.60 376.68 91.67
  L 378.41 91.95
  Q 379.00 92.05 379.00 92.65
  L 379.00 100.99
  Q 379.00 101.57 379.36 102.01
  Q 381.66 104.87 385.65 103.83
  Q 386.18 103.69 386.24 103.15
  L 386.43 101.65
  Q 386.49 101.11 385.95 101.07
  L 383.57 100.88
  Q 382.84 100.82 382.83 100.09
  L 382.72 92.69
  Q 382.70 91.83 383.56 91.87
  Z
  M 263.90 102.89
  Q 264.82 104.69 267.12 103.94
  Q 267.55 103.79 267.59 103.34
  C 267.94 98.74 268.22 90.73 265.27 89.52
  C 263.24 88.69 254.85 88.07 256.06 92.77
  Q 256.20 93.32 256.72 93.08
  C 259.41 91.80 261.59 90.53 263.91 93.68
  A 0.82 0.82 0.0 0 1 263.23 94.99
  C 248.39 94.70 255.68 108.82 263.27 102.75
  Q 263.67 102.43 263.90 102.89
  Z
  M 275.01 89.53
  A 0.52 0.52 0.0 0 0 274.49 89.01
  L 271.77 89.01
  A 0.52 0.52 0.0 0 0 271.25 89.53
  L 271.25 103.49
  A 0.52 0.52 0.0 0 0 271.77 104.01
  L 274.49 104.01
  A 0.52 0.52 0.0 0 0 275.01 103.49
  L 275.01 89.53
  Z
  M 290.76 89.59
  A 0.59 0.59 0.0 0 0 290.17 89.00
  L 287.59 89.00
  A 0.59 0.59 0.0 0 0 287.00 89.59
  L 287.00 103.41
  A 0.59 0.59 0.0 0 0 287.59 104.00
  L 290.17 104.00
  A 0.59 0.59 0.0 0 0 290.76 103.41
  L 290.76 89.59
  Z
  M 303.74 92.59
  C 305.59 95.39 304.90 99.43 305.06 103.52
  Q 305.08 104.00 305.56 104.00
  L 308.06 104.00
  Q 308.64 104.00 308.68 103.42
  C 309.01 98.48 310.13 85.17 300.13 89.80
  Q 299.73 89.99 299.34 89.78
  Q 297.60 88.85 295.64 89.00
  Q 295.00 89.05 295.00 89.69
  L 295.00 103.25
  Q 295.00 104.00 295.75 104.00
  L 298.06 104.00
  Q 298.77 104.00 298.76 103.29
  C 298.73 100.09 297.20 91.29 302.81 92.01
  Q 303.40 92.09 303.74 92.59
  Z
  M 322.36 102.08
  A 0.21 0.20 -19.4 0 1 322.70 102.24
  C 322.44 109.00 318.30 108.19 313.28 107.31
  Q 312.75 107.21 312.75 107.75
  L 312.75 110.20
  Q 312.75 110.63 313.17 110.69
  C 320.20 111.72 325.81 111.46 326.12 102.91
  Q 326.36 96.32 326.24 89.65
  Q 326.23 89.09 325.67 89.03
  Q 323.95 88.83 322.30 89.58
  Q 321.82 89.79 321.34 89.60
  C 314.09 86.62 309.50 93.61 311.84 99.91
  C 313.60 104.65 318.73 105.15 322.36 102.08
  Z
  M 352.28 98.44
  A 0.51 0.51 0.0 0 1 352.75 97.75
  L 361.73 97.75
  Q 362.18 97.75 362.25 97.31
  C 364.01 86.48 349.05 85.91 348.25 96.45
  C 347.53 105.86 362.04 106.02 361.44 100.75
  Q 361.37 100.17 360.80 100.29
  C 357.66 100.98 353.93 102.58 352.28 98.44
  Z
  M 370.41 100.93
  Q 367.58 101.71 364.90 100.51
  Q 364.44 100.31 364.23 100.77
  C 361.89 105.96 377.37 105.09 374.92 98.54
  C 373.79 95.51 370.62 95.66 368.34 94.02
  Q 367.91 93.70 368.01 93.18
  C 368.46 90.99 372.14 91.81 373.59 92.43
  Q 374.25 92.71 374.25 91.99
  L 374.25 89.93
  Q 374.25 89.29 373.62 89.17
  C 369.86 88.46 361.67 89.25 364.68 95.58
  Q 364.93 96.10 365.45 96.35
  L 370.60 98.76
  A 1.16 1.16 0.0 0 1 370.41 100.93
  Z"
/>
<circle fill="#ffffff" cx="305.74" cy="54.04" r="2.09"/>
<path fill="#ffffff" d="
  M 282.96 68.10
  L 286.55 53.70
  Q 286.70 53.12 287.30 53.11
  L 289.85 53.06
  Q 290.75 53.04 290.48 53.90
  Q 287.84 62.29 285.83 70.80
  C 285.13 73.76 283.94 75.02 280.83 73.79
  Q 280.41 73.62 280.29 73.18
  L 276.65 59.49
  Q 276.39 58.49 276.11 59.49
  L 272.36 73.39
  Q 272.21 73.94 271.64 73.95
  L 268.41 74.02
  Q 267.75 74.03 267.57 73.39
  L 262.12 53.73
  Q 261.93 53.02 262.66 53.02
  L 265.24 52.99
  Q 265.94 52.99 266.12 53.66
  L 269.89 68.02
  A 0.34 0.34 0.0 0 0 270.54 68.02
  L 274.32 53.65
  Q 274.50 53.00 275.17 53.00
  L 277.95 53.00
  Q 278.60 53.00 278.76 53.63
  L 282.46 68.10
  Q 282.71 69.08 282.96 68.10
  Z"
/>
<path fill="#ffffff" d="
  M 316.75 59.00
  L 319.29 59.00
  Q 319.89 59.00 320.00 59.59
  Q 320.24 60.98 319.22 61.92
  Q 318.79 62.31 318.28 62.01
  Q 317.27 61.40 316.41 62.23
  Q 316.05 62.59 316.03 63.09
  C 315.91 65.83 315.04 71.27 319.17 71.26
  Q 319.64 71.25 319.84 71.67
  C 321.50 75.16 314.92 74.14 313.78 73.03
  C 311.67 71.00 312.19 65.54 312.26 62.65
  Q 312.28 62.08 311.72 61.94
  L 310.51 61.64
  Q 310.00 61.51 310.00 60.99
  L 310.00 59.83
  Q 310.00 59.16 310.67 59.10
  Q 313.03 58.88 312.11 56.32
  Q 311.85 55.61 312.60 55.48
  L 315.32 55.00
  Q 316.00 54.89 316.00 55.57
  L 316.00 58.25
  Q 316.00 59.00 316.75 59.00
  Z"
/>
<path fill="#ffffff" d="
  M 296.86 64.17
  L 296.70 73.53
  Q 296.69 74.00 296.22 74.00
  L 293.62 74.00
  Q 293.00 74.00 293.00 73.37
  L 293.00 59.79
  Q 293.00 59.24 293.53 59.13
  Q 295.36 58.74 297.09 59.60
  Q 297.57 59.84 298.03 59.58
  C 299.33 58.83 302.67 58.54 301.96 60.94
  Q 301.84 61.35 301.45 61.51
  L 297.57 63.13
  Q 296.87 63.42 296.86 64.17
  Z"
/>
<rect fill="#ffffff" x="-1.87" y="-7.49" transform="translate(305.88,66.51) rotate(0.1)" width="3.74" height="14.98" rx="0.77"/>
<path fill="#ffffff" d="
  M 325.28 68.61
  Q 328.31 73.16 333.43 70.16
  A 0.72 0.72 0.0 0 1 334.51 70.76
  C 334.61 73.86 332.48 73.71 329.87 74.01
  Q 323.19 74.75 321.67 69.04
  C 318.42 56.80 337.21 54.96 335.30 67.28
  Q 335.23 67.75 334.75 67.75
  L 325.74 67.75
  A 0.55 0.55 0.0 0 0 325.28 68.61
  Z
  M 325.49 64.98
  L 331.49 64.96
  A 0.14 0.14 0.0 0 0 331.63 64.82
  L 331.63 64.73
  A 3.12 3.01 -0.1 0 0 328.51 61.73
  L 328.47 61.73
  A 3.12 3.01 -0.1 0 0 325.35 64.75
  L 325.35 64.84
  A 0.14 0.14 0.0 0 0 325.49 64.98
  Z"
/>
<path fill="#ffffff" d="
  M 354.30 72.72
  Q 350.39 75.34 346.56 72.82
  Q 346.13 72.54 345.98 72.05
  C 344.02 65.92 350.03 65.03 354.28 64.96
  A 0.74 0.74 0.0 0 0 354.87 63.79
  Q 352.00 59.78 347.81 63.24
  Q 347.03 63.88 347.02 62.88
  L 346.99 60.85
  Q 346.99 60.32 347.47 60.09
  Q 351.87 58.05 355.53 59.23
  C 359.81 60.61 358.88 69.66 358.66 73.31
  Q 358.64 73.73 358.25 73.88
  Q 355.76 74.81 354.79 72.85
  Q 354.62 72.51 354.30 72.72
  Z
  M 354.27 67.37
  L 349.09 68.46
  A 0.45 0.45 0.0 0 0 348.74 68.99
  L 348.77 69.13
  A 2.87 2.63 -11.8 0 0 352.11 71.11
  L 352.56 71.02
  A 2.87 2.63 -11.8 0 0 354.84 67.86
  L 354.81 67.72
  A 0.45 0.45 0.0 0 0 354.27 67.37
  Z"
/>
<path fill="#d55252" d="
  M 325.49 64.98
  A 0.14 0.14 0.0 0 1 325.35 64.84
  L 325.35 64.75
  A 3.12 3.01 -0.1 0 1 328.47 61.73
  L 328.51 61.73
  A 3.12 3.01 -0.1 0 1 331.63 64.73
  L 331.63 64.82
  A 0.14 0.14 0.0 0 1 331.49 64.96
  L 325.49 64.98
  Z"
/>
<path fill="#d55252" d="
  M 354.27 67.37
  A 0.45 0.45 0.0 0 1 354.81 67.72
  L 354.84 67.86
  A 2.87 2.63 -11.8 0 1 352.56 71.02
  L 352.11 71.11
  A 2.87 2.63 -11.8 0 1 348.77 69.13
  L 348.74 68.99
  A 0.45 0.45 0.0 0 1 349.09 68.46
  L 354.27 67.37
  Z"
/>
<path fill="#ffffff" d="
  M 250.00 92.75
  L 250.00 103.38
  Q 250.00 104.01 249.37 104.01
  L 246.89 103.98
  Q 246.25 103.98 246.25 103.33
  L 246.25 92.57
  Q 246.25 92.12 245.81 92.01
  L 244.65 91.72
  Q 244.13 91.59 244.03 91.07
  Q 243.60 88.86 245.65 88.89
  Q 246.31 88.89 246.26 88.23
  C 245.90 83.78 248.23 79.86 253.38 81.20
  Q 254.00 81.36 254.00 81.99
  L 254.00 83.44
  Q 254.00 83.94 253.49 83.91
  C 248.73 83.60 248.68 90.58 252.98 88.82
  Q 253.65 88.54 253.69 89.27
  L 253.77 91.35
  Q 253.80 92.00 253.15 92.00
  L 250.75 92.00
  Q 250.00 92.00 250.00 92.75
  Z"
/>
<rect fill="#ffffff" x="279.10" y="81.02" width="3.88" height="22.98" rx="0.40"/>
<circle fill="#ffffff" cx="273.23" cy="84.03" r="2.12"/>
<circle fill="#ffffff" cx="288.71" cy="84.03" r="2.08"/>
<path fill="#ffffff" d="
  M 343.63 89.00
  L 346.51 89.00
  Q 347.35 89.00 347.09 89.80
  L 346.41 91.90
  Q 346.15 92.72 345.48 92.17
  Q 344.51 91.37 343.50 92.00
  Q 343.07 92.27 343.04 92.79
  C 342.90 95.46 342.00 101.24 346.15 101.13
  Q 346.64 101.12 346.85 101.57
  Q 347.67 103.35 346.00 103.83
  C 337.95 106.14 339.12 97.06 339.27 92.67
  Q 339.29 92.19 338.82 92.07
  L 337.55 91.75
  Q 337.00 91.62 337.00 91.05
  L 337.00 89.78
  Q 337.00 89.19 337.59 89.15
  Q 340.08 88.97 339.14 86.27
  Q 338.92 85.66 339.56 85.53
  L 342.31 85.00
  Q 343.00 84.86 343.00 85.56
  L 343.00 88.38
  Q 343.00 89.00 343.63 89.00
  Z"
/>
<path fill="#ffffff" d="
  M 382.72 92.69
  L 382.83 100.09
  Q 382.84 100.82 383.57 100.88
  L 385.95 101.07
  Q 386.49 101.11 386.43 101.65
  L 386.24 103.15
  Q 386.18 103.69 385.65 103.83
  Q 381.66 104.87 379.36 102.01
  Q 379.00 101.57 379.00 100.99
  L 379.00 92.65
  Q 379.00 92.05 378.41 91.95
  L 376.68 91.67
  Q 376.25 91.60 376.25 91.17
  L 376.25 89.75
  Q 376.25 89.00 377.00 89.00
  L 378.37 89.00
  Q 379.00 89.00 379.00 88.37
  L 379.00 86.50
  Q 379.00 85.97 379.45 85.70
  Q 380.82 84.89 382.33 85.08
  Q 382.95 85.16 382.90 85.78
  L 382.70 88.19
  Q 382.64 89.00 383.45 89.00
  L 385.87 89.00
  Q 386.56 89.00 386.43 89.68
  L 386.15 91.26
  Q 386.02 91.99 385.28 91.95
  L 383.56 91.87
  Q 382.70 91.83 382.72 92.69
  Z"
/>
<path fill="#ffffff" d="
  M 263.27 102.75
  C 255.68 108.82 248.39 94.70 263.23 94.99
  A 0.82 0.82 0.0 0 0 263.91 93.68
  C 261.59 90.53 259.41 91.80 256.72 93.08
  Q 256.20 93.32 256.06 92.77
  C 254.85 88.07 263.24 88.69 265.27 89.52
  C 268.22 90.73 267.94 98.74 267.59 103.34
  Q 267.55 103.79 267.12 103.94
  Q 264.82 104.69 263.90 102.89
  Q 263.67 102.43 263.27 102.75
  Z
  M 263.35 97.39
  L 258.24 98.23
  A 0.51 0.51 0.0 0 0 257.81 98.82
  L 257.84 98.95
  A 2.91 2.67 -9.3 0 0 261.14 101.12
  L 261.52 101.06
  A 2.91 2.67 -9.3 0 0 263.96 97.95
  L 263.93 97.81
  A 0.51 0.51 0.0 0 0 263.35 97.39
  Z"
/>
<rect fill="#ffffff" x="271.25" y="89.01" width="3.76" height="15.00" rx="0.52"/>
<rect fill="#ffffff" x="287.00" y="89.00" width="3.76" height="15.00" rx="0.59"/>
<path fill="#ffffff" d="
  M 302.81 92.01
  C 297.20 91.29 298.73 100.09 298.76 103.29
  Q 298.77 104.00 298.06 104.00
  L 295.75 104.00
  Q 295.00 104.00 295.00 103.25
  L 295.00 89.69
  Q 295.00 89.05 295.64 89.00
  Q 297.60 88.85 299.34 89.78
  Q 299.73 89.99 300.13 89.80
  C 310.13 85.17 309.01 98.48 308.68 103.42
  Q 308.64 104.00 308.06 104.00
  L 305.56 104.00
  Q 305.08 104.00 305.06 103.52
  C 304.90 99.43 305.59 95.39 303.74 92.59
  Q 303.40 92.09 302.81 92.01
  Z"
/>
<path fill="#ffffff" d="
  M 322.36 102.08
  C 318.73 105.15 313.60 104.65 311.84 99.91
  C 309.50 93.61 314.09 86.62 321.34 89.60
  Q 321.82 89.79 322.30 89.58
  Q 323.95 88.83 325.67 89.03
  Q 326.23 89.09 326.24 89.65
  Q 326.36 96.32 326.12 102.91
  C 325.81 111.46 320.20 111.72 313.17 110.69
  Q 312.75 110.63 312.75 110.20
  L 312.75 107.75
  Q 312.75 107.21 313.28 107.31
  C 318.30 108.19 322.44 109.00 322.70 102.24
  A 0.21 0.20 -19.4 0 0 322.36 102.08
  Z
  M 318.4180 101.0147
  A 4.54 3.82 94.7 0 0 322.5972 96.8030
  A 4.54 3.82 94.7 0 0 319.1620 91.9653
  A 4.54 3.82 94.7 0 0 314.9828 96.1770
  A 4.54 3.82 94.7 0 0 318.4180 101.0147
  Z"
/>
<path fill="#ffffff" d="
  M 352.28 98.44
  C 353.93 102.58 357.66 100.98 360.80 100.29
  Q 361.37 100.17 361.44 100.75
  C 362.04 106.02 347.53 105.86 348.25 96.45
  C 349.05 85.91 364.01 86.48 362.25 97.31
  Q 362.18 97.75 361.73 97.75
  L 352.75 97.75
  A 0.51 0.51 0.0 0 0 352.28 98.44
  Z
  M 352.46 95.03
  L 358.50 94.99
  A 0.18 0.18 0.0 0 0 358.68 94.81
  L 358.68 94.75
  A 3.09 3.02 -0.4 0 0 355.57 91.75
  L 355.35 91.75
  A 3.09 3.02 -0.4 0 0 352.28 94.79
  L 352.28 94.85
  A 0.18 0.18 0.0 0 0 352.46 95.03
  Z"
/>
<path fill="#ffffff" d="
  M 370.41 100.93
  A 1.16 1.16 0.0 0 0 370.60 98.76
  L 365.45 96.35
  Q 364.93 96.10 364.68 95.58
  C 361.67 89.25 369.86 88.46 373.62 89.17
  Q 374.25 89.29 374.25 89.93
  L 374.25 91.99
  Q 374.25 92.71 373.59 92.43
  C 372.14 91.81 368.46 90.99 368.01 93.18
  Q 367.91 93.70 368.34 94.02
  C 370.62 95.66 373.79 95.51 374.92 98.54
  C 377.37 105.09 361.89 105.96 364.23 100.77
  Q 364.44 100.31 364.90 100.51
  Q 367.58 101.71 370.41 100.93
  Z"
/>
<path fill="#d55252" d="
  M 352.46 95.03
  A 0.18 0.18 0.0 0 1 352.28 94.85
  L 352.28 94.79
  A 3.09 3.02 -0.4 0 1 355.35 91.75
  L 355.57 91.75
  A 3.09 3.02 -0.4 0 1 358.68 94.75
  L 358.68 94.81
  A 0.18 0.18 0.0 0 1 358.50 94.99
  L 352.46 95.03
  Z"
/>
<ellipse fill="#d55252" cx="0.00" cy="0.00" transform="translate(318.79,96.49) rotate(94.7)" rx="4.54" ry="3.82"/>
<path fill="#d55252" d="
  M 263.35 97.39
  A 0.51 0.51 0.0 0 1 263.93 97.81
  L 263.96 97.95
  A 2.91 2.67 -9.3 0 1 261.52 101.06
  L 261.14 101.12
  A 2.91 2.67 -9.3 0 1 257.84 98.95
  L 257.81 98.82
  A 0.51 0.51 0.0 0 1 258.24 98.23
  L 263.35 97.39
  Z"
/>
<path fill="#ffffff" d="
  M 88.14 186.34
  L 81.50 186.79
  L 80.53 186.50
  A 0.09 0.09 0.0 0 1 80.53 186.32
  Q 84.58 185.23 88.14 186.34
  Z"
/>
<path fill="#5792f8" d="
  M 92.00 194.04
  Q 95.28 196.08 98.79 194.25
  Q 99.19 194.46 99.39 194.84
  Q 108.59 212.07 117.46 229.50
  C 118.37 231.31 117.89 232.17 117.04 233.80
  Q 95.37 275.72 92.84 323.48
  Q 90.43 329.17 92.25 335.07
  L 92.71 341.25
  Q 91.10 343.61 92.62 346.06
  L 92.96 353.26
  Q 92.98 353.78 93.48 353.88
  Q 96.67 354.52 99.73 355.10
  C 161.82 366.76 189.91 435.07 154.96 488.03
  A 0.61 0.60 39.2 0 0 155.04 488.79
  C 199.12 533.10 260.07 561.32 323.49 553.36
  A 0.50 0.49 -79.2 0 1 323.98 554.09
  Q 313.21 573.65 302.45 593.10
  C 301.93 594.05 301.96 595.50 302.44 596.26
  Q 314.14 615.05 323.81 635.00
  L 305.44 635.00
  Q 224.86 630.77 156.97 589.08
  C 129.90 572.46 105.50 550.20 85.26 525.75
  Q 84.03 524.26 81.21 524.13
  C 38.81 522.21 4.79 490.25 0.00 447.69
  L 0.00 429.44
  Q 2.63 409.39 13.38 392.52
  C 15.24 389.60 18.16 386.29 20.35 383.04
  Q 20.61 382.65 20.49 382.19
  Q 20.27 381.34 20.15 380.47
  Q 6.11 281.54 52.24 193.67
  A 1.61 1.59 14.4 0 1 53.71 192.81
  L 92.00 194.04
  Z
  M 69.44 438.71
  L 71.62 438.95
  Q 72.25 439.02 72.25 438.39
  L 72.25 436.63
  Q 72.25 436.00 71.62 436.00
  L 69.53 436.00
  Q 69.00 436.00 68.87 435.48
  C 68.25 432.94 69.39 430.61 72.21 430.77
  Q 72.75 430.80 72.75 430.25
  L 72.75 428.79
  Q 72.75 428.23 72.20 428.11
  C 66.69 426.98 64.90 430.54 65.29 435.37
  Q 65.34 436.00 64.71 436.00
  L 63.50 436.00
  Q 62.75 436.00 62.75 436.75
  L 62.75 438.56
  Q 62.75 439.15 63.32 439.02
  L 64.56 438.75
  Q 65.25 438.60 65.25 439.31
  L 65.25 450.25
  Q 65.25 451.00 66.00 451.00
  L 68.13 451.00
  Q 68.75 451.00 68.75 450.38
  L 68.75 439.32
  Q 68.75 438.63 69.44 438.71
  Z
  M 41.03 440.88
  Q 46.64 437.80 43.66 432.19
  Q 43.43 431.74 42.98 431.50
  C 39.13 429.44 35.66 429.88 31.41 430.04
  Q 30.75 430.06 30.75 430.72
  L 30.75 450.25
  Q 30.75 451.00 31.50 451.00
  L 33.62 451.00
  Q 34.25 451.00 34.25 450.38
  L 34.25 442.53
  Q 34.25 441.96 34.82 442.00
  C 38.97 442.28 40.65 447.44 42.60 450.50
  Q 42.91 450.98 43.48 450.99
  L 46.42 451.01
  Q 47.07 451.01 46.80 450.42
  Q 44.56 445.52 40.92 441.61
  Q 40.51 441.17 41.03 440.88
  Z
  M 104.92 439.28
  L 105.17 448.54
  A 1.98 1.97 11.9 0 0 106.31 450.28
  Q 108.89 451.48 111.61 450.78
  Q 112.20 450.63 112.24 450.03
  L 112.35 448.57
  Q 112.41 447.74 111.60 447.96
  C 107.56 449.06 108.68 442.15 108.83 439.19
  Q 108.86 438.66 109.39 438.71
  L 111.60 438.92
  Q 112.23 438.98 112.23 438.35
  L 112.26 436.63
  Q 112.27 436.00 111.63 436.00
  L 109.38 436.00
  Q 108.75 436.00 108.75 435.38
  L 108.75 432.68
  Q 108.75 432.08 108.16 432.16
  L 105.66 432.50
  Q 105.00 432.59 105.00 433.26
  L 105.00 435.50
  Q 105.00 436.00 104.50 436.00
  L 102.88 436.00
  Q 102.25 436.00 102.25 436.63
  L 102.25 438.39
  Q 102.25 439.03 102.88 438.93
  L 104.27 438.73
  Q 104.91 438.63 104.92 439.28
  Z
  M 50.98 445.31
  A 0.51 0.50 86.9 0 1 51.48 444.75
  L 60.25 444.75
  Q 60.71 444.75 60.82 444.29
  C 62.41 437.47 55.49 433.44 50.17 437.32
  C 45.82 440.49 46.15 447.24 50.53 450.17
  C 52.48 451.47 61.50 452.17 59.88 447.42
  Q 59.73 446.97 59.32 447.21
  C 57.02 448.53 51.40 449.16 50.98 445.31
  Z
  M 82.77 449.27
  Q 82.80 449.75 82.57 450.12
  Q 82.06 450.97 83.05 450.98
  L 85.53 451.01
  Q 86.19 451.02 86.20 450.36
  C 86.28 447.42 87.16 438.17 84.24 436.75
  Q 80.29 434.82 75.28 436.96
  Q 74.80 437.16 74.78 437.69
  L 74.68 440.15
  Q 74.64 440.94 75.21 440.39
  C 77.45 438.18 81.52 437.55 82.63 441.38
  Q 82.80 441.97 82.19 442.00
  C 64.43 442.81 77.34 456.64 82.08 449.09
  Q 82.69 448.13 82.77 449.27
  Z
  M 100.32 447.26
  C 89.76 452.09 91.22 434.48 100.19 439.73
  Q 101.00 440.21 101.00 439.26
  L 101.00 437.18
  Q 101.00 436.56 100.39 436.39
  C 87.15 432.81 86.06 450.36 94.90 450.89
  C 97.35 451.04 101.76 451.72 100.95 447.58
  A 0.45 0.45 0.0 0 0 100.32 447.26
  Z
  M 129.53 443.49
  A 7.84 7.84 0.0 0 0 121.69 435.65
  A 7.84 7.84 0.0 0 0 113.85 443.49
  A 7.84 7.84 0.0 0 0 121.69 451.33
  A 7.84 7.84 0.0 0 0 129.53 443.49
  Z
  M 136.85 436.63
  Q 135.37 435.58 133.50 436.11
  Q 133.00 436.25 133.00 436.77
  L 133.00 450.34
  Q 133.00 450.99 133.65 450.99
  L 136.05 450.99
  Q 136.75 450.99 136.75 450.28
  C 136.75 446.72 135.11 438.87 140.92 439.10
  Q 141.66 439.13 141.69 438.39
  L 141.75 436.79
  Q 141.77 436.13 141.12 436.04
  Q 139.37 435.80 137.92 436.67
  Q 137.37 437.00 136.85 436.63
  Z"
/>
<path fill="#6aab77" d="
  M 620.67 316.99
  Q 618.84 320.85 620.96 324.50
  Q 621.66 335.66 620.83 346.70
  Q 618.94 350.54 620.42 354.53
  C 620.16 363.07 618.67 371.15 617.98 379.64
  Q 617.93 380.16 618.29 380.54
  Q 638.02 402.01 641.00 431.31
  L 641.00 446.81
  C 635.92 491.65 599.83 525.17 554.18 524.00
  Q 553.67 523.98 553.34 524.38
  C 499.18 590.45 421.63 629.45 336.11 634.19
  C 335.17 634.24 334.30 633.92 333.25 634.01
  Q 332.71 634.05 332.42 633.58
  L 308.98 594.91
  A 1.23 1.22 43.2 0 1 308.94 593.69
  L 331.17 552.34
  A 2.35 2.33 10.4 0 1 332.95 551.12
  C 342.15 549.96 351.99 548.73 360.60 546.93
  C 400.03 538.67 437.35 519.91 467.09 492.58
  Q 474.73 487.12 480.72 479.79
  A 0.55 0.55 0.0 0 0 480.68 479.04
  Q 480.32 478.70 480.24 478.76
  Q 463.11 442.89 476.75 407.48
  C 486.68 381.71 509.80 361.55 537.21 355.96
  A 1.01 1.00 86.3 0 0 538.01 355.04
  L 539.16 338.09
  Q 541.29 326.95 539.10 315.99
  Q 536.47 270.67 517.09 230.19
  A 0.89 0.89 0.0 0 1 518.02 228.93
  L 539.90 232.08
  Q 545.38 234.33 551.26 233.54
  L 555.00 233.96
  Q 555.18 235.51 557.23 235.11
  C 557.74 235.01 558.21 235.19 558.25 234.29
  L 562.75 235.09
  Q 565.08 236.78 567.47 235.66
  L 584.83 194.17
  A 0.56 0.55 41.4 0 1 585.82 194.11
  C 606.85 230.50 618.15 275.31 620.67 316.99
  Z
  M 541.93 422.85
  L 546.60 428.56
  Q 546.96 429.00 547.52 429.00
  L 551.43 429.00
  Q 552.23 429.00 551.68 428.42
  L 545.61 421.97
  Q 545.14 421.47 545.57 420.94
  L 550.53 414.74
  Q 550.91 414.26 550.32 414.10
  C 545.57 412.84 544.80 417.00 542.20 419.68
  Q 541.75 420.15 541.75 419.49
  L 541.75 406.75
  Q 541.75 406.00 541.00 406.00
  L 538.63 406.00
  Q 538.00 406.00 538.00 406.62
  L 538.00 428.25
  Q 538.00 429.00 538.75 429.00
  L 541.17 429.00
  Q 541.85 429.00 541.82 428.32
  L 541.53 423.00
  Q 541.50 422.32 541.93 422.85
  Z
  M 592.67 414.91
  A 0.46 0.46 0.0 0 1 592.00 414.50
  L 592.00 406.67
  Q 592.00 406.02 591.35 406.02
  L 588.63 405.99
  Q 588.00 405.99 588.00 406.62
  L 588.00 428.33
  Q 588.00 428.98 588.65 428.98
  L 591.42 429.01
  Q 592.03 429.01 592.02 428.40
  C 591.96 423.87 590.57 417.08 595.92 417.00
  Q 596.44 417.00 596.77 417.39
  C 598.69 419.66 597.94 424.75 598.05 428.51
  Q 598.07 429.00 598.56 429.00
  L 601.59 429.00
  Q 602.19 429.00 602.16 428.40
  L 601.56 416.81
  Q 601.53 416.14 601.01 415.71
  Q 597.23 412.55 592.67 414.91
  Z
  M 498.97 414.22
  Q 501.72 420.67 504.16 427.25
  C 504.76 428.88 505.84 429.46 507.48 428.91
  Q 508.02 428.73 508.23 428.20
  L 513.42 414.88
  A 0.30 0.30 0.0 0 1 514.00 414.99
  L 514.00 428.25
  Q 514.00 429.00 514.75 429.00
  L 517.38 429.00
  Q 518.00 429.00 518.00 428.38
  L 518.00 408.77
  Q 518.00 408.06 517.28 408.05
  L 513.37 407.98
  Q 512.73 407.97 512.49 408.57
  L 506.84 423.02
  A 0.33 0.33 0.0 0 1 506.22 423.02
  L 500.48 408.50
  Q 500.28 408.00 499.74 408.00
  L 495.75 408.00
  Q 495.00 408.00 495.00 408.75
  L 495.00 428.34
  Q 495.00 429.00 495.66 429.00
  L 498.12 429.00
  Q 498.75 429.00 498.75 428.37
  L 498.75 414.27
  Q 498.75 413.70 498.97 414.22
  Z
  M 582.00 413.12
  L 582.00 410.88
  Q 582.00 410.25 581.38 410.25
  L 578.75 410.25
  Q 578.00 410.25 578.00 411.00
  L 578.00 413.19
  Q 578.00 413.95 577.25 413.98
  L 576.01 414.02
  Q 575.39 414.04 575.30 414.66
  L 575.11 416.07
  Q 575.01 416.81 575.75 416.88
  L 577.19 417.03
  Q 577.85 417.10 577.88 417.76
  L 578.27 426.56
  Q 578.30 427.25 578.87 427.64
  Q 581.74 429.63 585.32 428.89
  Q 585.83 428.78 585.79 428.26
  L 585.62 426.45
  Q 585.56 425.74 584.86 425.89
  C 580.76 426.75 581.97 420.09 582.01 417.84
  Q 582.02 417.31 582.48 417.06
  Q 583.60 416.43 584.70 417.09
  Q 585.54 417.60 585.62 416.62
  L 585.77 414.70
  Q 585.83 414.00 585.13 414.00
  L 582.88 414.00
  Q 582.00 414.00 582.00 413.12
  Z
  M 608.50 423.06
  Q 608.43 422.75 608.74 422.75
  L 618.20 422.75
  Q 618.61 422.75 618.67 422.35
  C 619.21 418.97 618.19 415.75 614.79 414.41
  C 603.99 410.13 600.11 427.96 611.05 429.06
  C 613.07 429.27 618.56 428.92 617.82 425.72
  Q 617.71 425.27 617.26 425.39
  C 614.18 426.22 609.54 427.47 608.50 423.06
  Z
  M 530.09 427.87
  C 530.26 429.42 532.70 429.10 534.06 428.91
  Q 534.49 428.86 534.54 428.42
  C 535.45 420.00 534.72 410.16 523.26 414.89
  Q 522.84 415.06 522.58 415.45
  Q 521.90 416.50 522.22 417.49
  Q 522.41 418.06 523.00 417.92
  L 528.16 416.64
  Q 528.65 416.52 529.06 416.81
  Q 530.47 417.78 530.24 419.46
  Q 530.16 420.07 529.55 420.06
  C 515.42 419.73 521.99 433.88 529.86 427.77
  Q 530.07 427.61 530.09 427.87
  Z
  M 556.06 423.54
  A 0.51 0.51 0.0 0 1 556.48 422.75
  L 565.25 422.75
  Q 565.76 422.75 565.86 422.25
  C 568.00 411.25 551.34 410.65 551.97 422.76
  C 552.33 429.71 559.40 429.82 564.29 428.33
  Q 564.86 428.15 564.90 427.55
  L 565.02 425.43
  Q 565.08 424.40 564.21 424.94
  Q 559.12 428.14 556.06 423.54
  Z
  M 547.75 455.25
  L 547.75 447.67
  Q 547.75 447.03 548.39 447.02
  L 550.41 446.99
  Q 550.99 446.98 550.97 446.40
  L 550.90 444.68
  Q 550.87 444.00 550.19 444.00
  L 548.25 444.00
  Q 547.75 444.00 547.75 443.50
  L 547.75 440.68
  Q 547.75 439.85 546.93 439.99
  L 544.01 440.49
  Q 543.29 440.61 543.27 441.35
  L 543.24 443.22
  Q 543.22 443.84 542.61 443.92
  L 541.60 444.06
  Q 541.09 444.13 541.00 444.63
  Q 540.62 446.77 542.69 447.11
  Q 543.33 447.21 543.29 447.86
  Q 542.96 452.75 544.24 457.48
  Q 544.37 457.98 544.82 458.26
  C 546.21 459.10 552.34 460.32 550.87 456.46
  Q 550.69 456.00 550.20 456.00
  L 548.50 456.00
  Q 547.75 456.00 547.75 455.25
  Z
  M 508.01 443.38
  L 507.98 440.89
  Q 507.97 440.25 507.33 440.25
  L 504.63 440.25
  Q 504.00 440.25 504.00 440.87
  L 504.00 443.31
  Q 504.00 443.94 503.38 443.97
  L 502.27 444.02
  Q 501.70 444.05 501.39 444.53
  Q 500.72 445.58 501.30 446.65
  Q 501.61 447.22 502.23 447.04
  C 503.68 446.63 504.08 447.49 504.01 448.81
  Q 503.79 452.71 504.42 456.67
  Q 504.51 457.22 504.94 457.57
  Q 507.67 459.77 511.27 458.83
  Q 511.77 458.70 511.76 458.18
  L 511.73 456.80
  Q 511.72 456.28 511.21 456.16
  L 508.75 455.59
  Q 508.10 455.44 508.08 454.77
  L 507.96 447.70
  Q 507.95 447.03 508.61 447.02
  L 510.89 446.98
  Q 511.55 446.97 511.65 446.32
  L 511.89 444.76
  Q 512.01 444.00 511.24 444.00
  L 508.63 444.00
  Q 508.02 444.00 508.01 443.38
  Z
  M 517.02 453.62
  A 0.74 0.73 84.8 0 1 517.74 452.75
  L 526.45 452.75
  Q 526.90 452.75 526.95 452.30
  Q 527.71 445.53 522.33 444.26
  C 510.02 441.34 508.37 462.49 524.15 458.62
  C 525.61 458.26 526.22 457.14 526.18 455.75
  Q 526.17 455.10 525.53 455.21
  C 522.82 455.67 517.76 457.53 517.02 453.62
  Z
  M 532.99 447.38
  Q 535.63 445.97 538.24 447.51
  Q 539.17 448.06 539.06 446.99
  L 538.84 444.65
  Q 538.78 444.10 538.24 444.06
  C 534.00 443.73 526.17 444.22 529.72 451.16
  Q 529.94 451.60 530.40 451.77
  C 531.96 452.36 536.97 453.16 535.79 455.53
  Q 535.60 455.91 535.19 456.02
  Q 532.28 456.78 529.60 455.42
  Q 529.00 455.12 529.00 455.79
  L 529.00 458.06
  Q 529.00 458.67 529.60 458.79
  Q 534.45 459.78 538.72 457.67
  Q 539.19 457.44 539.35 456.94
  C 541.69 449.48 535.12 451.80 532.73 448.52
  Q 532.20 447.80 532.99 447.38
  Z
  M 565.85 445.60
  L 565.62 444.61
  Q 565.49 444.07 564.93 444.05
  L 562.65 443.98
  Q 562.00 443.96 562.00 444.61
  L 562.00 465.38
  Q 562.00 466.00 562.63 466.00
  L 565.12 466.00
  Q 565.75 466.00 565.75 465.37
  L 565.75 458.25
  Q 565.75 457.68 566.25 457.97
  C 576.26 463.77 580.98 446.77 572.35 444.13
  Q 569.05 443.12 566.09 445.67
  Q 565.91 445.83 565.85 445.60
  Z
  M 587.19 450.12
  Q 582.56 449.43 579.03 452.45
  Q 578.62 452.80 578.50 453.32
  C 577.14 459.04 583.53 460.70 587.15 457.42
  Q 587.62 457.00 587.82 457.59
  Q 588.63 459.91 591.27 458.81
  Q 591.74 458.61 591.74 458.11
  C 591.78 453.47 593.65 444.75 586.99 444.07
  C 583.98 443.76 578.76 443.60 580.09 448.42
  Q 580.25 448.99 580.67 448.56
  C 582.72 446.44 587.21 445.46 587.76 449.56
  Q 587.85 450.22 587.19 450.12
  Z
  M 598.19 448.17
  C 599.24 445.93 602.48 446.90 604.27 447.56
  Q 604.75 447.74 604.75 447.23
  L 604.75 445.05
  Q 604.75 444.54 604.25 444.41
  C 601.09 443.63 594.62 443.56 594.33 447.89
  C 593.98 453.03 602.46 452.76 601.08 455.62
  Q 600.89 456.02 600.44 456.09
  Q 597.59 456.54 594.87 455.50
  Q 594.06 455.20 594.13 456.05
  L 594.30 458.12
  Q 594.35 458.69 594.92 458.77
  C 598.24 459.24 603.10 459.60 605.09 456.30
  C 607.48 452.35 600.71 450.00 598.46 448.92
  Q 597.95 448.68 598.19 448.17
  Z
  M 611.25 448.10
  C 612.37 445.70 615.56 447.20 617.49 447.50
  Q 618.03 447.58 617.96 447.03
  L 617.67 444.92
  Q 617.61 444.42 617.11 444.30
  C 614.02 443.53 608.74 443.50 607.46 447.21
  C 605.51 452.84 615.76 452.55 614.02 455.68
  Q 613.78 456.12 613.28 456.19
  Q 610.50 456.57 607.92 455.49
  Q 607.25 455.21 607.25 455.94
  L 607.25 458.23
  Q 607.25 458.84 607.85 458.90
  C 610.92 459.20 616.52 459.52 618.24 456.41
  C 620.45 452.41 613.93 450.14 611.50 448.86
  Q 611.02 448.60 611.25 448.10
  Z"
/>
<path fill="#ffffff" d="
  M 92.00 194.04
  L 98.79 194.25
  Q 95.28 196.08 92.00 194.04
  Z"
/>
<path fill="#ffffff" d="
  M 539.90 232.08
  L 551.26 233.54
  Q 545.38 234.33 539.90 232.08
  Z"
/>
<path fill="#ffffff" d="
  M 555.00 233.96
  L 558.25 234.29
  C 558.21 235.19 557.74 235.01 557.23 235.11
  Q 555.18 235.51 555.00 233.96
  Z"
/>
<path fill="#ffffff" d="
  M 562.75 235.09
  Q 565.17 234.82 567.47 235.66
  Q 565.08 236.78 562.75 235.09
  Z"
/>
<path fill="#8b8b8b" d="
  M 306.52 295.04
  C 330.36 296.93 341.92 311.35 342.42 334.36
  C 342.84 353.86 329.96 370.79 310.59 374.95
  C 300.14 377.20 286.00 376.08 274.67 375.96
  Q 274.00 375.95 274.00 375.28
  L 274.00 295.72
  Q 274.00 295.07 274.65 295.05
  C 285.09 294.87 298.88 294.44 306.52 295.04
  Z
  M 302.28 364.20
  C 322.87 362.63 330.99 343.61 326.59 325.42
  C 322.36 307.90 308.25 306.77 292.75 306.96
  L 300.05 306.80
  Q 300.15 306.80 300.19 306.70
  Q 300.24 306.52 300.30 306.34
  Q 300.39 306.07 300.11 306.07
  L 288.99 306.12
  A 1.96 1.96 0.0 0 0 287.04 308.08
  L 287.02 362.68
  A 2.10 2.08 -86.3 0 0 288.83 364.76
  Q 295.74 365.69 302.28 364.20
  Z"
/>
<path fill="#8b8b8b" d="
  M 262.32 295.01
  L 262.08 304.89
  A 1.14 1.14 0.0 0 1 260.94 306.00
  L 240.05 306.00
  A 1.00 1.00 0.0 0 0 239.05 307.00
  L 239.39 375.99
  L 225.62 375.99
  L 225.95 307.40
  A 1.39 1.38 -0.2 0 0 224.54 306.01
  L 204.53 306.33
  A 1.81 1.81 0.0 0 1 202.71 304.23
  Q 203.43 299.75 202.54 295.06
  L 262.32 295.01
  Z"
/>
<path fill="#ffffff" d="
  M 262.32 295.01
  Q 263.52 300.01 262.85 305.19
  A 2.09 2.08 3.8 0 1 260.78 307.00
  L 240.46 307.00
  A 0.59 0.58 89.5 0 0 239.88 307.60
  Q 240.45 341.80 239.39 375.99
  L 239.05 307.00
  A 1.00 1.00 0.0 0 1 240.05 306.00
  L 260.94 306.00
  A 1.14 1.14 0.0 0 0 262.08 304.89
  L 262.32 295.01
  Z"
/>
<path fill="#ffffff" d="
  M 356.67 295.01
  Q 357.25 335.29 356.96 375.50
  Q 356.96 375.86 356.10 375.81
  Q 355.43 335.41 356.67 295.01
  Z"
/>
<path fill="#8b8b8b" d="
  M 356.67 295.01
  Q 373.31 294.99 388.51 295.00
  C 393.19 295.00 401.31 297.09 405.83 299.38
  Q 422.15 307.61 424.35 326.96
  L 423.91 339.91
  Q 423.90 340.33 424.31 340.24
  Q 424.53 340.20 424.71 340.00
  C 422.74 357.85 410.19 371.05 393.06 374.98
  C 382.98 377.30 367.94 376.07 356.10 375.81
  Q 356.96 375.86 356.96 375.50
  Q 357.25 335.29 356.67 295.01
  Z
  M 370.29 307.00
  Q 370.00 307.75 370.00 308.00
  Q 370.00 335.72 370.00 363.44
  Q 370.00 363.90 370.45 363.98
  L 370.75 364.04
  Q 370.48 364.10 370.36 364.30
  Q 370.13 364.68 370.57 364.74
  Q 378.53 365.78 386.30 364.07
  C 404.76 361.63 412.53 345.43 409.64 328.57
  C 406.96 312.90 397.30 307.14 382.10 306.74
  Q 376.11 305.35 370.10 306.26
  Q 369.59 306.34 369.92 306.74
  Q 370.07 306.93 370.29 307.00
  Z"
/>
<path fill="#ffffff" d="
  M 202.54 295.06
  Q 203.43 299.75 202.71 304.23
  A 1.81 1.81 0.0 0 0 204.53 306.33
  L 224.54 306.01
  A 1.39 1.38 -0.2 0 1 225.95 307.40
  L 225.62 375.99
  Q 224.54 341.83 225.13 307.58
  A 0.56 0.56 0.0 0 0 224.57 307.01
  L 203.75 306.98
  Q 202.48 306.98 202.29 305.72
  Q 201.43 300.11 202.54 295.06
  Z"
/>
<path fill="#ffffff" d="
  M 292.75 306.96
  L 288.61 307.10
  Q 288.00 307.12 288.00 307.74
  L 288.00 363.29
  Q 288.00 363.97 288.68 363.98
  L 302.28 364.20
  Q 295.74 365.69 288.83 364.76
  A 2.10 2.08 -86.3 0 1 287.02 362.68
  L 287.04 308.08
  A 1.96 1.96 0.0 0 1 288.99 306.12
  L 300.11 306.07
  Q 300.39 306.07 300.30 306.34
  Q 300.24 306.52 300.19 306.70
  Q 300.15 306.80 300.05 306.80
  L 292.75 306.96
  Z"
/>
<path fill="#ffffff" d="
  M 382.10 306.74
  L 370.29 307.00
  Q 370.07 306.93 369.92 306.74
  Q 369.59 306.34 370.10 306.26
  Q 376.11 305.35 382.10 306.74
  Z"
/>
<path fill="#ffffff" d="
  M 539.10 315.99
  Q 541.29 326.95 539.16 338.09
  L 539.10 315.99
  Z"
/>
<path fill="#ffffff" d="
  M 620.67 316.99
  L 620.96 324.50
  Q 618.84 320.85 620.67 316.99
  Z"
/>
<path fill="#ffffff" d="
  M 92.84 323.48
  Q 93.21 329.23 92.25 335.07
  Q 90.43 329.17 92.84 323.48
  Z"
/>
<path fill="#ffffff" d="
  M 424.35 326.96
  Q 425.58 333.46 424.71 340.00
  Q 424.53 340.20 424.31 340.24
  Q 423.90 340.33 423.91 339.91
  L 424.35 326.96
  Z"
/>
<path fill="#ffffff" d="
  M 92.71 341.25
  L 92.62 346.06
  Q 91.10 343.61 92.71 341.25
  Z"
/>
<path fill="#ffffff" d="
  M 620.83 346.70
  L 620.42 354.53
  Q 618.94 350.54 620.83 346.70
  Z"
/>
<path fill="#ffffff" d="
  M 386.30 364.07
  Q 378.53 365.78 370.57 364.74
  Q 370.13 364.68 370.36 364.30
  Q 370.48 364.10 370.75 364.04
  L 386.30 364.07
  Z"
/>
<path fill="#ffffff" d="
  M 541.53 423.00
  L 541.82 428.32
  Q 541.85 429.00 541.17 429.00
  L 538.75 429.00
  Q 538.00 429.00 538.00 428.25
  L 538.00 406.62
  Q 538.00 406.00 538.63 406.00
  L 541.00 406.00
  Q 541.75 406.00 541.75 406.75
  L 541.75 419.49
  Q 541.75 420.15 542.20 419.68
  C 544.80 417.00 545.57 412.84 550.32 414.10
  Q 550.91 414.26 550.53 414.74
  L 545.57 420.94
  Q 545.14 421.47 545.61 421.97
  L 551.68 428.42
  Q 552.23 429.00 551.43 429.00
  L 547.52 429.00
  Q 546.96 429.00 546.60 428.56
  L 541.93 422.85
  Q 541.50 422.32 541.53 423.00
  Z"
/>
<path fill="#ffffff" d="
  M 592.67 414.91
  Q 597.23 412.55 601.01 415.71
  Q 601.53 416.14 601.56 416.81
  L 602.16 428.40
  Q 602.19 429.00 601.59 429.00
  L 598.56 429.00
  Q 598.07 429.00 598.05 428.51
  C 597.94 424.75 598.69 419.66 596.77 417.39
  Q 596.44 417.00 595.92 417.00
  C 590.57 417.08 591.96 423.87 592.02 428.40
  Q 592.03 429.01 591.42 429.01
  L 588.65 428.98
  Q 588.00 428.98 588.00 428.33
  L 588.00 406.62
  Q 588.00 405.99 588.63 405.99
  L 591.35 406.02
  Q 592.00 406.02 592.00 406.67
  L 592.00 414.50
  A 0.46 0.46 0.0 0 0 592.67 414.91
  Z"
/>
<path fill="#ffffff" d="
  M 498.75 414.27
  L 498.75 428.37
  Q 498.75 429.00 498.12 429.00
  L 495.66 429.00
  Q 495.00 429.00 495.00 428.34
  L 495.00 408.75
  Q 495.00 408.00 495.75 408.00
  L 499.74 408.00
  Q 500.28 408.00 500.48 408.50
  L 506.22 423.02
  A 0.33 0.33 0.0 0 0 506.84 423.02
  L 512.49 408.57
  Q 512.73 407.97 513.37 407.98
  L 517.28 408.05
  Q 518.00 408.06 518.00 408.77
  L 518.00 428.38
  Q 518.00 429.00 517.38 429.00
  L 514.75 429.00
  Q 514.00 429.00 514.00 428.25
  L 514.00 414.99
  A 0.30 0.30 0.0 0 0 513.42 414.88
  L 508.23 428.20
  Q 508.02 428.73 507.48 428.91
  C 505.84 429.46 504.76 428.88 504.16 427.25
  Q 501.72 420.67 498.97 414.22
  Q 498.75 413.70 498.75 414.27
  Z"
/>
<path fill="#ffffff" d="
  M 582.88 414.00
  L 585.13 414.00
  Q 585.83 414.00 585.77 414.70
  L 585.62 416.62
  Q 585.54 417.60 584.70 417.09
  Q 583.60 416.43 582.48 417.06
  Q 582.02 417.31 582.01 417.84
  C 581.97 420.09 580.76 426.75 584.86 425.89
  Q 585.56 425.74 585.62 426.45
  L 585.79 428.26
  Q 585.83 428.78 585.32 428.89
  Q 581.74 429.63 578.87 427.64
  Q 578.30 427.25 578.27 426.56
  L 577.88 417.76
  Q 577.85 417.10 577.19 417.03
  L 575.75 416.88
  Q 575.01 416.81 575.11 416.07
  L 575.30 414.66
  Q 575.39 414.04 576.01 414.02
  L 577.25 413.98
  Q 578.00 413.95 578.00 413.19
  L 578.00 411.00
  Q 578.00 410.25 578.75 410.25
  L 581.38 410.25
  Q 582.00 410.25 582.00 410.88
  L 582.00 413.12
  Q 582.00 414.00 582.88 414.00
  Z"
/>
<path fill="#ffffff" d="
  M 608.50 423.06
  C 609.54 427.47 614.18 426.22 617.26 425.39
  Q 617.71 425.27 617.82 425.72
  C 618.56 428.92 613.07 429.27 611.05 429.06
  C 600.11 427.96 603.99 410.13 614.79 414.41
  C 618.19 415.75 619.21 418.97 618.67 422.35
  Q 618.61 422.75 618.20 422.75
  L 608.74 422.75
  Q 608.43 422.75 608.50 423.06
  Z
  M 609.01 419.95
  L 614.47 419.99
  A 0.27 0.27 0.0 0 0 614.74 419.73
  L 614.74 419.56
  A 2.86 2.76 0.5 0 0 611.90 416.77
  L 611.62 416.77
  A 2.86 2.76 0.5 0 0 608.74 419.50
  L 608.74 419.67
  A 0.27 0.27 0.0 0 0 609.01 419.95
  Z"
/>
<path fill="#ffffff" d="
  M 529.86 427.77
  C 521.99 433.88 515.42 419.73 529.55 420.06
  Q 530.16 420.07 530.24 419.46
  Q 530.47 417.78 529.06 416.81
  Q 528.65 416.52 528.16 416.64
  L 523.00 417.92
  Q 522.41 418.06 522.22 417.49
  Q 521.90 416.50 522.58 415.45
  Q 522.84 415.06 523.26 414.89
  C 534.72 410.16 535.45 420.00 534.54 428.42
  Q 534.49 428.86 534.06 428.91
  C 532.70 429.10 530.26 429.42 530.09 427.87
  Q 530.07 427.61 529.86 427.77
  Z
  M 529.63 422.55
  L 525.00 423.20
  A 0.29 0.29 0.0 0 0 524.75 423.53
  L 524.88 424.41
  A 2.39 2.18 -8.0 0 0 527.55 426.24
  L 528.02 426.17
  A 2.39 2.18 -8.0 0 0 530.08 423.68
  L 529.96 422.80
  A 0.29 0.29 0.0 0 0 529.63 422.55
  Z"
/>
<path fill="#ffffff" d="
  M 556.06 423.54
  Q 559.12 428.14 564.21 424.94
  Q 565.08 424.40 565.02 425.43
  L 564.90 427.55
  Q 564.86 428.15 564.29 428.33
  C 559.40 429.82 552.33 429.71 551.97 422.76
  C 551.34 410.65 568.00 411.25 565.86 422.25
  Q 565.76 422.75 565.25 422.75
  L 556.48 422.75
  A 0.51 0.51 0.0 0 0 556.06 423.54
  Z
  M 556.54 420.06
  L 562.08 419.92
  A 0.23 0.23 0.0 0 0 562.30 419.69
  L 562.30 419.56
  A 2.89 2.88 -1.4 0 0 559.34 416.75
  L 559.12 416.75
  A 2.89 2.88 -1.4 0 0 556.30 419.70
  L 556.30 419.83
  A 0.23 0.23 0.0 0 0 556.54 420.06
  Z"
/>
<path fill="#6aab77" d="
  M 556.54 420.06
  A 0.23 0.23 0.0 0 1 556.30 419.83
  L 556.30 419.70
  A 2.89 2.88 -1.4 0 1 559.12 416.75
  L 559.34 416.75
  A 2.89 2.88 -1.4 0 1 562.30 419.56
  L 562.30 419.69
  A 0.23 0.23 0.0 0 1 562.08 419.92
  L 556.54 420.06
  Z"
/>
<path fill="#6aab77" d="
  M 609.01 419.95
  A 0.27 0.27 0.0 0 1 608.74 419.67
  L 608.74 419.50
  A 2.86 2.76 0.5 0 1 611.62 416.77
  L 611.90 416.77
  A 2.86 2.76 0.5 0 1 614.74 419.56
  L 614.74 419.73
  A 0.27 0.27 0.0 0 1 614.47 419.99
  L 609.01 419.95
  Z"
/>
<path fill="#6aab77" d="
  M 529.63 422.55
  A 0.29 0.29 0.0 0 1 529.96 422.80
  L 530.08 423.68
  A 2.39 2.18 -8.0 0 1 528.02 426.17
  L 527.55 426.24
  A 2.39 2.18 -8.0 0 1 524.88 424.41
  L 524.75 423.53
  A 0.29 0.29 0.0 0 1 525.00 423.20
  L 529.63 422.55
  Z"
/>
<path fill="#ffffff" d="
  M 68.75 439.32
  L 68.75 450.38
  Q 68.75 451.00 68.13 451.00
  L 66.00 451.00
  Q 65.25 451.00 65.25 450.25
  L 65.25 439.31
  Q 65.25 438.60 64.56 438.75
  L 63.32 439.02
  Q 62.75 439.15 62.75 438.56
  L 62.75 436.75
  Q 62.75 436.00 63.50 436.00
  L 64.71 436.00
  Q 65.34 436.00 65.29 435.37
  C 64.90 430.54 66.69 426.98 72.20 428.11
  Q 72.75 428.23 72.75 428.79
  L 72.75 430.25
  Q 72.75 430.80 72.21 430.77
  C 69.39 430.61 68.25 432.94 68.87 435.48
  Q 69.00 436.00 69.53 436.00
  L 71.62 436.00
  Q 72.25 436.00 72.25 436.63
  L 72.25 438.39
  Q 72.25 439.02 71.62 438.95
  L 69.44 438.71
  Q 68.75 438.63 68.75 439.32
  Z"
/>
<path fill="#ffffff" d="
  M 40.92 441.61
  Q 44.56 445.52 46.80 450.42
  Q 47.07 451.01 46.42 451.01
  L 43.48 450.99
  Q 42.91 450.98 42.60 450.50
  C 40.65 447.44 38.97 442.28 34.82 442.00
  Q 34.25 441.96 34.25 442.53
  L 34.25 450.38
  Q 34.25 451.00 33.62 451.00
  L 31.50 451.00
  Q 30.75 451.00 30.75 450.25
  L 30.75 430.72
  Q 30.75 430.06 31.41 430.04
  C 35.66 429.88 39.13 429.44 42.98 431.50
  Q 43.43 431.74 43.66 432.19
  Q 46.64 437.80 41.03 440.88
  Q 40.51 441.17 40.92 441.61
  Z
  M 34.25 433.71
  L 34.23 438.11
  A 1.05 1.05 0.0 0 0 35.27 439.17
  L 36.10 439.17
  A 4.60 3.09 0.3 0 0 40.72 436.11
  L 40.72 435.79
  A 4.60 3.09 0.3 0 0 36.14 432.67
  L 35.31 432.67
  A 1.05 1.05 0.0 0 0 34.25 433.71
  Z"
/>
<path fill="#ffffff" d="
  M 104.27 438.73
  L 102.88 438.93
  Q 102.25 439.03 102.25 438.39
  L 102.25 436.63
  Q 102.25 436.00 102.88 436.00
  L 104.50 436.00
  Q 105.00 436.00 105.00 435.50
  L 105.00 433.26
  Q 105.00 432.59 105.66 432.50
  L 108.16 432.16
  Q 108.75 432.08 108.75 432.68
  L 108.75 435.38
  Q 108.75 436.00 109.38 436.00
  L 111.63 436.00
  Q 112.27 436.00 112.26 436.63
  L 112.23 438.35
  Q 112.23 438.98 111.60 438.92
  L 109.39 438.71
  Q 108.86 438.66 108.83 439.19
  C 108.68 442.15 107.56 449.06 111.60 447.96
  Q 112.41 447.74 112.35 448.57
  L 112.24 450.03
  Q 112.20 450.63 111.61 450.78
  Q 108.89 451.48 106.31 450.28
  A 1.98 1.97 11.9 0 1 105.17 448.54
  L 104.92 439.28
  Q 104.91 438.63 104.27 438.73
  Z"
/>
<path fill="#5792f8" d="
  M 34.25 433.71
  A 1.05 1.05 0.0 0 1 35.31 432.67
  L 36.14 432.67
  A 4.60 3.09 0.3 0 1 40.72 435.79
  L 40.72 436.11
  A 4.60 3.09 0.3 0 1 36.10 439.17
  L 35.27 439.17
  A 1.05 1.05 0.0 0 1 34.23 438.11
  L 34.25 433.71
  Z"
/>
<path fill="#ffffff" d="
  M 50.98 445.31
  C 51.40 449.16 57.02 448.53 59.32 447.21
  Q 59.73 446.97 59.88 447.42
  C 61.50 452.17 52.48 451.47 50.53 450.17
  C 46.15 447.24 45.82 440.49 50.17 437.32
  C 55.49 433.44 62.41 437.47 60.82 444.29
  Q 60.71 444.75 60.25 444.75
  L 51.48 444.75
  A 0.51 0.50 86.9 0 0 50.98 445.31
  Z
  M 51.42 442.18
  L 57.11 441.82
  A 0.27 0.27 0.0 0 0 57.36 441.53
  L 57.35 441.38
  A 2.91 2.84 -3.6 0 0 54.27 438.73
  L 53.85 438.76
  A 2.91 2.84 -3.6 0 0 51.12 441.77
  L 51.13 441.92
  A 0.27 0.27 0.0 0 0 51.42 442.18
  Z"
/>
<path fill="#ffffff" d="
  M 82.08 449.09
  C 77.34 456.64 64.43 442.81 82.19 442.00
  Q 82.80 441.97 82.63 441.38
  C 81.52 437.55 77.45 438.18 75.21 440.39
  Q 74.64 440.94 74.68 440.15
  L 74.78 437.69
  Q 74.80 437.16 75.28 436.96
  Q 80.29 434.82 84.24 436.75
  C 87.16 438.17 86.28 447.42 86.20 450.36
  Q 86.19 451.02 85.53 451.01
  L 83.05 450.98
  Q 82.06 450.97 82.57 450.12
  Q 82.80 449.75 82.77 449.27
  Q 82.69 448.13 82.08 449.09
  Z
  M 82.34 444.78
  C 80.52 444.55 78.07 444.36 76.91 446.01
  Q 76.61 446.44 76.88 446.90
  C 78.53 449.71 81.82 447.69 82.74 445.47
  Q 83.00 444.86 82.34 444.78
  Z"
/>
<path fill="#ffffff" d="
  M 100.19 439.73
  C 91.22 434.48 89.76 452.09 100.32 447.26
  A 0.45 0.45 0.0 0 1 100.95 447.58
  C 101.76 451.72 97.35 451.04 94.90 450.89
  C 86.06 450.36 87.15 432.81 100.39 436.39
  Q 101.00 436.56 101.00 437.18
  L 101.00 439.26
  Q 101.00 440.21 100.19 439.73
  Z"
/>
<path fill="#ffffff" d="
  M 129.53 443.49
  A 7.84 7.84 0.0 0 1 121.69 451.33
  A 7.84 7.84 0.0 0 1 113.85 443.49
  A 7.84 7.84 0.0 0 1 121.69 435.65
  A 7.84 7.84 0.0 0 1 129.53 443.49
  Z
  M 121.6651 448.2794
  A 4.77 4.18 90.9 0 0 125.9195 443.5757
  A 4.77 4.18 90.9 0 0 121.8149 438.7406
  A 4.77 4.18 90.9 0 0 117.5605 443.4443
  A 4.77 4.18 90.9 0 0 121.6651 448.2794
  Z"
/>
<path fill="#ffffff" d="
  M 137.92 436.67
  Q 139.37 435.80 141.12 436.04
  Q 141.77 436.13 141.75 436.79
  L 141.69 438.39
  Q 141.66 439.13 140.92 439.10
  C 135.11 438.87 136.75 446.72 136.75 450.28
  Q 136.75 450.99 136.05 450.99
  L 133.65 450.99
  Q 133.00 450.99 133.00 450.34
  L 133.00 436.77
  Q 133.00 436.25 133.50 436.11
  Q 135.37 435.58 136.85 436.63
  Q 137.37 437.00 137.92 436.67
  Z"
/>
<path fill="#5792f8" d="
  M 51.42 442.18
  A 0.27 0.27 0.0 0 1 51.13 441.92
  L 51.12 441.77
  A 2.91 2.84 -3.6 0 1 53.85 438.76
  L 54.27 438.73
  A 2.91 2.84 -3.6 0 1 57.35 441.38
  L 57.36 441.53
  A 0.27 0.27 0.0 0 1 57.11 441.82
  L 51.42 442.18
  Z"
/>
<ellipse fill="#5792f8" cx="0.00" cy="0.00" transform="translate(121.74,443.51) rotate(90.9)" rx="4.77" ry="4.18"/>
<path fill="#ffffff" d="
  M 548.50 456.00
  L 550.20 456.00
  Q 550.69 456.00 550.87 456.46
  C 552.34 460.32 546.21 459.10 544.82 458.26
  Q 544.37 457.98 544.24 457.48
  Q 542.96 452.75 543.29 447.86
  Q 543.33 447.21 542.69 447.11
  Q 540.62 446.77 541.00 444.63
  Q 541.09 444.13 541.60 444.06
  L 542.61 443.92
  Q 543.22 443.84 543.24 443.22
  L 543.27 441.35
  Q 543.29 440.61 544.01 440.49
  L 546.93 439.99
  Q 547.75 439.85 547.75 440.68
  L 547.75 443.50
  Q 547.75 444.00 548.25 444.00
  L 550.19 444.00
  Q 550.87 444.00 550.90 444.68
  L 550.97 446.40
  Q 550.99 446.98 550.41 446.99
  L 548.39 447.02
  Q 547.75 447.03 547.75 447.67
  L 547.75 455.25
  Q 547.75 456.00 548.50 456.00
  Z"
/>
<path fill="#ffffff" d="
  M 508.63 444.00
  L 511.24 444.00
  Q 512.01 444.00 511.89 444.76
  L 511.65 446.32
  Q 511.55 446.97 510.89 446.98
  L 508.61 447.02
  Q 507.95 447.03 507.96 447.70
  L 508.08 454.77
  Q 508.10 455.44 508.75 455.59
  L 511.21 456.16
  Q 511.72 456.28 511.73 456.80
  L 511.76 458.18
  Q 511.77 458.70 511.27 458.83
  Q 507.67 459.77 504.94 457.57
  Q 504.51 457.22 504.42 456.67
  Q 503.79 452.71 504.01 448.81
  C 504.08 447.49 503.68 446.63 502.23 447.04
  Q 501.61 447.22 501.30 446.65
  Q 500.72 445.58 501.39 444.53
  Q 501.70 444.05 502.27 444.02
  L 503.38 443.97
  Q 504.00 443.94 504.00 443.31
  L 504.00 440.87
  Q 504.00 440.25 504.63 440.25
  L 507.33 440.25
  Q 507.97 440.25 507.98 440.89
  L 508.01 443.38
  Q 508.02 444.00 508.63 444.00
  Z"
/>
<path fill="#ffffff" d="
  M 517.02 453.62
  C 517.76 457.53 522.82 455.67 525.53 455.21
  Q 526.17 455.10 526.18 455.75
  C 526.22 457.14 525.61 458.26 524.15 458.62
  C 508.37 462.49 510.02 441.34 522.33 444.26
  Q 527.71 445.53 526.95 452.30
  Q 526.90 452.75 526.45 452.75
  L 517.74 452.75
  A 0.74 0.73 84.8 0 0 517.02 453.62
  Z
  M 517.21 449.91
  L 522.72 449.69
  A 0.25 0.25 0.0 0 0 522.96 449.43
  L 522.96 449.29
  A 2.81 2.45 -2.3 0 0 520.05 446.95
  L 519.65 446.97
  A 2.81 2.45 -2.3 0 0 516.94 449.53
  L 516.95 449.67
  A 0.25 0.25 0.0 0 0 517.21 449.91
  Z"
/>
<path fill="#ffffff" d="
  M 532.73 448.52
  C 535.12 451.80 541.69 449.48 539.35 456.94
  Q 539.19 457.44 538.72 457.67
  Q 534.45 459.78 529.60 458.79
  Q 529.00 458.67 529.00 458.06
  L 529.00 455.79
  Q 529.00 455.12 529.60 455.42
  Q 532.28 456.78 535.19 456.02
  Q 535.60 455.91 535.79 455.53
  C 536.97 453.16 531.96 452.36 530.40 451.77
  Q 529.94 451.60 529.72 451.16
  C 526.17 444.22 534.00 443.73 538.24 444.06
  Q 538.78 444.10 538.84 444.65
  L 539.06 446.99
  Q 539.17 448.06 538.24 447.51
  Q 535.63 445.97 532.99 447.38
  Q 532.20 447.80 532.73 448.52
  Z"
/>
<path fill="#ffffff" d="
  M 566.09 445.67
  Q 569.05 443.12 572.35 444.13
  C 580.98 446.77 576.26 463.77 566.25 457.97
  Q 565.75 457.68 565.75 458.25
  L 565.75 465.37
  Q 565.75 466.00 565.12 466.00
  L 562.63 466.00
  Q 562.00 466.00 562.00 465.38
  L 562.00 444.61
  Q 562.00 443.96 562.65 443.98
  L 564.93 444.05
  Q 565.49 444.07 565.62 444.61
  L 565.85 445.60
  Q 565.91 445.83 566.09 445.67
  Z
  M 568.9230 456.2407
  A 4.73 3.76 93.6 0 0 572.9726 451.7561
  A 4.73 3.76 93.6 0 0 569.5170 446.7993
  A 4.73 3.76 93.6 0 0 565.4674 451.2839
  A 4.73 3.76 93.6 0 0 568.9230 456.2407
  Z"
/>
<path fill="#ffffff" d="
  M 587.76 449.56
  C 587.21 445.46 582.72 446.44 580.67 448.56
  Q 580.25 448.99 580.09 448.42
  C 578.76 443.60 583.98 443.76 586.99 444.07
  C 593.65 444.75 591.78 453.47 591.74 458.11
  Q 591.74 458.61 591.27 458.81
  Q 588.63 459.91 587.82 457.59
  Q 587.62 457.00 587.15 457.42
  C 583.53 460.70 577.14 459.04 578.50 453.32
  Q 578.62 452.80 579.03 452.45
  Q 582.56 449.43 587.19 450.12
  Q 587.85 450.22 587.76 449.56
  Z
  M 582.17 454.45
  L 582.81 456.14
  A 0.68 0.68 0.0 0 0 583.69 456.53
  L 583.81 456.49
  A 4.97 1.44 -20.8 0 0 587.94 453.37
  L 587.84 453.11
  A 4.97 1.44 -20.8 0 0 582.68 453.53
  L 582.56 453.58
  A 0.68 0.68 0.0 0 0 582.17 454.45
  Z"
/>
<path fill="#ffffff" d="
  M 598.46 448.92
  C 600.71 450.00 607.48 452.35 605.09 456.30
  C 603.10 459.60 598.24 459.24 594.92 458.77
  Q 594.35 458.69 594.30 458.12
  L 594.13 456.05
  Q 594.06 455.20 594.87 455.50
  Q 597.59 456.54 600.44 456.09
  Q 600.89 456.02 601.08 455.62
  C 602.46 452.76 593.98 453.03 594.33 447.89
  C 594.62 443.56 601.09 443.63 604.25 444.41
  Q 604.75 444.54 604.75 445.05
  L 604.75 447.23
  Q 604.75 447.74 604.27 447.56
  C 602.48 446.90 599.24 445.93 598.19 448.17
  Q 597.95 448.68 598.46 448.92
  Z"
/>
<path fill="#ffffff" d="
  M 611.50 448.86
  C 613.93 450.14 620.45 452.41 618.24 456.41
  C 616.52 459.52 610.92 459.20 607.85 458.90
  Q 607.25 458.84 607.25 458.23
  L 607.25 455.94
  Q 607.25 455.21 607.92 455.49
  Q 610.50 456.57 613.28 456.19
  Q 613.78 456.12 614.02 455.68
  C 615.76 452.55 605.51 452.84 607.46 447.21
  C 608.74 443.50 614.02 443.53 617.11 444.30
  Q 617.61 444.42 617.67 444.92
  L 617.96 447.03
  Q 618.03 447.58 617.49 447.50
  C 615.56 447.20 612.37 445.70 611.25 448.10
  Q 611.02 448.60 611.50 448.86
  Z"
/>
<path fill="#5792f8" d="
  M 76.91 446.01
  C 78.07 444.36 80.52 444.55 82.34 444.78
  Q 83.00 444.86 82.74 445.47
  C 81.82 447.69 78.53 449.71 76.88 446.90
  Q 76.61 446.44 76.91 446.01
  Z"
/>
<path fill="#6aab77" d="
  M 517.21 449.91
  A 0.25 0.25 0.0 0 1 516.95 449.67
  L 516.94 449.53
  A 2.81 2.45 -2.3 0 1 519.65 446.97
  L 520.05 446.95
  A 2.81 2.45 -2.3 0 1 522.96 449.29
  L 522.96 449.43
  A 0.25 0.25 0.0 0 1 522.72 449.69
  L 517.21 449.91
  Z"
/>
<ellipse fill="#6aab77" cx="0.00" cy="0.00" transform="translate(569.22,451.52) rotate(93.6)" rx="4.73" ry="3.76"/>
<path fill="#6aab77" d="
  M 582.17 454.45
  A 0.68 0.68 0.0 0 1 582.56 453.58
  L 582.68 453.53
  A 4.97 1.44 -20.8 0 1 587.84 453.11
  L 587.94 453.37
  A 4.97 1.44 -20.8 0 1 583.81 456.49
  L 583.69 456.53
  A 0.68 0.68 0.0 0 1 582.81 456.14
  L 582.17 454.45
  Z"
/>
<path fill="#ffffff" d="
  M 480.24 478.76
  Q 480.32 478.70 480.68 479.04
  A 0.55 0.55 0.0 0 1 480.72 479.79
  Q 474.73 487.12 467.09 492.58
  L 480.24 478.76
  Z"
/>
</svg>
