<?xml version="1.0" encoding="UTF-8" standalone="no"?>
<!DOCTYPE svg PUBLIC "-//W3C//DTD SVG 1.1//EN" "http://www.w3.org/Graphics/SVG/1.1/DTD/svg11.dtd">
<svg xmlns="http://www.w3.org/2000/svg" version="1.1" viewBox="0.00 0.00 512.00 512.00">
<path fill="#000000" d="
  M 512.00 455.06
  L 512.00 458.56
  L 510.77 463.70
  Q 510.64 464.21 510.19 464.47
  C 498.68 471.01 481.65 468.09 469.11 477.68
  A 0.53 0.51 -51.9 0 1 468.60 477.75
  C 448.93 469.29 434.46 484.76 415.40 484.62
  Q 410.71 484.59 407.64 485.08
  Q 377.58 489.87 347.19 490.49
  C 326.99 490.90 309.13 488.49 286.00 486.44
  C 234.32 481.85 184.98 465.79 144.12 433.73
  C 132.81 424.86 121.56 415.96 111.54 405.63
  C 104.39 398.25 97.89 389.05 91.33 380.45
  Q 54.41 332.09 32.99 275.33
  C 21.80 245.65 18.12 212.97 6.30 182.67
  C 4.24 177.38 0.64 171.90 0.00 164.69
  L 0.00 162.69
  C 0.93 149.94 9.26 139.81 20.12 133.97
  C 26.79 130.39 36.54 128.37 44.56 124.56
  A 0.51 0.51 0.0 0 0 44.29 123.59
  Q 38.10 124.25 32.26 127.74
  C 21.83 133.97 16.39 123.82 23.68 116.45
  C 29.18 110.89 34.96 113.01 40.89 109.56
  C 47.15 105.91 49.99 100.54 48.51 93.00
  Q 47.87 89.76 45.55 87.95
  Q 45.15 87.63 45.01 87.13
  C 43.66 82.26 57.66 73.82 61.09 70.58
  C 67.23 64.76 63.32 61.27 58.37 57.28
  C 53.79 53.58 48.80 45.70 52.29 39.93
  C 58.46 29.69 80.90 32.53 79.99 47.12
  C 79.58 53.62 73.67 59.98 81.54 64.43
  C 90.89 69.72 116.53 56.05 109.49 77.72
  Q 109.33 78.22 109.70 78.58
  C 116.10 84.78 125.58 85.93 134.71 87.19
  C 142.02 88.19 149.19 90.77 149.06 99.22
  Q 149.05 99.78 149.61 99.84
  C 159.58 100.95 166.45 106.66 174.27 111.75
  C 178.11 114.25 184.24 114.85 188.16 116.31
  C 202.62 121.68 226.46 127.97 233.18 143.66
  Q 233.67 144.82 232.55 145.38
  C 221.77 150.81 206.25 141.27 195.08 139.19
  C 185.06 137.33 181.06 144.81 181.63 153.49
  C 184.58 198.72 185.26 228.11 192.74 264.65
  Q 196.16 281.36 204.18 304.06
  C 213.92 331.58 234.21 353.85 252.98 375.52
  C 270.34 395.56 293.90 411.05 317.51 422.69
  C 338.51 433.04 362.30 439.70 385.29 443.84
  Q 385.79 443.93 386.22 443.65
  Q 387.77 442.62 388.55 441.79
  C 395.51 434.35 403.76 424.26 413.00 419.77
  Q 419.53 416.59 426.60 420.32
  A 1.39 1.38 -71.7 0 1 427.32 421.77
  C 426.08 429.13 419.27 435.30 414.71 441.40
  C 409.02 449.00 430.64 445.85 432.08 445.76
  C 444.54 445.03 456.03 456.97 467.06 443.71
  Q 467.43 443.28 467.84 443.66
  C 475.74 450.95 490.04 448.27 499.82 447.94
  C 505.18 447.76 510.97 448.59 512.00 455.06
  Z
  M 57.76 48.25
  A 2.04 2.04 0.0 0 1 59.88 45.81
  C 62.62 45.98 76.24 48.55 74.16 42.81
  C 68.50 27.19 49.21 42.56 58.36 52.04
  C 58.64 52.33 59.05 52.81 59.49 52.73
  Q 60.21 52.60 59.71 52.06
  Q 58.21 50.48 57.76 48.25
  Z
  M 73.36 69.30
  Q 72.01 69.99 71.00 71.13
  Q 70.36 71.86 71.33 71.75
  Q 73.28 71.54 73.91 69.78
  A 0.40 0.39 -3.6 0 0 73.36 69.30
  Z
  M 94.18 71.45
  C 90.89 70.19 85.22 69.65 83.92 73.74
  Q 83.72 74.37 84.37 74.45
  Q 89.46 75.05 94.21 73.01
  A 0.84 0.84 0.0 0 0 94.18 71.45
  Z
  M 106.27 93.50
  Q 108.47 93.73 110.24 94.99
  A 0.45 0.45 0.0 0 0 110.89 94.40
  C 107.42 88.34 95.20 85.65 88.83 83.94
  Q 88.26 83.78 88.15 84.37
  C 86.89 91.31 92.55 98.17 97.75 101.74
  C 100.02 103.30 104.02 104.69 106.21 102.42
  C 107.74 100.83 105.71 96.15 105.47 94.30
  Q 105.36 93.40 106.27 93.50
  Z
  M 67.12 101.79
  C 74.64 98.11 81.62 100.00 89.45 100.29
  A 0.83 0.82 -23.6 0 0 90.02 98.84
  L 85.34 94.84
  Q 84.97 94.53 84.50 94.61
  Q 73.34 96.63 62.99 101.27
  A 0.50 0.50 0.0 0 0 63.18 102.23
  C 64.57 102.27 65.79 102.44 67.12 101.79
  Z
  M 122.28 111.02
  C 123.33 112.02 129.13 117.82 130.39 116.77
  A 0.65 0.63 53.0 0 0 130.50 115.91
  L 125.27 108.43
  Q 125.01 108.06 125.24 107.67
  L 127.43 103.95
  Q 127.81 103.31 127.34 102.74
  C 124.74 99.56 107.26 105.68 103.43 106.76
  C 91.09 110.24 77.72 113.08 64.96 116.61
  Q 60.00 117.98 55.21 120.13
  A 0.56 0.56 0.0 0 0 55.34 121.19
  Q 56.71 121.45 58.18 120.93
  C 70.07 116.75 91.88 110.23 102.16 120.04
  Q 102.53 120.39 102.75 119.93
  C 102.89 119.61 100.64 115.16 101.83 112.29
  Q 102.06 111.74 102.65 111.77
  C 108.40 112.03 109.94 123.07 115.99 124.00
  C 122.45 124.99 123.16 115.60 121.82 111.31
  Q 121.50 110.27 122.28 111.02
  Z
  M 34.06 157.14
  C 17.89 162.12 33.83 173.24 40.66 175.19
  C 45.63 176.60 48.31 174.11 47.66 168.82
  Q 47.55 167.91 48.45 167.78
  L 62.48 165.80
  A 1.55 1.54 6.6 0 1 64.14 167.89
  L 62.86 171.15
  Q 62.64 171.71 63.23 171.61
  C 81.99 168.41 95.84 154.26 114.90 153.46
  C 130.44 152.80 148.97 149.96 164.49 145.02
  Q 165.18 144.80 172.14 143.03
  C 180.14 140.99 197.27 129.04 188.88 118.93
  Q 188.55 118.54 188.05 118.50
  C 161.21 116.25 132.78 121.37 106.91 129.10
  Q 91.55 133.70 76.09 137.97
  C 68.53 140.05 60.42 141.38 52.48 143.07
  A 2.49 2.09 -88.6 0 0 50.79 144.99
  C 50.53 146.41 57.24 149.40 58.54 150.01
  A 0.59 0.59 0.0 0 1 58.55 151.08
  C 57.48 151.59 54.56 152.38 54.90 154.07
  Q 55.00 154.56 55.42 154.84
  L 61.46 158.83
  Q 62.09 159.24 61.62 159.83
  C 57.69 164.77 49.28 161.25 44.29 158.68
  Q 37.99 155.44 40.31 147.84
  Q 40.50 147.23 39.86 147.29
  C 21.85 148.93 -2.41 159.24 16.77 181.59
  A 0.64 0.64 0.0 0 0 17.88 181.05
  C 15.79 170.57 16.79 150.43 34.07 156.67
  Q 34.77 156.93 34.06 157.14
  Z
  M 223.16 139.54
  C 224.54 140.51 224.99 141.61 225.81 143.02
  A 0.94 0.93 -48.7 0 0 227.48 142.91
  C 230.15 136.57 222.08 133.62 217.25 133.11
  A 0.98 0.98 0.0 0 0 216.35 134.64
  C 217.91 136.90 220.95 137.99 223.16 139.54
  Z
  M 209.38 339.73
  C 208.73 334.16 202.97 322.40 195.65 324.22
  Q 195.04 324.38 195.08 323.75
  Q 195.50 317.90 200.98 315.71
  A 1.67 1.67 0.0 0 0 201.68 313.14
  L 199.18 309.93
  Q 198.85 309.50 198.73 308.96
  C 197.96 305.30 197.25 301.67 196.09 298.04
  Q 189.84 278.57 186.25 258.13
  A 1.58 1.58 0.0 0 0 183.69 257.18
  Q 178.82 261.18 177.76 267.29
  A 0.33 0.33 0.0 0 1 177.11 267.26
  Q 176.72 260.20 179.50 253.76
  A 1.27 1.26 -48.5 0 1 181.75 253.62
  L 182.39 254.73
  A 0.56 0.56 0.0 0 0 183.35 254.73
  C 184.79 252.32 188.15 243.07 180.86 245.54
  Q 180.19 245.77 180.43 245.11
  C 182.18 240.37 184.31 230.18 181.16 225.74
  Q 180.84 225.29 180.38 225.58
  L 179.34 226.24
  Q 178.73 226.62 178.85 225.91
  C 179.91 219.89 182.89 194.79 177.60 191.10
  Q 177.19 190.81 176.69 190.88
  L 175.77 191.01
  Q 175.03 191.11 175.26 190.40
  Q 179.86 175.93 178.29 160.89
  C 177.77 155.89 175.29 148.90 168.69 151.44
  C 166.08 152.44 164.54 154.32 161.17 154.57
  Q 147.97 155.52 135.38 160.27
  A 0.47 0.46 -39.0 0 0 135.29 161.10
  L 143.02 166.07
  A 0.74 0.74 0.0 0 1 142.46 167.42
  L 124.33 163.30
  Q 123.65 163.15 123.61 163.84
  C 123.03 172.72 111.86 169.95 106.31 169.16
  Q 104.90 168.96 106.14 169.66
  L 108.53 171.00
  Q 108.89 171.20 109.04 171.59
  Q 109.79 173.52 108.23 174.99
  C 102.47 180.44 93.87 183.44 85.95 180.86
  Q 85.45 180.70 85.01 180.98
  C 74.54 187.47 95.37 201.52 86.61 205.87
  Q 86.17 206.09 86.08 206.58
  C 84.96 213.02 67.05 204.81 68.29 219.37
  Q 68.35 220.18 67.63 219.81
  Q 65.49 218.72 63.44 219.91
  Q 62.96 220.19 62.90 220.74
  Q 62.14 228.09 67.93 232.10
  Q 70.21 233.67 72.06 231.53
  Q 72.39 231.16 72.88 231.26
  C 90.32 234.80 88.88 247.60 87.76 261.50
  A 1.72 1.72 0.0 0 1 84.96 262.70
  Q 79.56 258.30 79.02 251.59
  C 78.73 248.01 80.62 245.81 84.25 246.01
  Q 84.89 246.05 84.58 245.48
  C 82.79 242.25 76.66 233.01 72.30 238.33
  Q 68.32 243.19 63.95 247.78
  A 0.46 0.45 38.0 0 0 64.04 248.48
  Q 68.71 251.49 73.04 254.96
  C 76.64 257.84 78.13 262.85 72.19 264.37
  A 0.53 0.52 42.4 0 0 72.24 265.40
  C 82.56 267.04 85.04 275.75 87.47 284.46
  C 88.30 287.44 89.63 289.14 92.73 289.32
  Q 93.26 289.35 93.64 288.98
  L 97.82 284.91
  A 2.20 2.19 -48.9 0 1 100.66 284.71
  L 103.17 286.57
  Q 103.96 287.16 103.54 286.27
  Q 103.08 285.28 102.23 284.52
  Q 93.61 276.76 85.22 268.58
  A 1.59 1.59 0.0 0 1 86.58 265.87
  L 92.76 266.83
  A 0.41 0.40 -87.9 0 0 93.23 266.39
  C 92.91 263.05 90.73 253.08 93.54 250.89
  Q 93.99 250.54 94.55 250.51
  Q 96.52 250.39 97.02 248.45
  Q 97.22 247.66 97.68 248.33
  C 97.84 248.55 98.06 249.08 98.01 249.37
  C 97.40 252.93 95.17 267.33 98.47 267.97
  C 102.86 268.81 108.80 256.41 112.21 259.79
  C 113.95 261.51 129.82 279.56 116.55 278.47
  Q 110.71 277.99 106.00 274.45
  A 0.38 0.38 0.0 0 0 105.43 274.94
  C 110.29 283.90 122.78 286.70 122.66 298.40
  C 122.59 305.23 125.44 313.05 134.24 308.55
  Q 134.85 308.24 135.09 308.88
  L 136.88 313.71
  A 1.18 1.18 0.0 0 0 139.08 313.72
  Q 140.39 310.26 140.39 306.55
  Q 140.39 306.06 140.88 306.12
  C 148.01 307.05 151.78 310.93 153.89 317.44
  C 154.54 319.43 156.17 325.36 158.56 325.04
  C 162.09 324.57 154.37 309.85 153.37 307.93
  A 0.60 0.60 0.0 0 1 154.32 307.23
  Q 159.48 312.33 164.60 318.06
  C 174.16 328.76 169.22 336.71 155.56 335.55
  Q 154.75 335.48 155.40 335.96
  C 161.73 340.58 167.94 348.50 176.18 349.33
  C 186.54 350.37 199.71 375.59 181.17 369.89
  Q 178.94 369.20 176.21 367.42
  Q 167.75 361.89 158.19 359.49
  A 0.80 0.80 0.0 0 0 157.50 360.90
  C 161.01 363.66 164.33 365.75 168.66 367.69
  Q 182.79 374.02 196.88 380.44
  Q 214.08 388.27 219.56 392.19
  C 227.65 397.96 233.44 404.49 240.81 412.45
  Q 242.33 414.08 244.01 415.20
  A 0.46 0.45 -36.1 0 1 243.88 416.02
  Q 233.17 418.93 223.40 414.16
  Q 221.21 413.09 221.26 411.00
  Q 221.27 410.51 221.66 410.21
  Q 223.49 408.81 225.78 408.73
  A 0.49 0.49 0.0 0 0 225.86 407.76
  L 213.17 405.26
  Q 212.56 405.14 212.04 405.47
  Q 210.24 406.58 211.28 408.76
  C 214.94 416.40 220.74 417.92 229.33 419.45
  Q 238.97 421.17 248.87 421.15
  A 0.68 0.68 0.0 0 1 249.42 422.22
  L 245.24 428.11
  A 1.01 1.01 0.0 0 0 245.94 429.69
  L 248.76 430.03
  Q 250.10 430.20 248.88 430.78
  C 241.35 434.35 251.43 437.59 254.10 439.19
  Q 254.54 439.45 255.00 439.20
  C 268.61 431.49 266.72 458.51 278.96 445.46
  Q 282.35 441.84 286.36 439.52
  A 0.32 0.32 0.0 0 1 286.77 440.00
  L 280.99 447.03
  A 0.61 0.61 0.0 0 0 281.71 447.98
  C 282.95 447.44 284.50 446.96 285.64 446.13
  C 301.02 434.90 319.17 446.15 334.31 452.22
  Q 337.64 453.55 342.42 454.45
  Q 348.48 455.59 354.33 457.56
  C 362.02 460.15 365.58 458.45 372.53 455.69
  A 0.74 0.74 0.0 0 0 372.63 454.36
  Q 370.65 453.22 368.46 452.64
  C 367.10 452.28 335.83 445.96 344.53 440.79
  A 0.33 0.33 0.0 0 0 344.29 440.19
  C 328.21 444.04 314.98 435.05 305.73 422.37
  Q 305.43 421.96 304.93 421.85
  C 286.62 417.80 258.41 406.01 250.73 387.08
  Q 250.52 386.57 250.97 386.27
  L 252.03 385.58
  Q 252.49 385.27 252.22 384.79
  Q 250.16 381.14 248.45 379.54
  C 237.69 369.50 230.71 358.11 223.07 345.14
  Q 221.93 343.21 219.99 341.79
  C 216.28 339.06 214.67 335.60 211.67 332.42
  Q 210.95 331.66 210.79 332.69
  L 209.68 339.74
  Q 209.51 340.86 209.38 339.73
  Z
  M 86.97 173.63
  L 87.82 174.77
  A 0.41 0.41 0.0 0 0 88.39 174.85
  L 88.58 174.71
  A 2.10 1.05 -36.9 0 0 89.63 172.61
  L 89.54 172.50
  A 2.10 1.05 -36.9 0 0 87.23 172.92
  L 87.05 173.06
  A 0.41 0.41 0.0 0 0 86.97 173.63
  Z
  M 29.29 176.06
  L 25.62 176.95
  A 0.65 0.65 0.0 0 0 25.14 177.73
  L 25.15 177.75
  A 2.39 2.33 -13.6 0 0 28.02 179.45
  L 28.31 179.38
  A 2.39 2.33 -13.6 0 0 30.08 176.56
  L 30.08 176.54
  A 0.65 0.65 0.0 0 0 29.29 176.06
  Z
  M 72.35 193.54
  C 70.94 193.62 63.71 192.02 64.36 194.65
  A 1.26 1.21 -78.2 0 0 64.78 195.32
  C 69.48 199.18 75.68 197.09 79.07 192.81
  A 1.94 1.94 0.0 0 0 79.01 190.34
  C 75.65 186.48 65.94 187.22 61.31 187.00
  A 0.60 0.60 0.0 0 0 61.06 188.15
  L 72.48 192.74
  A 0.42 0.42 0.0 0 1 72.35 193.54
  Z
  M 45.23 196.37
  C 45.83 197.55 47.77 198.87 49.04 199.46
  Q 49.47 199.66 49.89 199.43
  Q 51.99 198.27 53.39 196.24
  A 1.58 1.58 0.0 0 0 52.48 193.82
  Q 49.29 192.99 46.21 193.99
  A 1.69 1.69 0.0 0 0 45.23 196.37
  Z
  M 59.74 199.67
  L 56.77 200.30
  Q 55.77 200.51 56.51 201.21
  C 57.51 202.15 62.64 204.05 61.30 200.52
  A 1.37 1.36 73.3 0 0 59.74 199.67
  Z
  M 77.20 200.38
  L 77.20 201.73
  Q 77.20 202.32 77.79 202.23
  C 78.94 202.04 78.57 200.35 78.03 199.96
  Q 77.20 199.37 77.20 200.38
  Z
  M 25.5021 204.5197
  A 1.33 0.87 74.2 0 0 25.9771 203.0031
  A 1.33 0.87 74.2 0 0 24.7779 201.9603
  A 1.33 0.87 74.2 0 0 24.3029 203.4769
  A 1.33 0.87 74.2 0 0 25.5021 204.5197
  Z
  M 51.90 206.37
  L 54.48 206.52
  A 0.54 0.54 0.0 0 0 55.05 206.01
  L 55.07 205.69
  A 2.30 1.77 -86.7 0 0 53.43 203.30
  L 53.31 203.29
  A 2.30 1.77 -86.7 0 0 51.41 205.48
  L 51.39 205.80
  A 0.54 0.54 0.0 0 0 51.90 206.37
  Z
  M 19.96 206.84
  L 20.23 208.19
  Q 20.34 208.78 20.77 208.36
  L 21.18 207.95
  Q 21.53 207.60 21.41 207.11
  Q 21.27 206.51 20.77 206.24
  Q 19.72 205.68 19.96 206.84
  Z
  M 45.01 214.75
  A 0.72 0.71 63.7 0 0 44.58 216.03
  Q 47.91 218.66 51.95 219.93
  Q 52.46 220.09 52.91 219.80
  L 54.17 218.98
  A 1.21 1.21 0.0 0 0 54.06 216.89
  Q 49.80 214.69 45.01 214.75
  Z
  M 30.83 222.35
  A 1.55 1.55 0.0 0 0 28.89 224.07
  Q 29.61 228.96 34.30 229.96
  A 0.36 0.35 89.5 0 0 34.72 229.53
  C 34.23 227.49 33.12 222.96 30.83 222.35
  Z
  M 45.81 226.50
  C 47.89 227.67 50.19 228.34 52.44 228.60
  Q 52.96 228.66 52.95 228.13
  C 52.86 224.41 48.75 220.83 45.51 223.69
  A 1.74 1.73 39.0 0 0 45.81 226.50
  Z
  M 43.97 231.37
  L 49.74 234.18
  A 0.16 0.16 0.0 0 0 49.96 234.11
  L 49.98 234.06
  A 3.12 1.89 26.0 0 0 48.00 231.00
  L 47.56 230.78
  A 3.12 1.89 26.0 0 0 43.92 231.11
  L 43.90 231.15
  A 0.16 0.16 0.0 0 0 43.97 231.37
  Z
  M 57.90 237.95
  A 0.30 0.29 -74.3 0 0 57.52 238.17
  Q 57.29 239.34 58.43 239.26
  A 0.57 0.56 -37.9 0 0 58.57 238.16
  L 57.90 237.95
  Z
  M 35.55 240.01
  C 36.37 246.23 39.24 252.10 40.83 258.29
  Q 42.15 263.46 46.33 266.75
  A 0.79 0.79 0.0 0 0 47.60 265.97
  Q 44.81 251.66 36.62 239.60
  A 0.59 0.59 0.0 0 0 35.55 240.01
  Z
  M 41.30 260.83
  C 40.22 258.00 33.88 244.54 31.03 244.06
  A 0.76 0.75 86.8 0 0 30.18 245.02
  C 32.33 252.76 36.80 260.23 39.35 266.23
  C 44.34 277.98 48.42 290.29 58.57 298.75
  A 0.38 0.38 0.0 0 0 59.12 298.24
  C 54.08 291.13 51.48 282.68 48.69 274.31
  C 47.13 269.66 43.18 265.75 41.30 260.83
  Z
  M 65.56 259.71
  A 0.54 0.54 0.0 0 0 65.43 260.74
  Q 67.64 261.64 69.28 260.16
  A 0.53 0.52 19.9 0 0 68.85 259.25
  L 65.56 259.71
  Z
  M 69.28 270.37
  A 0.94 0.93 60.7 0 0 68.80 272.09
  Q 72.50 274.49 75.68 271.63
  A 0.81 0.81 0.0 0 0 75.12 270.21
  L 69.28 270.37
  Z
  M 99.82 274.20
  L 98.86 271.44
  A 0.48 0.48 0.0 0 0 98.25 271.15
  L 98.15 271.18
  A 2.15 1.82 -19.2 0 0 96.72 273.61
  L 96.80 273.83
  A 2.15 1.82 -19.2 0 0 99.42 274.85
  L 99.53 274.81
  A 0.48 0.48 0.0 0 0 99.82 274.20
  Z
  M 90.91 272.14
  A 0.37 0.37 0.0 0 0 90.85 272.74
  L 91.42 273.24
  A 0.34 0.34 0.0 0 0 91.97 273.08
  C 92.19 272.36 91.69 271.69 90.91 272.14
  Z
  M 112.59 272.39
  A 0.31 0.30 53.0 0 0 112.52 272.93
  L 114.03 274.02
  Q 115.02 274.73 114.98 273.51
  C 114.94 272.39 113.52 272.06 112.59 272.39
  Z
  M 91.85 302.44
  L 91.51 303.35
  Q 91.28 303.95 91.88 304.18
  Q 104.19 309.02 111.69 313.06
  C 116.60 315.70 122.90 319.61 126.98 319.76
  Q 127.52 319.78 127.80 319.32
  C 128.85 317.63 124.74 312.05 123.68 310.55
  Q 122.90 309.45 120.57 307.64
  C 115.74 303.90 115.15 294.72 113.97 289.08
  Q 112.98 284.32 108.80 284.93
  A 0.83 0.83 0.0 0 0 108.22 286.20
  C 109.54 288.29 115.30 298.33 108.58 297.71
  C 104.24 297.30 89.97 288.97 88.09 292.41
  C 86.79 294.78 90.16 299.66 91.67 301.40
  Q 92.07 301.87 91.85 302.44
  Z
  M 127.36 402.87
  C 126.13 401.63 126.81 399.95 127.93 398.81
  Q 128.40 398.32 127.73 398.39
  C 114.07 399.78 114.86 380.40 106.52 381.23
  Q 106.01 381.28 105.54 381.08
  Q 98.85 378.17 96.76 371.04
  C 93.84 361.10 91.05 353.54 82.22 348.31
  Q 81.77 348.05 81.64 347.55
  C 78.43 335.40 63.39 324.93 57.97 310.36
  Q 53.60 298.58 45.89 288.52
  A 0.35 0.35 0.0 0 0 45.26 288.69
  Q 45.17 289.38 45.44 290.14
  Q 52.22 309.49 63.20 326.81
  C 70.33 338.06 80.34 351.24 88.06 364.58
  C 97.53 380.93 107.33 396.69 122.98 407.94
  C 134.36 416.12 137.93 427.13 154.16 428.34
  A 1.55 1.54 -13.4 0 0 155.60 426.00
  Q 149.43 415.86 137.80 413.39
  Q 137.37 413.30 137.08 412.98
  Q 132.38 407.88 127.36 402.87
  Z
  M 88.02 308.32
  Q 87.28 308.31 86.76 308.89
  Q 86.05 309.67 87.08 309.92
  L 89.43 310.47
  Q 91.49 310.96 90.65 309.02
  Q 90.07 307.67 88.95 308.05
  Q 88.15 308.32 88.02 308.32
  Z
  M 86.65 322.70
  L 93.13 328.08
  A 0.13 0.13 0.0 0 0 93.31 328.06
  L 93.33 328.04
  A 4.20 2.12 39.7 0 0 91.46 323.72
  L 91.24 323.54
  A 4.20 2.12 39.7 0 0 86.65 322.49
  L 86.64 322.51
  A 0.13 0.13 0.0 0 0 86.65 322.70
  Z
  M 147.90 322.55
  A 1.36 1.33 -76.6 0 0 146.96 323.14
  C 145.59 325.20 151.64 326.73 152.82 327.01
  A 0.50 0.50 0.0 0 0 153.42 326.42
  Q 152.47 321.97 147.90 322.55
  Z
  M 123.08 330.52
  C 122.35 330.65 118.19 328.54 116.59 328.33
  Q 115.60 328.20 115.93 329.14
  L 117.02 332.28
  A 0.64 0.64 0.0 0 1 116.29 333.12
  L 111.98 332.25
  Q 111.31 332.11 111.28 332.80
  C 111.24 334.23 117.22 339.14 118.46 340.48
  A 0.83 0.82 -16.0 0 1 117.70 341.85
  L 114.50 341.25
  A 0.27 0.27 0.0 0 0 114.28 341.72
  L 127.30 352.17
  A 0.59 0.58 -12.9 0 1 126.68 353.15
  L 117.74 348.99
  Q 117.30 348.78 117.08 349.21
  C 115.62 352.05 130.27 358.35 132.63 359.57
  C 139.03 362.85 145.09 367.34 152.28 370.18
  A 0.71 0.71 0.0 0 0 153.00 368.98
  L 147.05 363.89
  Q 146.63 363.54 146.94 363.09
  C 150.96 357.09 137.78 353.60 140.54 349.68
  A 0.85 0.85 0.0 0 0 140.32 348.49
  L 131.90 342.74
  A 0.79 0.78 60.0 0 1 132.28 341.31
  C 133.18 341.24 139.03 341.56 139.00 341.05
  Q 138.98 340.60 138.56 340.47
  Q 135.96 339.64 133.86 337.76
  A 1.81 1.81 0.0 0 1 134.33 334.76
  L 141.40 331.60
  A 0.59 0.58 41.5 0 0 141.33 330.51
  C 135.13 328.56 126.49 325.25 120.09 325.21
  A 0.82 0.82 0.0 0 0 119.51 326.61
  L 123.17 330.22
  Q 123.41 330.46 123.08 330.52
  Z
  M 99.40 330.61
  L 98.51 332.06
  A 0.18 0.18 0.0 0 0 98.56 332.30
  L 100.85 333.72
  A 7.09 0.93 31.7 0 0 107.37 336.65
  L 107.48 336.48
  A 7.09 0.93 31.7 0 0 101.94 331.96
  L 99.65 330.55
  A 0.18 0.18 0.0 0 0 99.40 330.61
  Z
  M 86.99 338.89
  L 92.72 344.44
  A 0.17 0.17 0.0 0 0 92.96 344.44
  L 93.02 344.38
  A 3.97 1.29 44.1 0 0 91.06 340.69
  L 90.79 340.42
  A 3.97 1.29 44.1 0 0 87.04 338.59
  L 86.99 338.65
  A 0.17 0.17 0.0 0 0 86.99 338.89
  Z
  M 169.32 360.11
  A 0.82 0.82 0.0 0 0 169.36 361.70
  L 171.08 362.06
  A 0.59 0.59 0.0 0 0 171.73 361.23
  Q 170.97 359.67 169.32 360.11
  Z
  M 179.37 365.20
  A 0.71 0.71 0.0 0 0 178.49 366.17
  Q 179.17 367.63 180.68 367.80
  Q 181.55 367.89 181.23 367.08
  Q 180.69 365.67 179.37 365.20
  Z
  M 140.7939 372.7909
  A 4.46 0.92 13.1 0 0 136.6585 370.8839
  A 4.46 0.92 13.1 0 0 132.1061 370.7691
  A 4.46 0.92 13.1 0 0 136.2415 372.6761
  A 4.46 0.92 13.1 0 0 140.7939 372.7909
  Z
  M 171.35 377.63
  C 169.28 375.28 162.02 372.78 158.93 372.01
  A 0.66 0.65 77.9 0 0 158.26 373.05
  C 161.04 376.63 166.73 377.51 170.89 378.41
  A 0.48 0.48 0.0 0 0 171.35 377.63
  Z
  M 135.1755 375.6692
  A 1.23 0.83 26.0 0 0 134.4338 374.3840
  A 1.23 0.83 26.0 0 0 132.9645 374.5908
  A 1.23 0.83 26.0 0 0 133.7062 375.8760
  A 1.23 0.83 26.0 0 0 135.1755 375.6692
  Z
  M 151.37 376.18
  L 144.64 373.85
  A 0.16 0.16 0.0 0 0 144.44 373.95
  L 144.34 374.24
  A 3.41 1.47 19.1 0 0 147.08 376.75
  L 147.67 376.95
  A 3.41 1.47 19.1 0 0 151.37 376.67
  L 151.47 376.38
  A 0.16 0.16 0.0 0 0 151.37 376.18
  Z
  M 147.78 390.94
  C 152.83 392.76 164.10 394.13 168.83 390.08
  Q 169.29 389.70 169.08 389.14
  C 168.06 386.45 153.16 382.31 149.90 381.21
  C 147.70 380.47 130.72 376.14 134.95 383.06
  C 137.87 387.85 141.68 388.74 147.78 390.94
  Z
  M 183.04 387.82
  Q 177.02 383.84 169.59 381.57
  A 0.80 0.79 -13.4 0 0 168.78 382.88
  C 170.95 385.13 173.74 386.54 176.07 388.83
  C 178.05 390.78 194.26 396.71 192.84 392.00
  A 0.98 0.98 0.0 0 0 192.36 391.42
  C 189.15 389.74 185.92 389.72 183.04 387.82
  Z
  M 194.39 384.23
  Q 189.38 381.46 182.80 382.10
  Q 181.42 382.24 182.33 383.28
  C 183.19 384.26 185.53 384.40 186.75 385.09
  Q 195.76 390.15 206.26 389.40
  Q 207.68 389.30 206.62 388.13
  A 0.89 0.86 74.2 0 0 206.19 387.88
  Q 202.47 387.05 198.79 386.15
  Q 197.10 385.73 194.39 384.23
  Z
  M 263.37 391.43
  Q 262.91 390.55 262.00 390.94
  Q 260.62 391.53 260.27 393.06
  A 0.99 0.98 -76.3 0 0 260.98 394.23
  C 263.21 394.82 264.97 394.50 263.37 391.43
  Z
  M 195.33 402.08
  Q 199.64 402.18 195.78 400.25
  Q 190.59 397.66 184.88 396.51
  A 0.46 0.46 0.0 0 0 184.45 397.27
  Q 188.82 401.94 195.33 402.08
  Z
  M 148.56 398.03
  L 153.69 400.18
  A 0.16 0.16 0.0 0 0 153.90 400.10
  L 153.91 400.07
  A 2.02 1.17 22.8 0 0 152.50 398.21
  L 150.81 397.50
  A 2.02 1.17 22.8 0 0 148.49 397.79
  L 148.48 397.82
  A 0.16 0.16 0.0 0 0 148.56 398.03
  Z
  M 172.00 398.21
  A 0.62 0.62 0.0 0 0 171.65 399.33
  Q 172.80 400.17 174.19 399.90
  Q 175.22 399.69 174.41 399.02
  Q 173.38 398.18 172.00 398.21
  Z
  M 273.51 403.49
  Q 274.68 403.43 274.03 402.45
  Q 272.82 400.61 270.56 401.15
  Q 269.51 401.40 270.24 402.19
  Q 271.52 403.59 273.51 403.49
  Z
  M 280.01 406.57
  C 278.95 406.18 278.71 407.37 279.30 407.97
  A 0.47 0.47 0.0 0 0 280.10 407.74
  L 280.25 406.99
  A 0.37 0.36 -75.6 0 0 280.01 406.57
  Z
  M 199.65 415.39
  C 196.84 412.13 188.27 409.03 184.12 408.08
  A 0.52 0.52 0.0 0 0 183.53 408.82
  C 185.85 413.54 194.54 415.70 199.32 416.05
  Q 200.27 416.12 199.65 415.39
  Z
  M 198.18 410.42
  L 202.52 411.68
  A 0.19 0.19 0.0 0 0 202.76 411.55
  L 202.78 411.47
  A 2.28 2.08 16.2 0 0 201.17 408.83
  L 200.85 408.74
  A 2.28 2.08 16.2 0 0 198.08 410.10
  L 198.05 410.19
  A 0.19 0.19 0.0 0 0 198.18 410.42
  Z
  M 174.70 411.82
  A 0.53 0.53 0.0 0 0 174.58 412.78
  Q 176.02 413.68 177.65 414.06
  Q 178.11 414.17 178.57 414.11
  Q 180.32 413.87 179.96 412.59
  Q 179.82 412.08 179.33 411.90
  Q 177.06 411.07 174.70 411.82
  Z
  M 422.94 423.90
  L 423.06 421.24
  A 0.43 0.43 0.0 0 0 422.65 420.79
  L 422.45 420.78
  A 1.64 1.59 -87.3 0 0 420.79 422.35
  L 420.78 422.59
  A 1.64 1.59 -87.3 0 0 422.29 424.30
  L 422.49 424.31
  A 0.43 0.43 0.0 0 0 422.94 423.90
  Z
  M 176.98 424.37
  C 175.57 423.88 172.30 424.97 171.04 425.61
  A 0.63 0.63 0.0 0 0 171.14 426.78
  Q 174.89 427.93 177.21 425.18
  A 0.51 0.51 0.0 0 0 176.98 424.37
  Z
  M 195.08 424.47
  A 0.64 0.64 0.0 0 0 194.85 425.72
  C 196.77 426.33 199.85 427.88 201.43 425.93
  A 0.71 0.70 -69.0 0 0 200.92 424.78
  L 195.08 424.47
  Z
  M 212.28 431.35
  A 0.99 0.99 0.0 0 0 213.57 430.76
  C 214.93 426.90 208.90 426.79 206.90 427.93
  A 0.75 0.74 40.8 0 0 207.00 429.27
  L 212.28 431.35
  Z
  M 243.39 430.52
  C 240.83 430.36 238.39 430.42 235.96 431.41
  A 0.66 0.66 0.0 0 0 235.89 432.60
  Q 240.12 434.92 243.79 431.70
  A 0.67 0.67 0.0 0 0 243.39 430.52
  Z
  M 183.91 431.15
  L 183.50 432.00
  Q 183.14 432.76 183.98 432.75
  Q 184.11 432.75 184.26 432.75
  Q 184.83 432.75 184.96 432.18
  Q 185.09 431.65 184.89 431.18
  Q 184.43 430.06 183.91 431.15
  Z
  M 401.65 431.73
  L 398.26 432.75
  A 0.48 0.48 0.0 0 0 397.94 433.35
  L 397.97 433.45
  A 2.23 2.13 73.3 0 0 400.65 434.98
  L 400.88 434.91
  A 2.23 2.13 73.3 0 0 402.28 432.16
  L 402.25 432.05
  A 0.48 0.48 0.0 0 0 401.65 431.73
  Z
  M 169.82 434.96
  Q 170.72 436.08 172.18 435.87
  Q 172.98 435.75 172.51 435.09
  Q 171.65 433.88 170.02 434.33
  Q 169.45 434.50 169.82 434.96
  Z
  M 329.5106 436.8377
  A 1.26 0.72 -19.1 0 0 328.0844 436.5696
  A 1.26 0.72 -19.1 0 0 327.1294 437.6623
  A 1.26 0.72 -19.1 0 0 328.5556 437.9304
  A 1.26 0.72 -19.1 0 0 329.5106 436.8377
  Z
  M 240.57 438.13
  L 229.65 437.48
  A 0.15 0.15 0.0 0 0 229.49 437.62
  L 229.49 437.63
  A 5.42 1.24 3.4 0 0 234.83 439.19
  L 235.23 439.21
  A 5.42 1.24 3.4 0 0 240.71 438.29
  L 240.71 438.28
  A 0.15 0.15 0.0 0 0 240.57 438.13
  Z
  M 181.08 438.37
  L 180.29 439.63
  Q 179.89 440.25 180.56 440.56
  Q 181.85 441.17 182.48 440.10
  Q 182.78 439.60 182.47 439.11
  L 182.00 438.37
  A 0.54 0.54 0.0 0 0 181.08 438.37
  Z
  M 207.42 460.76
  Q 206.02 460.56 203.95 459.78
  Q 188.05 453.79 175.85 446.71
  Q 172.48 444.75 169.16 443.50
  A 0.54 0.53 71.9 0 0 168.68 444.45
  C 183.98 454.41 196.16 459.80 217.08 467.89
  C 230.79 473.20 243.23 476.04 258.97 478.36
  C 294.25 483.55 329.16 489.54 364.86 483.60
  A 0.36 0.36 0.0 0 0 364.92 482.91
  C 348.10 477.01 331.89 485.07 315.24 478.17
  Q 314.79 477.98 314.30 478.06
  C 294.88 481.14 274.82 477.58 256.42 474.62
  Q 252.21 473.95 248.04 472.21
  C 226.85 463.36 205.32 456.10 185.17 444.92
  C 181.16 442.70 178.08 441.33 174.01 440.61
  A 0.68 0.68 0.0 0 0 173.52 441.85
  Q 188.34 451.56 204.30 458.16
  C 205.46 458.64 206.55 459.56 207.62 460.23
  Q 208.78 460.95 207.42 460.76
  Z
  M 194.58 442.36
  A 1.03 1.03 0.0 0 0 193.80 443.87
  C 196.51 448.94 202.50 441.35 194.58 442.36
  Z
  M 304.03 456.82
  L 305.13 459.58
  Q 305.79 461.23 307.40 460.47
  C 312.89 457.84 312.81 454.50 311.67 449.11
  C 310.40 443.06 300.30 452.28 298.78 453.66
  C 297.06 455.20 296.37 456.73 296.51 458.95
  A 1.01 1.01 0.0 0 0 298.07 459.73
  L 303.00 456.49
  Q 303.71 456.03 304.03 456.82
  Z
  M 298.55 448.32
  L 292.73 452.21
  A 0.19 0.19 0.0 0 0 292.68 452.47
  L 292.73 452.55
  A 3.53 1.33 -33.7 0 0 296.41 451.70
  L 296.67 451.53
  A 3.53 1.33 -33.7 0 0 298.87 448.46
  L 298.82 448.38
  A 0.19 0.19 0.0 0 0 298.55 448.32
  Z
  M 286.3674 453.7456
  A 1.49 0.67 112.6 0 0 287.5586 452.6275
  A 1.49 0.67 112.6 0 0 287.5126 450.9944
  A 1.49 0.67 112.6 0 0 286.3214 452.1125
  A 1.49 0.67 112.6 0 0 286.3674 453.7456
  Z
  M 406.49 457.70
  C 412.75 458.18 427.21 460.69 431.71 455.30
  Q 432.07 454.87 431.52 454.79
  Q 408.40 451.51 400.75 451.00
  C 395.47 450.64 386.93 450.72 384.83 456.10
  A 0.71 0.71 0.0 0 0 385.45 457.07
  C 392.52 457.49 399.63 457.17 406.49 457.70
  Z
  M 316.52 459.99
  C 319.63 458.36 322.74 455.89 325.08 453.21
  A 1.04 1.03 -71.1 0 0 324.24 451.49
  Q 318.46 451.85 314.82 456.23
  Q 314.42 456.71 314.66 457.28
  L 315.65 459.67
  Q 315.91 460.31 316.52 459.99
  Z
  M 466.03 452.24
  L 464.71 454.37
  A 0.79 0.79 0.0 0 0 465.68 455.52
  L 467.31 454.87
  Q 467.77 454.68 467.73 454.18
  Q 467.63 453.18 467.19 452.30
  Q 466.66 451.24 466.03 452.24
  Z
  M 442.97 456.69
  L 443.32 454.28
  Q 443.46 453.35 442.57 453.64
  Q 440.69 454.23 440.19 456.09
  Q 440.05 456.62 440.57 456.80
  L 441.98 457.29
  A 0.75 0.75 0.0 0 0 442.97 456.69
  Z
  M 500.74 454.33
  C 492.49 453.73 483.87 454.06 475.71 455.41
  A 0.50 0.50 0.0 0 0 475.62 456.37
  C 477.45 457.04 479.15 457.53 481.18 457.52
  C 483.17 457.51 501.30 456.65 501.26 454.87
  Q 501.24 454.37 500.74 454.33
  Z
  M 220.78 456.54
  C 219.34 455.95 217.75 456.26 216.32 456.80
  A 0.60 0.60 0.0 0 0 216.22 457.88
  C 217.20 458.46 222.79 460.94 221.40 457.18
  Q 221.23 456.73 220.78 456.54
  Z
  M 335.46 457.63
  C 333.06 455.82 329.39 460.29 328.97 462.47
  Q 328.80 463.34 329.62 463.01
  Q 333.13 461.59 335.58 458.68
  A 0.72 0.72 0.0 0 0 335.46 457.63
  Z
  M 272.28 458.59
  Q 271.22 459.55 270.58 460.84
  Q 269.69 462.62 271.60 462.03
  Q 274.01 461.29 273.36 458.90
  A 0.66 0.66 0.0 0 0 272.28 458.59
  Z
  M 323.70 458.57
  C 321.30 459.12 318.52 461.02 317.00 462.98
  Q 316.62 463.47 317.09 463.87
  C 320.32 466.63 323.48 462.04 324.25 459.13
  Q 324.45 458.40 323.70 458.57
  Z
  M 279.99 460.67
  A 0.63 0.63 0.0 0 0 279.24 461.32
  L 279.28 462.13
  A 0.49 0.49 0.0 0 0 280.00 462.53
  C 280.83 462.09 281.24 460.89 279.99 460.67
  Z
  M 260.64 467.51
  C 250.91 465.86 241.24 463.44 231.63 461.27
  A 0.49 0.49 0.0 0 0 231.29 462.19
  Q 249.18 471.67 269.54 472.36
  A 0.55 0.54 63.6 0 0 269.87 471.37
  Q 265.67 468.37 260.64 467.51
  Z
  M 347.4384 461.5093
  A 3.99 0.87 -31.6 0 0 343.5841 462.8590
  A 3.99 0.87 -31.6 0 0 340.6416 465.6907
  A 3.99 0.87 -31.6 0 0 344.4959 464.3410
  A 3.99 0.87 -31.6 0 0 347.4384 461.5093
  Z
  M 338.18 462.28
  Q 335.39 463.02 333.36 465.09
  Q 332.84 465.63 333.34 466.19
  L 334.22 467.20
  Q 334.79 467.85 335.39 467.22
  L 338.92 463.53
  A 0.75 0.75 0.0 0 0 338.18 462.28
  Z
  M 347.18 469.37
  C 349.85 467.92 352.83 465.73 354.86 463.46
  A 0.67 0.66 15.1 0 0 354.23 462.37
  C 352.33 462.74 344.02 466.01 346.35 469.19
  Q 346.69 469.64 347.18 469.37
  Z
  M 318.65 468.51
  A 0.58 0.58 0.0 0 0 319.29 469.38
  L 320.09 469.17
  A 0.59 0.59 0.0 0 0 320.07 468.03
  Q 319.09 467.80 318.65 468.51
  Z
  M 375.44 481.76
  C 374.06 481.10 372.57 482.01 371.16 482.29
  Q 369.39 482.63 370.94 483.56
  Q 373.83 485.29 375.67 482.63
  Q 376.06 482.07 375.44 481.76
  Z"
/>
<path fill="#000000" d="
  M 148.78 121.06
  A 2.11 2.09 46.9 0 1 150.38 121.12
  C 157.65 124.46 159.60 135.78 146.59 130.84
  Q 146.08 130.64 146.03 130.09
  C 145.79 127.55 145.69 122.19 148.78 121.06
  Z"
/>
<path fill="#000000" d="
  M 161.96 128.32
  L 161.48 131.28
  A 0.68 0.67 19.8 0 1 160.47 131.75
  Q 159.26 131.03 159.79 129.67
  Q 162.12 123.80 167.96 123.11
  Q 169.61 122.92 169.79 124.50
  Q 169.84 124.99 169.43 125.25
  Q 166.37 127.24 162.72 127.61
  Q 162.07 127.68 161.96 128.32
  Z"
/>
<path fill="#000000" d="
  M 115.22 136.92
  C 109.30 132.64 100.52 140.20 98.36 137.81
  Q 97.89 137.28 98.51 136.93
  Q 110.69 130.11 124.56 132.73
  A 0.99 0.99 0.0 0 1 124.65 134.66
  L 116.23 137.09
  Q 115.68 137.25 115.22 136.92
  Z"
/>
<path fill="#000000" d="
  M 96.77 139.23
  Q 96.78 140.39 96.04 141.32
  A 0.69 0.69 0.0 0 1 94.83 141.04
  Q 94.47 139.47 96.04 138.77
  Q 96.75 138.45 96.77 139.23
  Z"
/>
<path fill="#000000" d="
  M 91.90 147.65
  C 88.46 149.66 84.67 149.05 82.16 145.99
  Q 81.87 145.65 81.86 145.20
  C 81.66 139.49 90.40 143.94 92.18 146.18
  A 1.00 0.99 -34.4 0 1 91.90 147.65
  Z"
/>
<path fill="#000000" d="
  M 75.16 143.41
  A 0.75 0.75 0.0 0 1 76.18 144.43
  Q 75.26 146.13 73.23 145.85
  A 0.67 0.66 34.6 0 1 73.00 144.61
  L 75.16 143.41
  Z"
/>
<path fill="#000000" d="
  M 85.81 160.00
  C 80.59 158.80 78.26 155.29 71.92 154.49
  Q 71.33 154.42 71.44 153.84
  Q 72.10 150.22 74.93 149.13
  C 80.08 147.14 85.49 154.21 87.25 158.26
  A 1.27 1.26 84.7 0 1 85.81 160.00
  Z"
/>
<path fill="#000000" d="
  M 169.10 189.99
  A 0.50 0.50 0.0 0 0 169.87 189.81
  C 171.73 185.69 171.91 180.46 174.34 176.90
  A 0.49 0.49 0.0 0 1 175.24 177.21
  C 175.01 180.96 171.98 197.00 167.22 197.28
  C 165.12 197.40 163.38 194.73 163.20 193.01
  Q 162.00 181.59 167.76 171.66
  A 1.22 1.22 0.0 0 1 169.95 171.84
  C 170.85 174.16 171.02 176.11 170.22 178.67
  C 169.61 180.62 167.51 188.71 169.10 189.99
  Z"
/>
<path fill="#000000" d="
  M 99.29 185.99
  Q 99.91 185.86 100.30 186.47
  Q 100.68 187.07 99.99 187.25
  Q 99.37 187.40 98.97 186.82
  A 0.53 0.53 0.0 0 1 99.29 185.99
  Z"
/>
<path fill="#000000" d="
  M 114.95 206.88
  L 119.16 211.05
  A 0.63 0.63 0.0 0 1 118.48 212.09
  Q 112.08 209.52 106.83 205.10
  Q 106.41 204.74 106.56 204.20
  C 107.69 200.27 105.56 195.83 104.00 192.25
  Q 103.04 190.06 104.38 192.04
  C 106.19 194.72 107.29 197.36 110.03 199.16
  C 111.34 200.02 117.80 203.33 117.47 204.83
  Q 117.35 205.35 116.83 205.50
  L 115.17 206.00
  Q 114.32 206.25 114.95 206.88
  Z"
/>
<path fill="#000000" d="
  M 117.80 198.47
  L 116.28 196.53
  Q 115.92 196.08 116.28 195.63
  L 117.45 194.13
  A 1.39 1.39 0.0 0 1 119.84 194.47
  C 120.28 195.61 121.80 199.85 118.98 199.21
  A 2.09 2.08 76.9 0 1 117.80 198.47
  Z"
/>
<path fill="#000000" d="
  M 157.68 204.33
  Q 158.06 206.53 159.13 208.48
  Q 160.25 210.51 158.72 208.77
  Q 157.07 206.88 157.21 204.36
  Q 157.32 202.28 157.68 204.33
  Z"
/>
<path fill="#000000" d="
  M 105.23 213.45
  C 104.34 213.20 100.09 212.32 100.27 211.04
  Q 100.35 210.46 100.94 210.54
  Q 111.94 212.09 121.00 218.49
  A 0.45 0.45 0.0 0 1 120.63 219.29
  C 115.14 217.76 110.55 214.91 105.23 213.45
  Z"
/>
<ellipse fill="#000000" cx="0.00" cy="0.00" transform="translate(161.27,215.07) rotate(65.0)" rx="3.58" ry="0.50"/>
<path fill="#000000" d="
  M 109.83 225.12
  C 102.67 222.18 98.29 222.79 95.00 214.21
  A 1.19 1.19 0.0 0 1 96.53 212.67
  Q 108.32 217.13 117.30 225.99
  A 0.86 0.85 -14.9 0 1 116.47 227.42
  Q 113.19 226.51 109.83 225.12
  Z"
/>
<path fill="#000000" d="
  M 87.83 218.48
  C 93.34 219.84 99.96 224.76 103.69 228.95
  A 0.79 0.79 0.0 0 1 103.10 230.26
  C 99.71 230.28 97.24 229.86 94.68 227.32
  Q 91.07 223.73 87.15 219.67
  A 0.72 0.71 74.9 0 1 87.83 218.48
  Z"
/>
<path fill="#000000" d="
  M 89.25 232.30
  A 1.04 1.04 0.0 0 0 89.44 231.13
  Q 87.71 227.50 85.12 224.42
  Q 82.82 221.70 85.61 223.91
  L 89.69 227.15
  Q 90.07 227.45 90.54 227.57
  C 102.41 230.50 97.39 247.16 90.16 239.81
  Q 84.76 234.31 79.92 228.35
  A 0.56 0.56 0.0 0 1 80.64 227.51
  C 81.86 228.22 88.54 233.04 89.25 232.30
  Z"
/>
<path fill="#000000" d="
  M 110.01 239.26
  Q 110.46 240.09 109.58 240.44
  C 108.02 241.04 106.26 236.47 106.05 235.46
  Q 105.80 234.30 106.70 235.09
  Q 108.73 236.89 110.01 239.26
  Z"
/>
<path fill="#000000" d="
  M 101.97 236.00
  A 0.67 0.66 69.2 0 1 103.01 236.47
  Q 103.15 237.78 102.13 238.33
  Q 101.53 238.66 101.05 238.18
  L 100.64 237.77
  Q 100.15 237.27 100.72 236.87
  L 101.97 236.00
  Z"
/>
<path fill="#000000" d="
  M 172.32 245.23
  C 172.06 244.03 172.19 237.22 173.22 236.76
  Q 173.92 236.44 173.87 237.20
  L 173.38 245.15
  A 0.54 0.54 0.0 0 1 172.32 245.23
  Z"
/>
<path fill="#000000" d="
  M 144.27 237.51
  A 0.21 0.21 0.0 0 1 144.46 237.28
  L 144.57 237.27
  A 1.98 0.92 85.4 0 1 145.65 239.17
  L 145.85 241.73
  A 1.98 0.92 85.4 0 1 145.09 243.77
  L 144.98 243.78
  A 0.21 0.21 0.0 0 1 144.76 243.59
  L 144.27 237.51
  Z"
/>
<path fill="#000000" d="
  M 160.60 246.29
  L 162.76 246.18
  Q 163.45 246.15 163.83 246.72
  C 166.24 250.28 161.29 257.39 166.14 259.15
  Q 166.69 259.35 166.64 259.94
  Q 166.26 264.29 164.28 268.16
  A 1.51 1.51 0.0 0 1 161.85 268.51
  Q 160.34 266.93 159.69 264.88
  Q 159.55 264.44 159.21 264.14
  C 152.90 258.56 153.42 245.78 155.98 238.89
  A 1.29 1.29 0.0 0 1 158.44 239.04
  L 160.09 245.90
  Q 160.19 246.31 160.60 246.29
  Z"
/>
<path fill="#000000" d="
  M 175.62 249.31
  Q 175.88 243.97 177.07 238.80
  A 0.47 0.47 0.0 0 1 177.89 238.61
  C 179.17 240.22 176.94 247.95 176.28 249.47
  Q 175.54 251.15 175.62 249.31
  Z"
/>
<path fill="#000000" d="
  M 126.60 260.14
  C 126.00 257.70 120.69 245.53 121.09 244.36
  Q 121.32 243.69 121.91 244.07
  C 128.18 248.09 134.85 257.02 138.66 262.67
  Q 138.97 263.13 138.77 263.65
  Q 138.17 265.23 136.33 265.26
  Q 135.71 265.27 135.61 265.89
  Q 135.17 268.80 136.71 271.31
  Q 138.94 274.93 136.22 271.74
  C 132.29 267.15 132.74 267.47 128.45 271.41
  Q 128.02 271.81 127.51 271.53
  C 121.37 268.15 114.62 247.92 115.85 241.40
  Q 116.01 240.55 116.30 241.37
  Q 119.85 251.54 125.83 260.47
  A 0.43 0.42 21.6 0 0 126.60 260.14
  Z"
/>
<path fill="#000000" d="
  M 103.05 248.40
  Q 104.27 250.95 103.96 253.80
  A 0.56 0.56 0.0 0 1 102.99 254.11
  Q 100.75 251.62 102.35 248.40
  Q 102.71 247.69 103.05 248.40
  Z"
/>
<path fill="#000000" d="
  M 114.14 253.24
  Q 116.58 255.80 115.78 259.43
  A 0.72 0.72 0.0 0 1 114.52 259.73
  L 111.48 255.99
  Q 111.07 255.48 111.50 254.99
  L 112.99 253.26
  Q 113.55 252.61 114.14 253.24
  Z"
/>
<path fill="#000000" d="
  M 181.15 267.75
  Q 180.48 269.16 180.66 267.61
  Q 180.86 265.80 181.38 264.21
  Q 181.59 263.55 181.82 264.20
  Q 182.25 265.41 181.15 267.75
  Z"
/>
<path fill="#000000" d="
  M 184.79 275.59
  Q 185.32 278.13 184.74 280.72
  Q 184.41 282.24 184.18 280.69
  Q 183.80 278.16 184.13 275.62
  Q 184.39 273.65 184.79 275.59
  Z"
/>
<path fill="#000000" d="
  M 133.36 296.76
  C 135.02 296.66 136.02 298.98 134.95 299.87
  Q 134.27 300.44 133.92 299.63
  L 132.96 297.41
  Q 132.70 296.80 133.36 296.76
  Z"
/>
<path fill="#000000" d="
  M 152.18 298.79
  L 154.46 301.11
  Q 155.49 302.16 154.12 301.60
  Q 152.36 300.88 151.65 299.13
  Q 151.05 297.65 152.18 298.79
  Z"
/>
<path fill="#000000" d="
  M 191.03 303.56
  C 194.55 303.98 194.88 312.30 194.13 315.08
  Q 193.94 315.80 193.55 315.17
  Q 190.57 310.32 189.89 304.70
  A 1.03 1.03 0.0 0 1 191.03 303.56
  Z"
/>
<path fill="#000000" d="
  M 201.02 330.05
  Q 201.56 332.40 201.01 334.75
  A 0.51 0.51 0.0 0 1 200.09 334.93
  Q 198.29 332.40 200.20 329.88
  Q 200.80 329.08 201.02 330.05
  Z"
/>
<path fill="#000000" d="
  M 214.75 348.59
  Q 217.66 350.63 219.04 353.91
  Q 219.28 354.49 218.71 354.74
  C 215.84 356.03 214.11 351.09 214.05 348.97
  Q 214.03 348.09 214.75 348.59
  Z"
/>
<path fill="#000000" d="
  M 87.04 361.68
  C 86.73 360.44 88.58 361.41 88.86 362.02
  Q 89.04 362.39 88.92 362.78
  Q 88.73 363.43 88.28 363.17
  Q 87.28 362.61 87.04 361.68
  Z"
/>
<ellipse fill="#000000" cx="0.00" cy="0.00" transform="translate(223.25,363.02) rotate(83.3)" rx="2.04" ry="0.45"/>
<path fill="#000000" d="
  M 228.39 367.53
  C 232.68 371.43 236.68 377.19 237.79 382.92
  A 0.64 0.64 0.0 0 1 236.76 383.55
  Q 229.25 377.63 227.13 368.27
  A 0.77 0.77 0.0 0 1 228.39 367.53
  Z"
/>
<path fill="#000000" d="
  M 302.79 423.57
  L 303.33 423.93
  Q 303.98 424.35 303.26 424.65
  Q 302.21 425.08 302.05 424.05
  A 0.48 0.48 0.0 0 1 302.79 423.57
  Z"
/>
</svg>
