<svg version="1.2" xmlns="http://www.w3.org/2000/svg" viewBox="0 0 1024 1024" width="208" height="208">
	<title>image</title>
	<style>
		.s0 { fill: #6db33f } 
		.s1 { fill: #ffffff } 
	</style>
	<g id="Background">
		<path id="Path 0" class="s0" d="m409.6 8.9c-21.3 4.5-54 13.7-72.8 20.3-18.8 6.7-49.5 20.4-68.3 30.5-18.8 10.2-47.4 28.3-63.7 40.4-16.3 12-45 37.9-63.8 57.6-18.8 19.6-43.7 50.1-55.4 67.6-11.7 17.5-29.5 49.2-39.5 70.5-10.1 21.3-23.7 58.2-30.4 81.9-10.2 36.1-12.5 55.4-14.4 116.1-1.8 61-0.7 79.8 6.9 116 5 23.8 15.4 60.7 23.2 82 7.8 21.2 24.9 56.5 38 78.4 13.1 21.9 35.7 54.1 50.1 71.7 14.4 17.5 28.2 31.9 30.7 31.9 2.5 0 5.8-3.6 7.2-8 1.5-4.3 5.1-13.8 8-21.1 2.9-7.2 10.9-15.9 17.8-19.3 6.9-3.4 17.6-6.2 23.9-6.2 6.5 0 17.1 5.8 25 13.7 10 9.9 13.7 17.9 13.7 29.5 0 11.5-3.8 19.8-13.3 29.6-8 8.2-18 13.7-25.1 13.7-6.4 0-11.7 2.5-11.6 5.7 0 3.1 12.8 14.1 28.4 24.4 15.6 10.4 42.7 26 60.2 34.7 17.6 8.7 47.3 21.2 66 27.6 18.8 6.5 52.6 15 75.1 18.9 22.6 3.9 61.5 7.1 86.5 7 25 0 62.9-3.1 84.2-6.8 21.3-3.8 55.1-12.3 75.1-18.9 20-6.6 51.8-19.7 70.5-29.2 18.8-9.4 47.5-26.5 63.7-37.9 16.3-11.5 43.8-34.7 61.1-51.6 17.3-17 42.1-45.2 55.2-62.7 13.1-17.5 30.1-43.1 37.7-56.9 7.7-13.7 21-43.4 29.7-66 8.6-22.5 19.5-58.3 24.1-79.6 6.5-30.2 8.3-57.7 8.2-125.2-0.1-69.1-2.1-96.9-10-138.8-5.4-28.8-16.2-76.9-23.9-106.9-7.7-30.1-22.6-81.8-33.2-115-10.5-33.2-20.7-60.4-22.6-60.3-1.8 0-6.8 6.7-10.9 14.9-4.1 8.1-15.4 27.5-25 43.2l-17.5 28.4c-44.1-40-70.2-60.2-86.5-70.7-16.3-10.5-39.8-24.3-52.3-30.6-12.6-6.4-37.1-17-54.7-23.6-17.5-6.6-51.8-16-76.2-20.9-31-6.2-61.8-8.8-102.4-8.6-37.6 0.2-71.6 3.2-96.7 8.6z"/>
		<path id="Path 1" class="s1" d="m182 825.6c-6.2 3.3-13.8 12-16.7 19.2-3 7.2-6.6 17.7-8 23.3-1.4 5.7-0.5 10.3 2 10.3 2.5 0 3.5 2 2.3 4.5-1.3 2.5 4.3 9.6 12.5 15.7 12.8 9.6 17.1 10.6 33 7 10-2.2 22.8-9.2 28.4-15.6 6.5-7.3 10.3-17.5 10.3-27.6 0-11.6-3.7-19.6-13.7-29.5-8.7-8.8-18.2-13.6-26.2-13.5-6.8 0.1-17.6 2.9-23.9 6.2zm725.1-679c-10.3 15.7-35.3 44.5-55.6 63.9-20.2 19.4-50.7 44.2-67.6 55.2-16.9 10.9-40.9 25-53.4 31.2-12.6 6.3-37.1 16.6-54.7 22.9-17.5 6.3-52.3 14.7-77.3 18.7-25.1 4-78.3 9.3-118.4 11.8-44.2 2.8-87.1 8.3-109.2 14-20 5.1-51.8 17.4-70.5 27.2-18.8 9.8-45.4 27.8-59.2 39.9-13.8 12.1-33.8 35.2-44.6 51.3-10.8 16.1-23.6 40.1-28.4 53.2-4.9 13.1-10.8 36.7-13 52.3-2.5 17-2.5 43.2 0 64.9 2.6 23.4 8.7 46.2 16.9 63.7 7 15 20.3 35 29.6 44.4 9.2 9.4 22.9 20.1 30.4 23.9 12.8 6.4 19.3 5.5 103.5-14.2 49.5-11.6 109.4-26.8 133.2-33.8 23.7-7.1 59.6-19.8 79.6-28.2 20-8.5 50.8-23.7 68.3-33.9 17.5-10.2 49.2-31.6 70.4-47.5 21.2-16 53.1-43.4 70.8-60.9 17.8-17.5 44.5-48.5 59.3-68.8 14.9-20.3 31-43.8 35.8-52.3 7.5-13.2 9-14.1 10.5-6.3 1 5-8.4 29.6-20.8 54.6-12.3 25-35.3 62.9-51.1 84.2-15.7 21.3-41 51.7-56.2 67.7-15.3 15.9-44.1 41.7-64.1 57.2-20 15.6-48.7 35.8-63.7 44.9-15 9.2-43.7 23.6-63.7 32-20.1 8.5-77.4 28.1-127.5 43.7-50 15.5-92.4 29.6-94.2 31.3-1.7 1.7 67.9 3.6 154.8 4.3 91.5 0.7 177-0.8 203.4-3.7 25-2.7 61.9-9.1 81.9-14.1 20-5.1 48.7-14.9 63.7-21.8 15-7 39.6-21.9 54.6-33.3 15.1-11.3 36.3-32.6 47.3-47.3 11-14.7 26.8-41 35-58.5 8.3-17.5 19.3-49.3 24.5-70.6 5.4-21.7 10.8-62.5 12.3-93.2 1.5-31.3 0.4-76.1-2.6-104.7-3-27.6-10.6-75.7-17-107-6.4-31.3-19.8-84.5-29.7-118.3-9.9-33.8-19.5-63.1-21.3-65-1.8-2-11.7 9.3-22 25z"/>
	</g>
</svg>